<svg width="17" height="16" viewBox="0 0 17 16" fill="none" xmlns="http://www.w3.org/2000/svg">
<path d="M3.25 6.45001V10.5" stroke="#606580" stroke-miterlimit="10" stroke-linecap="round" stroke-linejoin="round"/>
<path d="M5.3 8.45001H1.25" stroke="#606580" stroke-miterlimit="10" stroke-linecap="round" stroke-linejoin="round"/>
<path d="M12.9 4.6L12.95 4.15C12.95 4.05 12.9 4 12.8 4C12.05 4 11.35 4.3 10.85 4.85C10.5 5.25 10.25 5.7 10.15 6.2L9.45002 10.05C9.35002 10.6 9.05002 11.15 8.60002 11.5C8.20002 11.8 7.70002 12 7.20002 12C7.05002 12 6.90002 11.85 6.90002 11.7V11.55" stroke="#606580" stroke-miterlimit="10" stroke-linecap="round" stroke-linejoin="round"/>
<path d="M15.75 10.15L14.8 10.95C14.65 11.05 14.5 11 14.4 10.9L12.25 7.29999H7.85004" stroke="#606580" stroke-miterlimit="10" stroke-linecap="round" stroke-linejoin="round"/>
<path d="M15.5 7.29999C15.25 7.29999 15 7.39999 14.85 7.59999L12 10.7C11.85 10.9 11.6 11 11.35 11" stroke="#606580" stroke-miterlimit="10" stroke-linecap="round" stroke-linejoin="round"/>
</svg>
