<svg width="16" height="17" viewBox="0 0 16 17" fill="none" xmlns="http://www.w3.org/2000/svg">
<path d="M5.44998 1.75H1.59998V15.25H5.44998V1.75Z" stroke="#606580" stroke-miterlimit="10" stroke-linecap="round" stroke-linejoin="round"/>
<path d="M1.59985 3.60001H5.44985" stroke="#606580" stroke-miterlimit="10" stroke-linecap="round" stroke-linejoin="round"/>
<path d="M1.59985 8.10001H5.44985" stroke="#606580" stroke-miterlimit="10" stroke-linecap="round" stroke-linejoin="round"/>
<path d="M3.5499 13.95C3.90889 13.95 4.1999 13.659 4.1999 13.3C4.1999 12.941 3.90889 12.65 3.5499 12.65C3.19092 12.65 2.8999 12.941 2.8999 13.3C2.8999 13.659 3.19092 13.95 3.5499 13.95Z" stroke="#606580" stroke-miterlimit="10" stroke-linecap="round" stroke-linejoin="round"/>
<path d="M7.34985 1.75H9.94985V15.25H7.34985" stroke="#606580" stroke-miterlimit="10" stroke-linecap="round" stroke-linejoin="round"/>
<path d="M7.34973 3.60001H9.94973" stroke="#606580" stroke-miterlimit="10" stroke-linecap="round" stroke-linejoin="round"/>
<path d="M7.34973 8.10001H9.94973" stroke="#606580" stroke-miterlimit="10" stroke-linecap="round" stroke-linejoin="round"/>
<path d="M7.99973 13.95C8.35872 13.95 8.64973 13.659 8.64973 13.3C8.64973 12.941 8.35872 12.65 7.99973 12.65C7.64075 12.65 7.34973 12.941 7.34973 13.3C7.34973 13.659 7.64075 13.95 7.99973 13.95Z" stroke="#606580" stroke-miterlimit="10" stroke-linecap="round" stroke-linejoin="round"/>
<path d="M11.7998 1.75H14.3998V15.25H11.7998" stroke="#606580" stroke-miterlimit="10" stroke-linecap="round" stroke-linejoin="round"/>
<path d="M11.7999 3.60001H14.3999" stroke="#606580" stroke-miterlimit="10" stroke-linecap="round" stroke-linejoin="round"/>
<path d="M11.7999 8.10001H14.3999" stroke="#606580" stroke-miterlimit="10" stroke-linecap="round" stroke-linejoin="round"/>
<path d="M12.4499 13.95C12.8089 13.95 13.0999 13.659 13.0999 13.3C13.0999 12.941 12.8089 12.65 12.4499 12.65C12.0909 12.65 11.7999 12.941 11.7999 13.3C11.7999 13.659 12.0909 13.95 12.4499 13.95Z" stroke="#606580" stroke-miterlimit="10" stroke-linecap="round" stroke-linejoin="round"/>
</svg>
