<svg width="18" height="18" viewBox="0 0 18 18" fill="none" xmlns="http://www.w3.org/2000/svg">
<path d="M6.13105 1.40625H1.7998V16.5938H6.13105V1.40625Z" stroke="#606580" stroke-miterlimit="10" stroke-linecap="round" stroke-linejoin="round"/>
<path d="M1.7998 3.48755H6.13105" stroke="#606580" stroke-miterlimit="10" stroke-linecap="round" stroke-linejoin="round"/>
<path d="M1.7998 8.55005H6.13105" stroke="#606580" stroke-miterlimit="10" stroke-linecap="round" stroke-linejoin="round"/>
<path d="M3.99346 15.1312C4.39732 15.1312 4.72471 14.8038 4.72471 14.4C4.72471 13.9961 4.39732 13.6687 3.99346 13.6687C3.5896 13.6687 3.26221 13.9961 3.26221 14.4C3.26221 14.8038 3.5896 15.1312 3.99346 15.1312Z" stroke="#606580" stroke-miterlimit="10" stroke-linecap="round" stroke-linejoin="round"/>
<path d="M8.26855 1.40625H11.1936V10" stroke="#606580" stroke-miterlimit="10" stroke-linecap="round" stroke-linejoin="round"/>
<path d="M8.26855 4.75342H11.1936" stroke="#606580" stroke-miterlimit="10" stroke-linecap="round" stroke-linejoin="round"/>
<path d="M13.2744 1.40625H16.1994V9.09539" stroke="#606580" stroke-miterlimit="10" stroke-linecap="round" stroke-linejoin="round"/>
<path d="M13.2744 4.75342H16.1994" stroke="#606580" stroke-miterlimit="10" stroke-linecap="round" stroke-linejoin="round"/>
<path d="M7.31605 17V13.3636H8.75071C9.02652 13.3636 9.26148 13.4163 9.45561 13.5217C9.64974 13.6258 9.7977 13.7708 9.8995 13.9567C10.0025 14.1413 10.054 14.3544 10.054 14.5959C10.054 14.8374 10.0019 15.0504 9.89773 15.2351C9.79356 15.4197 9.64264 15.5636 9.44496 15.6665C9.24846 15.7695 9.01054 15.821 8.73118 15.821H7.81676V15.2049H8.60689C8.75485 15.2049 8.87678 15.1795 8.97266 15.1286C9.06972 15.0765 9.14193 15.0049 9.18928 14.9137C9.23781 14.8214 9.26207 14.7154 9.26207 14.5959C9.26207 14.4751 9.23781 14.3698 9.18928 14.2798C9.14193 14.1887 9.06972 14.1183 8.97266 14.0685C8.87559 14.0176 8.75249 13.9922 8.60334 13.9922H8.08487V17H7.31605ZM11.8424 17H10.5534V13.3636H11.8531C12.2188 13.3636 12.5337 13.4364 12.7977 13.582C13.0616 13.7264 13.2646 13.9342 13.4067 14.2053C13.5499 14.4763 13.6215 14.8007 13.6215 15.1783C13.6215 15.5571 13.5499 15.8826 13.4067 16.1548C13.2646 16.4271 13.0605 16.636 12.7941 16.7816C12.529 16.9272 12.2117 17 11.8424 17ZM11.3222 16.3413H11.8105C12.0377 16.3413 12.2289 16.301 12.384 16.2205C12.5402 16.1388 12.6574 16.0128 12.7355 15.8423C12.8148 15.6707 12.8545 15.4493 12.8545 15.1783C12.8545 14.9096 12.8148 14.69 12.7355 14.5195C12.6574 14.3491 12.5408 14.2236 12.3857 14.1431C12.2307 14.0626 12.0395 14.0224 11.8122 14.0224H11.3222V16.3413ZM14.1911 17V13.3636H16.5987V13.9975H14.9599V14.864H16.4389V15.4979H14.9599V17H14.1911Z" fill="#D9363C"/>
</svg>
