<svg width="18" height="18" viewBox="0 0 18 18" fill="none" xmlns="http://www.w3.org/2000/svg">
  <path d="M6.13105 6.1875V1.40625H1.7998V6.1875" stroke="#606580" stroke-miterlimit="10" stroke-linecap="round" stroke-linejoin="round"/>
  <path d="M1.7998 3.48755H6.13105" stroke="#606580" stroke-miterlimit="10" stroke-linecap="round" stroke-linejoin="round"/>
  <path d="M8.26855 1.40625H11.1936V6.75" stroke="#606580" stroke-miterlimit="10" stroke-linecap="round" stroke-linejoin="round"/>
  <path d="M8.26831 3.48755H11.1933" stroke="#606580" stroke-miterlimit="10" stroke-linecap="round" stroke-linejoin="round"/>
  <path d="M13.2747 1.40625H16.1997V16.5938H13.2747" stroke="#606580" stroke-miterlimit="10" stroke-linecap="round" stroke-linejoin="round"/>
  <path d="M13.2749 3.48755H16.1999" stroke="#606580" stroke-miterlimit="10" stroke-linecap="round" stroke-linejoin="round"/>
  <path d="M13.2749 8.55005H16.1999" stroke="#606580" stroke-miterlimit="10" stroke-linecap="round" stroke-linejoin="round"/>
  <path d="M14.0062 15.1312C14.41 15.1312 14.7374 14.8038 14.7374 14.4C14.7374 13.9961 14.41 13.6687 14.0062 13.6687C13.6023 13.6687 13.2749 13.9961 13.2749 14.4C13.2749 14.8038 13.6023 15.1312 14.0062 15.1312Z" stroke="#606580" stroke-miterlimit="10" stroke-linecap="round" stroke-linejoin="round"/>
  <path d="M7.19995 13.05H10.6875L8.9437 14.7375" stroke="#606580" stroke-miterlimit="10" stroke-linecap="round" stroke-linejoin="round"/>
  <path d="M10.6871 13.05L8.94336 11.3063" stroke="#606580" stroke-miterlimit="10" stroke-linecap="round" stroke-linejoin="round"/>
  <path d="M2.925 11.8125L3.2625 11.925C3.31875 11.925 3.43125 11.9812 3.4875 12.0375L3.825 12.2062L3.99375 12.5437C4.05 12.6 4.05 12.6562 4.05 12.7687L4.1625 13.1062L4.05 13.4437C4.05 13.5 3.99375 13.5562 3.99375 13.6687L3.825 14.0062L3.4875 14.175C3.43125 14.2312 3.375 14.2312 3.2625 14.2312L2.925 14.3438L2.5875 14.2312C2.53125 14.2312 2.475 14.175 2.3625 14.175L2.025 14.0062L1.85625 13.6687C1.8 13.6125 1.8 13.5563 1.8 13.5L1.6875 13.05L1.8 12.7125C1.8 12.6563 1.85625 12.6 1.85625 12.5437L2.025 12.2062L2.3625 12.0375C2.41875 11.9812 2.475 11.9812 2.5875 11.9812L2.925 11.8125ZM3.15 10.125H2.64375C2.475 10.125 2.30625 10.2375 2.30625 10.4062L2.25 10.8C2.1375 10.8562 1.96875 10.9125 1.85625 10.9688L1.51875 10.7438C1.4625 10.6875 1.40625 10.6875 1.29375 10.6875C1.18125 10.6875 1.125 10.7437 1.0125 10.8L0.61875 11.1375C0.50625 11.25 0.45 11.475 0.5625 11.5875L0.7875 11.925C0.73125 12.0375 0.675 12.2062 0.61875 12.3187L0.225 12.375C0.1125 12.4313 0 12.6 0 12.7687V13.275C0 13.4438 0.1125 13.6125 0.28125 13.6125L0.675 13.6687C0.73125 13.7812 0.7875 13.95 0.84375 14.0625L0.61875 14.4C0.50625 14.5688 0.5625 14.7937 0.675 14.9062L1.0125 15.2438C1.06875 15.3 1.18125 15.3562 1.29375 15.3562C1.35 15.3562 1.4625 15.3562 1.51875 15.3L1.85625 15.075C1.96875 15.1312 2.08125 15.1875 2.25 15.1875L2.30625 15.5812C2.3625 15.75 2.475 15.8625 2.64375 15.8625H3.15C3.31875 15.8625 3.4875 15.75 3.4875 15.5812L3.54375 15.1875C3.65625 15.1312 3.825 15.075 3.9375 15.0187L4.275 15.2438C4.33125 15.3 4.3875 15.3 4.5 15.3C4.6125 15.3 4.66875 15.2438 4.78125 15.1875L5.11875 14.85C5.23125 14.7375 5.2875 14.5125 5.175 14.4L4.95 14.0625C5.00625 13.95 5.0625 13.7812 5.11875 13.6687L5.5125 13.6125C5.68125 13.5562 5.79375 13.4438 5.79375 13.275V12.7687C5.79375 12.6 5.68125 12.4313 5.5125 12.4313L5.11875 12.3187C5.0625 12.2062 5.00625 12.0375 4.95 11.925L5.175 11.5875C5.2875 11.4188 5.2875 11.25 5.11875 11.1375L4.78125 10.8C4.725 10.7437 4.6125 10.6875 4.5 10.6875C4.44375 10.6875 4.33125 10.6875 4.275 10.7438L3.9375 10.9688C3.825 10.9125 3.65625 10.8562 3.54375 10.8L3.4875 10.4062C3.4875 10.2375 3.31875 10.125 3.15 10.125Z" fill="#606580"/>
</svg>
