<svg width="18" height="18" viewBox="0 0 18 18" fill="none" xmlns="http://www.w3.org/2000/svg">
  <path d="M6.13105 1.40625H1.7998V16.5938H6.13105V1.40625Z" stroke="#606580" stroke-miterlimit="10" stroke-linecap="round" stroke-linejoin="round"/>
  <path d="M1.7998 3.48755H6.13105" stroke="#606580" stroke-miterlimit="10" stroke-linecap="round" stroke-linejoin="round"/>
  <path d="M1.7998 8.55005H6.13105" stroke="#606580" stroke-miterlimit="10" stroke-linecap="round" stroke-linejoin="round"/>
  <path d="M3.9937 15.1312C4.39756 15.1312 4.72495 14.8038 4.72495 14.4C4.72495 13.9961 4.39756 13.6687 3.9937 13.6687C3.58984 13.6687 3.26245 13.9961 3.26245 14.4C3.26245 14.8038 3.58984 15.1312 3.9937 15.1312Z" stroke="#606580" stroke-miterlimit="10" stroke-linecap="round" stroke-linejoin="round"/>
  <path d="M8.26855 1.40625H11.1936V6.75" stroke="#606580" stroke-miterlimit="10" stroke-linecap="round" stroke-linejoin="round"/>
  <path d="M8.26831 3.48755H11.1933" stroke="#606580" stroke-miterlimit="10" stroke-linecap="round" stroke-linejoin="round"/>
  <path d="M13.2747 1.40625H16.1997V6.1875" stroke="#606580" stroke-miterlimit="10" stroke-linecap="round" stroke-linejoin="round"/>
  <path d="M13.2749 3.48755H16.1999" stroke="#606580" stroke-miterlimit="10" stroke-linecap="round" stroke-linejoin="round"/>
  <path d="M13.05 11.475V13.3312L14.0063 13.8375" stroke="#606580" stroke-miterlimit="10" stroke-linecap="round" stroke-linejoin="round"/>
  <path d="M13.05 17.1C15.2868 17.1 17.1 15.2868 17.1 13.05C17.1 10.8132 15.2868 9 13.05 9C10.8132 9 9 10.8132 9 13.05C9 15.2868 10.8132 17.1 13.05 17.1Z" stroke="#606580" stroke-miterlimit="10" stroke-linecap="round" stroke-linejoin="round"/>
</svg>
