<svg width="17" height="16" viewBox="0 0 17 16" fill="none" xmlns="http://www.w3.org/2000/svg">
<path d="M3.7 15H2.4C1.65 14.25 1.25 13.85 0.5 13.1V10.8V5.2V2.9C1.25 2.15 1.65 1.75 2.4 1H3.7" stroke="#606580" stroke-miterlimit="10" stroke-linecap="round" stroke-linejoin="round"/>
<path d="M10 14.1C9.25005 14.85 9.85005 14.25 9.10005 15H7.80005" stroke="#606580" stroke-miterlimit="10" stroke-linecap="round" stroke-linejoin="round"/>
<path d="M7.80005 1H9.10005C9.85005 1.75 10.25 2.15 11 2.9V6.2" stroke="#606580" stroke-miterlimit="10" stroke-linecap="round" stroke-linejoin="round"/>
<path d="M12.7 9.1L13.1 9.2C13.2 9.2 13.25 9.25 13.35 9.3L13.75 9.5L13.95 9.85C14 9.9 14 10 14.05 10.1L14.15 10.5L14 10.9C14 10.95 13.95 11.05 13.9 11.15L13.7 11.5L13.3 11.7C13.25 11.75 13.15 11.75 13.05 11.8L12.65 11.95L12.25 11.8C12.15 11.75 12.1 11.75 12 11.7L11.65 11.5L11.45 11.15C11.4 11.1 11.4 11 11.35 10.9L11.25 10.5L11.35 10.1C11.35 10 11.4 9.95 11.45 9.85L11.65 9.5L12.05 9.3C12.15 9.25 12.2 9.25 12.3 9.2L12.7 9.1ZM12.95 7.5H12.4C12.2 7.5 12.05 7.65 12.05 7.8L12 8.2C11.85 8.25 11.7 8.3 11.6 8.35L11.25 8.1C11.2 8.05 11.1 8.05 11.05 8.05C10.95 8.05 10.85 8.1 10.8 8.15L10.4 8.5C10.25 8.65 10.25 8.85 10.35 8.95L10.6 9.3C10.55 9.45 10.5 9.55 10.45 9.7L9.99995 9.9C9.79995 9.95 9.69995 10.1 9.69995 10.25V10.75C9.69995 10.95 9.84995 11.1 9.99995 11.1L10.45 11.15C10.5 11.3 10.55 11.4 10.6 11.55L10.35 11.9C10.25 12.05 10.25 12.25 10.4 12.35L10.8 12.7C10.85 12.75 10.95 12.8 11.05 12.8C11.15 12.8 11.2 12.8 11.25 12.75L11.6 12.5C11.75 12.55 11.85 12.6 12 12.65L12.05 13.05C12.1 13.25 12.25 13.35 12.4 13.35H12.95C13.15 13.35 13.3 13.2 13.3 13.05L13.35 12.65C13.5 12.6 13.65 12.55 13.75 12.5L14.1 12.75C14.15 12.8 14.25 12.8 14.3 12.8C14.4 12.8 14.5 12.75 14.55 12.7L14.95 12.35C15.1 12.2 15.1 12 15 11.9L14.75 11.55C14.8 11.4 14.9 11.3 14.9 11.15L15.3 11.1C15.5 11.05 15.6 10.9 15.6 10.75V10.25C15.6 10.05 15.45 9.9 15.3 9.9L14.9 9.85C14.85 9.7 14.8 9.55 14.75 9.45L15 9.1C15.1 8.95 15.1 8.75 14.95 8.65L14.6 8.3C14.55 8.25 14.45 8.2 14.35 8.2C14.25 8.2 14.2 8.2 14.15 8.25L13.8 8.5C13.65 8.45 13.5 8.35 13.35 8.35L13.3 7.95C13.3 7.65 13.1 7.5 12.95 7.5Z" fill="#606580"/>
</svg>
