<svg width="17" height="16" viewBox="0 0 17 16" fill="none" xmlns="http://www.w3.org/2000/svg">
<path d="M10.95 2.7L11 2C11 1.85 10.9 1.75 10.75 1.75C9.60001 1.75 8.45001 2.25 7.65001 3.1C7.10001 3.7 6.70001 4.45 6.60001 5.25L5.55001 11.3C5.40001 12.2 4.90001 13 4.20001 13.55C3.55001 14.05 2.80001 14.3 2.00001 14.3C1.75001 14.3 1.50001 14.05 1.55001 13.8V13.5" stroke="#606580" stroke-miterlimit="10" stroke-linecap="round" stroke-linejoin="round"/>
<path d="M15.45 11.35L14 12.6C13.8 12.75 13.5 12.7 13.35 12.5L10 6.85001H3.10004" stroke="#606580" stroke-miterlimit="10" stroke-linecap="round" stroke-linejoin="round"/>
<path d="M15.1 6.85004C14.7 6.85004 14.35 7.00004 14.1 7.30004L9.59998 12.2C9.34998 12.5 8.94998 12.65 8.59998 12.65" stroke="#606580" stroke-miterlimit="10" stroke-linecap="round" stroke-linejoin="round"/>
</svg>
