<svg width="16" height="17" viewBox="0 0 16 17" fill="none" xmlns="http://www.w3.org/2000/svg">
<path d="M12.65 15.5V6.64999H15.3L10.25 1.54999L5.19995 6.64999H7.84995V9.49999" stroke="#606580" stroke-miterlimit="10" stroke-linecap="round" stroke-linejoin="round"/>
<path d="M7.84998 1.54999H1.84998" stroke="#606580" stroke-miterlimit="10" stroke-linecap="round" stroke-linejoin="round"/>
<path d="M14.85 1.5H12.85" stroke="#606580" stroke-miterlimit="10" stroke-linecap="round" stroke-linejoin="round"/>
<path d="M4.19995 15.5H3.34995V13.25L2.74995 14.7H2.09995L1.49995 13.25V15.5H0.699951V12.1H1.69995L2.44995 13.8L3.19995 12.1H4.19995V15.5Z" fill="#606580"/>
<path d="M4.54993 15.5L5.69993 12.1H6.64993L7.79993 15.5H6.89993L6.69993 14.8H5.59993L5.39993 15.5H4.54993ZM6.49993 14.2L6.14993 13.05L5.79993 14.2H6.49993Z" fill="#606580"/>
<path d="M11 15.5H10L9.35 14.4L8.7 15.5H7.75L8.85 13.8L7.8 12.1H8.8L9.4 13.15L10.05 12.1H11L9.95 13.75L11 15.5Z" fill="#606580"/>
</svg>
