<svg width="16" height="17" viewBox="0 0 16 17" fill="none" xmlns="http://www.w3.org/2000/svg">
<path d="M9.14995 4.9H8.29995V2.65L7.69995 4.1H7.09995L6.49995 2.65V4.9H5.69995V1.5H6.69995L7.44995 3.2L8.14995 1.5H9.14995V4.9Z" fill="#606580"/>
<path d="M11.55 4.9H9.69995V4.3H10.2V2.1H9.69995V1.5H11.55V2.1H11.05V4.35H11.55V4.9Z" fill="#606580"/>
<path d="M15.05 4.9H14.2L12.9 2.5V4.9H12.1V1.5H13.15L14.25 3.45V1.5H15.05V4.9Z" fill="#606580"/>
<path d="M3.59995 1.5V10.35H0.949951L5.99995 15.45L11.05 10.35H8.39995V7.5" stroke="#606580" stroke-miterlimit="10" stroke-linecap="round" stroke-linejoin="round"/>
<path d="M8.3999 15.45H14.3999" stroke="#606580" stroke-miterlimit="10" stroke-linecap="round" stroke-linejoin="round"/>
<path d="M1.3999 15.5H3.3999" stroke="#606580" stroke-miterlimit="10" stroke-linecap="round" stroke-linejoin="round"/>
</svg>
