<svg width="17" height="17" viewBox="0 0 17 17" fill="none" xmlns="http://www.w3.org/2000/svg">
<path d="M3.25 4.29999H5.95" stroke="#606580" stroke-miterlimit="10" stroke-linecap="round" stroke-linejoin="round"/>
<path d="M1.54999 8.34999L3.24999 4.29999L4.89999 8.34999" stroke="#606580" stroke-miterlimit="10" stroke-linecap="round" stroke-linejoin="round"/>
<path d="M1.25 9.69998C1.25 10.8 2.15 11.7 3.25 11.7C4.35 11.7 5.25 10.8 5.25 9.69998H1.25Z" stroke="#606580" stroke-miterlimit="10" stroke-linecap="round" stroke-linejoin="round"/>
<path d="M13.75 4.29999H11.05" stroke="#606580" stroke-miterlimit="10" stroke-linecap="round" stroke-linejoin="round"/>
<path d="M15.4499 8.34993L13.7499 4.29993L12.0999 8.34993" stroke="#606580" stroke-miterlimit="10" stroke-linecap="round" stroke-linejoin="round"/>
<path d="M15.7499 9.69992C15.7499 10.7999 14.8499 11.6999 13.7499 11.6999C12.6499 11.6999 11.7499 10.7999 11.7499 9.69992H15.7499Z" stroke="#606580" stroke-miterlimit="10" stroke-linecap="round" stroke-linejoin="round"/>
<path d="M8.50009 6.65001C9.79795 6.65001 10.8501 5.59788 10.8501 4.30001C10.8501 3.00214 9.79795 1.95001 8.50009 1.95001C7.20222 1.95001 6.15009 3.00214 6.15009 4.30001C6.15009 5.59788 7.20222 6.65001 8.50009 6.65001Z" stroke="#606580" stroke-miterlimit="10" stroke-linecap="round" stroke-linejoin="round"/>
<path d="M8.50006 10.7C8.50006 12.95 8.50006 14.75 8.50006 14.75C8.50006 14.75 8.50006 12.95 8.50006 10.7ZM8.50006 10.7C8.50006 8.45002 8.50006 6.65002 8.50006 6.65002C8.50006 6.65002 8.50006 8.45002 8.50006 10.7Z" stroke="#606580" stroke-miterlimit="10" stroke-linecap="round" stroke-linejoin="round"/>
<path d="M13.5501 15.1C13.5501 15.1 11.3001 15.1 8.50007 15.1C5.70007 15.1 3.45007 15.1 3.45007 15.1C3.45007 15.1 5.70007 15.1 8.50007 15.1C11.3001 15.1 13.5501 15.1 13.5501 15.1Z" stroke="#606580" stroke-miterlimit="10" stroke-linecap="round" stroke-linejoin="round"/>
</svg>
