<svg width="16" height="17" viewBox="0 0 16 17" fill="none" xmlns="http://www.w3.org/2000/svg">
<path d="M3.15005 15.7L5.85005 13L7.80005 14.95C7.90005 15.05 8.00005 14.95 8.00005 14.85V8.95C8.00005 8.7 7.80005 8.5 7.55005 8.5H1.60005C1.50005 8.5 1.45005 8.65 1.50005 8.7L3.50005 10.65L0.800049 13.35" stroke="#606580" stroke-miterlimit="10" stroke-linecap="round" stroke-linejoin="round"/>
<path d="M9.84998 1.29999H6.34998V4.79999H9.84998V1.29999Z" stroke="#606580" stroke-miterlimit="10" stroke-linecap="round" stroke-linejoin="round"/>
<path d="M4.5 1.29999H1V4.79999H4.5V1.29999Z" stroke="#606580" stroke-miterlimit="10" stroke-linecap="round" stroke-linejoin="round"/>
<path d="M15.2 1.29999H11.7V4.79999H15.2V1.29999Z" stroke="#606580" stroke-miterlimit="10" stroke-linecap="round" stroke-linejoin="round"/>
<path d="M15.2001 6.54999H11.7001V10.05H15.2001V6.54999Z" stroke="#606580" stroke-miterlimit="10" stroke-linecap="round" stroke-linejoin="round"/>
<path d="M15.2001 11.8H11.7001V15.3H15.2001V11.8Z" stroke="#606580" stroke-miterlimit="10" stroke-linecap="round" stroke-linejoin="round"/>
</svg>
