<svg width="22" height="18" viewBox="0 0 22 18" fill="none" xmlns="http://www.w3.org/2000/svg">
<path d="M14.9001 5.24353L6.80933 13.3343" stroke="#727689" stroke-miterlimit="10" stroke-linecap="round" stroke-linejoin="round"/>
<path d="M6.80933 5.24353L14.9001 13.3343" stroke="#727689" stroke-miterlimit="10" stroke-linecap="round" stroke-linejoin="round"/>
<path d="M21.7471 9.82001C20.7912 9.88008 20.3132 10.5949 20.3132 11.9645V15.2804C20.3132 16.0132 20.114 16.5779 19.7157 16.9743C19.3174 17.3828 18.773 17.587 18.0826 17.587H16.7483V15.9291H17.5847C18.076 15.9291 18.3216 15.6167 18.3216 14.992V11.4779C18.3216 10.8532 18.4876 10.3186 18.8195 9.87408C19.1382 9.45359 19.5431 9.16525 20.0344 9.00907C18.8925 8.61261 18.3216 7.77764 18.3216 6.50416V3.02612C18.3216 2.38938 18.0959 2.07101 17.6445 2.07101H16.7483V0.413086H18.0826C18.7465 0.413086 19.2776 0.605309 19.6759 0.989756C20.1008 1.41024 20.3132 1.99893 20.3132 2.75581V6.08968C20.3132 7.43524 20.7912 8.13205 21.7471 8.18011V9.82001Z" fill="#727689"/>
<path d="M5.23184 17.587H3.87757C3.20044 17.587 2.66272 17.3828 2.26441 16.9743C1.87937 16.5779 1.68686 16.0012 1.68686 15.2443V11.9104C1.68686 10.6129 1.20888 9.91613 0.25293 9.82001V8.18011C1.20888 8.13205 1.68686 7.42924 1.68686 6.07166V2.73779C1.68686 1.98091 1.89265 1.39823 2.30424 0.989756C2.70255 0.605309 3.227 0.413086 3.87757 0.413086H5.23184V2.07101H4.35555C3.87757 2.07101 3.63859 2.38938 3.63859 3.02612V6.52218C3.63859 7.77163 3.07431 8.6006 1.94576 9.00907C3.07431 9.3815 3.63859 10.2105 3.63859 11.496V14.992C3.63859 15.6167 3.89749 15.9291 4.4153 15.9291H5.23184V17.587Z" fill="#727689"/>
</svg>
