<svg width="22" height="20" viewBox="0 0 22 20" fill="none" xmlns="http://www.w3.org/2000/svg">
<path d="M15.2747 0.000244141C15.668 0.000244141 16.0071 0.0138077 16.2919 0.0409349C16.5768 0.0680621 16.8277 0.108753 17.0447 0.163007C17.2617 0.203698 17.4516 0.264734 17.6144 0.346116C17.7771 0.413934 17.9399 0.495315 18.1027 0.59026C18.4282 0.793714 18.6791 1.12602 18.8554 1.58718C19.0318 2.04835 19.1199 2.60445 19.1199 3.25551V7.34493C19.1199 7.75184 19.1471 8.09771 19.2013 8.38254C19.2691 8.66738 19.3776 8.91152 19.5268 9.11498C19.676 9.31843 19.8727 9.48797 20.1169 9.62361C20.3746 9.75925 20.7001 9.88132 21.0934 9.98983C20.7001 10.1119 20.3746 10.2475 20.1169 10.3967C19.8727 10.5324 19.676 10.7019 19.5268 10.9054C19.3776 11.0953 19.2691 11.3326 19.2013 11.6175C19.1471 11.8887 19.1199 12.2278 19.1199 12.6347V16.7648C19.1199 18.1212 18.7808 19.0028 18.1027 19.4097C17.9399 19.5182 17.7704 19.6064 17.594 19.6742C17.4177 19.7556 17.221 19.8166 17.004 19.8573C16.8006 19.9116 16.5564 19.9455 16.2716 19.9591C15.9867 19.9862 15.6544 19.9998 15.2747 19.9998V19.7353C15.6816 19.6403 16.0207 19.5182 16.2919 19.369C16.5632 19.2199 16.7802 19.03 16.943 18.7994C17.1193 18.5824 17.2414 18.3179 17.3092 18.0059C17.377 17.6939 17.4109 17.3209 17.4109 16.8869V13.0009C17.4109 12.5127 17.4381 12.1057 17.4923 11.7802C17.5601 11.4411 17.6754 11.1631 17.8382 10.9461C18.0009 10.7155 18.2247 10.5324 18.5096 10.3967C18.7944 10.2475 19.1538 10.1119 19.5879 9.98983C19.1538 9.88132 18.7944 9.75925 18.5096 9.62361C18.2247 9.47441 18.0009 9.2913 17.8382 9.07429C17.6754 8.8437 17.5601 8.56565 17.4923 8.24012C17.4381 7.9146 17.4109 7.50769 17.4109 7.0194V3.13343C17.4109 2.68583 17.377 2.30605 17.3092 1.99409C17.2414 1.68213 17.1193 1.41764 16.943 1.20062C16.7802 0.970041 16.5632 0.78015 16.2919 0.630951C16.0207 0.481752 15.6816 0.352897 15.2747 0.244389V0.000244141Z" fill="#727689"/>
<path d="M6.72552 19.9998C6.33217 19.9998 5.99308 19.9862 5.70825 19.9591C5.43698 19.9455 5.19283 19.9116 4.97581 19.8573C4.7588 19.8166 4.56891 19.7556 4.40614 19.6742C4.24338 19.6064 4.08062 19.5182 3.91786 19.4097C3.59233 19.2063 3.33462 18.874 3.14473 18.4128C2.9684 17.9517 2.88024 17.3955 2.88024 16.7445V12.6347C2.88024 12.2278 2.84633 11.8887 2.77851 11.6175C2.72426 11.3326 2.62253 11.0953 2.47333 10.9054C2.32413 10.7019 2.12068 10.5324 1.86297 10.3967C1.61883 10.2475 1.30008 10.1119 0.906738 9.98983C1.30008 9.88132 1.61883 9.75925 1.86297 9.62361C2.12068 9.48797 2.32413 9.31843 2.47333 9.11498C2.62253 8.91152 2.72426 8.66738 2.77851 8.38254C2.84633 8.09771 2.88024 7.75184 2.88024 7.34493V3.23516C2.88024 1.89236 3.22611 1.01073 3.91786 0.59026C4.08062 0.495315 4.24338 0.413934 4.40614 0.346116C4.58247 0.264734 4.77914 0.203698 4.99616 0.163007C5.21318 0.108753 5.45732 0.0680621 5.72859 0.0409349C6.01343 0.0138077 6.34574 0.000244141 6.72552 0.000244141V0.244389C6.31861 0.352897 5.97952 0.481752 5.70825 0.630951C5.43698 0.78015 5.21996 0.970041 5.0572 1.20062C4.89443 1.41764 4.77914 1.68213 4.71132 1.99409C4.64351 2.30605 4.6096 2.68583 4.6096 3.13343V7.0194C4.6096 7.50769 4.57569 7.9146 4.50787 8.24012C4.44005 8.56565 4.32476 8.8437 4.162 9.07429C3.99924 9.2913 3.77544 9.47441 3.4906 9.62361C3.21933 9.77281 2.86668 9.90845 2.43264 10.0305C2.86668 10.139 3.21933 10.2611 3.4906 10.3967C3.77544 10.5324 3.99924 10.7155 4.162 10.9461C4.32476 11.1631 4.44005 11.4411 4.50787 11.7802C4.57569 12.1057 4.6096 12.5127 4.6096 13.0009V16.8869C4.6096 17.3209 4.64351 17.6939 4.71132 18.0059C4.77914 18.3179 4.89443 18.5824 5.0572 18.7994C5.21996 19.03 5.43698 19.2199 5.70825 19.369C5.97952 19.5182 6.31861 19.6403 6.72552 19.7353V19.9998Z" fill="#727689"/>
<path d="M14.5168 6.62146L7.77441 13.3638" stroke="#727689" stroke-miterlimit="10" stroke-linecap="round" stroke-linejoin="round"/>
<path d="M7.77441 6.62146L14.5168 13.3638" stroke="#727689" stroke-miterlimit="10" stroke-linecap="round" stroke-linejoin="round"/>
</svg>
