<svg width="16" height="17" viewBox="0 0 16 17" fill="none" xmlns="http://www.w3.org/2000/svg">
<path d="M8.00002 4.60001C7.65002 4.60001 7.30002 4.60001 6.95002 4.65001C6.15002 4.70001 5.40002 4.85001 4.75002 5.05001C3.45002 5.45001 2.65002 6.05001 2.65002 6.75001V13.15H13.3V6.75001C13.35 5.55001 10.95 4.60001 8.00002 4.60001Z" stroke="#606580" stroke-miterlimit="10" stroke-linecap="round" stroke-linejoin="round"/>
<path d="M4.75002 9.10001C3.50002 9.30001 2.65002 9.60001 2.65002 9.95001" stroke="#606580" stroke-miterlimit="10" stroke-linecap="round" stroke-linejoin="round"/>
<path d="M13.35 9.94999C13.35 9.34999 10.95 8.89999 8.00002 8.89999C7.65002 8.89999 7.25002 8.89999 6.90002 8.89999" stroke="#606580" stroke-miterlimit="10" stroke-linecap="round" stroke-linejoin="round"/>
<path d="M4.84998 13.05V4.29999" stroke="#606580" stroke-miterlimit="10" stroke-linecap="round" stroke-linejoin="round"/>
<path d="M6.90002 3.85001V13.05" stroke="#606580" stroke-miterlimit="10" stroke-linecap="round" stroke-linejoin="round"/>
<path d="M0.75 13.15H15.25" stroke="#606580" stroke-miterlimit="10" stroke-linecap="round" stroke-linejoin="round"/>
</svg>
