<svg width="16" height="16" viewBox="0 0 16 16" fill="none" xmlns="http://www.w3.org/2000/svg">
<path d="M4.6 6.89999C3.35 7.09999 2.5 7.39999 2.5 7.74999" stroke="#606580" stroke-miterlimit="10" stroke-linecap="round" stroke-linejoin="round"/>
<path d="M13.1999 6.25001V4.50001C13.1999 3.30001 10.7999 2.35001 7.84993 2.35001C7.49993 2.35001 7.14993 2.35001 6.79993 2.40001C5.99993 2.50001 5.24993 2.65001 4.64993 2.85001C3.34993 3.20001 2.54993 3.85001 2.54993 4.50001V10.9" stroke="#606580" stroke-miterlimit="10" stroke-linecap="round" stroke-linejoin="round"/>
<path d="M6.79993 6.69998C7.14993 6.69998 7.49993 6.69998 7.89993 6.69998C8.89993 6.69998 9.79993 6.74998 10.5999 6.84998" stroke="#606580" stroke-miterlimit="10" stroke-linecap="round" stroke-linejoin="round"/>
<path d="M4.69995 10.8V2.10001" stroke="#606580" stroke-miterlimit="10" stroke-linecap="round" stroke-linejoin="round"/>
<path d="M6.75 1.64999V10.8" stroke="#606580" stroke-miterlimit="10" stroke-linecap="round" stroke-linejoin="round"/>
<path d="M0.599976 10.9H6.84998" stroke="#606580" stroke-miterlimit="10" stroke-linecap="round" stroke-linejoin="round"/>
<path d="M15.3175 8.68474C15.0742 8.43838 14.6485 8.43838 14.4052 8.68474L12.7022 10.2245L9.72192 9.30063C9.6611 9.23904 9.53946 9.23904 9.47863 9.30063L8.87042 9.60857C8.68795 9.67016 8.68795 9.91651 8.80959 10.0397L11.6074 11.3331L11.6682 11.3946L10.391 12.996C10.2693 13.1807 10.0869 13.1807 9.90439 13.1191L9.41781 12.8728C9.23535 12.7496 8.99206 12.8112 8.87042 12.9344L8.56631 13.2423C8.44466 13.3655 8.50548 13.4887 8.62713 13.5503L9.72192 14.1661C9.78274 14.2277 9.84357 14.2893 9.90439 14.3509L10.4518 15.3979C10.5126 15.5211 10.6951 15.5211 10.7559 15.4595L11.06 15.1516C11.1816 15.0284 11.2425 14.782 11.1208 14.5973L10.8775 14.1046C10.8167 13.9198 10.8775 13.735 10.9992 13.6118L12.5805 12.3185L12.6414 12.3801L13.9186 15.2132C14.0403 15.3979 14.2836 15.3363 14.3444 15.1516L14.6485 14.5357C14.7093 14.4741 14.7093 14.3509 14.6485 14.2893L13.797 11.3331L15.3175 9.60857C15.5608 9.30063 15.5608 8.93109 15.3175 8.68474Z" stroke="#606580" stroke-miterlimit="10" stroke-linecap="round" stroke-linejoin="round"/>
</svg>
