<svg width="16" height="17" viewBox="0 0 16 17" fill="none" xmlns="http://www.w3.org/2000/svg">
<path d="M12.45 14.2L10.25 12L12.45 9.75" stroke="#606580" stroke-miterlimit="10" stroke-linecap="round" stroke-linejoin="round"/>
<path d="M15.25 12H10.25" stroke="#606580" stroke-miterlimit="10" stroke-linecap="round" stroke-linejoin="round"/>
<path d="M4.75002 8C3.50002 8.2 2.65002 8.5 2.65002 8.85" stroke="#606580" stroke-miterlimit="10" stroke-linecap="round" stroke-linejoin="round"/>
<path d="M13.35 7.4V5.65C13.35 4.45 10.95 3.5 8.00002 3.5C7.65002 3.5 7.30002 3.5 6.95002 3.55C6.15002 3.6 5.40002 3.75 4.75002 3.95C3.45002 4.35 2.65002 4.95 2.65002 5.65V12.05" stroke="#606580" stroke-miterlimit="10" stroke-linecap="round" stroke-linejoin="round"/>
<path d="M6.90002 7.79999C7.25002 7.79999 7.60002 7.79999 8.00002 7.79999C9.00002 7.79999 9.90002 7.84999 10.7 7.94999" stroke="#606580" stroke-miterlimit="10" stroke-linecap="round" stroke-linejoin="round"/>
<path d="M4.84998 11.95V3.25" stroke="#606580" stroke-miterlimit="10" stroke-linecap="round" stroke-linejoin="round"/>
<path d="M6.90002 2.79999V11.95" stroke="#606580" stroke-miterlimit="10" stroke-linecap="round" stroke-linejoin="round"/>
<path d="M0.75 12.05H8" stroke="#606580" stroke-miterlimit="10" stroke-linecap="round" stroke-linejoin="round"/>
</svg>
