<svg width="16" height="16" viewBox="0 0 16 16" fill="none" xmlns="http://www.w3.org/2000/svg">
<path d="M4.55 6.79999C3.3 6.99999 2.5 7.29999 2.5 7.64999" stroke="#606580" stroke-miterlimit="10" stroke-linecap="round" stroke-linejoin="round"/>
<path d="M13.15 6.19999V4.44999C13.15 3.24999 10.75 2.29999 7.8 2.29999C7.45 2.29999 7.1 2.29999 6.75 2.34999C5.95 2.39999 5.2 2.54999 4.55 2.74999C3.3 3.14999 2.5 3.74999 2.5 4.44999V10.85" stroke="#606580" stroke-miterlimit="10" stroke-linecap="round" stroke-linejoin="round"/>
<path d="M6.75 6.59998C7.1 6.59998 7.45 6.59998 7.85 6.59998C8.85 6.59998 9.75 6.64998 10.55 6.74998" stroke="#606580" stroke-miterlimit="10" stroke-linecap="round" stroke-linejoin="round"/>
<path d="M4.65002 10.75V2" stroke="#606580" stroke-miterlimit="10" stroke-linecap="round" stroke-linejoin="round"/>
<path d="M6.70007 1.54999V10.75" stroke="#606580" stroke-miterlimit="10" stroke-linecap="round" stroke-linejoin="round"/>
<path d="M0.550049 10.85H7.80005" stroke="#606580" stroke-miterlimit="10" stroke-linecap="round" stroke-linejoin="round"/>
<path d="M12.5001 8.89999C12.4001 8.89999 12.3501 8.94999 12.3001 9.04999V9.09999C12.0501 9.59999 11.8001 10.1 11.5501 10.6L11.5001 10.65C11.3001 10.7 11.0501 10.7 10.8501 10.75C10.5001 10.8 10.1501 10.85 9.8001 10.9C9.7001 10.9 9.6001 11 9.6001 11.15C9.6001 11.2 9.6501 11.25 9.7001 11.3C10.1001 11.7 10.5001 12.1 10.9001 12.45C10.9501 12.5 10.9501 12.5 10.9501 12.55C10.8501 13 10.8001 13.45 10.7001 13.9C10.7001 14.05 10.6501 14.15 10.6501 14.3V14.35C10.7001 14.45 10.7501 14.5 10.8501 14.5C10.9001 14.5 10.9501 14.5 10.9501 14.45C11.4501 14.2 11.9501 13.95 12.4501 13.65H12.5001H12.5501C13.0501 13.9 13.5501 14.15 14.0501 14.45C14.1001 14.45 14.1501 14.5 14.1501 14.5C14.2001 14.5 14.2501 14.5 14.3001 14.45C14.4001 14.4 14.4001 14.3 14.4001 14.2C14.3001 13.65 14.2001 13.1 14.1001 12.55C14.1001 12.5 14.1001 12.5 14.1501 12.45C14.5501 12.05 14.9501 11.65 15.3501 11.3C15.4001 11.25 15.4501 11.15 15.4001 11.05C15.3501 10.95 15.3001 10.9 15.2001 10.9C14.6501 10.8 14.1001 10.75 13.5501 10.65C13.5001 10.65 13.5001 10.65 13.4501 10.6C13.3001 10.35 13.2001 10.05 13.0501 9.79999C12.9501 9.54999 12.8001 9.34999 12.7001 9.09999C12.7001 8.94999 12.6001 8.89999 12.5001 8.89999Z" stroke="#606580" stroke-miterlimit="10" stroke-linecap="round" stroke-linejoin="round"/>
</svg>
