<svg width="17" height="16" viewBox="0 0 17 16" fill="none" xmlns="http://www.w3.org/2000/svg">
<path d="M4.59998 7.64999C3.39998 7.84999 2.75 8.19997 2.75 8.49997" stroke="#606580" stroke-miterlimit="10" stroke-linecap="round" stroke-linejoin="round"/>
<path d="M12.85 6.24994V5.39998C12.85 4.24998 10.55 3.34998 7.75002 3.34998C7.40002 3.34998 7.05002 3.34998 6.75002 3.39998C6.00002 3.44998 5.25002 3.59998 4.65002 3.79998C3.40002 4.14998 2.65002 4.74998 2.65002 5.44998V11.2499" stroke="#606580" stroke-miterlimit="10" stroke-linecap="round" stroke-linejoin="round"/>
<path d="M6.69995 7.5C7.04995 7.5 7.39995 7.5 7.74995 7.5" stroke="#606580" stroke-miterlimit="10" stroke-linecap="round" stroke-linejoin="round"/>
<path d="M4.69995 11.45V3.09998" stroke="#606580" stroke-miterlimit="10" stroke-linecap="round" stroke-linejoin="round"/>
<path d="M6.65002 2.64999V11.45" stroke="#606580" stroke-miterlimit="10" stroke-linecap="round" stroke-linejoin="round"/>
<path d="M0.75 11.55H6.5" stroke="#606580" stroke-miterlimit="10" stroke-linecap="round" stroke-linejoin="round"/>
<path d="M11.1743 8.1559L7.3139 14.8374C7.19512 15.0452 7.3436 15.3125 7.58116 15.3125H15.302C15.5395 15.3125 15.688 15.0452 15.5692 14.8374L11.7088 8.1559C11.59 7.94803 11.2931 7.94803 11.1743 8.1559Z" stroke="#606580" stroke-miterlimit="10" stroke-linecap="round" stroke-linejoin="round"/>
<path d="M11.4417 10.8879V12.4023" stroke="#606580" stroke-miterlimit="10" stroke-linecap="round" stroke-linejoin="round"/>
<path d="M11.4417 13.6199V13.7684" stroke="#606580" stroke-miterlimit="10" stroke-linecap="round" stroke-linejoin="round"/>
</svg>
