<svg width="16" height="16" viewBox="0 0 16 16" fill="none" xmlns="http://www.w3.org/2000/svg">
<path d="M13.9 15.25H9.10005C7.70005 15.25 6.55005 14.1 6.55005 12.7H15.35L13.9 15.25Z" stroke="#606580" stroke-miterlimit="10" stroke-linecap="round" stroke-linejoin="round"/>
<path d="M7.90005 10.7V11.55H7.05005V12.7H10.2V11.55V10.7H7.90005Z" stroke="#606580" stroke-miterlimit="10" stroke-linecap="round" stroke-linejoin="round"/>
<path d="M8.75 10.7V9.85001" stroke="#606580" stroke-miterlimit="10" stroke-linecap="round" stroke-linejoin="round"/>
<path d="M13.35 9.15001V4.25001C13.35 3.05001 10.95 2.10001 8.00002 2.10001C7.65002 2.10001 7.30002 2.10001 6.95002 2.15001C6.15002 2.20001 5.40002 2.35001 4.75002 2.55001C3.50002 2.95001 2.65002 3.55001 2.65002 4.25001V10.65" stroke="#606580" stroke-miterlimit="10" stroke-linecap="round" stroke-linejoin="round"/>
<path d="M4.75002 6.60001C3.50002 6.80001 2.65002 7.10001 2.65002 7.45001" stroke="#606580" stroke-miterlimit="10" stroke-linecap="round" stroke-linejoin="round"/>
<path d="M13.35 7.44999C13.35 6.84999 10.95 6.39999 8.00002 6.39999C7.65002 6.39999 7.25002 6.39999 6.90002 6.39999" stroke="#606580" stroke-miterlimit="10" stroke-linecap="round" stroke-linejoin="round"/>
<path d="M6.90002 1.35001V7.50001" stroke="#606580" stroke-miterlimit="10" stroke-linecap="round" stroke-linejoin="round"/>
<path d="M0.75 10.65H4.85V1.80002" stroke="#606580" stroke-miterlimit="10" stroke-linecap="round" stroke-linejoin="round"/>
</svg>
