<svg width="16" height="17" viewBox="0 0 16 17" fill="none" xmlns="http://www.w3.org/2000/svg">
<g clip-path="url(#clip0)">
<path d="M10.85 16H5.15C4.5 15.35 3.5 14.35 3.5 14.35V2.65C4.15 2 4.5 1.65 5.15 1H10.8C11.45 1.65 11.8 2 12.45 2.65V14.3C11.85 15 11.5 15.35 10.85 16Z" stroke="#606580" stroke-miterlimit="10" stroke-linecap="round" stroke-linejoin="round"/>
<path d="M5.5 2.75H6" stroke="#606580" stroke-miterlimit="10" stroke-linecap="round" stroke-linejoin="round"/>
<path d="M7.75 2.75H8.25" stroke="#606580" stroke-miterlimit="10" stroke-linecap="round" stroke-linejoin="round"/>
<path d="M10 2.75H10.5" stroke="#606580" stroke-miterlimit="10" stroke-linecap="round" stroke-linejoin="round"/>
<path d="M5.5 14.25H6" stroke="#606580" stroke-miterlimit="10" stroke-linecap="round" stroke-linejoin="round"/>
<path d="M7.75 14.25H8.25" stroke="#606580" stroke-miterlimit="10" stroke-linecap="round" stroke-linejoin="round"/>
<path d="M10 14.25H10.5" stroke="#606580" stroke-miterlimit="10" stroke-linecap="round" stroke-linejoin="round"/>
<path d="M7.6 6C7.35 5.8 7.05 5.7 6.7 5.6C6.35 5.5 5.95 5.5 5.55 5.5C5.15 5.55 4.75 5.6 4.4 5.75C4.05 5.9 3.75 6.05 3.5 6.3" stroke="#606580" stroke-miterlimit="10" stroke-linecap="round" stroke-linejoin="round"/>
<path d="M7.59998 6C7.84998 6.2 8.14998 6.3 8.49998 6.4C8.84998 6.5 9.24998 6.5 9.64998 6.5C10.05 6.45 10.45 6.4 10.8 6.25L12.5 5.75" stroke="#606580" stroke-miterlimit="10" stroke-linecap="round" stroke-linejoin="round"/>
<path d="M2 5.99999L1 6.59999V5.39999L2 5.99999Z" stroke="#606580" stroke-miterlimit="10" stroke-linecap="round" stroke-linejoin="round"/>
<path d="M14 5.99999L15 6.59999V5.39999L14 5.99999Z" stroke="#606580" stroke-miterlimit="10" stroke-linecap="round" stroke-linejoin="round"/>
</g>
<defs>
<clipPath id="clip0">
<rect width="16" height="16" fill="white" transform="translate(0 0.5)"/>
</clipPath>
</defs>
</svg>
