<svg width="16" height="17" viewBox="0 0 16 17" fill="none" xmlns="http://www.w3.org/2000/svg">
<path d="M4.59998 6.64999C3.39998 6.84999 2.59998 7.14999 2.59998 7.44999" stroke="#606580" stroke-miterlimit="10" stroke-linecap="round" stroke-linejoin="round"/>
<path d="M10.95 2.84999C10.05 2.54999 8.95002 2.39999 7.75002 2.39999C7.40002 2.39999 7.05002 2.39999 6.75002 2.44999C6.00002 2.49999 5.25002 2.64999 4.65002 2.84999C3.40002 3.19999 2.65002 3.79999 2.65002 4.49999V10.65" stroke="#606580" stroke-miterlimit="10" stroke-linecap="round" stroke-linejoin="round"/>
<path d="M6.69995 6.5C7.04995 6.5 7.39995 6.5 7.74995 6.5" stroke="#606580" stroke-miterlimit="10" stroke-linecap="round" stroke-linejoin="round"/>
<path d="M4.69995 10.45V2.10001" stroke="#606580" stroke-miterlimit="10" stroke-linecap="round" stroke-linejoin="round"/>
<path d="M6.65002 1.64999V10.45" stroke="#606580" stroke-miterlimit="10" stroke-linecap="round" stroke-linejoin="round"/>
<path d="M0.75 10.55H7.7" stroke="#606580" stroke-miterlimit="10" stroke-linecap="round" stroke-linejoin="round"/>
<path d="M14.6499 12.8L12.0999 15.35L9.54993 12.8" stroke="#606580" stroke-miterlimit="10" stroke-linecap="round" stroke-linejoin="round"/>
<path d="M10.85 8.95V6.5" stroke="#606580" stroke-miterlimit="10" stroke-linecap="round" stroke-linejoin="round"/>
<path d="M13.2999 6.5V8.95" stroke="#606580" stroke-miterlimit="10" stroke-linecap="round" stroke-linejoin="round"/>
<path d="M13.3 7.70001H10.85" stroke="#606580" stroke-miterlimit="10" stroke-linecap="round" stroke-linejoin="round"/>
<path d="M13.45 10.65H10.65C9.79997 10.65 9.09998 9.95 9.09998 9.1V6.3C9.09998 5.45 9.79997 4.75 10.65 4.75H13.45C14.3 4.75 15 5.45 15 6.3V9.1C15 9.95 14.3 10.65 13.45 10.65Z" stroke="#606580" stroke-miterlimit="10" stroke-linecap="round" stroke-linejoin="round"/>
<path d="M12.1 14.8V10.65" stroke="#606580" stroke-miterlimit="10" stroke-linecap="round" stroke-linejoin="round"/>
</svg>
