<svg width="16" height="17" viewBox="0 0 16 17" fill="none" xmlns="http://www.w3.org/2000/svg">
<path d="M4.59998 8.14999C3.39998 8.34999 2.59998 8.64999 2.59998 8.94999" stroke="#606580" stroke-miterlimit="10" stroke-linecap="round" stroke-linejoin="round"/>
<path d="M12.85 6.15001V5.90001C12.85 4.75001 10.55 3.85001 7.75002 3.85001C7.40002 3.85001 7.05002 3.85001 6.75002 3.90001C6.00002 3.95001 5.25002 4.10001 4.65002 4.30001C3.40002 4.65001 2.65002 5.25001 2.65002 5.95001V12.1" stroke="#606580" stroke-miterlimit="10" stroke-linecap="round" stroke-linejoin="round"/>
<path d="M6.69995 8C7.04995 8 7.39995 8 7.74995 8" stroke="#606580" stroke-miterlimit="10" stroke-linecap="round" stroke-linejoin="round"/>
<path d="M4.69995 11.95V3.60001" stroke="#606580" stroke-miterlimit="10" stroke-linecap="round" stroke-linejoin="round"/>
<path d="M6.65002 3.14999V11.95" stroke="#606580" stroke-miterlimit="10" stroke-linecap="round" stroke-linejoin="round"/>
<path d="M0.75 12.05H7.7" stroke="#606580" stroke-miterlimit="10" stroke-linecap="round" stroke-linejoin="round"/>
<path d="M12.4 14.35C14.1121 14.35 15.5 12.9621 15.5 11.25C15.5 9.53791 14.1121 8.14999 12.4 8.14999C10.688 8.14999 9.30005 9.53791 9.30005 11.25C9.30005 12.9621 10.688 14.35 12.4 14.35Z" stroke="#606580" stroke-miterlimit="10" stroke-linecap="round" stroke-linejoin="round"/>
<path d="M11.2001 11.5L11.9001 12.25L13.6001 10.55" stroke="#606580" stroke-miterlimit="10" stroke-linecap="round" stroke-linejoin="round"/>
</svg>
