<svg width="16" height="17" viewBox="0 0 16 17" fill="none" xmlns="http://www.w3.org/2000/svg">
<path d="M4.59998 6.64999C3.39998 6.84999 2.59998 7.14999 2.59998 7.44999" stroke="#606580" stroke-miterlimit="10" stroke-linecap="round" stroke-linejoin="round"/>
<path d="M10.95 2.84999C10.05 2.54999 8.95002 2.39999 7.75002 2.39999C7.40002 2.39999 7.05002 2.39999 6.75002 2.44999C6.00002 2.49999 5.25002 2.64999 4.65002 2.84999C3.40002 3.19999 2.65002 3.79999 2.65002 4.49999V10.65" stroke="#606580" stroke-miterlimit="10" stroke-linecap="round" stroke-linejoin="round"/>
<path d="M6.69995 6.5C7.04995 6.5 7.39995 6.5 7.74995 6.5" stroke="#606580" stroke-miterlimit="10" stroke-linecap="round" stroke-linejoin="round"/>
<path d="M4.69995 10.45V2.10001" stroke="#606580" stroke-miterlimit="10" stroke-linecap="round" stroke-linejoin="round"/>
<path d="M6.65002 1.64999V10.45" stroke="#606580" stroke-miterlimit="10" stroke-linecap="round" stroke-linejoin="round"/>
<path d="M0.75 10.55H7.7" stroke="#606580" stroke-miterlimit="10" stroke-linecap="round" stroke-linejoin="round"/>
<path d="M9.55005 7.34999L12.1 4.79999L14.65 7.34999" stroke="#606580" stroke-miterlimit="10" stroke-linecap="round" stroke-linejoin="round"/>
<path d="M13.2999 11.25V13.65" stroke="#606580" stroke-miterlimit="10" stroke-linecap="round" stroke-linejoin="round"/>
<path d="M10.85 13.65V11.25" stroke="#606580" stroke-miterlimit="10" stroke-linecap="round" stroke-linejoin="round"/>
<path d="M10.85 12.45H13.3" stroke="#606580" stroke-miterlimit="10" stroke-linecap="round" stroke-linejoin="round"/>
<path d="M10.7 9.54999H13.5C14.35 9.54999 15.05 10.25 15.05 11.1V13.9C15.05 14.75 14.35 15.45 13.5 15.45H10.7C9.85002 15.45 9.15002 14.75 9.15002 13.9V11.1C9.15002 10.2 9.85002 9.54999 10.7 9.54999Z" stroke="#606580" stroke-miterlimit="10" stroke-linecap="round" stroke-linejoin="round"/>
<path d="M12.1 5.34998V9.54998" stroke="#606580" stroke-miterlimit="10" stroke-linecap="round" stroke-linejoin="round"/>
</svg>
