<svg width="16" height="16" viewBox="0 0 16 16" fill="none" xmlns="http://www.w3.org/2000/svg">
<path d="M4.59998 7.64999C3.39998 7.84999 2.59998 8.14999 2.59998 8.44999" stroke="#606580" stroke-miterlimit="10" stroke-linecap="round" stroke-linejoin="round"/>
<path d="M12.85 6.65001V5.40001C12.85 4.25001 10.55 3.35001 7.75002 3.35001C7.40002 3.35001 7.05002 3.35001 6.75002 3.40001C6.00002 3.45001 5.25002 3.60001 4.65002 3.80001C3.40002 4.15001 2.65002 4.75001 2.65002 5.45001V11.6" stroke="#606580" stroke-miterlimit="10" stroke-linecap="round" stroke-linejoin="round"/>
<path d="M6.69995 7.5C7.04995 7.5 7.39995 7.5 7.74995 7.5" stroke="#606580" stroke-miterlimit="10" stroke-linecap="round" stroke-linejoin="round"/>
<path d="M4.69995 11.45V3.10001" stroke="#606580" stroke-miterlimit="10" stroke-linecap="round" stroke-linejoin="round"/>
<path d="M6.65002 2.64999V11.45" stroke="#606580" stroke-miterlimit="10" stroke-linecap="round" stroke-linejoin="round"/>
<path d="M0.75 11.55H7.7" stroke="#606580" stroke-miterlimit="10" stroke-linecap="round" stroke-linejoin="round"/>
<path d="M9.5 11.6L12.25 8.85001L15 11.6" stroke="#606580" stroke-miterlimit="10" stroke-linecap="round" stroke-linejoin="round"/>
<path d="M9.5 14.35L12.25 11.6L15 14.35" stroke="#606580" stroke-miterlimit="10" stroke-linecap="round" stroke-linejoin="round"/>
</svg>
