<svg width="16" height="16" viewBox="0 0 16 16" fill="none" xmlns="http://www.w3.org/2000/svg">
<path d="M13.35 10V4.25001C13.35 3.05001 10.95 2.10001 8.00002 2.10001C7.65002 2.10001 7.30002 2.10001 6.95002 2.15001C6.15002 2.20001 5.40002 2.35001 4.75002 2.55001C3.50002 2.95001 2.65002 3.55001 2.65002 4.25001V10.65" stroke="#606580" stroke-miterlimit="10" stroke-linecap="round" stroke-linejoin="round"/>
<path d="M4.75002 6.60001C3.50002 6.80001 2.65002 7.10001 2.65002 7.45001" stroke="#606580" stroke-miterlimit="10" stroke-linecap="round" stroke-linejoin="round"/>
<path d="M13.35 7.44999C13.35 6.84999 10.95 6.39999 8.00002 6.39999C7.65002 6.39999 7.25002 6.39999 6.90002 6.39999" stroke="#606580" stroke-miterlimit="10" stroke-linecap="round" stroke-linejoin="round"/>
<path d="M6.90002 1.35001V9.00001" stroke="#606580" stroke-miterlimit="10" stroke-linecap="round" stroke-linejoin="round"/>
<path d="M0.75 10.65H4.85V1.80002" stroke="#606580" stroke-miterlimit="10" stroke-linecap="round" stroke-linejoin="round"/>
<path d="M6.35 14.65C6.68137 14.65 6.95 14.3814 6.95 14.05C6.95 13.7186 6.68137 13.45 6.35 13.45C6.01863 13.45 5.75 13.7186 5.75 14.05C5.75 14.3814 6.01863 14.65 6.35 14.65Z" stroke="#606580" stroke-miterlimit="10" stroke-linecap="round" stroke-linejoin="round"/>
<path d="M13.15 14.65C13.4814 14.65 13.75 14.3814 13.75 14.05C13.75 13.7186 13.4814 13.45 13.15 13.45C12.8187 13.45 12.55 13.7186 12.55 14.05C12.55 14.3814 12.8187 14.65 13.15 14.65Z" stroke="#606580" stroke-miterlimit="10" stroke-linecap="round" stroke-linejoin="round"/>
<path d="M6.94995 14.25H12.25" stroke="#606580" stroke-miterlimit="10" stroke-linecap="round" stroke-linejoin="round"/>
<path d="M13.75 14.25H14.6C14.75 14.25 14.9 14.15 14.95 14L15.2 13.4C14.35 12.75 13.8 12.45 12.75 12.45H12.45C12.45 12.45 11.15 11.15 9.2 11.15C8.15 11.15 6.6 11.45 6.6 11.45L5.5 12.1L4.5 12.45V13.35C4.5 13.6 4.65 13.75 4.85 13.85L5.45 14.05" stroke="#606580" stroke-miterlimit="10" stroke-linecap="round" stroke-linejoin="round"/>
<path d="M7.55005 11.3L8.35005 12.4L8.55005 12.45H12.4" stroke="#606580" stroke-miterlimit="10" stroke-linecap="round" stroke-linejoin="round"/>
</svg>
