<svg width="17" height="17" viewBox="0 0 17 17" fill="none" xmlns="http://www.w3.org/2000/svg">
<path d="M13.1 12.15H12.75V14.65L9.9 12.15H3.9C2.6 12.15 1.5 11.05 1.5 9.75V4.75C1.5 3.45 2.6 2.35 3.9 2.35H13.1C14.4 2.35 15.5 3.45 15.5 4.75V9.75C15.5 11.05 14.4 12.15 13.1 12.15Z" stroke="#606580" stroke-miterlimit="10" stroke-linecap="round" stroke-linejoin="round"/>
<path d="M7 5.85C7 5 7.7 4.3 8.55 4.35C9.35 4.35 10 5.05 10 5.85C10 6.3 9.8 6.65 9.5 6.95L8.85 7.6C8.6 7.85 8.5 8.15 8.5 8.5" stroke="#606580" stroke-miterlimit="10" stroke-linecap="round" stroke-linejoin="round"/>
<path d="M8.5 10V10.2" stroke="#606580" stroke-miterlimit="10" stroke-linecap="round" stroke-linejoin="round"/>
</svg>
