<svg width="17" height="16" viewBox="0 0 17 16" fill="none" xmlns="http://www.w3.org/2000/svg">
<path d="M9.9501 6.95H10.9501C11.1501 6.95 11.3001 6.8 11.3001 6.6V5.25H9.9501C9.7501 5.25 9.6001 5.4 9.6001 5.6V6.6C9.6001 6.8 9.7501 6.95 9.9501 6.95Z" fill="#606580" stroke="#606580" stroke-miterlimit="10" stroke-linecap="round" stroke-linejoin="round"/>
<path d="M11.3 5.25C11.3 5.25 11.3 6.6 11.3 7.3C11.3 8 10.6 8.65 9.94995 8.65" stroke="#606580" stroke-miterlimit="10" stroke-linecap="round" stroke-linejoin="round"/>
<path d="M6.04995 6.95H7.04995C7.24995 6.95 7.39995 6.8 7.39995 6.6V5.25H6.04995C5.84995 5.25 5.69995 5.4 5.69995 5.6V6.6C5.69995 6.8 5.84995 6.95 6.04995 6.95Z" fill="#606580" stroke="#606580" stroke-miterlimit="10" stroke-linecap="round" stroke-linejoin="round"/>
<path d="M7.40005 5.25C7.40005 5.25 7.40005 6.6 7.40005 7.3C7.40005 8 6.70005 8.65 6.05005 8.65" stroke="#606580" stroke-miterlimit="10" stroke-linecap="round" stroke-linejoin="round"/>
<path d="M13.1 11.65H12.75V14.15L9.9 11.65H3.9C2.6 11.65 1.5 10.55 1.5 9.25V4.25C1.5 2.95 2.6 1.85 3.9 1.85H13.1C14.4 1.85 15.5 2.95 15.5 4.25V9.25C15.5 10.55 14.4 11.65 13.1 11.65Z" stroke="#606580" stroke-miterlimit="10" stroke-linecap="round" stroke-linejoin="round"/>
</svg>
