<svg width="17" height="17" viewBox="0 0 17 17" fill="none" xmlns="http://www.w3.org/2000/svg">
<path d="M4.7 7.55H2.45C1.95 7.55 1.5 7.95 1.5 8.5V14.6C1.5 15.1 1.9 15.55 2.45 15.55H4.7V7.55Z" stroke="#606580" stroke-miterlimit="10" stroke-linecap="round" stroke-linejoin="round"/>
<path d="M4.69995 7.55C5.99995 6 7.64995 6.3 8.99995 2.6L9.24995 2C9.39995 1.7 9.74995 1.5 10.15 1.5C10.65 1.5 11.1 1.85 11.1 2.25V5.35V6.65H14.15C15 6.65 15.6 7.25 15.5 7.9L14.4 13.95C14.25 14.9 13.25 15.55 12.05 15.55H4.69995V7.55Z" stroke="#606580" stroke-miterlimit="10" stroke-linecap="round" stroke-linejoin="round"/>
</svg>
