<svg width="17" height="17" viewBox="0 0 17 17" fill="none" xmlns="http://www.w3.org/2000/svg">
<path d="M12.3109 9.5L14.5609 9.5C15.0609 9.5 15.5109 9.1 15.5109 8.55L15.5109 2.45C15.5109 1.95 15.1109 1.5 14.5609 1.5L12.3109 1.5L12.3109 9.5Z" stroke="#606580" stroke-miterlimit="10" stroke-linecap="round" stroke-linejoin="round"/>
<path d="M12.3108 9.5C11.0108 11.05 9.36079 10.75 8.01079 14.45L7.76079 15.05C7.61079 15.35 7.26079 15.55 6.86079 15.55C6.36079 15.55 5.91079 15.2 5.91079 14.8L5.91079 11.7L5.91079 10.4L2.86079 10.4C2.01079 10.4 1.41079 9.8 1.51079 9.15L2.61079 3.1C2.76079 2.15 3.76079 1.5 4.96079 1.5L12.3108 1.5L12.3108 9.5Z" stroke="#606580" stroke-miterlimit="10" stroke-linecap="round" stroke-linejoin="round"/>
</svg>
