<svg width="17" height="16" viewBox="0 0 17 16" fill="none" xmlns="http://www.w3.org/2000/svg">
<path d="M8.50002 3.7C9.24561 3.7 9.85002 3.09558 9.85002 2.35C9.85002 1.60442 9.24561 1 8.50002 1C7.75444 1 7.15002 1.60442 7.15002 2.35C7.15002 3.09558 7.75444 3.7 8.50002 3.7Z" stroke="#606580" stroke-miterlimit="10" stroke-linecap="round" stroke-linejoin="round"/>
<path d="M8.5 3.7V5.95" stroke="#606580" stroke-miterlimit="10" stroke-linecap="round" stroke-linejoin="round"/>
<path d="M14.15 6.55C14.8956 6.55 15.5 5.94558 15.5 5.2C15.5 4.45441 14.8956 3.85 14.15 3.85C13.4045 3.85 12.8 4.45441 12.8 5.2C12.8 5.94558 13.4045 6.55 14.15 6.55Z" stroke="#606580" stroke-miterlimit="10" stroke-linecap="round" stroke-linejoin="round"/>
<path d="M13 5.9L11.05 7.1" stroke="#606580" stroke-miterlimit="10" stroke-linecap="round" stroke-linejoin="round"/>
<path d="M2.85 6.4C3.59558 6.4 4.2 5.79559 4.2 5.05C4.2 4.30442 3.59558 3.7 2.85 3.7C2.10442 3.7 1.5 4.30442 1.5 5.05C1.5 5.79559 2.10442 6.4 2.85 6.4Z" stroke="#606580" stroke-miterlimit="10" stroke-linecap="round" stroke-linejoin="round"/>
<path d="M4 5.75L5.95 6.9" stroke="#606580" stroke-miterlimit="10" stroke-linecap="round" stroke-linejoin="round"/>
<path d="M2.8 12.35C2.05 12.3 1.5 11.65 1.5 10.9C1.5 10.15 2.2 9.6 2.95 9.6" stroke="#606580" stroke-miterlimit="10" stroke-linecap="round" stroke-linejoin="round"/>
<path d="M14.2 12.35C14.95 12.3 15.5 11.65 15.5 10.9C15.5 10.15 14.8 9.6 14.05 9.6" stroke="#606580" stroke-miterlimit="10" stroke-linecap="round" stroke-linejoin="round"/>
<path d="M5.55005 10.2C6.50005 9.6 7.30005 9.35 7.55005 10.45C7.85005 11.7 6.80005 11.15 6.80005 12.4C6.80005 13.4 7.70005 13 6.50005 14.2" stroke="#606580" stroke-miterlimit="10" stroke-linecap="round" stroke-linejoin="round"/>
<path d="M9.9501 8.65C9.3501 9.25 9.4501 12.3 11.2501 11.05" stroke="#606580" stroke-miterlimit="10" stroke-linecap="round" stroke-linejoin="round"/>
<path d="M8.50002 15.05C10.3502 15.05 11.85 13.5502 11.85 11.7C11.85 9.84984 10.3502 8.35 8.50002 8.35C6.64987 8.35 5.15002 9.84984 5.15002 11.7C5.15002 13.5502 6.64987 15.05 8.50002 15.05Z" stroke="#606580" stroke-miterlimit="10" stroke-linecap="round" stroke-linejoin="round"/>
</svg>
