<svg width="17" height="16" viewBox="0 0 17 16" fill="none" xmlns="http://www.w3.org/2000/svg">
<path d="M7 10.05C7 9.2 7.7 8.55 8.5 8.55C9.3 8.55 10 9.25 10 10.05C10 10.85 9.3 12.15 8.5 12.15C7.7 12.15 7 10.85 7 10.05Z" stroke="#606580" stroke-miterlimit="10" stroke-linecap="round" stroke-linejoin="round"/>
<path d="M9.45 11.7C10.55 12.05 11.35 13 11.5 14.2C11.55 14.4 11.35 14.6 11.15 14.6H5.85C5.65 14.6 5.5 14.4 5.5 14.2C5.65 13.05 6.45 12.1 7.5 11.75" stroke="#606580" stroke-miterlimit="10" stroke-linecap="round" stroke-linejoin="round"/>
<path d="M8.50002 4.15C9.24561 4.15 9.85002 3.54559 9.85002 2.8C9.85002 2.05442 9.24561 1.45 8.50002 1.45C7.75444 1.45 7.15002 2.05442 7.15002 2.8C7.15002 3.54559 7.75444 4.15 8.50002 4.15Z" stroke="#606580" stroke-miterlimit="10" stroke-linecap="round" stroke-linejoin="round"/>
<path d="M8.5 4.15V6.4" stroke="#606580" stroke-miterlimit="10" stroke-linecap="round" stroke-linejoin="round"/>
<path d="M14.15 7C14.8956 7 15.5 6.39559 15.5 5.65C15.5 4.90442 14.8956 4.3 14.15 4.3C13.4045 4.3 12.8 4.90442 12.8 5.65C12.8 6.39559 13.4045 7 14.15 7Z" stroke="#606580" stroke-miterlimit="10" stroke-linecap="round" stroke-linejoin="round"/>
<path d="M13 6.35L11.05 7.55" stroke="#606580" stroke-miterlimit="10" stroke-linecap="round" stroke-linejoin="round"/>
<path d="M2.85 6.85C3.59558 6.85 4.2 6.24559 4.2 5.5C4.2 4.75442 3.59558 4.15 2.85 4.15C2.10442 4.15 1.5 4.75442 1.5 5.5C1.5 6.24559 2.10442 6.85 2.85 6.85Z" stroke="#606580" stroke-miterlimit="10" stroke-linecap="round" stroke-linejoin="round"/>
<path d="M4 6.2L5.95 7.4" stroke="#606580" stroke-miterlimit="10" stroke-linecap="round" stroke-linejoin="round"/>
<path d="M2.85 12.8C3.59558 12.8 4.2 12.1956 4.2 11.45C4.2 10.7044 3.59558 10.1 2.85 10.1C2.10442 10.1 1.5 10.7044 1.5 11.45C1.5 12.1956 2.10442 12.8 2.85 12.8Z" stroke="#606580" stroke-miterlimit="10" stroke-linecap="round" stroke-linejoin="round"/>
<path d="M4 10.75L5.15 10.05" stroke="#606580" stroke-miterlimit="10" stroke-linecap="round" stroke-linejoin="round"/>
<path d="M14.15 12.75C14.8956 12.75 15.5 12.1456 15.5 11.4C15.5 10.6544 14.8956 10.05 14.15 10.05C13.4045 10.05 12.8 10.6544 12.8 11.4C12.8 12.1456 13.4045 12.75 14.15 12.75Z" stroke="#606580" stroke-miterlimit="10" stroke-linecap="round" stroke-linejoin="round"/>
<path d="M13 10.7L11.85 10" stroke="#606580" stroke-miterlimit="10" stroke-linecap="round" stroke-linejoin="round"/>
</svg>
