<svg width="17" height="17" viewBox="0 0 17 17" fill="none" xmlns="http://www.w3.org/2000/svg">
<path d="M8.85 9.05H2.9C2.15 9.05 1.5 8.45 1.5 7.65V3.15C1.5 2.4 2.1 1.75 2.9 1.75H10.8C11.55 1.75 12.2 2.35 12.2 3.15V4.5" stroke="#606580" stroke-miterlimit="10" stroke-linecap="round" stroke-linejoin="round"/>
<path d="M12 2.45L6.84995 7L1.69995 2.45" stroke="#606580" stroke-miterlimit="10" stroke-linecap="round" stroke-linejoin="round"/>
<path d="M1.69995 8.3L3.49995 6.95" stroke="#606580" stroke-miterlimit="10" stroke-linecap="round" stroke-linejoin="round"/>
<path d="M13.6 6.2L12 8.2L12.7 8.9L12.65 9C12.1 10.65 10.8 11.95 9.14998 12.5L9.04998 12.55L8.34998 11.85L6.34998 13.45L8.24998 15.35C11.65 14.2 14.3 11.55 15.45 8.15L13.6 6.2Z" stroke="#606580" stroke-miterlimit="10" stroke-linecap="round" stroke-linejoin="round"/>
</svg>
