<svg width="17" height="16" viewBox="0 0 17 16" fill="none" xmlns="http://www.w3.org/2000/svg">
<path d="M5.90005 11.1H2.65005C1.75005 11.1 1.05005 10.4 1.05005 9.5V4.3C1.05005 3.4 1.75005 2.7 2.65005 2.7H11.75C12.65 2.7 13.35 3.4 13.35 4.3V7.8" stroke="#606580" stroke-miterlimit="10" stroke-linecap="round" stroke-linejoin="round"/>
<path d="M13.1 3.55L7.20005 8.75L1.30005 3.55" stroke="#606580" stroke-miterlimit="10" stroke-linecap="round" stroke-linejoin="round"/>
<path d="M1.30005 10.25L3.35005 8.7" stroke="#606580" stroke-miterlimit="10" stroke-linecap="round" stroke-linejoin="round"/>
<path d="M11.2 14.5C10.9 14.5 10.65 14.4 10.45 14.2L8.2 11.95C8.05 11.8 8 11.65 8 11.45C8 11.25 8.05 11.1 8.2 10.95C8.35 10.8 8.5 10.75 8.7 10.75C8.9 10.75 9.05 10.8 9.2 10.95L11.2 12.95L15.35 8.8C15.6 8.55 16.05 8.55 16.3 8.8C16.55 9.05 16.55 9.5 16.3 9.75L11.9 14.15C11.75 14.4 11.45 14.5 11.2 14.5Z" fill="#606580"/>
</svg>
