<svg width="17" height="17" viewBox="0 0 17 17" fill="none" xmlns="http://www.w3.org/2000/svg">
<path d="M5.1 8.8H2.85C2.1 8.8 1.5 8.2 1.5 7.45V2.95C1.5 2.2 2.1 1.6 2.85 1.6H10.7C11.45 1.6 12.05 2.2 12.05 2.95V4.3" stroke="#606580" stroke-miterlimit="10" stroke-linecap="round" stroke-linejoin="round"/>
<path d="M11.95 2.3L6.79995 6.8L1.69995 2.3" stroke="#606580" stroke-miterlimit="10" stroke-linecap="round" stroke-linejoin="round"/>
<path d="M1.69995 8.1L3.44995 6.7" stroke="#606580" stroke-miterlimit="10" stroke-linecap="round" stroke-linejoin="round"/>
<path d="M11.4 15.45C13.6644 15.45 15.5 13.6144 15.5 11.35C15.5 9.08563 13.6644 7.25 11.4 7.25C9.13568 7.25 7.30005 9.08563 7.30005 11.35C7.30005 13.6144 9.13568 15.45 11.4 15.45Z" stroke="#606580" stroke-miterlimit="10" stroke-linecap="round" stroke-linejoin="round"/>
<path d="M11.3999 9V11.65L13.1499 12.9" stroke="#606580" stroke-miterlimit="10" stroke-linecap="round" stroke-linejoin="round"/>
</svg>
