<svg width="17" height="16" viewBox="0 0 17 16" fill="none" xmlns="http://www.w3.org/2000/svg">
<path d="M11.55 12.65C11.15 13.45 10.6 13.9 10.05 13.9C8.65005 13.9 7.55005 11.2 7.55005 7.9C7.55005 4.6 8.65005 1.9 10.05 1.9C11.1 1.9 12 3.5 12.4 5.75" stroke="#606580" stroke-miterlimit="10" stroke-linecap="round" stroke-linejoin="round"/>
<path d="M10 1.85C9.55 1.85 9.1 2 8.7 2.25L4.8 5.7L1.5 6.25V9.5L4.8 10.05L8.6 13.5C9 13.75 9.45 13.9 9.9 13.9H10" stroke="#606580" stroke-miterlimit="10" stroke-linecap="round" stroke-linejoin="round"/>
<path d="M3.69995 10.3V14.15" stroke="#606580" stroke-miterlimit="10" stroke-linecap="round" stroke-linejoin="round"/>
<path d="M10 7.95L11.5 9.5C11.7 9.7 12.1 9.7 12.3 9.5L15.5 6.3" stroke="#606580" stroke-miterlimit="10" stroke-linecap="round" stroke-linejoin="round"/>
</svg>
