<svg width="17" height="16" viewBox="0 0 17 16" fill="none" xmlns="http://www.w3.org/2000/svg">
<path d="M11.7 11.05C12.15 10.8 12.6 10.5 13 10.1L5.95005 3.1C4.00005 5 4.00005 8.2 5.95005 10.1C6.10005 10.25 6.25005 10.4 6.40005 10.5" stroke="#606580" stroke-miterlimit="10" stroke-linecap="round" stroke-linejoin="round"/>
<path d="M9.44995 6.6L10.95 5.1" stroke="#606580" stroke-miterlimit="10" stroke-linecap="round" stroke-linejoin="round"/>
<path d="M11.35 15H4.25L6.1 11.3C6.45 10.65 7.1 10.25 7.8 10.25C8.55 10.25 9.2 10.65 9.5 11.3L11.35 15Z" stroke="#606580" stroke-miterlimit="10" stroke-linecap="round" stroke-linejoin="round"/>
<path d="M1.84998 15H13.7" stroke="#606580" stroke-miterlimit="10" stroke-linecap="round" stroke-linejoin="round"/>
<path d="M10.1499 2.9C11.8499 2.9 13.2499 4.3 13.2499 6" stroke="#606580" stroke-miterlimit="10" stroke-linecap="round" stroke-linejoin="round"/>
<path d="M10.1499 1C12.8999 1 15.1499 3.25 15.1499 6" stroke="#606580" stroke-miterlimit="10" stroke-linecap="round" stroke-linejoin="round"/>
</svg>
