<svg width="17" height="16" viewBox="0 0 17 16" fill="none" xmlns="http://www.w3.org/2000/svg">
<path d="M13.3573 3.332L10.9531 0.927856L7.34692 4.53407L9.75106 6.93821L13.3573 3.332Z" stroke="#606580" stroke-miterlimit="10" stroke-linecap="round" stroke-linejoin="round"/>
<path d="M7.37094 9.3648L4.9668 6.96066L1.36059 10.5669L3.76473 12.971L7.37094 9.3648Z" stroke="#606580" stroke-miterlimit="10" stroke-linecap="round" stroke-linejoin="round"/>
<path d="M7.3499 9.35L4.9499 6.95C4.2999 6.3 4.2999 5.2 4.9499 4.55C5.5999 3.9 6.6999 3.9 7.3499 4.55L9.7499 6.95C10.3999 7.6 10.3999 8.7 9.7499 9.35C9.0999 10.05 7.9999 10.05 7.3499 9.35Z" stroke="#606580" stroke-miterlimit="10" stroke-linecap="round" stroke-linejoin="round"/>
<path d="M14.6 9.35C13.25 8 11.1 8 9.75005 9.35C8.40005 10.7 8.40005 12.85 9.75005 14.2L14.6 9.35Z" stroke="#606580" stroke-miterlimit="10" stroke-linecap="round" stroke-linejoin="round"/>
<path d="M12.2 11.8L13.4 13" stroke="#606580" stroke-miterlimit="10" stroke-linecap="round" stroke-linejoin="round"/>
<path d="M15.7 12.65C15.7 14 14.6 15.05 13.3 15.05" stroke="#606580" stroke-miterlimit="10" stroke-linecap="round" stroke-linejoin="round"/>
</svg>
