<svg width="31" height="31" viewBox="0 0 31 31" fill="none" xmlns="http://www.w3.org/2000/svg">
<path d="M14.3077 0C2.9994 0 2.42188 7.44261 2.38462 13.3576C1.00601 13.8978 0 15.2206 0 16.6923C0 18.5925 1.42518 21.4615 3.57692 21.4615C3.76322 21.4615 3.95883 21.4429 4.15445 21.4243C5.90565 26.8549 10.2278 31 14.3077 31C16.2545 31 18.2572 30.0312 20.0177 28.4291C19.3005 28.5409 18.5925 28.6154 17.8846 28.6154H14.3077C11.5039 28.6154 7.59165 25.1409 6.22236 19.9712L5.83113 18.6112L4.71334 18.8906C4.02404 19.0676 3.67007 19.0769 3.57692 19.0769C3.19501 19.0303 2.38462 17.6704 2.38462 16.6923C2.38462 16.1148 2.99008 15.5373 3.65144 15.5L4.76923 15.4255V14.3077C4.76923 6.89303 5.41196 2.38462 14.3077 2.38462C14.5871 2.38462 17.9312 2.39393 20.1388 2.40325L19.3284 4.05198C19.2073 4.34075 18.7695 5.3095 17.2512 6.55769C15.5 8.01082 12.4633 9.53846 7.15385 9.53846V11.9231C12.9291 11.9231 16.5898 10.1998 18.7788 8.40204C19.9432 7.43329 20.6511 6.48317 21.0983 5.7473C23.5481 6.99549 23.8462 9.47326 23.8462 14.3077V20.1854C23.576 23.1848 19.4588 23.8462 17.8846 23.8462H16.6923C16.6923 22.5328 15.6211 21.4615 14.3077 21.4615C12.9943 21.4615 11.9231 22.5328 11.9231 23.8462C11.9231 25.1596 12.9943 26.2308 14.3077 26.2308H17.8846C21.1728 26.2308 24.7963 24.8335 25.9047 21.7596H27.4231C29.3885 21.7596 31 20.1481 31 18.1827V15.5C31 13.5346 29.3885 11.9231 27.4231 11.9231H26.1842C26.0631 8.50451 25.4763 5.29087 22.2067 3.61418L23.9766 0.0372596L22.0577 0.0279453C22.0577 0.0279453 14.7269 0 14.3077 0ZM10.7308 14.3077C10.0694 14.3077 9.53846 14.8386 9.53846 15.5C9.53846 16.1614 10.0694 16.6923 10.7308 16.6923C11.3921 16.6923 11.9231 16.1614 11.9231 15.5C11.9231 14.8386 11.3921 14.3077 10.7308 14.3077ZM17.8846 14.3077C17.2233 14.3077 16.6923 14.8386 16.6923 15.5C16.6923 16.1614 17.2233 16.6923 17.8846 16.6923C18.546 16.6923 19.0769 16.1614 19.0769 15.5C19.0769 14.8386 18.546 14.3077 17.8846 14.3077ZM26.2308 14.3077H27.4231C28.0938 14.3077 28.6154 14.8293 28.6154 15.5V18.1827C28.6154 18.8534 28.0938 19.375 27.4231 19.375H26.2308V14.3077Z" fill="#606580"/>
</svg>
