<svg width="17" height="17" viewBox="0 0 17 17" fill="none" xmlns="http://www.w3.org/2000/svg">
<path d="M10.15 14.45C9.64995 14.85 9.09995 15.05 8.49995 15.05C5.99995 15.05 3.94995 10.9 3.94995 8.2C3.94995 5.49999 5.99995 3.3 8.49995 3.3C11 3.3 13.05 5.49999 13.05 8.2" stroke="#606580" stroke-miterlimit="10" stroke-linecap="round" stroke-linejoin="round"/>
<path d="M2.59998 7.8C2.59998 4.55 5.24998 1.95 8.49998 1.95C11.75 1.95 14.4 4.6 14.4 7.85" stroke="#606580" stroke-miterlimit="10" stroke-linecap="round" stroke-linejoin="round"/>
<path d="M2.6 9.65H2.5C1.8 9.65 1.25 9.1 1.25 8.4V7.7C1.25 7 1.8 6.45 2.5 6.45H2.65V9.65H2.6Z" stroke="#606580" stroke-miterlimit="10" stroke-linecap="round" stroke-linejoin="round"/>
<path d="M14.4 6.45H14.5C15.2 6.45 15.75 7 15.75 7.7V8.4C15.75 9.1 15.2 9.65 14.5 9.65H14.35V6.45H14.4Z" stroke="#606580" stroke-miterlimit="10" stroke-linecap="round" stroke-linejoin="round"/>
<path d="M14.4 9.5L12.95 12.65H10V11.65H10.5V12.15" stroke="#606580" stroke-miterlimit="10" stroke-linecap="round" stroke-linejoin="round"/>
</svg>
