<svg width="17" height="16" viewBox="0 0 17 16" fill="none" xmlns="http://www.w3.org/2000/svg">
<path d="M13.3 11.55L10.15 14.7C9.75 15.1 9.1 15.1 8.65 14.7L1.8 7.85C1.4 7.45 1.4 6.8 1.8 6.35L4.95 3.2C5.35 2.8 6 2.8 6.45 3.2L13.3 10.05C13.7 10.45 13.7 11.15 13.3 11.55Z" stroke="#606580" stroke-miterlimit="10" stroke-linecap="round" stroke-linejoin="round"/>
<path d="M6.86503 3.61304L2.23352 8.24454L8.17316 14.1842L12.8047 9.55268L6.86503 3.61304Z" stroke="#606580" stroke-miterlimit="10" stroke-linecap="round" stroke-linejoin="round"/>
<path d="M9.94995 3.1C11.85 3.1 13.4 4.65 13.4 6.55" stroke="#606580" stroke-miterlimit="10" stroke-linecap="round" stroke-linejoin="round"/>
<path d="M9.94995 1C13 1 15.5 3.5 15.5 6.55" stroke="#606580" stroke-miterlimit="10" stroke-linecap="round" stroke-linejoin="round"/>
</svg>
