<svg width="16" height="16" viewBox="0 0 16 16" fill="none" xmlns="http://www.w3.org/2000/svg">
<path d="M13.2999 7V5.2C11.6499 3.55 10.7499 2.65 9.0999 1H3.5999C3.0999 1 2.6499 1.4 2.6499 1.95V14.1C2.6499 14.6 3.0499 15.05 3.5999 15.05" stroke="#727689" stroke-miterlimit="10" stroke-linecap="round" stroke-linejoin="round"/>
<path d="M8.84985 1V5.5H13.2999" stroke="#727689" stroke-miterlimit="10" stroke-linecap="round" stroke-linejoin="round"/>
<path fill-rule="evenodd" clip-rule="evenodd" d="M9.88263 7H5.71361C5.33803 7 5 7.22776 5 7.54093V14.4591C5 14.7438 5.30047 15 5.71361 15H12.2864C12.662 15 13 14.7722 13 14.4591V9.39146C11.7981 8.45196 11.0845 7.9395 9.88263 7Z" stroke="#727689" stroke-width="0.5" stroke-miterlimit="10" stroke-linecap="round" stroke-linejoin="round" stroke-dasharray="1.2 1.2"/>
<path d="M9.19922 9V13.5" stroke="#727689" stroke-width="0.5" stroke-miterlimit="10" stroke-linecap="round" stroke-linejoin="round"/>
<path d="M11.45 11.25H7" stroke="#727689" stroke-width="0.5" stroke-miterlimit="10" stroke-linecap="round" stroke-linejoin="round"/>
</svg>
