<svg width="17" height="16" viewBox="0 0 17 16" fill="none" xmlns="http://www.w3.org/2000/svg">
<path d="M13.8 7V5.2C12.15 3.55 11.25 2.65 9.60002 1H4.10002C3.60002 1 3.15002 1.4 3.15002 1.95V14.1C3.15002 14.6 3.55002 15.05 4.10002 15.05H6.00002" stroke="#606580" stroke-miterlimit="10" stroke-linecap="round" stroke-linejoin="round"/>
<path d="M9.34998 1V5.5H13.8" stroke="#606580" stroke-miterlimit="10" stroke-linecap="round" stroke-linejoin="round"/>
<path d="M11.3 8.5C13.1441 8.5 14.6 9.95588 14.6 11.8C14.6 13.6441 13.1441 15.1 11.3 15.1C9.45588 15.1 8 13.6441 8 11.8C8.04853 9.95588 9.50441 8.5 11.3 8.5Z" stroke="#606580" stroke-miterlimit="10" stroke-linecap="round" stroke-linejoin="round"/>
<path d="M11.3465 13.7056V11.3817H10.8817" stroke="#606580" stroke-miterlimit="10" stroke-linecap="round" stroke-linejoin="round"/>
<path d="M11.3464 9.9873V10.1732" stroke="#606580" stroke-miterlimit="10" stroke-linecap="round" stroke-linejoin="round"/>
<path d="M10.8817 13.7056H11.8113" stroke="#606580" stroke-miterlimit="10" stroke-linecap="round" stroke-linejoin="round"/>
</svg>
