<svg width="17" height="16" viewBox="0 0 17 16" fill="none" xmlns="http://www.w3.org/2000/svg">
<path d="M13.65 7.95V5.2C12.05 3.55 11.1 2.6 9.5 1H3.95C3.4 1 3 1.4 3 1.9V14.05C3 14.55 3.4 15 3.95 15H6.25" stroke="#606580" stroke-miterlimit="10" stroke-linecap="round" stroke-linejoin="round"/>
<path d="M9.15002 1V5.5H13.65" stroke="#606580" stroke-miterlimit="10" stroke-linecap="round" stroke-linejoin="round"/>
<path d="M13.6 12.4C13.55 11.55 13 10.7 12.2 10.3C11.6 10 10.9 10 10.3 10.25" stroke="#606580" stroke-miterlimit="10" stroke-linecap="round" stroke-linejoin="round"/>
<path d="M14 12.35L13.55 12.8L13.15 12.35" stroke="#606580" stroke-miterlimit="10" stroke-linecap="round" stroke-linejoin="round"/>
<path d="M8.65002 12.7C8.70002 13.55 9.25002 14.4 10.05 14.8C10.65 15.1 11.35 15.1 11.9 14.9" stroke="#606580" stroke-miterlimit="10" stroke-linecap="round" stroke-linejoin="round"/>
<path d="M8.25 12.75L8.7 12.3L9.1 12.75" stroke="#606580" stroke-miterlimit="10" stroke-linecap="round" stroke-linejoin="round"/>
</svg>
