<svg width="17" height="16" viewBox="0 0 17 16" fill="none" xmlns="http://www.w3.org/2000/svg">
<path d="M13.25 7.85V5.1C11.65 3.5 10.75 2.6 9.14999 1H3.69999C3.19999 1 2.79999 1.4 2.79999 1.9V13.85C2.79999 14.35 3.19999 14.75 3.69999 14.75H6.09999" stroke="#606580" stroke-miterlimit="10" stroke-linecap="round" stroke-linejoin="round"/>
<path d="M8.79999 1V5.4H13.25" stroke="#606580" stroke-miterlimit="10" stroke-linecap="round" stroke-linejoin="round"/>
<path d="M10.9 8.70001C10.8 8.70001 10.7 8.75001 10.65 8.85001C10.65 8.85001 10.65 8.90001 10.6 8.90001C10.3 9.45001 10.05 10 9.74999 10.6C9.74999 10.65 9.69999 10.65 9.69999 10.65C9.44999 10.7 9.19999 10.7 8.94999 10.75C8.54999 10.8 8.14999 10.85 7.74999 10.9C7.59999 10.9 7.54999 11.05 7.54999 11.15C7.54999 11.2 7.59999 11.3 7.64999 11.35C8.09999 11.8 8.54999 12.25 8.99999 12.65C9.04999 12.7 9.04999 12.7 9.04999 12.75C8.94999 13.25 8.84999 13.75 8.79999 14.25C8.74999 14.4 8.74999 14.55 8.74999 14.7C8.74999 14.75 8.74999 14.75 8.74999 14.75C8.79999 14.85 8.89999 14.95 8.99999 14.95C9.04999 14.95 9.09999 14.95 9.14999 14.9C9.69999 14.6 10.3 14.3 10.85 14H10.9H10.95C11.5 14.3 12.1 14.6 12.65 14.9C12.7 14.9 12.75 14.95 12.8 14.95C12.85 14.95 12.9 14.95 12.95 14.9C13.05 14.85 13.05 14.75 13.05 14.65C12.95 14 12.85 13.4 12.7 12.75C12.7 12.7 12.7 12.65 12.75 12.65C13.2 12.2 13.65 11.75 14.1 11.3C14.2 11.2 14.2 11.15 14.2 11.05C14.15 10.95 14.1 10.9 14 10.85C13.35 10.75 12.75 10.65 12.1 10.55C12.05 10.55 12.05 10.55 12 10.5C11.85 10.2 11.7 9.90001 11.55 9.55001C11.4 9.30001 11.3 9.00001 11.15 8.75001C11.1 8.75001 11.05 8.70001 10.9 8.70001Z" stroke="#606580" stroke-miterlimit="10" stroke-linecap="round" stroke-linejoin="round"/>
</svg>
