<svg width="17" height="16" viewBox="0 0 17 16" fill="none" xmlns="http://www.w3.org/2000/svg">
<path fill-rule="evenodd" clip-rule="evenodd" d="M14.35 15H6.70002C6.40002 15 6.15002 14.75 6.15002 14.45V9.39997C6.15002 9.09997 6.40002 8.84998 6.70002 8.84998H14.4C14.7 8.84998 14.95 9.09997 14.95 9.39997V14.45C14.95 14.75 14.7 15 14.35 15Z" stroke="#606580" stroke-miterlimit="10" stroke-linecap="round" stroke-linejoin="round"/>
<path d="M8.7 10.35H7.75V11.05" stroke="#606580" stroke-miterlimit="10" stroke-linecap="round" stroke-linejoin="round"/>
<path d="M13.3 11.05V10.35H12.35" stroke="#606580" stroke-miterlimit="10" stroke-linecap="round" stroke-linejoin="round"/>
<path d="M7.75 12.8V13.45H8.7" stroke="#606580" stroke-miterlimit="10" stroke-linecap="round" stroke-linejoin="round"/>
<path d="M12.35 13.45H13.3V12.8" stroke="#606580" stroke-miterlimit="10" stroke-linecap="round" stroke-linejoin="round"/>
<path d="M12.7 6.85V5.2C11.05 3.55 10.15 2.65 8.49999 1H2.99999C2.49999 1 2.04999 1.4 2.04999 1.95V14.1C2.04999 14.6 2.49999 15 2.99999 15H3.74999" stroke="#606580" stroke-miterlimit="10" stroke-linecap="round" stroke-linejoin="round"/>
<path d="M8.19995 1V5.5H12.7" stroke="#606580" stroke-miterlimit="10" stroke-linecap="round" stroke-linejoin="round"/>
</svg>
