<svg width="17" height="16" viewBox="0 0 17 16" fill="none" xmlns="http://www.w3.org/2000/svg">
<path fill-rule="evenodd" clip-rule="evenodd" d="M6.18683 6H2.61192C2.28986 6 2 6.25623 2 6.60854V14.3915C2 14.7117 2.25765 15 2.61192 15H8.24804C8.57011 15 8.85996 14.7438 8.85996 14.3915V8.69039C7.82936 7.63345 7.21744 7.05694 6.18683 6Z" stroke="#606580" stroke-miterlimit="10" stroke-linecap="round" stroke-linejoin="round"/>
<path d="M5.99359 6V8.88256H8.85996" stroke="#606580" stroke-miterlimit="10" stroke-linecap="round" stroke-linejoin="round"/>
<path d="M8.5 5V1.60854C8.5 1.25623 8.79577 1 9.12441 1H12.7723C13.8239 2.05694 14.4484 2.63345 15.5 3.69039V9.39146C15.5 9.74377 15.2042 10 14.8756 10H11.25" stroke="#606580" stroke-miterlimit="10" stroke-linecap="round" stroke-linejoin="round"/>
<path d="M12.4936 1V3.89858H15.36" stroke="#606580" stroke-miterlimit="10" stroke-linecap="round" stroke-linejoin="round"/>
</svg>
