<svg width="17" height="20" viewBox="0 0 17 20" fill="none" xmlns="http://www.w3.org/2000/svg">
<path d="M12.7001 4V2.9C12.7001 2.5 12.4001 2.2 12.0001 2.2H9.7001H9.6501V1.2C9.6501 1.1 9.5501 1 9.4501 1H5.5501C5.4501 1 5.3501 1.1 5.3501 1.2V3.25C5.3501 3.35 5.4501 3.45 5.5501 3.45H8.3501" stroke="#727689" stroke-miterlimit="10" stroke-linecap="round" stroke-linejoin="round"/>
<path d="M3.4501 2.19995H3.0501C2.6501 2.19995 2.3501 2.49995 2.3501 2.89995V14.3C2.3501 14.7 2.6501 15 3.0501 15H3.99854" stroke="#727689" stroke-miterlimit="10" stroke-linecap="round" stroke-linejoin="round"/>
<path fill-rule="evenodd" clip-rule="evenodd" d="M12 5H6.45C5.95 5 5.5 5.4 5.5 5.95V18.1C5.5 18.6 5.9 19.05 6.45 19.05H15.2C15.7 19.05 16.15 18.65 16.15 18.1V9.2C14.55 7.55 13.6 6.65 12 5Z" stroke="#727689" stroke-width="0.5" stroke-miterlimit="10" stroke-linecap="round" stroke-linejoin="round" stroke-dasharray="1.2 1.2"/>
</svg>
