<svg width="17" height="16" viewBox="0 0 17 16" fill="none" xmlns="http://www.w3.org/2000/svg">
<path d="M4.25 6.14998V1.49998C4.25 0.999976 4.65 0.599976 5.15 0.599976H10.45C12 2.14998 12.9 3.04998 14.45 4.59998V13.1C14.45 13.6 14.05 14 13.55 14H11.8" stroke="#606580" stroke-miterlimit="10" stroke-linecap="round" stroke-linejoin="round"/>
<path d="M10.15 0.599976V4.89998H14.4" stroke="#606580" stroke-miterlimit="10" stroke-linecap="round" stroke-linejoin="round"/>
<path d="M4.94999 15.4L7.64999 12.7L9.59999 14.65C9.69999 14.75 9.79999 14.65 9.79999 14.55V8.65001C9.79999 8.40001 9.59999 8.20001 9.34999 8.20001H3.39999C3.29999 8.20001 3.24999 8.35001 3.29999 8.40001L5.24999 10.35L2.54999 13.05" stroke="#606580" stroke-miterlimit="10" stroke-linecap="round" stroke-linejoin="round"/>
</svg>
