<svg width="16" height="17" viewBox="0 0 16 17" fill="none" xmlns="http://www.w3.org/2000/svg">
<path d="M8.20001 9.29998L9.70001 7.84998L11.15 9.29998" stroke="#606580" stroke-miterlimit="10" stroke-linecap="round" stroke-linejoin="round"/>
<path d="M9.70001 15.45V7.84998" stroke="#606580" stroke-miterlimit="10" stroke-linecap="round" stroke-linejoin="round"/>
<path d="M6.25 14.1L4.75 12.6L6.25 11.15" stroke="#606580" stroke-miterlimit="10" stroke-linecap="round" stroke-linejoin="round"/>
<path d="M4.75 12.6H6.7C8.2 12.6 9.65 14 9.65 15.45" stroke="#606580" stroke-miterlimit="10" stroke-linecap="round" stroke-linejoin="round"/>
<path d="M13.05 14L14.55 12.5L13.05 11.05" stroke="#606580" stroke-miterlimit="10" stroke-linecap="round" stroke-linejoin="round"/>
<path d="M14.55 12.5H12.6C11.6 12.5 10.55 13.15 10.05 14.05C9.90001 14.3 9.80001 14.55 9.70001 14.85" stroke="#606580" stroke-miterlimit="10" stroke-linecap="round" stroke-linejoin="round"/>
<path d="M12.1 7.35V5.7C10.45 4.05 9.55001 3.15 7.90001 1.5H2.40001C1.90001 1.5 1.45001 1.9 1.45001 2.45V14.6C1.45001 15.1 1.85001 15.55 2.40001 15.55H3.15001" stroke="#606580" stroke-miterlimit="10" stroke-linecap="round" stroke-linejoin="round"/>
<path d="M7.59998 1.5V6H12.1" stroke="#606580" stroke-miterlimit="10" stroke-linecap="round" stroke-linejoin="round"/>
</svg>
