<svg width="16" height="16" viewBox="0 0 16 16" fill="none" xmlns="http://www.w3.org/2000/svg">
<path d="M6.39999 9.50001L4.84999 10.3L1.74999 8.55001C1.09999 8.15001 0.649994 7.45001 0.649994 6.70001V0.950012H4.99999L9.29999 1.00001V4.30001" stroke="#606580" stroke-miterlimit="10" stroke-linecap="round" stroke-linejoin="round"/>
<path d="M2.75 4.85L4 6.1C4.2 6.3 4.45 6.3 4.65 6.1L7.15 3.5" stroke="#606580" stroke-miterlimit="10" stroke-linecap="round" stroke-linejoin="round"/>
<path d="M9.49999 7.05H9.24999C8.99999 7.05 8.79999 7.25 8.79999 7.5V14.65C8.79999 14.9 8.99999 15.1 9.24999 15.1H14.9C15.15 15.1 15.35 14.9 15.35 14.65V7.45C15.35 7.2 15.15 7 14.9 7H13.45H13.4V6.35C13.4 6.3 13.35 6.25 13.3 6.25H10.85C10.8 6.25 10.75 6.3 10.75 6.35V7.65C10.75 7.7 10.8 7.75 10.85 7.75H12.6" stroke="#606580" stroke-miterlimit="10" stroke-linecap="round" stroke-linejoin="round"/>
</svg>
