<svg width="16" height="17" viewBox="0 0 16 17" fill="none" xmlns="http://www.w3.org/2000/svg">
<path d="M12.7 8.2V3.4C12.7 3 12.4 2.7 12 2.7H9.70001H9.65001V1.7C9.65001 1.6 9.55001 1.5 9.45001 1.5H5.55001C5.45001 1.5 5.35001 1.6 5.35001 1.7V3.75C5.35001 3.85 5.45001 3.95 5.55001 3.95H8.35001" stroke="#606580" stroke-miterlimit="10" stroke-linecap="round" stroke-linejoin="round"/>
<path d="M3.45001 2.70001H3.05001C2.65001 2.70001 2.35001 3.00001 2.35001 3.40001V14.8C2.35001 15.2 2.65001 15.5 3.05001 15.5H8.25001" stroke="#606580" stroke-miterlimit="10" stroke-linecap="round" stroke-linejoin="round"/>
<path d="M11.15 10.15L13.65 12.7L11.15 15.2" stroke="#606580" stroke-miterlimit="10" stroke-linecap="round" stroke-linejoin="round"/>
<path d="M8.54999 12.7H13.65" stroke="#606580" stroke-miterlimit="10" stroke-linecap="round" stroke-linejoin="round"/>
</svg>
