<svg width="16" height="16" viewBox="0 0 16 16" fill="none" xmlns="http://www.w3.org/2000/svg">
<path d="M13 6.2V2.9C13 2.5 12.7 2.2 12.3 2.2H9.99999H9.94999V1.2C9.94999 1.1 9.84999 1 9.74999 1H5.84999C5.74999 1 5.64999 1.1 5.64999 1.2V3.25C5.64999 3.35 5.74999 3.45 5.84999 3.45H8.64999" stroke="#606580" stroke-miterlimit="10" stroke-linecap="round" stroke-linejoin="round"/>
<path d="M3.74999 2.20001H3.34999C2.94999 2.20001 2.64999 2.50001 2.64999 2.90001V14.3C2.64999 14.7 2.94999 15 3.34999 15H5.94999" stroke="#606580" stroke-miterlimit="10" stroke-linecap="round" stroke-linejoin="round"/>
<path d="M10.8 8.5C12.6441 8.5 14.1 9.95588 14.1 11.8C14.1 13.6441 12.6441 15.1 10.8 15.1C8.95588 15.1 7.5 13.6441 7.5 11.8C7.54853 9.95588 9.00441 8.5 10.8 8.5Z" stroke="#606580" stroke-miterlimit="10" stroke-linecap="round" stroke-linejoin="round"/>
<path d="M10.8465 13.7056V11.3817H10.3817" stroke="#606580" stroke-miterlimit="10" stroke-linecap="round" stroke-linejoin="round"/>
<path d="M10.8465 9.9873V10.1732" stroke="#606580" stroke-miterlimit="10" stroke-linecap="round" stroke-linejoin="round"/>
<path d="M10.3817 13.7056H11.3113" stroke="#606580" stroke-miterlimit="10" stroke-linecap="round" stroke-linejoin="round"/>
</svg>
