<svg width="16" height="16" viewBox="0 0 16 16" fill="none" xmlns="http://www.w3.org/2000/svg">
<path d="M12.7 7.7V2.9C12.7 2.5 12.4 2.2 12 2.2H9.70001H9.65001V1.2C9.65001 1.1 9.55001 1 9.45001 1H5.55001C5.45001 1 5.35001 1.1 5.35001 1.2V3.25C5.35001 3.35 5.45001 3.45 5.55001 3.45H8.35001" stroke="#606580" stroke-miterlimit="10" stroke-linecap="round" stroke-linejoin="round"/>
<path d="M3.45001 2.20001H3.05001C2.65001 2.20001 2.35001 2.50001 2.35001 2.90001V14.3C2.35001 14.7 2.65001 15 3.05001 15H7.15001" stroke="#606580" stroke-miterlimit="10" stroke-linecap="round" stroke-linejoin="round"/>
<path d="M8 11.6L9.75 13.35C9.85 13.45 10.05 13.45 10.15 13.35L13.6 9.90002" stroke="#606580" stroke-miterlimit="10" stroke-linecap="round" stroke-linejoin="round"/>
</svg>
