<svg width="16" height="16" viewBox="0 0 16 16" fill="none" xmlns="http://www.w3.org/2000/svg">
<path d="M9.10001 13.3L10.75 14.95C11 15.2 11.35 15.2 11.6 14.95L15.05 11.5" stroke="#606580" stroke-miterlimit="10" stroke-linecap="round" stroke-linejoin="round"/>
<path d="M4.00001 4.04999H2.35001V5.69999H4.00001V4.04999Z" stroke="#606580" stroke-miterlimit="10" stroke-linecap="round" stroke-linejoin="round"/>
<path d="M5.79999 4.84998H11" stroke="#606580" stroke-miterlimit="10" stroke-linecap="round" stroke-linejoin="round"/>
<path d="M4.00001 7.15002H2.35001V8.80002H4.00001V7.15002Z" stroke="#606580" stroke-miterlimit="10" stroke-linecap="round" stroke-linejoin="round"/>
<path d="M5.79999 8H11" stroke="#606580" stroke-miterlimit="10" stroke-linecap="round" stroke-linejoin="round"/>
<path d="M4.00001 10.3H2.35001V11.95H4.00001V10.3Z" stroke="#606580" stroke-miterlimit="10" stroke-linecap="round" stroke-linejoin="round"/>
<path d="M5.79999 11.15H7.49999" stroke="#606580" stroke-miterlimit="10" stroke-linecap="round" stroke-linejoin="round"/>
<path d="M13.8 10V2.2C13.8 1.25 13.05 0.5 12.1 0.5H4.6C3.85 0.5 3.2 1.05 3 1.75" stroke="#606580" stroke-miterlimit="10" stroke-linecap="round" stroke-linejoin="round"/>
<path d="M3 14.25C3.2 14.95 3.85 15.5 4.65 15.5H7.5" stroke="#606580" stroke-miterlimit="10" stroke-linecap="round" stroke-linejoin="round"/>
</svg>
