<svg width="16" height="16" viewBox="0 0 16 16" fill="none" xmlns="http://www.w3.org/2000/svg">
<path d="M10.7 4.54999H9.30001H9.25001V3.89999C9.25001 3.84999 9.20001 3.79999 9.15001 3.79999H6.80001C6.75001 3.79999 6.70001 3.84999 6.70001 3.89999V5.14999C6.70001 5.19999 6.75001 5.24999 6.80001 5.24999H8.00001" stroke="#606580" stroke-miterlimit="10" stroke-linecap="round" stroke-linejoin="round"/>
<path d="M5.30002 4.54999C5.05002 4.54999 4.90002 4.74999 4.90002 4.94999V11.8C4.90002 12.05 5.10002 12.2 5.30002 12.2H5.70002" stroke="#606580" stroke-miterlimit="10" stroke-linecap="round" stroke-linejoin="round"/>
<path d="M7.90001 1.75H6.50001V1.1C6.50001 1.05 6.45001 1 6.35001 1H4.05001C4.00001 1 3.95001 1.05 3.95001 1.1V2.35C3.95001 2.4 4.00001 2.45 4.05001 2.45H5.20001" stroke="#606580" stroke-miterlimit="10" stroke-linecap="round" stroke-linejoin="round"/>
<path d="M2.50001 1.75C2.25001 1.75 2.10001 1.95 2.10001 2.15V9C2.10001 9.25 2.30001 9.4 2.50001 9.4H2.90001" stroke="#606580" stroke-miterlimit="10" stroke-linecap="round" stroke-linejoin="round"/>
<path d="M8.10001 7.30002C7.85001 7.30002 7.70001 7.50002 7.70001 7.70002V14.55C7.70001 14.8 7.90001 14.95 8.10001 14.95H13.5C13.75 14.95 13.9 14.75 13.9 14.55V7.75002C13.9 7.50002 13.7 7.35002 13.5 7.35002H12.1H12.05V6.75002C12.05 6.70002 12 6.65002 11.95 6.65002H9.60001C9.55001 6.65002 9.50001 6.70002 9.50001 6.75002V8.00002C9.50001 8.05002 9.55001 8.10002 9.60001 8.10002H10.75" stroke="#606580" stroke-miterlimit="10" stroke-linecap="round" stroke-linejoin="round"/>
</svg>
