<svg width="16" height="16" viewBox="0 0 16 16" fill="none" xmlns="http://www.w3.org/2000/svg">
<path d="M10.5 14.8V9.34998C10.5 9.34998 10.5 9.34998 11.9 9.34998C13.3 9.34998 13.3 10.75 13.3 10.75C13.3 10.75 13.3 12.15 11.9 12.15C10.95 12.15 9.95 12.15 9.5 12.15" stroke="#606580" stroke-miterlimit="10" stroke-linecap="round" stroke-linejoin="round"/>
<path d="M11.9 13.5H9.5" stroke="#606580" stroke-miterlimit="10" stroke-linecap="round" stroke-linejoin="round"/>
<path d="M13.05 7.15V2.9C13.05 2.5 12.75 2.2 12.35 2.2H10.05H10V1.2C10 1.1 9.90001 1 9.80001 1H5.90001C5.80001 1 5.70001 1.1 5.70001 1.2V3.25C5.70001 3.35 5.80001 3.45 5.90001 3.45H8.70001" stroke="#606580" stroke-miterlimit="10" stroke-linecap="round" stroke-linejoin="round"/>
<path d="M3.8 2.20001H3.4C3.05 2.20001 2.75 2.50001 2.75 2.90001V14.3C2.75 14.7 3.05 15 3.45 15H7.5" stroke="#606580" stroke-miterlimit="10" stroke-linecap="round" stroke-linejoin="round"/>
</svg>
