<svg width="16" height="16" viewBox="0 0 16 16" fill="none" xmlns="http://www.w3.org/2000/svg">
<path d="M12.65 6V2.9C12.65 2.5 12.35 2.2 11.95 2.2H9.64999H9.59999V1.2C9.59999 1.1 9.49999 1 9.39999 1H5.49999C5.39999 1 5.29999 1.1 5.29999 1.2V3.25C5.29999 3.35 5.39999 3.45 5.49999 3.45H8.29999" stroke="#606580" stroke-miterlimit="10" stroke-linecap="round" stroke-linejoin="round"/>
<path d="M3.39999 2.20001H2.94999C2.59999 2.20001 2.29999 2.50001 2.29999 2.90001V14.3C2.29999 14.7 2.59999 15 2.99999 15H3.64999" stroke="#606580" stroke-miterlimit="10" stroke-linecap="round" stroke-linejoin="round"/>
<path d="M10.3 7.90001L6.5 14.55C6.4 14.75 6.55 15 6.75 15H14.4C14.65 15 14.8 14.75 14.65 14.55L10.85 7.95001C10.75 7.70001 10.45 7.70001 10.3 7.90001Z" stroke="#606580" stroke-miterlimit="10" stroke-linecap="round" stroke-linejoin="round"/>
<path d="M10.6 10.65V12.15" stroke="#606580" stroke-miterlimit="10" stroke-linecap="round" stroke-linejoin="round"/>
<path d="M10.6 13.35V13.5" stroke="#606580" stroke-miterlimit="10" stroke-linecap="round" stroke-linejoin="round"/>
</svg>
