<svg width="17" height="16" viewBox="0 0 17 16" fill="none" xmlns="http://www.w3.org/2000/svg">
<path d="M13.55 15H3.45005L1.80005 13.3H15.2L13.55 15Z" stroke="#606580" stroke-miterlimit="10" stroke-linecap="round" stroke-linejoin="round"/>
<path d="M12.55 6.60001H4.45C3.9 6.60001 3.5 7.05001 3.5 7.55001V13.3H13.55V7.60001C13.55 7.05001 13.1 6.60001 12.55 6.60001Z" stroke="#606580" stroke-miterlimit="10" stroke-linecap="round" stroke-linejoin="round"/>
<path d="M11.5 8.94996C11.6 8.79996 11.75 8.64996 11.95 8.54996C12.1 8.44996 12.3 8.39996 12.5 8.39996C12.7 8.39996 12.9 8.44996 13.05 8.54996C13.2 8.64996 13.4 8.79996 13.5 8.94996" stroke="#606580" stroke-miterlimit="10" stroke-linecap="round" stroke-linejoin="round"/>
<path d="M3.45007 8.94999C3.55007 8.79999 3.70007 8.64999 3.90007 8.54999C4.05007 8.44999 4.25007 8.39999 4.45007 8.39999C4.65007 8.39999 4.85007 8.44999 5.00007 8.54999C5.15007 8.64999 5.35007 8.79999 5.45007 8.94999" stroke="#606580" stroke-miterlimit="10" stroke-linecap="round" stroke-linejoin="round"/>
<path d="M11.5 8.94995C11.4 9.09995 11.25 9.24995 11.05 9.34995C10.9 9.44995 10.7 9.49995 10.5 9.49995C10.3 9.49995 10.1 9.44995 9.95 9.34995C9.8 9.24995 9.6 9.09995 9.5 8.94995" stroke="#606580" stroke-miterlimit="10" stroke-linecap="round" stroke-linejoin="round"/>
<path d="M7.5 8.94996C7.6 8.79996 7.75 8.64996 7.95 8.54996C8.1 8.44996 8.3 8.39996 8.5 8.39996C8.7 8.39996 8.9 8.44996 9.05 8.54996C9.2 8.64996 9.4 8.79996 9.5 8.94996" stroke="#606580" stroke-miterlimit="10" stroke-linecap="round" stroke-linejoin="round"/>
<path d="M7.5 8.94995C7.4 9.09995 7.25 9.24995 7.05 9.34995C6.9 9.44995 6.7 9.49995 6.5 9.49995C6.3 9.49995 6.1 9.44995 5.95 9.34995C5.8 9.24995 5.6 9.14995 5.5 8.94995" stroke="#606580" stroke-miterlimit="10" stroke-linecap="round" stroke-linejoin="round"/>
<path d="M9.35015 3.5H7.65015V6.6H9.35015V3.5Z" stroke="#606580" stroke-miterlimit="10" stroke-linecap="round" stroke-linejoin="round"/>
<path d="M8.95017 1.9C8.95017 2.15 8.75017 2.35 8.50017 2.35C8.25017 2.35 8.05017 2.15 8.05017 1.9C8.05017 1.65 8.50017 1 8.50017 1C8.50017 1 8.95017 1.65 8.95017 1.9Z" stroke="#606580" stroke-miterlimit="10" stroke-linecap="round" stroke-linejoin="round"/>
</svg>
