<svg width="17" height="16" viewBox="0 0 17 16" fill="none" xmlns="http://www.w3.org/2000/svg">
<path d="M12.6 15H4.40005C3.50005 15 2.80005 14.25 2.80005 13.4V4.20004H14.2V13.4C14.2 14.25 13.45 15 12.6 15Z" stroke="#606580" stroke-miterlimit="10" stroke-linecap="round" stroke-linejoin="round"/>
<path d="M8.99999 3.95004L5.34999 3.05004C4.69999 2.90004 4.34999 2.15004 4.64999 1.55004C4.94999 0.90004 5.79999 0.80004 6.29999 1.30004L8.99999 3.95004Z" stroke="#606580" stroke-miterlimit="10" stroke-linecap="round" stroke-linejoin="round"/>
<path d="M7.95007 3.95004L11.6001 3.05004C12.2501 2.90004 12.6001 2.15004 12.3001 1.55004C12.0001 0.90004 11.1501 0.80004 10.6501 1.30004L7.95007 3.95004Z" stroke="#606580" stroke-miterlimit="10" stroke-linecap="round" stroke-linejoin="round"/>
<path d="M7.1001 4.20004V15" stroke="#606580" stroke-miterlimit="10" stroke-linecap="round" stroke-linejoin="round"/>
<path d="M9.90002 15V4.20004" stroke="#606580" stroke-miterlimit="10" stroke-linecap="round" stroke-linejoin="round"/>
<path d="M10.15 7.30005H14.2" stroke="#606580" stroke-miterlimit="10" stroke-linecap="round" stroke-linejoin="round"/>
<path d="M6.85005 7.30005H2.80005" stroke="#606580" stroke-miterlimit="10" stroke-linecap="round" stroke-linejoin="round"/>
</svg>
