<svg width="17" height="16" viewBox="0 0 17 16" fill="none" xmlns="http://www.w3.org/2000/svg">
<path d="M14.8001 6.14996C14.2001 3.99996 12.5001 2.29996 10.3501 1.64996V1.69996" stroke="#606580" stroke-miterlimit="10" stroke-linecap="round" stroke-linejoin="round"/>
<path d="M10.3501 14.3C12.5001 13.7 14.2001 12 14.8501 9.84998H14.8001" stroke="#606580" stroke-miterlimit="10" stroke-linecap="round" stroke-linejoin="round"/>
<path d="M2.2002 9.84998C2.8002 12 4.5002 13.7 6.6502 14.35V14.3" stroke="#606580" stroke-miterlimit="10" stroke-linecap="round" stroke-linejoin="round"/>
<path d="M6.65015 1.69995C4.50015 2.29995 2.80015 3.99995 2.15015 6.14995H2.20015" stroke="#606580" stroke-miterlimit="10" stroke-linecap="round" stroke-linejoin="round"/>
<path fill-rule="evenodd" clip-rule="evenodd" d="M9.69998 1H7.29998C6.89998 1 6.59998 1.3 6.64998 1.65V1.7L7.09998 4.3C7.14998 4.55 7.34998 4.7 7.59998 4.7H9.34998C9.59998 4.7 9.79998 4.55 9.84998 4.3L10.3 1.7V1.65C10.4 1.3 10.1 1 9.69998 1Z" stroke="#606580" stroke-miterlimit="10" stroke-linecap="round" stroke-linejoin="round"/>
<path fill-rule="evenodd" clip-rule="evenodd" d="M10.35 14.35C10.35 14.3 10.35 14.3 10.35 14.35L9.90003 11.7C9.85003 11.45 9.65003 11.3 9.40003 11.3H7.65003C7.40003 11.3 7.20003 11.45 7.15003 11.7L6.70003 14.3V14.35C6.65003 14.7 6.95003 15 7.35003 15H9.75003C10.1 15 10.4 14.7 10.35 14.35Z" stroke="#606580" stroke-miterlimit="10" stroke-linecap="round" stroke-linejoin="round"/>
<path fill-rule="evenodd" clip-rule="evenodd" d="M14.85 6.15C14.8 6.15 14.8 6.15 14.85 6.15L12.2 6.6C11.95 6.65 11.8 6.85 11.8 7.1V8.85C11.8 9.1 11.95 9.3 12.2 9.35L14.8 9.8H14.85C15.2 9.85 15.5 9.55 15.5 9.15V6.75C15.5 6.4 15.2 6.1 14.85 6.15Z" stroke="#606580" stroke-miterlimit="10" stroke-linecap="round" stroke-linejoin="round"/>
<path fill-rule="evenodd" clip-rule="evenodd" d="M4.8 6.60001L2.2 6.15001H2.15C1.8 6.10001 1.5 6.40001 1.5 6.80001V9.20001C1.5 9.60001 1.8 9.90001 2.15 9.85001H2.2L4.8 9.40001C5.05 9.35001 5.2 9.15001 5.2 8.90001V7.15001C5.2 6.85001 5.05 6.65001 4.8 6.60001Z" stroke="#606580" stroke-miterlimit="10" stroke-linecap="round" stroke-linejoin="round"/>
<path d="M12.1001 6.59996C11.7001 5.59996 10.9001 4.74996 9.90015 4.39996" stroke="#606580" stroke-miterlimit="10" stroke-linecap="round" stroke-linejoin="round"/>
<path d="M9.90015 11.6C10.9001 11.2 11.7501 10.4 12.1501 9.34998" stroke="#606580" stroke-miterlimit="10" stroke-linecap="round" stroke-linejoin="round"/>
<path d="M4.90015 9.34998C5.30015 10.35 6.10015 11.2 7.15015 11.6" stroke="#606580" stroke-miterlimit="10" stroke-linecap="round" stroke-linejoin="round"/>
<path d="M7.10002 4.39999C6.10002 4.79999 5.25002 5.59999 4.90002 6.64999" stroke="#606580" stroke-miterlimit="10" stroke-linecap="round" stroke-linejoin="round"/>
</svg>
