<svg width="17" height="16" viewBox="0 0 17 16" fill="none" xmlns="http://www.w3.org/2000/svg">
<path d="M10.3001 9.1H12.8001L9.30015 5.2H10.8501L8.50015 2.5L6.15015 5.2H7.70015L4.20015 9.1H6.70015L2.90015 13.35H8.50015H14.1001L10.3001 9.1Z" stroke="#606580" stroke-miterlimit="10" stroke-linecap="round" stroke-linejoin="round"/>
<path d="M8.50012 13.35V15" stroke="#606580" stroke-miterlimit="10" stroke-linecap="round" stroke-linejoin="round"/>
<path d="M8.4502 2.5C8.86441 2.5 9.2002 2.16421 9.2002 1.75C9.2002 1.33579 8.86441 1 8.4502 1C8.03598 1 7.7002 1.33579 7.7002 1.75C7.7002 2.16421 8.03598 2.5 8.4502 2.5Z" stroke="#606580" stroke-miterlimit="10" stroke-linecap="round" stroke-linejoin="round"/>
<path d="M8.4502 11.9C8.86441 11.9 9.2002 11.5642 9.2002 11.15C9.2002 10.7358 8.86441 10.4 8.4502 10.4C8.03598 10.4 7.7002 10.7358 7.7002 11.15C7.7002 11.5642 8.03598 11.9 8.4502 11.9Z" stroke="#606580" stroke-miterlimit="10" stroke-linecap="round" stroke-linejoin="round"/>
<path d="M8.4502 8.5C8.86441 8.5 9.2002 8.16421 9.2002 7.75C9.2002 7.33579 8.86441 7 8.4502 7C8.03598 7 7.7002 7.33579 7.7002 7.75C7.7002 8.16421 8.03598 8.5 8.4502 8.5Z" stroke="#606580" stroke-miterlimit="10" stroke-linecap="round" stroke-linejoin="round"/>
</svg>
