<svg width="17" height="17" viewBox="0 0 17 17" fill="none" xmlns="http://www.w3.org/2000/svg">
<path d="M6.40005 15.25H3.40005C2.25005 15.25 1.30005 14.3 1.30005 13.15V3.35C1.30005 2.2 2.25005 1.25 3.40005 1.25H11.1C12.75 2.9 13.65 3.8 15.3 5.45V7.45" stroke="#606580" stroke-miterlimit="10" stroke-linecap="round" stroke-linejoin="round"/>
<path d="M4.7002 1.45001V6.00001H11.9502" stroke="#606580" stroke-miterlimit="10" stroke-linecap="round" stroke-linejoin="round"/>
<path d="M12.0502 10.35L12.6002 10.5C12.7002 10.55 12.8002 10.6 12.9502 10.65L13.4502 10.9L13.7002 11.4C13.7502 11.5 13.8002 11.6 13.8502 11.7L14.0002 12.2L13.8502 12.75C13.8002 12.85 13.8002 12.95 13.7002 13.05L13.4502 13.55L12.9502 13.8C12.8502 13.85 12.7502 13.9 12.6502 13.95L12.1002 14.1L11.5502 13.95C11.4502 13.9 11.3502 13.85 11.2502 13.85L10.7502 13.6L10.5002 13.1C10.4502 13 10.4002 12.9 10.3502 12.8L10.2002 12.25L10.3502 11.7C10.4002 11.6 10.4002 11.5 10.5002 11.4L10.7502 10.9L11.2502 10.65C11.3502 10.6 11.4502 10.55 11.5502 10.5L12.0502 10.35ZM12.4002 8.65002H11.7502C11.5502 8.65002 11.3502 8.80002 11.3002 9.00002L11.2002 9.50002C11.0502 9.55002 10.8502 9.60002 10.7002 9.70002L10.3002 9.40002C10.2502 9.35002 10.1502 9.30002 10.0502 9.30002C9.95024 9.30002 9.80024 9.35002 9.75024 9.45002L9.30024 9.90002C9.15024 10.05 9.15024 10.3 9.25024 10.45L9.55024 10.85C9.45024 11 9.40024 11.15 9.35024 11.35L8.85024 11.45C8.65024 11.5 8.50024 11.7 8.50024 11.9V12.5C8.50024 12.7 8.65024 12.9 8.85024 12.95L9.35024 13.05C9.40024 13.2 9.45024 13.4 9.55024 13.55L9.25024 13.95C9.10024 14.1 9.15024 14.35 9.30024 14.5L9.75024 14.95C9.85024 15.05 9.95024 15.1 10.0502 15.1C10.1502 15.1 10.2502 15.05 10.3002 15L10.7002 14.7C10.8502 14.8 11.0002 14.85 11.1502 14.9L11.2502 15.4C11.3002 15.6 11.4502 15.75 11.7002 15.75H12.3502C12.5502 15.75 12.7502 15.6 12.8002 15.4L12.9002 14.9C13.0502 14.85 13.2502 14.8 13.4002 14.7L13.8002 15C13.8502 15.05 13.9502 15.1 14.0502 15.1C14.1502 15.1 14.3002 15.05 14.3502 14.95L14.8002 14.5C14.9502 14.35 14.9502 14.1 14.8502 13.95L14.6002 13.5C14.7002 13.35 14.7502 13.2 14.8002 13L15.3002 12.9C15.5002 12.85 15.6502 12.7 15.6502 12.45V11.85C15.6502 11.65 15.5002 11.45 15.3002 11.4L14.8002 11.3C14.7502 11.15 14.7002 10.95 14.6002 10.8L14.9002 10.4C15.0502 10.25 15.0002 10 14.8502 9.85003L14.4002 9.50002C14.3002 9.40002 14.2002 9.35003 14.1002 9.35003C14.0002 9.35003 13.9002 9.40002 13.8502 9.45002L13.4502 9.75002C13.3002 9.65002 13.1002 9.60002 12.9502 9.55002L12.8502 9.05002C12.8002 8.85002 12.6002 8.65002 12.4002 8.65002Z" fill="#606580"/>
</svg>
