<svg width="17" height="17" viewBox="0 0 17 17" fill="none" xmlns="http://www.w3.org/2000/svg">
<path d="M6.55 15.5H3.6C2.45 15.5 1.5 14.55 1.5 13.4V3.6C1.5 2.45 2.45 1.5 3.6 1.5H11.3C12.95 3.15 13.85 4.05 15.5 5.7V7.7" stroke="#606580" stroke-miterlimit="10" stroke-linecap="round" stroke-linejoin="round"/>
<path d="M4.90002 1.75V6.25H12.1" stroke="#606580" stroke-miterlimit="10" stroke-linecap="round" stroke-linejoin="round"/>
<path d="M15 12.3C14.95 11.25 14.3 10.25 13.25 9.74996C12.5 9.39996 11.65 9.39996 10.95 9.64996" stroke="#606580" stroke-miterlimit="10" stroke-linecap="round" stroke-linejoin="round"/>
<path d="M15.5 12.3L15 12.8L14.45 12.3" stroke="#606580" stroke-miterlimit="10" stroke-linecap="round" stroke-linejoin="round"/>
<path d="M9 12.7C9.05 13.75 9.7 14.75 10.75 15.25C11.5 15.6 12.3 15.6 13.05 15.35" stroke="#606580" stroke-miterlimit="10" stroke-linecap="round" stroke-linejoin="round"/>
<path d="M8.5 12.75L9 12.25L9.55 12.75" stroke="#606580" stroke-miterlimit="10" stroke-linecap="round" stroke-linejoin="round"/>
</svg>
