<svg width="18" height="18" viewBox="0 0 18 18" fill="none" xmlns="http://www.w3.org/2000/svg">
<path fill-rule="evenodd" clip-rule="evenodd" d="M16.875 15.75V5.0625L11.3906 0H4.6875C3.34131 0 2.25 1.00736 2.25 2.25V15.75C2.25 16.9926 3.34131 18 4.6875 18H5.625V16.875H4.6875C4.0144 16.875 3.46875 16.3713 3.46875 15.75V2.25C3.46875 1.62868 4.0144 1.125 4.6875 1.125H11.3906V3.375C11.3906 4.30698 12.2091 5.0625 13.2188 5.0625H15.6562V15.75C15.6562 16.3713 15.1106 16.875 14.4375 16.875H13.5V18H14.4375C15.7837 18 16.875 16.9926 16.875 15.75Z" fill="#727689"/>
<path fill-rule="evenodd" clip-rule="evenodd" d="M8.92469 16.9503C9.19928 17.2249 9.64447 17.2249 9.91906 16.9503L14.1378 12.7316C14.4124 12.457 14.4124 12.0118 14.1378 11.7372C13.8632 11.4626 13.418 11.4626 13.1434 11.7372L10.125 14.7556V7.3125C10.125 6.92418 9.8102 6.75 9.42188 6.75C9.03355 6.75 8.71875 6.92418 8.71875 7.3125V14.7556L5.70031 11.7372C5.42572 11.4626 4.98053 11.4626 4.70594 11.7372C4.43135 12.0118 4.43135 12.457 4.70594 12.7316L8.92469 16.9503Z" fill="#727689"/>
</svg>
