<svg width="17" height="17" viewBox="0 0 17 17" fill="none" xmlns="http://www.w3.org/2000/svg">
<path d="M4.15 1.54999L1.25 3.44999V5.79999C1.25 6.09999 1.5 6.34999 1.8 6.34999H15.1C15.4 6.34999 15.65 6.09999 15.65 5.79999V3.44999L12.75 1.54999H4.15V1.54999Z" stroke="#606580" stroke-miterlimit="10" stroke-linecap="round" stroke-linejoin="round"/>
<path d="M1.25 3.44995H15.65" stroke="#606580" stroke-miterlimit="10" stroke-linecap="round" stroke-linejoin="round"/>
<path d="M14.2 4.90002H13.25" stroke="#606580" stroke-miterlimit="10" stroke-linecap="round" stroke-linejoin="round"/>
<path d="M1.34998 8V10.35C1.34998 10.65 1.59998 10.9 1.89998 10.9H15.2C15.5 10.9 15.75 10.65 15.75 10.35V8H1.34998Z" stroke="#606580" stroke-miterlimit="10" stroke-linecap="round" stroke-linejoin="round"/>
<path d="M14.3 9.45001H13.35" stroke="#606580" stroke-miterlimit="10" stroke-linecap="round" stroke-linejoin="round"/>
<path d="M1.34998 12.6V14.95C1.34998 15.25 1.59998 15.5 1.89998 15.5H15.2C15.5 15.5 15.75 15.25 15.75 14.95V12.6H1.34998Z" stroke="#606580" stroke-miterlimit="10" stroke-linecap="round" stroke-linejoin="round"/>
<path d="M14.3 14H13.35" stroke="#606580" stroke-miterlimit="10" stroke-linecap="round" stroke-linejoin="round"/>
</svg>
