<svg width="17" height="17" viewBox="0 0 17 17" fill="none" xmlns="http://www.w3.org/2000/svg">
<path d="M13.6 15.75H3.4C2.2 15.75 1.25 14.8 1.25 13.6V3.4C1.25 2.2 2.2 1.25 3.4 1.25H15.75V13.6C15.75 14.8 14.8 15.75 13.6 15.75Z" stroke="#606580" stroke-miterlimit="10" stroke-linecap="round" stroke-linejoin="round"/>
<path d="M13.8 6.00002C14.15 6.75002 14.35 7.60002 14.35 8.50002C14.35 11.75 11.7 14.35 8.50002 14.35C5.30002 14.35 2.65002 11.75 2.65002 8.50002C2.65002 5.25002 5.25002 2.65002 8.50002 2.65002C9.40002 2.65002 10.25 2.85002 11 3.20002" stroke="#606580" stroke-miterlimit="10" stroke-linecap="round" stroke-linejoin="round"/>
<path d="M15.75 4.65L8.40002 8.6L12.35 1.25" stroke="#606580" stroke-miterlimit="10" stroke-linecap="round" stroke-linejoin="round"/>
</svg>
