<svg width="17" height="17" viewBox="0 0 17 17" fill="none" xmlns="http://www.w3.org/2000/svg">
<path d="M1 12.25H16" stroke="#606580" stroke-miterlimit="10" stroke-linecap="round" stroke-linejoin="round"/>
<path d="M14.5 13.75H13.5" stroke="#606580" stroke-miterlimit="10" stroke-linecap="round" stroke-linejoin="round"/>
<path d="M4 10.25L1 12.25V14.7C1 15 1.25 15.25 1.55 15.25H15.4C15.7 15.25 15.95 15 15.95 14.7V12.25L12.95 10.25H4Z" stroke="#606580" stroke-miterlimit="10" stroke-linecap="round" stroke-linejoin="round"/>
<path d="M7.7001 8.25001C7.4501 8.25001 7.2001 8.15001 7.0501 8.00001L5.0501 6.00001C4.9501 5.90001 4.8501 5.75001 4.8501 5.55001C4.8501 5.40001 4.9001 5.25001 5.0501 5.10001C5.1501 5.00001 5.3001 4.90001 5.4501 4.90001C5.6001 4.90001 5.7501 4.95001 5.9001 5.10001L7.7001 6.90001L11.4501 3.20001C11.7001 2.95001 12.1001 2.95001 12.3001 3.20001C12.5501 3.45001 12.5501 3.85001 12.3001 4.05001L8.3501 8.00001C8.2001 8.15001 7.9501 8.25001 7.7001 8.25001Z" fill="#606580"/>
</svg>
