<svg width="17" height="17" viewBox="0 0 17 17" fill="none" xmlns="http://www.w3.org/2000/svg">
<path d="M1 12.25H16" stroke="#606580" stroke-miterlimit="10" stroke-linecap="round" stroke-linejoin="round"/>
<path d="M14.5 13.75H13.5" stroke="#606580" stroke-miterlimit="10" stroke-linecap="round" stroke-linejoin="round"/>
<path d="M4 10.25L1 12.25V14.7C1 15 1.25 15.25 1.55 15.25H15.4C15.7 15.25 15.95 15 15.95 14.7V12.25L12.95 10.25" stroke="#606580" stroke-miterlimit="10" stroke-linecap="round" stroke-linejoin="round"/>
<path d="M12.8503 5.59996C12.7503 4.14996 11.9003 2.79996 10.5003 2.14996C9.45034 1.64996 8.35034 1.64996 7.35034 2.04996" stroke="#606580" stroke-miterlimit="10" stroke-linecap="round" stroke-linejoin="round"/>
<path d="M13.5003 5.54993L12.8003 6.24993L12.1003 5.54993" stroke="#606580" stroke-miterlimit="10" stroke-linecap="round" stroke-linejoin="round"/>
<path d="M4.70044 6.15002C4.80044 7.60002 5.65044 8.95002 7.05044 9.60002C8.05044 10.05 9.15044 10.1 10.1504 9.75002" stroke="#606580" stroke-miterlimit="10" stroke-linecap="round" stroke-linejoin="round"/>
<path d="M4.05029 6.2L4.75029 5.5L5.45029 6.2" stroke="#606580" stroke-miterlimit="10" stroke-linecap="round" stroke-linejoin="round"/>
</svg>
