<svg width="16" height="16" viewBox="0 0 16 16" fill="none" xmlns="http://www.w3.org/2000/svg">
<path d="M7.89998 13H1.09998" stroke="#606580" stroke-miterlimit="10" stroke-linecap="round" stroke-linejoin="round"/>
<path d="M13.15 3.85002H7.10005L5.15005 1.90002H1.75005C1.40005 1.90002 1.05005 2.20002 1.05005 2.60002V13L3.00005 5.70002H14.3C14.7 5.70002 15 6.05002 14.9 6.45002L14.55 7.35002" stroke="#606580" stroke-miterlimit="10" stroke-linecap="round" stroke-linejoin="round"/>
<path d="M13.3 10.5L13.1 13.2C13.05 13.7 12.65 14.1 12.15 14.1H11C10.5 14.1 10.05 13.7 10.05 13.2L9.84998 10.5" stroke="#606580" stroke-miterlimit="10" stroke-linecap="round" stroke-linejoin="round"/>
<path d="M9.84998 9.20001H13.3" stroke="#606580" stroke-miterlimit="10" stroke-linecap="round" stroke-linejoin="round"/>
<path d="M10.85 9.2V8.9C10.85 8.65 11.05 8.5 11.25 8.5H11.95C12.2 8.5 12.35 8.7 12.35 8.9" stroke="#606580" stroke-miterlimit="10" stroke-linecap="round" stroke-linejoin="round"/>
</svg>
