<svg width="18" height="18" viewBox="0 0 18 18" fill="none" xmlns="http://www.w3.org/2000/svg">
<path fill-rule="evenodd" clip-rule="evenodd" d="M16.875 15.75V5.0625L11.3906 0H4.6875C3.34131 0 2.25 1.00736 2.25 2.25V15.75C2.25 16.9926 3.34131 18 4.6875 18H5.625V16.875H4.6875C4.0144 16.875 3.46875 16.3713 3.46875 15.75V2.25C3.46875 1.62868 4.0144 1.125 4.6875 1.125H11.3906V3.375C11.3906 4.30698 12.2091 5.0625 13.2188 5.0625H15.6562V15.75C15.6562 16.3713 15.1106 16.875 14.4375 16.875H13.5V18H14.4375C15.7837 18 16.875 16.9926 16.875 15.75Z" fill="#727689"/>
<path fill-rule="evenodd" clip-rule="evenodd" d="M9.91906 6.95594C9.64447 6.68135 9.19928 6.68135 8.92469 6.95594L4.70594 11.1747C4.43135 11.4493 4.43135 11.8945 4.70594 12.1691C4.98053 12.4436 5.42572 12.4436 5.70031 12.1691L8.71875 9.15062L8.71875 16.5938C8.71875 16.9821 9.03355 17.1563 9.42188 17.1563C9.8102 17.1563 10.125 16.9821 10.125 16.5938L10.125 9.15062L13.1434 12.1691C13.418 12.4436 13.8632 12.4436 14.1378 12.1691C14.4124 11.8945 14.4124 11.4493 14.1378 11.1747L9.91906 6.95594Z" fill="#727689"/>
</svg>
