<svg width="31" height="31" viewBox="0 0 31 31" fill="none" xmlns="http://www.w3.org/2000/svg">
<rect x="0.5" y="0.5" width="30" height="30" rx="5.5" fill="none"/>
<path d="M9.7002 18.7998V22.2498C9.7002 22.6498 10.0002 22.9998 10.4002 22.9998H21.5502C21.9502 22.9998 22.3002 22.6498 22.3002 22.2498V18.7998H20.2002L19.4502 20.3998H12.5502L11.8002 18.7998H9.7002Z" stroke="#606580" stroke-miterlimit="10" stroke-linecap="round" stroke-linejoin="round"/>
<path d="M9.67188 16V15.2969L13.0781 10.9219V10.8594H9.78125V10H14.2656V10.7344L10.9531 15.0781V15.1406H14.375V16H9.67188ZM15.7949 16V10H16.7168V16H15.7949ZM16.2637 9C16.084 9 15.929 8.9388 15.7988 8.81641C15.6712 8.69401 15.6074 8.54688 15.6074 8.375C15.6074 8.20313 15.6712 8.05599 15.7988 7.93359C15.929 7.8112 16.084 7.75 16.2637 7.75C16.4434 7.75 16.597 7.8112 16.7246 7.93359C16.8548 8.05599 16.9199 8.20313 16.9199 8.375C16.9199 8.54688 16.8548 8.69401 16.7246 8.81641C16.597 8.9388 16.4434 9 16.2637 9ZM18.4053 18.25V10H19.2959V10.9531H19.4053C19.473 10.849 19.5667 10.7161 19.6865 10.5547C19.8089 10.3906 19.9834 10.2448 20.21 10.1172C20.4391 9.98698 20.749 9.92188 21.1396 9.92188C21.6449 9.92188 22.0902 10.0482 22.4756 10.3008C22.861 10.5534 23.1618 10.9115 23.3779 11.375C23.5941 11.8385 23.7021 12.3854 23.7021 13.0156C23.7021 13.651 23.5941 14.2018 23.3779 14.668C23.1618 15.1315 22.8623 15.4909 22.4795 15.7461C22.0967 15.9987 21.6553 16.125 21.1553 16.125C20.7699 16.125 20.4613 16.0612 20.2295 15.9336C19.9977 15.8034 19.8193 15.6562 19.6943 15.4922C19.5693 15.3255 19.473 15.1875 19.4053 15.0781H19.3271V18.25H18.4053ZM19.3115 13C19.3115 13.4531 19.3779 13.8529 19.5107 14.1992C19.6436 14.543 19.8376 14.8125 20.0928 15.0078C20.348 15.2005 20.6605 15.2969 21.0303 15.2969C21.4157 15.2969 21.7373 15.1953 21.9951 14.9922C22.2555 14.7865 22.4508 14.5104 22.5811 14.1641C22.7139 13.8151 22.7803 13.4271 22.7803 13C22.7803 12.5781 22.7152 12.1979 22.585 11.8594C22.4574 11.5182 22.2633 11.2487 22.0029 11.0508C21.7451 10.8503 21.4209 10.75 21.0303 10.75C20.6553 10.75 20.3402 10.8451 20.085 11.0352C19.8298 11.2227 19.637 11.4857 19.5068 11.8242C19.3766 12.1602 19.3115 12.5521 19.3115 13Z" fill="#606580"/>
<rect x="0.5" y="0.5" width="30" height="30" rx="5.5" stroke="#606580"/>
</svg>
