<svg width="16" height="16" viewBox="0 0 16 16" fill="none" xmlns="http://www.w3.org/2000/svg">
<path d="M4.00005 14.7C4.65005 14.7 5.20005 14.15 5.20005 13.5C5.20005 12.85 4.65005 12.3 4.00005 12.3C3.35005 12.3 2.80005 12.85 2.80005 13.5C2.80005 14.2 3.30005 14.7 4.00005 14.7Z" stroke="#606580" stroke-miterlimit="10" stroke-linecap="round" stroke-linejoin="round"/>
<path d="M8.10002 14.75C8.75002 14.75 9.30002 14.2 9.30002 13.55C9.30002 12.9 8.75002 12.35 8.10002 12.35C7.45002 12.35 6.90002 12.9 6.90002 13.55C6.90002 14.2 7.40002 14.75 8.10002 14.75Z" stroke="#606580" stroke-miterlimit="10" stroke-linecap="round" stroke-linejoin="round"/>
<path d="M1.55005 10.2L5.45005 10.25V7.5H4.25005H1.05005V12.15" stroke="#606580" stroke-miterlimit="10" stroke-linecap="round" stroke-linejoin="round"/>
<path d="M9.95 8.04999H7.2V10.25H5.5" stroke="#606580" stroke-miterlimit="10" stroke-linecap="round" stroke-linejoin="round"/>
<path d="M7.20007 10.25H11.2501" stroke="#606580" stroke-miterlimit="10" stroke-linecap="round" stroke-linejoin="round"/>
<path d="M9.45007 8.04999H10.8001" stroke="#606580" stroke-miterlimit="10" stroke-linecap="round" stroke-linejoin="round"/>
<path d="M12 1.25L11.25 1.3V11.5V12H14.3V13.35" stroke="#606580" stroke-miterlimit="10" stroke-linecap="round" stroke-linejoin="round"/>
<path d="M12 1.25H14.95V3.4H12" stroke="#606580" stroke-miterlimit="10" stroke-linecap="round" stroke-linejoin="round"/>
<path d="M14.1001 3.64999V10.05" stroke="#606580" stroke-miterlimit="10" stroke-linecap="round" stroke-linejoin="round"/>
<path d="M13.8501 6.64999L14.4001 6.94999" stroke="#606580" stroke-miterlimit="10" stroke-linecap="round" stroke-linejoin="round"/>
<path d="M13.8501 7.85001L14.4001 8.15001" stroke="#606580" stroke-miterlimit="10" stroke-linecap="round" stroke-linejoin="round"/>
<path d="M13.8501 9.10001L14.4001 9.40001" stroke="#606580" stroke-miterlimit="10" stroke-linecap="round" stroke-linejoin="round"/>
</svg>
