<svg width="16" height="16" viewBox="0 0 16 16" fill="none" xmlns="http://www.w3.org/2000/svg">
<path d="M0.650146 9.09999C0.800146 8.89999 1.05015 8.69999 1.30015 8.59999C1.55015 8.49999 1.80015 8.39999 2.10015 8.39999C2.40015 8.39999 2.65015 8.44999 2.90015 8.59999C3.15015 8.69999 3.35015 8.89999 3.55015 9.09999" stroke="#606580" stroke-miterlimit="10" stroke-linecap="round" stroke-linejoin="round"/>
<path d="M3.55029 9.10001C3.70029 9.30001 3.95029 9.50001 4.20029 9.60001C4.45029 9.70001 4.70029 9.80001 5.00029 9.80001C5.30029 9.80001 5.55029 9.75001 5.80029 9.60001L7.00029 9.20001" stroke="#606580" stroke-miterlimit="10" stroke-linecap="round" stroke-linejoin="round"/>
<path d="M12.4501 9.09999C12.3001 8.89999 12.0501 8.69999 11.8001 8.59999C11.5501 8.49999 11.3001 8.39999 11.0001 8.39999" stroke="#606580" stroke-miterlimit="10" stroke-linecap="round" stroke-linejoin="round"/>
<path d="M15.3501 9.10001C15.2001 9.30001 14.9501 9.50001 14.7001 9.60001C14.4501 9.70001 14.2001 9.80001 13.9001 9.80001C13.6001 9.80001 13.3501 9.75001 13.1001 9.60001C12.8501 9.50001 12.6501 9.30001 12.4501 9.10001" stroke="#606580" stroke-miterlimit="10" stroke-linecap="round" stroke-linejoin="round"/>
<path d="M6.95007 9.20001L9.00007 11.25" stroke="#606580" stroke-miterlimit="10" stroke-linecap="round" stroke-linejoin="round"/>
<path d="M6.95007 6.70001L9.00007 8.75001" stroke="#606580" stroke-miterlimit="10" stroke-linecap="round" stroke-linejoin="round"/>
<path d="M6.95007 4.35001L9.00007 6.40001" stroke="#606580" stroke-miterlimit="10" stroke-linecap="round" stroke-linejoin="round"/>
<path d="M6.95007 11.7V12.9L7.95007 14L8.55007 13.35" stroke="#606580" stroke-miterlimit="10" stroke-linecap="round" stroke-linejoin="round"/>
<path d="M6.9502 2L9.0002 4.1" stroke="#606580" stroke-miterlimit="10" stroke-linecap="round" stroke-linejoin="round"/>
</svg>
