<svg width="16" height="16" viewBox="0 0 16 16" fill="none" xmlns="http://www.w3.org/2000/svg">
<path d="M4.45002 1.65C4.35002 1.45 4.15002 1.3 3.95002 1.15C3.75002 1.05 3.55002 1 3.30002 1C3.05002 1 2.85002 1.05 2.65002 1.2C2.45002 1.3 2.25002 1.5 2.15002 1.7V5.15H13.9V1.65C13.8 1.45 13.6 1.3 13.4 1.15C13.15 1.05 12.95 1 12.7 1C12.45 1 12.25 1.05 12.05 1.2C11.85 1.3 11.65 1.5 11.55 1.7" stroke="#606580" stroke-miterlimit="10" stroke-linecap="round" stroke-linejoin="round"/>
<path d="M11.5002 1.64999C11.4002 1.84999 11.2002 1.99999 11.0002 2.14999C10.8002 2.24999 10.5502 2.34999 10.3502 2.34999C10.1002 2.34999 9.9002 2.29999 9.7002 2.14999C9.5002 2.04999 9.3002 1.84999 9.2002 1.64999" stroke="#606580" stroke-miterlimit="10" stroke-linecap="round" stroke-linejoin="round"/>
<path d="M6.80017 1.65C6.90017 1.45 7.10017 1.3 7.30017 1.15C7.50017 1.05 7.75017 1 8.00017 1C8.25017 1 8.45017 1.05 8.70017 1.2C8.90017 1.3 9.10017 1.5 9.20017 1.7" stroke="#606580" stroke-miterlimit="10" stroke-linecap="round" stroke-linejoin="round"/>
<path d="M6.80012 1.64999C6.70012 1.84999 6.50012 1.99999 6.30012 2.14999C6.10012 2.24999 5.85012 2.34999 5.65012 2.34999C5.40012 2.34999 5.20012 2.29999 5.00012 2.14999C4.80012 2.04999 4.60012 1.84999 4.50012 1.64999" stroke="#606580" stroke-miterlimit="10" stroke-linecap="round" stroke-linejoin="round"/>
<path d="M2.2002 8.45001H5.2502L6.1502 9.40001L7.10019 8.45001H13.6502" stroke="#606580" stroke-miterlimit="10" stroke-linecap="round" stroke-linejoin="round"/>
<path d="M13.6502 11.75H8.7002L7.7002 12.75H5.6502L4.2002 11.25L3.4502 12H2.2002" stroke="#606580" stroke-miterlimit="10" stroke-linecap="round" stroke-linejoin="round"/>
<path d="M13.8501 5.04999H2.15015V15H13.8501V5.04999Z" stroke="#606580" stroke-miterlimit="10" stroke-linecap="round" stroke-linejoin="round"/>
</svg>
