<svg width="16" height="16" viewBox="0 0 16 16" fill="none" xmlns="http://www.w3.org/2000/svg">
<path d="M13.1501 9.45001H2.15007C1.90007 9.45001 1.70007 9.65001 1.70007 9.90001V11C1.70007 11.25 1.90007 11.45 2.15007 11.45H13.1501C13.4001 11.45 13.6001 11.25 13.6001 11V9.90001C13.6001 9.70001 13.4001 9.45001 13.1501 9.45001Z" stroke="#606580" stroke-miterlimit="10" stroke-linecap="round" stroke-linejoin="round"/>
<path d="M8.20002 2.25H7.10002C6.85002 2.25 6.65002 2.45 6.65002 2.7V2.75C6.65002 3 6.85002 3.2 7.10002 3.2H8.20002C8.45002 3.2 8.65002 3 8.65002 2.75V2.7C8.60002 2.45 8.40002 2.25 8.20002 2.25Z" stroke="#606580" stroke-miterlimit="10" stroke-linecap="round" stroke-linejoin="round"/>
<path d="M4.0001 6.64999C4.3001 6.64999 4.6001 6.74999 4.8501 6.99999C5.0501 7.19999 5.2001 7.49999 5.2001 7.84999V9.44999H2.8501V7.84999C2.8501 7.54999 2.9501 7.24999 3.2001 6.99999C3.4001 6.79999 3.7001 6.64999 4.0001 6.64999Z" stroke="#606580" stroke-miterlimit="10" stroke-linecap="round" stroke-linejoin="round"/>
<path d="M7.65002 0.850006V2.15001" stroke="#606580" stroke-miterlimit="10" stroke-linecap="round" stroke-linejoin="round"/>
<path d="M7.05007 3.20001L5.70007 9.10001" stroke="#606580" stroke-miterlimit="10" stroke-linecap="round" stroke-linejoin="round"/>
<path d="M8.20007 3.20001L9.55007 9.10001" stroke="#606580" stroke-miterlimit="10" stroke-linecap="round" stroke-linejoin="round"/>
<path d="M11.75 11.6V14" stroke="#606580" stroke-miterlimit="10" stroke-linecap="round" stroke-linejoin="round"/>
<path d="M3.45007 11.5V14" stroke="#606580" stroke-miterlimit="10" stroke-linecap="round" stroke-linejoin="round"/>
<path d="M11.55 14.5C11.7 14.3 11.9 14.15 12.15 14C12.4 13.9 12.65 13.85 12.9 13.85C13.15 13.85 13.4 13.9 13.65 14C13.9 14.1 14.1 14.3 14.25 14.5" stroke="#606580" stroke-miterlimit="10" stroke-linecap="round" stroke-linejoin="round"/>
<path d="M1.05005 14.5C1.20005 14.3 1.40005 14.15 1.65005 14C1.90005 13.9 2.15005 13.85 2.40005 13.85C2.65005 13.85 2.90005 13.9 3.15005 14C3.40005 14.1 3.60005 14.3 3.75005 14.5" stroke="#606580" stroke-miterlimit="10" stroke-linecap="round" stroke-linejoin="round"/>
<path d="M11.5501 14.5C11.4001 14.7 11.2001 14.85 10.9501 15C10.7001 15.1 10.4501 15.15 10.2001 15.15C9.9501 15.15 9.7001 15.1 9.4501 15C9.2001 14.9 9.0001 14.7 8.8501 14.5" stroke="#606580" stroke-miterlimit="10" stroke-linecap="round" stroke-linejoin="round"/>
<path d="M6.30005 14.5C6.45005 14.3 6.65005 14.15 6.90005 14C7.15005 13.9 7.40005 13.85 7.65005 13.85C7.90005 13.85 8.15005 13.9 8.40005 14C8.65005 14.1 8.85005 14.3 9.00005 14.5" stroke="#606580" stroke-miterlimit="10" stroke-linecap="round" stroke-linejoin="round"/>
<path d="M6.3001 14.5C6.1501 14.7 5.9501 14.85 5.7001 15C5.4501 15.1 5.2001 15.15 4.9501 15.2C4.7001 15.2 4.4501 15.15 4.2001 15C3.9501 14.9 3.7501 14.7 3.6001 14.55" stroke="#606580" stroke-miterlimit="10" stroke-linecap="round" stroke-linejoin="round"/>
<path d="M11.9501 9.45001L13.6501 5.95001H14.9501" stroke="#606580" stroke-miterlimit="10" stroke-linecap="round" stroke-linejoin="round"/>
</svg>
