<svg width="16" height="16" viewBox="0 0 16 16" fill="none" xmlns="http://www.w3.org/2000/svg">
<path d="M8.30005 8.35001H2.45005C2.25005 8.35001 2.05005 8.55001 2.05005 8.75001V9.70001C2.05005 9.90001 2.25005 10.1 2.45005 10.1H10.05" stroke="#606580" stroke-miterlimit="10" stroke-linecap="round" stroke-linejoin="round"/>
<path d="M7.6001 2.20001H6.7001C6.5001 2.20001 6.3501 2.35001 6.3501 2.55001V2.60001C6.3501 2.80001 6.5001 2.95001 6.7001 2.95001H7.6001C7.8001 2.95001 7.9501 2.80001 7.9501 2.60001V2.55001C8.0001 2.35001 7.8001 2.20001 7.6001 2.20001Z" stroke="#606580" stroke-miterlimit="10" stroke-linecap="round" stroke-linejoin="round"/>
<path d="M4.05005 5.95001C4.30005 5.95001 4.55005 6.05001 4.75005 6.25001C4.95005 6.45001 5.05005 6.70001 5.05005 6.95001V8.35001H3.05005V6.95001C3.05005 6.70001 3.15005 6.45001 3.35005 6.25001C3.55005 6.05001 3.80005 5.95001 4.05005 5.95001Z" stroke="#606580" stroke-miterlimit="10" stroke-linecap="round" stroke-linejoin="round"/>
<path d="M7.15002 10.15V15" stroke="#606580" stroke-miterlimit="10" stroke-linecap="round" stroke-linejoin="round"/>
<path d="M7.15002 1V2.15" stroke="#606580" stroke-miterlimit="10" stroke-linecap="round" stroke-linejoin="round"/>
<path d="M6.65 3L5.5 8" stroke="#606580" stroke-miterlimit="10" stroke-linecap="round" stroke-linejoin="round"/>
<path d="M7.65002 3L8.20002 5.5" stroke="#606580" stroke-miterlimit="10" stroke-linecap="round" stroke-linejoin="round"/>
<path d="M10.7001 10.15V12.25" stroke="#606580" stroke-miterlimit="10" stroke-linecap="round" stroke-linejoin="round"/>
<path d="M3.55005 10.1V12.2" stroke="#606580" stroke-miterlimit="10" stroke-linecap="round" stroke-linejoin="round"/>
<path d="M10.5 12.65C10.65 12.5 10.8 12.35 11 12.25C11.2 12.15 11.4 12.1 11.65 12.1C11.85 12.1 12.1 12.15 12.3 12.25C12.5 12.35 12.65 12.5 12.8 12.65" stroke="#606580" stroke-miterlimit="10" stroke-linecap="round" stroke-linejoin="round"/>
<path d="M1.55005 12.65C1.70005 12.5 1.85005 12.35 2.05005 12.25C2.25005 12.15 2.45005 12.1 2.70005 12.1C2.90005 12.1 3.15005 12.15 3.35005 12.25C3.55005 12.35 3.70005 12.5 3.85005 12.65" stroke="#606580" stroke-miterlimit="10" stroke-linecap="round" stroke-linejoin="round"/>
<path d="M10.5001 12.65C10.3501 12.8 10.2001 12.95 10.0001 13.05C9.80007 13.15 9.60007 13.2 9.35007 13.2C9.15007 13.2 8.90007 13.15 8.70007 13.05C8.50007 12.95 8.35007 12.8 8.20007 12.65" stroke="#606580" stroke-miterlimit="10" stroke-linecap="round" stroke-linejoin="round"/>
<path d="M6 12.65C6.15 12.5 6.3 12.35 6.5 12.25C6.7 12.15 6.9 12.1 7.15 12.1C7.35 12.1 7.6 12.15 7.8 12.25C8 12.35 8.15 12.5 8.3 12.65" stroke="#606580" stroke-miterlimit="10" stroke-linecap="round" stroke-linejoin="round"/>
<path d="M6 12.65C5.85 12.8 5.7 12.95 5.5 13.05C5.3 13.15 5.1 13.2 4.85 13.2C4.65 13.2 4.4 13.15 4.25 13.05C4.05 12.95 3.9 12.8 3.75 12.65" stroke="#606580" stroke-miterlimit="10" stroke-linecap="round" stroke-linejoin="round"/>
<path d="M11.2001 10.2C12.995 10.2 14.4501 8.74494 14.4501 6.95001C14.4501 5.15509 12.995 3.70001 11.2001 3.70001C9.40515 3.70001 7.95007 5.15509 7.95007 6.95001C7.95007 8.74494 9.40515 10.2 11.2001 10.2Z" stroke="#606580" stroke-miterlimit="10" stroke-linecap="round" stroke-linejoin="round"/>
<path d="M10.5502 7.14998V5.84998H11.8502V7.14998" stroke="#606580" stroke-miterlimit="10" stroke-linecap="round" stroke-linejoin="round"/>
<path d="M12.3001 8.04996V7.14996H10.1501V8.04996" stroke="#606580" stroke-miterlimit="10" stroke-linecap="round" stroke-linejoin="round"/>
</svg>
