<svg width="16" height="16" viewBox="0 0 16 16" fill="none" xmlns="http://www.w3.org/2000/svg">
<path d="M13.1 8.20001H2.89995C2.64995 8.20001 2.44995 8.40001 2.44995 8.65001V11.45C2.44995 11.7 2.64995 11.9 2.89995 11.9H13.15C13.4 11.9 13.6 11.7 13.6 11.45V8.65001C13.55 8.40001 13.35 8.20001 13.1 8.20001Z" stroke="#606580" stroke-miterlimit="10" stroke-linecap="round" stroke-linejoin="round"/>
<path d="M8.49998 2.04999H7.49998C7.29998 2.04999 7.09998 2.24999 7.09998 2.44999V2.49999C7.09998 2.69999 7.29998 2.89999 7.49998 2.89999H8.49998C8.69998 2.89999 8.89998 2.69999 8.89998 2.49999V2.44999C8.89998 2.24999 8.74998 2.04999 8.49998 2.04999Z" stroke="#606580" stroke-miterlimit="10" stroke-linecap="round" stroke-linejoin="round"/>
<path d="M8 0.75V2" stroke="#606580" stroke-miterlimit="10" stroke-linecap="round" stroke-linejoin="round"/>
<path d="M7.5 2.95001L6.25 7.85001" stroke="#606580" stroke-miterlimit="10" stroke-linecap="round" stroke-linejoin="round"/>
<path d="M8.55005 2.95001L9.80005 7.85001" stroke="#606580" stroke-miterlimit="10" stroke-linecap="round" stroke-linejoin="round"/>
<path d="M12.45 11.95V13.65" stroke="#606580" stroke-miterlimit="10" stroke-linecap="round" stroke-linejoin="round"/>
<path d="M3.5 11.85V13.55" stroke="#606580" stroke-miterlimit="10" stroke-linecap="round" stroke-linejoin="round"/>
<path d="M11.65 14.6C11.8 14.4 12 14.25 12.2 14.15C12.4 14.05 12.65 14 12.9 14C13.15 14 13.35 14.05 13.6 14.15C13.8 14.25 14 14.4 14.15 14.6" stroke="#606580" stroke-miterlimit="10" stroke-linecap="round" stroke-linejoin="round"/>
<path d="M1.90002 14.6C2.05002 14.4 2.25002 14.25 2.45002 14.15C2.65002 14.05 2.90002 14 3.10002 14C3.35002 14 3.55002 14.05 3.80002 14.15C4.00002 14.25 4.20002 14.4 4.35002 14.6" stroke="#606580" stroke-miterlimit="10" stroke-linecap="round" stroke-linejoin="round"/>
<path d="M11.65 14.6C11.5 14.8 11.3 14.95 11.1 15.05C10.9 15.15 10.65 15.2 10.4 15.2C10.15 15.2 9.95002 15.15 9.70002 15.05C9.50002 14.95 9.30002 14.8 9.15002 14.6" stroke="#606580" stroke-miterlimit="10" stroke-linecap="round" stroke-linejoin="round"/>
<path d="M6.80005 14.6C6.95005 14.4 7.15005 14.25 7.35005 14.15C7.55005 14.05 7.80005 14 8.05005 14C8.30005 14 8.50005 14.05 8.75005 14.15C8.95005 14.25 9.15005 14.4 9.30005 14.6" stroke="#606580" stroke-miterlimit="10" stroke-linecap="round" stroke-linejoin="round"/>
<path d="M6.80005 14.6C6.65005 14.8 6.45005 14.95 6.25005 15.05C6.05005 15.15 5.80005 15.2 5.55005 15.2C5.30005 15.2 5.10005 15.15 4.85005 15.05C4.65005 14.95 4.45005 14.8 4.30005 14.6" stroke="#606580" stroke-miterlimit="10" stroke-linecap="round" stroke-linejoin="round"/>
<path d="M11.9 8.19998L13.5 4.34998H15.25" stroke="#606580" stroke-miterlimit="10" stroke-linecap="round" stroke-linejoin="round"/>
<path d="M4.1 8.14999L2.5 4.29999H0.75" stroke="#606580" stroke-miterlimit="10" stroke-linecap="round" stroke-linejoin="round"/>
<path d="M3 10.05H13" stroke="#606580" stroke-miterlimit="10" stroke-linecap="round" stroke-linejoin="round"/>
</svg>
