<svg width="16" height="16" viewBox="0 0 16 16" fill="none" xmlns="http://www.w3.org/2000/svg">
<path d="M3.25 10.65C1.8 10.3 0.75 8.99999 0.75 7.44999C0.75 5.79999 2 4.39999 3.6 4.19999C4.15 2.64999 5.6 1.54999 7.35 1.54999C9.1 1.54999 10.6 2.69999 11.1 4.29999C11.35 4.24999 11.65 4.19999 11.95 4.19999C13.75 4.19999 15.25 5.69999 15.25 7.49999C15.25 8.94999 14.3 10.2 13 10.6" stroke="#606580" stroke-miterlimit="10" stroke-linecap="round" stroke-linejoin="round"/>
<path d="M9.58847 7.15826C9.66646 6.92451 9.56252 6.66879 9.34357 6.55573C9.12462 6.44267 8.85594 6.506 8.71052 6.70493L5.78926 10.7012C5.67815 10.8532 5.66185 11.0547 5.74708 11.2226C5.83231 11.3905 6.00463 11.4963 6.19291 11.4963H6.61952L5.54713 13.7881C5.44185 14.0131 5.51771 14.2813 5.72526 14.4178C5.93281 14.5543 6.2091 14.5177 6.37398 14.3319L9.87398 10.3878C10.0046 10.2406 10.0367 10.0305 9.95604 9.85095C9.87533 9.67144 9.69682 9.55597 9.5 9.55597H8.78842L9.58847 7.15826Z" stroke="#606580" stroke-miterlimit="10" stroke-linecap="round" stroke-linejoin="round"/>
</svg>
