<svg width="16" height="16" viewBox="0 0 16 16" fill="none" xmlns="http://www.w3.org/2000/svg">
<path d="M7.5 5.64999C10.9518 5.64999 13.75 4.53071 13.75 3.14999C13.75 1.76928 10.9518 0.649994 7.5 0.649994C4.04822 0.649994 1.25 1.76928 1.25 3.14999C1.25 4.53071 4.04822 5.64999 7.5 5.64999Z" stroke="#606580" stroke-miterlimit="10" stroke-linecap="round" stroke-linejoin="round"/>
<path d="M3.8501 3.25C4.6501 2.8 6.0001 2.5 7.5001 2.5C8.9501 2.5 10.2501 2.8 11.0501 3.25" stroke="#606580" stroke-miterlimit="10" stroke-linecap="round" stroke-linejoin="round"/>
<path d="M12.7001 4.79999C13.5001 5.14999 14.0001 5.64999 14.0001 6.14999C14.0001 7.24999 11.7501 8.14999 9.0001 8.14999C7.1001 8.14999 5.4501 7.69999 4.6001 7.09999" stroke="#606580" stroke-miterlimit="10" stroke-linecap="round" stroke-linejoin="round"/>
<path d="M13.1001 7.5C14.1001 7.8 14.7501 8.3 14.7501 8.85C14.7501 9.8 12.8501 10.55 10.5001 10.55C8.5001 10.55 6.8001 10 6.3501 9.25" stroke="#606580" stroke-miterlimit="10" stroke-linecap="round" stroke-linejoin="round"/>
<path d="M13.1 10.3C13.5 10.55 13.75 10.85 13.75 11.15C13.75 12 12.05 12.65 10 12.65C7.95 12.65 6.25 12 6.25 11.15" stroke="#606580" stroke-miterlimit="10" stroke-linecap="round" stroke-linejoin="round"/>
<path d="M10.5 13C10.5 13.45 9.54995 13.85 8.34995 13.85C7.14995 13.85 6.19995 13.45 6.19995 13" stroke="#606580" stroke-miterlimit="10" stroke-linecap="round" stroke-linejoin="round"/>
<path d="M8.8001 14.2C9.3501 14.3 9.7501 14.5 9.7501 14.75C9.7501 15.1 9.1001 15.35 8.2501 15.35C7.8001 15.35 7.3501 15.25 7.1001 15.1" stroke="#606580" stroke-miterlimit="10" stroke-linecap="round" stroke-linejoin="round"/>
</svg>
