<svg width="16" height="16" viewBox="0 0 16 16" fill="none" xmlns="http://www.w3.org/2000/svg">
<path d="M11.0501 11.85H15.1501L13.5001 7.74999L11.4501 6.94999L8.60015 1.14999L6.50015 5.29999L3.65015 6.49999" stroke="#606580" stroke-miterlimit="10" stroke-linecap="round" stroke-linejoin="round"/>
<path d="M8.59985 1.14999L9.79985 7.34999V7.39999L11.0499 8.14999H13.4999L11.4499 6.94999L8.59985 1.59999" fill="#606580"/>
<path fill-rule="evenodd" clip-rule="evenodd" d="M7.6001 14.85H1.9001C1.3001 14.85 0.850098 14.4 0.850098 13.8V9.55C0.850098 8.95 1.3001 8.5 1.9001 8.5H7.6501C8.2501 8.5 8.7001 8.95 8.7001 9.55V13.8C8.6501 14.35 8.2001 14.85 7.6001 14.85Z" stroke="#606580" stroke-miterlimit="10" stroke-linecap="round" stroke-linejoin="round"/>
<path d="M3.4501 9.75H2.1001V10.8" stroke="#606580" stroke-miterlimit="10" stroke-linecap="round" stroke-linejoin="round"/>
<path d="M6.05005 13.55H7.40005V12.5" stroke="#606580" stroke-miterlimit="10" stroke-linecap="round" stroke-linejoin="round"/>
</svg>
