<svg width="16" height="16" viewBox="0 0 16 16" fill="none" xmlns="http://www.w3.org/2000/svg">
<path d="M9.5999 6.39999C9.5999 6.99999 9.5999 7.29999 9.5999 7.89999L7.1499 10.35L7.0499 8.94999L5.6499 8.84999L8.0999 6.39999C8.6999 6.39999 8.9999 6.39999 9.5999 6.39999Z" stroke="#606580" stroke-miterlimit="10" stroke-linecap="round" stroke-linejoin="round"/>
<path d="M8.8999 8.89999L13.0499 13.05" stroke="#606580" stroke-miterlimit="10" stroke-linecap="round" stroke-linejoin="round"/>
<path d="M13.15 13.15C14.45 11.85 15.25 10.05 15.25 8C15.25 4 12 0.75 8 0.75C4 0.75 0.75 4 0.75 8C0.75 12 4 15.25 8 15.25" stroke="#606580" stroke-miterlimit="10" stroke-linecap="round" stroke-linejoin="round"/>
<path d="M11.2499 11.25C12.0999 10.4 12.5999 9.24999 12.5999 7.99999C12.5999 5.44999 10.5499 3.39999 7.9999 3.39999C5.4499 3.39999 3.3999 5.44999 3.3999 7.99999C3.3999 10.55 5.4499 12.6 7.9999 12.6" stroke="#606580" stroke-miterlimit="10" stroke-linecap="round" stroke-linejoin="round"/>
</svg>
