<svg width="16" height="16" viewBox="0 0 16 16" fill="none" xmlns="http://www.w3.org/2000/svg">
<path fill-rule="evenodd" clip-rule="evenodd" d="M6.34998 10.5V2.5C6.34998 1.65 5.69998 1 4.84998 1C3.99998 1 3.34998 1.65 3.34998 2.5V10.5C2.59998 11.05 2.19998 12.05 2.39998 13.05C2.59998 13.95 3.34998 14.7 4.24998 14.9C5.89998 15.25 7.34998 14.05 7.34998 12.45C7.34998 11.7 6.99998 10.95 6.34998 10.5Z" stroke="#606580" stroke-miterlimit="10" stroke-linecap="round" stroke-linejoin="round"/>
<path d="M4.84995 13.15C5.20894 13.15 5.49995 12.859 5.49995 12.5C5.49995 12.141 5.20894 11.85 4.84995 11.85C4.49097 11.85 4.19995 12.141 4.19995 12.5C4.19995 12.859 4.49097 13.15 4.84995 13.15Z" stroke="#606580" stroke-miterlimit="10" stroke-linecap="round" stroke-linejoin="round"/>
<path d="M11.3999 4.34998H13.5999" stroke="#606580" stroke-miterlimit="10" stroke-linecap="round"/>
<path d="M11.3999 11H13.5999" stroke="#606580" stroke-miterlimit="10" stroke-linecap="round"/>
<path d="M11.3999 7.64999H11.7999" stroke="#606580" stroke-miterlimit="10" stroke-linecap="round"/>
<path d="M11.3999 1.39999H11.7999" stroke="#606580" stroke-miterlimit="10" stroke-linecap="round"/>
<path d="M11.3999 13.9H11.7999" stroke="#606580" stroke-miterlimit="10" stroke-linecap="round"/>
</svg>
