<svg width="16" height="17" viewBox="0 0 16 17" fill="none" xmlns="http://www.w3.org/2000/svg">
<path d="M4.69995 10C5.09995 10.6 5.74995 11 6.49995 11C7.24995 11 7.89995 10.6 8.29995 10C8.69995 10.6 9.34995 11 10.1 11C10.85 11 11.5 10.6 11.9 10C12.3 10.6 12.95 11 13.7 11C14.45 11 15.1 10.6 15.5 10" stroke="#606580" stroke-miterlimit="10" stroke-linecap="round" stroke-linejoin="round"/>
<path d="M4.69995 12.5C5.09995 13.1 5.74995 13.5 6.49995 13.5C7.24995 13.5 7.89995 13.1 8.29995 12.5C8.69995 13.1 9.34995 13.5 10.1 13.5C10.85 13.5 11.5 13.1 11.9 12.5C12.3 13.1 12.95 13.5 13.7 13.5C14.45 13.5 15.1 13.1 15.5 12.5" stroke="#606580" stroke-miterlimit="10" stroke-linecap="round" stroke-linejoin="round"/>
<path d="M13.75 7L15.5 5.25L13.75 3.5" stroke="#606580" stroke-miterlimit="10" stroke-linecap="round" stroke-linejoin="round"/>
<path d="M6.5 4V6.5" stroke="#606580" stroke-miterlimit="10" stroke-linecap="round" stroke-linejoin="round"/>
<path d="M6.5 5.25H15" stroke="#606580" stroke-miterlimit="10" stroke-linecap="round" stroke-linejoin="round"/>
<path d="M0.5 4H4.5V14.5" stroke="#606580" stroke-miterlimit="10" stroke-linecap="round" stroke-linejoin="round"/>
</svg>
