<svg width="16" height="17" viewBox="0 0 16 17" fill="none" xmlns="http://www.w3.org/2000/svg">
<path d="M0.5 4.29999C1.05 5.09999 1.95 5.64999 3 5.64999C4.05 5.64999 4.95 5.09999 5.5 4.29999C6.05 5.09999 6.95 5.64999 8 5.64999C9.05 5.64999 9.95 5.09999 10.5 4.29999C11.05 5.09999 11.95 5.64999 13 5.64999C14.05 5.64999 14.95 5.09999 15.5 4.29999" stroke="#606580" stroke-miterlimit="10" stroke-linecap="round" stroke-linejoin="round"/>
<path d="M0.5 7.79999C1.05 8.59999 1.95 9.14999 3 9.14999C4.05 9.14999 4.95 8.59999 5.5 7.79999C6.05 8.59999 6.95 9.14999 8 9.14999C9.05 9.14999 9.95 8.59999 10.5 7.79999C11.05 8.59999 11.95 9.14999 13 9.14999C14.05 9.14999 14.95 8.59999 15.5 7.79999" stroke="#606580" stroke-miterlimit="10" stroke-linecap="round" stroke-linejoin="round"/>
<path d="M0.5 11.3C1.05 12.1 1.95 12.65 3 12.65C4.05 12.65 4.95 12.1 5.5 11.3C6.05 12.1 6.95 12.65 8 12.65C9.05 12.65 9.95 12.1 10.5 11.3C11.05 12.1 11.95 12.65 13 12.65C14.05 12.65 14.95 12.1 15.5 11.3" stroke="#606580" stroke-miterlimit="10" stroke-linecap="round" stroke-linejoin="round"/>
</svg>
