<svg width="16" height="17" viewBox="0 0 16 17" fill="none" xmlns="http://www.w3.org/2000/svg">
<path d="M7.85005 1.14999C7.65005 2.39999 6.90005 3.49999 5.85005 4.19999C5.10005 4.69999 4.15005 4.99999 3.45005 5.59999C2.35005 6.49999 1.95005 8.09999 0.800049 8.89999" stroke="#606580" stroke-miterlimit="10" stroke-linecap="round" stroke-linejoin="round"/>
<path d="M14.7501 1.29999C14.7001 2.79999 13.6001 4.24999 12.1501 4.69999C11.6501 4.84999 11.1001 4.89999 10.5501 4.99999C7.8001 5.44999 5.1501 7.09999 4.1501 9.69999C3.5501 11.2 3.5001 12.9 2.6001 14.2C2.1501 14.85 1.5501 15.35 0.850098 15.6" stroke="#606580" stroke-miterlimit="10" stroke-linecap="round" stroke-linejoin="round"/>
<path d="M15.2501 6.29999C15.0001 6.79999 14.5001 7.14999 14.0001 7.34999C13.5001 7.54999 12.9001 7.64999 12.4001 7.79999C11.5001 7.99999 10.6001 8.29999 9.7501 8.69999C9.2501 8.89999 8.7501 9.14999 8.4001 9.54999C8.1001 9.89999 7.8501 10.3 7.6501 10.7C7.3001 11.5 7.1001 12.35 7.1001 13.25C7.1001 14.1 7.3501 15 7.8001 15.7" stroke="#606580" stroke-miterlimit="10" stroke-linecap="round" stroke-linejoin="round"/>
<path d="M12.2001 15.8C11.9501 15.65 11.8501 15.4 11.8001 15.1C11.6501 14.6 11.5001 14.1 11.5501 13.55C11.5501 13.05 11.7001 12.5 12.0501 12.1C12.4001 11.7 12.9001 11.5 13.4001 11.4C13.9001 11.3 14.4001 11.35 14.9501 11.35" stroke="#606580" stroke-miterlimit="10" stroke-linecap="round" stroke-linejoin="round"/>
<path d="M2.59995 1.25C2.64995 1.5 2.64995 1.75 2.59995 2C2.54995 2.2 2.39995 2.4 2.24995 2.6C1.84995 3.05 1.29995 3.4 0.699951 3.4" stroke="#606580" stroke-miterlimit="10" stroke-linecap="round" stroke-linejoin="round"/>
</svg>
