<svg width="16" height="17" viewBox="0 0 16 17" fill="none" xmlns="http://www.w3.org/2000/svg">
<path d="M5.5 4.29999C6.05 5.09999 6.95 5.64999 8 5.64999C9.05 5.64999 9.95 5.09999 10.5 4.29999C11.05 5.09999 11.95 5.64999 13 5.64999C14.05 5.64999 14.95 5.09999 15.5 4.29999" stroke="#606580" stroke-miterlimit="10" stroke-linecap="round" stroke-linejoin="round"/>
<path d="M8 9.19998C9.05 9.19998 9.95 8.64998 10.5 7.84998C11.05 8.64998 11.95 9.19998 13 9.19998C14.05 9.19998 14.95 8.64998 15.5 7.84998" stroke="#606580" stroke-miterlimit="10" stroke-linecap="round" stroke-linejoin="round"/>
<path d="M9.44995 12.3C9.89995 12.05 10.25 11.7 10.5 11.3C11.05 12.1 11.95 12.65 13 12.65C14.05 12.65 14.95 12.1 15.5 11.3" stroke="#606580" stroke-miterlimit="10" stroke-linecap="round" stroke-linejoin="round"/>
<path d="M0.5 1L9.5 15.5" stroke="#606580" stroke-miterlimit="10" stroke-linecap="round" stroke-linejoin="round" stroke-dasharray="2.5 2.5"/>
</svg>
