<svg width="16" height="16" viewBox="0 0 16 16" fill="none" xmlns="http://www.w3.org/2000/svg">
<path d="M11.6612 9.18236C12.6279 8.78292 13.3081 7.83082 13.3081 6.71985C13.3081 5.24893 12.1157 4.05652 10.6448 4.05652C9.17386 4.05652 7.98145 5.24893 7.98145 6.71985V6.92505" stroke="#606580" stroke-miterlimit="10" stroke-linecap="round" stroke-linejoin="round"/>
<path d="M10.6448 3.01139V2" stroke="#606580" stroke-miterlimit="10" stroke-linecap="round" stroke-linejoin="round"/>
<path d="M15.3647 6.71985H14.3533" stroke="#606580" stroke-miterlimit="10" stroke-linecap="round" stroke-linejoin="round"/>
<path d="M13.2747 4.09018L13.9826 3.3822" stroke="#606580" stroke-miterlimit="10" stroke-linecap="round" stroke-linejoin="round"/>
<path d="M8.0151 4.09024L7.30713 3.38226" stroke="#606580" stroke-miterlimit="10" stroke-linecap="round" stroke-linejoin="round"/>
<path d="M13.9826 10.0574L13.2747 9.34944" stroke="#606580" stroke-miterlimit="10" stroke-linecap="round" stroke-linejoin="round"/>
<path fill-rule="evenodd" clip-rule="evenodd" d="M9.49655 13.5C10.8621 13.5 12 12.3967 12 11.0272C12 9.65761 10.8621 8.5163 9.49655 8.5163C9.26897 8.5163 9.04138 8.55435 8.85172 8.59239C8.47241 7.375 7.33448 6.5 6.0069 6.5C4.67931 6.5 3.57931 7.33696 3.16207 8.5163C1.94828 8.66848 1 9.7337 1 10.9891C1 12.3587 2.13793 13.5 3.50345 13.5H9.49655Z" stroke="#606580" stroke-miterlimit="10" stroke-linecap="round" stroke-linejoin="round"/>
</svg>
