<svg width="16" height="17" viewBox="0 0 16 17" fill="none" xmlns="http://www.w3.org/2000/svg">
<path d="M12.55 9.60005V8.30005H9.70005V9.60005L8.30005 13.85V15.15H14V13.85L12.55 9.60005Z" stroke="#606580" stroke-miterlimit="10" stroke-linecap="round" stroke-linejoin="round"/>
<path d="M7.99995 9.84998H5.79995V10.85L4.69995 14.15V15.15H9.09995" stroke="#606580" stroke-miterlimit="10" stroke-linecap="round" stroke-linejoin="round"/>
<path d="M3.9001 11.5H2.8501V12.2L2.1001 14.45V15.15H5.1001" stroke="#606580" stroke-miterlimit="10" stroke-linecap="round" stroke-linejoin="round"/>
<path d="M10.65 10.2C10.65 10.2 10.9 10.2 10.5 10.2C10.1 10.2 9.80005 10.2 9.80005 10.2C9.80005 10.2 10.1 10.2 10.5 10.2C10.9 10.2 10.65 10.2 10.65 10.2Z" stroke="#606580" stroke-miterlimit="10" stroke-linecap="round" stroke-linejoin="round"/>
<path d="M10.65 13.25C10.65 13.25 10.9 13.25 10.5 13.25C10.1 13.25 8.44995 13.25 8.44995 13.25C8.44995 13.25 10.1 13.25 10.5 13.25C10.9 13.25 10.65 13.25 10.65 13.25Z" stroke="#606580" stroke-miterlimit="10" stroke-linecap="round" stroke-linejoin="round"/>
<path d="M11.15 3.15002C12.05 3.15002 12.8 3.90002 12.8 4.80002C12.8 5.70002 12.05 6.45002 11.15 6.45002C10.25 6.45002 9.5 5.65002 9.5 4.80002" stroke="#606580" stroke-miterlimit="10" stroke-linecap="round" stroke-linejoin="round"/>
<path d="M8.15015 2.54998C8.45015 2.09998 8.95015 1.84998 9.50015 1.84998C10.2501 1.84998 10.8501 2.34998 11.0501 2.99998" stroke="#606580" stroke-miterlimit="10" stroke-linecap="round" stroke-linejoin="round"/>
<path d="M9.5 5.10002C8.85 5.10002 8.3 4.70002 8 4.15002" stroke="#606580" stroke-miterlimit="10" stroke-linecap="round" stroke-linejoin="round"/>
<path d="M4.80005 2.59998C5.20005 2.14998 5.75005 1.84998 6.40005 1.84998C7.05005 1.84998 7.65005 2.14998 8.00005 2.59998" stroke="#606580" stroke-miterlimit="10" stroke-linecap="round" stroke-linejoin="round"/>
<path d="M8.3501 4.75002C8.0501 5.50002 7.3001 6.05002 6.4001 6.05002C5.4001 6.05002 4.5501 5.35002 4.3501 4.40002" stroke="#606580" stroke-miterlimit="10" stroke-linecap="round" stroke-linejoin="round"/>
<path d="M4.30006 4.8C3.60006 5.2 2.70006 5 2.30006 4.3C1.90006 3.6 2.10006 2.7 2.80006 2.3C3.30006 2 3.90006 2.05 4.35006 2.3L4.70006 2.55" stroke="#606580" stroke-miterlimit="10" stroke-linecap="round" stroke-linejoin="round"/>
<path d="M1 15.15H15" stroke="#606580" stroke-miterlimit="10" stroke-linecap="round" stroke-linejoin="round"/>
</svg>
