<svg width="16" height="17" viewBox="0 0 16 17" fill="none" xmlns="http://www.w3.org/2000/svg">
<path d="M12.55 6.39998V5.09998H9.70005V6.39998L8.30005 10.6V11.9H14V10.6L12.55 6.39998Z" stroke="#606580" stroke-miterlimit="10" stroke-linecap="round" stroke-linejoin="round"/>
<path d="M7.99995 6.65002H5.79995V7.65002L4.69995 10.9V11.9H9.09995" stroke="#606580" stroke-miterlimit="10" stroke-linecap="round" stroke-linejoin="round"/>
<path d="M3.89998 8.25H2.84998V8.95L2.09998 11.25V11.9H5.09998" stroke="#606580" stroke-miterlimit="10" stroke-linecap="round" stroke-linejoin="round"/>
<path d="M10.65 7C10.65 7 10.9 7 10.5 7C10.1 7 9.80005 7 9.80005 7C9.80005 7 10.1 7 10.5 7C10.9 7 10.65 7 10.65 7Z" stroke="#606580" stroke-miterlimit="10" stroke-linecap="round" stroke-linejoin="round"/>
<path d="M10.65 10C10.65 10 10.9 10 10.5 10C10.1 10 8.44995 10 8.44995 10C8.44995 10 10.1 10 10.5 10C10.9 10 10.65 10 10.65 10Z" stroke="#606580" stroke-miterlimit="10" stroke-linecap="round" stroke-linejoin="round"/>
<path d="M1 11.9H15" stroke="#606580" stroke-miterlimit="10" stroke-linecap="round" stroke-linejoin="round"/>
</svg>
