<svg width="16" height="17" viewBox="0 0 16 17" fill="none" xmlns="http://www.w3.org/2000/svg">
<path d="M12.05 6.54999L11.7 5.49999V4.29999H9.05V5.49999L7.75 9.44999V10.65" stroke="#606580" stroke-miterlimit="10" stroke-linecap="round" stroke-linejoin="round"/>
<path d="M7.45002 5.75H5.45002V6.7L4.40002 9.7V10.65H7.75002" stroke="#606580" stroke-miterlimit="10" stroke-linecap="round" stroke-linejoin="round"/>
<path d="M3.7 7.25H2.7V7.9L2 10V10.65H4.8" stroke="#606580" stroke-miterlimit="10" stroke-linecap="round" stroke-linejoin="round"/>
<path d="M9.95002 6.04999C9.95002 6.04999 10.15 6.04999 9.80002 6.04999C9.45002 6.04999 9.15002 6.04999 9.15002 6.04999C9.15002 6.04999 9.45002 6.04999 9.80002 6.04999C10.15 6.04999 9.95002 6.04999 9.95002 6.04999Z" stroke="#606580" stroke-miterlimit="10" stroke-linecap="round" stroke-linejoin="round"/>
<path d="M1 10.65H7.75" stroke="#606580" stroke-miterlimit="10" stroke-linecap="round" stroke-linejoin="round"/>
<path d="M12.4 12.7L10.35 10.6L12.4 8.54999" stroke="#606580" stroke-miterlimit="10" stroke-linecap="round" stroke-linejoin="round"/>
<path d="M15 10.6H10.35" stroke="#606580" stroke-miterlimit="10" stroke-linecap="round" stroke-linejoin="round"/>
</svg>
