<svg width="16" height="16" viewBox="0 0 16 16" fill="none" xmlns="http://www.w3.org/2000/svg">
<path d="M1 14.4H15" stroke="#606580" stroke-miterlimit="10" stroke-linecap="round" stroke-linejoin="round"/>
<path d="M13.25 10.15V4.75" stroke="#606580" stroke-miterlimit="10" stroke-linecap="round" stroke-linejoin="round"/>
<path d="M14.4499 4.75H3.6499" stroke="#606580" stroke-miterlimit="10" stroke-linecap="round" stroke-linejoin="round"/>
<path d="M2.95005 1.59998H1.75005L1.05005 4.74998L1.75005 7.84998H2.95005L3.65005 4.74998L2.95005 1.59998Z" stroke="#606580" stroke-miterlimit="10" stroke-linecap="round" stroke-linejoin="round"/>
<path d="M2.3501 7.84998V14.4" stroke="#606580" stroke-miterlimit="10" stroke-linecap="round" stroke-linejoin="round"/>
<path d="M7.0001 3.14997L6.1001 14.4H10.0001L9.1001 3.14997C9.0501 2.59997 8.6001 2.19997 8.0501 2.19997C7.5001 2.14997 7.0501 2.59997 7.0001 3.14997Z" stroke="#606580" stroke-miterlimit="10" stroke-linecap="round" stroke-linejoin="round"/>
<path d="M14.4 14.4H12.15V11.25C12.15 10.6 12.65 10.1 13.3 10.1C13.95 10.1 14.45 10.6 14.45 11.25V14.4H14.4Z" stroke="#606580" stroke-miterlimit="10" stroke-linecap="round" stroke-linejoin="round"/>
<path d="M6.1001 14.25L9.5501 10.75H6.3501L9.2501 7.9H6.7501L9.1501 5.5" stroke="#606580" stroke-miterlimit="10" stroke-linecap="round" stroke-linejoin="round"/>
</svg>
