<svg width="16" height="17" viewBox="0 0 16 17" fill="none" xmlns="http://www.w3.org/2000/svg">
<path d="M0.800049 12.6H5.15005" stroke="#606580" stroke-miterlimit="10" stroke-linecap="round" stroke-linejoin="round"/>
<path d="M11.5 6.60002V4.15002" stroke="#606580" stroke-miterlimit="10" stroke-linecap="round" stroke-linejoin="round"/>
<path d="M12.5 4.15002H3.09998" stroke="#606580" stroke-miterlimit="10" stroke-linecap="round" stroke-linejoin="round"/>
<path d="M2.44998 1.45001H1.44998L0.849976 4.15001L1.44998 6.90001H2.44998L3.09998 4.15001L2.44998 1.45001Z" stroke="#606580" stroke-miterlimit="10" stroke-linecap="round" stroke-linejoin="round"/>
<path d="M1.94995 6.90002V12.6" stroke="#606580" stroke-miterlimit="10" stroke-linecap="round" stroke-linejoin="round"/>
<path d="M5.99995 2.74998L5.19995 12.55L8.19995 7.39998L7.84995 2.69998C7.79995 2.24998 7.39995 1.84998 6.94995 1.84998C6.44995 1.94998 6.04995 2.29998 5.99995 2.74998Z" stroke="#606580" stroke-miterlimit="10" stroke-linecap="round" stroke-linejoin="round"/>
<path d="M5.44995 9.44998L7.94995 6.94998H5.79995L7.89995 4.84998" stroke="#606580" stroke-miterlimit="10" stroke-linecap="round" stroke-linejoin="round"/>
<path d="M11.2999 16.05H10.3499V15.1H8.0999V16.05H7.1499V14.35H7.3999C7.5999 13.95 7.7499 13.5 7.8499 12.9C7.9499 12.35 7.9999 11.75 7.9999 11.05H10.8499V14.3H11.2499V16.05H11.2999ZM9.8999 14.35V11.85H8.9999C8.9499 12.35 8.8999 12.8 8.7999 13.2C8.6999 13.65 8.5499 14 8.3999 14.3H9.8999V14.35Z" fill="#606580"/>
<path d="M15.5 13.1C15.5 13.75 15.35 14.25 15 14.65C14.65 15 14.15 15.2 13.55 15.2C12.95 15.2 12.45 15 12.1 14.65C11.75 14.25 11.6 13.75 11.6 13.1C11.6 12.45 11.75 11.95 12.1 11.55C12.45 11.15 12.95 11 13.55 11C14.15 11 14.65 11.2 15 11.55C15.35 11.9 15.5 12.45 15.5 13.1ZM14.5 13.1C14.5 12.85 14.5 12.65 14.45 12.5C14.4 12.35 14.35 12.2 14.25 12.1C14.15 12 14.05 11.9 13.95 11.85C13.85 11.8 13.75 11.8 13.6 11.8C13.5 11.8 13.35 11.8 13.25 11.85C13.15 11.9 13.05 11.95 12.95 12.1C12.85 12.2 12.8 12.35 12.75 12.5C12.7 12.65 12.65 12.9 12.65 13.1C12.65 13.35 12.65 13.55 12.7 13.7C12.75 13.85 12.8 14 12.9 14.1C13 14.2 13.1 14.3 13.2 14.35C13.3 14.4 13.4 14.4 13.55 14.4C13.65 14.4 13.8 14.35 13.9 14.3C14 14.25 14.1 14.15 14.2 14.05C14.3 13.95 14.35 13.8 14.4 13.65C14.45 13.55 14.5 13.35 14.5 13.1Z" fill="#606580"/>
</svg>
