<svg width="16" height="17" viewBox="0 0 16 17" fill="none" xmlns="http://www.w3.org/2000/svg">
<path d="M0.800049 12.6H5.15005" stroke="#606580" stroke-miterlimit="10" stroke-linecap="round" stroke-linejoin="round"/>
<path d="M11.5 6.60002V4.15002" stroke="#606580" stroke-miterlimit="10" stroke-linecap="round" stroke-linejoin="round"/>
<path d="M12.5 4.15002H3.09998" stroke="#606580" stroke-miterlimit="10" stroke-linecap="round" stroke-linejoin="round"/>
<path d="M2.44998 1.45001H1.44998L0.849976 4.15001L1.44998 6.90001H2.44998L3.09998 4.15001L2.44998 1.45001Z" stroke="#606580" stroke-miterlimit="10" stroke-linecap="round" stroke-linejoin="round"/>
<path d="M1.94995 6.90002V12.6" stroke="#606580" stroke-miterlimit="10" stroke-linecap="round" stroke-linejoin="round"/>
<path d="M5.99995 2.74998L5.19995 12.55L8.19995 7.39998L7.84995 2.69998C7.79995 2.24998 7.39995 1.84998 6.94995 1.84998C6.44995 1.94998 6.04995 2.29998 5.99995 2.74998Z" stroke="#606580" stroke-miterlimit="10" stroke-linecap="round" stroke-linejoin="round"/>
<path d="M5.44995 9.44998L7.94995 6.94998H5.79995L7.89995 4.84998" stroke="#606580" stroke-miterlimit="10" stroke-linecap="round" stroke-linejoin="round"/>
<path d="M10.5 15.2C9.9 15.2 9.4 15 9.05 14.65C8.7 14.3 8.5 13.75 8.5 13.1C8.5 12.45 8.7 11.95 9.05 11.55C9.4 11.15 9.9 11 10.5 11C10.65 11 10.8 11 10.95 11.05C11.1 11.05 11.2 11.1 11.3 11.15C11.4 11.2 11.5 11.2 11.6 11.25C11.7 11.3 11.8 11.35 11.85 11.35V12.3H11.75C11.7 12.25 11.65 12.2 11.55 12.15C11.5 12.1 11.4 12.05 11.3 11.95C11.2 11.9 11.1 11.85 11 11.8C10.9 11.75 10.75 11.75 10.65 11.75C10.5 11.75 10.35 11.75 10.25 11.8C10.15 11.85 10 11.95 9.9 12.05C9.8 12.15 9.7 12.3 9.65 12.45C9.6 12.65 9.55 12.85 9.55 13.05C9.55 13.3 9.6 13.5 9.65 13.7C9.7 13.85 9.8 14 9.9 14.1C10 14.2 10.1 14.25 10.25 14.3C10.4 14.35 10.5 14.35 10.65 14.35C10.8 14.35 10.9 14.35 11.05 14.3C11.15 14.25 11.25 14.2 11.35 14.15C11.45 14.1 11.5 14.05 11.6 14C11.7 13.95 11.75 13.9 11.8 13.85H11.9V14.8C11.85 14.85 11.75 14.85 11.65 14.9C11.55 14.95 11.45 15 11.35 15C11.2 15.05 11.1 15.05 11 15.1C10.85 15.2 10.7 15.2 10.5 15.2Z" fill="#606580"/>
<path d="M15.85 15.1H14.85V11.85H13.45V15.1H12.45V11.05H15.85V15.1Z" fill="#606580"/>
</svg>
