<svg width="16" height="16" viewBox="0 0 16 16" fill="none" xmlns="http://www.w3.org/2000/svg">
<path d="M2.52148 12.4107V8.78927H5.67863L7.21077 7.21069H9.30006V12.4107" stroke="#606580" stroke-miterlimit="10" stroke-linecap="round" stroke-linejoin="round"/>
<path d="M14.5 12.4107H1.5V14.5H14.5V12.4107Z" stroke="#606580" stroke-miterlimit="10" stroke-linecap="round" stroke-linejoin="round"/>
<path d="M5.16793 1.5H3.58936V8.78929H5.16793V1.5Z" stroke="#606580" stroke-miterlimit="10" stroke-linecap="round" stroke-linejoin="round"/>
<path d="M8.27856 7.21063V3.07849H12.4107V4.61063" stroke="#606580" stroke-miterlimit="10" stroke-linecap="round" stroke-linejoin="round"/>
<path d="M12.7821 10.3214H12.0857C11.4357 10.3214 10.8785 9.76429 10.8785 9.11429V5.81786C10.8785 5.16786 11.4357 4.61072 12.0857 4.61072H12.7821C13.4321 4.61072 13.9893 5.16786 13.9893 5.81786V9.11429C13.9893 9.81072 13.4321 10.3214 12.7821 10.3214Z" stroke="#606580" stroke-miterlimit="10" stroke-linecap="round" stroke-linejoin="round"/>
<path d="M11.3893 12.4107V10.3214" stroke="#606580" stroke-miterlimit="10" stroke-linecap="round" stroke-linejoin="round"/>
<path d="M13.4785 10.3214V12.4107" stroke="#606580" stroke-miterlimit="10" stroke-linecap="round" stroke-linejoin="round"/>
</svg>
