<svg width="16" height="17" viewBox="0 0 16 17" fill="none" xmlns="http://www.w3.org/2000/svg">
<path d="M1.75 9.99999V7.24999H4.1L5.3 6.04999H6.85V9.89999" stroke="#606580" stroke-miterlimit="10" stroke-linecap="round" stroke-linejoin="round"/>
<path d="M6.84995 10H0.949951V11.55H6.84995" stroke="#606580" stroke-miterlimit="10" stroke-linecap="round" stroke-linejoin="round"/>
<path d="M3.7498 1.75H2.5498V7.25H3.7498V1.75Z" stroke="#606580" stroke-miterlimit="10" stroke-linecap="round" stroke-linejoin="round"/>
<path d="M6.1001 6.05001V2.95001H9.2001V4.10001" stroke="#606580" stroke-miterlimit="10" stroke-linecap="round" stroke-linejoin="round"/>
<path d="M8.0498 8.39998V5.19998C8.0498 4.59998 8.5498 4.09998 9.1498 4.09998H9.2998C9.8998 4.09998 10.3998 4.59998 10.3998 5.19998V5.24998" stroke="#606580" stroke-miterlimit="10" stroke-linecap="round" stroke-linejoin="round"/>
<path d="M14.9998 12.05C14.7998 9.29998 12.1498 7.09998 12.1498 7.09998C12.1498 7.09998 9.4998 9.29998 9.2998 12.05C9.2998 12.15 9.2998 12.25 9.2998 12.35C9.2998 13.95 10.5998 15.2 12.1498 15.2C13.6998 15.2 14.9998 13.9 14.9998 12.35C15.0498 12.3 15.0498 12.15 14.9998 12.05Z" stroke="#606580" stroke-miterlimit="10" stroke-linecap="round" stroke-linejoin="round"/>
<path d="M11 12C11 12.8 11.65 13.45 12.45 13.45" stroke="#606580" stroke-miterlimit="10" stroke-linecap="round" stroke-linejoin="round"/>
</svg>
