<svg width="16" height="16" viewBox="0 0 16 16" fill="none" xmlns="http://www.w3.org/2000/svg">
<path d="M1.55005 9.24998V6.49998H3.90005L5.10005 5.34998H6.65005V9.14998" stroke="#606580" stroke-miterlimit="10" stroke-linecap="round" stroke-linejoin="round"/>
<path d="M6.65 9.25H0.75V10.85H6.65" stroke="#606580" stroke-miterlimit="10" stroke-linecap="round" stroke-linejoin="round"/>
<path d="M3.54998 1H2.34998V6.5H3.54998V1Z" stroke="#606580" stroke-miterlimit="10" stroke-linecap="round" stroke-linejoin="round"/>
<path d="M5.90002 5.35001V2.20001H9.00002V3.35001" stroke="#606580" stroke-miterlimit="10" stroke-linecap="round" stroke-linejoin="round"/>
<path d="M7.84998 7.64998V4.44998C7.84998 3.84998 8.34998 3.34998 8.94998 3.34998H9.09998C9.69998 3.34998 10.2 3.84998 10.2 4.44998V4.49998" stroke="#606580" stroke-miterlimit="10" stroke-linecap="round" stroke-linejoin="round"/>
<path d="M9.75 10.4V9C9.75 7.75 10.75 6.75 12 6.75H12.1C13.35 6.75 14.35 7.75 14.35 9V10.4" stroke="#606580" stroke-miterlimit="10" stroke-linecap="round" stroke-linejoin="round"/>
<path d="M14.55 15H9.49998C9.14998 15 8.84998 14.7 8.84998 14.35V11.1C8.84998 10.75 9.14998 10.45 9.49998 10.45H14.6C14.95 10.45 15.25 10.75 15.25 11.1V14.35C15.25 14.7 14.95 15 14.55 15Z" stroke="#606580" stroke-miterlimit="10" stroke-linecap="round" stroke-linejoin="round"/>
<path d="M12 12.8C12.3866 12.8 12.7 12.4866 12.7 12.1C12.7 11.7134 12.3866 11.4 12 11.4C11.6134 11.4 11.3 11.7134 11.3 12.1C11.3 12.4866 11.6134 12.8 12 12.8Z" fill="#606580"/>
<path d="M12 12.6V13.55" stroke="#606580" stroke-miterlimit="10" stroke-linecap="round" stroke-linejoin="round"/>
</svg>
