<svg width="16" height="16" viewBox="0 0 16 16" fill="none" xmlns="http://www.w3.org/2000/svg">
<path d="M1.5 9.20005V6.45005H3.85L5.05 5.30005H6.6V9.10005" stroke="#606580" stroke-miterlimit="10" stroke-linecap="round" stroke-linejoin="round"/>
<path d="M6.6 9.20001H0.75V10.8H5.6" stroke="#606580" stroke-miterlimit="10" stroke-linecap="round" stroke-linejoin="round"/>
<path d="M3.50005 0.950012H2.30005V6.45001H3.50005V0.950012Z" stroke="#606580" stroke-miterlimit="10" stroke-linecap="round" stroke-linejoin="round"/>
<path d="M5.84998 5.30002V2.15002H8.99998V3.30002" stroke="#606580" stroke-miterlimit="10" stroke-linecap="round" stroke-linejoin="round"/>
<path d="M7.80005 7.60005V4.40005C7.80005 3.80005 8.30005 3.30005 8.90005 3.30005H9.05005C9.65005 3.30005 10.15 3.80005 10.15 4.40005V4.45005V5.15005" stroke="#606580" stroke-miterlimit="10" stroke-linecap="round" stroke-linejoin="round"/>
<path d="M6.70002 14.55C6.05002 13.9 6.05002 12.9 6.70002 12.3L11.6 7.40002L13.85 9.65002L8.95002 14.55C8.35002 15.2 7.30002 15.2 6.70002 14.55Z" stroke="#606580" stroke-miterlimit="10"/>
<path d="M14.1 9.90001L11.35 7.15001C11.15 6.95001 11.15 6.70001 11.35 6.50001L11.5 6.35001C11.7 6.15001 11.95 6.15001 12.15 6.35001L14.9 9.10001C15.1 9.30001 15.1 9.55001 14.9 9.75001L14.75 9.90001C14.55 10.1 14.3 10.1 14.1 9.90001Z" stroke="#606580" stroke-miterlimit="10"/>
<path d="M14.4001 8.64998L12.6001 6.84998L13.4001 6.04998C13.5001 5.94998 13.6501 5.94998 13.7501 6.04998L15.2001 7.49998C15.3001 7.59998 15.3001 7.74998 15.2001 7.84998L14.4001 8.64998Z" stroke="#606580" stroke-miterlimit="10"/>
<path d="M8.04998 13.5C7.94998 13.5 7.89998 13.45 7.84998 13.4L7.79998 13.35C7.69998 13.25 7.69998 13.05 7.79998 12.95L8.74998 12L9.84998 11.8L8.24998 13.4C8.24998 13.5 8.14998 13.5 8.04998 13.5Z" fill="#606580"/>
<path d="M9.15 12.25L8.15 13.25C8.15 13.25 8.15 13.25 8.1 13.25C8.1 13.25 8.1 13.25 8.05 13.25L8 13.2V13.15L8.9 12.25H9.15ZM10.6 11.45L8.65 11.8L7.65 12.8C7.45 13 7.45 13.35 7.65 13.55L7.7 13.6C7.8 13.7 7.95 13.75 8.05 13.75C8.2 13.75 8.35 13.7 8.45 13.6L10.6 11.45Z" fill="#606580"/>
</svg>
