<svg width="16" height="16" viewBox="0 0 16 16" fill="none" xmlns="http://www.w3.org/2000/svg">
<path fill-rule="evenodd" clip-rule="evenodd" d="M11.5 11.5C11.7761 11.5 12 11.2761 12 11V2.70711L15.1464 5.85355C15.3417 6.04882 15.6583 6.04882 15.8536 5.85355C16.0488 5.65829 16.0488 5.34171 15.8536 5.14645L11.8536 1.14645C11.6583 0.951184 11.3417 0.951184 11.1464 1.14645L7.14645 5.14645C6.95118 5.34171 6.95118 5.65829 7.14645 5.85355C7.34171 6.04882 7.65829 6.04882 7.85355 5.85355L11 2.70711V11C11 11.2761 11.2239 11.5 11.5 11.5Z" fill="#727689"/>
<circle cx="11.5" cy="14.5" r="0.5" fill="#727689"/>
<circle cx="11.5" cy="12.5" r="0.5" fill="#727689"/>
<path fill-rule="evenodd" clip-rule="evenodd" d="M4.5 3.5C4.77614 3.5 5 3.72386 5 4V13.2929L8.14645 10.1464C8.34171 9.95118 8.65829 9.95118 8.85355 10.1464C9.04882 10.3417 9.04882 10.6583 8.85355 10.8536L4.85355 14.8536C4.65829 15.0488 4.34171 15.0488 4.14645 14.8536L0.146447 10.8536C-0.0488155 10.6583 -0.0488155 10.3417 0.146447 10.1464C0.341709 9.95118 0.658292 9.95118 0.853554 10.1464L4 13.2929V4C4 3.72386 4.22386 3.5 4.5 3.5Z" fill="#727689"/>
<circle cx="4.5" cy="2.5" r="0.5" fill="#727689"/>
<circle cx="4.5" cy="0.5" r="0.5" fill="#727689"/>
</svg>
