<svg width="17" height="16" viewBox="0 0 17 16" fill="none" xmlns="http://www.w3.org/2000/svg">
<path d="M3.39995 14.1L3.19995 12.7L4.59995 12.5" stroke="#606580" stroke-miterlimit="10" stroke-linecap="round" stroke-linejoin="round"/>
<path d="M5.55005 1.15002L6.85005 1.75002L6.25005 3.00002" stroke="#606580" stroke-miterlimit="10" stroke-linecap="round" stroke-linejoin="round"/>
<path d="M15.5 9.95L14.3 10.7L13.55 9.5" stroke="#606580" stroke-miterlimit="10" stroke-linecap="round" stroke-linejoin="round"/>
<path d="M3.6001 13.1C4.8001 14.2 6.3501 14.85 8.1001 14.85C9.8501 14.85 11.4001 14.15 12.6001 13.1" stroke="#606580" stroke-miterlimit="10" stroke-linecap="round" stroke-linejoin="round"/>
<path d="M14.4001 10.2C14.6001 9.59997 14.7001 8.94998 14.7001 8.24998C14.7001 5.09998 12.5001 2.49998 9.6001 1.84998" stroke="#606580" stroke-miterlimit="10" stroke-linecap="round" stroke-linejoin="round"/>
<path d="M6.6 1.84998C3.7 2.54998 1.5 5.14998 1.5 8.24998C1.5 8.89998 1.6 9.54998 1.8 10.2" stroke="#606580" stroke-miterlimit="10" stroke-linecap="round" stroke-linejoin="round"/>
</svg>
