<svg width="17" height="17" viewBox="0 0 17 17" fill="none" xmlns="http://www.w3.org/2000/svg">
<path d="M9.10026 3.68815L12.459 7.04688L9.84271 9.66315L6.48399 6.30442L9.10026 3.68815Z" stroke="#606580" stroke-miterlimit="10" stroke-linecap="round" stroke-linejoin="round"/>
<path d="M10.4896 11.45L9.83956 9.64999L12.4396 7.04999L14.2396 7.69999C14.6896 7.94999 14.7896 8.59999 14.4396 8.94999L11.7396 11.65C11.3896 12.05 10.7396 11.95 10.4896 11.45Z" stroke="#606580" stroke-miterlimit="10" stroke-linecap="round" stroke-linejoin="round"/>
<path d="M4.73965 5.70002L6.53965 6.35002L9.13965 3.75002L8.48965 1.95002C8.23965 1.50002 7.58965 1.40002 7.23965 1.75002L4.53965 4.45002C4.13965 4.80002 4.23965 5.45002 4.73965 5.70002Z" stroke="#606580" stroke-miterlimit="10" stroke-linecap="round" stroke-linejoin="round"/>
<path d="M7.9895 8.19995L2.3895 13.8" stroke="#606580" stroke-miterlimit="10" stroke-linecap="round" stroke-linejoin="round"/>
<path d="M8.8396 13.15C7.9396 13.4 7.3896 13.75 7.3896 14.2C7.3896 14.9 8.9896 15.5 10.9896 15.5C12.9896 15.5 14.5896 14.9 14.5896 14.2C14.5896 13.8 14.0896 13.45 13.3396 13.2" stroke="#606580" stroke-miterlimit="10" stroke-linecap="round" stroke-linejoin="round"/>
</svg>
