<svg width="17" height="17" viewBox="0 0 17 17" fill="none" xmlns="http://www.w3.org/2000/svg">
<path d="M7.7 14.95C4.15 14.95 1.25 12.05 1.25 8.49999C1.25 4.94999 4.15 2.04999 7.7 2.04999C11.25 2.04999 14.1 4.94999 14.1 8.49999" stroke="#606580" stroke-miterlimit="10" stroke-linecap="round" stroke-linejoin="round"/>
<path d="M6.59998 11.95V5.04999C6.59998 5.04999 6.59998 5.04999 8.39998 5.04999C10.2 5.04999 10.2 6.84999 10.2 6.84999C10.2 6.84999 10.2 8.64999 8.39998 8.64999C7.14998 8.64999 5.89998 8.64999 5.34998 8.64999" stroke="#606580" stroke-miterlimit="10" stroke-linecap="round" stroke-linejoin="round"/>
<path d="M8.39998 10.3H5.34998" stroke="#606580" stroke-miterlimit="10" stroke-linecap="round" stroke-linejoin="round"/>
<path d="M10.7 12.4L13.25 11L15.75 12.4" stroke="#606580" stroke-miterlimit="10" stroke-linecap="round" stroke-linejoin="round"/>
<path d="M15.75 14.95L13.25 13.55L10.7 14.95" stroke="#606580" stroke-miterlimit="10" stroke-linecap="round" stroke-linejoin="round"/>
</svg>
