<svg width="17" height="16" viewBox="0 0 17 16" fill="none" xmlns="http://www.w3.org/2000/svg">
<path d="M8.5 15C12.366 15 15.5 11.866 15.5 8C15.5 4.13401 12.366 1 8.5 1C4.63401 1 1.5 4.13401 1.5 8C1.5 11.866 4.63401 15 8.5 15Z" stroke="#606580" stroke-miterlimit="10" stroke-linecap="round" stroke-linejoin="round"/>
<path d="M6.49998 10.5C6.79998 11.3 7.59998 11.9 8.49998 11.9C9.69998 11.9 10.65 10.95 10.65 9.75002C10.65 8.40002 8.49998 7.90002 8.49998 7.90002C8.49998 7.90002 6.34998 7.50002 6.34998 6.05002C6.34998 4.85002 7.29998 3.90002 8.49998 3.90002C9.39998 3.90002 10.2 4.50002 10.5 5.30002" stroke="#606580" stroke-miterlimit="10" stroke-linecap="round" stroke-linejoin="round"/>
<path fill-rule="evenodd" clip-rule="evenodd" d="M8.5 3.09998C8.5 3.79998 8.5 3.79998 8.5 3.64998C8.5 3.64998 8.5 3.34998 8.5 3.54998C8.5 3.74998 8.5 3.89998 8.5 3.89998C8.5 3.89998 8.5 3.29998 8.5 3.09998Z" stroke="#606580" stroke-miterlimit="10" stroke-linecap="round" stroke-linejoin="round"/>
<path d="M8.5 12.3C8.5 12.1 8.5 11.95 8.5 11.95C8.5 11.95 8.5 12.1 8.5 12.3ZM8.5 12.3C8.5 12.4 8.5 12.7 8.5 12.9" stroke="#606580" stroke-miterlimit="10" stroke-linecap="round" stroke-linejoin="round"/>
</svg>
