<svg width="17" height="17" viewBox="0 0 17 17" fill="none" xmlns="http://www.w3.org/2000/svg">
<path d="M7.69995 14C4.24995 14 1.44995 11.2 1.44995 7.75C1.44995 4.3 4.24995 1.5 7.69995 1.5C11.15 1.5 13.95 4.3 13.95 7.75" stroke="#606580" stroke-miterlimit="10" stroke-linecap="round" stroke-linejoin="round"/>
<path d="M6.65002 11.15V4.40002C6.65002 4.40002 6.65002 4.40002 8.40002 4.40002C10.15 4.40002 10.15 6.15002 10.15 6.15002C10.15 6.15002 10.15 7.90002 8.40002 7.90002C7.20002 7.90002 5.95002 7.90002 5.40002 7.90002" stroke="#606580" stroke-miterlimit="10" stroke-linecap="round" stroke-linejoin="round"/>
<path d="M8.40002 9.5H5.40002" stroke="#606580" stroke-miterlimit="10" stroke-linecap="round" stroke-linejoin="round"/>
<path d="M12.65 15.5C14.2516 15.5 15.55 14.2016 15.55 12.6C15.55 10.9984 14.2516 9.70001 12.65 9.70001C11.0484 9.70001 9.75 10.9984 9.75 12.6C9.75 14.2016 11.0484 15.5 12.65 15.5Z" stroke="#606580" stroke-miterlimit="10" stroke-linecap="round" stroke-linejoin="round"/>
<path d="M12.65 11.45V12.8L13.35 13.15" stroke="#606580" stroke-miterlimit="10" stroke-linecap="round" stroke-linejoin="round"/>
</svg>
