<svg width="17" height="16" viewBox="0 0 17 16" fill="none" xmlns="http://www.w3.org/2000/svg">
<path d="M8.55005 12.75C11.1734 12.75 13.3 10.6234 13.3 8C13.3 5.37665 11.1734 3.25 8.55005 3.25C5.9267 3.25 3.80005 5.37665 3.80005 8C3.80005 10.6234 5.9267 12.75 8.55005 12.75Z" stroke="#606580" stroke-miterlimit="10" stroke-linecap="round" stroke-linejoin="round"/>
<path d="M7.75005 10.6V5.45001C7.75005 5.45001 7.75005 5.45001 9.05005 5.45001C10.35 5.45001 10.35 6.75001 10.35 6.75001C10.35 6.75001 10.35 8.05001 9.05005 8.05001C8.15005 8.05001 7.20005 8.05001 6.80005 8.05001" stroke="#606580" stroke-miterlimit="10" stroke-linecap="round" stroke-linejoin="round"/>
<path d="M9.05005 9.34998H6.80005" stroke="#606580" stroke-miterlimit="10" stroke-linecap="round" stroke-linejoin="round"/>
<path d="M4.85002 4.35002L3.40002 2.90002" stroke="#606580" stroke-miterlimit="10" stroke-linecap="round" stroke-linejoin="round"/>
<path d="M2.6 3.2C3.20751 3.2 3.7 2.70751 3.7 2.1C3.7 1.49249 3.20751 1 2.6 1C1.99249 1 1.5 1.49249 1.5 2.1C1.5 2.70751 1.99249 3.2 2.6 3.2Z" stroke="#606580" stroke-miterlimit="10" stroke-linecap="round" stroke-linejoin="round"/>
<path d="M12.15 4.35002L13.6 2.90002" stroke="#606580" stroke-miterlimit="10" stroke-linecap="round" stroke-linejoin="round"/>
<path d="M14.4 3.2C15.0076 3.2 15.5 2.70751 15.5 2.1C15.5 1.49249 15.0076 1 14.4 1C13.7925 1 13.3 1.49249 13.3 2.1C13.3 2.70751 13.7925 3.2 14.4 3.2Z" stroke="#606580" stroke-miterlimit="10" stroke-linecap="round" stroke-linejoin="round"/>
<path d="M12.15 11.65L13.6 13.1" stroke="#606580" stroke-miterlimit="10" stroke-linecap="round" stroke-linejoin="round"/>
<path d="M14.4 15C15.0076 15 15.5 14.5075 15.5 13.9C15.5 13.2925 15.0076 12.8 14.4 12.8C13.7925 12.8 13.3 13.2925 13.3 13.9C13.3 14.5075 13.7925 15 14.4 15Z" stroke="#606580" stroke-miterlimit="10" stroke-linecap="round" stroke-linejoin="round"/>
<path d="M4.85002 11.65L3.40002 13.1" stroke="#606580" stroke-miterlimit="10" stroke-linecap="round" stroke-linejoin="round"/>
<path d="M2.6 15C3.20751 15 3.7 14.5075 3.7 13.9C3.7 13.2925 3.20751 12.8 2.6 12.8C1.99249 12.8 1.5 13.2925 1.5 13.9C1.5 14.5075 1.99249 15 2.6 15Z" stroke="#606580" stroke-miterlimit="10" stroke-linecap="round" stroke-linejoin="round"/>
</svg>
