<svg width="17" height="17" viewBox="0 0 17 17" fill="none" xmlns="http://www.w3.org/2000/svg">
<path d="M4.19995 9.35C3.54995 8.5 3.19995 7.4 3.19995 6.25C3.19995 3.35 5.54995 1 8.44995 1C11.35 1 13.7 3.35 13.7 6.25C13.7 7.05 13.5 7.8 13.2 8.5" stroke="#606580" stroke-miterlimit="10" stroke-linecap="round" stroke-linejoin="round"/>
<path d="M7.49995 9.10002V3.40002C7.49995 3.40002 7.49995 3.40002 8.94995 3.40002C10.4 3.40002 10.4 4.85002 10.4 4.85002C10.4 4.85002 10.4 6.30002 8.94995 6.30002C7.94995 6.30002 6.89995 6.30002 6.44995 6.30002" stroke="#606580" stroke-miterlimit="10" stroke-linecap="round" stroke-linejoin="round"/>
<path d="M8.94995 7.75H6.44995" stroke="#606580" stroke-miterlimit="10" stroke-linecap="round" stroke-linejoin="round"/>
<path d="M2.25 13.7L4.3 11.8L8.95 10.65C9.45 10.55 9.95 10.85 10.05 11.3C10.15 11.8 9.85 12.3 9.4 12.4L7.25 12.95" stroke="#606580" stroke-miterlimit="10" stroke-linecap="round" stroke-linejoin="round"/>
<path d="M4.59998 16L5.49998 15.25H9.59998L14 12.4C14.4 12.15 14.55 11.6 14.25 11.2C14 10.8 13.45 10.65 13.05 10.9L11.75 11.5" stroke="#606580" stroke-miterlimit="10" stroke-linecap="round" stroke-linejoin="round"/>
</svg>
