<svg width="17" height="16" viewBox="0 0 17 16" fill="none" xmlns="http://www.w3.org/2000/svg">
<path d="M7.09998 12.5C3.89998 12.5 1.34998 9.95 1.34998 6.75C1.34998 3.55 3.89998 1 7.09998 1C10.3 1 12.85 3.55 12.85 6.75" stroke="#606580" stroke-miterlimit="10" stroke-linecap="round" stroke-linejoin="round"/>
<path d="M5.69998 8.44995C5.89998 8.99995 6.44998 9.39995 7.04998 9.39995C7.84998 9.39995 8.49998 8.74995 8.49998 7.94995C8.49998 7.04995 7.04998 6.69995 7.04998 6.69995C7.04998 6.69995 5.59998 6.39995 5.59998 5.39995C5.59998 4.59995 6.24998 3.94995 7.04998 3.94995C7.69998 3.94995 8.19998 4.34995 8.44998 4.89995" stroke="#606580" stroke-miterlimit="10" stroke-linecap="round" stroke-linejoin="round"/>
<path fill-rule="evenodd" clip-rule="evenodd" d="M7.09998 3.40002C7.09998 3.90002 7.09998 3.90002 7.09998 3.75002C7.09998 3.75002 7.09998 3.55002 7.09998 3.70002C7.09998 3.85002 7.09998 3.95002 7.09998 3.95002C7.09998 3.95002 7.09998 3.50002 7.09998 3.40002Z" stroke="#606580" stroke-miterlimit="10" stroke-linecap="round" stroke-linejoin="round"/>
<path d="M7.09998 9.69995C7.09998 9.54995 7.09998 9.44995 7.09998 9.44995C7.09998 9.44995 7.09998 9.59995 7.09998 9.69995ZM7.09998 9.69995C7.09998 9.79995 7.09998 9.99995 7.09998 10.1" stroke="#606580" stroke-miterlimit="10" stroke-linecap="round" stroke-linejoin="round"/>
<path d="M12.95 10.05L15.4 12.55L12.95 15" stroke="#606580" stroke-miterlimit="10" stroke-linecap="round" stroke-linejoin="round"/>
<path d="M10.5 10.05L12.95 12.55L10.5 15" stroke="#606580" stroke-miterlimit="10" stroke-linecap="round" stroke-linejoin="round"/>
</svg>
