<svg width="17" height="16" viewBox="0 0 17 16" fill="none" xmlns="http://www.w3.org/2000/svg">
<path d="M6.55 9.50002V4.15002C6.55 4.15002 6.55 4.15002 8.35 4.15002C10.15 4.15002 10.15 5.95002 10.15 5.95002C10.15 5.95002 10.15 7.75002 8.35 7.75002C7.1 7.75002 5.8 7.75002 5.25 7.75002" stroke="#606580" stroke-miterlimit="10" stroke-linecap="round" stroke-linejoin="round"/>
<path d="M6.4 9.5H5.25" stroke="#606580" stroke-miterlimit="10" stroke-linecap="round" stroke-linejoin="round"/>
<path d="M3.5 12.7C3.3 12.5 3.1 12.3 2.9 12.05C2.05 10.95 1.5 9.55001 1.5 8.00001C1.5 4.35001 4.45 1.45001 8.05 1.45001C11 1.45001 13.5 3.40001 14.3 6.05001" stroke="#606580" stroke-miterlimit="10" stroke-linecap="round" stroke-linejoin="round"/>
<path d="M5.25 14.55L8.65 10.05L12.05 12.85L14.85 8.90002" stroke="#606580" stroke-miterlimit="10" stroke-linecap="round" stroke-linejoin="round"/>
<path d="M13.6 8.75001L15.2 8.45001L15.5 10" stroke="#606580" stroke-miterlimit="10" stroke-linecap="round" stroke-linejoin="round"/>
</svg>
