<svg width="17" height="17" viewBox="0 0 17 17" fill="none" xmlns="http://www.w3.org/2000/svg">
<path d="M5.9 12.9C8.33005 12.9 10.3 10.93 10.3 8.49998C10.3 6.06992 8.33005 4.09998 5.9 4.09998C3.46995 4.09998 1.5 6.06992 1.5 8.49998C1.5 10.93 3.46995 12.9 5.9 12.9Z" stroke="#606580" stroke-miterlimit="10" stroke-linecap="round" stroke-linejoin="round"/>
<path d="M5.20005 10.9V6.15002C5.20005 6.15002 5.20005 6.15002 6.40005 6.15002C7.60005 6.15002 7.60005 7.35002 7.60005 7.35002C7.60005 7.35002 7.60005 8.55002 6.40005 8.55002C5.55005 8.55002 4.65005 8.55002 4.30005 8.55002" stroke="#606580" stroke-miterlimit="10" stroke-linecap="round" stroke-linejoin="round"/>
<path d="M6.40005 9.75H4.30005" stroke="#606580" stroke-miterlimit="10" stroke-linecap="round" stroke-linejoin="round"/>
<path d="M10.55 12.4C11.95 11.65 12.9 10.2 12.9 8.49998C12.9 6.79998 11.95 5.34998 10.55 4.59998" stroke="#606580" stroke-miterlimit="10" stroke-linecap="round" stroke-linejoin="round"/>
<path d="M13.15 12.4C14.55 11.65 15.5 10.2 15.5 8.49998C15.5 6.79998 14.55 5.34998 13.15 4.59998" stroke="#606580" stroke-miterlimit="10" stroke-linecap="round" stroke-linejoin="round"/>
</svg>
