<svg width="17" height="16" viewBox="0 0 17 16" fill="none" xmlns="http://www.w3.org/2000/svg">
<path d="M8 14.5C4.4 14.5 1.5 11.6 1.5 8C1.5 4.4 4.4 1.5 8 1.5C11.6 1.5 14.5 4.4 14.5 8" stroke="#606580" stroke-miterlimit="10" stroke-linecap="round" stroke-linejoin="round"/>
<path d="M6.89998 11.5V4.5C6.89998 4.5 6.89998 4.5 8.69998 4.5C10.5 4.5 10.5 6.3 10.5 6.3C10.5 6.3 10.5 8.1 8.69998 8.1C7.44998 8.1 6.14998 8.1 5.59998 8.1" stroke="#606580" stroke-miterlimit="10" stroke-linecap="round" stroke-linejoin="round"/>
<path d="M8.69998 9.79999H5.59998" stroke="#606580" stroke-miterlimit="10" stroke-linecap="round" stroke-linejoin="round"/>
<path d="M10.75 12.9L12.2 14.35C12.3 14.45 12.5 14.45 12.6 14.35L15.5 11.45" stroke="#606580" stroke-miterlimit="10" stroke-linecap="round" stroke-linejoin="round"/>
</svg>
