<svg width="17" height="17" viewBox="0 0 17 17" fill="none" xmlns="http://www.w3.org/2000/svg">
<path d="M7.69995 14C4.24995 14 1.44995 11.2 1.44995 7.75C1.44995 4.3 4.24995 1.5 7.69995 1.5C11.15 1.5 13.95 4.3 13.95 7.75" stroke="#606580" stroke-miterlimit="10" stroke-linecap="round" stroke-linejoin="round"/>
<path d="M9.50005 8.90002C9.10005 8.05002 7.70005 7.70002 7.70005 7.70002C7.70005 7.70002 5.80005 7.35002 5.80005 6.05002C5.80005 5.00002 6.65005 4.15002 7.70005 4.15002C8.55005 4.15002 9.25005 4.70002 9.50005 5.40002" stroke="#606580" stroke-miterlimit="10" stroke-linecap="round" stroke-linejoin="round"/>
<path d="M5.8999 10C6.1499 10.75 6.8499 11.25 7.6999 11.25C7.7499 11.25 7.8499 11.25 7.8999 11.25" stroke="#606580" stroke-miterlimit="10" stroke-linecap="round" stroke-linejoin="round"/>
<path fill-rule="evenodd" clip-rule="evenodd" d="M7.69995 3.34998C7.69995 3.99998 7.69995 3.99998 7.69995 3.84998C7.69995 3.84998 7.69995 3.59998 7.69995 3.74998C7.69995 3.94998 7.69995 4.04998 7.69995 4.04998C7.69995 4.04998 7.69995 3.54998 7.69995 3.34998Z" stroke="#606580" stroke-miterlimit="10" stroke-linecap="round" stroke-linejoin="round"/>
<path d="M12.65 15.5C14.2516 15.5 15.55 14.2016 15.55 12.6C15.55 10.9984 14.2516 9.70001 12.65 9.70001C11.0484 9.70001 9.75 10.9984 9.75 12.6C9.75 14.2016 11.0484 15.5 12.65 15.5Z" stroke="#606580" stroke-miterlimit="10" stroke-linecap="round" stroke-linejoin="round"/>
<path d="M12.65 11.45V12.8L13.35 13.15" stroke="#606580" stroke-miterlimit="10" stroke-linecap="round" stroke-linejoin="round"/>
</svg>
