<svg width="17" height="16" viewBox="0 0 17 16" fill="none" xmlns="http://www.w3.org/2000/svg">
<path d="M6.60005 9.39999V4.04999C6.60005 4.04999 6.60005 4.04999 8.40005 4.04999C10.2 4.04999 10.2 5.84999 10.2 5.84999C10.2 5.84999 10.2 7.64999 8.40005 7.64999C7.15005 7.64999 5.85005 7.64999 5.30005 7.64999" stroke="#606580" stroke-miterlimit="10" stroke-linecap="round" stroke-linejoin="round"/>
<path d="M6.40005 9.40002H5.30005" stroke="#606580" stroke-miterlimit="10" stroke-linecap="round" stroke-linejoin="round"/>
<path d="M3.5 12.65C3.3 12.45 3.1 12.25 2.9 12C2.05 10.9 1.5 9.44999 1.5 7.89999C1.5 4.24999 4.45 1.29999 8.1 1.29999C11.05 1.29999 13.55 3.24999 14.4 5.94999" stroke="#606580" stroke-miterlimit="10" stroke-linecap="round" stroke-linejoin="round"/>
<path d="M14.95 8.84998C15.25 8.84998 15.5 9.09998 15.5 9.39998C15.5 9.69998 15.25 9.94998 14.95 9.94998C14.65 9.94998 14.4 9.69998 14.4 9.39998C14.4 9.09998 14.65 8.84998 14.95 8.84998ZM14.95 7.84998C14.1 7.84998 13.4 8.54998 13.4 9.39998C13.4 10.25 14.1 10.95 14.95 10.95C15.8 10.95 16.5 10.25 16.5 9.39998C16.5 8.54998 15.8 7.84998 14.95 7.84998Z" fill="#606580"/>
<path d="M12.55 12.65C12.85 12.65 13.1 12.9 13.1 13.2C13.1 13.5 12.85 13.75 12.55 13.75C12.25 13.75 12 13.5 12 13.2C12 12.9 12.25 12.65 12.55 12.65ZM12.55 11.65C11.7 11.65 11 12.35 11 13.2C11 14.05 11.7 14.75 12.55 14.75C13.4 14.75 14.1 14.05 14.1 13.2C14.1 12.35 13.4 11.65 12.55 11.65Z" fill="#606580"/>
<path d="M10.05 10.05C10.35 10.05 10.6 10.3 10.6 10.6C10.6 10.9 10.35 11.15 10.05 11.15C9.75 11.15 9.5 10.9 9.5 10.6C9.5 10.3 9.75 10.05 10.05 10.05ZM10.05 9.04999C9.2 9.04999 8.5 9.74999 8.5 10.6C8.5 11.45 9.2 12.15 10.05 12.15C10.9 12.15 11.6 11.45 11.6 10.6C11.6 9.74999 10.9 9.04999 10.05 9.04999Z" fill="#606580"/>
<path d="M7.3 13.6C7.6 13.6 7.85 13.85 7.85 14.15C7.85 14.45 7.6 14.7 7.3 14.7C7 14.7 6.75 14.45 6.75 14.15C6.75 13.85 7 13.6 7.3 13.6ZM7.3 12.6C6.45 12.6 5.75 13.3 5.75 14.15C5.75 15 6.45 15.7 7.3 15.7C8.15 15.7 8.85 15 8.85 14.15C8.85 13.3 8.15 12.6 7.3 12.6Z" fill="#606580"/>
<path d="M14.5 10.3L12.95 12.55" stroke="#606580" stroke-miterlimit="10" stroke-linejoin="round"/>
<path d="M10.75 11.35L11.95 12.55" stroke="#606580" stroke-miterlimit="10" stroke-linejoin="round"/>
<path d="M9.45005 11.35L7.80005 13.25" stroke="#606580" stroke-miterlimit="10" stroke-linejoin="round"/>
</svg>
