<svg width="17" height="17" viewBox="0 0 17 17" fill="none" xmlns="http://www.w3.org/2000/svg">
<path d="M7.60005 14.1C4.10005 14.1 1.30005 11.3 1.30005 7.8C1.30005 4.3 4.10005 1.5 7.60005 1.5C11.1 1.5 13.9 4.3 13.9 7.8" stroke="#606580" stroke-miterlimit="10" stroke-linecap="round" stroke-linejoin="round"/>
<path d="M6.44995 11.2V4.40002C6.44995 4.40002 6.44995 4.40002 8.19995 4.40002C9.94995 4.40002 9.94995 6.15002 9.94995 6.15002C9.94995 6.15002 9.94995 7.90002 8.19995 7.90002C6.99995 7.90002 5.74995 7.90002 5.19995 7.90002" stroke="#606580" stroke-miterlimit="10" stroke-linecap="round" stroke-linejoin="round"/>
<path d="M8.19995 9.54999H5.19995" stroke="#606580" stroke-miterlimit="10" stroke-linecap="round" stroke-linejoin="round"/>
<path d="M12.5 10.75L12.95 10.9C13.05 10.95 13.15 10.95 13.2 11L13.6 11.2L13.8 11.6C13.85 11.7 13.9 11.75 13.9 11.85L14.05 12.3L13.9 12.75C13.9 12.85 13.85 12.9 13.8 13L13.6 13.4L13.2 13.6C13.1 13.65 13.05 13.7 12.95 13.7L12.5 13.9L12.05 13.75C11.95 13.7 11.85 13.7 11.8 13.65L11.4 13.45L11.2 13.05C11.15 12.95 11.1 12.9 11.1 12.8L10.95 12.35L11.1 11.9C11.15 11.8 11.15 11.75 11.2 11.65L11.4 11.25L11.8 11.05C11.9 11 11.95 10.95 12.05 10.95L12.5 10.75ZM12.8 9.20001H12.25C12.05 9.20001 11.9 9.35001 11.85 9.55001L11.75 10C11.6 10.05 11.45 10.1 11.3 10.2L10.95 9.95001C10.9 9.90001 10.8 9.90001 10.7 9.90001C10.6 9.90001 10.5 9.95001 10.4 10L9.99995 10.4C9.84995 10.55 9.84995 10.75 9.94995 10.9L10.2 11.25C10.15 11.4 10.05 11.55 9.99995 11.7L9.54995 11.75C9.34995 11.8 9.19995 11.95 9.19995 12.15V12.7C9.19995 12.9 9.34995 13.05 9.54995 13.1L9.99995 13.2C10.05 13.35 10.1 13.5 10.2 13.65L9.99995 13.9C9.89995 14.05 9.89995 14.25 10.05 14.4L10.45 14.8C10.5 14.85 10.6 14.9 10.75 14.9C10.85 14.9 10.9 14.85 11 14.85L11.4 14.6C11.55 14.65 11.7 14.75 11.8 14.75L11.85 15.2C11.9 15.4 12.05 15.55 12.25 15.55H12.8C13 15.55 13.15 15.4 13.2 15.2L13.3 14.75C13.45 14.7 13.6 14.65 13.75 14.55L14.1 14.8C14.15 14.85 14.25 14.85 14.35 14.85C14.45 14.85 14.55 14.8 14.65 14.75L15.05 14.35C15.2 14.2 15.2 14 15.1 13.85L14.75 13.5C14.8 13.35 14.9 13.2 14.95 13.05L15.4 13C15.6 12.95 15.75 12.8 15.75 12.6V12.05C15.75 11.85 15.6 11.7 15.4 11.65L14.95 11.55C14.9 11.4 14.85 11.25 14.75 11.1L15 10.75C15.1 10.6 15.1 10.4 14.95 10.25L14.55 9.85001C14.5 9.80001 14.4 9.75001 14.25 9.75001C14.15 9.75001 14.1 9.80001 14 9.80001L13.65 10.05C13.5 9.95001 13.35 9.90001 13.2 9.85001L13.15 9.50001C13.15 9.30001 13 9.20001 12.8 9.20001Z" fill="#606580"/>
</svg>
