<svg width="17" height="16" viewBox="0 0 17 16" fill="none" xmlns="http://www.w3.org/2000/svg">
<path d="M8.19998 14.25C4.54998 14.25 1.59998 11.3 1.59998 7.65C1.59998 4 4.54998 1 8.19998 1C11.85 1 14.8 3.95 14.8 7.6" stroke="#606580" stroke-miterlimit="10" stroke-linecap="round" stroke-linejoin="round"/>
<path d="M6.29995 9.94999C6.59995 10.7 7.29995 11.3 8.19995 11.3C9.29995 11.3 10.2 10.4 10.2 9.29999C10.2 8.04999 8.19995 7.54999 8.19995 7.54999C8.19995 7.54999 6.19995 7.14999 6.19995 5.79999C6.19995 4.69999 7.09995 3.79999 8.19995 3.79999C9.04995 3.79999 9.79995 4.34999 10.1 5.14999" stroke="#606580" stroke-miterlimit="10" stroke-linecap="round" stroke-linejoin="round"/>
<path fill-rule="evenodd" clip-rule="evenodd" d="M8.25 3C8.25 3.65 8.25 3.65 8.25 3.5C8.25 3.5 8.25 3.25 8.25 3.4C8.25 3.55 8.25 3.75 8.25 3.75C8.25 3.75 8.25 3.15 8.25 3Z" stroke="#606580" stroke-miterlimit="10" stroke-linecap="round" stroke-linejoin="round"/>
<path d="M8.25 11.7C8.25 11.5 8.25 11.35 8.25 11.35C8.25 11.35 8.25 11.5 8.25 11.7ZM8.25 11.7C8.25 11.8 8.25 12.1 8.25 12.25" stroke="#606580" stroke-miterlimit="10" stroke-linecap="round" stroke-linejoin="round"/>
<path d="M12.55 12.1V11.35C12.55 10.7 13.05 10.2 13.7 10.2H13.75C14.4 10.2 14.9 10.7 14.9 11.35V12.1" stroke="#606580" stroke-miterlimit="10" stroke-linecap="round" stroke-linejoin="round"/>
<path d="M15.05 15H12.45C12.25 15 12.1 14.85 12.1 14.65V12.45C12.1 12.25 12.25 12.1 12.45 12.1H15.05C15.25 12.1 15.4 12.25 15.4 12.45V14.65C15.4 14.85 15.25 15 15.05 15Z" stroke="#606580" stroke-miterlimit="10" stroke-linecap="round" stroke-linejoin="round"/>
</svg>
