<svg width="17" height="17" viewBox="0 0 17 17" fill="none" xmlns="http://www.w3.org/2000/svg">
<path d="M6.70002 11.3V4.45001C6.70002 4.45001 6.70002 4.45001 8.45002 4.45001C10.2 4.45001 10.2 6.20001 10.2 6.20001C10.2 6.20001 10.2 7.95001 8.45002 7.95001C7.20002 7.95001 5.95002 7.95001 5.40002 7.95001" stroke="#606580" stroke-miterlimit="10" stroke-linecap="round" stroke-linejoin="round"/>
<path d="M8.49995 9.65002H5.44995" stroke="#606580" stroke-miterlimit="10" stroke-linecap="round" stroke-linejoin="round"/>
<path d="M13.6 5.3C12.65 3.05 10.4 1.5 7.80002 1.5C4.25002 1.5 1.40002 4.35 1.40002 7.85C1.40002 10.45 2.95002 12.7 5.20002 13.7" stroke="#606580" stroke-miterlimit="10" stroke-linecap="round" stroke-linejoin="round"/>
<path d="M15.6 6.84998L15.25 7.19998" stroke="#606580" stroke-linecap="round" stroke-linejoin="round"/>
<path d="M13.85 8.5L13.5 8.85" stroke="#606580" stroke-linecap="round" stroke-linejoin="round"/>
<path d="M12.1 10.15L11.75 10.5" stroke="#606580" stroke-linecap="round" stroke-linejoin="round"/>
<path d="M10.35 11.8L10 12.15" stroke="#606580" stroke-linecap="round" stroke-linejoin="round"/>
<path d="M8.6 13.45L8.25 13.8" stroke="#606580" stroke-linecap="round" stroke-linejoin="round"/>
<path d="M6.85 15.1L6.5 15.45" stroke="#606580" stroke-linecap="round" stroke-linejoin="round"/>
</svg>
