<svg width="17" height="16" viewBox="0 0 17 16" fill="none" xmlns="http://www.w3.org/2000/svg">
<path d="M4.2 13.15C2.55 12.1 1.5 10.25 1.5 8.19999C1.5 4.94999 4.15 2.29999 7.35 2.29999C9.15 2.29999 10.7 3.09999 11.8 4.34999" stroke="#606580" stroke-miterlimit="10" stroke-linecap="round" stroke-linejoin="round"/>
<path d="M10.25 12.95L8 13.7L8.75 11.45L14 6.19995L15.5 7.69995L10.25 12.95Z" stroke="#606580" stroke-miterlimit="10" stroke-linecap="round" stroke-linejoin="round"/>
<path d="M12.8 7.40002L14.25 8.90002" stroke="#606580" stroke-miterlimit="10" stroke-linecap="round" stroke-linejoin="round"/>
<path d="M6.2 11.35V5C6.2 5 6.2 5 7.8 5C9.4 5 9.4 6.6 9.4 6.6C9.4 6.6 9.4 8.2 7.8 8.2C6.65 8.2 5.5 8.2 5 8.2" stroke="#606580" stroke-miterlimit="10" stroke-linecap="round" stroke-linejoin="round"/>
<path d="M7.8 9.84998H5" stroke="#606580" stroke-miterlimit="10" stroke-linecap="round" stroke-linejoin="round"/>
</svg>
