<svg width="17" height="16" viewBox="0 0 17 16" fill="none" xmlns="http://www.w3.org/2000/svg">
<path d="M6.54998 5.85V3.5C6.54998 3.5 6.54998 3.5 7.49998 3.5C8.44998 3.5 8.44998 4.45 8.44998 4.45C8.44998 4.45 8.44998 5.4 7.49998 5.4C6.84998 5.4 6.14998 5.4 5.84998 5.4" stroke="#606580" stroke-miterlimit="10" stroke-linecap="round" stroke-linejoin="round"/>
<path d="M10 15C12.2091 15 14 13.2091 14 11C14 8.79086 12.2091 7 10 7C7.79086 7 6 8.79086 6 11C6 13.2091 7.79086 15 10 15Z" stroke="#606580" stroke-miterlimit="10" stroke-linecap="round" stroke-linejoin="round"/>
<path d="M9.15005 12.1C9.30005 12.45 9.60005 12.7 10 12.7C10.5 12.7 10.95 12.3 10.95 11.75C10.95 11.15 10 10.95 10 10.95C10 10.95 9.05005 10.75 9.05005 10.15C9.05005 9.64995 9.45005 9.19995 10 9.19995C10.4 9.19995 10.75 9.44995 10.85 9.79995" stroke="#606580" stroke-miterlimit="10" stroke-linecap="round" stroke-linejoin="round"/>
<path fill-rule="evenodd" clip-rule="evenodd" d="M10.05 8.90002C10.05 9.20002 10.05 9.20002 10.05 9.15002C10.05 9.15002 10.05 9.00003 10.05 9.10003C10.05 9.20003 10.05 9.25002 10.05 9.25002C10.05 9.25002 10.05 9.00002 10.05 8.90002Z" stroke="#606580" stroke-miterlimit="10" stroke-linecap="round" stroke-linejoin="round"/>
<path d="M10.05 12.9C10.05 12.8 10.05 12.75 10.05 12.75C10.05 12.75 10.05 12.8 10.05 12.9ZM10.05 12.9C10.05 12.95 10.05 13.05 10.05 13.15" stroke="#606580" stroke-miterlimit="10" stroke-linecap="round" stroke-linejoin="round"/>
<path d="M4.6 8.15C3.65 7.45 3 6.3 3 5C3 2.8 4.8 1 7 1C9.05 1 10.75 2.55 10.95 4.55C10.95 4.7 10.95 4.85 10.95 5" stroke="#606580" stroke-miterlimit="10" stroke-linecap="round" stroke-linejoin="round"/>
</svg>
