<svg width="17" height="17" viewBox="0 0 17 17" fill="none" xmlns="http://www.w3.org/2000/svg">
<path d="M8.5 15.5C4.65 15.5 1.5 12.35 1.5 8.5C1.5 4.65 4.65 1.5 8.5 1.5C12.35 1.5 15.5 4.65 15.5 8.5" stroke="#606580" stroke-miterlimit="10" stroke-linecap="round" stroke-linejoin="round"/>
<path d="M10.5 9.75002C10.05 8.80002 8.49998 8.40002 8.49998 8.40002C8.49998 8.40002 6.34998 8.00002 6.34998 6.55002C6.34998 5.35002 7.29998 4.40002 8.49998 4.40002C9.39998 4.40002 10.2 5.00002 10.5 5.80002" stroke="#606580" stroke-miterlimit="10" stroke-linecap="round" stroke-linejoin="round"/>
<path d="M6.5 11C6.8 11.8 7.6 12.4 8.5 12.4C8.55 12.4 8.65 12.4 8.7 12.4" stroke="#606580" stroke-miterlimit="10" stroke-linecap="round" stroke-linejoin="round"/>
<path fill-rule="evenodd" clip-rule="evenodd" d="M8.5 3.59998C8.5 4.29998 8.5 4.29998 8.5 4.14998C8.5 4.14998 8.5 3.84998 8.5 4.04998C8.5 4.24998 8.5 4.39998 8.5 4.39998C8.5 4.39998 8.5 3.79998 8.5 3.59998Z" stroke="#606580" stroke-miterlimit="10" stroke-linecap="round" stroke-linejoin="round"/>
<path d="M13.05 10.6V15.45" stroke="#606580" stroke-miterlimit="10" stroke-linecap="round" stroke-linejoin="round"/>
<path d="M15.5 13.05H10.65" stroke="#606580" stroke-miterlimit="10" stroke-linecap="round" stroke-linejoin="round"/>
</svg>
