<svg width="17" height="16" viewBox="0 0 17 16" fill="none" xmlns="http://www.w3.org/2000/svg">
<path d="M8.24998 13.9C4.69998 13.9 1.84998 11 1.84998 7.45C1.84998 3.9 4.69998 1 8.24998 1C11.8 1 14.7 3.9 14.7 7.45" stroke="#606580" stroke-miterlimit="10" stroke-linecap="round" stroke-linejoin="round"/>
<path d="M6.44998 9.69995C6.69998 10.45 7.44998 11 8.29998 11C9.39998 11 10.25 10.1 10.25 9.04995C10.25 7.79995 8.29998 7.34995 8.29998 7.34995C8.29998 7.34995 6.34998 6.94995 6.34998 5.64995C6.34998 4.54995 7.24998 3.69995 8.29998 3.69995C9.14998 3.69995 9.84998 4.24995 10.15 4.99995" stroke="#606580" stroke-miterlimit="10" stroke-linecap="round" stroke-linejoin="round"/>
<path fill-rule="evenodd" clip-rule="evenodd" d="M8.30005 2.90002C8.30005 3.55002 8.30005 3.55002 8.30005 3.40002C8.30005 3.40002 8.30005 3.15002 8.30005 3.30002C8.30005 3.50002 8.30005 3.65002 8.30005 3.65002C8.30005 3.65002 8.30005 3.10002 8.30005 2.90002Z" stroke="#606580" stroke-miterlimit="10" stroke-linecap="round" stroke-linejoin="round"/>
<path d="M8.30005 11.4C8.30005 11.2 8.30005 11.05 8.30005 11.05C8.30005 11.05 8.30005 11.25 8.30005 11.4ZM8.30005 11.4C8.30005 11.5 8.30005 11.75 8.30005 11.95" stroke="#606580" stroke-miterlimit="10" stroke-linecap="round" stroke-linejoin="round"/>
<path d="M15.1499 13.05C15.0499 11.35 13.3999 10 13.3999 10C13.3999 10 11.7499 11.35 11.6499 13.05C11.6499 13.1 11.6499 13.2 11.6499 13.25C11.6499 14.25 12.4499 15 13.3999 15C14.3499 15 15.1499 14.2 15.1499 13.25C15.1499 13.15 15.1499 13.1 15.1499 13.05Z" stroke="#606580" stroke-miterlimit="10" stroke-linecap="round" stroke-linejoin="round"/>
</svg>
