<svg width="17" height="17" viewBox="0 0 17 17" fill="none" xmlns="http://www.w3.org/2000/svg">
<path d="M7.15002 13.05C3.95002 13.05 1.40002 10.5 1.40002 7.35002C1.40002 4.20002 3.95002 1.65002 7.15002 1.65002C10.35 1.65002 12.85 4.20002 12.85 7.35002" stroke="#606580" stroke-miterlimit="10" stroke-linecap="round" stroke-linejoin="round"/>
<path d="M6.1 10.45V4.25C6.1 4.25 6.1 4.25 7.7 4.25C9.3 4.25 9.3 5.85 9.3 5.85C9.3 5.85 9.3 7.45 7.7 7.45C6.6 7.45 5.45 7.45 5 7.45" stroke="#606580" stroke-miterlimit="10" stroke-linecap="round" stroke-linejoin="round"/>
<path d="M7.7 8.95001H5" stroke="#606580" stroke-miterlimit="10" stroke-linecap="round" stroke-linejoin="round"/>
<path d="M11.05 12H10.1C9.89995 12 9.69995 12.2 9.69995 12.4V15C9.69995 15.2 9.89995 15.4 10.1 15.4H11.05V12Z" stroke="#606580" stroke-miterlimit="10" stroke-linecap="round" stroke-linejoin="round"/>
<path d="M11.05 12C11.6 11.35 12.3 11.5 12.85 9.89995L12.95 9.64995C13 9.49995 13.15 9.44995 13.3 9.44995C13.5 9.44995 13.7 9.59995 13.7 9.74995V11.05V11.6H15C15.35 11.6 15.6 11.85 15.55 12.15L15.1 14.7C15.05 15.1 14.6 15.4 14.1 15.4H11V12H11.05Z" stroke="#606580" stroke-miterlimit="10" stroke-linecap="round" stroke-linejoin="round"/>
</svg>
