<svg width="17" height="17" viewBox="0 0 17 17" fill="none" xmlns="http://www.w3.org/2000/svg">
<path d="M14.75 15.75H10.05C9.50005 15.75 9.05005 15.3 9.05005 14.75V10.05C9.05005 9.49999 9.50005 9.04999 10.05 9.04999H13.75C14.55 9.84999 15 10.3 15.75 11.05V14.75C15.75 15.3 15.3 15.75 14.75 15.75Z" stroke="#606580" stroke-miterlimit="10" stroke-linecap="round" stroke-linejoin="round"/>
<path d="M10.7 9.15002V11.35H14.15" stroke="#606580" stroke-miterlimit="10" stroke-linecap="round" stroke-linejoin="round"/>
<path d="M6.7 12.15C3.7 12.15 1.25 9.7 1.25 6.7C1.25 3.7 3.7 1.25 6.7 1.25C9.7 1.25 12.15 3.7 12.15 6.7" stroke="#606580" stroke-miterlimit="10" stroke-linecap="round" stroke-linejoin="round"/>
<path d="M5.69998 9.65V3.75C5.69998 3.75 5.69998 3.75 7.19998 3.75C8.69998 3.75 8.69998 5.25 8.69998 5.25C8.69998 5.25 8.69998 6.75 7.19998 6.75C6.14998 6.75 5.04998 6.75 4.59998 6.75" stroke="#606580" stroke-miterlimit="10" stroke-linecap="round" stroke-linejoin="round"/>
<path d="M7.2499 8.20001H4.6499" stroke="#606580" stroke-miterlimit="10" stroke-linecap="round" stroke-linejoin="round"/>
</svg>
