<svg width="17" height="17" viewBox="0 0 17 17" fill="none" xmlns="http://www.w3.org/2000/svg">
<path d="M8.20002 14.1C4.70002 14.1 1.90002 11.3 1.90002 7.8C1.90002 4.3 4.70002 1.5 8.20002 1.5C11.7 1.5 14.5 4.3 14.5 7.8" stroke="#606580" stroke-miterlimit="10" stroke-linecap="round" stroke-linejoin="round"/>
<path d="M7.05005 11.2V4.40002C7.05005 4.40002 7.05005 4.40002 8.80005 4.40002C10.55 4.40002 10.55 6.15002 10.55 6.15002C10.55 6.15002 10.55 7.90002 8.80005 7.90002C7.60005 7.90002 6.35005 7.90002 5.80005 7.90002" stroke="#606580" stroke-miterlimit="10" stroke-linecap="round" stroke-linejoin="round"/>
<path d="M8.80005 9.54999H5.80005" stroke="#606580" stroke-miterlimit="10" stroke-linecap="round" stroke-linejoin="round"/>
<path d="M15.1001 13.2C14.9501 11.05 12.8501 9.29999 12.8501 9.29999C12.8501 9.29999 10.7501 11 10.6001 13.2C10.6001 13.3 10.6001 13.35 10.6001 13.45C10.6001 14.7 11.6001 15.7 12.8501 15.7C14.1001 15.7 15.1001 14.7 15.1001 13.45C15.1001 13.35 15.1001 13.3 15.1001 13.2Z" stroke="#606580" stroke-miterlimit="10" stroke-linecap="round" stroke-linejoin="round"/>
</svg>
