<svg width="17" height="16" viewBox="0 0 17 16" fill="none" xmlns="http://www.w3.org/2000/svg">
<path d="M8 14.5C4.4 14.5 1.5 11.6 1.5 8C1.5 4.4 4.4 1.5 8 1.5C11.6 1.5 14.5 4.4 14.5 8" stroke="#606580" stroke-miterlimit="10" stroke-linecap="round" stroke-linejoin="round"/>
<path d="M6.1 10.3C6.4 11.05 7.1 11.6 7.95 11.6C9.05 11.6 9.9 10.7 9.9 9.65C9.9 8.4 7.95 7.95 7.95 7.95C7.95 7.95 6 7.55 6 6.2C6 5.1 6.9 4.25 7.95 4.25C8.8 4.25 9.55 4.8 9.8 5.55" stroke="#606580" stroke-miterlimit="10" stroke-linecap="round" stroke-linejoin="round"/>
<path fill-rule="evenodd" clip-rule="evenodd" d="M8 3.45001C8 4.10001 8 4.10001 8 3.95001C8 3.95001 8 3.70001 8 3.85001C8 4.00001 8 4.20001 8 4.20001C8 4.20001 8 3.65001 8 3.45001Z" stroke="#606580" stroke-miterlimit="10" stroke-linecap="round" stroke-linejoin="round"/>
<path d="M8 12C8 11.8 8 11.65 8 11.65C8 11.65 8 11.8 8 12ZM8 12C8 12.1 8 12.35 8 12.55" stroke="#606580" stroke-miterlimit="10" stroke-linecap="round" stroke-linejoin="round"/>
<path d="M10.75 12.9L12.2 14.35C12.3 14.45 12.5 14.45 12.6 14.35L15.5 11.45" stroke="#606580" stroke-miterlimit="10" stroke-linecap="round" stroke-linejoin="round"/>
</svg>
