<svg width="17" height="17" viewBox="0 0 17 17" fill="none" xmlns="http://www.w3.org/2000/svg">
<path d="M6.75005 9.2V4.25C6.75005 4.25 6.75005 4.25 8.40005 4.25C10.05 4.25 10.05 5.9 10.05 5.9C10.05 5.9 10.05 7.55 8.40005 7.55C7.25005 7.55 6.05005 7.55 5.55005 7.55" stroke="#606580" stroke-miterlimit="10" stroke-linecap="round" stroke-linejoin="round"/>
<path d="M6.75005 9.20001H5.55005" stroke="#606580" stroke-miterlimit="10" stroke-linecap="round" stroke-linejoin="round"/>
<path d="M13.25 5.1C12.3 3 10.2 1.5 7.75 1.5C4.45 1.5 1.75 4.2 1.75 7.5C1.75 9 2.3 10.4 3.2 11.45C3.4 11.7 3.65 11.95 3.9 12.15" stroke="#606580" stroke-miterlimit="10" stroke-linecap="round" stroke-linejoin="round"/>
<path d="M11.1 10.4L11.45 10" stroke="#606580" stroke-linecap="round" stroke-linejoin="round"/>
<path d="M12.85 8.65L14.25 7.25" stroke="#606580" stroke-linecap="round" stroke-linejoin="round" stroke-dasharray="0.98 0.98"/>
<path d="M14.8999 6.55001L15.2499 6.20001" stroke="#606580" stroke-linecap="round" stroke-linejoin="round"/>
<path d="M9.4499 12.65L9.9999 13.2L12.0499 12.65H7.8999" stroke="#606580" stroke-miterlimit="10" stroke-linecap="round" stroke-linejoin="round"/>
<path d="M6.69998 13.7C7.16942 13.7 7.54998 13.3194 7.54998 12.85C7.54998 12.3806 7.16942 12 6.69998 12C6.23053 12 5.84998 12.3806 5.84998 12.85C5.84998 13.3194 6.23053 13.7 6.69998 13.7Z" stroke="#606580" stroke-miterlimit="10" stroke-linecap="round" stroke-linejoin="round"/>
<path d="M8.7499 11.95L8.1499 11.35L8.7499 9.34998V13.5" stroke="#606580" stroke-miterlimit="10" stroke-linecap="round" stroke-linejoin="round"/>
<path d="M8.54995 15.5C9.01939 15.5 9.39995 15.1195 9.39995 14.65C9.39995 14.1806 9.01939 13.8 8.54995 13.8C8.08051 13.8 7.69995 14.1806 7.69995 14.65C7.69995 15.1195 8.08051 15.5 8.54995 15.5Z" stroke="#606580" stroke-miterlimit="10" stroke-linecap="round" stroke-linejoin="round"/>
</svg>
