<svg width="17" height="16" viewBox="0 0 17 16" fill="none" xmlns="http://www.w3.org/2000/svg">
<path d="M4.2 13.15C2.55 12.1 1.5 10.25 1.5 8.19999C1.5 4.94999 4.15 2.29999 7.35 2.29999C9.15 2.29999 10.7 3.09999 11.8 4.34999" stroke="#606580" stroke-miterlimit="10" stroke-linecap="round" stroke-linejoin="round"/>
<path d="M10.25 12.95L8 13.7L8.75 11.45L14 6.19995L15.5 7.69995L10.25 12.95Z" stroke="#606580" stroke-miterlimit="10" stroke-linecap="round" stroke-linejoin="round"/>
<path d="M12.8 7.40002L14.25 8.90002" stroke="#606580" stroke-miterlimit="10" stroke-linecap="round" stroke-linejoin="round"/>
<path d="M8.60005 8.69999C8.05005 8.29999 7.35005 8.14999 7.35005 8.14999C7.35005 8.14999 5.55005 7.79999 5.55005 6.59999C5.55005 5.59999 6.35005 4.79999 7.35005 4.79999C8.10005 4.79999 8.80005 5.29999 9.05005 5.99999" stroke="#606580" stroke-miterlimit="10" stroke-linecap="round" stroke-linejoin="round"/>
<path d="M5.69995 10.25C5.89995 10.8 6.34995 11.2 6.89995 11.35" stroke="#606580" stroke-miterlimit="10" stroke-linecap="round" stroke-linejoin="round"/>
<path fill-rule="evenodd" clip-rule="evenodd" d="M7.3999 4.04999C7.3999 4.64999 7.3999 4.64999 7.3999 4.49999C7.3999 4.49999 7.3999 4.24999 7.3999 4.39999C7.3999 4.54999 7.3999 4.69999 7.3999 4.69999C7.3999 4.69999 7.3999 4.24999 7.3999 4.04999Z" stroke="#606580" stroke-miterlimit="10" stroke-linecap="round" stroke-linejoin="round"/>
</svg>
