<svg width="17" height="17" viewBox="0 0 17 17" fill="none" xmlns="http://www.w3.org/2000/svg">
<path d="M10 15.5C12.2091 15.5 14 13.7091 14 11.5C14 9.29086 12.2091 7.5 10 7.5C7.79086 7.5 6 9.29086 6 11.5C6 13.7091 7.79086 15.5 10 15.5Z" stroke="#606580" stroke-miterlimit="10" stroke-linecap="round" stroke-linejoin="round"/>
<path d="M4.6 8.65C3.65 7.95 3 6.8 3 5.5C3 3.3 4.8 1.5 7 1.5C9.05 1.5 10.75 3.05 10.95 5.05C10.95 5.2 10.95 5.35 10.95 5.5" stroke="#606580" stroke-miterlimit="10" stroke-linecap="round" stroke-linejoin="round"/>
<path d="M9.40002 13.5V9.54999C9.40002 9.54999 9.40002 9.54999 10.4 9.54999C11.4 9.54999 11.4 10.55 11.4 10.55C11.4 10.55 11.4 11.55 10.4 11.55C9.70002 11.55 8.95002 11.55 8.65002 11.55" stroke="#606580" stroke-miterlimit="10" stroke-linecap="round" stroke-linejoin="round"/>
<path d="M10.4 12.55H8.65002" stroke="#606580" stroke-miterlimit="10" stroke-linecap="round" stroke-linejoin="round"/>
<path d="M6.99995 6.05005C6.99995 6.05005 5.94995 5.85005 5.94995 5.10005C5.94995 4.50005 6.44995 4.05005 6.99995 4.05005C7.44995 4.05005 7.84995 4.35005 7.99995 4.75005" stroke="#606580" stroke-miterlimit="10" stroke-linecap="round" stroke-linejoin="round"/>
<path fill-rule="evenodd" clip-rule="evenodd" d="M7.05005 3.59998C7.05005 3.94998 7.05005 3.94998 7.05005 3.84998C7.05005 3.84998 7.05005 3.69998 7.05005 3.79998C7.05005 3.89998 7.05005 3.99998 7.05005 3.99998C7.05005 3.99998 7.05005 3.69998 7.05005 3.59998Z" stroke="#606580" stroke-miterlimit="10" stroke-linecap="round" stroke-linejoin="round"/>
</svg>
