<svg width="17" height="16" viewBox="0 0 17 16" fill="none" xmlns="http://www.w3.org/2000/svg">
<path d="M6.69995 10.75V4C6.69995 4 6.69995 4 8.44995 4C10.2 4 10.2 5.75 10.2 5.75C10.2 5.75 10.2 7.5 8.44995 7.5C7.24995 7.5 5.99995 7.5 5.44995 7.5" stroke="#606580" stroke-miterlimit="10" stroke-linecap="round" stroke-linejoin="round"/>
<path d="M7.75 13.65C4.3 13.65 1.5 10.85 1.5 7.39998C1.5 3.94998 4.25 1.09998 7.75 1.09998C11.25 1.09998 14 3.89998 14 7.39998" stroke="#606580" stroke-miterlimit="10" stroke-linecap="round" stroke-linejoin="round"/>
<path d="M13.75 10.3H12.3" stroke="#606580" stroke-miterlimit="10" stroke-linecap="round" stroke-linejoin="round"/>
<path d="M11.6 10.3H11.1C10.8 10.3 10.6 10.55 10.6 10.8V14.35C10.6 14.65 10.85 14.85 11.1 14.85H15C15.3 14.85 15.5 14.6 15.5 14.35V10.8C15.5 10.5 15.25 10.3 15 10.3H14.5" stroke="#606580" stroke-miterlimit="10" stroke-linecap="round" stroke-linejoin="round"/>
<path d="M11.95 9.75H11.9C11.75 9.75 11.6 9.9 11.6 10.05V10.85C11.6 11 11.75 11.15 11.9 11.15H11.95C12.1 11.15 12.25 11 12.25 10.85V10.05C12.25 9.9 12.15 9.75 11.95 9.75Z" stroke="#606580" stroke-miterlimit="10" stroke-linecap="round" stroke-linejoin="round"/>
<path d="M14.2 9.75H14.15C14 9.75 13.85 9.9 13.85 10.05V10.85C13.85 11 14 11.15 14.15 11.15H14.2C14.35 11.15 14.5 11 14.5 10.85V10.05C14.5 9.9 14.35 9.75 14.2 9.75Z" stroke="#606580" stroke-miterlimit="10" stroke-linecap="round" stroke-linejoin="round"/>
<path d="M10.6499 12.8H15.3499" stroke="#606580" stroke-miterlimit="10" stroke-linecap="round" stroke-linejoin="round"/>
<path d="M8.39995 9.15002H5.44995" stroke="#606580" stroke-miterlimit="10" stroke-linecap="round" stroke-linejoin="round"/>
</svg>
