<svg width="17" height="17" viewBox="0 0 17 17" fill="none" xmlns="http://www.w3.org/2000/svg">
<path d="M14.7 8.10004C14.55 5.90004 13.25 3.85004 11.1 2.85004C9.50005 2.10004 7.80005 2.10004 6.30005 2.65004" stroke="#606580" stroke-miterlimit="10" stroke-linecap="round" stroke-linejoin="round"/>
<path d="M15.75 8L14.65 9.1L13.6 8" stroke="#606580" stroke-miterlimit="10" stroke-linecap="round" stroke-linejoin="round"/>
<path d="M2.30005 8.90002C2.45005 11.1 3.75005 13.15 5.90005 14.15C7.45005 14.85 9.15005 14.9 10.6 14.35" stroke="#606580" stroke-miterlimit="10" stroke-linecap="round" stroke-linejoin="round"/>
<path d="M1.25 9.00002L2.35 7.90002L3.4 9.00002" stroke="#606580" stroke-miterlimit="10" stroke-linecap="round" stroke-linejoin="round"/>
<path d="M7.35005 12.1V5.25C7.35005 5.25 7.35005 5.25 9.10005 5.25C10.85 5.25 10.85 7 10.85 7C10.85 7 10.85 8.75 9.10005 8.75C7.85005 8.75 6.60005 8.75 6.05005 8.75" stroke="#606580" stroke-miterlimit="10" stroke-linecap="round" stroke-linejoin="round"/>
<path d="M9.14998 10.45H6.09998" stroke="#606580" stroke-miterlimit="10" stroke-linecap="round" stroke-linejoin="round"/>
</svg>
