<svg width="17" height="17" viewBox="0 0 17 17" fill="none" xmlns="http://www.w3.org/2000/svg">
<path d="M14.7 8.10004C14.55 5.90004 13.25 3.85004 11.1 2.85004C9.50005 2.10004 7.80005 2.10004 6.30005 2.65004" stroke="#606580" stroke-miterlimit="10" stroke-linecap="round" stroke-linejoin="round"/>
<path d="M15.75 8L14.65 9.1L13.6 8" stroke="#606580" stroke-miterlimit="10" stroke-linecap="round" stroke-linejoin="round"/>
<path d="M2.30005 8.90002C2.45005 11.1 3.75005 13.15 5.90005 14.15C7.45005 14.85 9.15005 14.9 10.6 14.35" stroke="#606580" stroke-miterlimit="10" stroke-linecap="round" stroke-linejoin="round"/>
<path d="M1.25 9.00002L2.35 7.90002L3.4 9.00002" stroke="#606580" stroke-miterlimit="10" stroke-linecap="round" stroke-linejoin="round"/>
<path d="M7.00002 10.4C7.25002 11 7.80002 11.45 8.50002 11.45C9.40002 11.45 10.1 10.75 10.1 9.85001C10.1 8.85001 8.50002 8.45001 8.50002 8.45001C8.50002 8.45001 6.90002 8.15001 6.90002 7.05001C6.90002 6.15001 7.60002 5.45001 8.50002 5.45001C9.20002 5.45001 9.80002 5.90001 10 6.50001" stroke="#606580" stroke-miterlimit="10" stroke-linecap="round" stroke-linejoin="round"/>
<path fill-rule="evenodd" clip-rule="evenodd" d="M8.5 4.80005C8.5 5.35005 8.5 5.35005 8.5 5.20005C8.5 5.20005 8.5 5.00005 8.5 5.15005C8.5 5.30005 8.5 5.40005 8.5 5.40005C8.5 5.40005 8.5 4.95005 8.5 4.80005Z" stroke="#606580" stroke-miterlimit="10" stroke-linecap="round" stroke-linejoin="round"/>
<path d="M8.5 11.8C8.5 11.65 8.5 11.55 8.5 11.55C8.5 11.55 8.5 11.65 8.5 11.8ZM8.5 11.8C8.5 11.9 8.5 12.1 8.5 12.25" stroke="#606580" stroke-miterlimit="10" stroke-linecap="round" stroke-linejoin="round"/>
</svg>
