<svg width="17" height="16" viewBox="0 0 17 16" fill="none" xmlns="http://www.w3.org/2000/svg">
<path d="M14.6 14.95H2.4C1.9 14.95 1.5 14.55 1.5 14.05V4.45001H14.6C15.1 4.45001 15.5 4.85001 15.5 5.35001V14.05C15.5 14.55 15.1 14.95 14.6 14.95Z" stroke="#606580" stroke-miterlimit="10" stroke-linecap="round" stroke-linejoin="round"/>
<path d="M15.5 11.45H12.95C12.45 11.45 12 11.05 12 10.5V8.90001C12 8.40001 12.4 7.95001 12.95 7.95001H15.5V11.45Z" stroke="#606580" stroke-miterlimit="10" stroke-linecap="round" stroke-linejoin="round"/>
<path d="M12 2.70003V1.45003C12 1.20003 11.75 1.00003 11.5 1.10003L1.5 4.45003L13.3 2.75003C13.55 2.70003 13.75 2.90003 13.75 3.15003V4.45003" stroke="#606580" stroke-miterlimit="10" stroke-linecap="round" stroke-linejoin="round"/>
</svg>
