<svg width="17" height="17" viewBox="0 0 17 17" fill="none" xmlns="http://www.w3.org/2000/svg">
<path d="M10.6 12.45L11.5 13.35C11.55 13.4 11.65 13.4 11.7 13.35L13.45 11.6" stroke="#606580" stroke-miterlimit="10" stroke-linecap="round" stroke-linejoin="round"/>
<path d="M12 16C13.933 16 15.5 14.433 15.5 12.5C15.5 10.567 13.933 9 12 9C10.067 9 8.5 10.567 8.5 12.5C8.5 14.433 10.067 16 12 16Z" stroke="#606580" stroke-miterlimit="10" stroke-linecap="round" stroke-linejoin="round"/>
<path d="M8.5 5L13.5 7.5H1.5V12H7.05" stroke="#606580" stroke-miterlimit="10" stroke-linecap="round" stroke-linejoin="round"/>
<path d="M1.5 7.49999L6.25 5.14999" stroke="#606580" stroke-miterlimit="10" stroke-linecap="round" stroke-linejoin="round"/>
<path d="M8.5 2.25H6.5V3.4H8.5V2.25Z" stroke="#606580" stroke-miterlimit="10" stroke-linecap="round" stroke-linejoin="round"/>
<path d="M7.5 3.75C8.05 3.75 8.5 4.2 8.5 4.75C8.5 5.3 8.05 5.75 7.5 5.75C6.95 5.75 6.5 5.3 6.5 4.75" stroke="#606580" stroke-miterlimit="10" stroke-linecap="round" stroke-linejoin="round"/>
<path d="M7.5 2.25V1" stroke="#606580" stroke-miterlimit="10" stroke-linecap="round" stroke-linejoin="round"/>
</svg>
