<svg width="16" height="17" viewBox="0 0 16 17" fill="none" xmlns="http://www.w3.org/2000/svg">
<path d="M0.800049 4.2H10.15V1.9C10.15 1.8 10.3 1.7 10.4 1.8L15.05 6.45C15.25 6.65 15.25 6.95 15.05 7.15L10.4 11.8C10.3 11.9 10.15 11.85 10.15 11.7V9.4H8.50005" stroke="#606580" stroke-miterlimit="10" stroke-linecap="round" stroke-linejoin="round"/>
<path d="M4.90007 8.65003L1.35007 14.8C1.25007 15 1.40007 15.25 1.60007 15.25H8.70007C8.90007 15.25 9.05007 15 8.95007 14.8L5.40007 8.65003C5.30007 8.45003 5.00007 8.45003 4.90007 8.65003Z" stroke="#606580" stroke-miterlimit="10" stroke-linecap="round" stroke-linejoin="round"/>
<path d="M5.1499 11.2V12.55" stroke="#606580" stroke-miterlimit="10" stroke-linecap="round" stroke-linejoin="round"/>
<path d="M5.15002 13.7V13.9" stroke="#606580" stroke-miterlimit="10" stroke-linecap="round" stroke-linejoin="round"/>
</svg>
