<svg width="16" height="16" viewBox="0 0 16 16" fill="none" xmlns="http://www.w3.org/2000/svg">
<path d="M0.849976 11.45H10.2V13.75C10.2 13.85 10.35 13.95 10.45 13.85L15.1 9.2C15.3 9 15.3 8.7 15.1 8.5L10.45 3.85C10.35 3.75 10.2 3.8 10.2 3.95V6.25H9.04998" stroke="#606580" stroke-miterlimit="10" stroke-linecap="round" stroke-linejoin="round"/>
<path d="M4 4V5.25" stroke="#606580" stroke-miterlimit="10" stroke-linecap="round" stroke-linejoin="round"/>
<path d="M4 7V7.2" stroke="#606580" stroke-miterlimit="10" stroke-linecap="round" stroke-linejoin="round"/>
<path d="M4 9C5.933 9 7.5 7.433 7.5 5.5C7.5 3.567 5.933 2 4 2C2.067 2 0.5 3.567 0.5 5.5C0.5 7.433 2.067 9 4 9Z" stroke="#606580" stroke-miterlimit="10" stroke-linecap="round" stroke-linejoin="round"/>
</svg>
