<svg width="16" height="16" viewBox="0 0 16 16" fill="none" xmlns="http://www.w3.org/2000/svg">
<path d="M3.50007 5.99997H1.20007V9.99997H2.95007C3.45007 9.99997 3.90007 9.59997 3.90007 9.04997V8.89997C3.90007 8.39997 3.50007 7.94997 2.95007 7.94997H1.20007" stroke="#606580" stroke-miterlimit="10" stroke-linecap="round" stroke-linejoin="round"/>
<path d="M5.2002 9.99997H6.7502C7.2502 9.99997 7.7002 9.54997 7.7002 8.99997C7.7002 8.44997 7.3002 7.99997 6.7502 7.99997H6.3502" stroke="#606580" stroke-miterlimit="10" stroke-linecap="round" stroke-linejoin="round"/>
<path d="M6.35013 7.99997H6.75013C7.25013 7.99997 7.70013 7.54997 7.70013 6.99997C7.70013 6.44997 7.30013 5.99997 6.75013 5.99997H5.20013" stroke="#606580" stroke-miterlimit="10" stroke-linecap="round" stroke-linejoin="round"/>
<path d="M1.20001 12.55H8.00001V14.65C8.00001 14.8 8.20001 14.9 8.30001 14.8L9.95001 13.15L13.35 9.74999L14.65 8.44999C14.9 8.19999 14.9 7.74999 14.65 7.49999L8.30001 1.19999C8.20001 1.09999 8.00001 1.14999 8.00001 1.34999V3.44999H1.20001" stroke="#606580" stroke-miterlimit="10" stroke-linecap="round" stroke-linejoin="round"/>
</svg>
