<svg width="16" height="16" viewBox="0 0 16 16" fill="none" xmlns="http://www.w3.org/2000/svg">
<path d="M1.20001 12.55H8.00001V14.65C8.00001 14.8 8.20001 14.9 8.30001 14.8L9.95001 13.15L13.35 9.74999L14.65 8.44999C14.9 8.19999 14.9 7.74999 14.65 7.49999L8.30001 1.19999C8.20001 1.09999 8.00001 1.14999 8.00001 1.34999V3.44999H1.20001" stroke="#606580" stroke-miterlimit="10" stroke-linecap="round" stroke-linejoin="round"/>
<path d="M5.7002 9.95001H7.2502C7.7502 9.95001 8.2002 9.50001 8.2002 8.95001C8.2002 8.40001 7.8002 7.95001 7.2502 7.95001H6.8502" stroke="#606580" stroke-miterlimit="10" stroke-linecap="round" stroke-linejoin="round"/>
<path d="M6.85013 7.94998H7.25013C7.75013 7.94998 8.20013 7.49998 8.20013 6.94998C8.20013 6.39998 7.80013 5.94998 7.25013 5.94998H5.70013" stroke="#606580" stroke-miterlimit="10" stroke-linecap="round" stroke-linejoin="round"/>
<path d="M1.75012 8.94998V5.94998H3.90012V8.94998" stroke="#606580" stroke-miterlimit="10" stroke-linecap="round" stroke-linejoin="round"/>
<path d="M1.20013 9.94998V8.94998H4.50013V9.94998" stroke="#606580" stroke-miterlimit="10" stroke-linecap="round" stroke-linejoin="round"/>
</svg>
