<svg width="17" height="17" viewBox="0 0 17 17" fill="none" xmlns="http://www.w3.org/2000/svg">
<path d="M1.23601 14.95H14.536" stroke="#606580" stroke-miterlimit="10" stroke-linecap="round" stroke-linejoin="round"/>
<path d="M1.23605 2.04999H3.68605C4.63605 2.04999 5.53605 2.44999 6.13605 3.19999L8.43605 5.89999L13.936 7.04999C14.786 7.24999 15.436 7.94999 15.536 8.79999L15.736 10.4C15.836 11 15.386 11.55 14.786 11.55H13.086" stroke="#606580" stroke-miterlimit="10" stroke-linecap="round" stroke-linejoin="round"/>
<path d="M7.43604 11.55H1.23604" stroke="#606580" stroke-miterlimit="10" stroke-linecap="round" stroke-linejoin="round"/>
<path d="M10.1361 14.45C8.83821 14.45 7.78608 13.3979 7.78608 12.1C7.78608 10.8021 8.83821 9.75 10.1361 9.75C11.434 9.75 12.4861 10.8021 12.4861 12.1C12.4861 13.3979 11.434 14.45 10.1361 14.45Z" stroke="#606580" stroke-miterlimit="10" stroke-linecap="round" stroke-linejoin="round"/>
<path d="M8.48608 6H2.48608L1.48608 4" stroke="#606580" stroke-miterlimit="10" stroke-linecap="round" stroke-linejoin="round"/>
</svg>
