<svg width="16" height="16" viewBox="0 0 16 16" fill="none" xmlns="http://www.w3.org/2000/svg">
<path d="M2.7 10.8C3.25228 10.8 3.7 10.3523 3.7 9.79999C3.7 9.2477 3.25228 8.79999 2.7 8.79999C2.14771 8.79999 1.7 9.2477 1.7 9.79999C1.7 10.3523 2.14771 10.8 2.7 10.8Z" stroke="#606580" stroke-miterlimit="10" stroke-linecap="round" stroke-linejoin="round"/>
<path d="M12.25 10.8C12.8023 10.8 13.25 10.3523 13.25 9.79999C13.25 9.2477 12.8023 8.79999 12.25 8.79999C11.6977 8.79999 11.25 9.2477 11.25 9.79999C11.25 10.3523 11.6977 10.8 12.25 10.8Z" stroke="#606580" stroke-miterlimit="10" stroke-linecap="round" stroke-linejoin="round"/>
<path d="M3.95 9.59998H10.9" stroke="#606580" stroke-miterlimit="10" stroke-linecap="round" stroke-linejoin="round"/>
<path d="M13.5 9.60001H15.05L15.5 8.40001C14.3 7.50001 12.9 7.05001 11.4 7.05001H10.95C10.95 7.05001 9.15 5.25001 6.4 5.25001C4.9 5.20001 3 5.50001 3 5.50001L1.85 6.60001L0.5 7.05001V8.35001C0.5 8.65001 0.7 8.95001 1 9.05001L1.5 9.20001" stroke="#606580" stroke-miterlimit="10" stroke-linecap="round" stroke-linejoin="round"/>
<path d="M3 6L3.7 6.95L4 7.05H10.95" stroke="#606580" stroke-miterlimit="10" stroke-linecap="round" stroke-linejoin="round"/>
<path d="M4.89999 5.54999L5.89999 6.84999" stroke="#606580" stroke-miterlimit="10" stroke-linecap="round" stroke-linejoin="round"/>
</svg>
