<svg width="17" height="17" viewBox="0 0 17 17" fill="none" xmlns="http://www.w3.org/2000/svg">
<path d="M11.5327 11.4C10.5662 11.4 9.78266 10.6165 9.78266 9.65002C9.78266 8.68353 10.5662 7.90002 11.5327 7.90002C12.4992 7.90002 13.2827 8.68353 13.2827 9.65002C13.2827 10.6165 12.4992 11.4 11.5327 11.4Z" stroke="#606580" stroke-miterlimit="10" stroke-linecap="round" stroke-linejoin="round"/>
<path d="M1.78284 2.15002H6.63284C7.38284 2.15002 8.08284 2.50002 8.53284 3.05002L10.2328 5.05002L15.4328 6.15002L15.6828 8.40002C15.7828 8.85002 15.4328 9.25002 14.9828 9.25002H13.7328" stroke="#606580" stroke-miterlimit="10" stroke-linecap="round" stroke-linejoin="round"/>
<path d="M2.78281 14.3L5.03281 15.5L7.18281 14.3C7.63281 14.05 7.93281 13.55 7.93281 13V9.05L4.98281 9L2.03281 9.05V13C1.98281 13.55 2.28281 14.05 2.78281 14.3Z" stroke="#606580" stroke-miterlimit="10" stroke-linecap="round" stroke-linejoin="round"/>
<path d="M3.43281 11.7L4.28281 12.55C4.38281 12.65 4.58281 12.65 4.73281 12.55L6.48281 10.75" stroke="#606580" stroke-miterlimit="10" stroke-linecap="round" stroke-linejoin="round"/>
</svg>
