<svg width="17" height="17" viewBox="0 0 17 17" fill="none" xmlns="http://www.w3.org/2000/svg">
<path d="M1.79998 2.15002H6.64998C7.39998 2.15002 8.09998 2.50002 8.54998 3.05002L10.25 5.05002L15.45 6.15002L15.7 8.40002C15.8 8.85002 15.45 9.25002 15 9.25002H13.75" stroke="#606580" stroke-miterlimit="10" stroke-linecap="round" stroke-linejoin="round"/>
<path d="M11.55 11.4C10.5835 11.4 9.79999 10.6165 9.79999 9.65002C9.79999 8.68353 10.5835 7.90002 11.55 7.90002C12.5165 7.90002 13.3 8.68353 13.3 9.65002C13.3 10.6165 12.5165 11.4 11.55 11.4Z" stroke="#606580" stroke-miterlimit="10" stroke-linecap="round" stroke-linejoin="round"/>
<path d="M5.60002 8.24999L9.10002 14.25C9.30002 14.6 9.05002 15.05 8.65002 15.05H1.70002C1.30002 15.05 1.05002 14.6 1.25002 14.25L4.75002 8.24999C4.90002 7.89999 5.40002 7.89999 5.60002 8.24999Z" stroke="#606580" stroke-miterlimit="10" stroke-linecap="round" stroke-linejoin="round"/>
<path d="M5.15002 10.7V12.15" stroke="#606580" stroke-miterlimit="10" stroke-linecap="round" stroke-linejoin="round"/>
<path d="M5.15002 13.4V13.55" stroke="#606580" stroke-miterlimit="10" stroke-linecap="round" stroke-linejoin="round"/>
</svg>
