<svg width="17" height="16" viewBox="0 0 17 16" fill="none" xmlns="http://www.w3.org/2000/svg">
<path d="M1.25 6.34998V4.84998C1.25 3.99998 1.95 3.34998 2.75 3.34998H8.6C9.45 3.34998 10.1 4.04998 10.1 4.84998V6.34998C10.1 7.19998 9.4 7.84998 8.6 7.84998H7.3" stroke="#606580" stroke-miterlimit="10" stroke-linecap="round" stroke-linejoin="round"/>
<path d="M13.05 11.65C13.5471 11.65 13.95 11.247 13.95 10.75C13.95 10.2529 13.5471 9.84998 13.05 9.84998C12.553 9.84998 12.15 10.2529 12.15 10.75C12.15 11.247 12.553 11.65 13.05 11.65Z" stroke="#606580" stroke-miterlimit="10" stroke-linecap="round" stroke-linejoin="round"/>
<path d="M10.7 10H8.55005" stroke="#606580" stroke-miterlimit="10" stroke-linecap="round" stroke-linejoin="round"/>
<path d="M15.35 9.69998L15.75 8.79998V6.69998C15.75 6.29998 15.7 5.89998 15.55 5.49998L15 3.89998C14.9 3.54998 14.6 3.34998 14.25 3.34998H12.1V7.89998H7" stroke="#606580" stroke-miterlimit="10" stroke-linecap="round" stroke-linejoin="round"/>
<path d="M4.40015 8.20001L6.65015 10.45L4.40015 12.65" stroke="#606580" stroke-miterlimit="10" stroke-linecap="round" stroke-linejoin="round"/>
<path d="M1.40002 8.20001L3.65002 10.45L1.40002 12.65" stroke="#606580" stroke-miterlimit="10" stroke-linecap="round" stroke-linejoin="round"/>
</svg>
