<svg width="16" height="17" viewBox="0 0 16 17" fill="none" xmlns="http://www.w3.org/2000/svg">
<path d="M10.3 11.95C10.75 12.85 11.65 13.5 12.75 13.5C14.25 13.5 15.5 12.3 15.5 10.75C15.5 9.2 14.3 8 12.75 8C11.7 8 10.8 8.6 10.35 9.45" stroke="#606580" stroke-miterlimit="10" stroke-linecap="round" stroke-linejoin="round"/>
<path d="M3.69995 13.5C4.80452 13.5 5.69995 12.6046 5.69995 11.5C5.69995 10.3954 4.80452 9.5 3.69995 9.5C2.59538 9.5 1.69995 10.3954 1.69995 11.5C1.69995 12.6046 2.59538 13.5 3.69995 13.5Z" stroke="#606580" stroke-miterlimit="10" stroke-linecap="round" stroke-linejoin="round"/>
<path d="M5.69995 10.8H7.59995" stroke="#606580" stroke-miterlimit="10" stroke-linecap="round" stroke-linejoin="round"/>
<path d="M9.95 7.55L8.6 7.3L7.6 3.5H3.8V6.5H1.45L0.5 8.95V10.8H1.5" stroke="#606580" stroke-miterlimit="10" stroke-linecap="round" stroke-linejoin="round"/>
<path d="M8.60005 7.29998H5.70005L3.80005 6.59998" stroke="#606580" stroke-miterlimit="10" stroke-linecap="round" stroke-linejoin="round"/>
<path d="M13.35 9.70001H8.05005V11.8H13.35V9.70001Z" stroke="#606580" stroke-miterlimit="10" stroke-linecap="round" stroke-linejoin="round"/>
</svg>
