<svg width="17" height="16" viewBox="0 0 17 16" fill="none" xmlns="http://www.w3.org/2000/svg">
<path d="M12.8999 8.25L15.1499 10.5L12.8999 12.75" stroke="#606580" stroke-miterlimit="10" stroke-linecap="round" stroke-linejoin="round"/>
<path d="M10.5999 10.5H15.1499" stroke="#606580" stroke-miterlimit="10" stroke-linecap="round" stroke-linejoin="round"/>
<path d="M8.6 7.79999H2.75C1.9 7.79999 1.25 7.09999 1.25 6.29999V4.79999C1.25 3.94999 1.95 3.29999 2.75 3.29999H8.6C9.45 3.29999 10.1 3.99999 10.1 4.79999V6.29999C10.15 7.14999 9.45 7.79999 8.6 7.79999Z" stroke="#606580" stroke-miterlimit="10" stroke-linecap="round" stroke-linejoin="round"/>
<path d="M2.95005 11.6C3.44711 11.6 3.85005 11.197 3.85005 10.7C3.85005 10.2029 3.44711 9.79999 2.95005 9.79999C2.45299 9.79999 2.05005 10.2029 2.05005 10.7C2.05005 11.197 2.45299 11.6 2.95005 11.6Z" stroke="#606580" stroke-miterlimit="10" stroke-linecap="round" stroke-linejoin="round"/>
<path d="M5.24998 11.6C5.74703 11.6 6.14998 11.197 6.14998 10.7C6.14998 10.2029 5.74703 9.79999 5.24998 9.79999C4.75292 9.79999 4.34998 10.2029 4.34998 10.7C4.34998 11.197 4.75292 11.6 5.24998 11.6Z" stroke="#606580" stroke-miterlimit="10" stroke-linecap="round" stroke-linejoin="round"/>
<path d="M8.50005 9.95001H7.55005" stroke="#606580" stroke-miterlimit="10" stroke-linecap="round" stroke-linejoin="round"/>
<path d="M15.75 7.7V6.6C15.75 6.2 15.7 5.8 15.55 5.4L15 3.8C14.9 3.45 14.6 3.25 14.25 3.25H12.1V6" stroke="#606580" stroke-miterlimit="10" stroke-linecap="round" stroke-linejoin="round"/>
</svg>
