<svg width="17" height="17" viewBox="0 0 17 17" fill="none" xmlns="http://www.w3.org/2000/svg">
<path d="M2.75 3.10003L2.4 5.70003L1 7.10003V11.75C1 12.05 1.25 12.25 1.5 12.25H15.5C15.8 12.25 16 12 16 11.75V7.10003L14.6 5.70003L14.25 3.10003C14.2 2.70003 13.85 2.45003 13.45 2.45003H3.55C3.15 2.40003 2.85 2.70003 2.75 3.10003Z" stroke="#606580" stroke-miterlimit="10" stroke-linecap="round" stroke-linejoin="round"/>
<path d="M2.40002 5.70001H14.6" stroke="#606580" stroke-miterlimit="10" stroke-linecap="round" stroke-linejoin="round"/>
<path d="M5.05002 12.25V14.6H2.40002V12.25" stroke="#606580" stroke-miterlimit="10" stroke-linecap="round" stroke-linejoin="round"/>
<path d="M14.6 12.25V14.6H11.95V12.25" stroke="#606580" stroke-miterlimit="10" stroke-linecap="round" stroke-linejoin="round"/>
<path d="M2.90002 8.04999H4.30002" stroke="#606580" stroke-miterlimit="10" stroke-linecap="round" stroke-linejoin="round"/>
<path d="M12.7 8.04999H14.15" stroke="#606580" stroke-miterlimit="10" stroke-linecap="round" stroke-linejoin="round"/>
<path d="M1 10.4H15.55" stroke="#606580" stroke-miterlimit="10" stroke-linecap="round" stroke-linejoin="round"/>
</svg>
