<svg width="17" height="17" viewBox="0 0 17 17" fill="none" xmlns="http://www.w3.org/2000/svg">
<path d="M1.79998 2.15002H6.64998C7.39998 2.15002 8.09998 2.50002 8.54998 3.05002L10.25 5.05002L15.45 6.15002L15.7 8.40002C15.8 8.85002 15.45 9.25002 15 9.25002H13.75" stroke="#606580" stroke-miterlimit="10" stroke-linecap="round" stroke-linejoin="round"/>
<path d="M11.55 11.4C10.5835 11.4 9.79999 10.6165 9.79999 9.65002C9.79999 8.68353 10.5835 7.90002 11.55 7.90002C12.5165 7.90002 13.3 8.68353 13.3 9.65002C13.3 10.6165 12.5165 11.4 11.55 11.4Z" stroke="#606580" stroke-miterlimit="10" stroke-linecap="round" stroke-linejoin="round"/>
<path d="M3.6499 12.15L4.5499 13.05C4.5999 13.1 4.6999 13.1 4.7499 13.05L6.4999 11.3" stroke="#606580" stroke-miterlimit="10" stroke-linecap="round" stroke-linejoin="round"/>
<path d="M5.04999 15.7C6.98298 15.7 8.54999 14.133 8.54999 12.2C8.54999 10.267 6.98298 8.70001 5.04999 8.70001C3.11699 8.70001 1.54999 10.267 1.54999 12.2C1.54999 14.133 3.11699 15.7 5.04999 15.7Z" stroke="#606580" stroke-miterlimit="10" stroke-linecap="round" stroke-linejoin="round"/>
</svg>
