<svg width="16" height="16" viewBox="0 0 16 16" fill="none" xmlns="http://www.w3.org/2000/svg">
<path d="M12.6 13.25C11.35 14.35 9.75 15 8 15C4.15 15 1 11.85 1 8C1 4.15 4.15 1 8 1C9.8 1 11.45 1.7 12.7 2.8" stroke="#606580" stroke-miterlimit="10" stroke-linecap="round" stroke-linejoin="round"/>
<path d="M7.7 6.84999C7.7 6.19999 8.25 5.64999 8.9 5.64999H9.3C9.95 5.64999 10.5 6.19999 10.5 6.84999C10.5 7.09999 10.4 7.34999 10.2 7.54999L7.5 10.5H10.55" stroke="#606580" stroke-miterlimit="10" stroke-linecap="round" stroke-linejoin="round"/>
<path d="M13.85 10.5H13.35C12.7 10.5 12.2 9.99999 12.2 9.34999V6.79999C12.2 6.14999 12.7 5.64999 13.35 5.64999H13.85C14.5 5.64999 15 6.14999 15 6.79999V9.34999C15 9.94999 14.5 10.5 13.85 10.5Z" stroke="#606580" stroke-miterlimit="10" stroke-linecap="round" stroke-linejoin="round"/>
<path d="M3.5 9.54999L5.5 8.04999L3.5 6.54999" stroke="#606580" stroke-miterlimit="10" stroke-linecap="round" stroke-linejoin="round"/>
</svg>
