<svg width="16" height="16" viewBox="0 0 16 16" fill="none" xmlns="http://www.w3.org/2000/svg">
<path d="M1.14999 2.20001H5.99999C6.74999 2.20001 7.44999 2.55001 7.89999 3.10001L9.59999 5.10001L14.75 6.20001L15 8.45001C15.1 8.90001 14.75 9.30001 14.3 9.30001H13.05" stroke="#606580" stroke-miterlimit="10" stroke-linecap="round" stroke-linejoin="round"/>
<path d="M10.85 11.45C11.8165 11.45 12.6 10.6665 12.6 9.70001C12.6 8.73351 11.8165 7.95001 10.85 7.95001C9.88349 7.95001 9.09999 8.73351 9.09999 9.70001C9.09999 10.6665 9.88349 11.45 10.85 11.45Z" stroke="#606580" stroke-miterlimit="10" stroke-linecap="round" stroke-linejoin="round"/>
<path d="M6.60001 12.9C7.10001 12.9 7.50001 13.3 7.50001 13.8C7.50001 14.3 7.10001 14.7 6.60001 14.7" stroke="#606580" stroke-miterlimit="10" stroke-linecap="round" stroke-linejoin="round"/>
<path d="M6.6 14.7C6.15 14.7 5.2 14.7 5.2 14.7V11.05H6.6C7.1 11.05 7.5 11.45 7.5 11.95C7.5 12.45 7.1 12.85 6.6 12.85H5.2" stroke="#606580" stroke-miterlimit="10" stroke-linecap="round" stroke-linejoin="round"/>
<path d="M2.60001 12.9C3.10001 12.9 3.50001 13.3 3.50001 13.8C3.50001 14.3 3.10001 14.7 2.60001 14.7" stroke="#606580" stroke-miterlimit="10" stroke-linecap="round" stroke-linejoin="round"/>
<path d="M2.6 12.9H1.2" stroke="#606580" stroke-miterlimit="10" stroke-linecap="round" stroke-linejoin="round"/>
<path d="M2.6 14.7C2.15 14.7 1.2 14.7 1.2 14.7V11.05H3.35" stroke="#606580" stroke-miterlimit="10" stroke-linecap="round" stroke-linejoin="round"/>
</svg>
