<svg width="17" height="17" viewBox="0 0 17 17" fill="none" xmlns="http://www.w3.org/2000/svg">
<path d="M3.6 3.60002L2.9 6.85002L1.75 7.75002C1.25 8.05002 1 8.60002 1 9.15002V11.5C1 11.8 1.25 12 1.5 12H15.5C15.8 12 16 11.75 16 11.5V9.15002C16 8.60002 15.75 8.05002 15.3 7.75002L14.15 6.85002L13.45 3.60002C13.35 3.05002 12.85 2.65002 12.25 2.65002H4.8C4.2 2.65002 3.7 3.05002 3.6 3.60002Z" stroke="#606580" stroke-miterlimit="10" stroke-linecap="round" stroke-linejoin="round"/>
<path d="M2.90002 6.84998H14.15" stroke="#606580" stroke-miterlimit="10" stroke-linecap="round" stroke-linejoin="round"/>
<path d="M4.55002 12V14.35H2.40002V12" stroke="#606580" stroke-miterlimit="10" stroke-linecap="round" stroke-linejoin="round"/>
<path d="M14.6 12V14.35H12.45V12" stroke="#606580" stroke-miterlimit="10" stroke-linecap="round" stroke-linejoin="round"/>
<path d="M2.90002 9.65002H5.20002" stroke="#606580" stroke-miterlimit="10" stroke-linecap="round" stroke-linejoin="round"/>
<path d="M11.8 9.65002H14.15" stroke="#606580" stroke-miterlimit="10" stroke-linecap="round" stroke-linejoin="round"/>
</svg>
