<svg width="16" height="16" viewBox="0 0 16 16" fill="none" xmlns="http://www.w3.org/2000/svg">
<path d="M2.15 6.20002L4.65 5.95002C5.1 5.90002 5.6 5.90002 6.05 5.90002H9.65C10.1 5.90002 10.5 5.90002 10.95 5.95002L13.8 6.20002" stroke="#606580" stroke-miterlimit="10" stroke-linecap="round" stroke-linejoin="round"/>
<path d="M15.35 7.6L15.05 6.95C14.8 6.5 14.35 6.2 13.85 6.2L12.7 3.7C12.4 3.2 11.9 2.9 11.3 2.75H4.7C4.15 2.9 3.65 3.25 3.35 3.7L2.2 6.2C1.7 6.2 1.2 6.5 1 6.95L0.7 7.6C0.55 7.8 0.5 8 0.5 8.2V11.15H2.5L4.45 12.25H11.5L13.45 11.15H15.45V8.2C15.5 8 15.45 7.8 15.35 7.6Z" stroke="#606580" stroke-miterlimit="10" stroke-linecap="round" stroke-linejoin="round"/>
<path d="M15.2 11.1C15.25 11.3 15.25 11.55 15.25 11.8C15.25 12.55 15.1 13.2 14.9 13.2H12.85L12.15 12.2" stroke="#606580" stroke-miterlimit="10" stroke-linecap="round" stroke-linejoin="round"/>
<path d="M0.8 11.1C0.75 11.3 0.75 11.55 0.75 11.8C0.75 12.55 0.9 13.2 1.1 13.2H3.15L3.85 12.2" stroke="#606580" stroke-miterlimit="10" stroke-linecap="round" stroke-linejoin="round"/>
<path d="M3.35 7.95001H1.85C1.85 8.00001 1.85 8.00001 1.85 8.05001C1.85 8.90001 2.65 10.05 3.6 10.05C4.1 10.05 4.55 9.40001 4.85 9.10001L3.35 7.95001Z" stroke="#606580" stroke-miterlimit="10" stroke-linecap="round" stroke-linejoin="round"/>
<path d="M12.65 7.95001H14.15C14.15 8.00001 14.15 8.00001 14.15 8.05001C14.15 8.90001 13.35 10.05 12.4 10.05C11.9 10.05 11.45 9.40001 11.15 9.10001L12.65 7.95001Z" stroke="#606580" stroke-miterlimit="10" stroke-linecap="round" stroke-linejoin="round"/>
<path d="M4.75 9.20001H11.25" stroke="#606580" stroke-miterlimit="10" stroke-linecap="round" stroke-linejoin="round"/>
</svg>
