<svg width="17" height="16" viewBox="0 0 17 16" fill="none" xmlns="http://www.w3.org/2000/svg">
<path d="M4.79168 9.42594L4.49075 10.8102L4.00927 11.1713C3.82871 11.2917 3.70834 11.5324 3.70834 11.7732V12.7963C3.70834 12.9167 3.82871 13.037 3.94908 13.037H9.90742C10.0278 13.037 10.1482 12.9167 10.1482 12.7963V11.7732C10.1482 11.5324 10.0278 11.2917 9.84724 11.1713L9.36575 10.8102L9.06483 9.42594C9.00464 9.18519 8.82409 9.00464 8.58335 9.00464H5.27316C5.03242 9.00464 4.85186 9.18519 4.79168 9.42594Z" stroke="#606580" stroke-miterlimit="10" stroke-linecap="round" stroke-linejoin="round"/>
<path d="M4.49075 10.8102H9.30557" stroke="#606580" stroke-miterlimit="10" stroke-linecap="round" stroke-linejoin="round"/>
<path d="M4.31021 14V13.037" stroke="#606580" stroke-miterlimit="10" stroke-linecap="round" stroke-linejoin="round"/>
<path d="M9.48608 13.037V14" stroke="#606580" stroke-miterlimit="10" stroke-linecap="round" stroke-linejoin="round"/>
<path d="M11.5918 9.66669H15.2631C15.3834 9.66669 15.5038 9.54632 15.5038 9.42595V8.4028C15.5038 8.16206 15.3834 7.92132 15.2029 7.80095L14.7214 7.43983L14.4205 6.05557C14.3603 5.81483 14.1797 5.63428 13.939 5.63428H10.7492C10.5084 5.63428 10.2677 5.81483 10.2677 6.05557L9.96677 7.43983" stroke="#606580" stroke-miterlimit="10" stroke-linecap="round" stroke-linejoin="round"/>
<path d="M9.84723 7.5H14.662" stroke="#606580" stroke-miterlimit="10" stroke-linecap="round" stroke-linejoin="round"/>
<path d="M14.8426 9.66669V10.6898" stroke="#606580" stroke-miterlimit="10" stroke-linecap="round" stroke-linejoin="round"/>
<path d="M3.28704 7.62037L1 6.17593L3.88889 5.39352L2.98611 1.66204L6.65741 3.76852L8.46297 1L8.82408 3.94908" stroke="#606580" stroke-miterlimit="10" stroke-linecap="round" stroke-linejoin="round"/>
</svg>
