<svg width="17" height="16" viewBox="0 0 17 16" fill="none" xmlns="http://www.w3.org/2000/svg">
<path d="M13.3 12.1C13.9352 12.1 14.45 11.5852 14.45 10.95C14.45 10.3149 13.9352 9.80005 13.3 9.80005C12.6649 9.80005 12.15 10.3149 12.15 10.95C12.15 11.5852 12.6649 12.1 13.3 12.1Z" stroke="#606580" stroke-miterlimit="10" stroke-linecap="round" stroke-linejoin="round"/>
<path d="M3.05002 12.1C3.68515 12.1 4.20002 11.5852 4.20002 10.95C4.20002 10.3149 3.68515 9.80005 3.05002 9.80005C2.4149 9.80005 1.90002 10.3149 1.90002 10.95C1.90002 11.5852 2.4149 12.1 3.05002 12.1Z" stroke="#606580" stroke-miterlimit="10" stroke-linecap="round" stroke-linejoin="round"/>
<path d="M10.4 10.8H5.94995" stroke="#606580" stroke-miterlimit="10" stroke-linecap="round" stroke-linejoin="round"/>
<path d="M14.6 10.3H15.7C15.9 10.3 16.05 10.1 15.95 9.89998L15.65 8.64998V7.29998L12.7 6.79998L12.15 4.79998L10.3 3.84998H7.9V8.34998H5.8H5.45H1.35L1 8.84998" stroke="#606580" stroke-miterlimit="10" stroke-linecap="round" stroke-linejoin="round"/>
<path d="M12.15 5.34998H10.25V6.84998H12.7" stroke="#606580" stroke-miterlimit="10" stroke-linecap="round" stroke-linejoin="round"/>
</svg>
