<svg width="17" height="16" viewBox="0 0 17 16" fill="none" xmlns="http://www.w3.org/2000/svg">
<path d="M13.9 11.4H15.15V7.09998L12.35 5.59998L10.85 1.59998H6.00002V5.24998" stroke="#606580" stroke-miterlimit="10" stroke-linecap="round" stroke-linejoin="round"/>
<path d="M9.90015 11.4H8.50015" stroke="#606580" stroke-miterlimit="10" stroke-linecap="round" stroke-linejoin="round"/>
<path d="M11.7002 13.6C10.7337 13.6 9.9502 12.8165 9.9502 11.85C9.9502 10.8835 10.7337 10.1 11.7002 10.1C12.6667 10.1 13.4502 10.8835 13.4502 11.85C13.4502 12.8165 12.6667 13.6 11.7002 13.6Z" stroke="#606580" stroke-miterlimit="10" stroke-linecap="round" stroke-linejoin="round"/>
<path d="M8.3501 7.20001L6.1501 7.50001L4.0501 9.30001L2.3501 12.2C2.0501 12.65 2.2001 13.3 2.7001 13.55L4.1001 14.4" stroke="#606580" stroke-miterlimit="10" stroke-linecap="round" stroke-linejoin="round"/>
<path d="M1.84997 9.59998C2.24997 8.94998 3.09997 8.69998 3.74997 9.09998L5.69997 10.25C6.09997 10.5 6.24997 11.05 5.99997 11.45L5.19997 12.75" stroke="#606580" stroke-miterlimit="10" stroke-linecap="round" stroke-linejoin="round"/>
<path d="M2.94998 11.4L3.84998 11.95" stroke="#606580" stroke-miterlimit="10" stroke-linecap="round" stroke-linejoin="round"/>
<path d="M5.84998 11.25L3.99998 10.1" stroke="#606580" stroke-miterlimit="10" stroke-linecap="round" stroke-linejoin="round"/>
<path d="M4.50012 5.24998V1.59998H2.00012" stroke="#606580" stroke-miterlimit="10" stroke-linecap="round" stroke-linejoin="round"/>
</svg>
