<svg width="17" height="16" viewBox="0 0 17 16" fill="none" xmlns="http://www.w3.org/2000/svg">
<path d="M14.3 11.75H15.6V7.5L12.75 6L11.25 2H6.39997V4.65" stroke="#606580" stroke-miterlimit="10" stroke-linecap="round" stroke-linejoin="round"/>
<path d="M10.2998 11.75H9.3998" stroke="#606580" stroke-miterlimit="10" stroke-linecap="round" stroke-linejoin="round"/>
<path d="M12.1499 13.95C11.1834 13.95 10.3999 13.1665 10.3999 12.2C10.3999 11.2335 11.1834 10.45 12.1499 10.45C13.1164 10.45 13.8999 11.2335 13.8999 12.2C13.8999 13.1665 13.1164 13.95 12.1499 13.95Z" stroke="#606580" stroke-miterlimit="10" stroke-linecap="round" stroke-linejoin="round"/>
<path d="M4.8999 4.65V2H2.3999" stroke="#606580" stroke-miterlimit="10" stroke-linecap="round" stroke-linejoin="round"/>
<path d="M1.9499 13.45C1.1999 12.7 1.1999 11.5 1.9499 10.75L5.1999 7.5C5.9499 6.75 7.1499 6.75 7.8999 7.5C8.6499 8.25 8.6499 9.45 7.8999 10.2L4.6499 13.45C3.8999 14.2 2.6999 14.2 1.9499 13.45Z" stroke="#606580" stroke-miterlimit="10" stroke-linecap="round" stroke-linejoin="round"/>
<path d="M6.29985 8.69995L7.84985 10.25" stroke="#606580" stroke-miterlimit="10" stroke-linecap="round" stroke-linejoin="round"/>
<path d="M3.04985 12L4.59985 13.55" stroke="#606580" stroke-miterlimit="10" stroke-linecap="round" stroke-linejoin="round"/>
<path d="M8.69995 6.69995L7.94995 7.44995" stroke="#606580" stroke-miterlimit="10" stroke-linecap="round" stroke-linejoin="round"/>
<path d="M8.2499 5.89999C8.2999 5.84999 8.6499 6.09999 8.9999 6.44999C9.3499 6.79999 9.5999 7.14999 9.5499 7.19999C9.4999 7.24999 9.1499 6.99999 8.7999 6.64999C8.3999 6.29999 8.1499 5.94999 8.2499 5.89999Z" stroke="#606580" stroke-miterlimit="10" stroke-linecap="round" stroke-linejoin="round"/>
</svg>
