<svg width="17" height="17" viewBox="0 0 17 17" fill="none" xmlns="http://www.w3.org/2000/svg">
<path d="M1.65003 3.20001H6.50003C7.25003 3.20001 7.95003 3.55001 8.40003 4.10001L10.1 6.10001L15.25 7.15001L15.5 9.40001C15.6 9.85001 15.25 10.25 14.8 10.25H13.55" stroke="#606580" stroke-miterlimit="10" stroke-linecap="round" stroke-linejoin="round"/>
<path d="M11.3501 12.45C10.3836 12.45 9.6001 11.6665 9.6001 10.7C9.6001 9.73351 10.3836 8.95001 11.3501 8.95001C12.3166 8.95001 13.1001 9.73351 13.1001 10.7C13.1001 11.6665 12.3166 12.45 11.3501 12.45Z" stroke="#606580" stroke-miterlimit="10" stroke-linecap="round" stroke-linejoin="round"/>
<path d="M8.00012 7.59998L5.80012 7.89998L3.70012 9.69998L2.00012 12.6C1.70012 13.05 1.85012 13.7 2.35012 13.95L3.75012 14.8" stroke="#606580" stroke-miterlimit="10" stroke-linecap="round" stroke-linejoin="round"/>
<path d="M1.45007 10C1.85007 9.35001 2.70007 9.10001 3.35007 9.50001L5.30007 10.65C5.70007 10.9 5.85007 11.45 5.60007 11.85L4.80007 13.15" stroke="#606580" stroke-miterlimit="10" stroke-linecap="round" stroke-linejoin="round"/>
<path d="M2.60012 11.8L3.50012 12.35" stroke="#606580" stroke-miterlimit="10" stroke-linecap="round" stroke-linejoin="round"/>
<path d="M5.50012 11.6L3.60012 10.5" stroke="#606580" stroke-miterlimit="10" stroke-linecap="round" stroke-linejoin="round"/>
</svg>
