<svg width="17" height="17" viewBox="0 0 17 17" fill="none" xmlns="http://www.w3.org/2000/svg">
<path d="M6.11753 13.1266L2.46753 13.1266L2.46753 6.57659L6.11753 6.57659L6.11753 13.1266Z" stroke="#606580" stroke-miterlimit="10" stroke-linecap="round" stroke-linejoin="round"/>
<path d="M2.44978 13.15V6.60004H6.14978V13.15" stroke="#606580" stroke-miterlimit="10" stroke-linecap="round" stroke-linejoin="round"/>
<path d="M1.84976 6.60004H6.74976" stroke="#606580" stroke-miterlimit="10" stroke-linecap="round" stroke-linejoin="round"/>
<path d="M1.24973 13.15H14.8497" stroke="#606580" stroke-miterlimit="10" stroke-linecap="round" stroke-linejoin="round"/>
<path d="M7.19976 8H6.14976V8.7H7.19976V10.25C7.19976 10.5 7.39976 10.65 7.59976 10.65C7.84976 10.65 7.99976 10.45 7.99976 10.25V8.7V8.4C7.99976 8.15 7.79976 8 7.59976 8H7.19976V8Z" stroke="#606580" stroke-miterlimit="10" stroke-linecap="round" stroke-linejoin="round"/>
<path d="M1.84998 3.84998H6.69998C7.44998 3.84998 8.14998 4.19998 8.59998 4.74998L10.3 6.74998L15.45 7.84998L15.7 10.1C15.8 10.55 15.45 10.95 15 10.95H13.75" stroke="#606580" stroke-miterlimit="10" stroke-linecap="round" stroke-linejoin="round"/>
<path d="M11.5999 13.15C10.6334 13.15 9.84985 12.3665 9.84985 11.4C9.84985 10.4335 10.6334 9.65002 11.5999 9.65002C12.5664 9.65002 13.3499 10.4335 13.3499 11.4C13.3499 12.3665 12.5664 13.15 11.5999 13.15Z" stroke="#606580" stroke-miterlimit="10" stroke-linecap="round" stroke-linejoin="round"/>
</svg>
