<svg width="17" height="17" viewBox="0 0 17 17" fill="none" xmlns="http://www.w3.org/2000/svg">
<path d="M11.1001 1.44995V5.69995H15.3501" stroke="#606580" stroke-miterlimit="10" stroke-linecap="round" stroke-linejoin="round"/>
<path d="M15.4 1.40002L11.1 5.70002" stroke="#606580" stroke-miterlimit="10" stroke-linecap="round" stroke-linejoin="round"/>
<path d="M6.2262 15.6197L2.7262 15.6197L2.7262 9.41969L6.2262 9.41969L6.2262 15.6197Z" stroke="#606580" stroke-miterlimit="10" stroke-linecap="round" stroke-linejoin="round"/>
<path d="M2.75 15.6V9.40002H6.25V15.6" stroke="#606580" stroke-miterlimit="10" stroke-linecap="round" stroke-linejoin="round"/>
<path d="M2.15005 9.40002H6.80005" stroke="#606580" stroke-miterlimit="10" stroke-linecap="round" stroke-linejoin="round"/>
<path d="M1.6 15.6H14.5" stroke="#606580" stroke-miterlimit="10" stroke-linecap="round" stroke-linejoin="round"/>
<path d="M7.25005 10.75H6.25005V11.4H7.25005V12.85C7.25005 13.05 7.45005 13.25 7.65005 13.25C7.85005 13.25 8.05005 13.05 8.05005 12.85V11.4V11.15C8.05005 10.95 7.85005 10.75 7.65005 10.75H7.25005Z" stroke="#606580" stroke-miterlimit="10" stroke-linecap="round" stroke-linejoin="round"/>
<path d="M2.15012 6.79999H6.70012C7.45012 6.79999 8.15012 7.14999 8.60012 7.69999L10.1501 9.54999L15.0501 10.6L15.3001 12.75C15.4001 13.15 15.0501 13.55 14.6501 13.55H13.5001" stroke="#606580" stroke-miterlimit="10" stroke-linecap="round" stroke-linejoin="round"/>
<path d="M11.4 15.6C10.4888 15.6 9.75005 14.8613 9.75005 13.95C9.75005 13.0387 10.4888 12.3 11.4 12.3C12.3113 12.3 13.05 13.0387 13.05 13.95C13.05 14.8613 12.3113 15.6 11.4 15.6Z" stroke="#606580" stroke-miterlimit="10" stroke-linecap="round" stroke-linejoin="round"/>
</svg>
