<svg width="16" height="16" viewBox="0 0 16 16" fill="none" xmlns="http://www.w3.org/2000/svg">
<path d="M10.9872 4.69997L12.1872 3.34997C12.5872 2.89997 12.5372 2.24997 12.1372 1.84997C11.7372 1.44997 11.0372 1.39997 10.6372 1.79997L7.73722 4.39997L2.68722 2.79997C2.53722 2.74997 2.38722 2.74997 2.23722 2.79997L1.23722 3.29997C0.987217 3.44997 0.937217 3.84997 1.23722 4.04997L5.93722 6.24997L6.03722 6.34997L3.88722 8.99997C3.68722 9.24997 3.38722 9.34997 3.08722 9.19997L2.28722 8.79997C1.98722 8.64997 1.58722 8.69997 1.33722 8.94997L0.837217 9.44997C0.687217 9.59997 0.737217 9.89997 0.937217 9.99997L2.78722 11C2.93722 11.05 3.03722 11.2 3.08722 11.3L3.98722 13.05C4.08722 13.25 4.38722 13.3 4.53722 13.15L5.03722 12.65C5.28722 12.4 5.33722 12 5.18722 11.7L4.78722 10.9C4.63722 10.6 4.73722 10.25 4.98722 10.1L6.53722 8.89997" stroke="#606580" stroke-miterlimit="10" stroke-linecap="round" stroke-linejoin="round"/>
<path d="M8.73718 7.29999L10.9372 7.59999L13.0372 9.39999L14.7372 12.3C15.0372 12.75 14.8872 13.4 14.3872 13.65L13.0372 14.5" stroke="#606580" stroke-miterlimit="10" stroke-linecap="round" stroke-linejoin="round"/>
<path d="M15.2371 9.69996C14.8371 9.04996 13.9871 8.79996 13.3371 9.19996L11.3871 10.35C10.9871 10.6 10.8371 11.15 11.0871 11.55L11.8871 12.85" stroke="#606580" stroke-miterlimit="10" stroke-linecap="round" stroke-linejoin="round"/>
<path d="M14.1371 11.55L13.2371 12.1" stroke="#606580" stroke-miterlimit="10" stroke-linecap="round" stroke-linejoin="round"/>
<path d="M11.2371 11.35L13.0871 10.25" stroke="#606580" stroke-miterlimit="10" stroke-linecap="round" stroke-linejoin="round"/>
</svg>
