<svg width="16" height="16" viewBox="0 0 16 16" fill="none" xmlns="http://www.w3.org/2000/svg">
<path d="M3.5 3.40002H15.25" stroke="#606580" stroke-width="1.00065" stroke-miterlimit="10" stroke-linecap="round" stroke-linejoin="round"/>
<path d="M9.35 5.15002V3.40002" stroke="#606580" stroke-width="1.00065" stroke-miterlimit="10" stroke-linecap="round" stroke-linejoin="round"/>
<path d="M6.6 9.25L2.4 8.7C1.95 8.6 1.55 8.3 1.4 7.9L0.75 5.3H1.3L2 6.25C2.25 6.6 2.65 6.8 3.05 6.8H5.55L6.3 6.05C6.8 5.55 7.5 5.25 8.2 5.25H11.5C11.85 5.25 12.15 5.55 12.15 5.9V6.75L13.35 7.2L14.9 8.6C15.1 8.75 15.2 9 15.2 9.25C15.2 10.55 13.25 10.7 13.25 10.7H7.85L6.6 9.25Z" stroke="#606580" stroke-width="1.00065" stroke-miterlimit="10" stroke-linecap="round" stroke-linejoin="round"/>
<path d="M5.75 12.65H6.25L7.75 10.65" stroke="#606580" stroke-width="1.00065" stroke-miterlimit="10" stroke-linecap="round" stroke-linejoin="round"/>
<path d="M8.25 12.65H8.75L9.75 11.15" stroke="#606580" stroke-width="1.00065" stroke-miterlimit="10" stroke-linecap="round" stroke-linejoin="round"/>
<path d="M13.75 12.65H13.25L12.25 11.15" stroke="#606580" stroke-width="1.00065" stroke-miterlimit="10" stroke-linecap="round" stroke-linejoin="round"/>
</svg>
