<svg width="16" height="16" viewBox="0 0 16 16" fill="none" xmlns="http://www.w3.org/2000/svg">
<path d="M9.40002 7.64995L11.15 9.39995C11.25 9.49995 11.45 9.49995 11.55 9.39995L15 5.94995" stroke="#606580" stroke-miterlimit="10" stroke-linecap="round" stroke-linejoin="round"/>
<path d="M11.3 12.3C10.75 13.4 9.99998 14.1 9.14998 14.1C7.44998 14.1 6.09998 11.35 6.09998 8.00002C6.09998 4.65002 7.44998 1.90002 9.14998 1.90002C10.35 1.90002 11.4 3.25002 11.9 5.25002" stroke="#606580" stroke-miterlimit="10" stroke-linecap="round" stroke-linejoin="round"/>
<path d="M9.14999 1.90002H6.09999C4.39999 1.90002 3.04999 4.65002 3.04999 8.00002C3.04999 11.35 4.39999 14.1 6.09999 14.1H9.14999" stroke="#606580" stroke-miterlimit="10" stroke-linecap="round" stroke-linejoin="round"/>
<path d="M1 3.94995C1 3.94995 1.7 3.94995 2.55 3.94995C3.4 3.94995 3.85 3.94995 3.85 3.94995C3.85 3.94995 3.35 3.94995 2.55 3.94995C1.75 3.94995 1 3.94995 1 3.94995Z" stroke="#606580" stroke-miterlimit="10" stroke-linecap="round" stroke-linejoin="round"/>
<path d="M1 12.05C1 12.05 1.7 12.05 2.55 12.05C3.4 12.05 3.85 12.05 3.85 12.05C3.85 12.05 3.35 12.05 2.55 12.05C1.75 12.05 1 12.05 1 12.05Z" stroke="#606580" stroke-miterlimit="10" stroke-linecap="round" stroke-linejoin="round"/>
</svg>
