<svg width="16" height="16" viewBox="0 0 16 16" fill="none" xmlns="http://www.w3.org/2000/svg">
<path d="M11.3 12.3C10.75 13.4 9.99998 14.1 9.14998 14.1C7.44998 14.1 6.09998 11.35 6.09998 8.00002C6.09998 4.65002 7.44998 1.90002 9.14998 1.90002C10.05 1.90002 10.85 2.70002 11.45 3.95002" stroke="#606580" stroke-miterlimit="10" stroke-linecap="round" stroke-linejoin="round"/>
<path d="M9.15005 1.90002H6.10005C4.40005 1.90002 3.05005 4.65002 3.05005 8.00002C3.05005 11.35 4.40005 14.1 6.10005 14.1H9.15005" stroke="#606580" stroke-miterlimit="10" stroke-linecap="round" stroke-linejoin="round"/>
<path d="M1 3.94995C1 3.94995 1.7 3.94995 2.55 3.94995C3.4 3.94995 3.85 3.94995 3.85 3.94995C3.85 3.94995 3.35 3.94995 2.55 3.94995C1.75 3.94995 1 3.94995 1 3.94995Z" stroke="#606580" stroke-miterlimit="10" stroke-linecap="round" stroke-linejoin="round"/>
<path d="M1 12.05C1 12.05 1.7 12.05 2.55 12.05C3.4 12.05 3.85 12.05 3.85 12.05C3.85 12.05 3.35 12.05 2.55 12.05C1.75 12.05 1 12.05 1 12.05Z" stroke="#606580" stroke-miterlimit="10" stroke-linecap="round" stroke-linejoin="round"/>
<path d="M12.7499 5.95001L14.9999 8.20001L12.7499 10.45" stroke="#606580" stroke-miterlimit="10" stroke-linecap="round" stroke-linejoin="round"/>
<path d="M8.84985 8.20001H14.9999" stroke="#606580" stroke-miterlimit="10" stroke-linecap="round" stroke-linejoin="round"/>
</svg>
