<svg width="16" height="16" viewBox="0 0 16 16" fill="none" xmlns="http://www.w3.org/2000/svg">
<path d="M10.5501 14.05C12.2345 14.05 13.6001 11.3413 13.6001 8.00001C13.6001 4.65869 12.2345 1.95001 10.5501 1.95001C8.86559 1.95001 7.50006 4.65869 7.50006 8.00001C7.50006 11.3413 8.86559 14.05 10.5501 14.05Z" stroke="#606580" stroke-miterlimit="10" stroke-linecap="round" stroke-linejoin="round"/>
<path d="M10.5501 1.95001H7.50007C5.80007 1.95001 4.45007 4.65001 4.45007 8.00001C4.45007 11.35 5.80007 14.05 7.50007 14.05H10.5501" stroke="#606580" stroke-miterlimit="10" stroke-linecap="round" stroke-linejoin="round"/>
<path d="M2.45007 3.95001C2.45007 3.95001 3.15007 3.95001 3.95007 3.95001C4.75007 3.95001 4.75007 3.95001 4.75007 3.95001C4.75007 3.95001 4.75007 3.95001 3.95007 3.95001C3.15007 3.95001 2.45007 3.95001 2.45007 3.95001Z" stroke="#606580" stroke-miterlimit="10" stroke-linecap="round" stroke-linejoin="round"/>
<path d="M2.45007 12.05C2.45007 12.05 3.15007 12.05 3.95007 12.05C4.75007 12.05 4.75007 12.05 4.75007 12.05C4.75007 12.05 4.75007 12.05 3.95007 12.05C3.15007 12.05 2.45007 12.05 2.45007 12.05Z" stroke="#606580" stroke-miterlimit="10" stroke-linecap="round" stroke-linejoin="round"/>
<path d="M10.55 4.84998C11 5.44998 11.35 6.64998 11.35 7.99998C11.35 9.34998 11.05 10.5 10.55 11.1" stroke="#606580" stroke-miterlimit="10" stroke-linecap="round" stroke-linejoin="round"/>
</svg>
