<svg width="16" height="16" viewBox="0 0 16 16" fill="none" xmlns="http://www.w3.org/2000/svg">
<path d="M11.35 3.65002H4.60001V5.30002H11.35V3.65002Z" stroke="#606580" stroke-miterlimit="10" stroke-linecap="round" stroke-linejoin="round"/>
<path d="M14.9 6.44995H12.85V12.35H14.9V6.44995Z" stroke="#606580" stroke-miterlimit="10" stroke-linecap="round" stroke-linejoin="round"/>
<path d="M12.85 7.64998H9.95C9.65 7.34998 9.3 7.09998 8.9 6.94998V5.34998" stroke="#606580" stroke-miterlimit="10" stroke-linecap="round" stroke-linejoin="round"/>
<path d="M1.10755 12.3495L3.15755 12.3495L3.15755 6.44949L1.10755 6.44949L1.10755 12.3495Z" stroke="#606580" stroke-miterlimit="10" stroke-linecap="round" stroke-linejoin="round"/>
<path d="M3.15 7.64998H6.05C6.35 7.34998 6.7 7.09998 7.1 6.94998V5.34998" stroke="#606580" stroke-miterlimit="10" stroke-linecap="round" stroke-linejoin="round"/>
<path d="M3.15 11.15H6.05C6.55 11.7 7.25 12 8 12C8.8 12 9.45 11.65 9.95 11.15H12.85" stroke="#606580" stroke-miterlimit="10" stroke-linecap="round" stroke-linejoin="round"/>
</svg>
