<svg width="16" height="16" viewBox="0 0 16 16" fill="none" xmlns="http://www.w3.org/2000/svg">
<path d="M4.85 3.75C5.4 2.65 6.15 2 7 2C8.65 2 10 4.7 10 8.05C10 11.4 8.65 14.1 7 14.1C6.1 14.1 5.3 13.3 4.75 12.1" stroke="#606580" stroke-miterlimit="10" stroke-linecap="round" stroke-linejoin="round"/>
<path d="M6.94995 14.05H9.94995C11.6 14.05 12.95 11.35 12.95 8.00001C12.95 4.65001 11.65 1.95001 9.99995 1.95001H6.99995" stroke="#606580" stroke-miterlimit="10" stroke-linecap="round" stroke-linejoin="round"/>
<path d="M15 12C15 12 14.35 12 13.5 12C12.65 12 12.2 12 12.2 12C12.2 12 12.65 12 13.5 12C14.35 12 15 12 15 12Z" stroke="#606580" stroke-miterlimit="10" stroke-linecap="round" stroke-linejoin="round"/>
<path d="M15 4C15 4 14.35 4 13.5 4C12.65 4 12.2 4 12.2 4C12.2 4 12.65 4 13.5 4C14.35 4 15 4 15 4Z" stroke="#606580" stroke-miterlimit="10" stroke-linecap="round" stroke-linejoin="round"/>
<path d="M4.84998 5.59998L7.09998 7.79998L4.84998 9.99998" stroke="#606580" stroke-miterlimit="10" stroke-linecap="round" stroke-linejoin="round"/>
<path d="M1 7.80005H7.1" stroke="#606580" stroke-miterlimit="10" stroke-linecap="round" stroke-linejoin="round"/>
</svg>
