<svg width="16" height="16" viewBox="0 0 16 16" fill="none" xmlns="http://www.w3.org/2000/svg">
<path d="M11.3499 2.60004H4.59985V4.25004H11.3499V2.60004Z" stroke="#606580" stroke-miterlimit="10" stroke-linecap="round" stroke-linejoin="round"/>
<path d="M14.8999 5.40002H12.8499V11.3H14.8999V5.40002Z" stroke="#606580" stroke-miterlimit="10" stroke-linecap="round" stroke-linejoin="round"/>
<path d="M12.8499 6.55H9.94985C9.64985 6.25 9.29985 6 8.89985 5.85V4.25H6.99985V5.85C6.59985 6 6.29985 6.25 5.99985 6.55H3.14985V6.15V5.35H1.09985V8.15" stroke="#606580" stroke-miterlimit="10" stroke-linecap="round" stroke-linejoin="round"/>
<path d="M7.99988 10.95C8.79988 10.95 9.44988 10.6 9.94988 10.1H12.8499" stroke="#606580" stroke-miterlimit="10" stroke-linecap="round" stroke-linejoin="round"/>
<path d="M5 10H3.85143C2.82286 10 2 10.8966 2 12C2 13.1034 2.82286 14 3.85143 14H5" stroke="#606580" stroke-miterlimit="10" stroke-linecap="round" stroke-linejoin="round"/>
</svg>
