<svg width="16" height="16" viewBox="0 0 16 16" fill="none" xmlns="http://www.w3.org/2000/svg">
<path d="M10.7499 14C10.3999 14.25 10.0499 14.35 9.69988 14.35C7.89988 14.35 6.49988 11.45 6.49988 7.9C6.49988 4.35 7.89988 1.5 9.69988 1.5C11.2999 1.5 12.5999 3.8 12.8499 6.85" stroke="#606580" stroke-miterlimit="10" stroke-linecap="round" stroke-linejoin="round"/>
<path d="M9.69988 1.5H6.49988C4.69988 1.5 3.24988 4.4 3.24988 7.95C3.24988 11.5 4.69988 14.4 6.49988 14.4H9.69988" stroke="#606580" stroke-miterlimit="10" stroke-linecap="round" stroke-linejoin="round"/>
<path d="M1.09985 3.65002C1.09985 3.65002 1.79985 3.65002 2.69985 3.65002C3.59985 3.65002 4.09985 3.65002 4.09985 3.65002C4.09985 3.65002 3.59985 3.65002 2.69985 3.65002C1.79985 3.65002 1.09985 3.65002 1.09985 3.65002Z" stroke="#606580" stroke-miterlimit="10" stroke-linecap="round" stroke-linejoin="round"/>
<path d="M1.09985 12.25C1.09985 12.25 1.79985 12.25 2.69985 12.25C3.59985 12.25 4.09985 12.25 4.09985 12.25C4.09985 12.25 3.59985 12.25 2.69985 12.25C1.79985 12.25 1.09985 12.25 1.09985 12.25Z" stroke="#606580" stroke-miterlimit="10" stroke-linecap="round" stroke-linejoin="round"/>
<path d="M8.3999 8C11.9999 8 14.8999 10.9 14.8999 14.5" stroke="#606580" stroke-miterlimit="10" stroke-linecap="round" stroke-linejoin="round"/>
<path d="M8.8999 10.05C11.0999 10.3 12.8499 12.2 12.8499 14.5" stroke="#606580" stroke-miterlimit="10" stroke-linecap="round" stroke-linejoin="round"/>
</svg>
