<svg width="16" height="16" viewBox="0 0 16 16" fill="none" xmlns="http://www.w3.org/2000/svg">
<path d="M11.4 2.60001H4.64999V4.25001H11.4V2.60001Z" stroke="#606580" stroke-miterlimit="10" stroke-linecap="round" stroke-linejoin="round"/>
<path d="M1.10755 11.2623H3.15755L3.15755 5.3623H1.10755L1.10755 11.2623Z" stroke="#606580" stroke-miterlimit="10" stroke-linecap="round" stroke-linejoin="round"/>
<path d="M3.14999 6.55H6.04999C6.34999 6.25 6.69999 6 7.09999 5.85V4.25H8.99999V5.85C9.39999 6 9.69999 6.25 9.99999 6.55H12.9V6.15V5.35H14.95V8.15" stroke="#606580" stroke-miterlimit="10" stroke-linecap="round" stroke-linejoin="round"/>
<path d="M6.04999 10.1H3.14999" stroke="#606580" stroke-miterlimit="10" stroke-linecap="round" stroke-linejoin="round"/>
<path d="M8.8 15V8.75H11C11.85 8.75 12.55 9.45 12.55 10.3C12.55 11.15 11.85 11.85 11 11.85H8.8H11.95C12.8 11.85 13.5 12.55 13.5 13.4C13.5 14.25 12.8 14.95 11.95 14.95H8.8V15Z" stroke="#606580" stroke-width="0.86605" stroke-miterlimit="10" stroke-linecap="round" stroke-linejoin="round"/>
</svg>
