<svg width="16" height="16" viewBox="0 0 16 16" fill="none" xmlns="http://www.w3.org/2000/svg">
<path d="M12.1001 8.25C12.0001 8.25 11.9501 8.3 11.9001 8.4V8.45C11.6501 8.95 11.4001 9.45 11.1501 9.95L11.1001 10C10.9001 10.05 10.6501 10.05 10.4501 10.1C10.1001 10.15 9.75013 10.2 9.40013 10.25C9.30013 10.25 9.20013 10.35 9.20013 10.5C9.20013 10.55 9.25013 10.6 9.30013 10.65C9.70013 11.05 10.1001 11.45 10.5001 11.8C10.5501 11.85 10.5501 11.85 10.5501 11.9C10.4501 12.35 10.4001 12.8 10.3001 13.25C10.3001 13.4 10.2501 13.5 10.2501 13.65V13.7C10.3001 13.8 10.3501 13.85 10.4501 13.85C10.5001 13.85 10.5501 13.85 10.5501 13.8C11.0501 13.55 11.5501 13.3 12.0501 13H12.1001H12.1501C12.6501 13.25 13.1501 13.5 13.6501 13.8C13.7001 13.8 13.7501 13.85 13.7501 13.85C13.8001 13.85 13.8501 13.85 13.9001 13.8C14.0001 13.75 14.0001 13.65 14.0001 13.55C13.9001 13 13.8001 12.45 13.7001 11.9C13.7001 11.85 13.7001 11.85 13.7501 11.8C14.1501 11.4 14.5501 11 14.9501 10.65C15.0001 10.6 15.0501 10.5 15.0001 10.4C14.9501 10.3 14.9001 10.25 14.8001 10.25C14.2501 10.15 13.7001 10.1 13.1501 10C13.1001 10 13.1001 10 13.0501 9.95C12.9001 9.7 12.8001 9.4 12.6501 9.15C12.5501 8.9 12.4001 8.7 12.3001 8.45C12.2501 8.3 12.1501 8.25 12.1001 8.25Z" stroke="#606580" stroke-miterlimit="10" stroke-linecap="round" stroke-linejoin="round"/>
<path d="M10.5 6.50001L12.5 3.95001C12.9 3.50001 12.85 2.85001 12.45 2.45001C12.05 2.05001 11.35 2.00001 10.95 2.40001L8.05002 5.00001L2.95002 3.45001C2.80002 3.40001 2.65002 3.40001 2.50002 3.45001L1.50002 3.95001C1.25002 4.05001 1.25002 4.50001 1.50002 4.65001L6.20002 6.85001L6.30002 6.95001L4.20002 9.65001C4.00002 9.90001 3.70002 10 3.40002 9.85001L2.60002 9.45001C2.30002 9.30001 1.90002 9.35001 1.65002 9.60001L1.15002 10.1C1.00002 10.25 1.05002 10.55 1.25002 10.65L3.10002 11.65C3.25002 11.7 3.35002 11.85 3.40002 11.95L4.35002 13.7C4.45002 13.9 4.75002 13.95 4.90002 13.8L5.40002 13.3C5.65002 13.05 5.70002 12.65 5.55002 12.35L5.00002 11.5C4.85002 11.2 4.95002 10.85 5.20002 10.7L6.75002 9.50001" stroke="#606580" stroke-miterlimit="10" stroke-linecap="round" stroke-linejoin="round"/>
</svg>
