<svg width="16" height="17" viewBox="0 0 16 17" fill="none" xmlns="http://www.w3.org/2000/svg">
<path d="M14.25 7.59998C14.45 7.24998 14.6 6.79998 14.6 6.34998V5.84998C14.6 4.44998 13.5 3.34998 12.1 3.34998H4.25C2.85 3.34998 1.75 4.44998 1.75 5.84998V6.34998C1.75 7.74998 2.85 8.84998 4.25 8.84998H8.55" stroke="#606580" stroke-miterlimit="10" stroke-linecap="round" stroke-linejoin="round"/>
<path d="M4.09995 12.65C4.59701 12.65 4.99995 12.247 4.99995 11.75C4.99995 11.2529 4.59701 10.85 4.09995 10.85C3.60289 10.85 3.19995 11.2529 3.19995 11.75C3.19995 12.247 3.60289 12.65 4.09995 12.65Z" stroke="#606580" stroke-miterlimit="10" stroke-linecap="round" stroke-linejoin="round"/>
<path d="M1.9 12.65C2.39706 12.65 2.8 12.247 2.8 11.75C2.8 11.2529 2.39706 10.85 1.9 10.85C1.40294 10.85 1 11.2529 1 11.75C1 12.247 1.40294 12.65 1.9 12.65Z" stroke="#606580" stroke-miterlimit="10" stroke-linecap="round" stroke-linejoin="round"/>
<path d="M6.30005 11.05H8.05005" stroke="#606580" stroke-miterlimit="10" stroke-linecap="round" stroke-linejoin="round"/>
<path d="M0.949951 8.84998H9.19995" stroke="#606580" stroke-miterlimit="10" stroke-linecap="round" stroke-linejoin="round"/>
<path d="M11.45 3.34998V6.49998" stroke="#606580" stroke-miterlimit="10" stroke-linecap="round" stroke-linejoin="round"/>
<path d="M4.94995 3.34998V6.49998" stroke="#606580" stroke-miterlimit="10" stroke-linecap="round" stroke-linejoin="round"/>
<path d="M12.8501 13.65L15.0501 11.45L12.8501 9.20001" stroke="#606580" stroke-miterlimit="10" stroke-linecap="round" stroke-linejoin="round"/>
<path d="M10.55 11.45H15.05" stroke="#606580" stroke-miterlimit="10" stroke-linecap="round" stroke-linejoin="round"/>
</svg>
