<svg width="16" height="17" viewBox="0 0 16 17" fill="none" xmlns="http://www.w3.org/2000/svg">
<path d="M1.75009 7.59998C1.55009 7.24998 1.40009 6.79998 1.40009 6.34998V5.84998C1.40009 4.44998 2.50009 3.34998 3.90009 3.34998H11.7001C13.1001 3.34998 14.2001 4.44998 14.2001 5.84998V6.34998C14.2001 7.74998 13.1001 8.84998 11.7001 8.84998H7.40009" stroke="#606580" stroke-miterlimit="10" stroke-linecap="round" stroke-linejoin="round"/>
<path d="M11.9001 12.65C12.3972 12.65 12.8001 12.247 12.8001 11.75C12.8001 11.2529 12.3972 10.85 11.9001 10.85C11.4031 10.85 11.0001 11.2529 11.0001 11.75C11.0001 12.247 11.4031 12.65 11.9001 12.65Z" stroke="#606580" stroke-miterlimit="10" stroke-linecap="round" stroke-linejoin="round"/>
<path d="M14.1001 12.65C14.5971 12.65 15.0001 12.247 15.0001 11.75C15.0001 11.2529 14.5971 10.85 14.1001 10.85C13.603 10.85 13.2001 11.2529 13.2001 11.75C13.2001 12.247 13.603 12.65 14.1001 12.65Z" stroke="#606580" stroke-miterlimit="10" stroke-linecap="round" stroke-linejoin="round"/>
<path d="M9.70013 11.05H7.95013" stroke="#606580" stroke-miterlimit="10" stroke-linecap="round" stroke-linejoin="round"/>
<path d="M15.0501 8.84998H6.80011" stroke="#606580" stroke-miterlimit="10" stroke-linecap="round" stroke-linejoin="round"/>
<path d="M4.55011 3.34998V6.49998" stroke="#606580" stroke-miterlimit="10" stroke-linecap="round" stroke-linejoin="round"/>
<path d="M11.0501 3.34998V6.49998" stroke="#606580" stroke-miterlimit="10" stroke-linecap="round" stroke-linejoin="round"/>
<path d="M3.20013 9.20001L5.45013 11.45L3.20013 13.65" stroke="#606580" stroke-miterlimit="10" stroke-linecap="round" stroke-linejoin="round"/>
<path d="M0.950134 11.45H5.45013" stroke="#606580" stroke-miterlimit="10" stroke-linecap="round" stroke-linejoin="round"/>
</svg>
