<svg width="16" height="17" viewBox="0 0 16 17" fill="none" xmlns="http://www.w3.org/2000/svg">
<path d="M1.59998 6.40002V5.90002C1.59998 4.50002 2.69998 3.40002 4.09998 3.40002H11.9C13.3 3.40002 14.4 4.50002 14.4 5.90002V6.40002C14.4 7.80002 13.3 8.90002 11.9 8.90002H7.59998" stroke="#606580" stroke-miterlimit="10" stroke-linecap="round" stroke-linejoin="round"/>
<path d="M12.1001 12.75C12.5971 12.75 13.0001 12.3471 13.0001 11.85C13.0001 11.353 12.5971 10.95 12.1001 10.95C11.603 10.95 11.2001 11.353 11.2001 11.85C11.2001 12.3471 11.603 12.75 12.1001 12.75Z" stroke="#606580" stroke-miterlimit="10" stroke-linecap="round" stroke-linejoin="round"/>
<path d="M14.2999 12.7501C14.797 12.7501 15.1999 12.3471 15.1999 11.8501C15.1999 11.353 14.797 10.9501 14.2999 10.9501C13.8028 10.9501 13.3999 11.353 13.3999 11.8501C13.3999 12.3471 13.8028 12.7501 14.2999 12.7501Z" stroke="#606580" stroke-miterlimit="10" stroke-linecap="round" stroke-linejoin="round"/>
<path d="M9.90002 11.1H8.15002" stroke="#606580" stroke-miterlimit="10" stroke-linecap="round" stroke-linejoin="round"/>
<path d="M15.2998 8.90002H7.0498" stroke="#606580" stroke-miterlimit="10" stroke-linecap="round" stroke-linejoin="round"/>
<path d="M4.7998 3.40002V6.55002" stroke="#606580" stroke-miterlimit="10" stroke-linecap="round" stroke-linejoin="round"/>
<path d="M11.2999 3.40002V6.55002" stroke="#606580" stroke-miterlimit="10" stroke-linecap="round" stroke-linejoin="round"/>
<path d="M3.69995 9.15002L5.94995 11.35L3.69995 13.6" stroke="#606580" stroke-miterlimit="10" stroke-linecap="round" stroke-linejoin="round"/>
<path d="M0.699951 9.15002L2.94995 11.35L0.699951 13.6" stroke="#606580" stroke-miterlimit="10" stroke-linecap="round" stroke-linejoin="round"/>
</svg>
