<svg width="16" height="17" viewBox="0 0 16 17" fill="none" xmlns="http://www.w3.org/2000/svg">
<path d="M13.3499 6.04998C13.1999 4.14998 11.3499 2.59998 11.3499 2.59998C11.3499 2.59998 9.49991 4.14998 9.34991 6.04998C9.34991 6.09998 9.34991 6.19998 9.34991 6.24998C9.34991 7.34998 10.2499 8.24998 11.3499 8.24998C12.4499 8.24998 13.3499 7.34998 13.3499 6.24998C13.3499 6.19998 13.3499 6.09998 13.3499 6.04998Z" stroke="#606580" stroke-miterlimit="10" stroke-linecap="round" stroke-linejoin="round"/>
<path d="M9.04987 9.65002H1.04987C1.04987 11.7 2.69987 13.35 4.74987 13.35H12.9999L15.0499 9.65002H13.5499" stroke="#606580" stroke-miterlimit="10" stroke-linecap="round" stroke-linejoin="round"/>
<path d="M6.39985 8H1.84985V9.65H6.39985V8Z" stroke="#606580" stroke-miterlimit="10" stroke-linecap="round" stroke-linejoin="round"/>
<path d="M6.39985 6.75H3.09985V8H6.39985V6.75Z" stroke="#606580" stroke-miterlimit="10" stroke-linecap="round" stroke-linejoin="round"/>
<path d="M4.29987 6.75005V5.55005" stroke="#606580" stroke-miterlimit="10" stroke-linecap="round" stroke-linejoin="round"/>
<path d="M13.7999 11.7H11.7499" stroke="#606580" stroke-miterlimit="10" stroke-linecap="round" stroke-linejoin="round"/>
</svg>
