<svg width="16" height="17" viewBox="0 0 16 17" fill="none" xmlns="http://www.w3.org/2000/svg">
<path d="M12.4002 2.25C13.7502 2.25 14.8502 3.35 14.8502 4.7V12.5C14.8502 13.85 13.7502 14.95 12.4002 14.95H7.4502" stroke="#606580" stroke-miterlimit="10" stroke-linecap="round" stroke-linejoin="round"/>
<path d="M3.60015 14.95C2.25015 14.95 1.15015 13.85 1.15015 12.5V4.7C1.15015 3.35 2.25015 2.25 3.60015 2.25H7.95015" stroke="#606580" stroke-miterlimit="10" stroke-linecap="round" stroke-linejoin="round"/>
<path d="M7.2002 3.35L8.5502 2.15L7.2002 1" stroke="#606580" stroke-miterlimit="10" stroke-linecap="round" stroke-linejoin="round"/>
<path d="M8.5502 13.65L7.2002 14.85L8.5502 16" stroke="#606580" stroke-miterlimit="10" stroke-linecap="round" stroke-linejoin="round"/>
<path d="M11.1499 11.35H6.04985C4.54985 11.35 3.34985 10.15 3.34985 8.64996H12.5999L11.1499 11.35Z" stroke="#606580" stroke-miterlimit="10" stroke-linecap="round" stroke-linejoin="round"/>
<path d="M7.24983 7.44993V8.64993H3.94983V7.44993H4.84983V6.54993H7.24983V7.44993Z" stroke="#606580" stroke-miterlimit="10" stroke-linecap="round" stroke-linejoin="round"/>
<path d="M5.74988 6.54996V5.64996" stroke="#606580" stroke-miterlimit="10" stroke-linecap="round" stroke-linejoin="round"/>
</svg>
