<svg width="17" height="16" viewBox="0 0 17 16" fill="none" xmlns="http://www.w3.org/2000/svg">
<path d="M7.95015 15.4L6.90015 12.4L11.4501 9.34998L16.0001 12.4L14.9501 15.4" stroke="#606580" stroke-miterlimit="10" stroke-linecap="round" stroke-linejoin="round"/>
<path d="M8.4502 9.24998V7.84998H14.5002V9.24998" stroke="#606580" stroke-miterlimit="10" stroke-linecap="round" stroke-linejoin="round"/>
<path d="M11.4502 6.29999V7.84999" stroke="#606580" stroke-miterlimit="10" stroke-linecap="round" stroke-linejoin="round"/>
<path d="M11.4502 9.34998V15.4" stroke="#606580" stroke-miterlimit="10" stroke-linecap="round" stroke-linejoin="round"/>
<path d="M7.05017 15.4H16.0002" stroke="#606580" stroke-miterlimit="10" stroke-linecap="round" stroke-linejoin="round"/>
<path d="M2.44995 7.20005V3.20005C2.44995 2.75005 2.94995 2.40005 3.74995 2.15005C4.14995 2.00005 4.59995 1.90005 5.09995 1.85005C5.29995 1.85005 5.54995 1.80005 5.74995 1.80005C7.59995 1.80005 9.09995 2.40005 9.09995 3.15005V3.70005" stroke="#606580" stroke-miterlimit="10" stroke-linecap="round" stroke-linejoin="round"/>
<path d="M3.74995 4.65002C2.94995 4.75002 2.44995 4.95002 2.44995 5.20002" stroke="#606580" stroke-miterlimit="10" stroke-linecap="round" stroke-linejoin="round"/>
<path d="M8.34998 4.75C7.74998 4.6 6.79998 4.5 5.79998 4.5C5.54998 4.5 5.34998 4.5 5.09998 4.5" stroke="#606580" stroke-miterlimit="10" stroke-linecap="round" stroke-linejoin="round"/>
<path d="M3.80005 7.15002V1.65002" stroke="#606580" stroke-miterlimit="10" stroke-linecap="round" stroke-linejoin="round"/>
<path d="M2.05005 11.5L12.95 0.599976" stroke="#606580" stroke-miterlimit="10" stroke-linecap="round" stroke-linejoin="round"/>
<path d="M1 7.25H6" stroke="#606580" stroke-miterlimit="10" stroke-linecap="round" stroke-linejoin="round"/>
</svg>
