<svg width="16" height="17" viewBox="0 0 16 17" fill="none" xmlns="http://www.w3.org/2000/svg">
<path d="M1.94998 7C1.74998 6.65 1.59998 6.2 1.59998 5.75V5.25C1.59998 3.85 2.69998 2.75 4.09998 2.75H11.9C13.3 2.75 14.4 3.85 14.4 5.25V5.75C14.4 7.15 13.3 8.25 11.9 8.25H7.59998" stroke="#606580" stroke-miterlimit="10" stroke-linecap="round" stroke-linejoin="round"/>
<path d="M12.0998 12.05C12.5969 12.05 12.9998 11.6471 12.9998 11.15C12.9998 10.6529 12.5969 10.25 12.0998 10.25C11.6028 10.25 11.1998 10.6529 11.1998 11.15C11.1998 11.6471 11.6028 12.05 12.0998 12.05Z" stroke="#606580" stroke-miterlimit="10" stroke-linecap="round" stroke-linejoin="round"/>
<path d="M14.2998 12.05C14.7968 12.05 15.1998 11.6471 15.1998 11.15C15.1998 10.6529 14.7968 10.25 14.2998 10.25C13.8027 10.25 13.3998 10.6529 13.3998 11.15C13.3998 11.6471 13.8027 12.05 14.2998 12.05Z" stroke="#606580" stroke-miterlimit="10" stroke-linecap="round" stroke-linejoin="round"/>
<path d="M9.89983 10.45H8.19983" stroke="#606580" stroke-miterlimit="10" stroke-linecap="round" stroke-linejoin="round"/>
<path d="M15.2998 8.25H7.0498" stroke="#606580" stroke-miterlimit="10" stroke-linecap="round" stroke-linejoin="round"/>
<path d="M4.7998 2.75V5.9" stroke="#606580" stroke-miterlimit="10" stroke-linecap="round" stroke-linejoin="round"/>
<path d="M11.2999 2.75V5.9" stroke="#606580" stroke-miterlimit="10" stroke-linecap="round" stroke-linejoin="round"/>
<path d="M3.39995 14.25C4.89112 14.25 6.09995 13.0411 6.09995 11.55C6.09995 10.0588 4.89112 8.84998 3.39995 8.84998C1.90878 8.84998 0.699951 10.0588 0.699951 11.55C0.699951 13.0411 1.90878 14.25 3.39995 14.25Z" stroke="#606580" stroke-miterlimit="10" stroke-linecap="round" stroke-linejoin="round"/>
<path d="M3.3999 10.55V11.75L4.0499 12.1" stroke="#606580" stroke-miterlimit="10" stroke-linecap="round" stroke-linejoin="round"/>
</svg>
