<svg width="17" height="16" viewBox="0 0 17 16" fill="none" xmlns="http://www.w3.org/2000/svg">
<path d="M0.5 13.25H11.35V15.15C11.35 15.25 11.45 15.3 11.55 15.25L15.4 11.4C15.55 11.25 15.55 11 15.4 10.8L11.55 6.99996C11.5 6.94996 11.35 6.99996 11.35 7.09996V8.99996H10" stroke="#606580" stroke-miterlimit="10" stroke-linecap="round" stroke-linejoin="round"/>
<path d="M4.80005 2.64996V5.39996L6.65005 6.69996" stroke="#606580" stroke-miterlimit="10" stroke-linecap="round" stroke-linejoin="round"/>
<path d="M4.75 9.49997C7.09721 9.49997 9 7.59718 9 5.24997C9 2.90276 7.09721 0.999969 4.75 0.999969C2.40279 0.999969 0.5 2.90276 0.5 5.24997C0.5 7.59718 2.40279 9.49997 4.75 9.49997Z" stroke="#606580" stroke-miterlimit="10" stroke-linecap="round" stroke-linejoin="round"/>
</svg>
