<svg width="17" height="16" viewBox="0 0 17 16" fill="none" xmlns="http://www.w3.org/2000/svg">
<path d="M13.6 11.7C14.0419 11.7 14.4 11.3418 14.4 10.9C14.4 10.4581 14.0419 10.1 13.6 10.1C13.1582 10.1 12.8 10.4581 12.8 10.9C12.8 11.3418 13.1582 11.7 13.6 11.7Z" stroke="#606580" stroke-miterlimit="10" stroke-linecap="round" stroke-linejoin="round"/>
<path d="M5.10005 11.7C5.54188 11.7 5.90005 11.3418 5.90005 10.9C5.90005 10.4581 5.54188 10.1 5.10005 10.1C4.65822 10.1 4.30005 10.4581 4.30005 10.9C4.30005 11.3418 4.65822 11.7 5.10005 11.7Z" stroke="#606580" stroke-miterlimit="10" stroke-linecap="round" stroke-linejoin="round"/>
<path d="M2.45002 11.7C2.89185 11.7 3.25002 11.3418 3.25002 10.9C3.25002 10.4581 2.89185 10.1 2.45002 10.1C2.0082 10.1 1.65002 10.4581 1.65002 10.9C1.65002 11.3418 2.0082 11.7 2.45002 11.7Z" stroke="#606580" stroke-miterlimit="10" stroke-linecap="round" stroke-linejoin="round"/>
<path d="M11.6 10.35H7.19995" stroke="#606580" stroke-miterlimit="10" stroke-linecap="round" stroke-linejoin="round"/>
<path d="M1.6 4.59998H8.95C9.25 4.59998 9.55 4.84998 9.55 5.19998V8.14998C9.55 8.44998 9.3 8.74998 8.95 8.74998H1.6C1.3 8.74998 1 8.49998 1 8.14998V5.19998C1 4.84998 1.25 4.59998 1.6 4.59998Z" stroke="#606580" stroke-miterlimit="10" stroke-linecap="round" stroke-linejoin="round"/>
<path d="M11 10.1V4.80005L12.2 5.65005H13.15L13.75 7.45005L15.4 7.50005V10.4H16" stroke="#606580" stroke-miterlimit="10" stroke-linecap="round" stroke-linejoin="round"/>
</svg>
