<svg width="16" height="17" viewBox="0 0 16 17" fill="none" xmlns="http://www.w3.org/2000/svg">
<path d="M11.9 9.34998H4.09998C2.69998 9.34998 1.59998 8.24998 1.59998 6.84998V6.34998C1.59998 4.94998 2.69998 3.84998 4.09998 3.84998H11.9C13.3 3.84998 14.4 4.94998 14.4 6.34998V6.84998C14.4 8.24998 13.3 9.34998 11.9 9.34998Z" stroke="#606580" stroke-miterlimit="10" stroke-linecap="round" stroke-linejoin="round"/>
<path d="M1.69999 13.2C2.19704 13.2 2.59999 12.7971 2.59999 12.3C2.59999 11.803 2.19704 11.4 1.69999 11.4C1.20293 11.4 0.799988 11.803 0.799988 12.3C0.799988 12.7971 1.20293 13.2 1.69999 13.2Z" stroke="#606580" stroke-miterlimit="10" stroke-linecap="round" stroke-linejoin="round"/>
<path d="M3.94993 13.2C4.44698 13.2 4.84993 12.7971 4.84993 12.3C4.84993 11.803 4.44698 11.4 3.94993 11.4C3.45287 11.4 3.04993 11.803 3.04993 12.3C3.04993 12.7971 3.45287 13.2 3.94993 13.2Z" stroke="#606580" stroke-miterlimit="10" stroke-linecap="round" stroke-linejoin="round"/>
<path d="M12.0499 13.2C12.547 13.2 12.9499 12.7971 12.9499 12.3C12.9499 11.803 12.547 11.4 12.0499 11.4C11.5528 11.4 11.1499 11.803 11.1499 12.3C11.1499 12.7971 11.5528 13.2 12.0499 13.2Z" stroke="#606580" stroke-miterlimit="10" stroke-linecap="round" stroke-linejoin="round"/>
<path d="M14.3 13.2C14.797 13.2 15.2 12.7971 15.2 12.3C15.2 11.803 14.797 11.4 14.3 11.4C13.8029 11.4 13.4 11.803 13.4 12.3C13.4 12.7971 13.8029 13.2 14.3 13.2Z" stroke="#606580" stroke-miterlimit="10" stroke-linecap="round" stroke-linejoin="round"/>
<path d="M9.8499 11.55H6.1499" stroke="#606580" stroke-miterlimit="10" stroke-linecap="round" stroke-linejoin="round"/>
<path d="M15.25 9.34998H0.75" stroke="#606580" stroke-miterlimit="10" stroke-linecap="round" stroke-linejoin="round"/>
<path d="M4.75 3.84998V6.99998" stroke="#606580" stroke-miterlimit="10" stroke-linecap="round" stroke-linejoin="round"/>
<path d="M11.25 3.84998V6.99998" stroke="#606580" stroke-miterlimit="10" stroke-linecap="round" stroke-linejoin="round"/>
</svg>
