<svg width="17" height="16" viewBox="0 0 17 16" fill="none" xmlns="http://www.w3.org/2000/svg">
<path d="M12.45 6.34999L3.85005 6.44999L2.30005 4.34999C2.10005 4.04999 1.75005 3.84999 1.40005 3.89999H0.700049C0.600049 3.89999 0.550049 3.99999 0.550049 4.09999L1.45005 6.49999H0.550049V7.19999C0.550049 7.39999 0.700049 7.59999 0.900049 7.64999L5.05005 8.94999C5.70005 9.14999 6.35005 9.29999 7.00005 9.39999L4.00005 12.95C3.95005 13 4.00005 13.15 4.10005 13.15H5.75005C5.90005 13.15 6.05005 13.1 6.20005 13L10.55 9.49999L13.6 9.44999C15 9.44999 15.6 8.84999 15.6 8.14999V8.04999C15.45 7.09999 14.1 6.34999 12.45 6.34999Z" stroke="#606580" stroke-miterlimit="10" stroke-linecap="round" stroke-linejoin="round"/>
<path d="M15.2501 7.40002C15.2501 7.40002 14.8501 7.75002 13.2001 7.75002" stroke="#606580" stroke-miterlimit="10" stroke-linecap="round" stroke-linejoin="round"/>
<path d="M8.65006 4.94999L7.10006 3.94999C6.95006 3.84999 6.80006 3.79999 6.65006 3.79999H5.20006C5.10006 3.79999 5.05006 3.89999 5.10006 3.99999L6.15006 4.94999" stroke="#606580" stroke-miterlimit="10" stroke-linecap="round" stroke-linejoin="round"/>
</svg>
