<svg width="16" height="16" viewBox="0 0 16 16" fill="none" xmlns="http://www.w3.org/2000/svg">
<path d="M14.6 1.39999C14.1 0.89999 13.3 0.89999 12.8 1.34999L9.34997 4.44999L3.34997 2.54999C3.19997 2.49999 2.99997 2.49999 2.84997 2.54999L1.64997 3.14999C1.29997 3.29999 1.24997 3.79999 1.59997 4.04999L7.19997 6.64999L7.29997 6.74999L4.74997 9.94999C4.54997 10.25 4.14997 10.35 3.79997 10.2L2.79997 9.69999C2.44997 9.49999 1.99997 9.59999 1.69997 9.89999L1.09997 10.5C0.899971 10.7 0.949971 11 1.19997 11.15L3.39997 12.35C3.54997 12.45 3.69997 12.55 3.74997 12.7L4.84997 14.8C4.99997 15.05 5.29997 15.1 5.49997 14.9L6.09997 14.3C6.39997 14 6.44997 13.55 6.29997 13.2L5.79997 12.2C5.64997 11.85 5.74997 11.45 6.04997 11.25L9.24997 8.69999L9.34997 8.79999L11.95 14.4C12.2 14.7 12.65 14.65 12.85 14.3L13.45 13.1C13.55 12.95 13.55 12.75 13.45 12.6L11.55 6.54999L14.65 3.09999C15.15 2.64999 15.1 1.89999 14.6 1.39999Z" stroke="#606580" stroke-miterlimit="10" stroke-linecap="round" stroke-linejoin="round"/>
</svg>
