<svg width="17" height="16" viewBox="0 0 17 16" fill="none" xmlns="http://www.w3.org/2000/svg">
<path d="M9.45 8.30001H2.3C1.6 8.30001 1 7.75001 1 7.00001V5.70001C1 5.00001 1.6 4.45001 2.3 4.45001H9.45C10.15 4.45001 10.75 5.05001 10.75 5.75001V7.00001C10.75 7.75001 10.15 8.30001 9.45 8.30001Z" stroke="#606580" stroke-miterlimit="10" stroke-linecap="round" stroke-linejoin="round"/>
<path d="M3.25 11.6C3.69182 11.6 4.05 11.2418 4.05 10.8C4.05 10.3582 3.69182 10 3.25 10C2.80817 10 2.45 10.3582 2.45 10.8C2.45 11.2418 2.80817 11.6 3.25 11.6Z" stroke="#606580" stroke-miterlimit="10" stroke-linecap="round" stroke-linejoin="round"/>
<path d="M6 11.6C6.44182 11.6 6.8 11.2418 6.8 10.8C6.8 10.3582 6.44182 10 6 10C5.55817 10 5.2 10.3582 5.2 10.8C5.2 11.2418 5.55817 11.6 6 11.6Z" stroke="#606580" stroke-miterlimit="10" stroke-linecap="round" stroke-linejoin="round"/>
<path d="M14.15 11.6C14.5918 11.6 14.95 11.2418 14.95 10.8C14.95 10.3582 14.5918 10 14.15 10C13.7082 10 13.35 10.3582 13.35 10.8C13.35 11.2418 13.7082 11.6 14.15 11.6Z" stroke="#606580" stroke-miterlimit="10" stroke-linecap="round" stroke-linejoin="round"/>
<path d="M11.65 10.65H8.5" stroke="#606580" stroke-miterlimit="10" stroke-linecap="round" stroke-linejoin="round"/>
<path d="M16 9.50001V6.75001L15.2 4.45001H12.45V8.30001H2" stroke="#606580" stroke-miterlimit="10" stroke-linecap="round" stroke-linejoin="round"/>
<path d="M8.95 4.55005V8.00005" stroke="#606580" stroke-miterlimit="10" stroke-linecap="round" stroke-linejoin="round"/>
<path d="M2.8 4.55005V8.00005" stroke="#606580" stroke-miterlimit="10" stroke-linecap="round" stroke-linejoin="round"/>
<path d="M15.8 8.00001L14 7.50001V5.95001H15.5" stroke="#606580" stroke-miterlimit="10" stroke-linecap="round" stroke-linejoin="round"/>
</svg>
