<svg width="17" height="16" viewBox="0 0 17 16" fill="none" xmlns="http://www.w3.org/2000/svg">
<path d="M8.6 8.34998H2.75C1.9 8.34998 1.25 7.64998 1.25 6.84998V5.34998C1.25 4.49998 1.95 3.84998 2.75 3.84998H8.6C9.45 3.84998 10.1 4.54998 10.1 5.34998V6.84998C10.15 7.69998 9.45 8.34998 8.6 8.34998Z" stroke="#606580" stroke-miterlimit="10" stroke-linecap="round" stroke-linejoin="round"/>
<path d="M2.94999 12.15C3.44704 12.15 3.84999 11.747 3.84999 11.25C3.84999 10.7529 3.44704 10.35 2.94999 10.35C2.45293 10.35 2.04999 10.7529 2.04999 11.25C2.04999 11.747 2.45293 12.15 2.94999 12.15Z" stroke="#606580" stroke-miterlimit="10" stroke-linecap="round" stroke-linejoin="round"/>
<path d="M5.24998 12.15C5.74703 12.15 6.14998 11.747 6.14998 11.25C6.14998 10.7529 5.74703 10.35 5.24998 10.35C4.75292 10.35 4.34998 10.7529 4.34998 11.25C4.34998 11.747 4.75292 12.15 5.24998 12.15Z" stroke="#606580" stroke-miterlimit="10" stroke-linecap="round" stroke-linejoin="round"/>
<path d="M13.05 12.15C13.5471 12.15 13.95 11.747 13.95 11.25C13.95 10.7529 13.5471 10.35 13.05 10.35C12.553 10.35 12.15 10.7529 12.15 11.25C12.15 11.747 12.553 12.15 13.05 12.15Z" stroke="#606580" stroke-miterlimit="10" stroke-linecap="round" stroke-linejoin="round"/>
<path d="M10.7 10.5H7.54999" stroke="#606580" stroke-miterlimit="10" stroke-linecap="round" stroke-linejoin="round"/>
<path d="M15.35 10.2L15.75 9.29998V7.19998C15.75 6.79998 15.7 6.39998 15.55 5.99998L15 4.39998C14.9 4.04998 14.6 3.84998 14.25 3.84998H12.1V8.39998H2.90002" stroke="#606580" stroke-miterlimit="10" stroke-linecap="round" stroke-linejoin="round"/>
</svg>
