<svg width="16" height="16" viewBox="0 0 16 16" fill="none" xmlns="http://www.w3.org/2000/svg">
<path d="M14.4 7.34998C14.4 8.74998 13.3 9.84998 11.9 9.84998H4.1C2.7 9.84998 1.6 8.74998 1.6 7.34998V6.84998C1.6 5.44998 2.7 4.34998 4.1 4.34998H9" stroke="#606580" stroke-miterlimit="10" stroke-linecap="round" stroke-linejoin="round"/>
<path d="M1.7 13.7C2.19706 13.7 2.6 13.297 2.6 12.8C2.6 12.3029 2.19706 11.9 1.7 11.9C1.20295 11.9 0.800003 12.3029 0.800003 12.8C0.800003 13.297 1.20295 13.7 1.7 13.7Z" stroke="#606580" stroke-miterlimit="10" stroke-linecap="round" stroke-linejoin="round"/>
<path d="M3.95 13.7C4.44706 13.7 4.85 13.297 4.85 12.8C4.85 12.3029 4.44706 11.9 3.95 11.9C3.45295 11.9 3.05 12.3029 3.05 12.8C3.05 13.297 3.45295 13.7 3.95 13.7Z" stroke="#606580" stroke-miterlimit="10" stroke-linecap="round" stroke-linejoin="round"/>
<path d="M12.05 13.7C12.5471 13.7 12.95 13.297 12.95 12.8C12.95 12.3029 12.5471 11.9 12.05 11.9C11.5529 11.9 11.15 12.3029 11.15 12.8C11.15 13.297 11.5529 13.7 12.05 13.7Z" stroke="#606580" stroke-miterlimit="10" stroke-linecap="round" stroke-linejoin="round"/>
<path d="M14.3 13.7C14.7971 13.7 15.2 13.297 15.2 12.8C15.2 12.3029 14.7971 11.9 14.3 11.9C13.803 11.9 13.4 12.3029 13.4 12.8C13.4 13.297 13.803 13.7 14.3 13.7Z" stroke="#606580" stroke-miterlimit="10" stroke-linecap="round" stroke-linejoin="round"/>
<path d="M9.85 12.0499H6.15" stroke="#606580" stroke-miterlimit="10" stroke-linecap="round" stroke-linejoin="round"/>
<path d="M15.25 9.84998H0.75" stroke="#606580" stroke-miterlimit="10" stroke-linecap="round" stroke-linejoin="round"/>
<path d="M4.75 4.34998V7.49998" stroke="#606580" stroke-miterlimit="10" stroke-linecap="round" stroke-linejoin="round"/>
<path d="M12.3785 4.5H12.1369C12.0564 4.5 12 4.4125 12 4.3V1.2C12 1.0875 12.0564 1 12.1288 1H12.3704C12.4429 1 12.4992 1.0875 12.4992 1.2V4.2875C12.5073 4.4125 12.4509 4.5 12.3785 4.5Z" stroke="#606580" stroke-miterlimit="10" stroke-linecap="round" stroke-linejoin="round"/>
<path d="M14.871 4.5H14.629C14.5565 4.5 14.5 4.4125 14.5 4.3V1.2C14.5 1.0875 14.5565 1 14.629 1H14.871C14.9435 1 15 1.0875 15 1.2V4.2875C15 4.4125 14.9435 4.5 14.871 4.5Z" stroke="#606580" stroke-miterlimit="10" stroke-linecap="round" stroke-linejoin="round"/>
</svg>
