<svg width="22" height="18" viewBox="0 0 22 18" fill="none" xmlns="http://www.w3.org/2000/svg">
<g filter="url(#filter0_d)">
<mask id="mask0" style="mask-type:alpha" maskUnits="userSpaceOnUse" x="3" y="1" width="16" height="12">
<rect x="3" y="1" width="16" height="12" fill="white"/>
</mask>
<g mask="url(#mask0)">
<path fill-rule="evenodd" clip-rule="evenodd" d="M7 1H15V13H7V1Z" fill="#FFD018"/>
<path fill-rule="evenodd" clip-rule="evenodd" d="M3 1H7V13H3V1Z" fill="#2E42A5"/>
<path fill-rule="evenodd" clip-rule="evenodd" d="M15 1H19V13H15V1Z" fill="#E31D1C"/>
<path fill-rule="evenodd" clip-rule="evenodd" d="M7.89999 4.60712C7.89999 4.05206 8.35205 3.6032 8.90709 3.60714L13.3017 3.63832C13.8512 3.64222 14.2946 4.08878 14.2946 4.6383V8.64537C14.2946 8.64537 13.8505 10.6454 11.149 10.6454C8.4474 10.6454 7.89999 8.6 7.89999 8.6V4.60712Z" fill="#BF9937"/>
<path fill-rule="evenodd" clip-rule="evenodd" d="M8.14999 5.19998C8.56421 5.19998 8.89999 4.8642 8.89999 4.44998C8.89999 4.03577 8.56421 3.69998 8.14999 3.69998C7.73578 3.69998 7.39999 4.03577 7.39999 4.44998C7.39999 4.8642 7.73578 5.19998 8.14999 5.19998Z" fill="#BF9937"/>
<path fill-rule="evenodd" clip-rule="evenodd" d="M8.14999 7.39999C8.56421 7.39999 8.89999 7.06421 8.89999 6.64999C8.89999 6.23578 8.56421 5.89999 8.14999 5.89999C7.73578 5.89999 7.39999 6.23578 7.39999 6.64999C7.39999 7.06421 7.73578 7.39999 8.14999 7.39999Z" fill="#BF9937"/>
<path fill-rule="evenodd" clip-rule="evenodd" d="M8.14999 9.19998C8.56421 9.19998 8.89999 8.8642 8.89999 8.44998C8.89999 8.03577 8.56421 7.69998 8.14999 7.69998C7.73578 7.69998 7.39999 8.03577 7.39999 8.44998C7.39999 8.8642 7.73578 9.19998 8.14999 9.19998Z" fill="#BF9937"/>
<path fill-rule="evenodd" clip-rule="evenodd" d="M13.85 5.19998C14.2642 5.19998 14.6 4.8642 14.6 4.44998C14.6 4.03577 14.2642 3.69998 13.85 3.69998C13.4358 3.69998 13.1 4.03577 13.1 4.44998C13.1 4.8642 13.4358 5.19998 13.85 5.19998Z" fill="#BF9937"/>
<path fill-rule="evenodd" clip-rule="evenodd" d="M13.85 7.39999C14.2642 7.39999 14.6 7.06421 14.6 6.64999C14.6 6.23578 14.2642 5.89999 13.85 5.89999C13.4358 5.89999 13.1 6.23578 13.1 6.64999C13.1 7.06421 13.4358 7.39999 13.85 7.39999Z" fill="#BF9937"/>
<path fill-rule="evenodd" clip-rule="evenodd" d="M13.85 9.19998C14.2642 9.19998 14.6 8.8642 14.6 8.44998C14.6 8.03577 14.2642 7.69998 13.85 7.69998C13.4358 7.69998 13.1 8.03577 13.1 8.44998C13.1 8.8642 13.4358 9.19998 13.85 9.19998Z" fill="#BF9937"/>
<path d="M8.91183 9.33516L8.96438 9.2081C9.56823 9.46694 10.2554 9.59653 11.0263 9.59653C11.7969 9.59653 12.4656 9.46707 13.0328 9.20871L13.0881 9.33455C12.5024 9.6013 11.815 9.73439 11.0263 9.73439C10.238 9.73439 9.53305 9.60144 8.91183 9.33516Z" fill="#805440"/>
<path fill-rule="evenodd" clip-rule="evenodd" d="M9.11488 4.8092H10.9764H11.0235H12.8851V8.32411C12.8851 8.32411 12.8844 8.63434 12.5564 8.76998C12.2284 8.90562 11.8426 8.85708 11.8426 8.85708C11.8426 8.85708 11.4735 8.77771 11.2786 8.85708C11.1592 8.90572 11.0726 8.92979 11.0235 8.94114V8.95039C11.0235 8.95039 11.0155 8.94935 11 8.94623C10.9844 8.94935 10.9764 8.95039 10.9764 8.95039V8.94114C10.9273 8.92979 10.8408 8.90572 10.7213 8.85708C10.5264 8.77771 10.1573 8.85708 10.1573 8.85708C10.1573 8.85708 9.77152 8.90562 9.44353 8.76998C9.11554 8.63434 9.11488 8.32411 9.11488 8.32411V4.8092Z" fill="#BF9937"/>
<mask id="mask1" style="mask-type:alpha" maskUnits="userSpaceOnUse" x="9" y="4" width="4" height="5">
<path fill-rule="evenodd" clip-rule="evenodd" d="M9.11488 4.8092H10.9764H11.0235H12.8851V8.32411C12.8851 8.32411 12.8844 8.63434 12.5564 8.76998C12.2284 8.90562 11.8426 8.85708 11.8426 8.85708C11.8426 8.85708 11.4735 8.77771 11.2786 8.85708C11.1592 8.90572 11.0726 8.92979 11.0235 8.94114V8.95039C11.0235 8.95039 11.0155 8.94935 11 8.94623C10.9844 8.94935 10.9764 8.95039 10.9764 8.95039V8.94114C10.9273 8.92979 10.8408 8.90572 10.7213 8.85708C10.5264 8.77771 10.1573 8.85708 10.1573 8.85708C10.1573 8.85708 9.77152 8.90562 9.44353 8.76998C9.11554 8.63434 9.11488 8.32411 9.11488 8.32411V4.8092Z" fill="white"/>
</mask>
<g mask="url(#mask1)">
<rect x="9.06219" y="4.76508" width="1.82812" height="1.95" fill="#D00F3A"/>
<path fill-rule="evenodd" clip-rule="evenodd" d="M11.0934 4.76508H12.9893V6.71508H11.0934V4.76508Z" fill="#FEDF00"/>
<path fill-rule="evenodd" clip-rule="evenodd" d="M11.0934 6.93173H12.9216V8.95395H11.0934V6.93173Z" fill="#FEDF00"/>
<rect x="9.06219" y="6.93173" width="1.82812" height="2.02222" fill="#FEDF00"/>
<path fill-rule="evenodd" clip-rule="evenodd" d="M12.0622 8.26508C12.3383 8.26508 12.5622 8.04122 12.5622 7.76508C12.5622 7.48893 12.3383 7.26508 12.0622 7.26508C11.7861 7.26508 11.5622 7.48893 11.5622 7.76508C11.5622 8.04122 11.7861 8.26508 12.0622 8.26508Z" fill="#D00F3A"/>
<path fill-rule="evenodd" clip-rule="evenodd" d="M10.015 6.21771V5.10431L10.4857 5.63679L10.2439 6.21771C10.1548 6.18667 10.1236 6.25243 10.1695 6.36953C10.1969 6.43931 10.2185 6.48956 10.2396 6.52838C10.1594 6.44711 10.126 6.39628 10.126 6.34167C10.126 6.29749 10.1219 6.26711 10.1112 6.24713C10.1061 6.23773 10.0638 6.22867 10.0367 6.22285C10.0262 6.22059 10.0179 6.21882 10.015 6.21771ZM9.79507 6.21771L9.55328 5.63679L10.0126 5.1084V6.2218C10.0096 6.22295 10.0018 6.22447 9.99202 6.22636C9.96819 6.23098 9.93279 6.23786 9.92781 6.24713C9.91711 6.26711 9.913 6.29749 9.913 6.34167C9.913 6.39628 9.87959 6.44711 9.79943 6.52838C9.8205 6.48956 9.84211 6.43931 9.86947 6.36953C9.91539 6.25243 9.88418 6.18667 9.79507 6.21771Z" fill="#FEDF00"/>
<rect x="11.5045" y="5.28964" width="1" height="1" fill="#D00F3A"/>
<path fill-rule="evenodd" clip-rule="evenodd" d="M9.56219 7.38031H10.5622V8.38031H9.56219V7.38031Z" fill="#D00F3A"/>
</g>
</g>
<rect x="3" y="1" width="16" height="12" fill="url(#paint0_linear)" style="mix-blend-mode:overlay"/>
</g>
<defs>
<filter id="filter0_d" x="0" y="0" width="22" height="18" filterUnits="userSpaceOnUse" color-interpolation-filters="sRGB">
<feFlood flood-opacity="0" result="BackgroundImageFix"/>
<feColorMatrix in="SourceAlpha" type="matrix" values="0 0 0 0 0 0 0 0 0 0 0 0 0 0 0 0 0 0 127 0" result="hardAlpha"/>
<feOffset dy="2"/>
<feGaussianBlur stdDeviation="1.5"/>
<feColorMatrix type="matrix" values="0 0 0 0 0 0 0 0 0 0 0 0 0 0 0 0 0 0 0.1 0"/>
<feBlend mode="normal" in2="BackgroundImageFix" result="effect1_dropShadow"/>
<feBlend mode="normal" in="SourceGraphic" in2="effect1_dropShadow" result="shape"/>
</filter>
<linearGradient id="paint0_linear" x1="11" y1="1" x2="11" y2="13" gradientUnits="userSpaceOnUse">
<stop stop-color="white" stop-opacity="0.7"/>
<stop offset="1" stop-opacity="0.3"/>
</linearGradient>
</defs>
</svg>
