<svg width="22" height="18" viewBox="0 0 22 18" fill="none" xmlns="http://www.w3.org/2000/svg">
<g filter="url(#filter0_d)">
<mask id="mask0" style="mask-type:alpha" maskUnits="userSpaceOnUse" x="3" y="1" width="16" height="12">
<rect x="3" y="1" width="16" height="12" fill="white"/>
</mask>
<g mask="url(#mask0)">
<path fill-rule="evenodd" clip-rule="evenodd" d="M14 1H19V13H14V1Z" fill="#67BD38"/>
<path fill-rule="evenodd" clip-rule="evenodd" d="M8 1H14V13H8V1Z" fill="#D51700"/>
<path fill-rule="evenodd" clip-rule="evenodd" d="M3 1H8V13H3V1Z" fill="#272727"/>
<path fill-rule="evenodd" clip-rule="evenodd" d="M8 7.05C8 8.73447 9.36553 10.1 11.05 10.1C12.7345 10.1 14.1 8.73447 14.1 7.05C14.1 6.35723 13.869 5.7184 13.4799 5.20632L13.037 6.54379C13.0781 6.7057 13.1 6.8753 13.1 7.05C13.1 7.71166 12.7865 8.30011 12.3 8.67494V6.3H12C12 5.74772 11.5523 5.3 11 5.3C10.4477 5.3 10 5.74772 10 6.3H9.7V8.59276C9.27094 8.21701 9 7.66515 9 7.05C9 6.91509 9.01303 6.78323 9.0379 6.6556H9L8.62948 5.19406C8.23468 5.70818 8 6.35169 8 7.05ZM10.7 7.25422V9.07024C10.8137 9.08981 10.9307 9.1 11.05 9.1C11.1346 9.1 11.2181 9.09487 11.3 9.08491V7.25422C11.2053 7.28396 11.1045 7.3 11 7.3C10.8955 7.3 10.7947 7.28396 10.7 7.25422Z" fill="#F7FCFF"/>
</g>
<rect x="3" y="1" width="16" height="12" fill="url(#paint0_linear)" style="mix-blend-mode:overlay"/>
</g>
<defs>
<filter id="filter0_d" x="0" y="0" width="22" height="18" filterUnits="userSpaceOnUse" color-interpolation-filters="sRGB">
<feFlood flood-opacity="0" result="BackgroundImageFix"/>
<feColorMatrix in="SourceAlpha" type="matrix" values="0 0 0 0 0 0 0 0 0 0 0 0 0 0 0 0 0 0 127 0" result="hardAlpha"/>
<feOffset dy="2"/>
<feGaussianBlur stdDeviation="1.5"/>
<feColorMatrix type="matrix" values="0 0 0 0 0 0 0 0 0 0 0 0 0 0 0 0 0 0 0.1 0"/>
<feBlend mode="normal" in2="BackgroundImageFix" result="effect1_dropShadow"/>
<feBlend mode="normal" in="SourceGraphic" in2="effect1_dropShadow" result="shape"/>
</filter>
<linearGradient id="paint0_linear" x1="11" y1="1" x2="11" y2="13" gradientUnits="userSpaceOnUse">
<stop stop-color="white" stop-opacity="0.7"/>
<stop offset="1" stop-opacity="0.3"/>
</linearGradient>
</defs>
</svg>
