<svg width="22" height="18" viewBox="0 0 22 18" fill="none" xmlns="http://www.w3.org/2000/svg">
<g filter="url(#filter0_d)">
<mask id="mask0" style="mask-type:alpha" maskUnits="userSpaceOnUse" x="3" y="1" width="16" height="12">
<rect x="3" y="1" width="16" height="12" fill="white"/>
</mask>
<g mask="url(#mask0)">
<path fill-rule="evenodd" clip-rule="evenodd" d="M3 1V13H19V1H3Z" fill="#19724D"/>
<mask id="mask1" style="mask-type:alpha" maskUnits="userSpaceOnUse" x="3" y="1" width="16" height="12">
<path fill-rule="evenodd" clip-rule="evenodd" d="M3 1V13H19V1H3Z" fill="white"/>
</mask>
<g mask="url(#mask1)">
<path d="M10.7877 8.50895L9.93081 10.8545L10.4044 8.40263L8.96958 10.4465L10.0616 8.20071L8.1467 9.80356L9.78272 7.91696L7.51825 8.96959L9.58682 7.5707L7.12707 8.00138L9.48721 7.18554L6.99981 6.96491L9.49068 6.78772L7.14514 5.93082L9.597 6.40436L7.55316 4.96959L9.79891 6.06157L8.19607 4.14671L10.0827 5.78273L9.03004 3.51826L10.4289 5.58683L9.99825 3.12708L10.8141 5.48722L11.0347 2.99982L11.2119 5.49069L12.0688 3.14515L11.5953 5.597L13.03 3.55317L11.9381 5.79892L13.8529 4.19607L12.2169 6.08267L14.4814 5.03005L12.4128 6.42893L14.8725 5.99826L12.5124 6.81409L14.9998 7.03472L12.5089 7.21191L14.8545 8.06881L12.4026 7.59528L14.4465 9.03005L12.2007 7.93806L13.8036 9.85293L11.917 8.21691L12.9696 10.4814L11.5707 8.41281L12.0014 10.8726L11.1855 8.51242L10.9649 10.9998L10.7877 8.50895Z" fill="#F7FCFF"/>
<mask id="path-6-outside-1" maskUnits="userSpaceOnUse" x="7.5" y="3" width="7" height="8" fill="black">
<rect fill="white" x="7.5" y="3" width="7" height="8"/>
<path fill-rule="evenodd" clip-rule="evenodd" d="M11.3484 9.9213L11.1917 10L11.0824 9.83384V9.748L11 9.55057L10.8693 9.39129L10.8152 8.98909L10.6553 8.69344L10.6365 8.66058L10.6146 8.58403V8.47798L10.6553 8.32789L10.7262 8.15092V7.99399V7.79737L10.6553 7.5574L10.4627 7.35914L10.3697 7.20691L10.4627 7.02524L10.5325 6.86551L10.3697 6.75412H10.185L9.99767 6.56177L9.73972 6.65713L9.41584 6.75412H9.23117H9.01874L8.84273 6.56177L8.74881 6.33488L8.57083 6.10006L8.5 5.98117L8.57083 5.81307V5.55826V5.32579L8.68226 5.20176L8.84273 4.88056L9.01874 4.71169L9.16877 4.56587L9.23117 4.41633L9.41584 4.18648L9.58276 4.08544V4.18648H9.73972L10.5325 4V4.29722L10.8693 4.49569L11.1917 4.56587V4.41633L11.7479 4.56587L12.1445 4.49569V4.79451L12.3459 5.20176L12.5136 5.55826L12.6065 5.73173L12.7521 5.8937L12.9861 6.10006V6.19837H13.2165L13.5 6.10006V6.33488L13.3489 6.75412L13.054 7.02524L12.6781 7.5574V7.79737L12.7521 8.15092L12.6781 8.47798L12.2675 8.74827V8.91325V9.25427H12.0661V9.49687L11.6172 9.9213H11.3484ZM12.8346 9.14286L12.7268 9.10096L12.6901 9.04182L12.6667 8.88999L12.8497 8.75766L12.8118 8.61087L12.8721 8.53358L12.9767 8.51209L13.2108 8.46697L13.3886 8.28571L13.5 8.3151L13.4847 8.51209L13.0259 9.10096L12.8346 9.14286Z"/>
</mask>
<path fill-rule="evenodd" clip-rule="evenodd" d="M11.3484 9.9213L11.1917 10L11.0824 9.83384V9.748L11 9.55057L10.8693 9.39129L10.8152 8.98909L10.6553 8.69344L10.6365 8.66058L10.6146 8.58403V8.47798L10.6553 8.32789L10.7262 8.15092V7.99399V7.79737L10.6553 7.5574L10.4627 7.35914L10.3697 7.20691L10.4627 7.02524L10.5325 6.86551L10.3697 6.75412H10.185L9.99767 6.56177L9.73972 6.65713L9.41584 6.75412H9.23117H9.01874L8.84273 6.56177L8.74881 6.33488L8.57083 6.10006L8.5 5.98117L8.57083 5.81307V5.55826V5.32579L8.68226 5.20176L8.84273 4.88056L9.01874 4.71169L9.16877 4.56587L9.23117 4.41633L9.41584 4.18648L9.58276 4.08544V4.18648H9.73972L10.5325 4V4.29722L10.8693 4.49569L11.1917 4.56587V4.41633L11.7479 4.56587L12.1445 4.49569V4.79451L12.3459 5.20176L12.5136 5.55826L12.6065 5.73173L12.7521 5.8937L12.9861 6.10006V6.19837H13.2165L13.5 6.10006V6.33488L13.3489 6.75412L13.054 7.02524L12.6781 7.5574V7.79737L12.7521 8.15092L12.6781 8.47798L12.2675 8.74827V8.91325V9.25427H12.0661V9.49687L11.6172 9.9213H11.3484ZM12.8346 9.14286L12.7268 9.10096L12.6901 9.04182L12.6667 8.88999L12.8497 8.75766L12.8118 8.61087L12.8721 8.53358L12.9767 8.51209L13.2108 8.46697L13.3886 8.28571L13.5 8.3151L13.4847 8.51209L13.0259 9.10096L12.8346 9.14286Z" fill="#19724D"/>
<path d="M11.1917 10L11.0246 10.1099L11.1224 10.2586L11.2815 10.1787L11.1917 10ZM11.3484 9.9213V9.7213H11.301L11.2587 9.74257L11.3484 9.9213ZM11.0824 9.83384H10.8824V9.89372L10.9153 9.94374L11.0824 9.83384ZM11.0824 9.748H11.2824V9.70793L11.267 9.67094L11.0824 9.748ZM11 9.55057L11.1846 9.47351L11.1732 9.44641L11.1546 9.4237L11 9.55057ZM10.8693 9.39129L10.6711 9.41793L10.6786 9.47424L10.7147 9.51816L10.8693 9.39129ZM10.8152 8.98909L11.0135 8.96245L11.0086 8.92614L10.9911 8.89391L10.8152 8.98909ZM10.6553 8.69344L10.8312 8.59824L10.8289 8.59415L10.6553 8.69344ZM10.6365 8.66058L10.4442 8.71546L10.4508 8.7388L10.4629 8.75987L10.6365 8.66058ZM10.6146 8.58403H10.4146V8.612L10.4223 8.6389L10.6146 8.58403ZM10.6146 8.47798L10.4216 8.42572L10.4146 8.45139V8.47798H10.6146ZM10.6553 8.32789L10.4696 8.25344L10.4653 8.26432L10.4622 8.27563L10.6553 8.32789ZM10.7262 8.15092L10.9119 8.22536L10.9262 8.18953V8.15092H10.7262ZM10.7262 7.79737H10.9262V7.76841L10.918 7.74065L10.7262 7.79737ZM10.6553 7.5574L10.8471 7.50068L10.8331 7.45341L10.7987 7.41805L10.6553 7.5574ZM10.4627 7.35914L10.2921 7.46345L10.3037 7.48248L10.3192 7.49848L10.4627 7.35914ZM10.3697 7.20691L10.1916 7.11573L10.1405 7.21554L10.199 7.31123L10.3697 7.20691ZM10.4627 7.02524L10.6411 7.11659L10.646 7.10529L10.4627 7.02524ZM10.5325 6.86551L10.7158 6.94557L10.782 6.7939L10.6454 6.70044L10.5325 6.86551ZM10.3697 6.75412L10.4826 6.58905L10.4315 6.55412H10.3697V6.75412ZM10.185 6.75412L10.0417 6.89366L10.1006 6.95412H10.185V6.75412ZM9.99767 6.56177L10.1409 6.42223L10.0502 6.32911L9.92832 6.37418L9.99767 6.56177ZM9.73972 6.65713L9.79721 6.8491L9.80906 6.84472L9.73972 6.65713ZM9.41584 6.75412V6.95412H9.44515L9.47322 6.94571L9.41584 6.75412ZM9.01874 6.75412L8.87119 6.88914L8.93066 6.95412H9.01874V6.75412ZM8.84273 6.56177L8.65794 6.63827L8.67141 6.67081L8.69518 6.69679L8.84273 6.56177ZM8.74881 6.33488L8.9336 6.25839L8.92375 6.2346L8.9082 6.21408L8.74881 6.33488ZM8.57083 6.10006L8.39901 6.20242L8.40471 6.21199L8.41144 6.22087L8.57083 6.10006ZM8.5 5.98117L8.31569 5.90351L8.27644 5.99668L8.32818 6.08353L8.5 5.98117ZM8.57083 5.81307L8.75514 5.89073L8.77083 5.85348V5.81307H8.57083ZM8.57083 5.32579L8.42205 5.19213L8.37083 5.24915V5.32579H8.57083ZM8.68226 5.20176L8.83104 5.33542L8.8491 5.31532L8.86118 5.29114L8.68226 5.20176ZM8.84273 4.88056L8.70427 4.73624L8.67929 4.7602L8.66382 4.79117L8.84273 4.88056ZM9.01874 4.71169L9.15721 4.85601L9.15814 4.85511L9.01874 4.71169ZM9.16877 4.56587L9.30816 4.70929L9.33756 4.68072L9.35334 4.64289L9.16877 4.56587ZM9.23117 4.41633L9.07526 4.29106L9.05752 4.31315L9.0466 4.3393L9.23117 4.41633ZM9.41584 4.18648L9.31227 4.01539L9.28206 4.03368L9.25993 4.06121L9.41584 4.18648ZM9.58276 4.08544H9.78276V3.73057L9.47919 3.91434L9.58276 4.08544ZM9.58276 4.18648H9.38276V4.38648H9.58276V4.18648ZM9.73972 4.18648V4.38648H9.76292L9.78551 4.38117L9.73972 4.18648ZM10.5325 4H10.7325V3.7475L10.4867 3.80531L10.5325 4ZM10.5325 4.29722H10.3325V4.4115L10.4309 4.46952L10.5325 4.29722ZM10.8693 4.49569L10.7678 4.668L10.7954 4.6843L10.8268 4.69112L10.8693 4.49569ZM11.1917 4.56587L11.1492 4.76129L11.3917 4.81408V4.56587H11.1917ZM11.1917 4.41633L11.2437 4.22318L10.9917 4.15545V4.41633H11.1917ZM11.7479 4.56587L11.696 4.75901L11.7389 4.77056L11.7827 4.76281L11.7479 4.56587ZM12.1445 4.49569H12.3445V4.2572L12.1096 4.29875L12.1445 4.49569ZM12.1445 4.79451H11.9445V4.84126L11.9652 4.88316L12.1445 4.79451ZM12.3459 5.20176L12.5269 5.11659L12.5251 5.1131L12.3459 5.20176ZM12.5136 5.55826L12.3324 5.64353L12.3373 5.65266L12.5136 5.55826ZM12.6065 5.73173L12.4302 5.82612L12.4416 5.84746L12.4578 5.86546L12.6065 5.73173ZM12.7521 5.8937L12.6034 6.02743L12.6112 6.03604L12.6198 6.0437L12.7521 5.8937ZM12.9861 6.10006H13.1861V6.00978L13.1184 5.95006L12.9861 6.10006ZM12.9861 6.19837H12.7861V6.39837H12.9861V6.19837ZM13.2165 6.19837V6.39837H13.2501L13.282 6.38733L13.2165 6.19837ZM13.5 6.10006H13.7V5.81904L13.4345 5.91109L13.5 6.10006ZM13.5 6.33488L13.6882 6.40269L13.7 6.36982V6.33488H13.5ZM13.3489 6.75412L13.4843 6.90136L13.5204 6.86812L13.5371 6.82193L13.3489 6.75412ZM13.054 7.02524L12.9187 6.878L12.903 6.89243L12.8907 6.90984L13.054 7.02524ZM12.6781 7.5574L12.5147 7.442L12.4781 7.49388V7.5574H12.6781ZM12.6781 7.79737H12.4781V7.81809L12.4823 7.83837L12.6781 7.79737ZM12.7521 8.15092L12.9472 8.19508L12.9568 8.15258L12.9479 8.10992L12.7521 8.15092ZM12.6781 8.47798L12.788 8.64503L12.8554 8.60073L12.8731 8.52214L12.6781 8.47798ZM12.2675 8.74827L12.1575 8.58122L12.0675 8.64048V8.74827H12.2675ZM12.2675 9.25427V9.45427H12.4675V9.25427H12.2675ZM12.0661 9.25427V9.05427H11.8661V9.25427H12.0661ZM12.0661 9.49687L12.2035 9.6422L12.2661 9.58301V9.49687H12.0661ZM11.6172 9.9213V10.1213H11.6968L11.7546 10.0666L11.6172 9.9213ZM12.7268 9.10096L12.557 9.20656L12.5922 9.2632L12.6543 9.28737L12.7268 9.10096ZM12.8346 9.14286L12.7621 9.32926L12.8184 9.35114L12.8773 9.33823L12.8346 9.14286ZM12.6901 9.04182L12.4924 9.07227L12.4986 9.11269L12.5202 9.14742L12.6901 9.04182ZM12.6667 8.88999L12.5495 8.7279L12.4504 8.79955L12.469 8.92043L12.6667 8.88999ZM12.8497 8.75766L12.9669 8.91975L13.0775 8.8398L13.0434 8.70767L12.8497 8.75766ZM12.8118 8.61087L12.6542 8.48785L12.5936 8.5655L12.6182 8.66085L12.8118 8.61087ZM12.8721 8.53358L12.8319 8.33768L12.7597 8.3525L12.7145 8.41056L12.8721 8.53358ZM12.9767 8.51209L12.9389 8.31569L12.9365 8.31618L12.9767 8.51209ZM13.2108 8.46697L13.2486 8.66336L13.3099 8.65156L13.3536 8.60703L13.2108 8.46697ZM13.3886 8.28571L13.4396 8.09233L13.3272 8.06268L13.2458 8.14566L13.3886 8.28571ZM13.5 8.3151L13.6994 8.33056L13.7123 8.16427L13.551 8.12172L13.5 8.3151ZM13.4847 8.51209L13.6425 8.63501L13.6795 8.58754L13.6841 8.52754L13.4847 8.51209ZM13.0259 9.10096L13.0687 9.29634L13.1393 9.28088L13.1837 9.22388L13.0259 9.10096ZM11.2815 10.1787L11.4382 10.1L11.2587 9.74257L11.102 9.82127L11.2815 10.1787ZM10.9153 9.94374L11.0246 10.1099L11.3588 9.8901L11.2495 9.72394L10.9153 9.94374ZM10.8824 9.748V9.83384H11.2824V9.748H10.8824ZM10.8154 9.62763L10.8979 9.82507L11.267 9.67094L11.1846 9.47351L10.8154 9.62763ZM10.7147 9.51816L10.8454 9.67744L11.1546 9.4237L11.0239 9.26442L10.7147 9.51816ZM10.617 9.01573L10.6711 9.41793L11.0675 9.36465L11.0135 8.96245L10.617 9.01573ZM10.4794 8.78861L10.6393 9.08426L10.9911 8.89391L10.8312 8.59826L10.4794 8.78861ZM10.4629 8.75987L10.4817 8.79273L10.8289 8.59415L10.8101 8.5613L10.4629 8.75987ZM10.4223 8.6389L10.4442 8.71546L10.8288 8.60571L10.807 8.52916L10.4223 8.6389ZM10.4146 8.47798V8.58403H10.8146V8.47798H10.4146ZM10.4622 8.27563L10.4216 8.42572L10.8077 8.53024L10.8483 8.38015L10.4622 8.27563ZM10.5406 8.07647L10.4696 8.25344L10.8409 8.40233L10.9119 8.22536L10.5406 8.07647ZM10.5262 7.99399V8.15092H10.9262V7.99399H10.5262ZM10.5262 7.79737V7.99399H10.9262V7.79737H10.5262ZM10.4635 7.61412L10.5345 7.85409L10.918 7.74065L10.8471 7.50068L10.4635 7.61412ZM10.3192 7.49848L10.5118 7.69674L10.7987 7.41805L10.6062 7.21979L10.3192 7.49848ZM10.199 7.31123L10.2921 7.46345L10.6334 7.25482L10.5403 7.1026L10.199 7.31123ZM10.2847 6.93406L10.1916 7.11573L10.5477 7.29809L10.6407 7.11642L10.2847 6.93406ZM10.3492 6.78546L10.2794 6.94518L10.646 7.10529L10.7158 6.94557L10.3492 6.78546ZM10.2567 6.91919L10.4196 7.03058L10.6454 6.70044L10.4826 6.58905L10.2567 6.91919ZM10.185 6.95412H10.3697V6.55412H10.185V6.95412ZM9.85439 6.70132L10.0417 6.89366L10.3283 6.61458L10.1409 6.42223L9.85439 6.70132ZM9.80906 6.84472L10.067 6.74937L9.92832 6.37418L9.67037 6.46953L9.80906 6.84472ZM9.47322 6.94571L9.79709 6.84872L9.68234 6.46553L9.35847 6.56253L9.47322 6.94571ZM9.23117 6.95412H9.41584V6.55412H9.23117V6.95412ZM9.01874 6.95412H9.23117V6.55412H9.01874V6.95412ZM8.69518 6.69679L8.87119 6.88914L9.16629 6.61911L8.99028 6.42676L8.69518 6.69679ZM8.56402 6.41138L8.65794 6.63827L9.02752 6.48528L8.9336 6.25839L8.56402 6.41138ZM8.41144 6.22087L8.58942 6.45569L8.9082 6.21408L8.73022 5.97925L8.41144 6.22087ZM8.32818 6.08353L8.39901 6.20242L8.74265 5.9977L8.67182 5.87881L8.32818 6.08353ZM8.38652 5.73541L8.31569 5.90351L8.68431 6.05883L8.75514 5.89073L8.38652 5.73541ZM8.37083 5.55826V5.81307H8.77083V5.55826H8.37083ZM8.37083 5.32579V5.55826H8.77083V5.32579H8.37083ZM8.53349 5.06809L8.42205 5.19213L8.7196 5.45946L8.83104 5.33542L8.53349 5.06809ZM8.66382 4.79117L8.50335 5.11237L8.86118 5.29114L9.02165 4.96994L8.66382 4.79117ZM8.88028 4.56737L8.70427 4.73624L8.98119 5.02488L9.1572 4.85601L8.88028 4.56737ZM9.02937 4.42245L8.87934 4.56827L9.15814 4.85511L9.30816 4.70929L9.02937 4.42245ZM9.0466 4.3393L8.98419 4.48884L9.35334 4.64289L9.41575 4.49335L9.0466 4.3393ZM9.25993 4.06121L9.07526 4.29106L9.38708 4.54159L9.57176 4.31175L9.25993 4.06121ZM9.47919 3.91434L9.31227 4.01539L9.51942 4.35757L9.68633 4.25653L9.47919 3.91434ZM9.78276 4.18648V4.08544H9.38276V4.18648H9.78276ZM9.73972 3.98648H9.58276V4.38648H9.73972V3.98648ZM10.4867 3.80531L9.69392 3.9918L9.78551 4.38117L10.5783 4.19469L10.4867 3.80531ZM10.7325 4.29722V4H10.3325V4.29722H10.7325ZM10.9708 4.32339L10.634 4.12491L10.4309 4.46952L10.7678 4.668L10.9708 4.32339ZM11.2343 4.37044L10.9118 4.30027L10.8268 4.69112L11.1492 4.76129L11.2343 4.37044ZM10.9917 4.41633V4.56587H11.3917V4.41633H10.9917ZM11.7998 4.37273L11.2437 4.22318L11.1398 4.60947L11.696 4.75901L11.7998 4.37273ZM12.1096 4.29875L11.713 4.36893L11.7827 4.76281L12.1793 4.69264L12.1096 4.29875ZM12.3445 4.79451V4.49569H11.9445V4.79451H12.3445ZM12.5251 5.1131L12.3237 4.70585L11.9652 4.88316L12.1666 5.29041L12.5251 5.1131ZM12.6946 5.47311L12.5268 5.1166L12.1649 5.28691L12.3327 5.64342L12.6946 5.47311ZM12.7828 5.63733L12.6899 5.46387L12.3373 5.65266L12.4302 5.82612L12.7828 5.63733ZM12.9008 5.75997L12.7552 5.598L12.4578 5.86546L12.6034 6.02743L12.9008 5.75997ZM13.1184 5.95006L12.8844 5.7437L12.6198 6.0437L12.8538 6.25006L13.1184 5.95006ZM13.1861 6.19837V6.10006H12.7861V6.19837H13.1861ZM13.2165 5.99837H12.9861V6.39837H13.2165V5.99837ZM13.4345 5.91109L13.1509 6.0094L13.282 6.38733L13.5655 6.28902L13.4345 5.91109ZM13.7 6.33488V6.10006H13.3V6.33488H13.7ZM13.5371 6.82193L13.6882 6.40269L13.3118 6.26708L13.1608 6.68631L13.5371 6.82193ZM13.1894 7.17247L13.4843 6.90136L13.2136 6.60689L12.9187 6.878L13.1894 7.17247ZM12.8414 7.67279L13.2174 7.14063L12.8907 6.90984L12.5147 7.442L12.8414 7.67279ZM12.8781 7.79737V7.5574H12.4781V7.79737H12.8781ZM12.9479 8.10992L12.8738 7.75637L12.4823 7.83837L12.5564 8.19192L12.9479 8.10992ZM12.8731 8.52214L12.9472 8.19508L12.5571 8.10676L12.483 8.43382L12.8731 8.52214ZM12.3774 8.91533L12.788 8.64503L12.5681 8.31092L12.1575 8.58122L12.3774 8.91533ZM12.4675 8.91325V8.74827H12.0675V8.91325H12.4675ZM12.4675 9.25427V8.91325H12.0675V9.25427H12.4675ZM12.0661 9.45427H12.2675V9.05427H12.0661V9.45427ZM12.2661 9.49687V9.25427H11.8661V9.49687H12.2661ZM11.7546 10.0666L12.2035 9.6422L11.9287 9.35154L11.4798 9.77597L11.7546 10.0666ZM11.3484 10.1213H11.6172V9.7213H11.3484V10.1213ZM12.6543 9.28737L12.7621 9.32926L12.907 8.95645L12.7993 8.91456L12.6543 9.28737ZM12.5202 9.14742L12.557 9.20656L12.8967 8.99536L12.8599 8.93622L12.5202 9.14742ZM12.469 8.92043L12.4924 9.07227L12.8877 9.01137L12.8643 8.85954L12.469 8.92043ZM12.7326 8.59557L12.5495 8.7279L12.7838 9.05208L12.9669 8.91975L12.7326 8.59557ZM12.6182 8.66085L12.6561 8.80764L13.0434 8.70767L13.0055 8.56088L12.6182 8.66085ZM12.7145 8.41056L12.6542 8.48785L12.9695 8.73389L13.0298 8.6566L12.7145 8.41056ZM12.9365 8.31618L12.8319 8.33768L12.9124 8.72949L13.017 8.70799L12.9365 8.31618ZM13.1729 8.27059L12.9389 8.3157L13.0146 8.70848L13.2486 8.66336L13.1729 8.27059ZM13.2458 8.14566L13.068 8.32692L13.3536 8.60703L13.5314 8.42577L13.2458 8.14566ZM13.551 8.12172L13.4396 8.09233L13.3376 8.4791L13.449 8.50849L13.551 8.12172ZM13.6841 8.52754L13.6994 8.33056L13.3006 8.29965L13.2853 8.49664L13.6841 8.52754ZM13.1837 9.22388L13.6425 8.63501L13.327 8.38917L12.8682 8.97805L13.1837 9.22388ZM12.8773 9.33823L13.0687 9.29634L12.9832 8.90559L12.7918 8.94748L12.8773 9.33823Z" fill="#F7FCFF" mask="url(#path-6-outside-1)"/>
<path fill-rule="evenodd" clip-rule="evenodd" d="M11 2.75L10.7061 2.90451L10.7622 2.57725L10.5245 2.34549L10.8531 2.29775L11 2L11.1469 2.29775L11.4755 2.34549L11.2378 2.57725L11.2939 2.90451L11 2.75Z" fill="#FECA00"/>
<path fill-rule="evenodd" clip-rule="evenodd" d="M12.1 2.89481L11.7761 2.96799L11.915 2.66641L11.7454 2.38101L12.0751 2.41993L12.2941 2.17036L12.359 2.496L12.664 2.62716L12.3744 2.78949L12.3439 3.12012L12.1 2.89481Z" fill="#FECA00"/>
<path fill-rule="evenodd" clip-rule="evenodd" d="M13.125 3.31938L12.7932 3.30624L13.0055 3.0509L12.9154 2.7313L13.2239 2.85424L13.5 2.66986L13.4784 3.00119L13.7391 3.20683L13.4173 3.28866L13.3023 3.60013L13.125 3.31938Z" fill="#FECA00"/>
<path fill-rule="evenodd" clip-rule="evenodd" d="M14.0052 3.99478L13.6881 3.89622L13.9592 3.70451L13.955 3.3725L14.2211 3.57109L14.5355 3.46445L14.4289 3.7789L14.6275 4.045L14.2955 4.04076L14.1038 4.31185L14.0052 3.99478Z" fill="#FECA00"/>
<path fill-rule="evenodd" clip-rule="evenodd" d="M14.6806 4.875L14.3999 4.69773L14.7113 4.58272L14.7932 4.26092L14.9988 4.52161L15.3301 4.5L15.1457 4.77613L15.2687 5.08456L14.9491 4.99454L14.6937 5.20677L14.6806 4.875Z" fill="#FECA00"/>
<path fill-rule="evenodd" clip-rule="evenodd" d="M15.1052 5.90001L14.8799 5.65612L15.2105 5.62564L15.3728 5.33599L15.504 5.64102L15.8296 5.70589L15.5801 5.9249L15.619 6.25464L15.3336 6.08496L15.032 6.22388L15.1052 5.90001Z" fill="#FECA00"/>
<path fill-rule="evenodd" clip-rule="evenodd" d="M15.25 7L15.0955 6.70611L15.4227 6.76224L15.6545 6.52447L15.7023 6.85305L16 7L15.7023 7.14695L15.6545 7.47553L15.4227 7.23776L15.0955 7.29389L15.25 7Z" fill="#FECA00"/>
<path fill-rule="evenodd" clip-rule="evenodd" d="M15.1052 8.09998L15.032 7.77611L15.3336 7.91502L15.619 7.74534L15.5801 8.07509L15.8296 8.29409L15.504 8.35897L15.3728 8.66399L15.2105 8.37435L14.8799 8.34386L15.1052 8.09998Z" fill="#FECA00"/>
<path fill-rule="evenodd" clip-rule="evenodd" d="M14.6806 9.125L14.6937 8.79323L14.9491 9.00546L15.2687 8.91543L15.1457 9.22387L15.3301 9.5L14.9988 9.47839L14.7932 9.73907L14.7113 9.41728L14.3999 9.30226L14.6806 9.125Z" fill="#FECA00"/>
<path fill-rule="evenodd" clip-rule="evenodd" d="M14.0052 10.0052L14.1038 9.68813L14.2955 9.95922L14.6275 9.95498L14.4289 10.2211L14.5355 10.5355L14.2211 10.4289L13.955 10.6275L13.9592 10.2955L13.6881 10.1038L14.0052 10.0052Z" fill="#FECA00"/>
<path fill-rule="evenodd" clip-rule="evenodd" d="M13.125 10.6806L13.3023 10.3999L13.4173 10.7113L13.7391 10.7932L13.4784 10.9988L13.5 11.3301L13.2239 11.1458L12.9154 11.2687L13.0055 10.9491L12.7932 10.6938L13.125 10.6806Z" fill="#FECA00"/>
<path fill-rule="evenodd" clip-rule="evenodd" d="M12.1 11.1052L12.3439 10.8799L12.3744 11.2105L12.664 11.3728L12.359 11.504L12.2941 11.8296L12.0751 11.5801L11.7453 11.619L11.915 11.3336L11.7761 11.032L12.1 11.1052Z" fill="#FECA00"/>
<path fill-rule="evenodd" clip-rule="evenodd" d="M11 11.25L11.2939 11.0955L11.2378 11.4227L11.4755 11.6545L11.1469 11.7023L11 12L10.8531 11.7023L10.5245 11.6545L10.7622 11.4227L10.7061 11.0955L11 11.25Z" fill="#FECA00"/>
<path fill-rule="evenodd" clip-rule="evenodd" d="M9.90002 11.1052L10.2239 11.032L10.085 11.3336L10.2546 11.619L9.9249 11.5801L9.7059 11.8296L9.64103 11.504L9.336 11.3728L9.62564 11.2105L9.65613 10.8799L9.90002 11.1052Z" fill="#FECA00"/>
<path fill-rule="evenodd" clip-rule="evenodd" d="M8.875 10.6806L9.20677 10.6938L8.99454 10.9491L9.08457 11.2687L8.77613 11.1458L8.5 11.3301L8.52161 10.9988L8.26093 10.7932L8.58272 10.7113L8.69774 10.3999L8.875 10.6806Z" fill="#FECA00"/>
<path fill-rule="evenodd" clip-rule="evenodd" d="M7.9948 10.0052L8.31186 10.1038L8.04077 10.2955L8.04502 10.6275L7.77891 10.4289L7.46447 10.5355L7.5711 10.2211L7.37252 9.955L7.70452 9.95924L7.89624 9.68815L7.9948 10.0052Z" fill="#FECA00"/>
<path fill-rule="evenodd" clip-rule="evenodd" d="M7.31939 9.125L7.60015 9.30227L7.28867 9.41728L7.20684 9.73908L7.0012 9.47839L6.66987 9.5L6.85425 9.22387L6.73131 8.91544L7.05091 9.00546L7.30625 8.79323L7.31939 9.125Z" fill="#FECA00"/>
<path fill-rule="evenodd" clip-rule="evenodd" d="M6.89482 8.09999L7.12013 8.34388L6.78949 8.37436L6.62717 8.66401L6.49601 8.35898L6.17037 8.29411L6.41994 8.0751L6.38102 7.74536L6.66642 7.91504L6.968 7.77612L6.89482 8.09999Z" fill="#FECA00"/>
<path fill-rule="evenodd" clip-rule="evenodd" d="M6.75 7L6.90451 7.29389L6.57725 7.23776L6.34549 7.47553L6.29775 7.14695L6 7L6.29775 6.85305L6.34549 6.52447L6.57725 6.76224L6.90451 6.70611L6.75 7Z" fill="#FECA00"/>
<path fill-rule="evenodd" clip-rule="evenodd" d="M6.89482 5.90002L6.96799 6.22389L6.66642 6.08498L6.38102 6.25466L6.41994 5.92491L6.17037 5.70591L6.496 5.64103L6.62717 5.33601L6.78949 5.62565L7.12012 5.65614L6.89482 5.90002Z" fill="#FECA00"/>
<path fill-rule="evenodd" clip-rule="evenodd" d="M7.31939 4.875L7.30625 5.20677L7.05091 4.99454L6.73131 5.08457L6.85425 4.77613L6.66987 4.5L7.0012 4.52161L7.20684 4.26093L7.28867 4.58272L7.60015 4.69774L7.31939 4.875Z" fill="#FECA00"/>
<path fill-rule="evenodd" clip-rule="evenodd" d="M7.9948 3.9948L7.89624 4.31187L7.70452 4.04078L7.37252 4.04502L7.5711 3.77892L7.46447 3.46447L7.77891 3.5711L8.04501 3.37252L8.04077 3.70453L8.31186 3.89624L7.9948 3.9948Z" fill="#FECA00"/>
<path fill-rule="evenodd" clip-rule="evenodd" d="M8.875 3.31938L8.69773 3.60013L8.58272 3.28866L8.26092 3.20683L8.52161 3.00119L8.5 2.66986L8.77613 2.85424L9.08456 2.7313L8.99454 3.0509L9.20677 3.30624L8.875 3.31938Z" fill="#FECA00"/>
<path fill-rule="evenodd" clip-rule="evenodd" d="M9.90002 2.89481L9.65613 3.12012L9.62565 2.78949L9.336 2.62716L9.64103 2.496L9.70591 2.17036L9.92491 2.41993L10.2547 2.38101L10.085 2.66641L10.2239 2.96799L9.90002 2.89481Z" fill="#FECA00"/>
</g>
</g>
<rect x="3" y="1" width="16" height="12" fill="url(#paint0_linear)" style="mix-blend-mode:overlay"/>
</g>
<defs>
<filter id="filter0_d" x="0" y="0" width="22" height="18" filterUnits="userSpaceOnUse" color-interpolation-filters="sRGB">
<feFlood flood-opacity="0" result="BackgroundImageFix"/>
<feColorMatrix in="SourceAlpha" type="matrix" values="0 0 0 0 0 0 0 0 0 0 0 0 0 0 0 0 0 0 127 0" result="hardAlpha"/>
<feOffset dy="2"/>
<feGaussianBlur stdDeviation="1.5"/>
<feColorMatrix type="matrix" values="0 0 0 0 0 0 0 0 0 0 0 0 0 0 0 0 0 0 0.1 0"/>
<feBlend mode="normal" in2="BackgroundImageFix" result="effect1_dropShadow"/>
<feBlend mode="normal" in="SourceGraphic" in2="effect1_dropShadow" result="shape"/>
</filter>
<linearGradient id="paint0_linear" x1="11" y1="1" x2="11" y2="13" gradientUnits="userSpaceOnUse">
<stop stop-color="white" stop-opacity="0.7"/>
<stop offset="1" stop-opacity="0.3"/>
</linearGradient>
</defs>
</svg>
