<svg width="22" height="18" viewBox="0 0 22 18" fill="none" xmlns="http://www.w3.org/2000/svg">
<g filter="url(#filter0_d)">
<mask id="mask0" style="mask-type:alpha" maskUnits="userSpaceOnUse" x="3" y="1" width="16" height="12">
<rect x="3" y="1" width="16" height="12" fill="white"/>
</mask>
<g mask="url(#mask0)">
<path fill-rule="evenodd" clip-rule="evenodd" d="M3 1H19V13H3V1Z" fill="#1B1B1B"/>
<path fill-rule="evenodd" clip-rule="evenodd" d="M11 8L9.8874 9.89971L9.91529 7.80194L7.88255 9.12733L9.04542 7.24698L6.49516 7.73554L8.56268 6.44504L6 6L8.56268 5.55496L6.49516 4.26447L9.04542 4.75302L7.88255 2.87267L9.91529 4.19806L9.8874 2.10029L11 4L12.1126 2.10029L12.0847 4.19806L14.1174 2.87267L12.9546 4.75302L15.5048 4.26447L13.4373 5.55496L16 6L13.4373 6.44504L15.5048 7.73554L12.9546 7.24698L14.1174 9.12733L12.0847 7.80194L12.1126 9.89971L11 8Z" fill="#F9D313"/>
<rect x="6" y="8" width="10" height="5" fill="#F1F9FF"/>
<rect x="4" y="6" width="14" height="2" fill="#4A80E8"/>
<path fill-rule="evenodd" clip-rule="evenodd" d="M3 4L11 13L19 4V13H3V4Z" fill="#E31D1C"/>
</g>
<rect x="3" y="1" width="16" height="12" fill="url(#paint0_linear)" style="mix-blend-mode:overlay"/>
</g>
<defs>
<filter id="filter0_d" x="0" y="0" width="22" height="18" filterUnits="userSpaceOnUse" color-interpolation-filters="sRGB">
<feFlood flood-opacity="0" result="BackgroundImageFix"/>
<feColorMatrix in="SourceAlpha" type="matrix" values="0 0 0 0 0 0 0 0 0 0 0 0 0 0 0 0 0 0 127 0" result="hardAlpha"/>
<feOffset dy="2"/>
<feGaussianBlur stdDeviation="1.5"/>
<feColorMatrix type="matrix" values="0 0 0 0 0 0 0 0 0 0 0 0 0 0 0 0 0 0 0.1 0"/>
<feBlend mode="normal" in2="BackgroundImageFix" result="effect1_dropShadow"/>
<feBlend mode="normal" in="SourceGraphic" in2="effect1_dropShadow" result="shape"/>
</filter>
<linearGradient id="paint0_linear" x1="11" y1="1" x2="11" y2="13" gradientUnits="userSpaceOnUse">
<stop stop-color="white" stop-opacity="0.7"/>
<stop offset="1" stop-opacity="0.3"/>
</linearGradient>
</defs>
</svg>
