<svg width="22" height="18" viewBox="0 0 22 18" fill="none" xmlns="http://www.w3.org/2000/svg">
<g filter="url(#filter0_d)">
<mask id="mask0" style="mask-type:alpha" maskUnits="userSpaceOnUse" x="3" y="1" width="16" height="12">
<rect x="3" y="1" width="16" height="12" rx="-1" fill="white"/>
</mask>
<g mask="url(#mask0)">
<path fill-rule="evenodd" clip-rule="evenodd" d="M3 1H19V13H3V1Z" fill="#F50100"/>
<path fill-rule="evenodd" clip-rule="evenodd" d="M10.9412 8.49086C10.8939 8.4833 10.8476 8.47241 10.8026 8.45841C10.1174 8.99127 9.45752 9.35302 8.81925 9.54037C8.55428 9.61814 8.27644 9.46639 8.19867 9.20143C8.1209 8.93646 8.27265 8.65862 8.53761 8.58085C8.93187 8.46513 9.352 8.25705 9.79638 7.95512C9.50432 8.00213 9.20174 8.05365 9.02022 8.09246C8.87174 8.12421 8.69345 8.2162 8.52267 8.30433L8.52266 8.30433C8.18993 8.47602 7.88565 8.63302 7.88565 8.30124C7.88565 7.79916 8.17774 7.64902 8.71972 7.42208C9.11844 7.25513 9.37004 7.26025 9.61243 7.26517H9.61244C9.69954 7.26694 9.78546 7.26869 9.87658 7.26242C9.92763 7.2589 9.98241 7.25295 10.0387 7.24535L10.0222 7.15188C9.97172 7.14532 9.92263 7.14016 9.87658 7.13699C9.78546 7.13072 9.69954 7.13247 9.61244 7.13424H9.61243C9.37004 7.13916 9.11844 7.14428 8.71972 6.97733C8.17773 6.75039 7.88565 6.60024 7.88565 6.09817C7.88565 5.76639 8.18993 5.92339 8.52266 6.09508C8.69345 6.18321 8.87174 6.2752 9.02022 6.30695C9.22342 6.35039 9.57835 6.40977 9.90038 6.46092L9.89257 6.41667C9.82595 6.37841 9.76393 6.33451 9.70996 6.28415C9.48521 6.07443 9.30151 6.03948 9.07348 5.99608C8.92139 5.96714 8.74959 5.93444 8.53273 5.84364C7.99074 5.6167 7.66435 5.17326 7.66435 4.67118C7.66435 4.34525 7.94536 4.55668 8.27988 4.80837C8.46067 4.94439 8.65709 5.09218 8.83323 5.17326C9.00688 5.2532 9.1843 5.3175 9.34656 5.37632C9.51294 5.43662 9.66339 5.49116 9.77752 5.55084C9.77971 5.52877 9.78263 5.50689 9.78625 5.48523C9.72619 5.442 9.6744 5.39079 9.63546 5.33014C9.36967 4.91614 9.01301 4.7668 8.47436 4.54126L8.46838 4.53875C7.92639 4.31181 7.6 3.86837 7.6 3.3663C7.6 3.04036 7.881 3.25179 8.21552 3.50348C8.39631 3.6395 8.59273 3.78729 8.76888 3.86837C9.27095 4.09949 9.65695 4.29838 9.90224 4.7657C9.95 4.85668 9.99882 4.92038 10.0465 4.96397C10.1079 4.89901 10.1779 4.84215 10.2549 4.79535C10.1515 4.04761 9.97665 3.67214 9.81129 3.64137C9.5398 3.59086 9.36067 3.32984 9.41117 3.05835C9.46168 2.78687 9.72271 2.60773 9.99419 2.65824C10.6624 2.78256 11.0418 3.40265 11.2202 4.48861C11.3987 3.40265 11.7781 2.78256 12.4463 2.65824C12.7177 2.60773 12.9788 2.78687 13.0293 3.05835C13.0798 3.32984 12.9007 3.59086 12.6292 3.64137C12.4642 3.67206 12.2899 4.04567 12.1864 4.78956C12.2743 4.8274 12.3553 4.87736 12.4275 4.93712C12.4665 4.89539 12.5059 4.83952 12.5447 4.7657C12.79 4.29838 13.176 4.09949 13.678 3.86837C13.8542 3.78729 14.0506 3.63951 14.2314 3.50348L14.2314 3.50348C14.5659 3.25179 14.8469 3.04036 14.8469 3.3663C14.8469 3.86837 14.5205 4.31181 13.9785 4.53875L13.9725 4.54126C13.4339 4.7668 13.0772 4.91614 12.8114 5.33014C12.7926 5.35956 12.7706 5.38675 12.7462 5.41189C12.7556 5.44179 12.7635 5.47224 12.77 5.50314C12.8664 5.46111 12.9791 5.42025 13.1003 5.37632L13.1004 5.37632C13.2626 5.3175 13.44 5.25319 13.6137 5.17326C13.7898 5.09218 13.9862 4.94439 14.167 4.80837C14.5015 4.55668 14.7825 4.34525 14.7825 4.67118C14.7825 5.17326 14.4562 5.6167 13.9142 5.84364C13.6973 5.93444 13.5255 5.96714 13.3734 5.99608C13.1454 6.03948 12.9617 6.07443 12.7369 6.28415C12.7215 6.29859 12.7053 6.3125 12.6886 6.3259L12.6658 6.44183C12.9531 6.39548 13.2483 6.34508 13.4267 6.30695C13.5752 6.2752 13.7535 6.18321 13.9242 6.09508C14.257 5.92339 14.5613 5.76639 14.5613 6.09817C14.5613 6.60024 14.2692 6.75039 13.7272 6.97733C13.3285 7.14428 13.0769 7.13916 12.8345 7.13424H12.8345C12.7474 7.13247 12.6614 7.13072 12.5703 7.13699C12.5566 7.13794 12.5427 7.13905 12.5285 7.14033L12.5056 7.2569C12.5277 7.25911 12.5493 7.26097 12.5703 7.26242C12.6614 7.26869 12.7474 7.26694 12.8345 7.26517H12.8345C13.0769 7.26025 13.3285 7.25513 13.7272 7.42208C14.2692 7.64902 14.5613 7.79916 14.5613 8.30124C14.5613 8.63302 14.257 8.47602 13.9242 8.30433L13.9242 8.30433L13.9242 8.30432C13.7534 8.2162 13.5752 8.12421 13.4267 8.09246C13.2537 8.05548 12.9707 8.00695 12.6917 7.96177C13.1325 8.26011 13.5493 8.46598 13.9407 8.58085C14.2057 8.65862 14.3574 8.93646 14.2796 9.20143C14.2019 9.46639 13.924 9.61814 13.6591 9.54037C13.0257 9.35448 12.3711 8.99688 11.6917 8.4708C11.6638 8.47811 11.6355 8.48424 11.6068 8.48914C11.7289 9.03356 12.6844 9.48274 12.6844 9.48274C12.6844 9.48274 11.4639 11.8313 11.2703 11.8313C11.0766 11.8313 9.77848 9.48274 9.77848 9.48274C10.4581 9.23021 10.8118 8.71899 10.9412 8.49086Z" fill="#1A1A1A"/>
</g>
<rect x="3" y="1" width="16" height="12" fill="url(#paint0_linear)" style="mix-blend-mode:overlay"/>
</g>
<defs>
<filter id="filter0_d" x="0" y="0" width="22" height="18" filterUnits="userSpaceOnUse" color-interpolation-filters="sRGB">
<feFlood flood-opacity="0" result="BackgroundImageFix"/>
<feColorMatrix in="SourceAlpha" type="matrix" values="0 0 0 0 0 0 0 0 0 0 0 0 0 0 0 0 0 0 127 0" result="hardAlpha"/>
<feOffset dy="2"/>
<feGaussianBlur stdDeviation="1.5"/>
<feColorMatrix type="matrix" values="0 0 0 0 0 0 0 0 0 0 0 0 0 0 0 0 0 0 0.1 0"/>
<feBlend mode="normal" in2="BackgroundImageFix" result="effect1_dropShadow"/>
<feBlend mode="normal" in="SourceGraphic" in2="effect1_dropShadow" result="shape"/>
</filter>
<linearGradient id="paint0_linear" x1="11" y1="1" x2="11" y2="13" gradientUnits="userSpaceOnUse">
<stop stop-color="white" stop-opacity="0.7"/>
<stop offset="1" stop-opacity="0.3"/>
</linearGradient>
</defs>
</svg>
