<svg width="22" height="18" viewBox="0 0 22 18" fill="none" xmlns="http://www.w3.org/2000/svg">
<g filter="url(#filter0_d)">
<mask id="mask0" style="mask-type:alpha" maskUnits="userSpaceOnUse" x="3" y="1" width="16" height="12">
<rect x="3" y="1" width="16" height="12" fill="white"/>
</mask>
<g mask="url(#mask0)">
<path fill-rule="evenodd" clip-rule="evenodd" d="M3 1H19V13H3V1Z" fill="#2E42A5"/>
<mask id="mask1" style="mask-type:alpha" maskUnits="userSpaceOnUse" x="3" y="1" width="9" height="7">
<rect x="3" y="1" width="9" height="7" fill="white"/>
</mask>
<g mask="url(#mask1)">
<path d="M1.99787 7.4999L3.97834 8.3685L12.0449 1.94436L13.0896 0.653595L10.9718 0.363283L7.68159 3.13163L5.03334 4.99685L1.99787 7.4999Z" fill="#F7FCFF"/>
<path d="M2.269 8.10845L3.27796 8.61252L12.7145 0.533661H11.2978L2.269 8.10845Z" fill="#F50100"/>
<path d="M13.0021 7.4999L11.0217 8.3685L2.95506 1.94436L1.9104 0.653595L4.02824 0.363283L7.31841 3.13163L9.96666 4.99685L13.0021 7.4999Z" fill="#F7FCFF"/>
<path d="M12.9346 7.93667L11.9256 8.44073L7.90743 4.98176L6.71613 4.59529L1.80989 0.658027H3.22658L8.13008 4.50184L9.43255 4.96525L12.9346 7.93667Z" fill="#F50100"/>
<mask id="path-9-outside-1" maskUnits="userSpaceOnUse" x="2" y="0" width="11" height="9" fill="black">
<rect fill="white" x="2" width="11" height="9"/>
<path fill-rule="evenodd" clip-rule="evenodd" d="M7.99226 1H6.99226V4H3V5H6.99226V8H7.99226V5H12V4H7.99226V1Z"/>
</mask>
<path fill-rule="evenodd" clip-rule="evenodd" d="M7.99226 1H6.99226V4H3V5H6.99226V8H7.99226V5H12V4H7.99226V1Z" fill="#F50100"/>
<path d="M6.99226 1V0.25H6.24226V1H6.99226ZM7.99226 1H8.74226V0.25H7.99226V1ZM6.99226 4V4.75H7.74226V4H6.99226ZM3 4V3.25H2.25V4H3ZM3 5H2.25V5.75H3V5ZM6.99226 5H7.74226V4.25H6.99226V5ZM6.99226 8H6.24226V8.75H6.99226V8ZM7.99226 8V8.75H8.74226V8H7.99226ZM7.99226 5V4.25H7.24226V5H7.99226ZM12 5V5.75H12.75V5H12ZM12 4H12.75V3.25H12V4ZM7.99226 4H7.24226V4.75H7.99226V4ZM6.99226 1.75H7.99226V0.25H6.99226V1.75ZM7.74226 4V1H6.24226V4H7.74226ZM3 4.75H6.99226V3.25H3V4.75ZM3.75 5V4H2.25V5H3.75ZM6.99226 4.25H3V5.75H6.99226V4.25ZM7.74226 8V5H6.24226V8H7.74226ZM7.99226 7.25H6.99226V8.75H7.99226V7.25ZM7.24226 5V8H8.74226V5H7.24226ZM12 4.25H7.99226V5.75H12V4.25ZM11.25 4V5H12.75V4H11.25ZM7.99226 4.75H12V3.25H7.99226V4.75ZM7.24226 1V4H8.74226V1H7.24226Z" fill="#F7FCFF" mask="url(#path-9-outside-1)"/>
</g>
<path d="M7.408 10.8343L6.81757 11.3799L6.87604 10.5781L6.08132 10.4567L6.74466 10.0025L6.34408 9.30542L7.11279 9.54084L7.408 8.79306L7.70321 9.54084L8.47192 9.30542L8.07134 10.0025L8.73468 10.4567L7.93996 10.5781L7.99843 11.3799L7.408 10.8343Z" fill="#F7FCFF"/>
<path d="M13.776 7.06899L13.3824 7.43275L13.4214 6.89821L12.8915 6.81726L13.3338 6.51446L13.0667 6.04976L13.5792 6.20671L13.776 5.70819L13.9728 6.20671L14.4853 6.04976L14.2182 6.51446L14.6605 6.81726L14.1306 6.89821L14.1696 7.43275L13.776 7.06899Z" fill="#F7FCFF"/>
<path d="M14.7147 3.37667L14.321 3.74043L14.36 3.20588L13.8302 3.12494L14.2724 2.82213L14.0054 2.35744L14.5179 2.51439L14.7147 2.01587L14.9115 2.51439L15.4239 2.35744L15.1569 2.82213L15.5991 3.12494L15.0693 3.20588L15.1083 3.74043L14.7147 3.37667Z" fill="#F7FCFF"/>
<path d="M17.0613 5.22283L16.6677 5.58659L16.7067 5.05204L16.1769 4.9711L16.6191 4.66829L16.3521 4.2036L16.8645 4.36055L17.0613 3.86203L17.2581 4.36055L17.7706 4.2036L17.5036 4.66829L17.9458 4.9711L17.416 5.05204L17.455 5.58659L17.0613 5.22283Z" fill="#F7FCFF"/>
<path d="M15.184 10.5305L14.7904 10.8943L14.8294 10.3597L14.2995 10.2788L14.7418 9.97597L14.4747 9.51128L14.9872 9.66823L15.184 9.16971L15.3808 9.66823L15.8933 9.51128L15.6262 9.97597L16.0685 10.2788L15.5386 10.3597L15.5776 10.8943L15.184 10.5305Z" fill="#F7FCFF"/>
<path d="M16.8267 7.64789L16.4267 7.85814L16.5031 7.41282L16.1796 7.09743L16.6267 7.03246L16.8267 6.62729L17.0266 7.03246L17.4738 7.09743L17.1502 7.41282L17.2266 7.85814L16.8267 7.64789Z" fill="#F7FCFF"/>
</g>
<rect x="3" y="1" width="16" height="12" fill="url(#paint0_linear)" style="mix-blend-mode:overlay"/>
</g>
<defs>
<filter id="filter0_d" x="0" y="0" width="22" height="18" filterUnits="userSpaceOnUse" color-interpolation-filters="sRGB">
<feFlood flood-opacity="0" result="BackgroundImageFix"/>
<feColorMatrix in="SourceAlpha" type="matrix" values="0 0 0 0 0 0 0 0 0 0 0 0 0 0 0 0 0 0 127 0" result="hardAlpha"/>
<feOffset dy="2"/>
<feGaussianBlur stdDeviation="1.5"/>
<feColorMatrix type="matrix" values="0 0 0 0 0 0 0 0 0 0 0 0 0 0 0 0 0 0 0.1 0"/>
<feBlend mode="normal" in2="BackgroundImageFix" result="effect1_dropShadow"/>
<feBlend mode="normal" in="SourceGraphic" in2="effect1_dropShadow" result="shape"/>
</filter>
<linearGradient id="paint0_linear" x1="11" y1="1" x2="11" y2="13" gradientUnits="userSpaceOnUse">
<stop stop-color="white" stop-opacity="0.7"/>
<stop offset="1" stop-opacity="0.3"/>
</linearGradient>
</defs>
</svg>
