<svg width="22" height="18" viewBox="0 0 22 18" fill="none" xmlns="http://www.w3.org/2000/svg">
<g filter="url(#filter0_d)">
<mask id="mask0" style="mask-type:alpha" maskUnits="userSpaceOnUse" x="3" y="1" width="16" height="12">
<rect x="3" y="1" width="16" height="12" fill="white"/>
</mask>
<g mask="url(#mask0)">
<path fill-rule="evenodd" clip-rule="evenodd" d="M3 1V13H19V1H3Z" fill="#AF0100"/>
<mask id="mask1" style="mask-type:alpha" maskUnits="userSpaceOnUse" x="3" y="1" width="16" height="12">
<path fill-rule="evenodd" clip-rule="evenodd" d="M3 1V13H19V1H3Z" fill="white"/>
</mask>
<g mask="url(#mask1)">
<path fill-rule="evenodd" clip-rule="evenodd" d="M14.0038 7C14.0038 9.94339 14.2823 10.9656 15.9599 10.9656C17.6375 10.9656 18.0964 9.48282 17.9548 7H14.0038Z" fill="#F7FCFF"/>
<path fill-rule="evenodd" clip-rule="evenodd" d="M16.05 8.70001C16.5194 8.70001 16.9 8.2523 16.9 7.70001C16.9 7.14773 16.5194 6.70001 16.05 6.70001C15.5806 6.70001 15.2 7.14773 15.2 7.70001C15.2 8.2523 15.5806 8.70001 16.05 8.70001Z" fill="#AF0100"/>
<path fill-rule="evenodd" clip-rule="evenodd" d="M14.3966 10.157C14.6955 10.8236 15.2183 11.157 15.965 11.157C16.7068 11.157 17.2313 10.8281 17.5385 10.1703L14.3966 10.157Z" fill="#5EAA22"/>
<path d="M14.8096 8.51535L14.5305 7.81921C15.0427 7.61384 15.5366 7.50983 16.0111 7.50983C16.4856 7.50983 16.9795 7.61384 17.4917 7.81921L17.2126 8.51535C16.7855 8.34411 16.3853 8.25983 16.0111 8.25983C15.6369 8.25983 15.2367 8.34411 14.8096 8.51535Z" fill="#82B2CB"/>
<path fill-rule="evenodd" clip-rule="evenodd" d="M15.5 9C15.7761 9 16 8.77614 16 8.5C16 8.22386 15.7761 8 15.5 8C15.2238 8 15 8.22386 15 8.5C15 8.77614 15.2238 9 15.5 9Z" fill="#FECA00"/>
<path fill-rule="evenodd" clip-rule="evenodd" d="M15.8 9.80002C16.0761 9.80002 16.3 9.57616 16.3 9.30002C16.3 9.02388 16.0761 8.80002 15.8 8.80002C15.5238 8.80002 15.3 9.02388 15.3 9.30002C15.3 9.57616 15.5238 9.80002 15.8 9.80002Z" fill="#8A4E22"/>
<path fill-rule="evenodd" clip-rule="evenodd" d="M15 9.40002C15.2761 9.40002 15.5 9.17617 15.5 8.90002C15.5 8.62388 15.2761 8.40002 15 8.40002C14.7238 8.40002 14.5 8.62388 14.5 8.90002C14.5 9.17617 14.7238 9.40002 15 9.40002Z" fill="#AF0100"/>
<path fill-rule="evenodd" clip-rule="evenodd" d="M16.7 9.40002C16.9761 9.40002 17.2 9.17617 17.2 8.90002C17.2 8.62388 16.9761 8.40002 16.7 8.40002C16.4239 8.40002 16.2 8.62388 16.2 8.90002C16.2 9.17617 16.4239 9.40002 16.7 9.40002Z" fill="#AF0100"/>
<path fill-rule="evenodd" clip-rule="evenodd" d="M16.35 10.5C16.5433 10.5 16.7 10.2761 16.7 10C16.7 9.72386 16.5433 9.5 16.35 9.5C16.1567 9.5 16 9.72386 16 10C16 10.2761 16.1567 10.5 16.35 10.5Z" fill="#AF0100"/>
<path fill-rule="evenodd" clip-rule="evenodd" d="M15.15 10.5C15.3433 10.5 15.5 10.2761 15.5 10C15.5 9.72386 15.3433 9.5 15.15 9.5C14.9567 9.5 14.8 9.72386 14.8 10C14.8 10.2761 14.9567 10.5 15.15 10.5Z" fill="#AF0100"/>
<rect x="3" y="1" width="9" height="7" fill="#2E42A5"/>
<mask id="mask2" style="mask-type:alpha" maskUnits="userSpaceOnUse" x="3" y="1" width="9" height="7">
<rect x="3" y="1" width="9" height="7" fill="white"/>
</mask>
<g mask="url(#mask2)">
<path d="M1.99788 7.4999L3.97835 8.3685L12.045 1.94436L13.0896 0.653595L10.9718 0.363283L7.6816 3.13163L5.03335 4.99685L1.99788 7.4999Z" fill="white"/>
<path d="M2.26901 8.10845L3.27797 8.61252L12.7145 0.533661H11.2978L2.26901 8.10845Z" fill="#F50100"/>
<path d="M13.0021 7.4999L11.0217 8.3685L2.95506 1.94436L1.91041 0.653595L4.02824 0.363283L7.31841 3.13163L9.96666 4.99685L13.0021 7.4999Z" fill="white"/>
<path d="M12.9346 7.93667L11.9256 8.44073L7.90743 4.98176L6.71613 4.59529L1.80988 0.658027H3.22658L8.13007 4.50184L9.43255 4.96525L12.9346 7.93667Z" fill="#F50100"/>
<path d="M6.50001 0.5V0H6.00001V0.5H6.50001ZM6.50001 3.03237V3.53237H7.00001V3.03237H6.50001ZM2.50775 3.03237V2.53237H2.00775V3.03237H2.50775ZM2.50775 6.03237H2.00775V6.53237H2.50775V6.03237ZM6.50001 6.03237H7.00001V5.53237H6.50001V6.03237ZM6.50001 8.5H6.00001V9H6.50001V8.5ZM8.50001 8.5V9H9.00001V8.5H8.50001ZM8.50001 6.03237V5.53237H8.00001V6.03237H8.50001ZM12.5078 6.03237V6.53237H13.0078V6.03237H12.5078ZM12.5078 3.03237H13.0078V2.53237H12.5078V3.03237ZM8.50001 3.03237H8.00001V3.53237H8.50001V3.03237ZM8.50001 0.5H9.00001V0H8.50001V0.5ZM6.50001 4.03237H7.00001V3.53237H6.50001V4.03237ZM3.50775 4.03237V3.53237H3.00775V4.03237H3.50775ZM3.50775 5.03237H3.00775V5.53237H3.50775V5.03237ZM6.50001 5.03237V5.53237H7.00001V5.03237H6.50001ZM8.50001 4.03237V3.53237H8.00001V4.03237H8.50001ZM8.50001 5.03237H8.00001V5.53237H8.50001V5.03237ZM11.5078 4.03237H12.0078V3.53237H11.5078V4.03237ZM11.5078 5.03237V5.53237H12.0078V5.03237H11.5078ZM6.50001 1H7.00001V0H6.50001V1ZM7.00001 1V0.5H6.00001V1H7.00001ZM7.00001 3.03237V1H6.00001V3.03237H7.00001ZM3.00775 3.53237H6.50001V2.53237H3.00775V3.53237ZM2.50775 3.53237H3.00775V2.53237H2.50775V3.53237ZM3.00775 3.53237V3.03237H2.00775V3.53237H3.00775ZM3.00775 5.53237V3.53237H2.00775V5.53237H3.00775ZM3.00775 6.03237V5.53237H2.00775V6.03237H3.00775ZM3.00775 5.53237H2.50775V6.53237H3.00775V5.53237ZM6.50001 5.53237H3.00775V6.53237H6.50001V5.53237ZM7.00001 8V6.03237H6.00001V8H7.00001ZM7.00001 8.5V8H6.00001V8.5H7.00001ZM7.00001 8H6.50001V9H7.00001V8ZM8.00001 8H7.00001V9H8.00001V8ZM8.50001 8H8.00001V9H8.50001V8ZM8.00001 8V8.5H9.00001V8H8.00001ZM8.00001 6.03237V8H9.00001V6.03237H8.00001ZM12.0078 5.53237H8.50001V6.53237H12.0078V5.53237ZM12.5078 5.53237H12.0078V6.53237H12.5078V5.53237ZM12.0078 5.53237V6.03237H13.0078V5.53237H12.0078ZM12.0078 3.53237V5.53237H13.0078V3.53237H12.0078ZM12.0078 3.03237V3.53237H13.0078V3.03237H12.0078ZM12.0078 3.53237H12.5078V2.53237H12.0078V3.53237ZM8.50001 3.53237H12.0078V2.53237H8.50001V3.53237ZM8.00001 1V3.03237H9.00001V1H8.00001ZM8.00001 0.5V1H9.00001V0.5H8.00001ZM8.00001 1H8.50001V0H8.00001V1ZM7.00001 1H8.00001V0H7.00001V1ZM6.50001 3.53237H3.50775V4.53237H6.50001V3.53237ZM3.00775 4.03237V5.03237H4.00775V4.03237H3.00775ZM3.50775 5.53237H6.50001V4.53237H3.50775V5.53237ZM7.00001 5.03237V4.03237H6.00001V5.03237H7.00001ZM8.00001 4.03237V5.03237H9.00001V4.03237H8.00001ZM11.5078 3.53237H8.50001V4.53237H11.5078V3.53237ZM12.0078 5.03237V4.03237H11.0078V5.03237H12.0078ZM8.50001 5.53237H11.5078V4.53237H8.50001V5.53237Z" fill="white"/>
<path fill-rule="evenodd" clip-rule="evenodd" d="M8.00001 1H7.00001V3.53237H3.00775V5.53237H7.00001V8H8.00001V5.53237H12.0078V3.53237H8.00001V1Z" fill="#F50100"/>
</g>
</g>
</g>
<rect x="3" y="1" width="16" height="12" fill="url(#paint0_linear)" style="mix-blend-mode:overlay"/>
</g>
<defs>
<filter id="filter0_d" x="0" y="0" width="22" height="18" filterUnits="userSpaceOnUse" color-interpolation-filters="sRGB">
<feFlood flood-opacity="0" result="BackgroundImageFix"/>
<feColorMatrix in="SourceAlpha" type="matrix" values="0 0 0 0 0 0 0 0 0 0 0 0 0 0 0 0 0 0 127 0" result="hardAlpha"/>
<feOffset dy="2"/>
<feGaussianBlur stdDeviation="1.5"/>
<feColorMatrix type="matrix" values="0 0 0 0 0 0 0 0 0 0 0 0 0 0 0 0 0 0 0.1 0"/>
<feBlend mode="normal" in2="BackgroundImageFix" result="effect1_dropShadow"/>
<feBlend mode="normal" in="SourceGraphic" in2="effect1_dropShadow" result="shape"/>
</filter>
<linearGradient id="paint0_linear" x1="11" y1="1" x2="11" y2="13" gradientUnits="userSpaceOnUse">
<stop stop-color="white" stop-opacity="0.7"/>
<stop offset="1" stop-opacity="0.3"/>
</linearGradient>
</defs>
</svg>
