<svg width="22" height="18" viewBox="0 0 22 18" fill="none" xmlns="http://www.w3.org/2000/svg">
<g filter="url(#filter0_d)">
<mask id="mask0" style="mask-type:alpha" maskUnits="userSpaceOnUse" x="3" y="1" width="16" height="12">
<rect x="3" y="1" width="16" height="12" fill="white"/>
</mask>
<g mask="url(#mask0)">
<path fill-rule="evenodd" clip-rule="evenodd" d="M3 1H19V13H3V1Z" fill="white"/>
<path fill-rule="evenodd" clip-rule="evenodd" d="M3 6.46667V1H11L3 6.46667Z" fill="#FEDA00"/>
<path fill-rule="evenodd" clip-rule="evenodd" d="M3 13H19.0045V1L3 13Z" fill="#00268D"/>
<mask id="path-6-inside-1" fill="white">
<path fill-rule="evenodd" clip-rule="evenodd" d="M7.67667 3.5L7.9401 4.06561C9.01301 4.19364 9.8488 5.09383 9.87598 6.19466L10.3533 6.43333L9.83182 6.69409C9.64501 7.60547 8.89461 8.31143 7.96075 8.43183L7.67667 9L7.39258 8.43183C6.45872 8.31143 5.70832 7.60547 5.52151 6.69409L5 6.43333L5.47735 6.19466C5.50438 5.09995 6.33105 4.20366 7.39535 4.06782L7.67667 3.5Z"/>
</mask>
<path fill-rule="evenodd" clip-rule="evenodd" d="M7.67667 3.5L7.9401 4.06561C9.01301 4.19364 9.8488 5.09383 9.87598 6.19466L10.3533 6.43333L9.83182 6.69409C9.64501 7.60547 8.89461 8.31143 7.96075 8.43183L7.67667 9L7.39258 8.43183C6.45872 8.31143 5.70832 7.60547 5.52151 6.69409L5 6.43333L5.47735 6.19466C5.50438 5.09995 6.33105 4.20366 7.39535 4.06782L7.67667 3.5Z" fill="white"/>
<path d="M7.9401 4.06561L7.48686 4.27672L7.60441 4.5291L7.88086 4.56209L7.9401 4.06561ZM7.67667 3.5L8.12992 3.2889L7.69058 2.34564L7.22864 3.27803L7.67667 3.5ZM9.87598 6.19466L9.37614 6.207L9.38355 6.50746L9.65238 6.64187L9.87598 6.19466ZM10.3533 6.43333L10.5769 6.88055L11.4714 6.43333L10.5769 5.98612L10.3533 6.43333ZM9.83182 6.69409L9.60822 6.24687L9.39082 6.35558L9.34201 6.59369L9.83182 6.69409ZM7.96075 8.43183L7.89682 7.93593L7.63265 7.96999L7.51354 8.20822L7.96075 8.43183ZM7.67667 9L7.22945 9.22361L7.67667 10.118L8.12388 9.22361L7.67667 9ZM7.39258 8.43183L7.83979 8.20822L7.72068 7.96999L7.45651 7.93593L7.39258 8.43183ZM5.52151 6.69409L6.01132 6.59369L5.96252 6.35558L5.74512 6.24687L5.52151 6.69409ZM5 6.43333L4.77639 5.98612L3.88197 6.43333L4.77639 6.88055L5 6.43333ZM5.47735 6.19466L5.70096 6.64187L5.96978 6.50746L5.9772 6.207L5.47735 6.19466ZM7.39535 4.06782L7.45865 4.56379L7.72443 4.52987L7.84337 4.28979L7.39535 4.06782ZM8.39335 3.85451L8.12992 3.2889L7.22342 3.7111L7.48686 4.27672L8.39335 3.85451ZM10.3758 6.18232C10.3425 4.83068 9.31669 3.72633 7.99935 3.56913L7.88086 4.56209C8.70933 4.66095 9.35515 5.35698 9.37614 6.207L10.3758 6.18232ZM10.5769 5.98612L10.0996 5.74745L9.65238 6.64187L10.1297 6.88055L10.5769 5.98612ZM10.0554 7.1413L10.5769 6.88055L10.1297 5.98612L9.60822 6.24687L10.0554 7.1413ZM8.02469 8.92772C9.17196 8.77981 10.0922 7.91363 10.3216 6.79449L9.34201 6.59369C9.19778 7.29732 8.61727 7.84305 7.89682 7.93593L8.02469 8.92772ZM7.51354 8.20822L7.22945 8.77639L8.12388 9.22361L8.40797 8.65543L7.51354 8.20822ZM8.12388 8.77639L7.83979 8.20822L6.94537 8.65543L7.22945 9.22361L8.12388 8.77639ZM5.03169 6.79449C5.26109 7.91363 6.18138 8.77981 7.32865 8.92772L7.45651 7.93593C6.73606 7.84305 6.15555 7.29732 6.01132 6.59369L5.03169 6.79449ZM4.77639 6.88055L5.2979 7.1413L5.74512 6.24687L5.22361 5.98612L4.77639 6.88055ZM5.25374 5.74745L4.77639 5.98612L5.22361 6.88055L5.70096 6.64187L5.25374 5.74745ZM7.33204 3.57184C6.02528 3.73863 5.01069 4.83817 4.9775 6.18232L5.9772 6.207C5.99807 5.36173 6.63682 4.66869 7.45865 4.56379L7.33204 3.57184ZM7.22864 3.27803L6.94732 3.84585L7.84337 4.28979L8.12469 3.72197L7.22864 3.27803Z" fill="black" mask="url(#path-6-inside-1)"/>
<path fill-rule="evenodd" clip-rule="evenodd" d="M7.6879 5.14999L7.36338 5.69452H6.72334L7.04249 6.26661L6.72334 6.81536H7.36338L7.6879 7.37523L8.01736 6.81536H8.65165L8.34031 6.26661L8.65165 5.69452H8.01736L7.6879 5.14999Z" fill="#F00A17"/>
</g>
<rect x="3" y="1" width="16" height="12" fill="url(#paint0_linear)" style="mix-blend-mode:overlay"/>
</g>
<defs>
<filter id="filter0_d" x="0" y="0" width="22" height="18" filterUnits="userSpaceOnUse" color-interpolation-filters="sRGB">
<feFlood flood-opacity="0" result="BackgroundImageFix"/>
<feColorMatrix in="SourceAlpha" type="matrix" values="0 0 0 0 0 0 0 0 0 0 0 0 0 0 0 0 0 0 127 0" result="hardAlpha"/>
<feOffset dy="2"/>
<feGaussianBlur stdDeviation="1.5"/>
<feColorMatrix type="matrix" values="0 0 0 0 0 0 0 0 0 0 0 0 0 0 0 0 0 0 0.1 0"/>
<feBlend mode="normal" in2="BackgroundImageFix" result="effect1_dropShadow"/>
<feBlend mode="normal" in="SourceGraphic" in2="effect1_dropShadow" result="shape"/>
</filter>
<linearGradient id="paint0_linear" x1="11" y1="1" x2="11" y2="13" gradientUnits="userSpaceOnUse">
<stop stop-color="white" stop-opacity="0.7"/>
<stop offset="1" stop-opacity="0.3"/>
</linearGradient>
</defs>
</svg>
