<svg width="22" height="18" viewBox="0 0 22 18" fill="none" xmlns="http://www.w3.org/2000/svg">
<g filter="url(#filter0_d)">
<mask id="mask0" style="mask-type:alpha" maskUnits="userSpaceOnUse" x="3" y="1" width="16" height="12">
<rect x="3" y="1" width="16" height="12" fill="white"/>
</mask>
<g mask="url(#mask0)">
<path fill-rule="evenodd" clip-rule="evenodd" d="M3 1H19V13H3V1Z" fill="white"/>
<path fill-rule="evenodd" clip-rule="evenodd" d="M3 6.832V1H11L3 6.832Z" fill="#F00000"/>
<path fill-rule="evenodd" clip-rule="evenodd" d="M19 6.832V1H11L19 6.832Z" fill="#F00000"/>
<path fill-rule="evenodd" clip-rule="evenodd" d="M3 6.832V13H11L3 6.832Z" fill="#00268D"/>
<path fill-rule="evenodd" clip-rule="evenodd" d="M19 6.832V13.168L11 13L19 6.832Z" fill="#00268D"/>
<path fill-rule="evenodd" clip-rule="evenodd" d="M10.857 8.12813L9.09827 9.38164L9.74363 7.31101L8 6.0435H10.1723L10.857 4L11.5827 6.0435H13.6959L11.9674 7.31101L12.6244 9.38164L10.857 8.12813Z" fill="#FEDA00"/>
</g>
<rect x="3" y="1" width="16" height="12" fill="url(#paint0_linear)" style="mix-blend-mode:overlay"/>
</g>
<defs>
<filter id="filter0_d" x="0" y="0" width="22" height="18" filterUnits="userSpaceOnUse" color-interpolation-filters="sRGB">
<feFlood flood-opacity="0" result="BackgroundImageFix"/>
<feColorMatrix in="SourceAlpha" type="matrix" values="0 0 0 0 0 0 0 0 0 0 0 0 0 0 0 0 0 0 127 0" result="hardAlpha"/>
<feOffset dy="2"/>
<feGaussianBlur stdDeviation="1.5"/>
<feColorMatrix type="matrix" values="0 0 0 0 0 0 0 0 0 0 0 0 0 0 0 0 0 0 0.1 0"/>
<feBlend mode="normal" in2="BackgroundImageFix" result="effect1_dropShadow"/>
<feBlend mode="normal" in="SourceGraphic" in2="effect1_dropShadow" result="shape"/>
</filter>
<linearGradient id="paint0_linear" x1="11" y1="1" x2="11" y2="13" gradientUnits="userSpaceOnUse">
<stop stop-color="white" stop-opacity="0.7"/>
<stop offset="1" stop-opacity="0.3"/>
</linearGradient>
</defs>
</svg>
