<svg width="22" height="18" viewBox="0 0 22 18" fill="none" xmlns="http://www.w3.org/2000/svg">
<g filter="url(#filter0_d)">
<mask id="mask0" style="mask-type:alpha" maskUnits="userSpaceOnUse" x="3" y="1" width="16" height="12">
<rect x="3" y="1" width="16" height="12" fill="white"/>
</mask>
<g mask="url(#mask0)">
<path fill-rule="evenodd" clip-rule="evenodd" d="M3 1H19V13H3V1Z" fill="#00268D"/>
<path d="M3.5 1.5H18.5V12.5H3.5V1.5Z" fill="#00268D" stroke="#E31D1C"/>
<rect x="10.5" y="1" width="1" height="12" fill="#E31D1C"/>
<rect x="3" y="7.5" width="1" height="16" transform="rotate(-90 3 7.5)" fill="#E31D1C"/>
<path d="M11.2572 3.57125L11 3.4169L10.7428 3.57125L5.74275 6.57125L5.02817 7L5.74275 7.42875L10.7428 10.4287L11 10.5831L11.2572 10.4287L16.2572 7.42875L16.9718 7L16.2572 6.57125L11.2572 3.57125Z" fill="white" stroke="#E31D1C"/>
<mask id="mask1" style="mask-type:alpha" maskUnits="userSpaceOnUse" x="4" y="2" width="14" height="10">
<path d="M11.2572 3.57125L11 3.4169L10.7428 3.57125L5.74275 6.57125L5.02817 7L5.74275 7.42875L10.7428 10.4287L11 10.5831L11.2572 10.4287L16.2572 7.42875L16.9718 7L16.2572 6.57125L11.2572 3.57125Z" fill="white" stroke="white"/>
</mask>
<g mask="url(#mask1)">
<path d="M7.82256 8.79999C8.00189 8.79999 16.75 8.79999 16.75 8.79999L15.8061 7.84288C15.8061 7.84288 13.9185 5.95038 13.7971 5.86364C13.6756 5.77691 13.4749 5.73948 13.2466 6.01514C13.0182 6.2908 12.8873 5.86364 12.6971 5.86364C12.507 5.86364 12.4266 5.86364 12.1508 6.21733C11.8749 6.57101 10.8815 7.84288 10.8815 7.84288H9.42168C9.42168 7.84288 9.17542 7.63395 9.03507 7.7085C8.89472 7.78304 8.10415 6.88392 7.82256 6.81674C7.54096 6.74957 7.35568 7.06047 7.35568 7.30787C7.35568 7.55527 7.22317 7.08117 6.95374 7.22033C6.68431 7.3595 6.77118 7.7085 6.77118 7.7085C6.77118 7.7085 7.64322 8.79999 7.82256 8.79999Z" fill="#059334"/>
<path fill-rule="evenodd" clip-rule="evenodd" d="M10.0032 6.53415L9.38564 7L9.61224 6.23048L9 5.75943H9.76276L10.0032 5L10.258 5.75943H11L10.3931 6.23048L10.6238 7L10.0032 6.53415Z" fill="#FEDA00"/>
</g>
</g>
<rect x="3" y="1" width="16" height="12" fill="url(#paint0_linear)" style="mix-blend-mode:overlay"/>
</g>
<defs>
<filter id="filter0_d" x="0" y="0" width="22" height="18" filterUnits="userSpaceOnUse" color-interpolation-filters="sRGB">
<feFlood flood-opacity="0" result="BackgroundImageFix"/>
<feColorMatrix in="SourceAlpha" type="matrix" values="0 0 0 0 0 0 0 0 0 0 0 0 0 0 0 0 0 0 127 0" result="hardAlpha"/>
<feOffset dy="2"/>
<feGaussianBlur stdDeviation="1.5"/>
<feColorMatrix type="matrix" values="0 0 0 0 0 0 0 0 0 0 0 0 0 0 0 0 0 0 0.1 0"/>
<feBlend mode="normal" in2="BackgroundImageFix" result="effect1_dropShadow"/>
<feBlend mode="normal" in="SourceGraphic" in2="effect1_dropShadow" result="shape"/>
</filter>
<linearGradient id="paint0_linear" x1="11" y1="1" x2="11" y2="13" gradientUnits="userSpaceOnUse">
<stop stop-color="white" stop-opacity="0.7"/>
<stop offset="1" stop-opacity="0.3"/>
</linearGradient>
</defs>
</svg>
