<svg width="22" height="18" viewBox="0 0 22 18" fill="none" xmlns="http://www.w3.org/2000/svg">
<g filter="url(#filter0_d)">
<mask id="mask0" style="mask-type:alpha" maskUnits="userSpaceOnUse" x="3" y="1" width="16" height="12">
<rect x="3" y="1" width="16" height="12" fill="white"/>
</mask>
<g mask="url(#mask0)">
<path fill-rule="evenodd" clip-rule="evenodd" d="M3 1V13H19V1H3Z" fill="#009933"/>
<mask id="mask1" style="mask-type:alpha" maskUnits="userSpaceOnUse" x="3" y="1" width="16" height="12">
<path fill-rule="evenodd" clip-rule="evenodd" d="M3 1V13H19V1H3Z" fill="white"/>
</mask>
<g mask="url(#mask1)">
<g filter="url(#filter1_d)">
<path fill-rule="evenodd" clip-rule="evenodd" d="M10.9634 2.85202L17.0643 7.10375L10.8804 11.0856L4.90446 7.02134L10.9634 2.85202Z" fill="#FFD221"/>
<path fill-rule="evenodd" clip-rule="evenodd" d="M10.9634 2.85202L17.0643 7.10375L10.8804 11.0856L4.90446 7.02134L10.9634 2.85202Z" fill="url(#paint0_linear)"/>
</g>
<path fill-rule="evenodd" clip-rule="evenodd" d="M11 9.60001C12.3807 9.60001 13.5 8.48072 13.5 7.10001C13.5 5.71929 12.3807 4.60001 11 4.60001C9.61929 4.60001 8.5 5.71929 8.5 7.10001C8.5 8.48072 9.61929 9.60001 11 9.60001Z" fill="#2E42A5"/>
<mask id="mask2" style="mask-type:alpha" maskUnits="userSpaceOnUse" x="8" y="4" width="6" height="6">
<path fill-rule="evenodd" clip-rule="evenodd" d="M11 9.60001C12.3807 9.60001 13.5 8.48072 13.5 7.10001C13.5 5.71929 12.3807 4.60001 11 4.60001C9.61929 4.60001 8.5 5.71929 8.5 7.10001C8.5 8.48072 9.61929 9.60001 11 9.60001Z" fill="white"/>
</mask>
<g mask="url(#mask2)">
<path fill-rule="evenodd" clip-rule="evenodd" d="M10.19 8.285L10.0783 8.34371L10.0996 8.21936L10.0093 8.13129L10.1342 8.11314L10.19 8L10.2458 8.11314L10.3707 8.13129L10.2804 8.21936L10.3017 8.34371L10.19 8.285Z" fill="#F7FCFF"/>
<path fill-rule="evenodd" clip-rule="evenodd" d="M11.19 8.285L11.0783 8.34371L11.0996 8.21936L11.0093 8.13129L11.1342 8.11314L11.19 8L11.2458 8.11314L11.3707 8.13129L11.2804 8.21936L11.3017 8.34371L11.19 8.285Z" fill="#F7FCFF"/>
<path fill-rule="evenodd" clip-rule="evenodd" d="M11.19 8.88501L11.0783 8.94372L11.0996 8.81936L11.0093 8.73129L11.1342 8.71315L11.19 8.60001L11.2458 8.71315L11.3707 8.73129L11.2804 8.81936L11.3017 8.94372L11.19 8.88501Z" fill="#F7FCFF"/>
<path fill-rule="evenodd" clip-rule="evenodd" d="M10.69 6.785L10.5783 6.84371L10.5996 6.71936L10.5093 6.63129L10.6342 6.61314L10.69 6.5L10.7458 6.61314L10.8707 6.63129L10.7804 6.71936L10.8017 6.84371L10.69 6.785Z" fill="#F7FCFF"/>
<path fill-rule="evenodd" clip-rule="evenodd" d="M10.69 7.785L10.5783 7.84371L10.5996 7.71936L10.5093 7.63129L10.6342 7.61314L10.69 7.5L10.7458 7.61314L10.8707 7.63129L10.7804 7.71936L10.8017 7.84371L10.69 7.785Z" fill="#F7FCFF"/>
<path fill-rule="evenodd" clip-rule="evenodd" d="M9.98999 7.285L9.87831 7.34371L9.89964 7.21936L9.80929 7.13129L9.93415 7.11314L9.98999 7L10.0458 7.11314L10.1707 7.13129L10.0803 7.21936L10.1017 7.34371L9.98999 7.285Z" fill="#F7FCFF"/>
<path fill-rule="evenodd" clip-rule="evenodd" d="M9.28998 7.68499L9.1783 7.74371L9.19963 7.61935L9.10927 7.53128L9.23414 7.51314L9.28998 7.39999L9.34582 7.51314L9.47068 7.53128L9.38033 7.61935L9.40165 7.74371L9.28998 7.68499Z" fill="#F7FCFF"/>
<path fill-rule="evenodd" clip-rule="evenodd" d="M11.59 5.98501L11.4783 6.04373L11.4997 5.91937L11.4093 5.8313L11.5342 5.81316L11.59 5.70001L11.6459 5.81316L11.7707 5.8313L11.6804 5.91937L11.7017 6.04373L11.59 5.98501Z" fill="#F7FCFF"/>
<path d="M7.9624 6.49857L8.0376 5.5014C10.4366 5.6823 12.33 6.47108 13.6941 7.87419L12.9771 8.57126C11.7948 7.35515 10.1312 6.66211 7.9624 6.49857Z" fill="#F7FCFF"/>
</g>
</g>
</g>
<rect x="3" y="1" width="16" height="12" fill="url(#paint1_linear)" style="mix-blend-mode:overlay"/>
</g>
<defs>
<filter id="filter0_d" x="0" y="0" width="22" height="18" filterUnits="userSpaceOnUse" color-interpolation-filters="sRGB">
<feFlood flood-opacity="0" result="BackgroundImageFix"/>
<feColorMatrix in="SourceAlpha" type="matrix" values="0 0 0 0 0 0 0 0 0 0 0 0 0 0 0 0 0 0 127 0" result="hardAlpha"/>
<feOffset dy="2"/>
<feGaussianBlur stdDeviation="1.5"/>
<feColorMatrix type="matrix" values="0 0 0 0 0 0 0 0 0 0 0 0 0 0 0 0 0 0 0.1 0"/>
<feBlend mode="normal" in2="BackgroundImageFix" result="effect1_dropShadow"/>
<feBlend mode="normal" in="SourceGraphic" in2="effect1_dropShadow" result="shape"/>
</filter>
<filter id="filter1_d" x="4.90446" y="2.85202" width="12.1599" height="8.23362" filterUnits="userSpaceOnUse" color-interpolation-filters="sRGB">
<feFlood flood-opacity="0" result="BackgroundImageFix"/>
<feColorMatrix in="SourceAlpha" type="matrix" values="0 0 0 0 0 0 0 0 0 0 0 0 0 0 0 0 0 0 127 0" result="hardAlpha"/>
<feOffset/>
<feColorMatrix type="matrix" values="0 0 0 0 0.0313726 0 0 0 0 0.368627 0 0 0 0 0 0 0 0 0.28 0"/>
<feBlend mode="normal" in2="BackgroundImageFix" result="effect1_dropShadow"/>
<feBlend mode="normal" in="SourceGraphic" in2="effect1_dropShadow" result="shape"/>
</filter>
<linearGradient id="paint0_linear" x1="19" y1="13" x2="19" y2="1" gradientUnits="userSpaceOnUse">
<stop stop-color="#FFC600"/>
<stop offset="1" stop-color="#FFDE42"/>
</linearGradient>
<linearGradient id="paint1_linear" x1="11" y1="1" x2="11" y2="13" gradientUnits="userSpaceOnUse">
<stop stop-color="white" stop-opacity="0.7"/>
<stop offset="1" stop-opacity="0.3"/>
</linearGradient>
</defs>
</svg>
