<svg width="22" height="18" viewBox="0 0 22 18" fill="none" xmlns="http://www.w3.org/2000/svg">
<g filter="url(#filter0_d)">
<mask id="mask0" style="mask-type:alpha" maskUnits="userSpaceOnUse" x="3" y="1" width="16" height="12">
<rect x="3" y="1" width="16" height="12" fill="white"/>
</mask>
<g mask="url(#mask0)">
<path fill-rule="evenodd" clip-rule="evenodd" d="M3 1H19V13H3V1Z" fill="#73BE4A"/>
<path fill-rule="evenodd" clip-rule="evenodd" d="M3 1V9H19V1H3Z" fill="#AF0100"/>
<rect x="3" y="1" width="3" height="12" fill="#F7FCFF"/>
<path fill-rule="evenodd" clip-rule="evenodd" d="M3.49997 1C3.77614 1 3.99997 1.22388 3.99997 1.50001C3.99997 1.77614 3.77614 2.00002 3.49997 2.00002C3.22387 2.00002 2.99998 1.77614 2.99998 1.50001C2.99998 1.22388 3.22387 1 3.49997 1ZM5.50001 1C5.77611 1 6 1.22388 6 1.50001C6 1.77614 5.77611 2.00002 5.50001 2.00002C5.22385 2.00002 5.00002 1.77614 5.00002 1.50001C5.00002 1.22388 5.22385 1 5.50001 1ZM3.99997 3.50002C3.99997 3.22384 3.77614 3.00001 3.49997 3.00001C3.22387 3.00001 2.99998 3.22384 2.99998 3.50002C2.99998 3.77615 3.22387 3.99998 3.49997 3.99998C3.77614 3.99998 3.99997 3.77615 3.99997 3.50002ZM5.50001 3.00001C5.77611 3.00001 6 3.22384 6 3.50002C6 3.77615 5.77611 3.99998 5.50001 3.99998C5.22385 3.99998 5.00002 3.77615 5.00002 3.50002C5.00002 3.22384 5.22385 3.00001 5.50001 3.00001ZM5.50001 10C5.77611 10 6 10.2238 6 10.5C6 10.7761 5.77611 11 5.50001 11C5.22385 11 5.00002 10.7761 5.00002 10.5C5.00002 10.2238 5.22385 10 5.50001 10ZM3.99997 10.5C3.99997 10.2238 3.77614 10 3.49997 10C3.22387 10 2.99998 10.2238 2.99998 10.5C2.99998 10.7761 3.22387 11 3.49997 11C3.77614 11 3.99997 10.7761 3.99997 10.5ZM3.49997 12C3.77614 12 3.99997 12.2239 3.99997 12.5C3.99997 12.7762 3.77614 13 3.49997 13C3.22387 13 2.99998 12.7762 2.99998 12.5C2.99998 12.2239 3.22387 12 3.49997 12ZM6 12.5C6 12.2239 5.77611 12 5.50001 12C5.22385 12 5.00002 12.2239 5.00002 12.5C5.00002 12.7762 5.22385 13 5.50001 13C5.77611 13 6 12.7762 6 12.5ZM4.49996 11C4.77612 11 5.00002 11.2239 5.00002 11.5C5.00002 11.7761 4.77612 12 4.49996 12C4.22386 12 3.99997 11.7761 3.99997 11.5C3.99997 11.2239 4.22386 11 4.49996 11ZM5.00002 2.5C5.00002 2.22387 4.77612 2.00002 4.49996 2.00002C4.22386 2.00002 3.99997 2.22387 3.99997 2.5C3.99997 2.77613 4.22386 3.00001 4.49996 3.00001C4.77612 3.00001 5.00002 2.77613 5.00002 2.5ZM5.05497 7.01935L6 8V8.99998L6.02188 9.04642L4.54553 7.56887L3.21881 8.99998H3.00011V8L3.99127 7.01416L3.00011 6.02219V5.00002H3.10901L4.53184 6.47649L5.96159 5.05439L6 5.00002V5.99996L5.05497 7.01935ZM4.49996 3.99998C4.77612 3.99998 5.00002 4.22388 5.00002 4.49999C5.00002 4.77613 4.77612 5.00002 4.49996 5.00002C4.22386 5.00002 3.99997 4.77613 3.99997 4.49999C3.99997 4.22388 4.22386 3.99998 4.49996 3.99998ZM5.00002 9.49999C5.00002 9.22387 4.77612 8.99998 4.49996 8.99998C4.22386 8.99998 3.99997 9.22387 3.99997 9.49999C3.99997 9.77612 4.22386 10 4.49996 10C4.77612 10 5.00002 9.77612 5.00002 9.49999Z" fill="#D0181A"/>
<path opacity="0.4" fill-rule="evenodd" clip-rule="evenodd" d="M2.99998 1H3.99997V2.00002H2.99998V1ZM3.99997 3.00001H2.99998V3.99998H3.99997V3.00001ZM2.99998 5.00002H3.99997V6H2.99998V5.00002ZM3.99997 8H2.99998V8.99998H3.99997V8ZM2.99998 10H3.99997V11H2.99998V10ZM3.99997 12H2.99998V13H3.99997V12ZM6 12H5.00002V13H6V12ZM6 1H5.00002V2.00002H6V1Z" fill="#8F181A"/>
</g>
<rect x="3" y="1" width="16" height="12" fill="url(#paint0_linear)" style="mix-blend-mode:overlay"/>
</g>
<defs>
<filter id="filter0_d" x="0" y="0" width="22" height="18" filterUnits="userSpaceOnUse" color-interpolation-filters="sRGB">
<feFlood flood-opacity="0" result="BackgroundImageFix"/>
<feColorMatrix in="SourceAlpha" type="matrix" values="0 0 0 0 0 0 0 0 0 0 0 0 0 0 0 0 0 0 127 0" result="hardAlpha"/>
<feOffset dy="2"/>
<feGaussianBlur stdDeviation="1.5"/>
<feColorMatrix type="matrix" values="0 0 0 0 0 0 0 0 0 0 0 0 0 0 0 0 0 0 0.1 0"/>
<feBlend mode="normal" in2="BackgroundImageFix" result="effect1_dropShadow"/>
<feBlend mode="normal" in="SourceGraphic" in2="effect1_dropShadow" result="shape"/>
</filter>
<linearGradient id="paint0_linear" x1="11" y1="1" x2="11" y2="13" gradientUnits="userSpaceOnUse">
<stop stop-color="white" stop-opacity="0.7"/>
<stop offset="1" stop-opacity="0.3"/>
</linearGradient>
</defs>
</svg>
