<svg width="22" height="18" viewBox="0 0 22 18" fill="none" xmlns="http://www.w3.org/2000/svg">
<g filter="url(#filter0_d)">
<mask id="mask0" style="mask-type:alpha" maskUnits="userSpaceOnUse" x="3" y="1" width="16" height="12">
<rect x="3" y="1" width="16" height="12" fill="white"/>
</mask>
<g mask="url(#mask0)">
<path fill-rule="evenodd" clip-rule="evenodd" d="M3 1H19V13H3V1Z" fill="#5EAA22"/>
<path fill-rule="evenodd" clip-rule="evenodd" d="M15 4.5L14.5 4.86603L14.567 4.25L14 4L14.567 3.75L14.5 3.13397L15 3.5L15.5 3.13397L15.433 3.75L16 4L15.433 4.25L15.5 4.86603L15 4.5Z" fill="#FECA00"/>
<path fill-rule="evenodd" clip-rule="evenodd" d="M14.4814 7.83932L13.9814 8.20535L14.0484 7.58932L13.4814 7.33932L14.0484 7.08932L13.9814 6.4733L14.4814 6.83932L14.9814 6.4733L14.9144 7.08932L15.4814 7.33932L14.9144 7.58932L14.9814 8.20535L14.4814 7.83932Z" fill="#FECA00"/>
<path fill-rule="evenodd" clip-rule="evenodd" d="M16 10.5L15.5 10.866L15.567 10.25L15 10L15.567 9.75L15.5 9.13397L16 9.5L16.5 9.13397L16.433 9.75L17 10L16.433 10.25L16.5 10.866L16 10.5Z" fill="#FECA00"/>
<path fill-rule="evenodd" clip-rule="evenodd" d="M16.5 5.75L16.25 5.93301L16.2835 5.625L16 5.5L16.2835 5.375L16.25 5.06699L16.5 5.25L16.75 5.06699L16.7165 5.375L17 5.5L16.7165 5.625L16.75 5.93301L16.5 5.75Z" fill="#FECA00"/>
<path fill-rule="evenodd" clip-rule="evenodd" d="M6.5 8C7.88071 8 9 6.88071 9 5.5C9 4.11929 7.88071 3 6.5 3C5.11929 3 4 4.11929 4 5.5C4 6.88071 5.11929 8 6.5 8Z" fill="#FECA00"/>
<path d="M6.24473 6.99372L6.06532 6.86733C6.46219 6.3474 6.35725 5.6208 6.24473 5.1433L6.97474 4.97128C7.14233 5.68249 6.77027 6.30522 6.24473 6.99372Z" fill="#915E2B"/>
<path fill-rule="evenodd" clip-rule="evenodd" d="M12.9489 8.47248C12.6198 9.03725 12.0968 9.29359 11.3968 9.29359C10.3492 9.29359 9.5 8.44436 9.5 7.39679C9.5 6.34922 10.3492 5.5 11.3968 5.5C12.1961 5.5 12.8338 5.77964 13.1264 6.5413C12.8948 6.31162 12.5363 6.15407 12 6.17404C11.1716 6.17404 10.6327 6.81943 10.6327 7.37171C10.6327 7.924 11.1716 8.67474 12 8.67474C12.4167 8.66851 12.7245 8.59232 12.9489 8.47248Z" fill="#FECA00"/>
<path fill-rule="evenodd" clip-rule="evenodd" d="M6.5 5.36975C7.32843 5.36975 7.8565 5.14589 7.8565 4.86975C7.8565 4.59361 7.32843 4.36975 6.5 4.36975C5.67157 4.36975 5.24218 4.59361 5.24218 4.86975C5.24218 5.14589 5.67157 5.36975 6.5 5.36975Z" fill="#5EAA22"/>
</g>
<rect x="3" y="1" width="16" height="12" fill="url(#paint0_linear)" style="mix-blend-mode:overlay"/>
</g>
<defs>
<filter id="filter0_d" x="0" y="0" width="22" height="18" filterUnits="userSpaceOnUse" color-interpolation-filters="sRGB">
<feFlood flood-opacity="0" result="BackgroundImageFix"/>
<feColorMatrix in="SourceAlpha" type="matrix" values="0 0 0 0 0 0 0 0 0 0 0 0 0 0 0 0 0 0 127 0" result="hardAlpha"/>
<feOffset dy="2"/>
<feGaussianBlur stdDeviation="1.5"/>
<feColorMatrix type="matrix" values="0 0 0 0 0 0 0 0 0 0 0 0 0 0 0 0 0 0 0.1 0"/>
<feBlend mode="normal" in2="BackgroundImageFix" result="effect1_dropShadow"/>
<feBlend mode="normal" in="SourceGraphic" in2="effect1_dropShadow" result="shape"/>
</filter>
<linearGradient id="paint0_linear" x1="11" y1="1" x2="11" y2="13" gradientUnits="userSpaceOnUse">
<stop stop-color="white" stop-opacity="0.7"/>
<stop offset="1" stop-opacity="0.3"/>
</linearGradient>
</defs>
</svg>
