<svg width="22" height="18" viewBox="0 0 22 18" fill="none" xmlns="http://www.w3.org/2000/svg">
<g filter="url(#filter0_d)">
<mask id="mask0" style="mask-type:alpha" maskUnits="userSpaceOnUse" x="3" y="1" width="16" height="12">
<rect x="3" y="1" width="16" height="12" fill="white"/>
</mask>
<g mask="url(#mask0)">
<path fill-rule="evenodd" clip-rule="evenodd" d="M3 1V13H19V1H3Z" fill="#F7FCFF"/>
<mask id="mask1" style="mask-type:alpha" maskUnits="userSpaceOnUse" x="3" y="1" width="16" height="12">
<path fill-rule="evenodd" clip-rule="evenodd" d="M3 1V13H19V1H3Z" fill="white"/>
</mask>
<g mask="url(#mask1)">
<path fill-rule="evenodd" clip-rule="evenodd" d="M15.2837 3.3796C15.2837 3.3796 12.6426 4.83862 12.3101 4.93094C11.9777 5.02322 12.1995 5.07868 11.6268 5.04178C11.0544 5.00483 9.92778 5.24775 9.66925 5.08154C9.41065 4.91521 9.3183 4.61977 9.29996 5.11852C9.28143 5.61705 9.68792 6.04183 9.17061 6.07882C8.65368 6.11569 8.59814 5.6354 8.24739 5.93107C7.89644 6.22644 7.60091 6.89138 7.37919 6.72516C7.15761 6.55883 6.84374 6.11569 6.93609 6.54047C7.02825 6.96518 7.30532 8.03498 8.19184 8.0535C9.07844 8.07204 9.26296 7.75802 9.29996 8.01662C9.33677 8.27509 9.72472 8.31199 9.81696 7.97957C9.90944 7.64714 10.6666 8.35031 11.0729 7.99941C11.4791 7.64858 11.8115 7.35303 11.941 7.14987C12.0701 6.94671 12.5134 6.98374 12.9382 6.98374C13.363 6.98374 13.9907 7.16834 13.6583 6.76214C13.3261 6.35567 12.7534 6.1711 13.086 5.76478C13.4182 5.35851 16.2395 4.00755 16.3689 3.85977C16.498 3.71203 15.6714 3.15801 15.2837 3.3796Z" fill="#F57A01"/>
<path fill-rule="evenodd" clip-rule="evenodd" d="M15.2837 3.3796C15.2837 3.3796 12.6426 4.83862 12.3101 4.93094C11.9777 5.02322 12.1995 5.07868 11.6268 5.04178C11.0544 5.00483 9.92778 5.24775 9.66925 5.08154C9.41065 4.91521 9.3183 4.61977 9.29996 5.11852C9.28143 5.61705 9.68792 6.04183 9.17061 6.07882C8.65368 6.11569 8.59814 5.6354 8.24739 5.93107C7.89644 6.22644 7.60091 6.89138 7.37919 6.72516C7.15761 6.55883 6.84374 6.11569 6.93609 6.54047C7.02825 6.96518 7.30532 8.03498 8.19184 8.0535C9.07844 8.07204 9.26296 7.75802 9.29996 8.01662C9.33677 8.27509 9.72472 8.31199 9.81696 7.97957C9.90944 7.64714 10.6666 8.35031 11.0729 7.99941C11.4791 7.64858 11.8115 7.35303 11.941 7.14987C12.0701 6.94671 12.5134 6.98374 12.9382 6.98374C13.363 6.98374 13.9907 7.16834 13.6583 6.76214C13.3261 6.35567 12.7534 6.1711 13.086 5.76478C13.4182 5.35851 16.2395 4.00755 16.3689 3.85977C16.498 3.71203 15.6714 3.15801 15.2837 3.3796Z" fill="url(#paint0_linear)"/>
<path fill-rule="evenodd" clip-rule="evenodd" d="M8.45608 9.05206C9.76718 9.05206 10.8938 10.5111 10.8938 10.5111C10.9128 10.5301 10.9303 10.5485 10.9464 10.5664C10.9626 10.5485 10.9801 10.5301 10.999 10.5111C10.999 10.5111 12.3131 9.05206 13.6243 9.05206C14.9355 9.05206 12.6795 11.176 11.2206 11.176C11.2206 11.176 11.0706 11.1623 10.9464 11.0999C10.8222 11.1623 10.6722 11.176 10.6722 11.176C9.21325 11.176 7.14472 9.05206 8.45608 9.05206Z" fill="#006B49"/>
<path fill-rule="evenodd" clip-rule="evenodd" d="M8.45608 9.05206C9.76718 9.05206 10.8938 10.5111 10.8938 10.5111C10.9128 10.5301 10.9303 10.5485 10.9464 10.5664C10.9626 10.5485 10.9801 10.5301 10.999 10.5111C10.999 10.5111 12.3131 9.05206 13.6243 9.05206C14.9355 9.05206 12.6795 11.176 11.2206 11.176C11.2206 11.176 11.0706 11.1623 10.9464 11.0999C10.8222 11.1623 10.6722 11.176 10.6722 11.176C9.21325 11.176 7.14472 9.05206 8.45608 9.05206Z" fill="url(#paint1_linear)"/>
</g>
</g>
<rect x="3" y="1" width="16" height="12" fill="url(#paint2_linear)" style="mix-blend-mode:overlay"/>
</g>
<defs>
<filter id="filter0_d" x="0" y="0" width="22" height="18" filterUnits="userSpaceOnUse" color-interpolation-filters="sRGB">
<feFlood flood-opacity="0" result="BackgroundImageFix"/>
<feColorMatrix in="SourceAlpha" type="matrix" values="0 0 0 0 0 0 0 0 0 0 0 0 0 0 0 0 0 0 127 0" result="hardAlpha"/>
<feOffset dy="2"/>
<feGaussianBlur stdDeviation="1.5"/>
<feColorMatrix type="matrix" values="0 0 0 0 0 0 0 0 0 0 0 0 0 0 0 0 0 0 0.1 0"/>
<feBlend mode="normal" in2="BackgroundImageFix" result="effect1_dropShadow"/>
<feBlend mode="normal" in="SourceGraphic" in2="effect1_dropShadow" result="shape"/>
</filter>
<linearGradient id="paint0_linear" x1="18" y1="10" x2="18" y2="2" gradientUnits="userSpaceOnUse">
<stop stop-color="#EA5113"/>
<stop offset="1" stop-color="#FC9B58"/>
</linearGradient>
<linearGradient id="paint1_linear" x1="14.0189" y1="11.176" x2="14.0189" y2="9.05206" gradientUnits="userSpaceOnUse">
<stop stop-color="#008057"/>
<stop offset="1" stop-color="#00B77C"/>
</linearGradient>
<linearGradient id="paint2_linear" x1="11" y1="1" x2="11" y2="13" gradientUnits="userSpaceOnUse">
<stop stop-color="white" stop-opacity="0.7"/>
<stop offset="1" stop-opacity="0.3"/>
</linearGradient>
</defs>
</svg>
