<svg width="22" height="18" viewBox="0 0 22 18" fill="none" xmlns="http://www.w3.org/2000/svg">
<g filter="url(#filter0_d)">
<mask id="mask0" style="mask-type:alpha" maskUnits="userSpaceOnUse" x="3" y="1" width="16" height="12">
<rect x="3" y="1" width="16" height="12" fill="white"/>
</mask>
<g mask="url(#mask0)">
<path fill-rule="evenodd" clip-rule="evenodd" d="M3 1V13H19V1H3Z" fill="#2E42A5"/>
<mask id="mask1" style="mask-type:alpha" maskUnits="userSpaceOnUse" x="3" y="1" width="16" height="12">
<path fill-rule="evenodd" clip-rule="evenodd" d="M3 1V13H19V1H3Z" fill="white"/>
</mask>
<g mask="url(#mask1)">
<path fill-rule="evenodd" clip-rule="evenodd" d="M3 1V7H19V1H3Z" fill="#FECA00"/>
<path fill-rule="evenodd" clip-rule="evenodd" d="M3 10V13H19V10H3Z" fill="#E31D1C"/>
<path fill-rule="evenodd" clip-rule="evenodd" d="M7.60637 3.89596C7.54616 3.76016 9.86167 3.07297 10.0352 3.07297C10.2087 3.07297 10.4281 3.48447 10.4281 3.48447L11.8363 3.59837C11.8363 3.59837 11.67 3.07297 11.8363 3.07297C12.0027 3.07297 14.5521 3.95855 14.5521 3.95855C14.5521 3.95855 11.3651 4.34272 11.3651 4.42922C11.3651 4.51572 11.5739 4.9906 11.5739 4.9906L10.9845 5.18373C10.9845 5.18373 11.0191 4.61144 10.923 4.61144C10.8269 4.61144 10.5416 5.29593 10.5416 5.29593L10.2618 4.42922C10.2618 4.42922 7.66658 4.03176 7.60637 3.89596Z" fill="#7B2900"/>
<path d="M7.61631 6.00897L8.24669 6.15971C7.58714 8.91787 8.19676 10.2406 10.0739 10.3635L10.0316 11.0103C7.67916 10.8563 6.87463 9.11061 7.61631 6.00897Z" fill="#FECA00"/>
<path d="M8.00022 5.63718L8.64057 5.73738C8.18889 8.62374 8.55061 9.92885 9.56445 9.89315L9.58726 10.5409C7.9675 10.5979 7.49225 8.88322 8.00022 5.63718Z" fill="#07138E"/>
<path d="M8.64836 5.37247L9.28872 5.47268C8.83704 8.35903 9.19876 9.66414 10.2126 9.62844L10.2354 10.2762C8.61564 10.3332 8.14039 8.61851 8.64836 5.37247Z" fill="#E10001"/>
<path d="M9.85106 10.6367L10.4962 10.574C10.5493 11.1202 10.5091 11.5912 10.3707 11.9866L9.7589 11.7725C9.86334 11.4741 9.89567 11.0955 9.85106 10.6367Z" fill="#07138E"/>
<path d="M13.7499 6.08435C13.7499 6.08435 14.783 10.7307 11.5997 10.6503" stroke="#FECA00" stroke-width="0.648148"/>
<path d="M13.6812 5.63718L13.0409 5.73738C13.4926 8.62374 13.1308 9.92885 12.117 9.89315L12.0942 10.5409C13.7139 10.5979 14.1892 8.88322 13.6812 5.63718Z" fill="#07138E"/>
<path d="M13.0331 5.37247L12.3927 5.47268C12.8444 8.35903 12.4827 9.66414 11.4688 9.62844L11.446 10.2762C13.0658 10.3332 13.541 8.61851 13.0331 5.37247Z" fill="#E10001"/>
<path d="M11.7043 10.6403L11.0599 10.5704C11.0058 11.0692 11.047 11.5012 11.1891 11.8651L11.7928 11.6294C11.6921 11.3713 11.6607 11.0421 11.7043 10.6403Z" fill="#07138E"/>
<path fill-rule="evenodd" clip-rule="evenodd" d="M9.93331 9.75H11.8778V10.6765H9.93331V9.75Z" fill="#908F89"/>
<path d="M10.9055 10C11.4538 10 11.9273 9.69098 12.2542 9.23709C12.5813 8.78283 12.7759 8.16787 12.7759 7.5C12.7759 6.83213 12.5813 6.21717 12.2542 5.76291C11.9273 5.30902 11.4538 5 10.9055 5C10.3573 5 9.88377 5.30902 9.55689 5.76291C9.22975 6.21717 9.03516 6.83213 9.03516 7.5C9.03516 8.16787 9.22975 8.78283 9.55689 9.23709C9.88377 9.69098 10.3573 10 10.9055 10Z" stroke="#FEE901" stroke-width="0.5"/>
<mask id="mask2" style="mask-type:alpha" maskUnits="userSpaceOnUse" x="8" y="4" width="6" height="7">
<path d="M10.9055 10C11.4538 10 11.9273 9.69098 12.2542 9.23709C12.5813 8.78283 12.7759 8.16787 12.7759 7.5C12.7759 6.83213 12.5813 6.21717 12.2542 5.76291C11.9273 5.30902 11.4538 5 10.9055 5C10.3573 5 9.88377 5.30902 9.55689 5.76291C9.22975 6.21717 9.03516 6.83213 9.03516 7.5C9.03516 8.16787 9.22975 8.78283 9.55689 9.23709C9.88377 9.69098 10.3573 10 10.9055 10Z" fill="white" stroke="white" stroke-width="0.5"/>
</mask>
<g mask="url(#mask2)">
<path fill-rule="evenodd" clip-rule="evenodd" d="M12.079 8.70251C12.079 8.70251 11.2913 8.27385 11.0652 8.12105C10.8391 7.96825 10.9696 7.62736 10.5803 7.71847C10.1909 7.80958 9.87802 7.96825 9.87802 8.40324C9.87802 8.83823 9.5723 9.09648 9.46811 8.79928C9.36392 8.50208 8.87399 7.11234 9.46811 7.11234C10.0622 7.11234 11.451 7.42401 11.8597 7.42401C12.2685 7.42401 12.5065 7.63612 12.5065 8.01968C12.5065 8.53559 12.079 8.70251 12.079 8.70251Z" fill="#8DDD61"/>
<path fill-rule="evenodd" clip-rule="evenodd" d="M10.9055 6.44118C11.0845 6.44118 11.2296 6.29304 11.2296 6.1103C11.2296 5.92756 11.0845 5.77942 10.9055 5.77942C10.7266 5.77942 10.5815 5.92756 10.5815 6.1103C10.5815 6.29304 10.7266 6.44118 10.9055 6.44118Z" fill="#FEE901"/>
<path fill-rule="evenodd" clip-rule="evenodd" d="M9.83471 6.47026C9.83471 6.47026 10.2117 6.37909 10.7326 6.73011C11.2535 7.08113 12.5164 7.28102 12.5164 7.00557C12.5164 6.73011 12.5164 7.54214 12.5164 7.54214C12.5164 7.54214 9.71412 7.36766 9.56421 7.54214C9.41429 7.71662 9.39933 6.56777 9.56421 6.47026C9.72908 6.37275 9.83471 6.47026 9.83471 6.47026Z" fill="#F7FCFF"/>
</g>
</g>
</g>
<rect x="3" y="1" width="16" height="12" fill="url(#paint0_linear)" style="mix-blend-mode:overlay"/>
</g>
<defs>
<filter id="filter0_d" x="0" y="0" width="22" height="18" filterUnits="userSpaceOnUse" color-interpolation-filters="sRGB">
<feFlood flood-opacity="0" result="BackgroundImageFix"/>
<feColorMatrix in="SourceAlpha" type="matrix" values="0 0 0 0 0 0 0 0 0 0 0 0 0 0 0 0 0 0 127 0" result="hardAlpha"/>
<feOffset dy="2"/>
<feGaussianBlur stdDeviation="1.5"/>
<feColorMatrix type="matrix" values="0 0 0 0 0 0 0 0 0 0 0 0 0 0 0 0 0 0 0.1 0"/>
<feBlend mode="normal" in2="BackgroundImageFix" result="effect1_dropShadow"/>
<feBlend mode="normal" in="SourceGraphic" in2="effect1_dropShadow" result="shape"/>
</filter>
<linearGradient id="paint0_linear" x1="11" y1="1" x2="11" y2="13" gradientUnits="userSpaceOnUse">
<stop stop-color="white" stop-opacity="0.7"/>
<stop offset="1" stop-opacity="0.3"/>
</linearGradient>
</defs>
</svg>
