<svg width="22" height="18" viewBox="0 0 22 18" fill="none" xmlns="http://www.w3.org/2000/svg">
<g filter="url(#filter0_d)">
<g clip-path="url(#clip0)">
<mask id="mask0" style="mask-type:alpha" maskUnits="userSpaceOnUse" x="3" y="1" width="17" height="12">
<rect x="3" y="1" width="17" height="12" fill="white"/>
</mask>
<g mask="url(#mask0)">
<path fill-rule="evenodd" clip-rule="evenodd" d="M3 1V7H19V1H3Z" fill="#43B764"/>
<path fill-rule="evenodd" clip-rule="evenodd" d="M3 7V13H19V7H3Z" fill="#B4D7F4"/>
<path fill-rule="evenodd" clip-rule="evenodd" d="M3 1L19.5 7L3 13V1Z" fill="#BE0027"/>
<path fill-rule="evenodd" clip-rule="evenodd" d="M7.55658 9.68384L7.07949 9.69483C7.04523 9.6501 7.01356 9.60739 6.98429 9.56639C6.74754 9.10431 6.62917 8.61804 6.62917 8.10757C6.62917 8.15254 6.62904 8.1956 6.62892 8.23697C6.62725 8.81863 6.62654 9.06527 6.98429 9.56639C7.08564 9.76421 7.20868 9.95759 7.35342 10.1465L7.96989 9.67432L7.55658 9.68384Z" fill="#F3E294"/>
<path fill-rule="evenodd" clip-rule="evenodd" d="M4 7.25C4 9.04493 5.45507 10.5 7.25 10.5C9.04493 10.5 10.5 9.04493 10.5 7.25C10.5 5.45507 9.04493 4 7.25 4C5.45507 4 4 5.45507 4 7.25ZM9.5 7.25C9.5 8.49264 8.49264 9.5 7.25 9.5C6.00736 9.5 5 8.49264 5 7.25C5 6.00736 6.00736 5 7.25 5C8.49264 5 9.5 6.00736 9.5 7.25Z" fill="#F3E294"/>
</g>
<rect x="3" y="1" width="16" height="12" fill="url(#paint0_linear)" style="mix-blend-mode:overlay"/>
</g>
</g>
<defs>
<filter id="filter0_d" x="0" y="0" width="22" height="18" filterUnits="userSpaceOnUse" color-interpolation-filters="sRGB">
<feFlood flood-opacity="0" result="BackgroundImageFix"/>
<feColorMatrix in="SourceAlpha" type="matrix" values="0 0 0 0 0 0 0 0 0 0 0 0 0 0 0 0 0 0 127 0" result="hardAlpha"/>
<feOffset dy="2"/>
<feGaussianBlur stdDeviation="1.5"/>
<feColorMatrix type="matrix" values="0 0 0 0 0 0 0 0 0 0 0 0 0 0 0 0 0 0 0.1 0"/>
<feBlend mode="normal" in2="BackgroundImageFix" result="effect1_dropShadow"/>
<feBlend mode="normal" in="SourceGraphic" in2="effect1_dropShadow" result="shape"/>
</filter>
<linearGradient id="paint0_linear" x1="11" y1="1" x2="11" y2="13" gradientUnits="userSpaceOnUse">
<stop stop-color="white" stop-opacity="0.7"/>
<stop offset="1" stop-opacity="0.3"/>
</linearGradient>
<clipPath id="clip0">
<path d="M3 2C3 1.44772 3.44772 1 4 1H18C18.5523 1 19 1.44772 19 2V12C19 12.5523 18.5523 13 18 13H4C3.44772 13 3 12.5523 3 12V2Z" fill="white"/>
</clipPath>
</defs>
</svg>
