<svg width="22" height="18" viewBox="0 0 22 18" fill="none" xmlns="http://www.w3.org/2000/svg">
<g filter="url(#filter0_d)">
<mask id="mask0" style="mask-type:alpha" maskUnits="userSpaceOnUse" x="3" y="1" width="16" height="12">
<rect x="3" y="1" width="16" height="12" fill="white"/>
</mask>
<g mask="url(#mask0)">
<path fill-rule="evenodd" clip-rule="evenodd" d="M3 1V13H19V1H3Z" fill="#FFB400"/>
<mask id="mask1" style="mask-type:alpha" maskUnits="userSpaceOnUse" x="3" y="1" width="16" height="12">
<path fill-rule="evenodd" clip-rule="evenodd" d="M3 1V13H19V1H3Z" fill="white"/>
</mask>
<g mask="url(#mask1)">
<path fill-rule="evenodd" clip-rule="evenodd" d="M3 1V4H19V1H3Z" fill="#C51918"/>
<path fill-rule="evenodd" clip-rule="evenodd" d="M3 10V13H19V10H3Z" fill="#C51918"/>
<rect x="5.504" y="6.136" width="0.56" height="2.912" fill="#F1F9FF"/>
<path fill-rule="evenodd" clip-rule="evenodd" d="M6.288 5.632H5.28V5.912H5.448V6.136H6.12V5.912H6.288V5.632Z" fill="#C88A02"/>
<path fill-rule="evenodd" clip-rule="evenodd" d="M6.12 9.216H6.288V9.496H5.28V9.216H5.448V8.992H6.12V9.216Z" fill="#C88A02"/>
<path fill-rule="evenodd" clip-rule="evenodd" d="M5.784 5.68801C5.90586 5.68801 5.91825 5.64212 5.99015 5.57358C6.04598 5.52036 6.176 5.45436 6.176 5.38001C6.176 5.2099 6.00049 5.07201 5.784 5.07201C5.5675 5.07201 5.392 5.2099 5.392 5.38001C5.392 5.46284 5.48154 5.51823 5.54924 5.57358C5.62057 5.6319 5.67293 5.68801 5.784 5.68801Z" fill="#AD1619"/>
<path fill-rule="evenodd" clip-rule="evenodd" d="M5.28 9.496H6.288V9.944C6.288 9.944 6.162 9.888 6.036 9.888C5.91 9.888 5.784 9.944 5.784 9.944C5.784 9.944 5.658 9.888 5.532 9.888C5.406 9.888 5.28 9.944 5.28 9.944V9.496Z" fill="#005BBF"/>
<mask id="mask2" style="mask-type:alpha" maskUnits="userSpaceOnUse" x="5" y="9" width="2" height="1">
<path fill-rule="evenodd" clip-rule="evenodd" d="M5.28 9.496H6.288V9.944C6.288 9.944 6.162 9.888 6.036 9.888C5.91 9.888 5.784 9.944 5.784 9.944C5.784 9.944 5.658 9.888 5.532 9.888C5.406 9.888 5.28 9.944 5.28 9.944V9.496Z" fill="white"/>
</mask>
<g mask="url(#mask2)">
</g>
<rect x="10.992" y="6.136" width="0.56" height="2.912" fill="#F1F9FF"/>
<path fill-rule="evenodd" clip-rule="evenodd" d="M11.776 5.632H10.768V5.912H10.936V6.136H11.608V5.912H11.776V5.632Z" fill="#C88A02"/>
<path fill-rule="evenodd" clip-rule="evenodd" d="M11.608 9.216H11.776V9.496H10.768V9.216H10.936V8.992H11.608V9.216Z" fill="#C88A02"/>
<path fill-rule="evenodd" clip-rule="evenodd" d="M11.272 5.68801C11.3939 5.68801 11.4062 5.64212 11.4781 5.57358C11.534 5.52036 11.664 5.45436 11.664 5.38001C11.664 5.2099 11.4885 5.07201 11.272 5.07201C11.0555 5.07201 10.88 5.2099 10.88 5.38001C10.88 5.46284 10.9695 5.51823 11.0372 5.57358C11.1086 5.6319 11.1609 5.68801 11.272 5.68801Z" fill="#AD1619"/>
<path fill-rule="evenodd" clip-rule="evenodd" d="M10.768 9.496H11.776V9.944C11.776 9.944 11.65 9.888 11.524 9.888C11.398 9.888 11.272 9.944 11.272 9.944C11.272 9.944 11.146 9.888 11.02 9.888C10.894 9.888 10.768 9.944 10.768 9.944V9.496Z" fill="#005BBF"/>
<mask id="mask3" style="mask-type:alpha" maskUnits="userSpaceOnUse" x="10" y="9" width="2" height="1">
<path fill-rule="evenodd" clip-rule="evenodd" d="M10.768 9.496H11.776V9.944C11.776 9.944 11.65 9.888 11.524 9.888C11.398 9.888 11.272 9.944 11.272 9.944C11.272 9.944 11.146 9.888 11.02 9.888C10.894 9.888 10.768 9.944 10.768 9.944V9.496Z" fill="white"/>
</mask>
<g mask="url(#mask3)">
</g>
<path fill-rule="evenodd" clip-rule="evenodd" d="M5.49398 8.83997C5.59494 8.71757 5.6514 8.60621 5.6514 8.48794C5.6514 8.41337 5.62921 8.34896 5.59033 8.29634L5.5969 8.29339C5.59629 8.29366 5.70766 8.24512 5.74643 8.22653C5.81851 8.19197 5.882 8.15536 5.94392 8.11034C5.98344 8.08159 6.0364 8.05029 6.11713 8.00693L6.21348 7.95571C6.25272 7.93477 6.28193 7.91873 6.30908 7.90298C6.39366 7.85392 6.44956 7.81337 6.49231 7.75915C6.59357 7.63075 6.57255 7.45669 6.43065 7.36008C6.36113 7.31275 6.26732 7.28559 6.1298 7.26421L5.93313 7.23372C5.86732 7.22339 5.8086 7.21375 5.75625 7.2046C6.10053 7.14731 6.59215 7.16837 6.8084 7.28002L7.01393 6.88195C6.57326 6.65442 5.56919 6.67766 5.19412 6.93595C4.91903 7.12541 4.95594 7.41179 5.24217 7.53511C5.36177 7.58664 5.51768 7.62083 5.80621 7.66718C5.75786 7.69523 5.71777 7.72086 5.68042 7.74802C5.64254 7.77556 5.60196 7.79896 5.55274 7.82256C5.5292 7.83385 5.4595 7.86445 5.42754 7.87848L5.42752 7.87849L5.42752 7.8785L5.41146 7.88557C5.17832 7.99158 5.06517 8.13823 5.09898 8.40296L5.11728 8.54627L5.15011 8.55635L5.49398 8.83997ZM5.20579 8.46963L5.20508 8.47169L5.20562 8.47023L5.20579 8.46963ZM11.353 8.48794C11.353 8.60621 11.4094 8.71757 11.5104 8.83997L11.8543 8.55635L11.8871 8.54627L11.9054 8.40296C11.9392 8.13823 11.8261 7.99158 11.5929 7.88557L11.5769 7.87849C11.5449 7.86447 11.4752 7.83385 11.4516 7.82256C11.4024 7.79896 11.3618 7.77556 11.324 7.74802C11.2866 7.72086 11.2465 7.69523 11.1982 7.66718C11.4867 7.62083 11.6426 7.58664 11.7622 7.53511C12.0484 7.41179 12.0853 7.12541 11.8103 6.93595C11.4352 6.67766 10.4311 6.65442 9.99045 6.88195L10.196 7.28002C10.4122 7.16837 10.9038 7.14731 11.2481 7.2046C11.1958 7.21375 11.1371 7.22339 11.0712 7.23372L10.8746 7.26421C10.7371 7.28559 10.6432 7.31275 10.5737 7.36008C10.4318 7.45669 10.4108 7.63075 10.5121 7.75915C10.5548 7.81337 10.6107 7.85392 10.6953 7.90298C10.7224 7.91873 10.7517 7.93477 10.7909 7.95571L10.8872 8.00693C10.968 8.05029 11.0209 8.08159 11.0605 8.11034C11.1224 8.15536 11.1859 8.19197 11.2579 8.22653C11.2967 8.24512 11.4081 8.29366 11.4075 8.29339L11.414 8.29634C11.3752 8.34896 11.353 8.41337 11.353 8.48794Z" fill="#AD1619"/>
<path d="M5.96168 7.20001L6.12697 7.23421V7.48058C5.95092 7.62104 5.504 7.85779 5.504 7.85779V7.20001H5.96168Z" fill="#F1F9FF"/>
<path d="M11.1573 7.20001L10.992 7.23421V7.48058C11.168 7.62104 11.615 7.85779 11.615 7.85779V7.20001H11.1573Z" fill="#F1F9FF"/>
<path fill-rule="evenodd" clip-rule="evenodd" d="M10.388 4.60298V4.52099C10.1 4.31427 9.79832 4.21091 9.48308 4.21091C9.18087 4.07717 8.87497 4.02526 8.56539 4.05517C8.56547 4.05421 8.56552 4.05373 8.56552 4.05373C8.10003 4.00818 7.63091 4.21091 7.63091 4.21091C7.15806 4.21091 6.726 4.52099 6.726 4.52099V4.60298L7.29081 5.17025C7.29081 5.17025 7.44974 5.71605 8.56262 5.58799C8.56301 5.58886 8.56322 5.58931 8.56322 5.58931C8.56322 5.58931 9.30039 5.56919 9.35219 5.55196C9.37274 5.54512 9.39406 5.5389 9.41584 5.53254C9.56023 5.49038 9.72506 5.44226 9.82318 5.17025L10.388 4.60298ZM8.56285 4.0845C8.56052 4.11201 8.55683 4.15681 8.55247 4.21408C8.55801 4.17304 8.56173 4.12998 8.56285 4.0845Z" fill="#AD1619"/>
<path fill-rule="evenodd" clip-rule="evenodd" d="M6.75986 4.69922L6.79824 4.65843L7.31108 5.14093C7.40843 5.11476 7.93685 4.9801 8.52709 4.97348V4.97322L8.54955 4.97329L8.572 4.97322V4.97348C9.22595 4.98082 9.804 5.14532 9.804 5.14532C9.804 5.14532 9.79781 5.19839 9.78276 5.26079C9.79869 5.22813 9.81756 5.19183 9.83937 5.15177L9.84478 5.14476L10.3617 4.65843L10.4001 4.69922L9.88642 5.18248C9.81148 5.32049 9.77374 5.41158 9.77374 5.44943C9.77374 5.50716 9.62355 5.54142 9.33042 5.57662C9.10077 5.60419 8.82976 5.62269 8.60807 5.62546V5.62582L8.57997 5.62573L8.55186 5.62582V5.62546C8.33018 5.62269 8.05916 5.60419 7.82952 5.57662C7.53639 5.54142 7.3862 5.50716 7.3862 5.44943C7.3862 5.44227 7.38484 5.4332 7.38215 5.42227C7.35259 5.38463 7.33181 5.32305 7.31798 5.2675C7.305 5.24153 7.29018 5.21316 7.27352 5.18248L6.75986 4.69922ZM9.6265 5.45052C9.66574 5.46888 9.69719 5.45057 9.72206 5.41541C9.71991 5.42512 9.71856 5.4339 9.71802 5.44176C9.71473 5.44391 9.7097 5.4465 9.70309 5.44928C9.68464 5.45703 9.65647 5.46529 9.61982 5.47365C9.54779 5.49009 9.44526 5.50642 9.32374 5.52101C9.08645 5.54951 8.80428 5.56825 8.57997 5.56973C8.35565 5.56825 8.07349 5.54951 7.8362 5.52101C7.71468 5.50642 7.61215 5.49009 7.54011 5.47365C7.50939 5.46665 7.48463 5.45971 7.46656 5.45308L7.47259 5.45052C7.59492 5.39328 8.40387 5.33956 8.54955 5.33029C8.69522 5.33956 9.50417 5.39328 9.6265 5.45052ZM9.78077 5.44026L9.77993 5.44124L9.78043 5.44053L9.78077 5.44026Z" fill="#C88A02"/>
<path fill-rule="evenodd" clip-rule="evenodd" d="M8.55611 3.67354C8.6489 3.67354 8.72411 3.59832 8.72411 3.50554C8.72411 3.41276 8.6489 3.33754 8.55611 3.33754C8.46333 3.33754 8.38811 3.41276 8.38811 3.50554C8.38811 3.59832 8.46333 3.67354 8.55611 3.67354Z" fill="#005BBF"/>
<path fill-rule="evenodd" clip-rule="evenodd" d="M8.49342 3.0383H8.61008V3.112H8.68631V3.22867H8.61008V3.462H8.68631V3.57867H8.416V3.462H8.49342V3.22867H8.416V3.112H8.49342V3.0383Z" fill="#C88A02"/>
<rect x="8.472" y="3.672" width="0.224" height="0.728" fill="#C88A02"/>
<path d="M6.85387 4.64843L6.54626 4.63686C6.69139 3.79807 7.40618 3.38708 8.54839 3.38708C9.69208 3.38708 10.4043 3.79985 10.5386 4.64176L10.1225 4.6854C10.0572 4.2757 9.37098 3.90493 8.5544 3.90493C7.73635 3.90493 6.9253 4.23561 6.85387 4.64843Z" fill="#C88A02"/>
<path opacity="0.3" fill-rule="evenodd" clip-rule="evenodd" d="M6.736 5.632H10.376V8.90242C10.376 8.90242 10.1056 10 8.556 10C7.00639 10 6.736 8.87348 6.736 8.87348V5.632Z" fill="#E1E5E8"/>
<mask id="mask4" style="mask-type:alpha" maskUnits="userSpaceOnUse" x="6" y="5" width="5" height="5">
<path fill-rule="evenodd" clip-rule="evenodd" d="M6.736 5.632H10.376V8.90242C10.376 8.90242 10.1056 10 8.556 10C7.00639 10 6.736 8.87348 6.736 8.87348V5.632Z" fill="white"/>
</mask>
<g mask="url(#mask4)">
<rect x="6.736" y="7.64801" width="1.848" height="2.184" fill="#FFC034"/>
<rect x="6.736" y="5.576" width="1.848" height="2.128" fill="#AD1619"/>
<rect x="8.528" y="7.59201" width="1.848" height="2.128" fill="#AD1619"/>
<rect x="8.528" y="5.632" width="1.96" height="2.072" fill="#F1F9FF"/>
<path fill-rule="evenodd" clip-rule="evenodd" d="M9.74136 9.72135C9.74136 9.72135 8.55526 9.8146 8.55526 9.04962C8.55526 9.04962 8.54395 9.72135 7.30545 9.72135V10.3253H9.74136V9.72135Z" fill="#F1F9FF"/>
<path fill-rule="evenodd" clip-rule="evenodd" d="M8.556 8.096C8.78796 8.096 8.976 7.89542 8.976 7.648C8.976 7.40057 8.78796 7.2 8.556 7.2C8.32404 7.2 8.136 7.40057 8.136 7.648C8.136 7.89542 8.32404 8.096 8.556 8.096Z" fill="#005BBF" stroke="#AD1619" stroke-width="0.583333"/>
</g>
<path fill-rule="evenodd" clip-rule="evenodd" d="M7.5 7C7.77614 7 8 6.77614 8 6.5C8 6.22386 7.77614 6 7.5 6C7.22386 6 7 6.22386 7 6.5C7 6.77614 7.22386 7 7.5 7Z" fill="#C88A02"/>
<path fill-rule="evenodd" clip-rule="evenodd" d="M9.5 7C9.77614 7 10 6.77614 10 6.5C10 6.22386 9.77614 6 9.5 6C9.22386 6 9 6.22386 9 6.5C9 6.77614 9.22386 7 9.5 7Z" fill="#C37C9C"/>
<path fill-rule="evenodd" clip-rule="evenodd" d="M9.5 9C9.77614 9 10 8.77614 10 8.5C10 8.22386 9.77614 8 9.5 8C9.22386 8 9 8.22386 9 8.5C9 8.77614 9.22386 9 9.5 9Z" fill="#FFC034"/>
<path d="M7.5 9C7.77614 9 8 8.77614 8 8.5C8 8.22386 7.77614 8 7.5 8C7.22386 8 7 8.22386 7 8.5C7 8.77614 7.22386 9 7.5 9Z" fill="#AD1619"/>
</g>
</g>
<rect x="3" y="1" width="16" height="12" fill="url(#paint0_linear)" style="mix-blend-mode:overlay"/>
</g>
<defs>
<filter id="filter0_d" x="0" y="0" width="22" height="18" filterUnits="userSpaceOnUse" color-interpolation-filters="sRGB">
<feFlood flood-opacity="0" result="BackgroundImageFix"/>
<feColorMatrix in="SourceAlpha" type="matrix" values="0 0 0 0 0 0 0 0 0 0 0 0 0 0 0 0 0 0 127 0" result="hardAlpha"/>
<feOffset dy="2"/>
<feGaussianBlur stdDeviation="1.5"/>
<feColorMatrix type="matrix" values="0 0 0 0 0 0 0 0 0 0 0 0 0 0 0 0 0 0 0.1 0"/>
<feBlend mode="normal" in2="BackgroundImageFix" result="effect1_dropShadow"/>
<feBlend mode="normal" in="SourceGraphic" in2="effect1_dropShadow" result="shape"/>
</filter>
<linearGradient id="paint0_linear" x1="11" y1="1" x2="11" y2="13" gradientUnits="userSpaceOnUse">
<stop stop-color="white" stop-opacity="0.7"/>
<stop offset="1" stop-opacity="0.3"/>
</linearGradient>
</defs>
</svg>
