<svg width="22" height="18" viewBox="0 0 22 18" fill="none" xmlns="http://www.w3.org/2000/svg">
<g filter="url(#filter0_d)">
<mask id="mask0" style="mask-type:alpha" maskUnits="userSpaceOnUse" x="3" y="1" width="16" height="12">
<rect x="3" y="1" width="16" height="12" fill="white"/>
</mask>
<g mask="url(#mask0)">
<path fill-rule="evenodd" clip-rule="evenodd" d="M3 1V13H19V1H3Z" fill="#67BFE5"/>
<mask id="mask1" style="mask-type:alpha" maskUnits="userSpaceOnUse" x="3" y="1" width="16" height="12">
<path fill-rule="evenodd" clip-rule="evenodd" d="M3 1V13H19V1H3Z" fill="white"/>
</mask>
<g mask="url(#mask1)">
<mask id="mask2" style="mask-type:alpha" maskUnits="userSpaceOnUse" x="3" y="1" width="9" height="7">
<rect x="3" y="1" width="9" height="7" fill="white"/>
</mask>
<g mask="url(#mask2)">
<path d="M1.99787 7.49991L3.97834 8.36852L12.0449 1.94438L13.0896 0.65361L10.9718 0.363298L7.68159 3.13164L5.03334 4.99686L1.99787 7.49991Z" fill="#F7FCFF"/>
<path d="M2.269 8.10847L3.27796 8.61253L12.7145 0.533676H11.2978L2.269 8.10847Z" fill="#F50100"/>
<path d="M13.0021 7.49991L11.0217 8.36852L2.95506 1.94438L1.91041 0.65361L4.02824 0.363298L7.31841 3.13164L9.96666 4.99686L13.0021 7.49991Z" fill="#F7FCFF"/>
<path d="M12.9346 7.93667L11.9256 8.44073L7.90743 4.98176L6.71614 4.59529L1.80989 0.658027H3.22659L8.13008 4.50184L9.43255 4.96525L12.9346 7.93667Z" fill="#F50100"/>
<mask id="path-10-outside-1" maskUnits="userSpaceOnUse" x="2" y="0" width="11" height="9" fill="black">
<rect fill="white" x="2" width="11" height="9"/>
<path fill-rule="evenodd" clip-rule="evenodd" d="M7.99226 1H6.99226V4H3V5H6.99226V8H7.99226V5H12V4H7.99226V1Z"/>
</mask>
<path fill-rule="evenodd" clip-rule="evenodd" d="M7.99226 1H6.99226V4H3V5H6.99226V8H7.99226V5H12V4H7.99226V1Z" fill="#F50100"/>
<path d="M6.99226 1V0.25H6.24226V1H6.99226ZM7.99226 1H8.74226V0.25H7.99226V1ZM6.99226 4V4.75H7.74226V4H6.99226ZM3 4V3.25H2.25V4H3ZM3 5H2.25V5.75H3V5ZM6.99226 5H7.74226V4.25H6.99226V5ZM6.99226 8H6.24226V8.75H6.99226V8ZM7.99226 8V8.75H8.74226V8H7.99226ZM7.99226 5V4.25H7.24226V5H7.99226ZM12 5V5.75H12.75V5H12ZM12 4H12.75V3.25H12V4ZM7.99226 4H7.24226V4.75H7.99226V4ZM6.99226 1.75H7.99226V0.25H6.99226V1.75ZM7.74226 4V1H6.24226V4H7.74226ZM3 4.75H6.99226V3.25H3V4.75ZM3.75 5V4H2.25V5H3.75ZM6.99226 4.25H3V5.75H6.99226V4.25ZM7.74226 8V5H6.24226V8H7.74226ZM7.99226 7.25H6.99226V8.75H7.99226V7.25ZM7.24226 5V8H8.74226V5H7.24226ZM12 4.25H7.99226V5.75H12V4.25ZM11.25 4V5H12.75V4H11.25ZM7.99226 4.75H12V3.25H7.99226V4.75ZM7.24226 1V4H8.74226V1H7.24226Z" fill="#F7FCFF" mask="url(#path-10-outside-1)"/>
</g>
<path fill-rule="evenodd" clip-rule="evenodd" d="M13 6H17.8276V10.1667C17.8276 10.1667 17.4228 12 15.4138 12C13.4048 12 13 10.1667 13 10.1667V6Z" fill="#F7FCFF"/>
<mask id="mask3" style="mask-type:alpha" maskUnits="userSpaceOnUse" x="13" y="6" width="5" height="6">
<path fill-rule="evenodd" clip-rule="evenodd" d="M13 6H17.8276V10.1667C17.8276 10.1667 17.4228 12 15.4138 12C13.4048 12 13 10.1667 13 10.1667V6Z" fill="white"/>
</mask>
<g mask="url(#mask3)">
<rect x="13" y="6" width="4.82759" height="1.5" fill="#C3352C"/>
<rect x="15.069" y="7.33333" width="0.689655" height="4.66667" fill="#C3352C"/>
<path fill-rule="evenodd" clip-rule="evenodd" d="M13 9.16667H17.8276V9.83334H13V9.16667Z" fill="#C3352C"/>
<path fill-rule="evenodd" clip-rule="evenodd" d="M14.2703 11.3685C14.5605 11.7789 14.7971 11.939 14.9643 11.6972C15.0818 11.5273 15.0939 11.3573 14.9265 11.3241C14.8294 11.2007 14.7609 11.1044 14.7217 11.0373L14.7273 11.032C14.7743 10.9863 14.7761 10.9254 14.7668 10.9027C14.7633 10.8717 14.7865 10.8295 14.9374 10.7141C15.074 10.6097 15.1347 10.5113 15.0451 10.403C14.998 10.3461 14.9557 10.3346 14.8223 10.314L14.7813 10.3077C14.7418 10.3013 14.7131 10.295 14.695 10.2896L14.6022 10.1118C14.4084 10.1059 14.257 10.14 14.0913 10.21C14.02 10.2401 13.9719 10.2606 13.9398 10.2742C13.8909 10.295 13.8791 10.3001 13.8788 10.2993C13.8786 10.2991 13.8797 10.2983 13.881 10.2972C13.8849 10.2942 13.8913 10.2891 13.882 10.2891C13.847 10.2891 13.8092 10.2851 13.7042 10.2718L13.6837 10.2692C13.3819 10.2313 13.3063 10.2325 13.2574 10.373C13.183 10.5867 13.6235 10.9785 13.8573 11.0256C13.9745 11.0492 14.1147 11.1613 14.2703 11.3685ZM14.5984 11.0743C14.6268 11.0743 14.6486 11.0731 14.6679 11.0679L14.6738 11.0551C14.6581 11.0658 14.6344 11.0743 14.5984 11.0743ZM13.4971 10.4841C13.4909 10.4768 13.4892 10.4675 13.4935 10.4552C13.4926 10.4577 13.4954 10.4632 13.5013 10.471C13.5071 10.4786 13.5158 10.4885 13.5269 10.5001C13.5135 10.4962 13.5031 10.4912 13.4971 10.4841ZM13.9067 10.7805C13.8229 10.7636 13.6097 10.5863 13.5269 10.5001C13.5486 10.5063 13.5782 10.5093 13.61 10.5126C13.6239 10.514 13.6382 10.5155 13.6525 10.5173L13.6727 10.5198C13.7907 10.5348 13.8318 10.5391 13.882 10.5391C13.9109 10.5391 13.9049 10.549 13.9013 10.5551C13.9002 10.557 13.8993 10.5585 13.8997 10.5592C13.9014 10.562 13.9242 10.5524 14.0382 10.504L14.0382 10.504L14.1886 10.4403C14.2771 10.4029 14.3579 10.3787 14.4466 10.3678C14.4564 10.4097 14.4808 10.4475 14.5205 10.4783C14.5737 10.5196 14.6338 10.537 14.7373 10.5538C14.6087 10.6596 14.5441 10.7481 14.5238 10.8344C14.4081 10.871 14.4187 11.0013 14.4881 11.1315C14.5364 11.2224 14.6278 11.351 14.7638 11.5212L14.8615 11.5682C14.8326 11.5682 14.8166 11.555 14.8043 11.545C14.7889 11.5323 14.7796 11.5247 14.7587 11.555C14.7572 11.5571 14.6663 11.4955 14.4723 11.2213C14.2813 10.9668 14.096 10.8186 13.9067 10.7805ZM14.5164 10.9303C14.5181 10.9288 14.5179 10.9269 14.5178 10.925L14.5178 10.9249L14.5164 10.9303ZM14.5963 10.8243L14.5888 10.8244L14.5923 10.8247C14.5937 10.8245 14.595 10.8244 14.5963 10.8243ZM14.5984 10.8243C14.5977 10.8243 14.597 10.8243 14.5963 10.8243L14.5984 10.8243Z" fill="#979797"/>
<path d="M13.8275 9.05509C13.8275 9.05509 13.589 8.72508 13.589 8.60744" stroke="#964C36" stroke-width="0.5"/>
<path d="M13.6794 8.77141C13.6794 8.77141 13.3744 8.64115 13.3744 8.77141" stroke="#2A8E51" stroke-width="0.5"/>
<path d="M13.6744 8.63443C13.6744 8.63443 13.4599 8.36153 13.2986 8.36153C13.1373 8.36153 13.1412 8.49798 13.1412 8.49798" stroke="#2A8E51" stroke-width="0.5"/>
<path d="M13.552 8.36098C13.552 8.36098 13.4563 7.9146 13.3029 7.9146C13.1496 7.9146 13.1496 8.13779 13.1496 8.13779" stroke="#2A8E51" stroke-width="0.5"/>
<path d="M13.5907 8.36011C13.5907 8.36011 13.548 7.97755 13.7454 7.97755" stroke="#2A8E51" stroke-width="0.5"/>
<path d="M14.1305 8.99056C14.1305 8.99056 14.0193 8.59886 14.0595 8.48831" stroke="#964C36" stroke-width="0.5"/>
<path d="M14.0884 8.67331C14.0884 8.67331 13.8463 8.4466 13.8018 8.569" stroke="#2A8E51" stroke-width="0.5"/>
<path d="M14.1305 8.54289C14.1305 8.54289 14.0223 8.21307 13.8707 8.15791C13.7192 8.10275 13.6761 8.23229 13.6761 8.23229" stroke="#2A8E51" stroke-width="0.5"/>
<path d="M14.109 8.24407C14.109 8.24407 14.1717 7.79187 14.0277 7.73943C13.8836 7.687 13.8073 7.89673 13.8073 7.89673" stroke="#2A8E51" stroke-width="0.5"/>
<path d="M14.1457 8.25649C14.1457 8.25649 14.2364 7.8824 14.4219 7.94992" stroke="#2A8E51" stroke-width="0.5"/>
<path d="M14.376 9.13006C14.376 9.13006 14.5342 8.75484 14.5077 8.64021" stroke="#964C36" stroke-width="0.35"/>
<path d="M14.4565 8.82033C14.4565 8.82033 14.7244 8.6248 14.7537 8.75172" stroke="#2A8E51" stroke-width="0.35"/>
<path d="M14.4306 8.68574C14.4306 8.68574 14.5782 8.37157 14.7354 8.33528C14.8925 8.299 14.9194 8.43283 14.9194 8.43283" stroke="#2A8E51" stroke-width="0.35"/>
<path d="M14.4883 8.39175C14.4883 8.39175 14.4812 7.93528 14.6306 7.90079C14.78 7.8663 14.8302 8.08377 14.8302 8.08377" stroke="#2A8E51" stroke-width="0.35"/>
<path d="M14.4504 8.39962C14.4504 8.39962 14.406 8.01726 14.2136 8.06167" stroke="#2A8E51" stroke-width="0.35"/>
<path d="M16.349 8.90092C16.349 8.90092 16.47 8.34419 16.8143 8.34419C17.1586 8.34419 17.3127 8.9324 17.3127 8.9324" stroke="#2A8E51" stroke-width="0.35"/>
<path d="M16.0646 8.52083C16.0646 8.52083 16.2501 8.19199 16.862 8.21888C17.4739 8.24576 17.5854 8.52083 17.5854 8.52083" stroke="#2A8E51" stroke-width="0.35"/>
<path d="M15.941 8.10266C15.941 8.10266 16.2771 7.68631 16.7482 8.03922L16.9078 8.10266C16.9078 8.10266 17.0679 7.63083 17.841 8.10266" stroke="#2A8E51" stroke-width="0.35"/>
<path d="M16.8692 9.01848C16.8692 9.01848 16.8938 8.49884 16.9762 8.35611" stroke="#964C36" stroke-width="0.5"/>
<path d="M17.5494 10.157C17.5494 10.157 17.2403 10.0116 17.1478 10.157C17.0554 10.3023 15.9414 11.6379 15.9414 11.6379" stroke="#964C36" stroke-width="0.5"/>
<path fill-rule="evenodd" clip-rule="evenodd" d="M16.4822 10.2976L17.1726 10.7802C17.1726 10.7802 17.4903 10.5535 17.3314 10.4256C17.1726 10.2976 16.7397 10.072 16.7397 10.072L16.4822 10.2976Z" fill="#FFF203"/>
<path fill-rule="evenodd" clip-rule="evenodd" d="M16.4583 10.3223C16.4583 10.3223 16.2984 10.4897 16.2984 10.6177C16.2984 10.7457 16.1495 11.0887 16.1495 11.0887C16.1495 11.0887 16.5657 11.3449 16.6522 11.1817C16.7386 11.0185 17.2999 11.1162 17.2009 10.867C17.1019 10.6177 16.4583 10.3223 16.4583 10.3223Z" fill="#00A651"/>
<path fill-rule="evenodd" clip-rule="evenodd" d="M13.5282 6.59115C13.5282 6.59115 13.8968 6.40198 14.0793 6.59115C14.2618 6.78032 14.4113 6.57548 14.4113 6.46137C14.4113 6.34725 14.701 5.95552 14.701 6.27333C14.701 6.59115 14.6109 6.77059 14.8655 6.77059C15.1202 6.77059 16.2671 6.33158 16.5421 6.46137C16.8171 6.59115 17.0276 6.55887 16.9577 6.37265C16.8878 6.18643 16.7081 6.07005 16.3621 6.17169C16.0161 6.27333 16.0978 6.37265 15.7988 6.37265C15.4998 6.37265 15.1669 6.27333 15.1669 6.27333C15.1669 6.27333 15.2604 6.10634 15.6018 6.22512C15.9432 6.34391 16.4141 6.07801 16.5421 6.07801C16.6702 6.07801 17.0226 6.07005 17.0576 6.17169C17.0925 6.27333 17.3053 6.36661 17.1431 6.46137C16.9809 6.55612 16.7134 6.61548 16.8974 6.73689C17.0815 6.85829 17.5047 6.83489 17.5251 6.96118C17.5455 7.08746 17.7461 7.27605 17.6656 7.27605C17.5851 7.27605 17.4396 7.4539 17.3041 7.39975C17.1686 7.34559 17.1527 7.29804 17.2826 7.25417C17.4125 7.2103 17.4113 7.02581 17.3041 7.02581C17.197 7.02581 17.2493 7.09045 17.0053 7.02581C16.7613 6.96118 16.4385 6.88932 16.4579 7.02581C16.4773 7.16231 16.6361 7.37182 16.3431 7.39975C16.05 7.42767 15.9129 7.53978 15.8558 7.4495C15.7988 7.35922 15.5949 7.23892 15.7552 7.20034C15.9155 7.16177 16.0687 7.33146 16.1265 7.30375C16.1842 7.27605 16.3151 7.26062 16.2055 7.14322C16.0958 7.02581 15.9151 6.9567 16.0827 6.86882C16.2502 6.78094 16.118 6.77914 15.7988 6.96118C15.4795 7.14322 15.302 7.29792 15.0217 7.27605C14.7415 7.25417 14.6365 7.28368 14.5464 7.25417C14.4564 7.22466 14.0177 7.58021 13.8913 7.48998C13.765 7.39975 13.3572 7.36513 13.4306 7.25417C13.504 7.14322 13.6026 7.08609 13.7124 7.14322C13.8221 7.20034 13.9312 7.25747 14.0053 7.20034C14.0793 7.14322 14.2931 6.9472 14.2393 6.90801C14.1855 6.86882 14.2376 6.73689 13.9331 6.73689C13.6286 6.73689 13.5215 6.88392 13.4492 6.79128C13.377 6.69863 13.5282 6.59115 13.5282 6.59115Z" fill="#FFD100"/>
</g>
</g>
</g>
<rect x="3" y="1" width="16" height="12" fill="url(#paint0_linear)" style="mix-blend-mode:overlay"/>
</g>
<defs>
<filter id="filter0_d" x="0" y="0" width="22" height="18" filterUnits="userSpaceOnUse" color-interpolation-filters="sRGB">
<feFlood flood-opacity="0" result="BackgroundImageFix"/>
<feColorMatrix in="SourceAlpha" type="matrix" values="0 0 0 0 0 0 0 0 0 0 0 0 0 0 0 0 0 0 127 0" result="hardAlpha"/>
<feOffset dy="2"/>
<feGaussianBlur stdDeviation="1.5"/>
<feColorMatrix type="matrix" values="0 0 0 0 0 0 0 0 0 0 0 0 0 0 0 0 0 0 0.1 0"/>
<feBlend mode="normal" in2="BackgroundImageFix" result="effect1_dropShadow"/>
<feBlend mode="normal" in="SourceGraphic" in2="effect1_dropShadow" result="shape"/>
</filter>
<linearGradient id="paint0_linear" x1="11" y1="1" x2="11" y2="13" gradientUnits="userSpaceOnUse">
<stop stop-color="white" stop-opacity="0.7"/>
<stop offset="1" stop-opacity="0.3"/>
</linearGradient>
</defs>
</svg>
