<svg width="22" height="18" viewBox="0 0 22 18" fill="none" xmlns="http://www.w3.org/2000/svg">
<g filter="url(#filter0_d)">
<mask id="mask0" style="mask-type:alpha" maskUnits="userSpaceOnUse" x="3" y="1" width="16" height="12">
<rect x="3" y="1" width="16" height="12" fill="white"/>
</mask>
<g mask="url(#mask0)">
<path fill-rule="evenodd" clip-rule="evenodd" d="M3 1V13H19V1H3Z" fill="#2E42A5"/>
<mask id="mask1" style="mask-type:alpha" maskUnits="userSpaceOnUse" x="3" y="1" width="16" height="12">
<path fill-rule="evenodd" clip-rule="evenodd" d="M3 1V13H19V1H3Z" fill="white"/>
</mask>
<g mask="url(#mask1)">
<mask id="mask2" style="mask-type:alpha" maskUnits="userSpaceOnUse" x="3" y="1" width="9" height="7">
<rect x="3" y="1" width="9" height="7" fill="white"/>
</mask>
<g mask="url(#mask2)">
<path d="M1.99786 7.49991L3.97834 8.36852L12.0449 1.94438L13.0896 0.65361L10.9718 0.363298L7.68159 3.13164L5.03334 4.99686L1.99786 7.49991Z" fill="#F7FCFF"/>
<path d="M2.269 8.10847L3.27796 8.61253L12.7145 0.533676H11.2978L2.269 8.10847Z" fill="#F50100"/>
<path d="M13.0021 7.49991L11.0217 8.36852L2.95506 1.94438L1.9104 0.65361L4.02823 0.363298L7.31841 3.13164L9.96666 4.99686L13.0021 7.49991Z" fill="#F7FCFF"/>
<path d="M12.9346 7.93667L11.9256 8.44073L7.90743 4.98176L6.71613 4.59529L1.80988 0.658027H3.22658L8.13007 4.50184L9.43255 4.96525L12.9346 7.93667Z" fill="#F50100"/>
<mask id="path-10-outside-1" maskUnits="userSpaceOnUse" x="2" y="0" width="11" height="9" fill="black">
<rect fill="white" x="2" width="11" height="9"/>
<path fill-rule="evenodd" clip-rule="evenodd" d="M7.99226 1H6.99226V4H3V5H6.99226V8H7.99226V5H12V4H7.99226V1Z"/>
</mask>
<path fill-rule="evenodd" clip-rule="evenodd" d="M7.99226 1H6.99226V4H3V5H6.99226V8H7.99226V5H12V4H7.99226V1Z" fill="#F50100"/>
<path d="M6.99226 1V0.25H6.24226V1H6.99226ZM7.99226 1H8.74226V0.25H7.99226V1ZM6.99226 4V4.75H7.74226V4H6.99226ZM3 4V3.25H2.25V4H3ZM3 5H2.25V5.75H3V5ZM6.99226 5H7.74226V4.25H6.99226V5ZM6.99226 8H6.24226V8.75H6.99226V8ZM7.99226 8V8.75H8.74226V8H7.99226ZM7.99226 5V4.25H7.24226V5H7.99226ZM12 5V5.75H12.75V5H12ZM12 4H12.75V3.25H12V4ZM7.99226 4H7.24226V4.75H7.99226V4ZM6.99226 1.75H7.99226V0.25H6.99226V1.75ZM7.74226 4V1H6.24226V4H7.74226ZM3 4.75H6.99226V3.25H3V4.75ZM3.75 5V4H2.25V5H3.75ZM6.99226 4.25H3V5.75H6.99226V4.25ZM7.74226 8V5H6.24226V8H7.74226ZM7.99226 7.25H6.99226V8.75H7.99226V7.25ZM7.24226 5V8H8.74226V5H7.24226ZM12 4.25H7.99226V5.75H12V4.25ZM11.25 4V5H12.75V4H11.25ZM7.99226 4.75H12V3.25H7.99226V4.75ZM7.24226 1V4H8.74226V1H7.24226Z" fill="#F7FCFF" mask="url(#path-10-outside-1)"/>
</g>
<path d="M15.9751 10.857C15.4607 10.857 15.1028 10.7356 14.848 10.5239C14.5921 10.3113 14.4243 9.99438 14.317 9.57215C14.2095 9.14921 14.1655 8.63172 14.1491 8.03056C14.1376 7.60803 14.1397 7.14955 14.142 6.65788C14.1428 6.48956 14.1436 6.31734 14.1439 6.14134H17.8518C17.918 7.34505 17.9418 8.5181 17.7061 9.39789C17.585 9.84999 17.3983 10.213 17.1239 10.4628C16.8522 10.7103 16.4831 10.857 15.9751 10.857Z" fill="#6DC2FF" stroke="#F7FCFF" stroke-width="0.25"/>
<mask id="mask3" style="mask-type:alpha" maskUnits="userSpaceOnUse" x="14" y="6" width="5" height="5">
<path d="M15.9751 10.857C15.4607 10.857 15.1028 10.7356 14.848 10.5239C14.5921 10.3113 14.4243 9.99438 14.317 9.57215C14.2095 9.14921 14.1655 8.63172 14.1491 8.03056C14.1376 7.60803 14.1397 7.14955 14.142 6.65788C14.1428 6.48956 14.1436 6.31734 14.1439 6.14134H17.8518C17.918 7.34505 17.9418 8.5181 17.7061 9.39789C17.585 9.84999 17.3983 10.213 17.1239 10.4628C16.8522 10.7103 16.4831 10.857 15.9751 10.857Z" fill="white" stroke="white" stroke-width="0.25"/>
</mask>
<g mask="url(#mask3)">
<path fill-rule="evenodd" clip-rule="evenodd" d="M15.2609 7.79349C15.2609 7.79349 15.0636 7.64754 14.979 7.41109C14.8944 7.17463 14.7269 6.54517 14.7269 6.49051C14.7269 6.43585 14.5041 6.49051 14.5041 6.49051C14.5041 6.49051 14.5072 6.22432 14.5913 6.22432C14.6754 6.22432 14.6785 5.9775 14.8825 6.03965C15.0865 6.10181 15.2469 6.32975 15.4548 6.32975C15.6627 6.32975 16.5317 6.39604 16.6714 6.39604C16.8111 6.39604 17.1793 6.69087 17.1793 6.91155C17.1793 7.13224 17.0789 7.46105 16.9999 7.46105C16.9209 7.46105 16.8215 7.65235 16.6714 7.58921C16.5212 7.52606 16.1628 7.39603 15.8417 7.46105C15.5206 7.52606 15.4548 7.48519 15.4548 7.58921C15.4548 7.69322 15.2609 7.79349 15.2609 7.79349Z" fill="#E1E5E8"/>
<path fill-rule="evenodd" clip-rule="evenodd" d="M14.8 7.63934H17.3778L16.9338 8.21311H15.1124L14.8 7.63934Z" fill="#49801E"/>
<path d="M14.7665 10.1478C14.7665 10.1478 15.212 10.3072 15.3982 10.2878C15.6044 10.2663 15.7869 10.0313 15.9247 10.0313C16.0623 10.0313 16.3271 10.2664 16.5328 10.2878C16.7193 10.3072 17.083 10.1478 17.083 10.1478" stroke="white" stroke-width="0.533333"/>
<path d="M14.2772 9.46812C14.4312 9.33768 14.7665 9.32814 14.7665 9.32814C14.7665 9.32814 15.212 9.48749 15.3982 9.46812C15.6044 9.44668 15.7869 9.21162 15.9247 9.21162C16.0623 9.21162 16.3271 9.44675 16.5328 9.46812C16.7193 9.4875 17.083 9.32814 17.083 9.32814C17.083 9.32814 17.2862 9.09961 17.5415 9.34092" stroke="white" stroke-width="0.533333"/>
<path d="M14.2304 8.76488L13.8932 8.35165C14.0254 8.24377 14.2474 8.13746 14.5715 8.01995L14.7287 8.01237C15.0647 8.0987 15.2893 8.13612 15.3716 8.12788C15.3987 8.12516 15.4441 8.10311 15.5269 8.04816C15.7622 7.8921 15.785 7.87938 15.9247 7.87938C16.0524 7.87938 16.0787 7.89162 16.3456 8.03574C16.3951 8.06229 16.4137 8.07195 16.4405 8.08482C16.4969 8.11187 16.5372 8.12566 16.5594 8.12787C16.6235 8.13429 16.7525 8.10437 16.933 8.03172C17.1678 7.81833 17.4652 7.84044 17.721 8.07352C17.8917 8.22901 18.0287 8.35462 18.1321 8.45045L17.7696 8.84164C17.6675 8.74698 17.5315 8.62232 17.3619 8.46777C17.2944 8.40631 17.3089 8.4067 17.2789 8.43918L17.1867 8.50399C16.9066 8.62226 16.6854 8.67649 16.5063 8.65855C16.4101 8.64893 16.3171 8.61716 16.2097 8.56563C16.1738 8.54837 16.1481 8.53504 16.0921 8.50501C15.9634 8.43546 15.9144 8.41271 15.9247 8.41271C15.9472 8.41271 15.916 8.43005 15.8217 8.49261C15.67 8.59325 15.5644 8.64455 15.4248 8.65855C15.2703 8.67403 15.0295 8.63679 14.6773 8.54946C14.4485 8.63597 14.2965 8.71092 14.2304 8.76488Z" fill="white"/>
</g>
<path d="M14.4816 10.1969C14.4816 10.1969 14.9736 10.6681 14.6765 10.9874C14.3795 11.3067 14.1071 11.1212 14.1071 11.1212" stroke="#B85F3C" stroke-width="0.5"/>
<path d="M17.5249 10.1969C17.5249 10.1969 17.033 10.6681 17.33 10.9874C17.6271 11.3067 17.8995 11.1212 17.8995 11.1212" stroke="#B85F3C" stroke-width="0.5"/>
<path d="M14.1604 10.5766C14.1604 10.5766 15.008 11.3865 16.0499 11.3865C17.0919 11.3865 17.9304 10.7678 17.9304 10.7678" stroke="#CB8B73" stroke-width="0.5"/>
</g>
</g>
<rect x="3" y="1" width="16" height="12" fill="url(#paint0_linear)" style="mix-blend-mode:overlay"/>
</g>
<defs>
<filter id="filter0_d" x="0" y="0" width="22" height="18" filterUnits="userSpaceOnUse" color-interpolation-filters="sRGB">
<feFlood flood-opacity="0" result="BackgroundImageFix"/>
<feColorMatrix in="SourceAlpha" type="matrix" values="0 0 0 0 0 0 0 0 0 0 0 0 0 0 0 0 0 0 127 0" result="hardAlpha"/>
<feOffset dy="2"/>
<feGaussianBlur stdDeviation="1.5"/>
<feColorMatrix type="matrix" values="0 0 0 0 0 0 0 0 0 0 0 0 0 0 0 0 0 0 0.1 0"/>
<feBlend mode="normal" in2="BackgroundImageFix" result="effect1_dropShadow"/>
<feBlend mode="normal" in="SourceGraphic" in2="effect1_dropShadow" result="shape"/>
</filter>
<linearGradient id="paint0_linear" x1="11" y1="1" x2="11" y2="13" gradientUnits="userSpaceOnUse">
<stop stop-color="white" stop-opacity="0.7"/>
<stop offset="1" stop-opacity="0.3"/>
</linearGradient>
</defs>
</svg>
