<svg width="22" height="18" viewBox="0 0 22 18" fill="none" xmlns="http://www.w3.org/2000/svg">
<g filter="url(#filter0_d)">
<mask id="mask0" style="mask-type:alpha" maskUnits="userSpaceOnUse" x="3" y="1" width="16" height="12">
<rect x="3" y="1" width="16" height="12" fill="white"/>
</mask>
<g mask="url(#mask0)">
<path fill-rule="evenodd" clip-rule="evenodd" d="M3 1V13H19V1H3Z" fill="#2E42A5"/>
<mask id="mask1" style="mask-type:alpha" maskUnits="userSpaceOnUse" x="3" y="1" width="16" height="12">
<path fill-rule="evenodd" clip-rule="evenodd" d="M3 1V13H19V1H3Z" fill="white"/>
</mask>
<g mask="url(#mask1)">
<mask id="mask2" style="mask-type:alpha" maskUnits="userSpaceOnUse" x="3" y="1" width="16" height="12">
<rect x="3" y="1" width="16" height="12" fill="white"/>
</mask>
<g mask="url(#mask2)">
<path d="M1.21843 12.1427L4.73928 13.6317L19.0799 2.61893L20.9371 0.406194L17.172 -0.0914841L11.3228 4.65425L6.61483 7.85177L1.21843 12.1427Z" fill="white"/>
<path d="M1.70044 13.186L3.49415 14.0501L20.2702 0.200594H17.7516L1.70044 13.186Z" fill="#F50100"/>
<path d="M20.7816 12.1427L17.2607 13.6317L2.92011 2.61893L1.06294 0.406194L4.82798 -0.0914841L10.6772 4.65425L15.3852 7.85177L20.7816 12.1427Z" fill="white"/>
<path d="M20.6614 12.8914L18.8677 13.7556L11.7243 7.82588L9.60646 7.16337L0.884242 0.413769H3.40282L12.1201 7.00316L14.4356 7.79758L20.6614 12.8914Z" fill="#F50100"/>
<mask id="path-10-inside-1" fill="white">
<path fill-rule="evenodd" clip-rule="evenodd" d="M12.8889 0H9.11111V5H2.01377V9H9.11111V14H12.8889V9H20.0138V5H12.8889V0Z"/>
</mask>
<path fill-rule="evenodd" clip-rule="evenodd" d="M12.8889 0H9.11111V5H2.01377V9H9.11111V14H12.8889V9H20.0138V5H12.8889V0Z" fill="#F50100"/>
<path d="M9.11111 0V-1H8.11111V0H9.11111ZM12.8889 0H13.8889V-1H12.8889V0ZM9.11111 5V6H10.1111V5H9.11111ZM2.01377 5V4H1.01377V5H2.01377ZM2.01377 9H1.01377V10H2.01377V9ZM9.11111 9H10.1111V8H9.11111V9ZM9.11111 14H8.11111V15H9.11111V14ZM12.8889 14V15H13.8889V14H12.8889ZM12.8889 9V8H11.8889V9H12.8889ZM20.0138 9V10H21.0138V9H20.0138ZM20.0138 5H21.0138V4H20.0138V5ZM12.8889 5H11.8889V6H12.8889V5ZM9.11111 1H12.8889V-1H9.11111V1ZM10.1111 5V0H8.11111V5H10.1111ZM2.01377 6H9.11111V4H2.01377V6ZM3.01377 9V5H1.01377V9H3.01377ZM9.11111 8H2.01377V10H9.11111V8ZM10.1111 14V9H8.11111V14H10.1111ZM12.8889 13H9.11111V15H12.8889V13ZM11.8889 9V14H13.8889V9H11.8889ZM20.0138 8H12.8889V10H20.0138V8ZM19.0138 5V9H21.0138V5H19.0138ZM12.8889 6H20.0138V4H12.8889V6ZM11.8889 0V5H13.8889V0H11.8889Z" fill="white" mask="url(#path-10-inside-1)"/>
</g>
</g>
</g>
<rect x="3" y="1" width="16" height="12" fill="url(#paint0_linear)" style="mix-blend-mode:overlay"/>
</g>
<defs>
<filter id="filter0_d" x="0" y="0" width="22" height="18" filterUnits="userSpaceOnUse" color-interpolation-filters="sRGB">
<feFlood flood-opacity="0" result="BackgroundImageFix"/>
<feColorMatrix in="SourceAlpha" type="matrix" values="0 0 0 0 0 0 0 0 0 0 0 0 0 0 0 0 0 0 127 0" result="hardAlpha"/>
<feOffset dy="2"/>
<feGaussianBlur stdDeviation="1.5"/>
<feColorMatrix type="matrix" values="0 0 0 0 0 0 0 0 0 0 0 0 0 0 0 0 0 0 0.1 0"/>
<feBlend mode="normal" in2="BackgroundImageFix" result="effect1_dropShadow"/>
<feBlend mode="normal" in="SourceGraphic" in2="effect1_dropShadow" result="shape"/>
</filter>
<linearGradient id="paint0_linear" x1="11" y1="1" x2="11" y2="13" gradientUnits="userSpaceOnUse">
<stop stop-color="white" stop-opacity="0.7"/>
<stop offset="1" stop-opacity="0.3"/>
</linearGradient>
</defs>
</svg>
