<svg width="22" height="18" viewBox="0 0 22 18" fill="none" xmlns="http://www.w3.org/2000/svg">
<g filter="url(#filter0_d)">
<path fill-rule="evenodd" clip-rule="evenodd" d="M3 1V13H19V1H3Z" fill="#5DAA22"/>
<mask id="mask0" style="mask-type:alpha" maskUnits="userSpaceOnUse" x="3" y="1" width="16" height="12">
<path fill-rule="evenodd" clip-rule="evenodd" d="M3 1V13H19V1H3Z" fill="white"/>
</mask>
<g mask="url(#mask0)">
<path fill-rule="evenodd" clip-rule="evenodd" d="M3 1V7H19V1H3Z" fill="#F7FCFF"/>
<path fill-rule="evenodd" clip-rule="evenodd" d="M10.3459 5.45361C10.3369 5.16891 10.3283 4.89464 10.6797 4.56732C11.5962 3.75304 12.5286 3.11408 13.5702 2.5C13.3592 2.87603 13.2082 3.57499 13.7621 3.61935C13.9396 3.62216 15.8868 2.74845 15.8868 2.74845C15.2097 3.27534 14.4307 4.01069 15.3354 4.32882C14.5053 4.60435 13.8171 5.49928 14.4201 6.2201C13.9894 6.08933 13.424 6.3857 13.3222 6.71966C13.4283 6.71882 13.6156 6.73533 13.8448 6.75555C14.6744 6.82871 16.0536 6.95032 16.123 6.4732C15.6762 6.70593 14.9016 6.61101 14.8781 5.94309C14.8841 5.37033 15.6911 5.04827 16.3785 5.47742C16.4138 5.40028 16.4486 5.32302 16.4834 5.24577C16.5186 5.1675 16.5539 5.08922 16.5897 5.01107C16.3383 5.04423 15.9765 5.05931 15.7163 4.99447C16.2453 4.45935 17.0493 3.41504 17.5 2.82148C17.4008 3.56168 17.4635 5.24831 17.6358 5.59898C17.4267 5.5189 17.058 5.26413 16.943 5.01705L16.6987 5.82684C17.0928 6.67995 16.671 7.94524 16.4485 8.61282C16.3792 8.82071 16.3292 8.97064 16.3292 9.0321C16.1482 9.10471 16.0157 8.9917 15.8833 8.87872C15.8171 8.82224 15.751 8.76577 15.6787 8.7325C15.7925 9.04794 15.7117 9.54698 15.6411 9.98322C15.6146 10.1471 15.5895 10.302 15.5767 10.4351C15.5581 10.6275 15.6379 10.7628 15.6765 10.8283C15.6854 10.8434 15.6921 10.8547 15.6949 10.8623C15.8024 10.9066 16.0521 11.029 16.0694 11.0456C16.0694 11.0456 16.3785 11.0622 16.3585 11.395C16.2074 11.1995 16.0015 11.2615 16.0015 11.2615C15.9755 11.28 15.7417 11.2011 15.7417 11.2011C15.6247 11.1182 15.2914 11.0475 14.9454 11.0622C14.7197 11.0718 14.4472 11.1461 14.3971 11.1597C14.392 11.1611 14.3892 11.1619 14.389 11.1619C14.3838 11.1619 14.103 11.3618 14.103 11.3618C14.103 11.3618 14.0353 11.3452 14.0301 11.3452L14.0296 11.3452C14.0185 11.3451 13.8435 11.3433 13.6138 11.5C13.6459 11.3237 13.7655 11.1765 13.921 11.0901C14.0294 11.03 14.1579 11.0011 14.2389 10.983C14.2652 10.977 14.2866 10.9723 14.3005 10.9679C14.2067 10.9344 14.0293 10.8866 13.9042 10.8988C13.8716 10.902 13.8279 10.903 13.7785 10.9041C13.6014 10.908 13.3522 10.9136 13.2861 11.029C13.2815 10.8941 13.4175 10.741 13.5702 10.6683C13.6466 10.6319 13.7299 10.6211 13.7872 10.6137C13.8257 10.6087 13.8525 10.6053 13.8573 10.5965C13.8882 10.5401 13.7856 10.4501 13.7534 10.4219C13.7476 10.4168 13.7441 10.4137 13.7441 10.4132C13.7441 10.4076 13.5518 10.2838 13.4163 10.4245C13.4426 10.1302 13.8777 10.1261 13.921 10.1694C13.9635 10.2138 14.006 10.258 14.0484 10.3023C14.0909 10.3465 14.1334 10.3907 14.1758 10.4351C14.2151 10.4615 14.2543 10.488 14.2935 10.5145C14.334 10.5419 14.3746 10.5693 14.4151 10.5965C14.5468 10.6585 14.8873 10.6086 15.0591 10.4132C15.1598 10.2987 15.162 10.0846 15.1631 9.97612C15.1633 9.95765 15.1635 9.94225 15.1641 9.93092C15.1658 9.89896 15.1688 9.85725 15.1723 9.80899C15.189 9.57947 15.2165 9.20165 15.1641 9.01816C15.1405 8.93575 14.9468 8.94585 14.6976 8.95885C14.4472 8.9719 14.1409 8.98787 13.8948 8.91587C13.5066 8.80224 13.1151 8.57471 12.8779 8.4368C12.7583 8.36731 12.6779 8.32058 12.6568 8.32263C12.6424 8.34793 12.6113 8.37285 12.5753 8.40175C12.5175 8.44821 12.4469 8.50494 12.4119 8.59003C12.3248 8.80206 12.3416 9.10325 12.4119 9.18225C12.4119 9.18225 13.0234 9.18718 13.1601 9.26328C13.5025 9.45374 13.4815 9.73829 13.4708 9.88399C13.4695 9.90187 13.4683 9.91766 13.468 9.93092C13.3321 9.88746 13.0918 9.79606 12.9598 9.74583C12.9392 9.73798 12.9212 9.73114 12.9066 9.72564C12.5708 10.3033 12.0937 10.7079 11.4131 10.8955C11.4883 10.9333 11.6385 10.9677 11.7608 10.9957C11.8499 11.0161 11.9242 11.0331 11.944 11.0456C12.1464 11.091 12.2889 11.159 12.2873 11.3618C12.1519 11.2009 12.0201 11.205 11.9128 11.2841C11.7691 11.3484 11.666 11.276 11.5629 11.2036C11.5114 11.1674 11.4598 11.1312 11.4031 11.112C11.2591 11.0014 10.6871 11.0694 10.524 11.0901C10.3207 11.1117 10.0893 11.1666 9.98811 11.2894C9.93639 11.333 9.9085 11.2927 9.89613 11.2748C9.89251 11.2695 9.89022 11.2662 9.88904 11.2675C9.65518 11.1868 9.55134 11.4057 9.55134 11.4057C9.49591 11.1523 9.61576 11.0981 9.74325 11.0622L9.48341 10.9015C9.47802 10.8698 9.30464 10.8351 9.19182 10.9453C9.20223 10.7142 9.47003 10.5699 9.58248 10.6464C9.66355 10.5825 9.81102 10.5709 9.9202 10.6683C10.043 10.7673 10.2292 10.7804 10.352 10.7407C10.299 10.5844 10.1301 10.4919 10.0348 10.4856C10.006 10.4781 9.97549 10.4517 9.9405 10.4213C9.90363 10.3893 9.86179 10.353 9.81175 10.3302C9.68817 10.2737 9.53106 10.2726 9.45725 10.3302C9.50454 10.0442 10.0348 9.96413 10.2479 10.2969C10.3757 10.4364 10.5741 10.5085 10.7371 10.5354C11.0364 10.4993 11.3389 10.2479 11.5304 10.0887C11.6029 10.0284 11.6596 9.98129 11.6941 9.96413C11.6941 9.96413 11.1498 9.40411 10.7371 9.11514C10.3518 8.84538 9.24879 9.36928 9.09955 9.44017C9.08892 9.44522 9.08312 9.44797 9.08278 9.44797C9.05642 9.69924 8.86868 9.93092 8.86868 9.93092C8.83826 9.84939 8.79934 9.77407 8.76153 9.70092C8.6871 9.55692 8.61702 9.42132 8.62481 9.26328C8.4234 9.54237 8.27758 9.69162 8.13211 9.84049C8.05778 9.91657 7.98354 9.99254 7.90203 10.0857C7.70677 10.2997 7.60678 10.5513 7.53815 10.8291C7.68372 10.918 8.08958 10.9958 8.08958 10.9958C8.26713 10.9995 8.39787 11.104 8.39613 11.3007C8.23776 11.1263 8.07899 11.2343 8.07899 11.2343C7.94901 11.3493 7.78382 11.2974 7.626 11.2343C7.48914 11.0785 6.82746 11.0304 6.51319 11.2177C6.28943 11.4347 5.97835 11.4545 5.89383 11.3226C5.89383 11.3226 5.75364 11.3173 5.50878 11.4057C5.57144 11.0011 5.80536 11.112 5.80536 11.112C5.80364 11.0908 5.8045 11.0765 5.80537 11.0623C5.80623 11.048 5.8071 11.0337 5.80536 11.0124L5.71688 10.9792C5.55904 10.9049 5.36332 10.9232 5.27512 11.0011C5.33543 10.736 5.56634 10.7345 5.73807 10.7626C5.76066 10.7359 5.77575 10.688 5.78962 10.644C5.79493 10.6271 5.80006 10.6109 5.80536 10.5965C5.79727 10.5879 5.78909 10.579 5.78082 10.5699C5.69162 10.4726 5.59204 10.3639 5.48245 10.4608C5.58744 10.0065 6.10887 10.3543 6.29001 10.4751C6.30693 10.4864 6.32088 10.4957 6.33125 10.5022C6.70075 10.6344 7.66311 9.12362 7.71012 9.01816C7.43605 9.00504 7.12869 9.03546 6.91383 9.11514C6.85293 9.31352 6.7447 9.41772 6.61758 9.5401C6.59655 9.56035 6.575 9.58109 6.55306 9.60284C6.55637 9.03236 6.30307 8.74445 5.93975 8.3315C5.91958 8.30858 5.89908 8.28527 5.87826 8.26151C5.42406 7.94426 5.22315 7.30506 5.18663 7.09633C5.11706 7.29106 5.06568 7.35021 5.05047 7.36773C5.04742 7.37124 5.04582 7.37308 5.04582 7.374C4.94485 7.49088 4.63571 7.45875 4.70527 7.4126C4.7485 7.40369 4.95235 7.07971 4.95235 7.07971L5.04084 6.20948C4.97508 6.18036 4.9252 6.05109 4.86507 5.89528C4.84557 5.84475 4.825 5.79144 4.80245 5.73783C4.70534 5.50695 4.5758 5.2713 4.5 5.24957C4.64389 5.22295 4.83338 5.22046 4.95235 5.36394C5.05774 5.49103 5.09534 5.58931 5.12743 5.67316C5.14529 5.71983 5.16144 5.76204 5.18663 5.80226C5.13688 5.67493 5.17389 5.58712 5.23249 5.44813C5.2566 5.39094 5.28437 5.32509 5.31124 5.24425C5.31127 5.2313 5.3114 5.21884 5.31152 5.20682C5.31282 5.07972 5.31361 5.002 5.18663 4.92273C5.44103 4.91629 5.50854 5.11376 5.52864 5.17253C5.53164 5.18132 5.53359 5.187 5.53494 5.18845C5.64589 5.34244 5.60006 5.46829 5.56331 5.56919C5.53895 5.63606 5.51859 5.69196 5.55051 5.73783C5.56957 5.72244 5.58557 5.70043 5.60159 5.67841C5.63366 5.63432 5.66577 5.59017 5.7225 5.59898C5.79368 5.51595 5.84751 5.4259 5.84213 5.23894C6.0213 5.3479 5.97757 5.50819 5.92001 5.66541C5.93068 5.90063 5.89965 5.96502 5.75364 6.04805C5.60741 6.14084 5.57984 6.21783 5.59724 6.33105C5.62848 6.36664 5.64982 6.44208 5.67734 6.53934C5.7211 6.69398 5.78046 6.90378 5.92001 7.09633C6.12619 7.38081 6.45621 7.64129 6.62649 7.77569C6.68051 7.81833 6.71845 7.84828 6.73125 7.86227C6.75274 7.82753 6.84047 7.75457 6.92377 7.6853C6.97395 7.64357 7.02252 7.60318 7.05402 7.57329C6.95095 7.48803 7.02095 6.71983 7.22939 6.02008C7.42923 5.34918 7.76437 4.74405 7.82914 4.73407C7.82914 4.7285 7.74065 4.51218 7.74065 4.51218C7.74065 4.51218 7.31723 4.57978 7.24156 4.99447C7.18935 4.90825 7.1375 4.77856 7.1375 4.77856C7.1375 4.77856 6.76888 5.26064 6.76365 5.24957C6.66028 5.18266 6.61948 4.90614 6.58911 4.70028C6.57654 4.6151 6.56576 4.54201 6.55306 4.50089C6.35436 4.49164 6.20556 4.48248 6.05672 4.4733C5.90813 4.46415 5.7595 4.45499 5.56112 4.44575C5.56112 4.44575 5.59724 4.75622 5.59724 4.75067C5.4563 4.75347 4.5 3.91511 4.56161 3.27525C4.91438 3.57062 5.46292 3.92066 5.86269 4.00731C5.81016 4.03485 5.75768 4.06248 5.70519 4.09011C5.65199 4.11812 5.59878 4.14613 5.54552 4.17405C6.64199 4.27424 7.77704 4.05737 7.77181 4.05182C7.64915 3.77912 7.24655 3.78012 7.24655 3.78012L7.22939 4.00731C7.22939 4.00731 6.72879 4.0346 6.72627 4.02922C6.67535 3.75186 6.42968 3.7469 6.42968 3.7469C6.23736 3.72051 6.07336 3.74072 5.90929 3.76095C5.82744 3.77104 5.74558 3.78113 5.66017 3.78543C5.97913 3.35886 6.39892 3.327 6.82006 3.29504C6.89654 3.28923 6.97306 3.28342 7.04904 3.27525C7.08507 3.05113 7.26968 2.98581 7.48581 2.95373C7.48581 2.95373 8.49997 3.00886 8.50518 3.00886C8.63567 2.82518 9.53014 2.5 9.74325 2.5C9.71023 2.75178 9.27112 3.18859 9.15318 3.26993C9.03362 3.46303 9.04402 3.48276 9.08963 3.56922C9.0941 3.57769 9.0989 3.5868 9.10395 3.59677C9.1239 3.63376 9.1359 3.65281 9.1479 3.67186C9.15989 3.6909 9.17189 3.70994 9.19182 3.7469C9.38561 3.67073 9.68071 4.03248 9.72633 4.17405C9.50753 4.1461 9.24063 4.13349 9.24414 4.23451C9.24706 4.28482 9.32398 4.31637 9.39439 4.34524C9.42808 4.35906 9.46028 4.37227 9.48217 4.38663C9.6078 4.51218 9.64934 4.62304 9.6554 4.77856C9.60164 4.77548 9.54237 4.74488 9.48309 4.71427C9.36453 4.65306 9.24592 4.59182 9.17125 4.75067C9.11779 4.86722 9.16013 4.94165 9.30014 4.99447C9.55691 5.06949 9.72633 5.3546 9.72633 5.51595C9.72633 5.5948 9.60758 5.53341 9.46956 5.46206C9.32516 5.38741 9.15968 5.30187 9.08704 5.3546C9.00024 5.41762 9.05579 5.73778 9.08191 5.88836C9.087 5.91771 9.09097 5.94062 9.09256 5.95392C9.12118 6.19429 9.15892 6.44449 9.17623 6.4978C9.33725 6.46308 9.49835 6.42826 9.65946 6.39344C9.82449 6.35777 9.98952 6.3221 10.1545 6.28654C10.2969 6.14811 10.3612 5.91835 10.347 5.67138C10.3504 5.59746 10.3482 5.52521 10.3459 5.45361ZM16.085 6.02679C15.9357 5.85798 15.7827 5.80039 15.6551 5.80226C15.4685 5.80496 15.3359 5.93544 15.3485 6.0341C15.3903 6.36047 16.0132 6.24725 16.085 6.02679Z" fill="#D21034"/>
</g>
<rect x="3" y="1" width="16" height="12" fill="url(#paint0_linear)" style="mix-blend-mode:overlay"/>
</g>
<defs>
<filter id="filter0_d" x="0" y="0" width="22" height="18" filterUnits="userSpaceOnUse" color-interpolation-filters="sRGB">
<feFlood flood-opacity="0" result="BackgroundImageFix"/>
<feColorMatrix in="SourceAlpha" type="matrix" values="0 0 0 0 0 0 0 0 0 0 0 0 0 0 0 0 0 0 127 0" result="hardAlpha"/>
<feOffset dy="2"/>
<feGaussianBlur stdDeviation="1.5"/>
<feColorMatrix type="matrix" values="0 0 0 0 0 0 0 0 0 0 0 0 0 0 0 0 0 0 0.1 0"/>
<feBlend mode="normal" in2="BackgroundImageFix" result="effect1_dropShadow"/>
<feBlend mode="normal" in="SourceGraphic" in2="effect1_dropShadow" result="shape"/>
</filter>
<linearGradient id="paint0_linear" x1="11" y1="1" x2="11" y2="13" gradientUnits="userSpaceOnUse">
<stop stop-color="white" stop-opacity="0.7"/>
<stop offset="1" stop-opacity="0.3"/>
</linearGradient>
</defs>
</svg>
