<svg width="22" height="18" viewBox="0 0 22 18" fill="none" xmlns="http://www.w3.org/2000/svg">
<g filter="url(#filter0_d)">
<mask id="mask0" style="mask-type:alpha" maskUnits="userSpaceOnUse" x="3" y="1" width="16" height="12">
<rect x="3" y="1" width="16" height="12" fill="white"/>
</mask>
<g mask="url(#mask0)">
<path fill-rule="evenodd" clip-rule="evenodd" d="M3 1V13H19V1H3Z" fill="#F7FCFF"/>
<mask id="mask1" style="mask-type:alpha" maskUnits="userSpaceOnUse" x="3" y="1" width="16" height="12">
<path fill-rule="evenodd" clip-rule="evenodd" d="M3 1V13H19V1H3Z" fill="white"/>
</mask>
<g mask="url(#mask1)">
<path fill-rule="evenodd" clip-rule="evenodd" d="M10 1H12V6H19V8H12V13H10V8H3V6H10V1Z" fill="#E31D1C"/>
<path fill-rule="evenodd" clip-rule="evenodd" d="M7.99934 9.61098L9.1 9.5V10.5C9.1 10.5 7.99934 10.4311 7.99934 10.451C7.99934 10.4709 8.1 11.5 8.1 11.5H7.1L7.18011 10.5H6.1V9.5L7.18011 9.61098L7.1 8.5H8.1L7.99934 9.61098Z" fill="#E31D1C"/>
<path fill-rule="evenodd" clip-rule="evenodd" d="M7.99934 3.61098L9.1 3.5V4.5C9.1 4.5 7.99934 4.43108 7.99934 4.45098C7.99934 4.47088 8.1 5.5 8.1 5.5H7.1L7.18011 4.5H6.1V3.5L7.18011 3.61098L7.1 2.5H8.1L7.99934 3.61098Z" fill="#E31D1C"/>
<path fill-rule="evenodd" clip-rule="evenodd" d="M14.9993 3.61098L16.1 3.5V4.5C16.1 4.5 14.9993 4.43108 14.9993 4.45098C14.9993 4.47088 15.1 5.5 15.1 5.5H14.1L14.1801 4.5H13.1V3.5L14.1801 3.61098L14.1 2.5H15.1L14.9993 3.61098Z" fill="#E31D1C"/>
<path fill-rule="evenodd" clip-rule="evenodd" d="M14.9993 9.61098L16.1 9.5V10.5C16.1 10.5 14.9993 10.4311 14.9993 10.451C14.9993 10.4709 15.1 11.5 15.1 11.5H14.1L14.1801 10.5H13.1V9.5L14.1801 9.61098L14.1 8.5H15.1L14.9993 9.61098Z" fill="#E31D1C"/>
</g>
</g>
<rect x="3" y="1" width="16" height="12" fill="url(#paint0_linear)" style="mix-blend-mode:overlay"/>
</g>
<defs>
<filter id="filter0_d" x="0" y="0" width="22" height="18" filterUnits="userSpaceOnUse" color-interpolation-filters="sRGB">
<feFlood flood-opacity="0" result="BackgroundImageFix"/>
<feColorMatrix in="SourceAlpha" type="matrix" values="0 0 0 0 0 0 0 0 0 0 0 0 0 0 0 0 0 0 127 0" result="hardAlpha"/>
<feOffset dy="2"/>
<feGaussianBlur stdDeviation="1.5"/>
<feColorMatrix type="matrix" values="0 0 0 0 0 0 0 0 0 0 0 0 0 0 0 0 0 0 0.1 0"/>
<feBlend mode="normal" in2="BackgroundImageFix" result="effect1_dropShadow"/>
<feBlend mode="normal" in="SourceGraphic" in2="effect1_dropShadow" result="shape"/>
</filter>
<linearGradient id="paint0_linear" x1="11" y1="1" x2="11" y2="13" gradientUnits="userSpaceOnUse">
<stop stop-color="white" stop-opacity="0.7"/>
<stop offset="1" stop-opacity="0.3"/>
</linearGradient>
</defs>
</svg>
