<svg width="22" height="18" viewBox="0 0 22 18" fill="none" xmlns="http://www.w3.org/2000/svg">
<g filter="url(#filter0_d)">
<path d="M3 1V5H19V1L3 1Z" fill="#002488"/>
<path d="M3.00034 5V13H19.0003V5L3.00034 5Z" fill="#DA121A"/>
<path d="M5.7742 1.5667C5.58158 1.88435 5.5586 2.13844 5.69006 2.57719C5.75336 2.78194 5.82289 3.0877 5.85211 3.25345C5.89106 3.48745 5.88698 3.50969 5.89245 3.56057C5.94114 3.56057 6.05179 3.56076 6.10296 3.56045C6.11031 3.47944 6.11626 3.38593 6.13354 3.25734C6.15368 3.10742 6.21341 2.79385 6.27766 2.57606C6.40604 2.14084 6.39744 1.87382 6.19781 1.57157C6.12477 1.45945 6.02739 1.36682 5.98357 1.36682C5.93975 1.36682 5.84061 1.45243 5.7742 1.5667Z" fill="#FCDD09"/>
<path d="M6.19391 3.35271C6.17737 3.43652 6.17334 3.46611 6.16504 3.56058C6.22406 3.56082 6.24725 3.56122 6.30479 3.56087C6.31738 3.49733 6.32645 3.46378 6.35421 3.37358C6.46424 3.02472 6.78833 2.88471 6.77372 3.21133C6.76885 3.30152 6.73084 3.35188 6.68852 3.40023C6.74083 3.38717 6.85192 3.33526 6.942 3.28407C7.44352 2.98182 7.24602 2.24121 6.72016 2.46546C6.44749 2.58246 6.2835 2.90635 6.19391 3.35271Z" fill="#FCDD09"/>
<path d="M5.60596 3.71152C5.82602 3.71311 6.20634 3.71596 6.38901 3.71437C6.38923 3.63813 6.38991 3.67704 6.39036 3.61542C6.25587 3.6136 5.7409 3.61661 5.607 3.61661C5.60731 3.65647 5.60669 3.67577 5.60596 3.71152L5.60596 3.71152Z" fill="#FCDD09"/>
<path d="M5.46744 4.08202C5.46744 4.08202 5.57706 4.09436 5.67929 4.08689C5.78152 4.07943 5.83824 4.06666 5.89866 4.03727C5.88225 4.15924 5.88131 4.27702 5.88131 4.27702C5.89618 4.43398 5.913 4.47415 5.947 4.55054C5.99312 4.61427 6.01995 4.61462 6.05386 4.54733C6.09051 4.47199 6.11463 4.3945 6.12229 4.27629C6.11963 4.18769 6.11468 4.14709 6.09372 4.03879C6.16445 4.06944 6.20913 4.07738 6.31466 4.08689C6.42265 4.09663 6.5219 4.09186 6.5219 4.09186C6.5219 4.09186 6.37603 4.01856 6.31183 3.92867C6.24846 3.83994 6.26197 3.85503 6.21589 3.74072C6.1599 3.73807 5.876 3.74068 5.78592 3.74068C5.73658 3.84489 5.73162 3.86665 5.67068 3.93241C5.59136 4.01802 5.46744 4.08202 5.46744 4.08202Z" fill="#FCDD09"/>
<path d="M5.26982 2.46531C5.54249 2.58231 5.70649 2.9062 5.79607 3.35256C5.81262 3.43637 5.81665 3.46596 5.82495 3.56042C5.76593 3.56066 5.74273 3.56107 5.6852 3.56072C5.67261 3.49717 5.66354 3.46362 5.63578 3.37342C5.52574 3.02457 5.20166 2.88456 5.21626 3.21118C5.22113 3.30137 5.25915 3.35173 5.30147 3.40007C5.24916 3.38702 5.13806 3.33511 5.04798 3.28392C4.54647 2.98167 4.74396 2.24106 5.26982 2.46531V2.46531Z" fill="#FCDD09"/>
<path d="M10.8142 1.5667C10.6216 1.88435 10.5986 2.13844 10.7301 2.57719C10.7934 2.78194 10.8629 3.0877 10.8921 3.25345C10.9311 3.48745 10.927 3.50969 10.9325 3.56057C10.9811 3.56057 11.0918 3.56076 11.143 3.56045C11.1503 3.47944 11.1563 3.38593 11.1735 3.25734C11.1937 3.10742 11.2534 2.79385 11.3177 2.57606C11.446 2.14084 11.4375 1.87382 11.2378 1.57157C11.1648 1.45945 11.0674 1.36682 11.0236 1.36682C10.9798 1.36682 10.8806 1.45243 10.8142 1.5667Z" fill="#FCDD09"/>
<path d="M11.7602 2.46546C11.4875 2.58246 11.3235 2.90635 11.2339 3.35271C11.2174 3.43652 11.2133 3.46611 11.205 3.56058C11.2641 3.56082 11.2873 3.56122 11.3448 3.56087C11.3574 3.49733 11.3665 3.46378 11.3942 3.37358C11.5043 3.02472 11.8283 2.88471 11.8137 3.21133C11.8089 3.30152 11.7708 3.35188 11.7285 3.40023C11.7808 3.38717 11.8919 3.33526 11.982 3.28407C12.4835 2.98182 12.286 2.24121 11.7602 2.46546V2.46546Z" fill="#FCDD09"/>
<path d="M10.646 3.71152C10.866 3.71311 11.2463 3.71596 11.429 3.71437C11.4292 3.63813 11.4299 3.67704 11.4304 3.61542C11.2959 3.6136 10.7809 3.61661 10.647 3.61661C10.6473 3.65647 10.6467 3.67577 10.646 3.71152L10.646 3.71152Z" fill="#FCDD09"/>
<path d="M10.7107 3.93241C10.6314 4.01802 10.5074 4.08202 10.5074 4.08202C10.5074 4.08202 10.6171 4.09436 10.7193 4.08689C10.8215 4.07943 10.8782 4.06666 10.9387 4.03727C10.9223 4.15924 10.9213 4.27702 10.9213 4.27702C10.9362 4.43398 10.953 4.47415 10.987 4.55054C11.0331 4.61427 11.06 4.61462 11.0939 4.54733C11.1305 4.47199 11.1546 4.3945 11.1623 4.27629C11.1596 4.18769 11.1547 4.14709 11.1337 4.03879C11.2045 4.06944 11.2491 4.07738 11.3547 4.08689C11.4627 4.09663 11.5619 4.09186 11.5619 4.09186C11.5619 4.09186 11.416 4.01856 11.3518 3.92867C11.2885 3.83994 11.302 3.85503 11.2559 3.74072C11.1999 3.73807 10.916 3.74068 10.8259 3.74068C10.7766 3.84489 10.7716 3.86665 10.7107 3.93241V3.93241Z" fill="#FCDD09"/>
<path d="M10.3098 2.46531C10.5825 2.58231 10.7465 2.9062 10.8361 3.35256C10.8526 3.43637 10.8567 3.46596 10.865 3.56042C10.8059 3.56066 10.7827 3.56107 10.7252 3.56072C10.7126 3.49717 10.7035 3.46362 10.6758 3.37342C10.5658 3.02457 10.2417 2.88456 10.2563 3.21118C10.2611 3.30137 10.2992 3.35173 10.3415 3.40007C10.2892 3.38702 10.1781 3.33511 10.088 3.28392C9.58648 2.98167 9.78397 2.24106 10.3098 2.46531V2.46531Z" fill="#FCDD09"/>
<path d="M15.8542 1.5667C15.6616 1.88435 15.6386 2.13844 15.77 2.57719C15.8333 2.78194 15.9029 3.0877 15.9321 3.25345C15.971 3.48745 15.967 3.50969 15.9724 3.56057C16.0211 3.56057 16.1318 3.56076 16.1829 3.56045C16.1903 3.47944 16.1962 3.38593 16.2135 3.25734C16.2337 3.10742 16.2934 2.79385 16.3576 2.57606C16.486 2.14084 16.4774 1.87382 16.2778 1.57157C16.2048 1.45945 16.1074 1.36682 16.0636 1.36682C16.0197 1.36682 15.9206 1.45243 15.8542 1.5667Z" fill="#FCDD09"/>
<path d="M16.8001 2.46546C16.5275 2.58246 16.3635 2.90635 16.2739 3.35271C16.2574 3.43652 16.2533 3.46611 16.245 3.56058C16.304 3.56082 16.3272 3.56122 16.3848 3.56087C16.3974 3.49733 16.4064 3.46378 16.4342 3.37358C16.5442 3.02472 16.8683 2.88471 16.8537 3.21133C16.8488 3.30152 16.8108 3.35188 16.7685 3.40023C16.8208 3.38717 16.9319 3.33526 17.022 3.28407C17.5235 2.98182 17.326 2.24121 16.8001 2.46546V2.46546Z" fill="#FCDD09"/>
<path d="M15.6859 3.71152C15.906 3.71311 16.2863 3.71596 16.469 3.71437C16.4692 3.63813 16.4699 3.67704 16.4703 3.61542C16.3359 3.6136 15.8209 3.61661 15.687 3.61661C15.6873 3.65647 15.6867 3.67577 15.6859 3.71152L15.6859 3.71152Z" fill="#FCDD09"/>
<path d="M15.7507 3.93241C15.6713 4.01802 15.5474 4.08202 15.5474 4.08202C15.5474 4.08202 15.657 4.09436 15.7593 4.08689C15.8615 4.07943 15.9182 4.06666 15.9786 4.03727C15.9622 4.15924 15.9613 4.27702 15.9613 4.27702C15.9762 4.43398 15.993 4.47415 16.027 4.55054C16.0731 4.61427 16.0999 4.61462 16.1338 4.54733C16.1705 4.47199 16.1946 4.3945 16.2023 4.27629C16.1996 4.18769 16.1947 4.14709 16.1737 4.03879C16.2444 4.06944 16.2891 4.07738 16.3946 4.08689C16.5026 4.09663 16.6019 4.09186 16.6019 4.09186C16.6019 4.09186 16.456 4.01856 16.3918 3.92867C16.3284 3.83994 16.342 3.85503 16.2959 3.74072C16.2399 3.73807 15.956 3.74068 15.8659 3.74068C15.8166 3.84489 15.8116 3.86665 15.7507 3.93241V3.93241Z" fill="#FCDD09"/>
<path d="M15.3498 2.46531C15.6225 2.58231 15.7865 2.9062 15.8761 3.35256C15.8926 3.43637 15.8966 3.46596 15.9049 3.56042C15.8459 3.56066 15.8227 3.56107 15.7652 3.56072C15.7526 3.49717 15.7435 3.46362 15.7158 3.37342C15.6057 3.02457 15.2816 2.88456 15.2962 3.21118C15.3011 3.30137 15.3391 3.35173 15.3815 3.40007C15.3291 3.38702 15.218 3.33511 15.128 3.28392C14.6265 2.98167 14.8239 2.24106 15.3498 2.46531V2.46531Z" fill="#FCDD09"/>
<path d="M8.69458 7.61669C8.8003 7.66604 8.93529 7.70492 9.00336 7.70722C9.08381 7.70993 9.06246 7.69014 8.9123 7.63166C8.79477 7.58573 8.6542 7.5085 8.5918 7.46062C8.47994 7.3691 8.47994 7.3691 8.49167 7.44961C8.49836 7.49562 8.58268 7.56714 8.69458 7.61669Z" fill="#008000"/>
<path d="M6.25702 7.47411C6.17424 7.53749 6.17911 7.54236 6.35927 7.51311C6.46639 7.49849 6.6222 7.46924 6.7001 7.44974C6.8267 7.41561 6.81696 7.41074 6.59785 7.40586C6.45178 7.40099 6.31544 7.43024 6.25702 7.47411Z" fill="#008000"/>
<path d="M5.04737 6.96154C5.85076 7.10779 7.46243 7.64892 7.36505 7.74154C7.34071 7.76592 6.88788 7.65379 6.82458 7.60992C6.80024 7.58554 6.56165 7.59529 6.29872 7.62942C5.80694 7.68304 5.72417 7.72692 5.73391 7.92679C5.73878 8.02429 5.73878 8.02429 5.76312 7.92679C5.80694 7.74642 5.87998 7.70742 6.15752 7.70742C6.4594 7.70742 7.28715 7.82929 7.65233 7.92679C8.13924 8.06329 8.15384 8.06329 7.99316 7.97554C7.78379 7.85854 7.4673 7.64404 7.40887 7.58067C7.30175 7.45879 5.35899 6.92254 5.07658 6.93229C4.94511 6.94204 4.94025 6.94204 5.04737 6.96154Z" fill="#008000"/>
<path d="M7.89857 7.52214C7.93752 7.59039 8.31731 7.78051 8.34653 7.75126C8.36113 7.73664 8.31731 7.69764 8.25888 7.66351C8.19558 7.62939 8.11281 7.57576 8.07873 7.53676C8.00082 7.46364 7.85475 7.44901 7.89857 7.52214Z" fill="#008000"/>
<path d="M7.92787 7.98533C7.96682 8.05358 8.34661 8.24371 8.37582 8.21446C8.39043 8.19983 8.34661 8.16083 8.28818 8.12671C8.22488 8.09258 8.14211 8.03896 8.10802 7.99996C8.03012 7.92683 7.88405 7.91221 7.92787 7.98533Z" fill="#008000"/>
<path d="M7.38352 7.40486C7.39052 7.39809 7.50008 7.43448 7.63005 7.48502C7.76003 7.53556 7.92792 7.58332 8.00015 7.58803C8.12746 7.5937 8.57826 7.80844 8.57392 7.86007C8.57308 7.90833 7.89145 7.6999 7.65253 7.5785C7.36576 7.43558 7.359 7.42857 7.38352 7.40486Z" fill="#008000"/>
<path d="M8.19001 7.76115C8.09917 7.7963 8.00783 7.85987 7.97944 7.90535C7.9459 7.95909 7.97429 7.95961 8.09144 7.90068C8.18331 7.85469 8.31595 7.81695 8.38872 7.81074C8.52498 7.80401 8.52498 7.80401 8.43826 7.74976C8.38871 7.71876 8.28342 7.72187 8.19001 7.76115Z" fill="#008000"/>
<path d="M5.9113 6.11817C6.06225 6.40579 6.67575 7.06879 7.01659 7.32229C7.1091 7.39054 7.27465 7.45879 7.3769 7.47342L7.5668 7.50267L7.42559 7.34667C7.19674 7.09804 6.84617 6.62029 6.73418 6.41067C6.61245 6.18154 6.59785 6.24004 6.7001 6.53254C6.73905 6.64954 6.89486 6.88354 7.0458 7.04929C7.19674 7.21992 7.29413 7.36129 7.26978 7.36129C7.20648 7.36129 6.79748 6.87867 6.50533 6.45942C6.18884 6.00117 6.17424 5.98654 6.26188 6.24004C6.3057 6.36192 6.40308 6.54229 6.48586 6.63979C6.56376 6.74217 6.61245 6.82504 6.58811 6.82504C6.53942 6.82504 6.32518 6.58129 6.05738 6.23029C5.98434 6.12792 5.88209 5.99629 5.83827 5.93779C5.78958 5.87442 5.82366 5.95729 5.9113 6.11817Z" fill="#008000"/>
<path d="M13.2741 9.88287C13.4323 9.95147 14.2526 10.1586 14.833 10.3288C15.4134 10.499 16.092 10.6949 16.2422 10.716C16.4569 10.2474 16.0662 11.1238 16.2892 10.5927C15.9993 10.5188 14.8567 10.2496 14.3982 10.1177C14.0029 10.0069 13.4421 9.83404 13.2985 9.80238C13.1549 9.77072 13.1529 9.8301 13.2741 9.88287Z" fill="#008000"/>
<path d="M13.3744 9.76123C13.5349 9.82426 14.3619 10.0026 14.9479 10.1524C15.5339 10.3022 16.2189 10.4743 16.3697 10.4901C16.568 10.0144 16.208 10.9039 16.4124 10.3652C16.1201 10.3015 14.9688 10.0725 14.506 9.95665C14.1071 9.85972 13.5406 9.70656 13.396 9.67993C13.2514 9.65331 13.2515 9.71273 13.3744 9.76123Z" fill="#008000"/>
<path d="M13.1473 9.97126C13.3016 10.0481 14.11 10.2979 14.6807 10.4982C15.2514 10.6986 15.9189 10.9298 16.0678 10.9588C16.3067 10.5021 15.8707 11.3568 16.1211 10.8381C15.8355 10.7491 14.7085 10.4204 14.2575 10.2647C13.8686 10.1333 13.3176 9.9313 13.1759 9.89216C13.0341 9.85301 13.029 9.91221 13.1473 9.97126Z" fill="#008000"/>
<path d="M13.0489 10.0711C13.199 10.1558 13.9932 10.4477 14.5526 10.6777C15.1121 10.9077 15.7665 11.1735 15.9137 11.2102C16.1761 10.7668 15.6961 11.5974 15.9733 11.0925C15.6927 10.9887 14.5845 10.6015 14.1422 10.4223C13.7607 10.2707 13.221 10.0401 13.0815 9.99358C12.942 9.94706 12.9338 10.0059 13.0489 10.0711Z" fill="#008000"/>
<path d="M12.9561 10.1968C13.1032 10.2868 13.8867 10.6062 14.4378 10.8556C14.9889 11.105 15.6337 11.3936 15.7795 11.4354C16.0572 11.0013 15.5485 11.8147 15.8431 11.3198C15.5664 11.2063 14.4723 10.7805 14.0366 10.586C13.6605 10.4212 13.1293 10.1719 12.9914 10.1205C12.8536 10.0691 12.8434 10.1277 12.9561 10.1968Z" fill="#008000"/>
<path d="M11.3136 11.4605C11.5397 11.6182 11.7875 11.583 11.6917 11.3673L11.6357 11.2416L11.8134 11.319C12.0672 11.4262 12.3024 11.3402 12.1638 11.1492L12.083 11.0378L12.2728 11.0765C12.5434 11.1285 12.7556 10.9955 12.5803 10.8375L12.4781 10.7453L12.6719 10.7438C12.9474 10.7383 13.1273 10.5641 12.9231 10.446L12.8039 10.3772L12.9932 10.3353C13.2615 10.2726 13.4012 10.0646 13.177 9.99168L13.0461 9.94919L13.2225 9.86883C13.4719 9.75164 13.5655 9.51914 13.331 9.49448L13.1942 9.48013L13.3501 9.36478C13.5697 9.19828 13.6129 8.95133 13.3784 8.97605L13.2417 8.99041L13.3701 8.84515C13.5504 8.63656 13.5414 8.38608 13.3171 8.45903L13.1863 8.50155L13.2818 8.33277C13.4148 8.0912 13.354 7.84809 13.1498 7.96608L13.0306 8.03494L13.089 7.84994C13.169 7.58599 13.059 7.36077 12.8838 7.51875L12.7815 7.61092L12.8002 7.41783C12.8236 7.14293 12.6693 6.94557 12.5307 7.13657L12.4498 7.24801L12.428 7.05522C12.3938 6.78156 12.2019 6.62056 12.106 6.83625L12.05 6.96211L11.9886 6.77805C11.8983 6.51748 11.6772 6.39996 11.6281 6.63089L11.5995 6.76563L11.5013 6.59843C11.3588 6.36227 11.1181 6.29347 11.1181 6.52953V6.66723L10.9873 6.52412C10.7989 6.32289 10.5491 6.30558 10.5981 6.53657L10.6267 6.67125L10.469 6.55849C10.2429 6.40082 9.99506 6.43592 10.0909 6.65161L10.1469 6.77747L9.96921 6.7C9.71534 6.59283 9.48014 6.67882 9.6188 6.86982L9.69962 6.9812L9.50977 6.9424C9.2392 6.89041 9.02703 7.02347 9.20226 7.18142L9.30448 7.27358L9.1107 7.27515C8.83525 7.28062 8.65532 7.45493 8.85954 7.57298L8.97864 7.64184L8.78944 7.68368C8.52114 7.74637 8.38137 7.95431 8.60564 8.02726L8.73647 8.06983L8.56007 8.15016C8.31066 8.26738 8.21707 8.49979 8.45159 8.52448L8.58838 8.5389L8.43253 8.65418C8.21289 8.82074 8.16963 9.06763 8.40415 9.04294L8.54094 9.02859L8.41244 9.17378C8.23221 9.38243 8.2412 9.63292 8.46547 9.55996L8.5963 9.51742L8.50078 9.68625C8.3678 9.92779 8.4286 10.1709 8.63281 10.0529L8.75195 9.98399L8.69358 10.169C8.61365 10.433 8.72361 10.6582 8.89884 10.5002L9.00105 10.408L8.98236 10.6012C8.95902 10.876 9.11331 11.0734 9.25191 10.8824L9.33276 10.771L9.35459 10.9638C9.38883 11.2375 9.58073 11.3984 9.67665 11.1827L9.73257 11.0569L9.79394 11.2409C9.88428 11.5015 10.1054 11.619 10.1544 11.388L10.183 11.2534L10.2813 11.4206C10.4238 11.6567 10.6645 11.7256 10.6645 11.4895V11.3517L10.7953 11.4949C10.9837 11.6961 11.2334 11.7134 11.1844 11.4825L11.1559 11.3478L11.3136 11.4605Z" fill="#FCDD09"/>
<rect x="3" y="1" width="16" height="12" fill="url(#paint0_linear)" style="mix-blend-mode:overlay"/>
</g>
<defs>
<filter id="filter0_d" x="0" y="0" width="22" height="18" filterUnits="userSpaceOnUse" color-interpolation-filters="sRGB">
<feFlood flood-opacity="0" result="BackgroundImageFix"/>
<feColorMatrix in="SourceAlpha" type="matrix" values="0 0 0 0 0 0 0 0 0 0 0 0 0 0 0 0 0 0 127 0" result="hardAlpha"/>
<feOffset dy="2"/>
<feGaussianBlur stdDeviation="1.5"/>
<feColorMatrix type="matrix" values="0 0 0 0 0 0 0 0 0 0 0 0 0 0 0 0 0 0 0.1 0"/>
<feBlend mode="normal" in2="BackgroundImageFix" result="effect1_dropShadow"/>
<feBlend mode="normal" in="SourceGraphic" in2="effect1_dropShadow" result="shape"/>
</filter>
<linearGradient id="paint0_linear" x1="11" y1="1" x2="11" y2="13" gradientUnits="userSpaceOnUse">
<stop stop-color="white" stop-opacity="0.7"/>
<stop offset="1" stop-opacity="0.3"/>
</linearGradient>
</defs>
</svg>
