<svg width="22" height="18" viewBox="0 0 22 18" fill="none" xmlns="http://www.w3.org/2000/svg">
<g filter="url(#filter0_d)">
<mask id="mask0" style="mask-type:alpha" maskUnits="userSpaceOnUse" x="3" y="1" width="16" height="12">
<rect x="3" y="1" width="16" height="12" fill="white"/>
</mask>
<g mask="url(#mask0)">
<path fill-rule="evenodd" clip-rule="evenodd" d="M3 1H19V13H3V1Z" fill="#F7FCFF"/>
<rect x="3.01361" y="3.75" width="16" height="1.5" fill="#4564F9"/>
<path fill-rule="evenodd" clip-rule="evenodd" d="M3 1H19V2.5H3V1Z" fill="#4564F9"/>
<rect x="2.97058" y="6.5" width="16" height="1.5" fill="#4564F9"/>
<rect x="3.05585" y="9.20001" width="16" height="1.5" fill="#4564F9"/>
<rect x="3.05078" y="11.75" width="16" height="1.5" fill="#4564F9"/>
<path fill-rule="evenodd" clip-rule="evenodd" d="M3 1H11V8H3V1Z" fill="#4564F9"/>
<path fill-rule="evenodd" clip-rule="evenodd" d="M6.23554 1H7.81769V3.75H11V5.64319H7.81769V8.5H6.23554V5.64319H3V3.75H6.23554V1Z" fill="#F7FCFF"/>
</g>
<rect x="3" y="1" width="16" height="12" fill="url(#paint0_linear)" style="mix-blend-mode:overlay"/>
</g>
<defs>
<filter id="filter0_d" x="0" y="0" width="22" height="18" filterUnits="userSpaceOnUse" color-interpolation-filters="sRGB">
<feFlood flood-opacity="0" result="BackgroundImageFix"/>
<feColorMatrix in="SourceAlpha" type="matrix" values="0 0 0 0 0 0 0 0 0 0 0 0 0 0 0 0 0 0 127 0" result="hardAlpha"/>
<feOffset dy="2"/>
<feGaussianBlur stdDeviation="1.5"/>
<feColorMatrix type="matrix" values="0 0 0 0 0 0 0 0 0 0 0 0 0 0 0 0 0 0 0.1 0"/>
<feBlend mode="normal" in2="BackgroundImageFix" result="effect1_dropShadow"/>
<feBlend mode="normal" in="SourceGraphic" in2="effect1_dropShadow" result="shape"/>
</filter>
<linearGradient id="paint0_linear" x1="11" y1="1" x2="11" y2="13" gradientUnits="userSpaceOnUse">
<stop stop-color="white" stop-opacity="0.7"/>
<stop offset="1" stop-opacity="0.3"/>
</linearGradient>
</defs>
</svg>
