<svg width="22" height="18" viewBox="0 0 22 18" fill="none" xmlns="http://www.w3.org/2000/svg">
<g filter="url(#filter0_d)">
<mask id="mask0" style="mask-type:alpha" maskUnits="userSpaceOnUse" x="3" y="1" width="16" height="12">
<rect x="3" y="1" width="16" height="12" fill="white"/>
</mask>
<g mask="url(#mask0)">
<path fill-rule="evenodd" clip-rule="evenodd" d="M3 1H19V13H3V1Z" fill="#2B409A"/>
<path d="M14.7518 4.41212C14.7518 4.41212 14.5305 4.12111 14.5305 4.05469" stroke="#CDAD56" stroke-width="0.25" stroke-linecap="round"/>
<path d="M14.9305 4.41212C14.9305 4.41212 15.1518 4.12111 15.1518 4.05469" stroke="#CDAD56" stroke-width="0.25" stroke-linecap="round"/>
<path d="M15.159 10.2757C15.1282 10.2757 15.0168 10.2157 15.0168 10.2157C15.0168 10.2157 14.936 10.3435 14.8937 10.3509C14.8514 10.3584 14.6323 10.2721 14.6323 10.2721C14.6323 10.2721 14.4785 10.3922 14.4439 10.3847C14.4093 10.3773 14.0556 10.3021 14.0556 10.3021L13.8633 10.1819C13.8633 10.1819 13.7557 10.3546 13.7518 10.3509C13.748 10.3471 13.4289 10.287 13.4289 10.287C13.4289 10.287 13.525 10.1556 13.525 10.1518C13.525 10.1481 13.4789 10.133 13.4789 10.133L13.4097 10.1894L13.1252 10.2157L13.1944 10.0202L13.3059 9.85502L14.6707 8.55878L15.3435 9.77232L15.2436 10.1367C15.2436 10.1367 15.1897 10.2757 15.159 10.2757Z" fill="#6A4C2D"/>
<path d="M13.8552 10.0304C13.9028 10.0879 14.529 10.7281 14.6305 11.0309C14.732 11.3338 13.807 10.9469 13.807 10.9469C13.807 10.9469 14.9718 10.1903 15.5537 10.1903C16.1355 10.1903 17.2791 10.9469 17.2791 10.9469C17.2791 10.9469 16.5117 11.4873 16.5196 11.1466C16.5275 10.8058 16.8798 10.1345 17.3003 10.0304" stroke="#FFBB00" stroke-width="0.5" stroke-linecap="round" stroke-linejoin="round"/>
<path d="M17.8902 10.0583V9.67789L16.7088 9.73286L16.0693 9.55835L15.7996 9.7382L15.9448 9.92781L16.2996 10.0583H17.8902Z" fill="#F7FCFF"/>
<g filter="url(#filter1_d)">
<path d="M14.9694 5.93305C14.9759 5.94943 15.119 5.92038 15.1494 6.00607C15.3033 5.77873 15.484 5.99553 15.484 5.99553L15.636 5.81552L15.8077 5.97808L15.9652 5.96582L16.1298 6.3521L14.831 6.32773C14.831 6.32773 14.9629 5.91667 14.9694 5.93305Z" fill="#656263"/>
</g>
<path d="M16.3157 7.57695C16.3052 7.45464 16.1968 7.44033 16.1363 7.44442C16.0757 7.4485 16.0215 7.49944 16.0215 7.49944L15.8212 7.37508C15.8212 7.37508 15.9214 6.75723 16.0277 6.71855C16.1288 6.64734 16.1466 6.61652 16.1466 6.60033C16.1466 6.58398 16.1091 6.51779 16.1091 6.51779L15.456 6.44232L14.8383 6.5137C14.8383 6.5137 14.7904 6.61039 14.7967 6.639C14.8029 6.66746 14.805 6.69812 14.9156 6.78175C15.038 6.87373 15.1221 7.40165 15.1221 7.40165C15.1221 7.40165 14.949 7.48513 14.9386 7.47492C14.9281 7.46485 14.876 7.45464 14.8488 7.45872C14.8218 7.46281 14.732 7.50762 14.732 7.6238C14.732 7.74014 14.8218 7.80743 14.8218 7.80743C14.8218 7.80743 15.4122 8.24014 15.4999 8.39908C15.5855 8.20744 16.1466 7.77473 16.2134 7.74202C16.2406 7.72583 16.3262 7.69926 16.3157 7.57695Z" fill="#656263"/>
<path d="M16.905 7.00077C16.9541 6.96885 17.2809 6.95281 17.3594 7.00077C17.4377 7.04872 17.6404 7.12575 17.6436 7.18644C17.6469 7.24712 17.7807 7.35736 17.7807 7.35736C17.7807 7.35736 18.0113 7.84301 18.0145 8.14314C18.044 8.34752 18.0374 8.89353 17.9558 9.10105C17.9524 9.35983 17.6208 9.54907 17.6208 9.54907C17.6208 9.54907 17.6469 9.59372 17.6436 9.64167C17.6403 9.68962 17.6142 9.73427 17.6142 9.73427L17.3692 9.8396L17.0979 9.79495L16.7906 8.89757L16.8626 7.38075L16.8822 7.30419L16.8495 7.09981C16.8495 7.09981 16.8561 7.03268 16.905 7.00077Z" fill="black"/>
<path d="M15.131 7.79706C15.131 7.79706 15.4616 7.79706 15.4973 7.90192C15.5599 7.76216 15.8458 7.77096 15.8458 7.77096C16.0186 7.76514 16.1914 7.75933 16.364 7.75351C16.367 8.16101 16.3699 8.56851 16.373 8.97601C16.2718 9.45033 15.9203 9.7852 15.533 9.9278C15.0713 9.78221 14.7795 9.40097 14.6842 8.96721C14.6662 8.58015 14.6484 8.19293 14.6305 7.80586C14.7973 7.80288 14.9642 7.80005 15.131 7.79706Z" fill="#F7FCFF"/>
<path d="M14.8088 7.8013L15.5377 9.69951L16.1962 7.75995C15.9919 7.77284 15.5537 7.72851 15.4993 7.91056C15.415 7.74769 14.9539 7.8134 14.8088 7.8013V7.8013Z" fill="#006B00"/>
<path fill-rule="evenodd" clip-rule="evenodd" d="M15.6537 7.939C15.6537 7.939 15.72 8.11196 15.6537 8.19758C15.5874 8.2832 15.6592 8.35335 15.6992 8.35335C15.7392 8.35335 15.8765 8.4893 15.7651 8.4893C15.6537 8.4893 15.5908 8.44698 15.5908 8.56647C15.5908 8.68597 15.7303 9.14462 15.7303 9.00433C15.7303 8.86403 15.7651 8.70789 15.7651 8.70789C15.7651 8.70789 15.8236 8.75175 15.782 8.91192C15.7404 9.07209 15.5492 9.30446 15.5014 9.31357C15.4536 9.32267 15.3802 9.3972 15.3704 9.2597C15.3606 9.12221 15.3213 9.05785 15.3529 9.03109C15.3846 9.00433 15.4267 8.90868 15.4402 8.98389C15.4538 9.05911 15.3943 9.13099 15.404 9.15808C15.4137 9.18517 15.4191 9.24657 15.4603 9.19514C15.5014 9.14371 15.5256 9.05892 15.5564 9.13753C15.5872 9.21614 15.5878 9.1541 15.5241 9.00433C15.4603 8.85455 15.4061 8.77125 15.4137 8.63976C15.4214 8.50827 15.411 8.45902 15.4214 8.41676C15.4317 8.37449 15.3071 8.16866 15.3387 8.10939C15.3704 8.05012 15.3825 7.85877 15.4214 7.89322C15.4603 7.92766 15.4803 7.97391 15.4603 8.02542C15.4402 8.07693 15.4202 8.12811 15.4402 8.16284C15.4603 8.19758 15.529 8.29789 15.5427 8.27266C15.5564 8.24743 15.6027 8.27183 15.6027 8.12897C15.6027 7.98611 15.5511 7.93588 15.5836 7.90197C15.6161 7.86806 15.6537 7.939 15.6537 7.939Z" fill="#FFD100"/>
<path d="M16.2004 7.76026L16.2987 7.7579L16.1232 7.97518L16.3338 8.2154L15.9195 8.72541L16.3104 9.1851C16.2675 9.28808 16.2176 9.38178 16.1512 9.46652L15.9266 9.22394L16.3338 8.72776L15.9991 8.35721L16.2004 7.76026Z" fill="#1E5AA6"/>
<path d="M14.6907 7.80601L14.8873 8.014L14.6791 8.26791L15.112 8.72776L14.7539 9.19658C14.7969 9.29955 14.8585 9.41385 14.9248 9.49843L15.1378 9.23541L14.7002 8.75968L15.0208 8.36176L14.7961 7.80365L14.6907 7.80601Z" fill="#1E5AA6"/>
<path d="M17.1927 7.42557C17.1927 7.45749 17.2275 9.34161 17.2657 9.32363C17.3604 9.27882 17.3822 9.37661 17.3822 9.37661C17.3822 9.37661 17.4149 9.68649 17.3332 9.72799C17.1861 9.80455 17.1218 9.82144 17.1218 9.82144L16.9804 9.7184C16.9804 9.7184 16.8365 9.51716 16.8039 9.42771C16.7712 9.33841 16.732 8.93924 16.745 8.85293C16.758 8.76678 16.7678 8.26212 16.7614 8.23665C16.7548 8.21102 16.7287 7.78953 16.745 7.7257C16.7614 7.66187 16.8626 7.38077 16.8594 7.38077C16.8594 7.38077 17.1927 7.39366 17.1927 7.42557Z" fill="url(#paint0_linear)"/>
<path d="M16.8659 7.10297C16.9345 7.10297 16.9868 7.16051 17.0032 7.2116C17.0064 7.23393 16.9966 7.24996 16.9998 7.29147C17.0032 7.33297 16.5032 7.3009 16.4999 7.29776C16.4999 7.29776 16.7319 7.0775 16.8659 7.10297Z" fill="#FF7000"/>
<path d="M17.2045 7.25517C17.2045 7.28278 17.1821 7.30517 17.1545 7.30517C17.1269 7.30517 17.1045 7.28278 17.1045 7.25517C17.1045 7.22756 17.1269 7.20517 17.1545 7.20517C17.1821 7.20517 17.2045 7.22756 17.2045 7.25517Z" fill="black"/>
<path d="M15.9103 6.95438C15.9103 6.95438 16.1706 7.22966 16.339 7.22667C16.3696 7.30748 16.2625 7.38263 16.2197 7.41848C16.1339 7.39159 16.0564 7.42335 15.8574 7.18407C15.8697 7.03141 15.9133 6.96035 15.9103 6.95438Z" fill="#F7FCFF"/>
<path d="M16.9452 5.569C16.9697 5.74555 17.3845 5.9622 17.5038 5.81551C17.4916 5.88139 17.514 6.08679 16.8831 6.0838C17.1221 6.30532 16.6452 6.54452 16.5104 6.4906C16.7584 6.30508 16.4401 6.1944 16.2625 6.31404C16.2961 6.21232 16.5442 5.70075 16.9452 5.569Z" fill="#F7FCFF"/>
<path fill-rule="evenodd" clip-rule="evenodd" d="M16.5251 6.80832C16.4778 6.61388 16.4549 6.39049 16.5595 6.30508C16.4216 6.21233 16.2716 6.30807 16.2716 6.30807C16.2706 6.31039 16.2678 6.3143 16.2638 6.31984C16.2317 6.36413 16.1246 6.51221 16.2716 6.77817C15.8797 6.67645 16.0437 7.0322 16.0726 7.05909C16.0879 7.00217 16.2961 6.94841 16.3482 7.23863C16.3657 7.29743 16.2602 7.38225 16.2263 7.40947C16.2188 7.4155 16.2148 7.41871 16.2165 7.41817C16.2165 7.41817 16.5481 7.48549 16.591 7.04732C16.6478 7.01354 16.9229 6.83011 16.9145 6.45176C16.6617 6.45696 16.55 6.73545 16.5251 6.80832Z" fill="#F7FCFF"/>
<path d="M15.0438 7.0322C15.0438 7.0322 14.7898 7.24758 14.6458 7.17872C14.5387 7.24161 14.4131 7.13093 14.4131 7.13093C14.4131 7.13093 14.5601 7.66043 15.0868 7.27745C15.0776 7.1608 15.0499 7.04116 15.0438 7.0322Z" fill="#F7FCFF"/>
<path d="M14.6427 7.16978C14.6641 7.0591 14.7529 7.00517 14.8234 7.10988C14.9183 7.12796 15.0132 6.74797 14.6763 6.8107C14.7713 6.31405 14.4866 6.12854 14.4866 6.12854C14.4866 6.12854 14.3856 6.67911 14.4315 6.78083C14.4774 6.88254 14.3641 6.59232 13.9998 6.51152C13.9936 6.92751 14.407 7.12198 14.407 7.12198C14.407 7.12198 14.5233 7.22669 14.6427 7.16978Z" fill="#F7FCFF"/>
<path d="M14.2983 6.56941C14.1911 6.60227 13.9305 6.44516 14.0958 6.24156C13.5539 6.22961 13.2589 5.77176 13.4395 5.85906C13.6201 5.94637 13.7492 5.76033 13.8839 5.85906C13.7185 5.70955 13.9416 5.5899 13.9416 5.5899C13.9416 5.5899 14.4039 5.72464 14.4866 6.12554C14.459 6.20336 14.4468 6.34092 14.4407 6.33495C14.4407 6.33196 14.1544 6.32997 14.2983 6.56941Z" fill="#F7FCFF"/>
<path d="M15.3481 4.4343C15.2796 4.65957 15.0326 4.5741 15.0326 4.5741C15.0326 4.5741 15.0408 4.68684 15.0162 4.74093C15.0365 4.75772 15.1825 4.8842 15.3358 4.91682C15.5563 4.96374 16.0078 4.83538 16.1594 5.02504C16.311 5.21469 16.303 5.36776 16.303 5.36776C16.303 5.36776 16.1057 5.39313 16.1606 5.47135C16.1962 5.52214 16.2943 5.55988 16.303 5.61238C16.3307 5.77947 16.2105 6.08011 16.2537 6.19305C16.1854 6.19992 16.1801 6.27859 16.1801 6.27859C16.1762 6.36792 15.9792 6.31484 15.9792 6.31484C15.9792 6.31484 16.1021 5.96748 16.1103 5.88644C16.1185 5.80517 16.0242 5.66086 15.9505 5.66086C15.8767 5.66086 15.8235 5.91795 15.8235 5.91795C15.8235 5.91795 15.7867 6.11178 15.7989 6.12979C15.8112 6.14779 15.7496 6.06676 15.7496 6.06676C15.7496 6.06676 15.7303 6.14549 15.6986 6.19305C15.6629 6.24655 15.6144 6.26959 15.6144 6.26959C15.6144 6.26959 15.5776 6.1523 15.5899 6.10728C15.6021 6.06226 15.7908 5.88644 15.7744 5.76015C15.7671 5.70441 15.7606 5.60712 15.6986 5.57484C15.6201 5.53398 15.4762 5.56378 15.3892 5.54362C15.3414 5.63527 15.3194 6.13879 15.3521 6.17054C15.3851 6.20206 15.2703 6.26959 15.2703 6.26959L15.1351 6.27409C15.1329 6.20585 15.2148 6.01937 15.2148 5.86156C15.2148 5.70375 15.2251 5.53462 15.2251 5.53462C15.2251 5.53462 15.1342 5.56038 15.0858 5.66086C15.0452 5.74512 15.0452 5.90437 15.049 5.92696C15.0572 5.97648 15.0981 6.11628 15.0858 6.15703C15.0735 6.19755 14.8606 6.25158 14.8606 6.25158L14.8522 6.12078C14.8522 6.12078 14.9424 6.05775 14.9424 5.89995C14.9424 5.74214 14.9506 5.51656 14.9465 5.50306C14.944 5.49494 14.8727 5.1496 14.7788 4.91682C14.7162 4.76157 14.6196 4.69044 14.6147 4.67781C14.6024 4.64625 14.6024 4.61016 14.6024 4.61016C14.6024 4.61016 14.467 4.7184 14.3072 4.48842C14.4536 4.35092 14.6106 4.45233 14.6106 4.45233C14.6106 4.45233 14.6515 4.32606 14.8399 4.33509C15.0285 4.34411 15.0653 4.46136 15.0572 4.44783C15.0572 4.44783 15.1965 4.31253 15.3481 4.4343Z" fill="#923F00"/>
<path d="M14.8139 6.68178L15.4581 7.09369L16.0382 6.71244C16.0382 6.71244 16.1592 6.6472 16.1487 6.60035C16.1384 6.55334 16.0966 6.57173 16.0757 6.57991C16.0549 6.58808 15.4685 6.99386 15.4685 6.99386L14.8446 6.60837C14.8446 6.60837 14.7988 6.59422 14.7904 6.62267C14.7821 6.65128 14.8076 6.66748 14.8139 6.68178Z" fill="#B4B6B9"/>
<path d="M16.9734 9.71368C16.9734 9.71368 16.7337 9.69761 16.7703 9.76702C16.7907 9.80553 17.1081 9.80109 17.1081 9.80109L16.9734 9.71368Z" fill="#FF7000"/>
<path d="M17.0875 9.80673L16.8375 9.81381C16.8375 9.81381 16.7746 9.86962 16.7706 9.88298C16.7667 9.8965 16.8119 9.90028 16.8119 9.90028C16.8119 9.90028 17.0698 9.96584 17.2649 9.92339C17.3634 9.88974 17.3806 9.84934 17.3116 9.82481C17.2427 9.80029 17.0894 9.80768 17.0875 9.80673Z" fill="#FF7000"/>
<path d="M14.1953 7.4949C14.1953 7.4949 14.1628 7.59489 14.1953 7.64488C14.2279 7.69488 14.4325 8.09939 14.4325 8.09939C14.4325 8.09939 14.5721 7.93117 14.6233 7.92661C14.6744 7.92221 14.6511 8.36304 14.6511 8.36304C14.6511 8.36304 14.5674 8.44024 14.5163 8.43568C14.4651 8.43112 14.6418 8.60846 14.6371 8.75844C14.6324 8.90842 14.4046 9.65378 14.3209 9.6673C14.2372 9.68098 14.1649 9.52695 14.1649 9.39383C14.1649 9.2607 14.2511 9.04929 14.2465 8.99018C14.2419 8.93106 13.8305 9.62365 13.8056 9.73179C13.8009 9.75229 13.8279 9.8264 13.8279 9.8264C13.8279 9.8264 13.6667 9.83961 13.7024 10.0446C13.228 9.88096 12.4689 9.78474 12.4735 9.49845C12.4753 9.3887 12.656 8.68415 12.7589 8.3991C12.9245 7.94018 13.505 7.66834 13.5078 7.61791C13.5125 7.536 13.545 7.49968 13.5497 7.45425C13.5543 7.40881 13.6 7.18582 13.6465 7.14494C13.6931 7.10406 13.9349 7.00408 13.9953 7.00863C14.0558 7.01319 14.107 7.05407 14.107 7.05407C14.107 7.05407 14.3349 7.05407 14.3488 7.14038C14.3628 7.22685 14.3023 7.25861 14.3023 7.25861C14.3023 7.25861 14.3349 7.38139 14.1953 7.4949Z" fill="#8A9396"/>
<path d="M14.331 10.0728C14.4079 10.1259 14.5853 10.1573 14.5853 10.1573C14.5853 10.1573 14.1494 10.2748 13.7064 10.0468C13.6659 9.86932 13.8014 9.8297 13.835 9.82829C13.9132 9.80785 14.2542 10.0195 14.331 10.0728Z" fill="#2B2B2B"/>
<mask id="mask1" style="mask-type:alpha" maskUnits="userSpaceOnUse" x="3" y="1" width="9" height="8">
<rect x="3" y="1.20001" width="9" height="7" fill="white"/>
</mask>
<g mask="url(#mask1)">
<path d="M1.99786 7.69991L3.97834 8.56851L12.0449 2.14437L13.0896 0.853607L10.9718 0.563295L7.68159 3.33164L5.03334 5.19686L1.99786 7.69991Z" fill="#F7FCFF"/>
<path d="M2.26898 8.30847L3.27794 8.81253L12.7145 0.733673H11.2978L2.26898 8.30847Z" fill="#F50100"/>
<path d="M13.0021 7.69991L11.0217 8.56851L2.95506 2.14437L1.91041 0.853607L4.02824 0.563295L7.31841 3.33164L9.96666 5.19686L13.0021 7.69991Z" fill="#F7FCFF"/>
<path d="M12.9346 8.13668L11.9256 8.64075L7.90745 5.18177L6.71615 4.79531L1.8099 0.858039H3.2266L8.13009 4.70185L9.43256 5.16526L12.9346 8.13668Z" fill="#F50100"/>
<mask id="path-37-outside-1" maskUnits="userSpaceOnUse" x="2" y="0.200012" width="11" height="9" fill="black">
<rect fill="white" x="2" y="0.200012" width="11" height="9"/>
<path fill-rule="evenodd" clip-rule="evenodd" d="M7.99226 1.20001H6.99226V4.20001H3V5.20001H6.99226V8.20001H7.99226V5.20001H12V4.20001H7.99226V1.20001Z"/>
</mask>
<path fill-rule="evenodd" clip-rule="evenodd" d="M7.99226 1.20001H6.99226V4.20001H3V5.20001H6.99226V8.20001H7.99226V5.20001H12V4.20001H7.99226V1.20001Z" fill="#F50100"/>
<path d="M6.99226 1.20001V0.450012H6.24226V1.20001H6.99226ZM7.99226 1.20001H8.74226V0.450012H7.99226V1.20001ZM6.99226 4.20001V4.95001H7.74226V4.20001H6.99226ZM3 4.20001V3.45001H2.25V4.20001H3ZM3 5.20001H2.25V5.95001H3V5.20001ZM6.99226 5.20001H7.74226V4.45001H6.99226V5.20001ZM6.99226 8.20001H6.24226V8.95001H6.99226V8.20001ZM7.99226 8.20001V8.95001H8.74226V8.20001H7.99226ZM7.99226 5.20001V4.45001H7.24226V5.20001H7.99226ZM12 5.20001V5.95001H12.75V5.20001H12ZM12 4.20001H12.75V3.45001H12V4.20001ZM7.99226 4.20001H7.24226V4.95001H7.99226V4.20001ZM6.99226 1.95001H7.99226V0.450012H6.99226V1.95001ZM7.74226 4.20001V1.20001H6.24226V4.20001H7.74226ZM3 4.95001H6.99226V3.45001H3V4.95001ZM3.75 5.20001V4.20001H2.25V5.20001H3.75ZM6.99226 4.45001H3V5.95001H6.99226V4.45001ZM7.74226 8.20001V5.20001H6.24226V8.20001H7.74226ZM7.99226 7.45001H6.99226V8.95001H7.99226V7.45001ZM7.24226 5.20001V8.20001H8.74226V5.20001H7.24226ZM12 4.45001H7.99226V5.95001H12V4.45001ZM11.25 4.20001V5.20001H12.75V4.20001H11.25ZM7.99226 4.95001H12V3.45001H7.99226V4.95001ZM7.24226 1.20001V4.20001H8.74226V1.20001H7.24226Z" fill="#F7FCFF" mask="url(#path-37-outside-1)"/>
</g>
</g>
<rect x="3" y="1" width="16" height="12" fill="url(#paint1_linear)" style="mix-blend-mode:overlay"/>
</g>
<defs>
<filter id="filter0_d" x="0" y="0" width="22" height="18" filterUnits="userSpaceOnUse" color-interpolation-filters="sRGB">
<feFlood flood-opacity="0" result="BackgroundImageFix"/>
<feColorMatrix in="SourceAlpha" type="matrix" values="0 0 0 0 0 0 0 0 0 0 0 0 0 0 0 0 0 0 127 0" result="hardAlpha"/>
<feOffset dy="2"/>
<feGaussianBlur stdDeviation="1.5"/>
<feColorMatrix type="matrix" values="0 0 0 0 0 0 0 0 0 0 0 0 0 0 0 0 0 0 0.1 0"/>
<feBlend mode="normal" in2="BackgroundImageFix" result="effect1_dropShadow"/>
<feBlend mode="normal" in="SourceGraphic" in2="effect1_dropShadow" result="shape"/>
</filter>
<filter id="filter1_d" x="14.831" y="5.81552" width="1.29879" height="0.786575" filterUnits="userSpaceOnUse" color-interpolation-filters="sRGB">
<feFlood flood-opacity="0" result="BackgroundImageFix"/>
<feColorMatrix in="SourceAlpha" type="matrix" values="0 0 0 0 0 0 0 0 0 0 0 0 0 0 0 0 0 0 127 0" result="hardAlpha"/>
<feOffset dy="0.25"/>
<feColorMatrix type="matrix" values="0 0 0 0 1 0 0 0 0 1 0 0 0 0 1 0 0 0 1 0"/>
<feBlend mode="normal" in2="BackgroundImageFix" result="effect1_dropShadow"/>
<feBlend mode="normal" in="SourceGraphic" in2="effect1_dropShadow" result="shape"/>
</filter>
<linearGradient id="paint0_linear" x1="17.1774" y1="8.80356" x2="17.7495" y2="8.79393" gradientUnits="userSpaceOnUse">
<stop stop-color="#D5DFFF"/>
<stop offset="1" stop-color="white"/>
</linearGradient>
<linearGradient id="paint1_linear" x1="11" y1="1" x2="11" y2="13" gradientUnits="userSpaceOnUse">
<stop stop-color="white" stop-opacity="0.7"/>
<stop offset="1" stop-opacity="0.3"/>
</linearGradient>
</defs>
</svg>
