<svg width="22" height="18" viewBox="0 0 22 18" fill="none" xmlns="http://www.w3.org/2000/svg">
<g filter="url(#filter0_d)">
<mask id="mask0" style="mask-type:alpha" maskUnits="userSpaceOnUse" x="3" y="1" width="16" height="12">
<rect x="3" y="1" width="16" height="12" fill="white"/>
</mask>
<g mask="url(#mask0)">
<path fill-rule="evenodd" clip-rule="evenodd" d="M3 1H19V13H3V1Z" fill="#C51918"/>
<path fill-rule="evenodd" clip-rule="evenodd" d="M5 3H17V11H5V3Z" fill="#4564F9"/>
<path d="M5.5 3.5H16.5V10.5H5.5V3.5Z" stroke="#CBDAFF" stroke-opacity="0.1"/>
<mask id="mask1" style="mask-type:alpha" maskUnits="userSpaceOnUse" x="5" y="3" width="12" height="8">
<path fill-rule="evenodd" clip-rule="evenodd" d="M5 3H17V11H5V3Z" fill="white"/>
<path d="M5.5 3.5H16.5V10.5H5.5V3.5Z" stroke="white"/>
</mask>
<g mask="url(#mask1)">
<path fill-rule="evenodd" clip-rule="evenodd" d="M11 2.99997C11 2.99997 14 4.44773 14 6.85882C14 9.26992 11 11 11 11C11 11 8 9.20213 8 6.85882C8 4.51552 11 2.99997 11 2.99997Z" fill="#CCE0E5"/>
<path d="M11 2.99997L11.3151 2.34703L10.9927 2.19142L10.6731 2.35286L11 2.99997ZM11 2.99997C11.3151 2.34703 11.3153 2.34713 11.3156 2.34724L11.3161 2.34749L11.3173 2.3481L11.3206 2.34972L11.3305 2.35458L11.3628 2.3708C11.3896 2.38447 11.427 2.4039 11.4734 2.42895C11.5661 2.47902 11.6954 2.55189 11.8492 2.64672C12.1553 2.83545 12.5662 3.1159 12.9803 3.48217C13.7866 4.1953 14.725 5.34222 14.725 6.85882C14.725 8.36188 13.8004 9.57546 13.0071 10.3517C12.5981 10.752 12.1918 11.0675 11.8887 11.283C11.7365 11.3911 11.6086 11.4752 11.5172 11.5332C11.4714 11.5622 11.4346 11.5848 11.4083 11.6007L11.3769 11.6194L11.3674 11.625L11.3642 11.6268L11.3631 11.6275L11.3626 11.6278C11.3624 11.6279 11.3622 11.628 11 11M11 2.99997C10.6731 2.35286 10.6729 2.35296 10.6727 2.35307L10.6722 2.35333L10.671 2.35394L10.6677 2.35558L10.658 2.36057L10.6262 2.3773C10.5996 2.39142 10.5625 2.41149 10.5164 2.43736C10.4243 2.48905 10.2956 2.56417 10.1424 2.66146C9.83769 2.85509 9.42861 3.14128 9.01627 3.51063C8.21743 4.22618 7.275 5.37322 7.275 6.85882C7.275 8.33048 8.2032 9.54462 8.98997 10.3234C9.3974 10.7267 9.80209 11.0479 10.104 11.2682C10.2556 11.3787 10.3829 11.465 10.4738 11.5246C10.5193 11.5544 10.5559 11.5776 10.5819 11.5939L10.613 11.6132L10.6223 11.6188L10.6254 11.6207L10.6265 11.6213L10.6269 11.6216C10.6271 11.6217 10.6273 11.6218 11 11M11 11L11.3622 11.628L10.9929 11.841L10.6273 11.6218L11 11Z" stroke="#C1C9F1" stroke-opacity="0.1482" stroke-width="1.45"/>
<path d="M11.2 4.0184L11.5433 3.37981L11.192 3.191L10.8445 3.38656L11.2 4.0184ZM11.2 4.0184C11.5433 3.37981 11.5435 3.37993 11.5437 3.38006L11.5442 3.38033L11.5454 3.38095L11.5482 3.38249L11.5561 3.38681L11.5802 3.40034C11.5999 3.41151 11.6267 3.42703 11.6596 3.44681C11.7253 3.48632 11.8158 3.54316 11.9229 3.61671C12.1358 3.76292 12.4211 3.97981 12.7088 4.26324C13.2707 4.81677 13.925 5.70851 13.925 6.88383C13.925 8.04725 13.2819 8.98596 12.7342 9.58288C12.452 9.89048 12.1719 10.1329 11.9625 10.2986C11.8572 10.3819 11.7684 10.447 11.7042 10.4924C11.6721 10.5151 11.646 10.5329 11.6269 10.5457L11.6037 10.5611L11.5963 10.566L11.5937 10.5677L11.5927 10.5683L11.5922 10.5686C11.592 10.5687 11.5918 10.5689 11.2 9.95888M11.2 4.0184C10.8445 3.38656 10.8443 3.38668 10.844 3.3868L10.8436 3.38707L10.8425 3.38769L10.8397 3.38925L10.8321 3.39365L10.8084 3.40751C10.789 3.41899 10.7625 3.43496 10.7299 3.45531C10.6648 3.49596 10.575 3.55438 10.4687 3.62964C10.2573 3.77926 9.97386 4.00011 9.68795 4.28536C9.13296 4.83908 8.47501 5.7307 8.47501 6.88383C8.47501 8.02461 9.12129 8.9637 9.663 9.56095C9.94367 9.87039 10.2223 10.1167 10.4303 10.2858C10.5349 10.3707 10.6231 10.4373 10.6867 10.4838C10.7186 10.507 10.7444 10.5253 10.7632 10.5384L10.786 10.5541L10.7932 10.559L10.7957 10.5607L10.7967 10.5613L10.7971 10.5616C10.7973 10.5618 10.7975 10.5619 11.2 9.95888M11.2 9.95888L11.5918 10.5689L11.1924 10.8255L10.7975 10.5619L11.2 9.95888Z" fill="#CCE0E5"/>
<path d="M11.2 4.0184L11.5433 3.37981L11.192 3.191L10.8445 3.38656L11.2 4.0184ZM11.2 4.0184C11.5433 3.37981 11.5435 3.37993 11.5437 3.38006L11.5442 3.38033L11.5454 3.38095L11.5482 3.38249L11.5561 3.38681L11.5802 3.40034C11.5999 3.41151 11.6267 3.42703 11.6596 3.44681C11.7253 3.48632 11.8158 3.54316 11.9229 3.61671C12.1358 3.76292 12.4211 3.97981 12.7088 4.26324C13.2707 4.81677 13.925 5.70851 13.925 6.88383C13.925 8.04725 13.2819 8.98596 12.7342 9.58288C12.452 9.89048 12.1719 10.1329 11.9625 10.2986C11.8572 10.3819 11.7684 10.447 11.7042 10.4924C11.6721 10.5151 11.646 10.5329 11.6269 10.5457L11.6037 10.5611L11.5963 10.566L11.5937 10.5677L11.5927 10.5683L11.5922 10.5686C11.592 10.5687 11.5918 10.5689 11.2 9.95888M11.2 4.0184C10.8445 3.38656 10.8443 3.38668 10.844 3.3868L10.8436 3.38707L10.8425 3.38769L10.8397 3.38925L10.8321 3.39365L10.8084 3.40751C10.789 3.41899 10.7625 3.43496 10.7299 3.45531C10.6648 3.49596 10.575 3.55438 10.4687 3.62964C10.2573 3.77926 9.97386 4.00011 9.68795 4.28536C9.13296 4.83908 8.47501 5.7307 8.47501 6.88383C8.47501 8.02461 9.12129 8.9637 9.663 9.56095C9.94367 9.87039 10.2223 10.1167 10.4303 10.2858C10.5349 10.3707 10.6231 10.4373 10.6867 10.4838C10.7186 10.507 10.7444 10.5253 10.7632 10.5384L10.786 10.5541L10.7932 10.559L10.7957 10.5607L10.7967 10.5613L10.7971 10.5616C10.7973 10.5618 10.7975 10.5619 11.2 9.95888M11.2 9.95888L11.5918 10.5689L11.1924 10.8255L10.7975 10.5619L11.2 9.95888Z" stroke="#C1C9F1" stroke-opacity="0.748217" stroke-width="1.45"/>
<path d="M11.2 4.0184L11.5433 3.37981L11.192 3.191L10.8445 3.38656L11.2 4.0184ZM11.2 4.0184C11.5433 3.37981 11.5435 3.37993 11.5437 3.38006L11.5442 3.38033L11.5454 3.38095L11.5482 3.38249L11.5561 3.38681L11.5802 3.40034C11.5999 3.41151 11.6267 3.42703 11.6596 3.44681C11.7253 3.48632 11.8158 3.54316 11.9229 3.61671C12.1358 3.76292 12.4211 3.97981 12.7088 4.26324C13.2707 4.81677 13.925 5.70851 13.925 6.88383C13.925 8.04725 13.2819 8.98596 12.7342 9.58288C12.452 9.89048 12.1719 10.1329 11.9625 10.2986C11.8572 10.3819 11.7684 10.447 11.7042 10.4924C11.6721 10.5151 11.646 10.5329 11.6269 10.5457L11.6037 10.5611L11.5963 10.566L11.5937 10.5677L11.5927 10.5683L11.5922 10.5686C11.592 10.5687 11.5918 10.5689 11.2 9.95888M11.2 4.0184C10.8445 3.38656 10.8443 3.38668 10.844 3.3868L10.8436 3.38707L10.8425 3.38769L10.8397 3.38925L10.8321 3.39365L10.8084 3.40751C10.789 3.41899 10.7625 3.43496 10.7299 3.45531C10.6648 3.49596 10.575 3.55438 10.4687 3.62964C10.2573 3.77926 9.97386 4.00011 9.68795 4.28536C9.13296 4.83908 8.47501 5.7307 8.47501 6.88383C8.47501 8.02461 9.12129 8.9637 9.663 9.56095C9.94367 9.87039 10.2223 10.1167 10.4303 10.2858C10.5349 10.3707 10.6231 10.4373 10.6867 10.4838C10.7186 10.507 10.7444 10.5253 10.7632 10.5384L10.786 10.5541L10.7932 10.559L10.7957 10.5607L10.7967 10.5613L10.7971 10.5616C10.7973 10.5618 10.7975 10.5619 11.2 9.95888M11.2 9.95888L11.5918 10.5689L11.1924 10.8255L10.7975 10.5619L11.2 9.95888Z" stroke="#C51918" stroke-width="1.45"/>
<mask id="mask2" style="mask-type:alpha" maskUnits="userSpaceOnUse" x="9" y="4" width="5" height="6">
<path d="M11.6658 8.60261C11.5063 8.77648 11.3456 8.92528 11.206 9.04397C11.064 8.92083 10.8999 8.7664 10.737 8.58679C10.2787 8.08153 9.92501 7.48309 9.92501 6.88383C9.92501 6.29691 10.2671 5.75583 10.7121 5.31184C10.885 5.13933 11.0595 4.99575 11.2064 4.88591C11.3509 4.9914 11.5219 5.12937 11.6912 5.2962C12.1293 5.7278 12.475 6.26877 12.475 6.88383C12.475 7.51079 12.1181 8.1096 11.6658 8.60261Z" fill="white"/>
<path d="M11.6658 8.60261C11.5063 8.77648 11.3456 8.92528 11.206 9.04397C11.064 8.92083 10.8999 8.7664 10.737 8.58679C10.2787 8.08153 9.92501 7.48309 9.92501 6.88383C9.92501 6.29691 10.2671 5.75583 10.7121 5.31184C10.885 5.13933 11.0595 4.99575 11.2064 4.88591C11.3509 4.9914 11.5219 5.12937 11.6912 5.2962C12.1293 5.7278 12.475 6.26877 12.475 6.88383C12.475 7.51079 12.1181 8.1096 11.6658 8.60261Z" stroke="white" stroke-width="1.45"/>
</mask>
<g mask="url(#mask2)">
<rect x="9.46667" y="8" width="3.73333" height="0.75" fill="#91CBCB"/>
<path fill-rule="evenodd" clip-rule="evenodd" d="M9.80087 8.59899C9.80087 8.59899 12.4479 8.59994 12.6912 8.50859C12.9345 8.41725 12.2344 10.2624 11.34 10.2624C10.4456 10.2624 9.80087 8.59899 9.80087 8.59899Z" fill="#FDF9A1"/>
<path d="M12.2968 8.37757L11.8213 8.74347C11.0719 7.76954 10.7575 6.76201 10.8917 5.73373L11.4866 5.81137C11.3742 6.67263 11.6398 7.52375 12.2968 8.37757Z" fill="#A68861"/>
<path fill-rule="evenodd" clip-rule="evenodd" d="M11.1968 5.81838L10.7432 6.34995C10.7261 6.3699 10.6938 6.35352 10.6998 6.32799L10.8558 5.66521H10.1462C10.1191 5.66521 10.1114 5.62819 10.1361 5.61732L10.7426 5.35147L10.3121 4.78402C10.2969 4.76392 10.3176 4.73646 10.3411 4.74562L11.018 5.00947L11.1725 4.38775C11.1788 4.36244 11.2148 4.36246 11.221 4.38778L11.3747 5.00947L12.0457 4.74823C12.0697 4.73888 12.0904 4.76755 12.074 4.78742L11.6092 5.35147L12.2506 5.61712C12.2759 5.62758 12.2684 5.66521 12.241 5.66521H11.6092L11.7054 6.34329C11.7089 6.36807 11.6779 6.38206 11.6616 6.36303L11.1968 5.81838Z" fill="#239E46"/>
<path fill-rule="evenodd" clip-rule="evenodd" d="M10.8 7.5H13.2V8.025H10.8V7.5Z" fill="#239E46"/>
</g>
</g>
</g>
<rect x="3" y="1" width="16" height="12" fill="url(#paint0_linear)" style="mix-blend-mode:overlay"/>
</g>
<defs>
<filter id="filter0_d" x="0" y="0" width="22" height="18" filterUnits="userSpaceOnUse" color-interpolation-filters="sRGB">
<feFlood flood-opacity="0" result="BackgroundImageFix"/>
<feColorMatrix in="SourceAlpha" type="matrix" values="0 0 0 0 0 0 0 0 0 0 0 0 0 0 0 0 0 0 127 0" result="hardAlpha"/>
<feOffset dy="2"/>
<feGaussianBlur stdDeviation="1.5"/>
<feColorMatrix type="matrix" values="0 0 0 0 0 0 0 0 0 0 0 0 0 0 0 0 0 0 0.1 0"/>
<feBlend mode="normal" in2="BackgroundImageFix" result="effect1_dropShadow"/>
<feBlend mode="normal" in="SourceGraphic" in2="effect1_dropShadow" result="shape"/>
</filter>
<linearGradient id="paint0_linear" x1="11" y1="1" x2="11" y2="13" gradientUnits="userSpaceOnUse">
<stop stop-color="white" stop-opacity="0.7"/>
<stop offset="1" stop-opacity="0.3"/>
</linearGradient>
</defs>
</svg>
