<svg width="22" height="18" viewBox="0 0 22 18" fill="none" xmlns="http://www.w3.org/2000/svg">
<g filter="url(#filter0_d)">
<mask id="mask0" style="mask-type:alpha" maskUnits="userSpaceOnUse" x="3" y="1" width="16" height="12">
<rect x="3" y="1" width="16" height="12" fill="white"/>
</mask>
<g mask="url(#mask0)">
<path fill-rule="evenodd" clip-rule="evenodd" d="M3 1V13H19V1H3Z" fill="#F7FCFF"/>
<mask id="mask1" style="mask-type:alpha" maskUnits="userSpaceOnUse" x="3" y="1" width="16" height="12">
<path fill-rule="evenodd" clip-rule="evenodd" d="M3 1V13H19V1H3Z" fill="white"/>
</mask>
<g mask="url(#mask1)">
<path fill-rule="evenodd" clip-rule="evenodd" d="M3 1V5H19V1H3Z" fill="#E31D1C"/>
<path fill-rule="evenodd" clip-rule="evenodd" d="M3 9V13H19V9H3Z" fill="#3D58DB"/>
<rect x="8.03827" y="4.19867" width="5.7" height="2" fill="#E31D1C"/>
<path d="M8.3261 5.47992H13.3904C13.3989 5.8644 13.4015 6.5351 13.4014 7.18077C13.4014 7.59773 13.4003 7.99915 13.3992 8.29637L13.3977 8.65285L13.3972 8.75163L13.3972 8.76584L13.3969 8.76748C13.3947 8.78079 13.3909 8.80174 13.3852 8.82922C13.3737 8.88427 13.3543 8.96507 13.3234 9.06298C13.2615 9.25964 13.155 9.52039 12.9776 9.77947C12.6304 10.2864 11.9999 10.8076 10.8249 10.8076C9.65141 10.8076 9.05147 10.2871 8.73213 9.78504C8.56816 9.52722 8.47452 9.26737 8.42211 9.07086C8.39603 8.97308 8.38053 8.89237 8.37167 8.83738C8.36724 8.80992 8.36449 8.789 8.36291 8.77572L8.36196 8.76712L8.36169 8.74508L8.3605 8.64693L8.35625 8.29265C8.35274 7.99721 8.34806 7.5979 8.34337 7.18238C8.33621 6.54748 8.32908 5.87669 8.3261 5.47992ZM8.36112 8.75928C8.36111 8.75914 8.36111 8.75913 8.36112 8.75926L8.36112 8.75928Z" fill="#F7FCFF" stroke="#E31D1C" stroke-width="0.5625"/>
<mask id="mask2" style="mask-type:alpha" maskUnits="userSpaceOnUse" x="8" y="5" width="6" height="7">
<path d="M8.3261 5.47992H13.3904C13.3989 5.8644 13.4015 6.5351 13.4014 7.18077C13.4014 7.59773 13.4003 7.99915 13.3992 8.29637L13.3977 8.65285L13.3972 8.75163L13.3972 8.76584L13.3969 8.76748C13.3947 8.78079 13.3909 8.80174 13.3852 8.82922C13.3737 8.88427 13.3543 8.96507 13.3234 9.06298C13.2615 9.25964 13.155 9.52039 12.9776 9.77947C12.6304 10.2864 11.9999 10.8076 10.8249 10.8076C9.65141 10.8076 9.05147 10.2871 8.73213 9.78504C8.56816 9.52722 8.47452 9.26737 8.42211 9.07086C8.39603 8.97308 8.38053 8.89237 8.37167 8.83738C8.36724 8.80992 8.36449 8.789 8.36291 8.77572L8.36196 8.76712L8.36169 8.74508L8.3605 8.64693L8.35625 8.29265C8.35274 7.99721 8.34806 7.5979 8.34337 7.18238C8.33621 6.54748 8.32908 5.87669 8.3261 5.47992ZM8.36112 8.75928C8.36111 8.75914 8.36111 8.75913 8.36112 8.75926L8.36112 8.75928Z" fill="white" stroke="white" stroke-width="0.5625"/>
</mask>
<g mask="url(#mask2)">
<path fill-rule="evenodd" clip-rule="evenodd" d="M8.24921 5.51996H9.30389V6.59091H8.24921V5.51996ZM10.3586 6.59091H9.30389V7.66186H8.24921V8.73281H9.30389V9.80376H8.24921V10.8747H9.30389V9.80376H10.3586V10.8747H11.4133V9.80376H12.468V10.8747H13.5226V9.80376H12.468V8.73281H13.5226V7.66186H12.468V6.59091H13.5226V5.51996H12.468V6.59091H11.4133V5.51996H10.3586V6.59091ZM10.3586 7.66186V6.59091H11.4133V7.66186H10.3586ZM10.3586 8.73281V7.66186H9.30389V8.73281H10.3586ZM11.4133 8.73281V9.80376H10.3586V8.73281H11.4133ZM11.4133 8.73281V7.66186H12.468V8.73281H11.4133Z" fill="#F50100"/>
</g>
<path fill-rule="evenodd" clip-rule="evenodd" d="M8.22651 5.08133C8.22651 5.08133 8.55273 4.90709 8.83097 4.81729C9.10921 4.72749 9.32913 4.67843 9.32913 4.67843L8.91516 3.15238L8.086 2.84259L7.61639 3.61664L8.22651 5.08133Z" fill="#56C6F5" stroke="white" stroke-width="0.15"/>
<path fill-rule="evenodd" clip-rule="evenodd" d="M10.2703 4.53791C10.2703 4.53791 10.5485 4.51308 10.8409 4.51876C11.1332 4.52444 11.3805 4.52651 11.3805 4.52651L11.5233 3.02177L10.8971 2.45608L10.2011 3.03507L10.2703 4.53791Z" fill="#56C6F5" stroke="white" stroke-width="0.15"/>
<path d="M9.23426 4.66598L9.25587 4.73939L9.32882 4.71631L9.32883 4.71631L9.32886 4.7163L9.32901 4.71625L9.32965 4.71605L9.33227 4.71523L9.3426 4.71202L9.38124 4.70026C9.41413 4.69038 9.45999 4.67694 9.5118 4.66268C9.61649 4.63386 9.74173 4.60274 9.83369 4.58996C9.92813 4.57684 10.045 4.56733 10.1394 4.56109C10.1863 4.55798 10.2272 4.55571 10.2564 4.55422L10.2906 4.55256L10.2997 4.55215L10.302 4.55205L10.3026 4.55203L10.3027 4.55202L10.3027 4.55202L10.3027 4.55202L10.3811 4.5488L10.3744 4.47064L10.2482 3.00843L10.2453 2.97384L10.217 2.95373L9.53559 2.46983L9.48298 2.43246L9.43818 2.47891L8.81895 3.12086L8.78866 3.15226L8.80098 3.19411L9.23426 4.66598Z" fill="#2E42A5" stroke="white" stroke-width="0.15"/>
<mask id="mask3" style="mask-type:alpha" maskUnits="userSpaceOnUse" x="8" y="2" width="3" height="3">
<path d="M9.23426 4.66598L9.25587 4.73939L9.32882 4.71631L9.32883 4.71631L9.32886 4.7163L9.32901 4.71625L9.32965 4.71605L9.33227 4.71523L9.3426 4.71202L9.38124 4.70026C9.41413 4.69038 9.45999 4.67694 9.5118 4.66268C9.61649 4.63386 9.74173 4.60274 9.83369 4.58996C9.92813 4.57684 10.045 4.56733 10.1394 4.56109C10.1863 4.55798 10.2272 4.55571 10.2564 4.55422L10.2906 4.55256L10.2997 4.55215L10.302 4.55205L10.3026 4.55203L10.3027 4.55202L10.3027 4.55202L10.3027 4.55202L10.3811 4.5488L10.3744 4.47064L10.2482 3.00843L10.2453 2.97384L10.217 2.95373L9.53559 2.46983L9.48298 2.43246L9.43818 2.47891L8.81895 3.12086L8.78866 3.15226L8.80098 3.19411L9.23426 4.66598Z" fill="white" stroke="white" stroke-width="0.15"/>
</mask>
<g mask="url(#mask3)">
</g>
<path d="M12.4701 4.66434L12.4497 4.73992L12.375 4.71631L12.375 4.71631L12.375 4.7163L12.3748 4.71625L12.3742 4.71605L12.3716 4.71523L12.3613 4.71202L12.3226 4.70026C12.2897 4.69038 12.2439 4.67694 12.192 4.66268C12.0874 4.63386 11.9621 4.60274 11.8702 4.58996C11.7757 4.57684 11.6588 4.56733 11.5645 4.56109C11.5176 4.55798 11.4766 4.55571 11.4474 4.55422L11.4133 4.55256L11.4042 4.55215L11.4018 4.55205L11.4013 4.55203L11.4011 4.55202L11.4011 4.55202L11.4011 4.55202L11.3227 4.5488L11.3295 4.47064L11.4556 3.00843L11.4586 2.97384L11.4869 2.95373L12.1683 2.46983L12.2223 2.43141L12.2671 2.48041L12.8509 3.11994L12.8787 3.15033L12.8679 3.19005L12.4701 4.66434Z" fill="#2E42A5" stroke="white" stroke-width="0.15"/>
<mask id="mask4" style="mask-type:alpha" maskUnits="userSpaceOnUse" x="11" y="2" width="2" height="3">
<path d="M12.4701 4.66434L12.4497 4.73992L12.375 4.71631L12.375 4.71631L12.375 4.7163L12.3748 4.71625L12.3742 4.71605L12.3716 4.71523L12.3613 4.71202L12.3226 4.70026C12.2897 4.69038 12.2439 4.67694 12.192 4.66268C12.0874 4.63386 11.9621 4.60274 11.8702 4.58996C11.7757 4.57684 11.6588 4.56733 11.5645 4.56109C11.5176 4.55798 11.4766 4.55571 11.4474 4.55422L11.4133 4.55256L11.4042 4.55215L11.4018 4.55205L11.4013 4.55203L11.4011 4.55202L11.4011 4.55202L11.4011 4.55202L11.3227 4.5488L11.3295 4.47064L11.4556 3.00843L11.4586 2.97384L11.4869 2.95373L12.1683 2.46983L12.2223 2.43141L12.2671 2.48041L12.8509 3.11994L12.8787 3.15033L12.8679 3.19005L12.4701 4.66434Z" fill="white" stroke="white" stroke-width="0.15"/>
</mask>
<g mask="url(#mask4)">
</g>
<path d="M13.6303 5.07309L13.5979 5.14771L13.5262 5.10939L13.5262 5.10939L13.5262 5.10939L13.5262 5.10937L13.526 5.1093L13.5254 5.10896L13.5228 5.10757L13.5122 5.10206C13.503 5.09723 13.4894 5.09021 13.4722 5.08147C13.4378 5.064 13.389 5.03975 13.3317 5.01274C13.2164 4.95846 13.0686 4.89401 12.934 4.85056C12.7965 4.80619 12.6734 4.77186 12.5846 4.74864C12.5403 4.73703 12.5046 4.72821 12.4801 4.72231L12.452 4.71568L12.4448 4.71403L12.4431 4.71364L12.4427 4.71354L12.4426 4.71352L12.4426 4.71352L12.4426 4.71352L12.4426 4.71352L12.365 4.69623L12.3868 4.61981L12.8098 3.13187L12.8201 3.09539L12.8556 3.08212L13.6848 2.77233L13.743 2.7506L13.7752 2.80369L14.2448 3.57774L14.2649 3.61091L14.2495 3.6465L13.6303 5.07309Z" fill="#56C6F5" stroke="white" stroke-width="0.15"/>
<mask id="mask5" style="mask-type:alpha" maskUnits="userSpaceOnUse" x="12" y="2" width="3" height="4">
<path d="M13.6303 5.07309L13.5979 5.14771L13.5262 5.10939L13.5262 5.10939L13.5262 5.10939L13.5262 5.10937L13.526 5.1093L13.5254 5.10896L13.5228 5.10757L13.5122 5.10206C13.503 5.09723 13.4894 5.09021 13.4722 5.08147C13.4378 5.064 13.389 5.03975 13.3317 5.01274C13.2164 4.95846 13.0686 4.89401 12.934 4.85056C12.7965 4.80619 12.6734 4.77186 12.5846 4.74864C12.5403 4.73703 12.5046 4.72821 12.4801 4.72231L12.452 4.71568L12.4448 4.71403L12.4431 4.71364L12.4427 4.71354L12.4426 4.71352L12.4426 4.71352L12.4426 4.71352L12.4426 4.71352L12.365 4.69623L12.3868 4.61981L12.8098 3.13187L12.8201 3.09539L12.8556 3.08212L13.6848 2.77233L13.743 2.7506L13.7752 2.80369L14.2448 3.57774L14.2649 3.61091L14.2495 3.6465L13.6303 5.07309Z" fill="white" stroke="white" stroke-width="0.15"/>
</mask>
<g mask="url(#mask5)">
</g>
</g>
</g>
<rect x="3" y="1" width="16" height="12" fill="url(#paint0_linear)" style="mix-blend-mode:overlay"/>
</g>
<defs>
<filter id="filter0_d" x="0" y="0" width="22" height="18" filterUnits="userSpaceOnUse" color-interpolation-filters="sRGB">
<feFlood flood-opacity="0" result="BackgroundImageFix"/>
<feColorMatrix in="SourceAlpha" type="matrix" values="0 0 0 0 0 0 0 0 0 0 0 0 0 0 0 0 0 0 127 0" result="hardAlpha"/>
<feOffset dy="2"/>
<feGaussianBlur stdDeviation="1.5"/>
<feColorMatrix type="matrix" values="0 0 0 0 0 0 0 0 0 0 0 0 0 0 0 0 0 0 0.1 0"/>
<feBlend mode="normal" in2="BackgroundImageFix" result="effect1_dropShadow"/>
<feBlend mode="normal" in="SourceGraphic" in2="effect1_dropShadow" result="shape"/>
</filter>
<linearGradient id="paint0_linear" x1="11" y1="1" x2="11" y2="13" gradientUnits="userSpaceOnUse">
<stop stop-color="white" stop-opacity="0.7"/>
<stop offset="1" stop-opacity="0.3"/>
</linearGradient>
</defs>
</svg>
