<svg width="22" height="18" viewBox="0 0 22 18" fill="none" xmlns="http://www.w3.org/2000/svg">
<g filter="url(#filter0_d)">
<mask id="mask0" style="mask-type:alpha" maskUnits="userSpaceOnUse" x="3" y="1" width="16" height="12">
<rect x="3" y="1" width="16" height="12" fill="white"/>
</mask>
<g mask="url(#mask0)">
<path fill-rule="evenodd" clip-rule="evenodd" d="M3 1V13H19V1H3Z" fill="#E31D1C"/>
<mask id="mask1" style="mask-type:alpha" maskUnits="userSpaceOnUse" x="3" y="1" width="16" height="12">
<path fill-rule="evenodd" clip-rule="evenodd" d="M3 1V13H19V1H3Z" fill="white"/>
</mask>
<g mask="url(#mask1)">
<path fill-rule="evenodd" clip-rule="evenodd" d="M6.04676 3.07048C6.04291 3.02422 6.09827 3.00179 6.12958 3.03606C6.35414 3.28189 6.94767 3.89388 7.29091 3.89388C7.72041 3.89388 9.40721 2.47255 9.90578 2.70409C10.4044 2.93563 11.4138 5.35644 11.4138 5.35644L10.756 6.18157L9.90578 5.71776L9.67048 4.17155C9.67048 4.17155 8.10857 4.9542 7.29091 4.64866L6.83127 4.81631C6.83127 4.81631 6.38862 3.93981 6.21431 3.67172C6.09898 3.49434 6.05996 3.22943 6.04676 3.07048Z" fill="#F7FCFF"/>
<path fill-rule="evenodd" clip-rule="evenodd" d="M7.00001 5.13763L6.41222 5.44665L6.52448 4.79214L6.04895 4.32862L6.70611 4.23313L7.00001 3.63763L7.2939 4.23313L7.95106 4.32862L7.47553 4.79214L7.58779 5.44665L7.00001 5.13763Z" fill="#FECA00"/>
<path fill-rule="evenodd" clip-rule="evenodd" d="M9.56569 2.76835C9.57321 2.6744 9.65165 2.60199 9.7459 2.60199C9.85142 2.60199 9.93451 2.692 9.9261 2.79719L9.81552 4.17925C9.80801 4.2732 9.72957 4.34561 9.63532 4.34561C9.52979 4.34561 9.4467 4.2556 9.45512 4.15041L9.56569 2.76835Z" fill="#FECA00"/>
<path fill-rule="evenodd" clip-rule="evenodd" d="M15.6101 3.5517C15.6513 3.57296 15.641 3.63179 15.5954 3.64018C15.2679 3.70035 14.4344 3.87939 14.2525 4.17047C14.0249 4.53471 14.3364 6.71838 13.8758 7.0185C13.4153 7.31862 10.8274 6.89185 10.8274 6.89185L10.4762 5.89673L11.3201 5.4215L12.801 6.01152C12.801 6.01152 12.9402 4.33286 13.6326 3.80135L13.7138 3.29185C13.7138 3.29185 14.6917 3.38095 15.0114 3.37519C15.2229 3.37138 15.4683 3.47867 15.6101 3.5517Z" fill="#F7FCFF"/>
<path fill-rule="evenodd" clip-rule="evenodd" d="M13.2526 3.4282L13.302 2.76597L13.7976 3.20801L14.4426 3.05037L14.1754 3.65828L14.5246 4.22308L13.8639 4.15675L13.4347 4.66345L13.2936 4.01455L12.679 3.76291L13.2526 3.4282Z" fill="#FECA00"/>
<path fill-rule="evenodd" clip-rule="evenodd" d="M13.9767 6.59917C14.0572 6.65782 14.0805 6.7677 14.0309 6.85403C13.9719 6.95664 13.8358 6.98344 13.7422 6.91086L12.7803 6.16436C12.7193 6.11702 12.6961 6.03555 12.7231 5.96319C12.7639 5.85356 12.8981 5.81317 12.9926 5.88207L13.9767 6.59917Z" fill="#FECA00"/>
<path fill-rule="evenodd" clip-rule="evenodd" d="M10.4313 11.4918C10.3922 11.5169 10.3464 11.4786 10.362 11.4349C10.4736 11.1212 10.7353 10.3098 10.5742 10.0068C10.3725 9.62752 8.32568 8.80544 8.29605 8.25652C8.26641 7.70761 9.92996 5.67981 9.92996 5.67981L10.9673 5.87325L10.957 6.84169L9.61135 7.82761C9.61135 7.82761 11.1273 8.7788 11.2414 9.6442L11.6044 9.97953C11.6044 9.97953 11.0383 10.7819 10.8835 11.0616C10.781 11.2467 10.5654 11.4056 10.4313 11.4918Z" fill="#F7FCFF"/>
<path fill-rule="evenodd" clip-rule="evenodd" d="M11.9461 9.4571L12.4949 9.83101L11.8643 10.0392L11.6782 10.6766L11.2854 10.1412L10.6217 10.1613L11.0095 9.62225L10.7853 8.99717L11.4178 9.19943L11.943 8.79304L11.9461 9.4571Z" fill="#FECA00"/>
<path fill-rule="evenodd" clip-rule="evenodd" d="M8.55181 8.47819C8.44027 8.52096 8.31609 8.45873 8.28359 8.34379C8.25515 8.24319 8.30771 8.13743 8.40507 8.09935L9.41411 7.70469C9.50688 7.66841 9.61233 7.70345 9.66493 7.78805C9.73349 7.89829 9.68463 8.0437 9.56342 8.09019L8.55181 8.47819Z" fill="#FECA00"/>
<path d="M9.83129 5.88248C9.76906 5.86073 9.73582 5.79143 9.75705 5.72768C9.77827 5.66394 9.87797 5.55746 9.9402 5.5792L10.8081 5.88248C10.8529 5.89812 10.8844 5.93945 10.8883 5.98775L10.9659 6.93967C10.9714 7.00679 10.8736 7.06109 10.8081 7.06669C10.7426 7.0723 10.685 7.02243 10.6795 6.95531L10.6077 6.13669L9.83129 5.88248Z" fill="#FECA00"/>
<path d="M11.3403 5.38377C11.3922 5.3424 11.4848 5.39036 11.5252 5.4435C11.5656 5.49664 11.5563 5.57326 11.5044 5.61464L10.9032 6.23085C10.8513 6.27223 10.7346 6.19152 10.6942 6.13837C10.6539 6.08523 10.6424 5.94047 10.6942 5.89909L11.3403 5.38377Z" fill="#FECA00"/>
</g>
</g>
<rect x="3" y="1" width="16" height="12" fill="url(#paint0_linear)" style="mix-blend-mode:overlay"/>
</g>
<defs>
<filter id="filter0_d" x="0" y="0" width="22" height="18" filterUnits="userSpaceOnUse" color-interpolation-filters="sRGB">
<feFlood flood-opacity="0" result="BackgroundImageFix"/>
<feColorMatrix in="SourceAlpha" type="matrix" values="0 0 0 0 0 0 0 0 0 0 0 0 0 0 0 0 0 0 127 0" result="hardAlpha"/>
<feOffset dy="2"/>
<feGaussianBlur stdDeviation="1.5"/>
<feColorMatrix type="matrix" values="0 0 0 0 0 0 0 0 0 0 0 0 0 0 0 0 0 0 0.1 0"/>
<feBlend mode="normal" in2="BackgroundImageFix" result="effect1_dropShadow"/>
<feBlend mode="normal" in="SourceGraphic" in2="effect1_dropShadow" result="shape"/>
</filter>
<linearGradient id="paint0_linear" x1="11" y1="1" x2="11" y2="13" gradientUnits="userSpaceOnUse">
<stop stop-color="white" stop-opacity="0.7"/>
<stop offset="1" stop-opacity="0.3"/>
</linearGradient>
</defs>
</svg>
