<svg width="22" height="18" viewBox="0 0 22 18" fill="none" xmlns="http://www.w3.org/2000/svg">
<g filter="url(#filter0_d)">
<mask id="mask0" style="mask-type:alpha" maskUnits="userSpaceOnUse" x="3" y="1" width="16" height="12">
<rect x="3" y="1" width="16" height="12" fill="white"/>
</mask>
<g mask="url(#mask0)">
<path fill-rule="evenodd" clip-rule="evenodd" d="M3 1V13H19V1H3Z" fill="#F7FCFF"/>
<mask id="mask1" style="mask-type:alpha" maskUnits="userSpaceOnUse" x="3" y="1" width="16" height="12">
<path fill-rule="evenodd" clip-rule="evenodd" d="M3 1V13H19V1H3Z" fill="white"/>
</mask>
<g mask="url(#mask1)">
<path fill-rule="evenodd" clip-rule="evenodd" d="M2.24716 2.64574L2.99073 3.35426C3.60475 2.77383 4.18411 2.5 4.73469 2.5C5.0007 2.5 5.11399 2.56425 5.42077 2.85426C5.90739 3.31425 6.23488 3.5 6.85043 3.5C7.46598 3.5 7.79347 3.31425 8.28009 2.85426C8.58687 2.56425 8.70016 2.5 8.96617 2.5C9.23218 2.5 9.34547 2.56425 9.65226 2.85426C10.1389 3.31425 10.4664 3.5 11.0819 3.5C11.6975 3.5 12.025 3.31425 12.5116 2.85426C12.8184 2.56425 12.9316 2.5 13.1977 2.5C13.4637 2.5 13.577 2.56425 13.8837 2.85426C14.3704 3.31425 14.6978 3.5 15.3134 3.5C15.9289 3.5 16.2564 3.31425 16.7431 2.85426C17.0498 2.56425 17.1631 2.5 17.4291 2.5C17.9797 2.5 18.5591 2.77383 19.1731 3.35426L19.9167 2.64574C19.1202 1.89283 18.289 1.5 17.4291 1.5C16.8136 1.5 16.4861 1.68575 15.9995 2.14574C15.6927 2.43575 15.5794 2.5 15.3134 2.5C15.0474 2.5 14.9341 2.43575 14.6273 2.14574C14.1407 1.68575 13.8132 1.5 13.1977 1.5C12.5821 1.5 12.2546 1.68575 11.768 2.14574C11.4612 2.43575 11.3479 2.5 11.0819 2.5C10.8159 2.5 10.7026 2.43575 10.3958 2.14574C9.90921 1.68575 9.58172 1.5 8.96617 1.5C8.35063 1.5 8.02313 1.68575 7.53651 2.14574C7.22973 2.43575 7.11644 2.5 6.85043 2.5C6.58442 2.5 6.47113 2.43575 6.16435 2.14574C5.67773 1.68575 5.35023 1.5 4.73469 1.5C3.87478 1.5 3.04364 1.89283 2.24716 2.64574ZM2.99073 5.35426L2.24716 4.64574C3.04364 3.89283 3.87478 3.5 4.73469 3.5C5.35023 3.5 5.67773 3.68575 6.16435 4.14574C6.47113 4.43575 6.58442 4.5 6.85043 4.5C7.11644 4.5 7.22973 4.43575 7.53651 4.14574C8.02313 3.68575 8.35063 3.5 8.96617 3.5C9.58172 3.5 9.90921 3.68575 10.3958 4.14574C10.7026 4.43575 10.8159 4.5 11.0819 4.5C11.3479 4.5 11.4612 4.43575 11.768 4.14574C12.2546 3.68575 12.5821 3.5 13.1977 3.5C13.8132 3.5 14.1407 3.68575 14.6273 4.14574C14.9341 4.43575 15.0474 4.5 15.3134 4.5C15.5794 4.5 15.6927 4.43575 15.9995 4.14574C16.4861 3.68575 16.8136 3.5 17.4291 3.5C18.289 3.5 19.1202 3.89283 19.9167 4.64574L19.1731 5.35426C18.5591 4.77383 17.9797 4.5 17.4291 4.5C17.1631 4.5 17.0498 4.56425 16.7431 4.85426C16.2564 5.31425 15.9289 5.5 15.3134 5.5C14.6978 5.5 14.3704 5.31425 13.8837 4.85426C13.577 4.56425 13.4637 4.5 13.1977 4.5C12.9316 4.5 12.8184 4.56425 12.5116 4.85426C12.025 5.31425 11.6975 5.5 11.0819 5.5C10.4664 5.5 10.1389 5.31425 9.65226 4.85426C9.34547 4.56425 9.23218 4.5 8.96617 4.5C8.70016 4.5 8.58687 4.56425 8.28009 4.85426C7.79347 5.31425 7.46598 5.5 6.85043 5.5C6.23488 5.5 5.90739 5.31425 5.42077 4.85426C5.11399 4.56425 5.0007 4.5 4.73469 4.5C4.18411 4.5 3.60475 4.77383 2.99073 5.35426ZM2.99073 7.35426L2.24716 6.64574C3.04364 5.89283 3.87478 5.5 4.73469 5.5C5.35023 5.5 5.67773 5.68575 6.16435 6.14574C6.47113 6.43575 6.58442 6.5 6.85043 6.5C7.11644 6.5 7.22973 6.43575 7.53651 6.14574C8.02313 5.68575 8.35063 5.5 8.96617 5.5C9.58172 5.5 9.90921 5.68575 10.3958 6.14574C10.7026 6.43575 10.8159 6.5 11.0819 6.5C11.3479 6.5 11.4612 6.43575 11.768 6.14574C12.2546 5.68575 12.5821 5.5 13.1977 5.5C13.8132 5.5 14.1407 5.68575 14.6273 6.14574C14.9341 6.43575 15.0474 6.5 15.3134 6.5C15.5794 6.5 15.6927 6.43575 15.9995 6.14574C16.4861 5.68575 16.8136 5.5 17.4291 5.5C18.289 5.5 19.1202 5.89283 19.9167 6.64574L19.1731 7.35426C18.5591 6.77383 17.9797 6.5 17.4291 6.5C17.1631 6.5 17.0498 6.56425 16.7431 6.85426C16.2564 7.31425 15.9289 7.5 15.3134 7.5C14.6978 7.5 14.3704 7.31425 13.8837 6.85426C13.577 6.56425 13.4637 6.5 13.1977 6.5C12.9316 6.5 12.8184 6.56425 12.5116 6.85426C12.025 7.31425 11.6975 7.5 11.0819 7.5C10.4664 7.5 10.1389 7.31425 9.65226 6.85426C9.34547 6.56425 9.23218 6.5 8.96617 6.5C8.70016 6.5 8.58687 6.56425 8.28009 6.85426C7.79347 7.31425 7.46598 7.5 6.85043 7.5C6.23488 7.5 5.90739 7.31425 5.42077 6.85426C5.11399 6.56425 5.0007 6.5 4.73469 6.5C4.18411 6.5 3.60475 6.77383 2.99073 7.35426ZM2.99073 9.35426L2.24716 8.64574C3.04364 7.89283 3.87478 7.5 4.73469 7.5C5.35023 7.5 5.67773 7.68575 6.16435 8.14574C6.47113 8.43575 6.58442 8.5 6.85043 8.5C7.11644 8.5 7.22973 8.43575 7.53651 8.14574C8.02313 7.68575 8.35063 7.5 8.96617 7.5C9.58172 7.5 9.90921 7.68575 10.3958 8.14574C10.7026 8.43575 10.8159 8.5 11.0819 8.5C11.3479 8.5 11.4612 8.43575 11.768 8.14574C12.2546 7.68575 12.5821 7.5 13.1977 7.5C13.8132 7.5 14.1407 7.68575 14.6273 8.14574C14.9341 8.43575 15.0474 8.5 15.3134 8.5C15.5794 8.5 15.6927 8.43575 15.9995 8.14574C16.4861 7.68575 16.8136 7.5 17.4291 7.5C18.289 7.5 19.1202 7.89283 19.9167 8.64574L19.1731 9.35426C18.5591 8.77383 17.9797 8.5 17.4291 8.5C17.1631 8.5 17.0498 8.56425 16.7431 8.85426C16.2564 9.31425 15.9289 9.5 15.3134 9.5C14.6978 9.5 14.3704 9.31425 13.8837 8.85426C13.577 8.56425 13.4637 8.5 13.1977 8.5C12.9316 8.5 12.8184 8.56425 12.5116 8.85426C12.025 9.31425 11.6975 9.5 11.0819 9.5C10.4664 9.5 10.1389 9.31425 9.65226 8.85426C9.34547 8.56425 9.23218 8.5 8.96617 8.5C8.70016 8.5 8.58687 8.56425 8.28009 8.85426C7.79347 9.31425 7.46598 9.5 6.85043 9.5C6.23488 9.5 5.90739 9.31425 5.42077 8.85426C5.11399 8.56425 5.0007 8.5 4.73469 8.5C4.18411 8.5 3.60475 8.77383 2.99073 9.35426ZM2.99073 11.3543L2.24716 10.6457C3.04364 9.89283 3.87478 9.5 4.73469 9.5C5.35023 9.5 5.67773 9.68575 6.16435 10.1457C6.47113 10.4357 6.58442 10.5 6.85043 10.5C7.11644 10.5 7.22973 10.4357 7.53651 10.1457C8.02313 9.68575 8.35063 9.5 8.96617 9.5C9.58172 9.5 9.90921 9.68575 10.3958 10.1457C10.7026 10.4357 10.8159 10.5 11.0819 10.5C11.3479 10.5 11.4612 10.4357 11.768 10.1457C12.2546 9.68575 12.5821 9.5 13.1977 9.5C13.8132 9.5 14.1407 9.68575 14.6273 10.1457C14.9341 10.4357 15.0474 10.5 15.3134 10.5C15.5794 10.5 15.6927 10.4357 15.9995 10.1457C16.4861 9.68575 16.8136 9.5 17.4291 9.5C18.289 9.5 19.1202 9.89283 19.9167 10.6457L19.1731 11.3543C18.5591 10.7738 17.9797 10.5 17.4291 10.5C17.1631 10.5 17.0498 10.5643 16.7431 10.8543C16.2564 11.3143 15.9289 11.5 15.3134 11.5C14.6978 11.5 14.3704 11.3143 13.8837 10.8543C13.577 10.5643 13.4637 10.5 13.1977 10.5C12.9316 10.5 12.8184 10.5643 12.5116 10.8543C12.025 11.3143 11.6975 11.5 11.0819 11.5C10.4664 11.5 10.1389 11.3143 9.65226 10.8543C9.34547 10.5643 9.23218 10.5 8.96617 10.5C8.70016 10.5 8.58687 10.5643 8.28009 10.8543C7.79347 11.3143 7.46598 11.5 6.85043 11.5C6.23488 11.5 5.90739 11.3143 5.42077 10.8543C5.11399 10.5643 5.0007 10.5 4.73469 10.5C4.18411 10.5 3.60475 10.7738 2.99073 11.3543ZM2.99073 13.3543L2.24716 12.6457C3.04364 11.8928 3.87478 11.5 4.73469 11.5C5.35023 11.5 5.67773 11.6857 6.16435 12.1457C6.47113 12.4357 6.58442 12.5 6.85043 12.5C7.11644 12.5 7.22973 12.4357 7.53651 12.1457C8.02313 11.6857 8.35063 11.5 8.96617 11.5C9.58172 11.5 9.90921 11.6857 10.3958 12.1457C10.7026 12.4357 10.8159 12.5 11.0819 12.5C11.3479 12.5 11.4612 12.4357 11.768 12.1457C12.2546 11.6857 12.5821 11.5 13.1977 11.5C13.8132 11.5 14.1407 11.6857 14.6273 12.1457C14.9341 12.4357 15.0474 12.5 15.3134 12.5C15.5794 12.5 15.6927 12.4357 15.9995 12.1457C16.4861 11.6857 16.8136 11.5 17.4291 11.5C18.289 11.5 19.1202 11.8928 19.9167 12.6457L19.1731 13.3543C18.5591 12.7738 17.9797 12.5 17.4291 12.5C17.1631 12.5 17.0498 12.5643 16.7431 12.8543C16.2564 13.3143 15.9289 13.5 15.3134 13.5C14.6978 13.5 14.3704 13.3143 13.8837 12.8543C13.577 12.5643 13.4637 12.5 13.1977 12.5C12.9316 12.5 12.8184 12.5643 12.5116 12.8543C12.025 13.3143 11.6975 13.5 11.0819 13.5C10.4664 13.5 10.1389 13.3143 9.65226 12.8543C9.34547 12.5643 9.23218 12.5 8.96617 12.5C8.70016 12.5 8.58687 12.5643 8.28009 12.8543C7.79347 13.3143 7.46598 13.5 6.85043 13.5C6.23488 13.5 5.90739 13.3143 5.42077 12.8543C5.11399 12.5643 5.0007 12.5 4.73469 12.5C4.18411 12.5 3.60475 12.7738 2.99073 13.3543Z" fill="#2E42A5"/>
<mask id="mask2" style="mask-type:alpha" maskUnits="userSpaceOnUse" x="3" y="1" width="7" height="5">
<rect x="3" y="1" width="7" height="5" fill="white"/>
</mask>
<g mask="url(#mask2)">
<rect x="3" y="1" width="7" height="6" fill="#2E42A5"/>
<path d="M1.92111 6.6666L3.74924 7.43869L11.1953 1.72834L12.1596 0.580997L10.2047 0.322942L7.16763 2.78369L4.72309 4.44166L1.92111 6.6666Z" fill="white"/>
<path d="M2.17139 7.20755L3.10274 7.65561L11.8134 0.474402H10.5056L2.17139 7.20755Z" fill="#F50100"/>
<path d="M12.0789 6.6666L10.2508 7.43869L2.80467 1.72834L1.84037 0.580997L3.79529 0.322942L6.83237 2.78369L9.27691 4.44166L12.0789 6.6666Z" fill="white"/>
<path d="M12.0165 7.05481L11.0852 7.50287L7.37609 4.42822L6.27643 4.0847L1.74758 0.584906H3.0553L7.5816 4.00163L8.78389 4.41355L12.0165 7.05481Z" fill="#F50100"/>
<mask id="path-12-outside-1" maskUnits="userSpaceOnUse" x="2.00775" y="0" width="9" height="7" fill="black">
<rect fill="white" x="2.00775" width="9" height="7"/>
<path fill-rule="evenodd" clip-rule="evenodd" d="M7.00001 1H6.00001V3H3.00775V4H6.00001V6H7.00001V4H10.0078V3H7.00001V1Z"/>
</mask>
<path fill-rule="evenodd" clip-rule="evenodd" d="M7.00001 1H6.00001V3H3.00775V4H6.00001V6H7.00001V4H10.0078V3H7.00001V1Z" fill="#F50100"/>
<path d="M6.00001 1V0.5H5.50001V1H6.00001ZM7.00001 1H7.50001V0.5H7.00001V1ZM6.00001 3V3.5H6.50001V3H6.00001ZM3.00775 3V2.5H2.50775V3H3.00775ZM3.00775 4H2.50775V4.5H3.00775V4ZM6.00001 4H6.50001V3.5H6.00001V4ZM6.00001 6H5.50001V6.5H6.00001V6ZM7.00001 6V6.5H7.50001V6H7.00001ZM7.00001 4V3.5H6.50001V4H7.00001ZM10.0078 4V4.5H10.5078V4H10.0078ZM10.0078 3H10.5078V2.5H10.0078V3ZM7.00001 3H6.50001V3.5H7.00001V3ZM6.00001 1.5H7.00001V0.5H6.00001V1.5ZM6.50001 3V1H5.50001V3H6.50001ZM3.00775 3.5H6.00001V2.5H3.00775V3.5ZM3.50775 4V3H2.50775V4H3.50775ZM6.00001 3.5H3.00775V4.5H6.00001V3.5ZM6.50001 6V4H5.50001V6H6.50001ZM7.00001 5.5H6.00001V6.5H7.00001V5.5ZM6.50001 4V6H7.50001V4H6.50001ZM10.0078 3.5H7.00001V4.5H10.0078V3.5ZM9.50775 3V4H10.5078V3H9.50775ZM7.00001 3.5H10.0078V2.5H7.00001V3.5ZM6.50001 1V3H7.50001V1H6.50001Z" fill="#F7FCFF" mask="url(#path-12-outside-1)"/>
</g>
<rect x="13.2" y="5.6893" width="0.5" height="6.31068" rx="0.25" fill="#D86D00"/>
<path d="M13.2021 2.02875C13.713 2.72935 13.7777 3.67016 13.713 4.51303L13.3141 4.48415C13.3758 3.6801 13.2021 2.02875 13.2021 2.02875Z" fill="#449A01"/>
<path d="M13.8536 4.69204L13.4856 4.53967C13.8403 3.41742 15.6098 2.46185 15.6098 2.46185C14.8172 2.84056 14.5477 3.86736 13.8536 4.69204Z" fill="#449A01"/>
<path d="M13.6882 4.92518L13.495 4.58515C14.4408 3.92751 15.969 3.78561 15.969 3.78561C15.1806 4.00932 14.3844 4.55222 13.6882 4.92518Z" fill="#449A01"/>
<path d="M13.4421 5.09062L13.6088 4.73758C15.4589 5.3119 15.7302 6.27223 15.7302 6.27223C15.4874 6.05793 14.7158 5.65733 13.4421 5.09062Z" fill="#449A01"/>
<path d="M13.2476 5.06487L13.6405 4.99182C13.7765 5.68127 14.1271 6.09902 14.3126 6.54158C14.3126 6.54158 13.2742 6.07781 13.2476 5.06487Z" fill="#449A01"/>
<path d="M13.2177 4.74155L13.6413 4.84807C12.9463 5.69774 11.9136 6.14407 11.5052 6.28998C11.5052 6.28998 12.4025 5.48066 13.2177 4.74155Z" fill="#449A01"/>
<path d="M13.4058 4.55762L13.3414 4.95241C12.5138 4.7 11.0242 4.80575 11.0242 4.80575C11.6495 4.65765 12.5138 4.4123 13.4058 4.55762Z" fill="#449A01"/>
<path d="M13.4773 4.35562L13.3146 4.71038C12.0927 4.18205 11.4396 3.19452 11.4396 3.19452C11.481 3.37617 12.3983 3.88909 13.4773 4.35562Z" fill="#449A01"/>
<path fill-rule="evenodd" clip-rule="evenodd" d="M13.5 5C13.7761 5 14 4.77614 14 4.5C14 4.22386 13.7761 4 13.5 4C13.2239 4 13 4.22386 13 4.5C13 4.77614 13.2239 5 13.5 5Z" fill="#449A01"/>
<path fill-rule="evenodd" clip-rule="evenodd" d="M14.956 8.65374V8.58157C14.7255 8.3996 14.4842 8.30862 14.232 8.30862C13.9903 8.19089 13.7455 8.1452 13.4979 8.17153C13.4979 8.17069 13.498 8.17026 13.498 8.17026C13.1256 8.13016 12.7503 8.30862 12.7503 8.30862C12.372 8.30862 12.0264 8.58157 12.0264 8.58157V8.65374L12.4782 9.15308C12.4782 9.15308 12.6054 9.6337 13.4961 9.52074V9.52197C13.4961 9.52197 14.0859 9.50425 14.1273 9.48909C14.1438 9.48307 14.1608 9.47759 14.1782 9.472C14.2938 9.43489 14.4256 9.39253 14.5041 9.15308L14.956 8.65374ZM13.4961 8.19361C13.4833 8.35985 13.4099 9.362 13.4961 9.51736V8.19361Z" fill="#F50100"/>
<path fill-rule="evenodd" clip-rule="evenodd" d="M13.0973 7.87593C12.8924 7.87593 12.8083 7.93083 12.7602 8.09293C12.7296 8.19622 12.7593 8.28439 12.8556 8.36669L12.8007 8.44455C12.681 8.34226 12.6357 8.21789 12.6703 8.07965C12.4384 8.0709 12.2652 8.0979 12.1516 8.15891C12.0531 8.21182 12.0351 8.34605 12.1096 8.57956L12.0251 8.61223C11.9374 8.33744 11.9624 8.15082 12.1123 8.07032C12.2444 7.99938 12.4368 7.97051 12.6907 7.98183L12.6893 8.01953C12.7543 7.84484 12.8739 7.77734 13.0973 7.77734C13.2317 7.77734 13.3409 7.81045 13.4232 7.87767V7.83426H13.6024V7.8593C13.6796 7.80953 13.7767 7.78496 13.8925 7.78496C14.1205 7.78496 14.2404 7.8553 14.3045 8.03821L14.3042 8.03113C14.558 8.01981 14.7505 8.04868 14.8826 8.11961C15.0325 8.20011 15.0575 8.38673 14.9698 8.66153L14.8853 8.62886C14.9598 8.39535 14.9418 8.26111 14.8433 8.20821C14.7302 8.14745 14.558 8.12042 14.3275 8.12884C14.3442 8.25047 14.2967 8.36024 14.1891 8.45217L14.1341 8.3743C14.2304 8.29201 14.2602 8.20384 14.2295 8.10054C14.1815 7.93845 14.0973 7.88355 13.8925 7.88355C13.7653 7.88355 13.6692 7.91616 13.6024 7.98005V8.41324L13.6024 8.47508H13.4232V8.40562H13.3874V7.97243C13.3205 7.90854 13.2245 7.87593 13.0973 7.87593ZM12.0842 8.70257L12.0535 8.73847L12.4644 9.16386C12.4777 9.19088 12.4896 9.21585 12.5 9.23871C12.511 9.28761 12.5276 9.34182 12.5513 9.37495C12.5534 9.38457 12.5545 9.39255 12.5545 9.39885C12.5545 9.44967 12.6747 9.47983 12.9092 9.51081C13.0929 9.53508 13.3097 9.55137 13.4871 9.55381V9.55412L13.5095 9.55404L13.532 9.55412V9.55381C13.7094 9.55137 13.9262 9.53508 14.1099 9.51081C14.3444 9.47983 14.4646 9.44967 14.4646 9.39885C14.4646 9.36554 14.4948 9.28535 14.5547 9.16386L14.9656 8.73847L14.9349 8.70257L14.5214 9.13067L14.5171 9.13683C14.4996 9.1721 14.4845 9.20405 14.4718 9.2328C14.4838 9.17787 14.4888 9.13116 14.4888 9.13116C14.4888 9.13116 14.0263 8.98636 13.5032 8.97989V8.97967L13.4852 8.97972L13.4672 8.97967V8.97989C12.9951 8.98573 12.5723 9.10426 12.4944 9.12729L12.0842 8.70257ZM14.4232 9.36891C14.4033 9.39985 14.3782 9.41598 14.3468 9.39981C14.2489 9.34943 13.6017 9.30214 13.4852 9.29398C13.3687 9.30214 12.7215 9.34943 12.6236 9.39981L12.6188 9.40207C12.6333 9.4079 12.6531 9.41401 12.6777 9.42018C12.7353 9.43464 12.8173 9.44902 12.9145 9.46187C13.1044 9.48695 13.3301 9.50345 13.5095 9.50475C13.689 9.50345 13.9147 9.48695 14.1046 9.46187C14.2018 9.44902 14.2838 9.43464 14.3414 9.42018C14.3707 9.41282 14.3933 9.40555 14.408 9.39872C14.4133 9.39627 14.4174 9.394 14.42 9.3921C14.4204 9.38518 14.4215 9.37745 14.4232 9.36891ZM14.4761 9.39165L14.4769 9.39078L14.4766 9.39102L14.4761 9.39165Z" fill="#FECA00"/>
<path d="M12.7018 7.94158L12.701 7.99086C12.3038 7.98323 12.0759 8.04702 12.0181 8.17415C11.9583 8.30558 11.9694 8.46536 12.0532 8.65516L12.0129 8.6767C11.9235 8.47419 11.9113 8.29876 11.978 8.15208C12.0467 8.0011 12.2878 7.93362 12.7018 7.94158Z" fill="white"/>
<path d="M12.7787 8.37867L12.7557 8.421C12.6692 8.36416 12.6259 8.26717 12.6259 8.1335C12.6259 7.94139 12.7158 7.82874 12.9148 7.75165C13.0417 7.70244 13.2152 7.72262 13.4356 7.81055L13.4203 7.85689C13.2087 7.77248 13.045 7.75344 12.9296 7.79814C12.7472 7.86885 12.6707 7.96466 12.6707 8.1335C12.6707 8.2508 12.7066 8.33136 12.7787 8.37867Z" fill="white"/>
<path d="M14.2652 7.99086L14.266 8.04015C14.6632 8.03252 14.8911 8.0963 14.9489 8.22344C15.0087 8.35487 14.9976 8.51465 14.9138 8.70444L14.9541 8.72598C15.0435 8.52348 15.0557 8.34805 14.989 8.20137C14.9203 8.05039 14.6792 7.98291 14.2652 7.99086Z" fill="white"/>
<path d="M14.1249 8.38893L14.1479 8.43125C14.2344 8.37442 14.2777 8.27742 14.2777 8.14375C14.2777 7.95165 14.1877 7.83899 13.9888 7.7619C13.8618 7.7127 13.6884 7.73287 13.468 7.8208L13.4833 7.86714C13.6948 7.78273 13.8586 7.76369 13.9739 7.8084C14.1564 7.87911 14.2329 7.97491 14.2329 8.14375C14.2329 8.26105 14.1969 8.34162 14.1249 8.38893Z" fill="white"/>
</g>
</g>
<rect x="3" y="1" width="16" height="12" fill="url(#paint0_linear)" style="mix-blend-mode:overlay"/>
</g>
<defs>
<filter id="filter0_d" x="0" y="0" width="22" height="18" filterUnits="userSpaceOnUse" color-interpolation-filters="sRGB">
<feFlood flood-opacity="0" result="BackgroundImageFix"/>
<feColorMatrix in="SourceAlpha" type="matrix" values="0 0 0 0 0 0 0 0 0 0 0 0 0 0 0 0 0 0 127 0" result="hardAlpha"/>
<feOffset dy="2"/>
<feGaussianBlur stdDeviation="1.5"/>
<feColorMatrix type="matrix" values="0 0 0 0 0 0 0 0 0 0 0 0 0 0 0 0 0 0 0.1 0"/>
<feBlend mode="normal" in2="BackgroundImageFix" result="effect1_dropShadow"/>
<feBlend mode="normal" in="SourceGraphic" in2="effect1_dropShadow" result="shape"/>
</filter>
<linearGradient id="paint0_linear" x1="11" y1="1" x2="11" y2="13" gradientUnits="userSpaceOnUse">
<stop stop-color="white" stop-opacity="0.7"/>
<stop offset="1" stop-opacity="0.3"/>
</linearGradient>
</defs>
</svg>
