<svg width="22" height="18" viewBox="0 0 22 18" fill="none" xmlns="http://www.w3.org/2000/svg">
<g filter="url(#filter0_d)">
<mask id="mask0" style="mask-type:alpha" maskUnits="userSpaceOnUse" x="3" y="1" width="16" height="12">
<rect x="3" y="1" width="16" height="12" fill="white"/>
</mask>
<g mask="url(#mask0)">
<path fill-rule="evenodd" clip-rule="evenodd" d="M3 1V13H19V1H3Z" fill="#F7FCFF"/>
<mask id="mask1" style="mask-type:alpha" maskUnits="userSpaceOnUse" x="3" y="1" width="16" height="12">
<path fill-rule="evenodd" clip-rule="evenodd" d="M3 1V13H19V1H3Z" fill="white"/>
</mask>
<g mask="url(#mask1)">
<path fill-rule="evenodd" clip-rule="evenodd" d="M3 1V5H19V1H3Z" fill="#BF2714"/>
<path fill-rule="evenodd" clip-rule="evenodd" d="M3 9V13H19V9H3Z" fill="#272727"/>
<path fill-rule="evenodd" clip-rule="evenodd" d="M5.66831 7.4056C6.12311 8.0583 5.5 8.5 5.5 8.5C5.5 8.5 6.04475 8.5 6.25337 8.06282H10.7121V7.09991C10.7121 7.09991 10.6188 6.63749 10.2218 6.63749C9.82476 6.63749 9.7353 7.09991 9.7353 7.09991H8.16706L9.68441 5.76043L9.38939 5.5L7.70401 6.98781V7.30326H10.0966V7.11756C10.0966 7.11756 10.11 7.01006 10.2218 7.01006C10.3336 7.01006 10.3064 7.11756 10.3064 7.11756V7.51419H7.29131V6.97184L6.96484 7.11756V7.51419C6.96484 7.51419 6.56501 7.4056 6.31233 7.4056C6.05965 7.4056 6.04475 7.11756 6.04475 7.11756L5.66831 7.4056ZM11.7233 7.44265L11.9678 8.05153H10.9948V5.60719L11.4052 5.73857V7.44265H11.7233ZM16.2555 7.44265L16.5 8.05153H15.527V5.60719L15.9374 5.73857V7.44265H16.2555ZM15.0507 5.63248L14.7972 5.80407V7.44097H14.539V6.12814L14.1136 6.3734V7.44097H13.8281V6.69975L13.5047 6.90788V7.1091C13.5047 7.1091 12.8827 7.15199 12.8827 8.03142H15.0482L15.0507 5.63248ZM6.74589 8.48282C6.82411 8.48282 6.88752 8.42685 6.88752 8.3578C6.88752 8.28875 6.82411 8.23277 6.74589 8.23277C6.66767 8.23277 6.60426 8.28875 6.60426 8.3578C6.60426 8.42685 6.66767 8.48282 6.74589 8.48282ZM13.9573 5.82083C13.8473 5.96579 13.5136 5.82083 13.5136 5.82083L14.4599 5.7112C14.3621 5.90199 13.9573 5.82083 13.9573 5.82083Z" fill="#009C4E"/>
<path d="M5.5 8.5L5.35542 8.29604L4.71502 8.75H5.5V8.5ZM5.66831 7.4056L5.51639 7.20706L5.32651 7.35236L5.4632 7.54853L5.66831 7.4056ZM6.25337 8.06282V7.81282H6.09567L6.02775 7.95515L6.25337 8.06282ZM10.7121 8.06282V8.31282H10.9621V8.06282H10.7121ZM10.7121 7.09991H10.9621V7.07495L10.9571 7.05048L10.7121 7.09991ZM9.7353 7.09991V7.34991H9.94157L9.98075 7.14739L9.7353 7.09991ZM8.16706 7.09991L8.00161 6.91249L7.5061 7.34991H8.16706V7.09991ZM9.68441 5.76043L9.84986 5.94785L10.0622 5.76043L9.84986 5.57301L9.68441 5.76043ZM9.38939 5.5L9.55484 5.31258L9.38939 5.16653L9.22394 5.31258L9.38939 5.5ZM7.70401 6.98781L7.53856 6.80039L7.45401 6.87502V6.98781H7.70401ZM7.70401 7.30326H7.45401V7.55326H7.70401V7.30326ZM10.0966 7.30326V7.55326H10.3466V7.30326H10.0966ZM10.0966 7.11756L9.84849 7.08655L9.84656 7.102V7.11756H10.0966ZM10.3064 7.11756L10.064 7.05621L10.0564 7.08641V7.11756H10.3064ZM10.3064 7.51419V7.76419H10.5564V7.51419H10.3064ZM7.29131 7.51419H7.04131V7.76419H7.29131V7.51419ZM7.29131 6.97184H7.54131V6.58649L7.18941 6.74355L7.29131 6.97184ZM6.96484 7.11756L6.86295 6.88926L6.71484 6.95537V7.11756H6.96484ZM6.96484 7.51419L6.89932 7.75545L7.21484 7.84114V7.51419H6.96484ZM6.04475 7.11756L6.29441 7.10464L6.26987 6.6305L5.89282 6.91901L6.04475 7.11756ZM11.9678 8.05153V8.30153H12.3376L12.1998 7.95837L11.9678 8.05153ZM11.7233 7.44265L11.9553 7.34949L11.8923 7.19265H11.7233V7.44265ZM10.9948 8.05153H10.7448V8.30153H10.9948V8.05153ZM10.9948 5.60719L11.071 5.36909L10.7448 5.26466V5.60719H10.9948ZM11.4052 5.73857H11.6552V5.5561L11.4815 5.50047L11.4052 5.73857ZM11.4052 7.44265H11.1552V7.69265H11.4052V7.44265ZM16.5 8.05153V8.30153H16.8698L16.732 7.95837L16.5 8.05153ZM16.2555 7.44265L16.4875 7.34949L16.4245 7.19265H16.2555V7.44265ZM15.527 8.05153H15.277V8.30153H15.527V8.05153ZM15.527 5.60719L15.6032 5.36909L15.277 5.26466V5.60719H15.527ZM15.9374 5.73857H16.1874V5.5561L16.0136 5.50047L15.9374 5.73857ZM15.9374 7.44265H15.6874V7.69265H15.9374V7.44265ZM14.7972 5.80407L14.6571 5.59704L14.5472 5.67141V5.80407H14.7972ZM15.0507 5.63248L15.3007 5.63274L15.3012 5.16105L14.9106 5.42545L15.0507 5.63248ZM14.7972 7.44097V7.69097H15.0472V7.44097H14.7972ZM14.539 7.44097H14.289V7.69097H14.539V7.44097ZM14.539 6.12814H14.789V5.69544L14.4141 5.91156L14.539 6.12814ZM14.1136 6.3734L13.9887 6.15682L13.8636 6.22896V6.3734H14.1136ZM14.1136 7.44097V7.69097H14.3636V7.44097H14.1136ZM13.8281 7.44097H13.5781V7.69097H13.8281V7.44097ZM13.8281 6.69975H14.0781V6.24155L13.6928 6.48953L13.8281 6.69975ZM13.5047 6.90788L13.3694 6.69766L13.2547 6.77148V6.90788H13.5047ZM13.5047 7.1091L13.5219 7.35851L13.7547 7.34246V7.1091H13.5047ZM12.8827 8.03142H12.6327V8.28142H12.8827V8.03142ZM15.0482 8.03142V8.28142H15.298L15.2982 8.03168L15.0482 8.03142ZM13.5136 5.82083L13.4848 5.57249L12.5608 5.67954L13.414 6.05013L13.5136 5.82083ZM13.9573 5.82083L14.0064 5.57571L13.8528 5.54491L13.7581 5.66975L13.9573 5.82083ZM14.4599 5.7112L14.6824 5.82517L14.8955 5.40905L14.4311 5.46286L14.4599 5.7112ZM5.5 8.5C5.64458 8.70396 5.64468 8.70388 5.64479 8.7038C5.64483 8.70377 5.64494 8.7037 5.64502 8.70364C5.64518 8.70353 5.64535 8.70341 5.64552 8.70328C5.64588 8.70303 5.64627 8.70274 5.64671 8.70243C5.64757 8.70181 5.64859 8.70107 5.64975 8.70021C5.65208 8.6985 5.655 8.69633 5.65845 8.6937C5.66534 8.68844 5.67441 8.68133 5.68519 8.67242C5.70668 8.65465 5.73538 8.6294 5.76754 8.59705C5.83107 8.53316 5.91247 8.43719 5.97694 8.31206C6.04201 8.18578 6.09136 8.0265 6.08367 7.84157C6.07592 7.65534 6.01099 7.46009 5.87343 7.26268L5.4632 7.54853C5.55304 7.67746 5.58077 7.78219 5.5841 7.86235C5.58749 7.94381 5.56633 8.01733 5.53247 8.08306C5.49801 8.14994 5.45207 8.2052 5.41297 8.24452C5.39382 8.26378 5.37739 8.27814 5.36659 8.28707C5.36122 8.29151 5.35733 8.29453 5.35532 8.29606C5.35432 8.29683 5.35379 8.29721 5.35379 8.29721C5.35379 8.29721 5.35392 8.29712 5.35419 8.29692C5.35433 8.29683 5.3545 8.2967 5.3547 8.29656C5.3548 8.29648 5.35492 8.29641 5.35504 8.29632C5.3551 8.29628 5.35519 8.29621 5.35522 8.29619C5.35532 8.29612 5.35542 8.29604 5.5 8.5ZM6.02775 7.95515C5.96288 8.09109 5.84378 8.16629 5.71866 8.20843C5.65698 8.2292 5.59932 8.23983 5.55719 8.24512C5.53639 8.24774 5.52009 8.24897 5.50989 8.24953C5.5048 8.24982 5.5013 8.24993 5.49957 8.24998C5.4987 8.25 5.49829 8.25001 5.49835 8.25001C5.49838 8.25001 5.49853 8.25001 5.49881 8.25C5.49894 8.25 5.49911 8.25 5.49931 8.25C5.49941 8.25 5.49952 8.25 5.49963 8.25C5.49969 8.25 5.49978 8.25 5.49981 8.25C5.4999 8.25 5.5 8.25 5.5 8.5C5.5 8.75 5.5001 8.75 5.5002 8.75C5.50024 8.75 5.50034 8.75 5.50042 8.75C5.50057 8.75 5.50072 8.75 5.50089 8.75C5.50122 8.75 5.50158 8.75 5.50198 8.74999C5.50278 8.74999 5.50372 8.74998 5.50478 8.74997C5.50692 8.74994 5.50959 8.74989 5.51277 8.74981C5.51912 8.74964 5.52752 8.74933 5.53774 8.74876C5.55814 8.74762 5.58604 8.74543 5.61956 8.74122C5.68609 8.73285 5.77766 8.71615 5.87824 8.68228C6.07765 8.61512 6.33524 8.47173 6.479 8.17049L6.02775 7.95515ZM10.7121 7.81282H6.25337V8.31282H10.7121V7.81282ZM10.4621 7.09991V8.06282H10.9621V7.09991H10.4621ZM10.2218 6.88749C10.3039 6.88749 10.3581 6.9288 10.4044 7.0021C10.4278 7.03917 10.4443 7.07824 10.4549 7.10914C10.4601 7.12417 10.4635 7.13619 10.4655 7.14362C10.4665 7.14731 10.467 7.14978 10.4673 7.15082C10.4674 7.15133 10.4674 7.15149 10.4674 7.15125C10.4674 7.15113 10.4673 7.15091 10.4672 7.15059C10.4672 7.15043 10.4672 7.15025 10.4671 7.15004C10.4671 7.14993 10.4671 7.14982 10.4671 7.1497C10.4671 7.14964 10.467 7.14955 10.467 7.14952C10.467 7.14943 10.467 7.14933 10.7121 7.09991C10.9571 7.05048 10.9571 7.05038 10.9571 7.05028C10.9571 7.05024 10.9571 7.05014 10.957 7.05007C10.957 7.04992 10.957 7.04977 10.9569 7.0496C10.9569 7.04928 10.9568 7.04893 10.9567 7.04855C10.9566 7.04778 10.9564 7.0469 10.9562 7.04591C10.9557 7.04392 10.9552 7.04148 10.9545 7.03861C10.9532 7.03287 10.9514 7.02541 10.9491 7.01645C10.9444 6.99859 10.9374 6.97449 10.9276 6.94617C10.9084 6.89037 10.8768 6.81384 10.8272 6.73529C10.7276 6.5774 10.5367 6.38749 10.2218 6.38749V6.88749ZM9.7353 7.09991C9.98075 7.14739 9.98073 7.14749 9.98071 7.14758C9.9807 7.14761 9.98069 7.14771 9.98068 7.14777C9.98065 7.14789 9.98063 7.148 9.98061 7.1481C9.98057 7.14832 9.98053 7.1485 9.9805 7.14866C9.98043 7.14898 9.98039 7.1492 9.98036 7.14933C9.98031 7.14957 9.98034 7.14942 9.98045 7.14891C9.98068 7.14788 9.98124 7.14543 9.98218 7.14176C9.98406 7.13436 9.98738 7.12238 9.99242 7.1074C10.0028 7.07658 10.0189 7.03769 10.0419 7.00086C10.0871 6.92826 10.1401 6.88749 10.2218 6.88749V6.38749C9.90643 6.38749 9.71622 6.57793 9.61744 6.73654C9.56839 6.81531 9.53735 6.89203 9.51854 6.94791C9.50899 6.97628 9.50222 7.00042 9.49766 7.01831C9.49537 7.02729 9.49362 7.03477 9.49235 7.04051C9.49171 7.04339 9.49119 7.04584 9.49077 7.04783C9.49057 7.04883 9.49039 7.04971 9.49023 7.05048C9.49016 7.05086 9.49009 7.05121 9.49002 7.05154C9.48999 7.0517 9.48996 7.05186 9.48993 7.052C9.48992 7.05208 9.4899 7.05218 9.48989 7.05222C9.48987 7.05232 9.48985 7.05242 9.7353 7.09991ZM8.16706 7.34991H9.7353V6.84991H8.16706V7.34991ZM9.51896 5.57301L8.00161 6.91249L8.33251 7.28733L9.84986 5.94785L9.51896 5.57301ZM9.22394 5.68742L9.51896 5.94785L9.84986 5.57301L9.55484 5.31258L9.22394 5.68742ZM7.86946 7.17523L9.55484 5.68742L9.22394 5.31258L7.53856 6.80039L7.86946 7.17523ZM7.95401 7.30326V6.98781H7.45401V7.30326H7.95401ZM10.0966 7.05326H7.70401V7.55326H10.0966V7.05326ZM9.84656 7.11756V7.30326H10.3466V7.11756H9.84656ZM10.2218 6.76006C10.0675 6.76006 9.96272 6.84214 9.90715 6.92831C9.88239 6.96671 9.8686 7.00328 9.86084 7.0293C9.85683 7.04273 9.85407 7.05456 9.85218 7.06409C9.85122 7.06888 9.85046 7.07319 9.84986 7.07694C9.84957 7.07882 9.8493 7.08056 9.84908 7.08216C9.84896 7.08296 9.84886 7.08373 9.84876 7.08446C9.84871 7.08483 9.84866 7.08519 9.84862 7.08554C9.8486 7.08571 9.84858 7.08588 9.84855 7.08605C9.84854 7.08614 9.84853 7.08626 9.84852 7.08631C9.84851 7.08643 9.84849 7.08655 10.0966 7.11756C10.3446 7.14856 10.3446 7.14868 10.3446 7.14881C10.3446 7.14885 10.3446 7.14897 10.3446 7.14905C10.3445 7.14922 10.3445 7.14938 10.3445 7.14954C10.3445 7.14986 10.3444 7.15018 10.3444 7.15049C10.3443 7.15112 10.3442 7.15174 10.3441 7.15233C10.344 7.15353 10.3438 7.15467 10.3436 7.15576C10.3433 7.15793 10.3429 7.15993 10.3425 7.16179C10.3418 7.16544 10.341 7.16887 10.34 7.17222C10.3382 7.17809 10.3348 7.18778 10.3273 7.1993C10.3195 7.21151 10.3054 7.22837 10.2827 7.24184C10.2586 7.2561 10.2359 7.26006 10.2218 7.26006V6.76006ZM10.3064 7.11756C10.5487 7.1789 10.5487 7.17879 10.5488 7.17867C10.5488 7.17863 10.5488 7.17851 10.5488 7.17843C10.5489 7.17828 10.5489 7.17811 10.5489 7.17795C10.549 7.17762 10.5491 7.17729 10.5492 7.17694C10.5494 7.17625 10.5495 7.17552 10.5497 7.17475C10.5501 7.17322 10.5505 7.17154 10.5509 7.16971C10.5517 7.16606 10.5525 7.16178 10.5534 7.15695C10.5551 7.14741 10.5569 7.13507 10.5581 7.12065C10.5602 7.09393 10.561 7.04969 10.5475 6.99936C10.5334 6.94655 10.5014 6.87982 10.4341 6.82832C10.3669 6.77692 10.29 6.76006 10.2218 6.76006V7.26006C10.2095 7.26006 10.1711 7.25664 10.1302 7.22539C10.0893 7.19405 10.0714 7.15419 10.0644 7.12826C10.0582 7.1048 10.0591 7.08743 10.0596 7.08087C10.06 7.07653 10.0606 7.07258 10.0612 7.06892C10.0615 7.06703 10.0619 7.06507 10.0624 7.06299C10.0626 7.06195 10.0629 7.06087 10.0631 7.05974C10.0633 7.05918 10.0634 7.05861 10.0635 7.05802C10.0636 7.05772 10.0637 7.05743 10.0638 7.05712C10.0638 7.05697 10.0638 7.05682 10.0639 7.05667C10.0639 7.05659 10.0639 7.05648 10.0639 7.05644C10.064 7.05633 10.064 7.05621 10.3064 7.11756ZM10.5564 7.51419V7.11756H10.0564V7.51419H10.5564ZM7.29131 7.76419H10.3064V7.26419H7.29131V7.76419ZM7.04131 6.97184V7.51419H7.54131V6.97184H7.04131ZM7.06674 7.34585L7.3932 7.20014L7.18941 6.74355L6.86295 6.88926L7.06674 7.34585ZM7.21484 7.51419V7.11756H6.71484V7.51419H7.21484ZM6.31233 7.6556C6.41159 7.6556 6.55366 7.67808 6.68281 7.70474C6.74484 7.71754 6.7996 7.73038 6.83877 7.74C6.8583 7.7448 6.87383 7.74877 6.88429 7.75149C6.88952 7.75285 6.89348 7.75389 6.89603 7.75457C6.8973 7.75491 6.89823 7.75516 6.89878 7.75531C6.89906 7.75538 6.89924 7.75543 6.89933 7.75545C6.89938 7.75547 6.8994 7.75547 6.8994 7.75547C6.8994 7.75547 6.89939 7.75547 6.89938 7.75547C6.89937 7.75546 6.89936 7.75546 6.89935 7.75546C6.89934 7.75546 6.89932 7.75545 6.96484 7.51419C7.03036 7.27293 7.03034 7.27292 7.03032 7.27292C7.03031 7.27291 7.03029 7.27291 7.03027 7.2729C7.03023 7.27289 7.03019 7.27288 7.03014 7.27287C7.03004 7.27284 7.02992 7.27281 7.02977 7.27277C7.02947 7.27269 7.02908 7.27258 7.02859 7.27245C7.02762 7.27219 7.02626 7.27183 7.02455 7.27137C7.02112 7.27046 7.01624 7.26917 7.01004 7.26756C6.99765 7.26434 6.97997 7.25982 6.95807 7.25444C6.91437 7.24371 6.85338 7.2294 6.78387 7.21506C6.64994 7.18742 6.46574 7.1556 6.31233 7.1556V7.6556ZM6.04475 7.11756C5.79508 7.13048 5.79509 7.13059 5.79509 7.1307C5.79509 7.13073 5.7951 7.13084 5.7951 7.13092C5.79511 7.13107 5.79512 7.13123 5.79513 7.13139C5.79515 7.13171 5.79517 7.13206 5.79519 7.13242C5.79523 7.13314 5.79528 7.13395 5.79534 7.13482C5.79545 7.13658 5.7956 7.13863 5.79579 7.14097C5.79617 7.14565 5.79672 7.1515 5.7975 7.15835C5.79906 7.17199 5.80161 7.19004 5.80578 7.21111C5.8139 7.25212 5.82929 7.3104 5.85932 7.37165C5.9231 7.50171 6.06331 7.6556 6.31233 7.6556V7.1556C6.3002 7.1556 6.30399 7.15331 6.31149 7.15879C6.3159 7.16202 6.31349 7.1622 6.30825 7.15151C6.30297 7.14075 6.29884 7.12702 6.29626 7.11402C6.29509 7.10809 6.2945 7.10363 6.29426 7.10152C6.29414 7.1005 6.29412 7.10015 6.29416 7.10061C6.29418 7.10084 6.29421 7.10128 6.29425 7.10194C6.29428 7.10228 6.2943 7.10266 6.29433 7.10311C6.29434 7.10334 6.29435 7.10357 6.29437 7.10383C6.29438 7.10396 6.29438 7.10409 6.29439 7.10422C6.29439 7.10429 6.2944 7.10439 6.2944 7.10443C6.29441 7.10453 6.29441 7.10464 6.04475 7.11756ZM5.82024 7.60415L6.19667 7.3161L5.89282 6.91901L5.51639 7.20706L5.82024 7.60415ZM12.1998 7.95837L11.9553 7.34949L11.4913 7.53582L11.7358 8.1447L12.1998 7.95837ZM10.9948 8.30153H11.9678V7.80153H10.9948V8.30153ZM10.7448 5.60719V8.05153H11.2448V5.60719H10.7448ZM11.4815 5.50047L11.071 5.36909L10.9186 5.84529L11.329 5.97666L11.4815 5.50047ZM11.6552 7.44265V5.73857H11.1552V7.44265H11.6552ZM11.7233 7.19265H11.4052V7.69265H11.7233V7.19265ZM16.732 7.95837L16.4875 7.34949L16.0235 7.53582L16.268 8.1447L16.732 7.95837ZM15.527 8.30153H16.5V7.80153H15.527V8.30153ZM15.277 5.60719V8.05153H15.777V5.60719H15.277ZM16.0136 5.50047L15.6032 5.36909L15.4508 5.84529L15.8612 5.97666L16.0136 5.50047ZM16.1874 7.44265V5.73857H15.6874V7.44265H16.1874ZM16.2555 7.19265H15.9374V7.69265H16.2555V7.19265ZM14.9374 6.01111L15.1909 5.83951L14.9106 5.42545L14.6571 5.59704L14.9374 6.01111ZM15.0472 7.44097V5.80407H14.5472V7.44097H15.0472ZM14.539 7.69097H14.7972V7.19097H14.539V7.69097ZM14.289 6.12814V7.44097H14.789V6.12814H14.289ZM14.2384 6.58999L14.6638 6.34473L14.4141 5.91156L13.9887 6.15682L14.2384 6.58999ZM14.3636 7.44097V6.3734H13.8636V7.44097H14.3636ZM13.8281 7.69097H14.1136V7.19097H13.8281V7.69097ZM13.5781 6.69975V7.44097H14.0781V6.69975H13.5781ZM13.64 7.11811L13.9634 6.90997L13.6928 6.48953L13.3694 6.69766L13.64 7.11811ZM13.7547 7.1091V6.90788H13.2547V7.1091H13.7547ZM13.1327 8.03142C13.1327 7.65863 13.2602 7.5053 13.3469 7.438C13.3957 7.40019 13.4444 7.37964 13.4803 7.3687C13.4981 7.36328 13.512 7.36047 13.5199 7.35913C13.5238 7.35847 13.5261 7.35819 13.5265 7.35813C13.5268 7.35811 13.5265 7.35814 13.5258 7.35821C13.5254 7.35824 13.5249 7.35829 13.5242 7.35834C13.5239 7.35836 13.5236 7.35839 13.5232 7.35842C13.523 7.35843 13.5228 7.35845 13.5226 7.35846C13.5225 7.35847 13.5223 7.35848 13.5222 7.35849C13.5221 7.3585 13.5219 7.35851 13.5047 7.1091C13.4875 6.85969 13.4873 6.85971 13.4872 6.85972C13.4871 6.85972 13.4869 6.85974 13.4868 6.85974C13.4865 6.85976 13.4863 6.85978 13.486 6.8598C13.4855 6.85984 13.4849 6.85989 13.4843 6.85994C13.483 6.86004 13.4816 6.86016 13.4801 6.8603C13.477 6.86058 13.4732 6.86096 13.4689 6.86147C13.4602 6.86247 13.4492 6.86397 13.4361 6.8662C13.41 6.87064 13.3752 6.87805 13.3347 6.89039C13.2539 6.91498 13.1472 6.96011 13.0404 7.04295C12.8162 7.21694 12.6327 7.52477 12.6327 8.03142H13.1327ZM15.0482 7.78142H12.8827V8.28142H15.0482V7.78142ZM14.8007 5.63222L14.7982 8.03115L15.2982 8.03168L15.3007 5.63274L14.8007 5.63222ZM6.63752 8.3578C6.63752 8.31241 6.65893 8.2779 6.68059 8.25878C6.70177 8.24009 6.72559 8.23282 6.74589 8.23282V8.73282C6.93198 8.73282 7.13752 8.5933 7.13752 8.3578H6.63752ZM6.74589 8.48277C6.72559 8.48277 6.70177 8.47551 6.68059 8.45681C6.65893 8.43769 6.63752 8.40318 6.63752 8.3578H7.13752C7.13752 8.12229 6.93198 7.98277 6.74589 7.98277V8.48277ZM6.85426 8.3578C6.85426 8.40318 6.83285 8.43769 6.81119 8.45681C6.79001 8.47551 6.76619 8.48277 6.74589 8.48277V7.98277C6.55981 7.98277 6.35426 8.12229 6.35426 8.3578H6.85426ZM6.74589 8.23282C6.76619 8.23282 6.79001 8.24009 6.81119 8.25878C6.83285 8.2779 6.85426 8.31241 6.85426 8.3578H6.35426C6.35426 8.5933 6.55981 8.73282 6.74589 8.73282V8.23282ZM13.5136 5.82083C13.414 6.05013 13.414 6.05016 13.4141 6.05018C13.4141 6.05019 13.4142 6.05022 13.4142 6.05024C13.4143 6.05027 13.4144 6.05031 13.4145 6.05035C13.4147 6.05043 13.4149 6.05052 13.4151 6.05062C13.4156 6.05082 13.4161 6.05105 13.4167 6.05132C13.418 6.05185 13.4196 6.05252 13.4215 6.0533C13.4252 6.05488 13.4303 6.05694 13.4365 6.05937C13.4488 6.06422 13.4658 6.07064 13.4863 6.07768C13.5265 6.09149 13.584 6.10896 13.6484 6.12095C13.7104 6.13252 13.7927 6.14172 13.8775 6.12939C13.9638 6.11684 14.0761 6.07784 14.1564 5.97191L13.7581 5.66975C13.7834 5.6363 13.8128 5.63354 13.8056 5.63458C13.7969 5.63584 13.7752 5.63598 13.74 5.62943C13.7072 5.6233 13.6743 5.61359 13.6486 5.60475C13.6361 5.60046 13.6262 5.59669 13.6198 5.59418C13.6166 5.59294 13.6144 5.59202 13.6132 5.59154C13.6127 5.5913 13.6124 5.59117 13.6123 5.59117C13.6123 5.59116 13.6124 5.59119 13.6125 5.59125C13.6126 5.59128 13.6127 5.59132 13.6128 5.59136C13.6128 5.59139 13.6129 5.59141 13.613 5.59144C13.613 5.59145 13.6131 5.59147 13.6131 5.59148C13.6131 5.5915 13.6132 5.59153 13.5136 5.82083ZM14.4311 5.46286L13.4848 5.57249L13.5423 6.06917L14.4886 5.95954L14.4311 5.46286ZM13.9573 5.82083C13.9081 6.06595 13.9082 6.06597 13.9082 6.06598C13.9083 6.06598 13.9083 6.066 13.9084 6.06601C13.9085 6.06602 13.9086 6.06604 13.9087 6.06607C13.9089 6.06611 13.9091 6.06615 13.9094 6.06621C13.9099 6.06631 13.9105 6.06643 13.9113 6.06657C13.9127 6.06685 13.9145 6.06719 13.9168 6.0676C13.9212 6.06841 13.9271 6.06946 13.9344 6.07065C13.9489 6.07303 13.9689 6.07601 13.9929 6.07883C14.0402 6.08437 14.1069 6.08972 14.1798 6.08744C14.2505 6.08522 14.3402 6.07549 14.4272 6.04315C14.5155 6.01033 14.6203 5.94637 14.6824 5.82517L14.2374 5.59722C14.2506 5.57142 14.2681 5.56886 14.253 5.57449C14.2366 5.58059 14.2068 5.58634 14.1641 5.58768C14.1235 5.58896 14.0828 5.58594 14.0511 5.58223C14.0357 5.58042 14.0233 5.57856 14.0153 5.57724C14.0113 5.57658 14.0084 5.57608 14.0069 5.57579C14.0061 5.57565 14.0057 5.57556 14.0056 5.57555C14.0055 5.57554 14.0056 5.57555 14.0057 5.57557C14.0058 5.57558 14.0059 5.5756 14.006 5.57562C14.006 5.57564 14.0061 5.57565 14.0062 5.57566C14.0062 5.57567 14.0063 5.57568 14.0063 5.57568C14.0063 5.57569 14.0064 5.57571 13.9573 5.82083Z" fill="#009C4E"/>
</g>
</g>
<rect x="3" y="1" width="16" height="12" fill="url(#paint0_linear)" style="mix-blend-mode:overlay"/>
</g>
<defs>
<filter id="filter0_d" x="0" y="0" width="22" height="18" filterUnits="userSpaceOnUse" color-interpolation-filters="sRGB">
<feFlood flood-opacity="0" result="BackgroundImageFix"/>
<feColorMatrix in="SourceAlpha" type="matrix" values="0 0 0 0 0 0 0 0 0 0 0 0 0 0 0 0 0 0 127 0" result="hardAlpha"/>
<feOffset dy="2"/>
<feGaussianBlur stdDeviation="1.5"/>
<feColorMatrix type="matrix" values="0 0 0 0 0 0 0 0 0 0 0 0 0 0 0 0 0 0 0.1 0"/>
<feBlend mode="normal" in2="BackgroundImageFix" result="effect1_dropShadow"/>
<feBlend mode="normal" in="SourceGraphic" in2="effect1_dropShadow" result="shape"/>
</filter>
<linearGradient id="paint0_linear" x1="11" y1="1" x2="11" y2="13" gradientUnits="userSpaceOnUse">
<stop stop-color="white" stop-opacity="0.7"/>
<stop offset="1" stop-opacity="0.3"/>
</linearGradient>
</defs>
</svg>
