<svg width="22" height="18" viewBox="0 0 22 18" fill="none" xmlns="http://www.w3.org/2000/svg">
<g filter="url(#filter0_d)">
<mask id="mask0" style="mask-type:alpha" maskUnits="userSpaceOnUse" x="3" y="1" width="16" height="12">
<rect x="3" y="1" width="16" height="12" fill="white"/>
</mask>
<g mask="url(#mask0)">
<path fill-rule="evenodd" clip-rule="evenodd" d="M3 1V13H19V1H3Z" fill="#C51918"/>
<mask id="mask1" style="mask-type:alpha" maskUnits="userSpaceOnUse" x="3" y="1" width="16" height="12">
<path fill-rule="evenodd" clip-rule="evenodd" d="M3 1V13H19V1H3Z" fill="white"/>
</mask>
<g mask="url(#mask1)">
<path fill-rule="evenodd" clip-rule="evenodd" d="M10.991 9.9334C11.0446 9.9334 11.0978 9.932 11.1507 9.92924L11.4593 10.9131L11.5307 9.88523C11.634 9.86657 11.7353 9.84265 11.8346 9.81377L12.3636 10.7005L12.194 9.68367C12.2896 9.64197 12.3826 9.59546 12.4726 9.54444L13.194 10.2869L12.7923 9.33529C12.8752 9.27313 12.9548 9.20679 13.0307 9.13657L13.9059 9.69435L13.2937 8.8602C13.3599 8.78101 13.4221 8.69836 13.4799 8.61254L14.4609 8.95497L13.6718 8.28387C13.7179 8.19181 13.7592 8.09704 13.7956 7.99986L14.829 8.10859L13.9055 7.63628C13.9287 7.53648 13.9469 7.43475 13.9596 7.33138L14.9904 7.20082L13.982 6.95247C13.9815 6.848 13.9755 6.74481 13.9644 6.64316L14.9363 6.2806L13.899 6.26963C13.8744 6.16822 13.8445 6.06884 13.8097 5.97179L14.6698 5.39755L13.6588 5.62394C13.6113 5.53115 13.5589 5.44117 13.5021 5.35432L14.2051 4.59927L13.2745 5.05056C13.2068 4.97123 13.1349 4.89547 13.0593 4.82361L13.5674 3.9288L12.7678 4.57997C12.6835 4.51812 12.5958 4.46056 12.505 4.40761L12.7909 3.42228L12.1654 4.23741C12.069 4.19654 11.9699 4.16056 11.8686 4.12976L11.9177 3.10701L11.4988 4.04258C11.3958 4.0251 11.291 4.01286 11.1846 4.00612L10.9946 3L10.8047 4.00566C10.6981 4.01216 10.5931 4.02418 10.4899 4.04145L10.0716 3.10701L10.1205 4.12761C10.0186 4.1583 9.91903 4.19424 9.82208 4.23511L9.19829 3.42228L9.48314 4.40402C9.39154 4.45716 9.30305 4.51499 9.21799 4.57719L8.42185 3.9288L8.92742 4.81917C8.85083 4.8916 8.7781 4.96802 8.70959 5.04809L7.7841 4.59927L8.48287 5.34978C8.42522 5.43758 8.37212 5.52859 8.32393 5.62249L7.31944 5.39755L8.17374 5.96791C8.13831 6.06621 8.10796 6.16692 8.08301 6.2697L7.05291 6.2806L8.01786 6.64057C8.0065 6.74364 8.00046 6.84829 8.00002 6.95425L6.99887 7.20082L8.02226 7.33045C8.03518 7.43528 8.05361 7.53842 8.07726 7.63957L7.16025 8.10859L8.18664 8.00059C8.22354 8.09902 8.26556 8.19499 8.31237 8.28817L7.52833 8.95497L8.50347 8.61458C8.56199 8.70132 8.62501 8.78483 8.69218 8.86478L8.08329 9.69435L8.95424 9.13929C9.03092 9.21004 9.11135 9.27685 9.19521 9.33939L8.79519 10.2869L9.51406 9.54707C9.60475 9.59825 9.6984 9.64486 9.7947 9.68659L9.62567 10.7005L10.1536 9.81555C10.2532 9.84431 10.355 9.86807 10.4586 9.88654L10.5299 10.9131L10.8384 9.92961C10.8889 9.93213 10.9398 9.9334 10.991 9.9334ZM13.241 6.95784C13.241 8.20025 12.2256 9.20742 10.973 9.20742C9.72042 9.20742 8.705 8.20025 8.705 6.95784C8.705 5.71544 9.72042 4.70827 10.973 4.70827C12.2256 4.70827 13.241 5.71544 13.241 6.95784ZM10.9877 8.70904C11.9347 8.70904 12.7023 7.94138 12.7023 6.99442C12.7023 6.75227 12.6521 6.52183 12.5616 6.31297C11.9518 6.35632 11.4867 6.58221 11.1777 6.81518L10.9323 7.00023L10.7031 6.80187C10.4836 6.61183 10.0597 6.39784 9.40887 6.32455C9.32145 6.53034 9.27308 6.75673 9.27308 6.99442C9.27308 7.94138 10.0407 8.70904 10.9877 8.70904ZM9.75093 5.80686C10.0629 5.482 10.5017 5.27981 10.9877 5.27981C11.4661 5.27981 11.8988 5.47575 12.2098 5.79175C11.7204 5.84852 11.3053 5.97122 10.9684 6.16211C10.6679 5.98973 10.2618 5.87321 9.75093 5.80686Z" fill="#FFDC17"/>
</g>
</g>
<rect x="3" y="1" width="16" height="12" fill="url(#paint0_linear)" style="mix-blend-mode:overlay"/>
</g>
<defs>
<filter id="filter0_d" x="0" y="0" width="22" height="18" filterUnits="userSpaceOnUse" color-interpolation-filters="sRGB">
<feFlood flood-opacity="0" result="BackgroundImageFix"/>
<feColorMatrix in="SourceAlpha" type="matrix" values="0 0 0 0 0 0 0 0 0 0 0 0 0 0 0 0 0 0 127 0" result="hardAlpha"/>
<feOffset dy="2"/>
<feGaussianBlur stdDeviation="1.5"/>
<feColorMatrix type="matrix" values="0 0 0 0 0 0 0 0 0 0 0 0 0 0 0 0 0 0 0.1 0"/>
<feBlend mode="normal" in2="BackgroundImageFix" result="effect1_dropShadow"/>
<feBlend mode="normal" in="SourceGraphic" in2="effect1_dropShadow" result="shape"/>
</filter>
<linearGradient id="paint0_linear" x1="11" y1="1" x2="11" y2="13" gradientUnits="userSpaceOnUse">
<stop stop-color="white" stop-opacity="0.7"/>
<stop offset="1" stop-opacity="0.3"/>
</linearGradient>
</defs>
</svg>
