<svg width="22" height="18" viewBox="0 0 22 18" fill="none" xmlns="http://www.w3.org/2000/svg">
<g filter="url(#filter0_d)">
<path d="M3 1H19V13H3V1Z" fill="#032EA1"/>
<path d="M3 4H19V10H3V4Z" fill="#E00025"/>
<path fill-rule="evenodd" clip-rule="evenodd" d="M8.16699 6.51999V6.54999H9.11199V6.51999H10.435V6.57999H11.323V6.51999H12.649V6.54999H13.594V6.51999H13.704V7.82599H8.00399V6.51999H8.16699ZM8.00399 7.82599H7.70199V8.07499H8.39199V8.07999H7.39599V8.5057H8.39199V8.50999H7.20099V8.88499H14.56V8.50999H13.366V8.5057H14.368V8.07999H13.366V8.07499H14.062V7.82599H13.704V7.83399H8.00399V7.82599ZM13.594 6.51999V5.67999C13.5797 5.67999 13.5702 5.70019 13.5587 5.72459C13.541 5.76188 13.5188 5.80899 13.468 5.80899C13.423 5.80899 13.426 5.75499 13.453 5.71299C13.474 5.67399 13.501 5.62299 13.465 5.52399C13.438 5.59899 13.372 5.62299 13.384 5.57799C13.3906 5.55242 13.4014 5.53343 13.4116 5.51554C13.4337 5.47676 13.4528 5.44316 13.42 5.35899C13.405 5.46099 13.339 5.45799 13.354 5.39799C13.3584 5.38123 13.364 5.36677 13.3693 5.35311C13.3858 5.31052 13.3993 5.27567 13.363 5.20299C13.336 5.31399 13.303 5.30799 13.303 5.23899C13.303 5.13699 13.303 5.02899 13.177 4.98999C13.177 4.98999 13.168 4.89999 13.12 4.89999C13.075 4.89999 13.066 4.98999 13.066 4.98999C12.9398 5.02813 12.9399 5.13511 12.94 5.23239C12.94 5.2346 12.94 5.2368 12.94 5.23899C12.94 5.30799 12.907 5.31399 12.88 5.20299C12.8436 5.27567 12.8572 5.31052 12.8737 5.35311C12.879 5.36677 12.8846 5.38123 12.889 5.39799C12.904 5.45799 12.838 5.46099 12.823 5.35899C12.7901 5.44316 12.8093 5.47676 12.8314 5.51554C12.8415 5.53343 12.8524 5.55242 12.859 5.57799C12.871 5.62299 12.805 5.59899 12.778 5.52399C12.742 5.62299 12.769 5.67399 12.79 5.71299C12.814 5.75499 12.82 5.80899 12.775 5.80899C12.7242 5.80899 12.7019 5.76297 12.6843 5.72656C12.6728 5.70272 12.6632 5.68299 12.649 5.68299V6.51999H13.594ZM11.323 6.51999H10.435V6.41499C10.435 6.36947 10.4103 6.34685 10.3877 6.32614C10.3686 6.30863 10.351 6.29248 10.351 6.26499C10.351 6.26499 10.339 6.17499 10.363 6.13299C10.396 6.25299 10.453 6.23199 10.453 6.18099C10.453 6.14224 10.4275 6.1035 10.3693 6.01527L10.354 5.99199C10.33 5.95899 10.345 5.85399 10.375 5.81499C10.387 5.90499 10.402 5.94999 10.441 5.94999C10.465 5.94999 10.483 5.93499 10.483 5.88999C10.483 5.85176 10.4672 5.82571 10.4502 5.79787C10.4406 5.78202 10.4306 5.76559 10.423 5.74599C10.4019 5.69111 10.4148 5.62894 10.456 5.58699C10.4586 5.60277 10.4607 5.61689 10.4625 5.62944L10.4625 5.62946C10.4712 5.68851 10.4748 5.71299 10.507 5.71299C10.5818 5.68807 10.5185 5.58646 10.4942 5.54738L10.489 5.53899C10.471 5.50599 10.519 5.43699 10.519 5.43699C10.543 5.51799 10.549 5.52399 10.579 5.51499C10.615 5.50599 10.609 5.45499 10.567 5.41299C10.54 5.38299 10.543 5.34399 10.573 5.31399C10.603 5.37099 10.639 5.36799 10.642 5.33199L10.618 5.19999H10.651L10.639 5.09999H11.116L11.104 5.19999H11.14L11.113 5.32899C11.107 5.36499 11.155 5.37399 11.185 5.31399C11.215 5.34399 11.218 5.38599 11.191 5.41299C11.149 5.45499 11.143 5.50599 11.179 5.51499C11.209 5.52399 11.215 5.51499 11.239 5.43699C11.239 5.43699 11.284 5.48199 11.269 5.53899L11.2645 5.54628C11.2407 5.58483 11.1755 5.69062 11.251 5.71299C11.2831 5.71299 11.2867 5.68851 11.2954 5.62946L11.2954 5.62944L11.2954 5.62939C11.2973 5.61685 11.2994 5.60275 11.302 5.58699C11.3422 5.62959 11.3539 5.69168 11.332 5.74599C11.325 5.76709 11.3143 5.78452 11.3038 5.80151C11.2876 5.82801 11.272 5.85343 11.272 5.88999C11.272 5.93499 11.293 5.94999 11.317 5.94999C11.356 5.94999 11.371 5.90799 11.383 5.81499C11.413 5.85399 11.428 5.95899 11.404 5.99499L11.3787 6.03211C11.3269 6.10799 11.302 6.14449 11.302 6.18099C11.302 6.23199 11.362 6.25299 11.392 6.13299C11.419 6.17499 11.407 6.26499 11.407 6.26499C11.407 6.29273 11.3897 6.30893 11.3708 6.32662C11.3488 6.34721 11.3246 6.36982 11.323 6.41499V6.51999ZM8.16699 6.51999V5.67999C8.18123 5.67999 8.19078 5.70019 8.20232 5.72459C8.21995 5.76188 8.24222 5.80899 8.29299 5.80899C8.33799 5.80899 8.33499 5.75499 8.30799 5.71299C8.28699 5.67399 8.25999 5.62299 8.29599 5.52399C8.32299 5.59899 8.38899 5.62299 8.37699 5.57799C8.37036 5.55242 8.35954 5.53343 8.34936 5.51554C8.32727 5.47676 8.30814 5.44316 8.34099 5.35899C8.35599 5.46099 8.42199 5.45799 8.40699 5.39799C8.40262 5.38123 8.397 5.36677 8.3917 5.35311C8.37517 5.31052 8.36165 5.27567 8.39799 5.20299C8.42499 5.31399 8.45799 5.30799 8.45799 5.23899C8.45799 5.13699 8.45799 5.02899 8.58399 4.98999C8.58399 4.98999 8.59299 4.89999 8.64099 4.89999C8.68599 4.89999 8.69499 4.98999 8.69499 4.98999C8.82113 5.02813 8.82106 5.13511 8.82099 5.23239L8.82099 5.23899C8.82099 5.30799 8.85399 5.31399 8.88099 5.20299C8.91733 5.27567 8.9038 5.31052 8.88728 5.35311C8.88197 5.36677 8.87636 5.38123 8.87199 5.39799C8.85699 5.45799 8.92299 5.46099 8.93799 5.35899C8.97084 5.44316 8.9517 5.47676 8.92962 5.51554C8.91943 5.53343 8.90862 5.55242 8.90199 5.57799C8.88999 5.62299 8.95599 5.59899 8.98299 5.52399C9.01899 5.62299 8.99199 5.67399 8.97099 5.71299C8.94699 5.75499 8.94099 5.80899 8.98599 5.80899C9.03675 5.80899 9.05903 5.76297 9.07666 5.72656C9.0882 5.70272 9.09775 5.68299 9.11199 5.68299V6.51999H8.16699ZM10.81 5.09299C10.81 5.09299 10.807 4.96999 10.879 4.96699C10.948 4.96699 10.945 5.09299 10.945 5.09299H10.81Z" fill="white"/>
<path d="M8.16699 6.54999H8.15199L8.16699 6.56499V6.54999ZM9.11199 6.54999V6.56499L9.12699 6.54999H9.11199ZM10.435 6.57999H10.42L10.435 6.59499V6.57999ZM11.323 6.57999V6.59499L11.338 6.57999H11.323ZM12.649 6.54999H12.634L12.649 6.56499V6.54999ZM13.594 6.54999V6.56499L13.609 6.54999H13.594ZM13.704 6.51999H13.719L13.704 6.50499V6.51999ZM8.00399 6.51999V6.50499L7.98899 6.51999H8.00399ZM7.70199 7.82599V7.81099L7.68699 7.82599H7.70199ZM7.70199 8.07499H7.68699L7.70199 8.08999V8.07499ZM8.39199 8.07499H8.40699L8.39199 8.05999V8.07499ZM8.39199 8.07999V8.09499L8.40699 8.07999H8.39199ZM7.39599 8.07999V8.06499L7.38099 8.07999H7.39599ZM7.39599 8.5057H7.38099L7.39599 8.5207V8.5057ZM8.39199 8.5057H8.40699L8.39199 8.4907V8.5057ZM8.39199 8.50999V8.52499L8.40699 8.50999H8.39199ZM7.20099 8.50999V8.49499L7.18599 8.50999H7.20099ZM7.20099 8.88499H7.18599L7.20099 8.89999V8.88499ZM14.56 8.88499V8.89999L14.575 8.88499H14.56ZM14.56 8.50999H14.575L14.56 8.49499V8.50999ZM13.366 8.50999H13.351L13.366 8.52499V8.50999ZM13.366 8.5057V8.4907L13.351 8.5057H13.366ZM14.368 8.5057V8.5207L14.383 8.5057H14.368ZM14.368 8.07999H14.383L14.368 8.06499V8.07999ZM13.366 8.07999H13.351L13.366 8.09499V8.07999ZM13.366 8.07499V8.05999L13.351 8.07499H13.366ZM14.062 8.07499V8.08999L14.077 8.07499H14.062ZM14.062 7.82599H14.077L14.062 7.81099V7.82599ZM13.704 7.83399V7.84899L13.719 7.83399H13.704ZM8.00399 7.83399H7.98899L8.00399 7.84899V7.83399ZM13.594 5.67999H13.609L13.594 5.66499V5.67999ZM13.5587 5.72459L13.5722 5.73101V5.73101L13.5587 5.72459ZM13.453 5.71299L13.4656 5.72113L13.4662 5.72011L13.453 5.71299ZM13.465 5.52399L13.4791 5.51887L13.4509 5.51891L13.465 5.52399ZM13.384 5.57799L13.3985 5.58186L13.3985 5.58176L13.384 5.57799ZM13.4116 5.51554L13.3986 5.50812V5.50812L13.4116 5.51554ZM13.42 5.35899L13.434 5.35354L13.4051 5.35681L13.42 5.35899ZM13.354 5.39799L13.3395 5.39421L13.3394 5.39436L13.354 5.39799ZM13.3693 5.35311L13.3553 5.34768V5.34768L13.3693 5.35311ZM13.363 5.20299L13.3764 5.19629L13.3484 5.19945L13.363 5.20299ZM13.177 4.98999L13.1621 4.99149L13.1726 5.00432L13.177 4.98999ZM13.066 4.98999L13.0703 5.00435L13.0809 4.99149L13.066 4.98999ZM12.94 5.23239L12.955 5.23238V5.23238L12.94 5.23239ZM12.88 5.20299L12.8946 5.19945L12.8666 5.19629L12.88 5.20299ZM12.8737 5.35311L12.8877 5.34768V5.34768L12.8737 5.35311ZM12.889 5.39799L12.9035 5.39436L12.9035 5.39421L12.889 5.39799ZM12.823 5.35899L12.8378 5.35681L12.809 5.35354L12.823 5.35899ZM12.8314 5.51554L12.8444 5.50812V5.50812L12.8314 5.51554ZM12.859 5.57799L12.8445 5.58176L12.8445 5.58186L12.859 5.57799ZM12.778 5.52399L12.7921 5.51891L12.7639 5.51887L12.778 5.52399ZM12.79 5.71299L12.7768 5.72011L12.777 5.72044L12.79 5.71299ZM12.6843 5.72656L12.6708 5.73309V5.73309L12.6843 5.72656ZM12.649 5.68299V5.66799L12.634 5.68299H12.649ZM10.3877 6.32614L10.3776 6.3372L10.3877 6.32614ZM10.351 6.26499H10.3661L10.3659 6.26301L10.351 6.26499ZM10.363 6.13299L10.3775 6.12902L10.35 6.12555L10.363 6.13299ZM10.3693 6.01527L10.3568 6.02352L10.3568 6.02353L10.3693 6.01527ZM10.354 5.99199L10.3665 5.98374L10.3661 5.98317L10.354 5.99199ZM10.375 5.81499L10.3899 5.81301L10.3631 5.80585L10.375 5.81499ZM10.4502 5.79787L10.463 5.79008V5.79008L10.4502 5.79787ZM10.423 5.74599L10.409 5.75138L10.409 5.75143L10.423 5.74599ZM10.456 5.58699L10.4708 5.58453L10.4453 5.57648L10.456 5.58699ZM10.4625 5.62944L10.4477 5.63162L10.4477 5.63184L10.4625 5.62944ZM10.4625 5.62946L10.4774 5.62728L10.4774 5.62707L10.4625 5.62946ZM10.507 5.71299V5.72881L10.5117 5.72722L10.507 5.71299ZM10.4942 5.54738L10.4814 5.55525L10.4814 5.55531L10.4942 5.54738ZM10.489 5.53899L10.4758 5.54619L10.4762 5.54686L10.489 5.53899ZM10.519 5.43699L10.5334 5.43273L10.5067 5.42843L10.519 5.43699ZM10.579 5.51499L10.5753 5.50043L10.5747 5.50063L10.579 5.51499ZM10.567 5.41299L10.5558 5.42304L10.5564 5.4236L10.567 5.41299ZM10.573 5.31399L10.5863 5.30701L10.5624 5.30339L10.573 5.31399ZM10.642 5.33199L10.6575 5.33328L10.6567 5.32931L10.642 5.33199ZM10.618 5.19999V5.18499L10.6032 5.20268L10.618 5.19999ZM10.651 5.19999V5.21499L10.6659 5.19821L10.651 5.19999ZM10.639 5.09999V5.08499L10.6241 5.10178L10.639 5.09999ZM11.116 5.09999L11.1309 5.10178L11.116 5.08499V5.09999ZM11.104 5.19999L11.0891 5.19821L11.104 5.21499V5.19999ZM11.14 5.19999L11.1547 5.20307L11.14 5.18499V5.19999ZM11.113 5.32899L11.0983 5.32592L11.0982 5.32653L11.113 5.32899ZM11.185 5.31399L11.1956 5.30339L11.1716 5.30729L11.185 5.31399ZM11.191 5.41299L11.1804 5.40239V5.40239L11.191 5.41299ZM11.179 5.51499L11.1833 5.50061L11.1826 5.50044L11.179 5.51499ZM11.239 5.43699L11.2496 5.42639L11.2247 5.43258L11.239 5.43699ZM11.269 5.53899L11.2823 5.54717L11.2835 5.54281L11.269 5.53899ZM11.2645 5.54628L11.2773 5.55416L11.2773 5.55412L11.2645 5.54628ZM11.251 5.71299L11.2465 5.72799H11.251V5.71299ZM11.2954 5.62946L11.3103 5.63164L11.3103 5.63143L11.2954 5.62946ZM11.2954 5.62944L11.2806 5.62706L11.2806 5.62747L11.2954 5.62944ZM11.2954 5.62939L11.3103 5.63176L11.3103 5.63157L11.2954 5.62939ZM11.302 5.58699L11.3129 5.5767L11.2872 5.58453L11.302 5.58699ZM11.332 5.74599L11.3181 5.74038L11.3178 5.74125L11.332 5.74599ZM11.3038 5.80151L11.3166 5.80935V5.80935L11.3038 5.80151ZM11.383 5.81499L11.3949 5.80585L11.3681 5.81307L11.383 5.81499ZM11.404 5.99499L11.4164 6.00343L11.4165 6.00331L11.404 5.99499ZM11.3787 6.03211L11.3911 6.04057L11.3911 6.04055L11.3787 6.03211ZM11.392 6.13299L11.4046 6.12488L11.3774 6.12936L11.392 6.13299ZM11.407 6.26499L11.392 6.26299V6.26499H11.407ZM11.3708 6.32662L11.3605 6.31567V6.31567L11.3708 6.32662ZM11.323 6.41499L11.308 6.41446V6.41499H11.323ZM8.16699 5.67999V5.66499L8.15199 5.67999H8.16699ZM8.20232 5.72459L8.21588 5.71818L8.21588 5.71818L8.20232 5.72459ZM8.30799 5.71299L8.29474 5.72013L8.29537 5.72111L8.30799 5.71299ZM8.29599 5.52399L8.3101 5.51891L8.28189 5.51887L8.29599 5.52399ZM8.37699 5.57799L8.36247 5.58176L8.3625 5.58186L8.37699 5.57799ZM8.34936 5.51554L8.36239 5.50811V5.50811L8.34936 5.51554ZM8.34099 5.35899L8.35583 5.35681L8.32702 5.35354L8.34099 5.35899ZM8.40699 5.39799L8.42154 5.39436L8.4215 5.39421L8.40699 5.39799ZM8.3917 5.35311L8.37772 5.35853V5.35853L8.3917 5.35311ZM8.39799 5.20299L8.41256 5.19945L8.38457 5.19629L8.39799 5.20299ZM8.58399 4.98999L8.58842 5.00432L8.59891 4.99149L8.58399 4.98999ZM8.69499 4.98999L8.68006 4.99149L8.69065 5.00435L8.69499 4.98999ZM8.82099 5.23239L8.80599 5.23238V5.23239L8.82099 5.23239ZM8.82099 5.23899L8.80599 5.23899V5.23899H8.82099ZM8.88099 5.20299L8.89441 5.19629L8.86641 5.19945L8.88099 5.20299ZM8.88728 5.35311L8.90126 5.35853L8.88728 5.35311ZM8.87199 5.39799L8.85747 5.39421L8.85744 5.39436L8.87199 5.39799ZM8.93799 5.35899L8.95196 5.35354L8.92315 5.35681L8.93799 5.35899ZM8.92962 5.51554L8.91659 5.50811V5.50811L8.92962 5.51554ZM8.90199 5.57799L8.91648 5.58186L8.91651 5.58176L8.90199 5.57799ZM8.98299 5.52399L8.99709 5.51887L8.96888 5.51891L8.98299 5.52399ZM8.97099 5.71299L8.98402 5.72044L8.9842 5.72011L8.97099 5.71299ZM9.07666 5.72656L9.06316 5.72002L9.07666 5.72656ZM9.11199 5.68299H9.12699L9.11199 5.66799V5.68299ZM10.879 4.96699V4.95198L10.8784 4.95201L10.879 4.96699ZM10.81 5.09299L10.795 5.09336L10.81 5.10799V5.09299ZM10.945 5.09299V5.10799L10.96 5.09335L10.945 5.09299ZM8.18199 6.54999V6.51999H8.15199V6.54999H8.18199ZM9.11199 6.53499H8.16699V6.56499H9.11199V6.53499ZM9.09699 6.51999V6.54999H9.12699V6.51999H9.09699ZM10.435 6.50499H9.11199V6.53499H10.435V6.50499ZM10.45 6.57999V6.51999H10.42V6.57999H10.45ZM11.323 6.56499H10.435V6.59499H11.323V6.56499ZM11.308 6.51999V6.57999H11.338V6.51999H11.308ZM12.649 6.50499H11.323V6.53499H12.649V6.50499ZM12.664 6.54999V6.51999H12.634V6.54999H12.664ZM13.594 6.53499H12.649V6.56499H13.594V6.53499ZM13.579 6.51999V6.54999H13.609V6.51999H13.579ZM13.704 6.50499H13.594V6.53499H13.704V6.50499ZM13.719 7.82599V6.51999H13.689V7.82599H13.719ZM13.704 7.81099H8.00399V7.84099H13.704V7.81099ZM7.98899 6.51999V7.82599H8.01899V6.51999H7.98899ZM8.16699 6.50499H8.00399V6.53499H8.16699V6.50499ZM8.00399 7.81099H7.70199V7.84099H8.00399V7.81099ZM7.68699 7.82599V8.07499H7.71699V7.82599H7.68699ZM7.70199 8.08999H8.39199V8.05999H7.70199V8.08999ZM8.37699 8.07499V8.07999H8.40699V8.07499H8.37699ZM8.39199 8.06499H7.39599V8.09499H8.39199V8.06499ZM7.38099 8.07999V8.5057H7.41099V8.07999H7.38099ZM7.39599 8.5207H8.39199V8.4907H7.39599V8.5207ZM8.37699 8.5057V8.50999H8.40699V8.5057H8.37699ZM8.39199 8.49499H7.20099V8.52499H8.39199V8.49499ZM7.18599 8.50999V8.88499H7.21599V8.50999H7.18599ZM7.20099 8.89999H14.56V8.86999H7.20099V8.89999ZM14.575 8.88499V8.50999H14.545V8.88499H14.575ZM14.56 8.49499H13.366V8.52499H14.56V8.49499ZM13.381 8.50999V8.5057H13.351V8.50999H13.381ZM13.366 8.5207H14.368V8.4907H13.366V8.5207ZM14.383 8.5057V8.07999H14.353V8.5057H14.383ZM14.368 8.06499H13.366V8.09499H14.368V8.06499ZM13.381 8.07999V8.07499H13.351V8.07999H13.381ZM13.366 8.08999H14.062V8.05999H13.366V8.08999ZM14.077 8.07499V7.82599H14.047V8.07499H14.077ZM14.062 7.81099H13.704V7.84099H14.062V7.81099ZM13.719 7.83399V7.82599H13.689V7.83399H13.719ZM8.00399 7.84899H13.704V7.81899H8.00399V7.84899ZM7.98899 7.82599V7.83399H8.01899V7.82599H7.98899ZM13.579 5.67999V6.51999H13.609V5.67999H13.579ZM13.5722 5.73101C13.5782 5.71841 13.5829 5.70854 13.5876 5.70168C13.59 5.69834 13.5918 5.69651 13.593 5.69559C13.5936 5.69517 13.5939 5.69504 13.594 5.695C13.594 5.69499 13.594 5.69499 13.594 5.69499C13.594 5.69499 13.594 5.69499 13.594 5.69499C13.594 5.69499 13.594 5.69499 13.594 5.69499V5.66499C13.579 5.66499 13.5691 5.67572 13.563 5.6846C13.5565 5.69394 13.5507 5.70637 13.5451 5.71818L13.5722 5.73101ZM13.468 5.82399C13.4989 5.82399 13.521 5.80936 13.5371 5.79055C13.5528 5.77231 13.5636 5.74928 13.5722 5.73101L13.5451 5.71818C13.5361 5.73719 13.5269 5.75637 13.5144 5.771C13.5023 5.78507 13.4879 5.79399 13.468 5.79399V5.82399ZM13.4404 5.70488C13.4257 5.72764 13.4167 5.75489 13.4185 5.77794C13.4195 5.78967 13.4234 5.80147 13.4322 5.81042C13.4412 5.81958 13.4536 5.82399 13.468 5.82399V5.79399C13.4599 5.79399 13.4558 5.79165 13.4536 5.78938C13.4511 5.78689 13.449 5.78257 13.4484 5.77555C13.4473 5.76109 13.4532 5.74035 13.4656 5.72111L13.4404 5.70488ZM13.4509 5.52912C13.4682 5.57661 13.47 5.61151 13.4656 5.63859C13.4611 5.66587 13.4503 5.68641 13.4398 5.70588L13.4662 5.72011C13.4767 5.70058 13.4899 5.67612 13.4952 5.6434C13.5005 5.61048 13.4978 5.57038 13.4791 5.51887L13.4509 5.52912ZM13.3695 5.57413C13.3661 5.58676 13.3659 5.60358 13.3802 5.612C13.3865 5.61572 13.3934 5.61614 13.3993 5.61531C13.4053 5.61448 13.4112 5.61224 13.4169 5.60924C13.4392 5.59743 13.4646 5.56938 13.4791 5.52907L13.4509 5.51891C13.4384 5.55361 13.4173 5.57506 13.4028 5.58274C13.3993 5.58462 13.3967 5.58539 13.3951 5.5856C13.3935 5.58583 13.394 5.58536 13.3954 5.58617C13.3998 5.58878 13.3959 5.59173 13.3985 5.58186L13.3695 5.57413ZM13.3986 5.50812C13.3884 5.52598 13.3767 5.54652 13.3695 5.57423L13.3985 5.58176C13.4046 5.55832 13.4145 5.54088 13.4247 5.52296L13.3986 5.50812ZM13.406 5.36445C13.4218 5.40502 13.4245 5.43176 13.4216 5.45214C13.4186 5.47272 13.4098 5.4885 13.3986 5.50812L13.4247 5.52296C13.4356 5.5038 13.4474 5.48339 13.4512 5.45643C13.4552 5.42928 13.451 5.39713 13.434 5.35354L13.406 5.36445ZM13.3394 5.39436C13.3352 5.41142 13.3358 5.42745 13.343 5.43932C13.3467 5.44543 13.3521 5.45028 13.3589 5.45291C13.3657 5.45553 13.3729 5.45557 13.3797 5.45372C13.3929 5.4501 13.4048 5.43939 13.414 5.42441C13.4234 5.40915 13.4309 5.38816 13.4348 5.36118L13.4051 5.35681C13.4016 5.38083 13.3952 5.39771 13.3885 5.40871C13.3815 5.41998 13.375 5.42389 13.3718 5.42477C13.3703 5.42517 13.3698 5.42493 13.3697 5.42492C13.3697 5.4249 13.3696 5.42486 13.3694 5.42474C13.3693 5.42461 13.369 5.42433 13.3687 5.42379C13.3673 5.42141 13.3653 5.41457 13.3685 5.40163L13.3394 5.39436ZM13.3553 5.34768C13.35 5.36129 13.3441 5.3765 13.3395 5.39421L13.3685 5.40178C13.3726 5.38596 13.3779 5.37225 13.3833 5.35853L13.3553 5.34768ZM13.3496 5.2097C13.367 5.24449 13.3717 5.26884 13.371 5.28875C13.3702 5.309 13.3637 5.3261 13.3553 5.34768L13.3833 5.35853C13.3914 5.33753 13.3999 5.31592 13.4009 5.28992C13.402 5.26359 13.3954 5.23418 13.3764 5.19629L13.3496 5.2097ZM13.288 5.23899C13.288 5.25704 13.2901 5.27263 13.2947 5.2838C13.297 5.28934 13.3005 5.29523 13.306 5.29928C13.3122 5.30386 13.3199 5.30521 13.3275 5.30277C13.3341 5.30062 13.3395 5.29594 13.3436 5.29103C13.3479 5.28595 13.3519 5.27944 13.3557 5.27179C13.3632 5.25646 13.3707 5.23487 13.3776 5.20654L13.3484 5.19945C13.3418 5.22662 13.335 5.2459 13.3288 5.25851C13.3257 5.26483 13.3229 5.26906 13.3207 5.27169C13.3183 5.27449 13.3174 5.2745 13.3183 5.27422C13.32 5.27366 13.3223 5.27406 13.3237 5.27511C13.3244 5.27562 13.3237 5.27536 13.3224 5.27237C13.32 5.26649 13.318 5.25545 13.318 5.23899H13.288ZM13.1726 5.00432C13.2309 5.02239 13.2589 5.05561 13.2731 5.09586C13.2878 5.1376 13.288 5.18735 13.288 5.23899H13.318C13.318 5.18864 13.3182 5.13338 13.3014 5.08588C13.2841 5.03688 13.2491 4.9966 13.1814 4.97566L13.1726 5.00432ZM13.12 4.91499C13.1267 4.91499 13.1325 4.91793 13.138 4.92409C13.1438 4.93052 13.1486 4.93978 13.1524 4.95016C13.1562 4.96038 13.1586 4.97077 13.1601 4.97872C13.1608 4.98266 13.1613 4.98593 13.1616 4.98818C13.1618 4.9893 13.1619 4.99017 13.162 4.99074C13.162 4.99102 13.162 4.99123 13.162 4.99136C13.1621 4.99142 13.1621 4.99146 13.1621 4.99148C13.1621 4.99149 13.1621 4.9915 13.1621 4.9915C13.1621 4.9915 13.1621 4.9915 13.1621 4.9915C13.1621 4.9915 13.1621 4.99149 13.1621 4.99149C13.1621 4.99149 13.1621 4.99149 13.177 4.98999C13.1919 4.9885 13.1919 4.9885 13.1919 4.98849C13.1919 4.98849 13.1919 4.98849 13.1919 4.98848C13.1919 4.98847 13.1919 4.98846 13.1919 4.98845C13.1919 4.98843 13.1919 4.98841 13.1919 4.98837C13.1919 4.98831 13.1919 4.98822 13.1919 4.98812C13.1919 4.9879 13.1918 4.9876 13.1918 4.98723C13.1917 4.98648 13.1916 4.98541 13.1914 4.98407C13.191 4.98141 13.1904 4.97764 13.1896 4.97315C13.1879 4.96422 13.1851 4.95211 13.1806 4.93983C13.1761 4.92771 13.1697 4.91447 13.1603 4.90402C13.1507 4.89331 13.1373 4.88499 13.12 4.88499V4.91499ZM13.066 4.98999C13.0809 4.99149 13.0809 4.99149 13.0809 4.99149C13.0809 4.99149 13.0809 4.9915 13.0809 4.9915C13.0809 4.9915 13.0809 4.9915 13.0809 4.9915C13.0809 4.9915 13.0809 4.99149 13.0809 4.99148C13.0809 4.99146 13.0809 4.99141 13.0809 4.99135C13.0809 4.99122 13.081 4.99101 13.081 4.99072C13.0811 4.99015 13.0812 4.98928 13.0813 4.98814C13.0816 4.98588 13.0821 4.98259 13.0829 4.97864C13.0843 4.97066 13.0867 4.96022 13.0903 4.94995C13.0939 4.9395 13.0985 4.93021 13.104 4.92377C13.1093 4.91757 13.1144 4.91499 13.12 4.91499V4.88499C13.1031 4.88499 13.0902 4.89367 13.0811 4.90434C13.0723 4.91478 13.0662 4.92799 13.062 4.94004C13.0577 4.95226 13.055 4.96433 13.0533 4.97323C13.0525 4.97771 13.052 4.98145 13.0516 4.98411C13.0514 4.98544 13.0513 4.9865 13.0512 4.98724C13.0512 4.98762 13.0511 4.98791 13.0511 4.98812C13.0511 4.98823 13.0511 4.98831 13.0511 4.98838C13.0511 4.98841 13.0511 4.98844 13.0511 4.98846C13.0511 4.98847 13.0511 4.98848 13.0511 4.98848C13.0511 4.98849 13.0511 4.98849 13.0511 4.98849C13.0511 4.9885 13.0511 4.9885 13.066 4.98999ZM12.955 5.23238C12.955 5.18311 12.9551 5.13484 12.9698 5.0941C12.9839 5.05483 13.0119 5.02203 13.0703 5.00435L13.0616 4.97564C12.994 4.99609 12.9589 5.03585 12.9415 5.08393C12.9248 5.13053 12.925 5.18439 12.925 5.2324L12.955 5.23238ZM12.955 5.23899C12.955 5.23679 12.955 5.23459 12.955 5.23238L12.925 5.2324C12.925 5.23461 12.925 5.2368 12.925 5.23899H12.955ZM12.8654 5.20654C12.8723 5.23487 12.8797 5.25646 12.8873 5.27179C12.8911 5.27944 12.8951 5.28595 12.8994 5.29103C12.9035 5.29594 12.9088 5.30062 12.9155 5.30277C12.9231 5.30521 12.9308 5.30386 12.937 5.29928C12.9425 5.29523 12.946 5.28934 12.9483 5.2838C12.9529 5.27263 12.955 5.25704 12.955 5.23899H12.925C12.925 5.25545 12.923 5.26649 12.9205 5.27237C12.9193 5.27536 12.9185 5.27562 12.9192 5.27511C12.9207 5.27406 12.923 5.27366 12.9247 5.27422C12.9256 5.2745 12.9247 5.27449 12.9223 5.27169C12.9201 5.26906 12.9173 5.26483 12.9142 5.25851C12.908 5.2459 12.9012 5.22662 12.8946 5.19945L12.8654 5.20654ZM12.8877 5.34768C12.8793 5.3261 12.8728 5.309 12.872 5.28875C12.8712 5.26884 12.876 5.24449 12.8934 5.2097L12.8666 5.19629C12.8476 5.23418 12.841 5.26359 12.842 5.28992C12.843 5.31592 12.8516 5.33753 12.8597 5.35853L12.8877 5.34768ZM12.9035 5.39421C12.8989 5.3765 12.893 5.36129 12.8877 5.34768L12.8597 5.35853C12.865 5.37225 12.8703 5.38596 12.8745 5.40178L12.9035 5.39421ZM12.8081 5.36118C12.8121 5.38816 12.8196 5.40915 12.829 5.42441C12.8382 5.43939 12.85 5.4501 12.8633 5.45372C12.8701 5.45557 12.8773 5.45553 12.8841 5.45291C12.8909 5.45028 12.8963 5.44543 12.8999 5.43932C12.9071 5.42745 12.9078 5.41142 12.9035 5.39436L12.8744 5.40163C12.8777 5.41457 12.8757 5.42141 12.8743 5.42379C12.874 5.42433 12.8737 5.42461 12.8735 5.42474C12.8734 5.42486 12.8733 5.4249 12.8732 5.42492C12.8732 5.42493 12.8727 5.42517 12.8712 5.42477C12.8679 5.42389 12.8614 5.41998 12.8545 5.40871C12.8478 5.39771 12.8414 5.38083 12.8378 5.35681L12.8081 5.36118ZM12.8444 5.50812C12.8332 5.4885 12.8244 5.47272 12.8214 5.45214C12.8185 5.43176 12.8211 5.40502 12.837 5.36445L12.809 5.35354C12.792 5.39713 12.7878 5.42928 12.7917 5.45643C12.7956 5.48339 12.8074 5.5038 12.8183 5.52296L12.8444 5.50812ZM12.8735 5.57423C12.8663 5.54652 12.8546 5.52598 12.8444 5.50812L12.8183 5.52296C12.8285 5.54088 12.8384 5.55832 12.8445 5.58176L12.8735 5.57423ZM12.7639 5.52907C12.7784 5.56938 12.8038 5.59743 12.8261 5.60924C12.8317 5.61224 12.8377 5.61448 12.8437 5.61531C12.8496 5.61614 12.8565 5.61572 12.8628 5.612C12.8771 5.60358 12.8769 5.58676 12.8735 5.57413L12.8445 5.58186C12.8471 5.59173 12.8431 5.58878 12.8476 5.58617C12.8489 5.58536 12.8495 5.58583 12.8478 5.5856C12.8463 5.58539 12.8437 5.58462 12.8401 5.58274C12.8257 5.57506 12.8046 5.55361 12.7921 5.51891L12.7639 5.52907ZM12.8032 5.70588C12.7927 5.68641 12.7819 5.66587 12.7774 5.63859C12.773 5.61151 12.7748 5.57661 12.7921 5.52912L12.7639 5.51887C12.7452 5.57038 12.7425 5.61048 12.7478 5.6434C12.7531 5.67612 12.7663 5.70058 12.7768 5.72011L12.8032 5.70588ZM12.775 5.82399C12.7894 5.82399 12.8018 5.81957 12.8106 5.81019C12.8192 5.80109 12.8226 5.7892 12.8233 5.77764C12.8247 5.75491 12.8158 5.72795 12.803 5.70555L12.777 5.72044C12.7882 5.74004 12.7943 5.76108 12.7934 5.77585C12.793 5.78304 12.791 5.78728 12.7888 5.78961C12.7868 5.79166 12.7831 5.79399 12.775 5.79399V5.82399ZM12.6708 5.73309C12.6795 5.75094 12.6903 5.77348 12.706 5.79134C12.7222 5.80976 12.7443 5.82399 12.775 5.82399V5.79399C12.755 5.79399 12.7405 5.78521 12.7285 5.77153C12.716 5.75727 12.7068 5.73859 12.6978 5.72002L12.6708 5.73309ZM12.649 5.69799C12.649 5.69799 12.649 5.69799 12.6491 5.69802C12.6492 5.69806 12.6496 5.6982 12.6501 5.69861C12.6514 5.6995 12.6531 5.70127 12.6554 5.70451C12.6602 5.71118 12.6649 5.72078 12.6708 5.73309L12.6978 5.72002C12.6922 5.7085 12.6864 5.69631 12.6799 5.68716C12.6737 5.67838 12.6638 5.66799 12.649 5.66799V5.69799ZM12.664 6.51999V5.68299H12.634V6.51999H12.664ZM13.594 6.50499H12.649V6.53499H13.594V6.50499ZM10.435 6.53499H11.323V6.50499H10.435V6.53499ZM10.42 6.41499V6.51999H10.45V6.41499H10.42ZM10.3776 6.3372C10.4001 6.35783 10.42 6.3765 10.42 6.41499H10.45C10.45 6.36244 10.4205 6.33588 10.3978 6.31508L10.3776 6.3372ZM10.336 6.26499C10.336 6.30001 10.3593 6.32041 10.3776 6.3372L10.3978 6.31508C10.378 6.29685 10.366 6.28494 10.366 6.26499H10.336ZM10.35 6.12555C10.3427 6.1383 10.3386 6.15382 10.3362 6.16901C10.3338 6.18438 10.333 6.20039 10.333 6.21474C10.333 6.22914 10.3338 6.24212 10.3345 6.25151C10.3349 6.25621 10.3353 6.26003 10.3356 6.26269C10.3358 6.26403 10.3359 6.26507 10.336 6.2658C10.336 6.26616 10.3361 6.26644 10.3361 6.26664C10.3361 6.26674 10.3361 6.26682 10.3361 6.26687C10.3361 6.2669 10.3361 6.26692 10.3361 6.26694C10.3361 6.26695 10.3361 6.26696 10.3361 6.26696C10.3361 6.26697 10.3361 6.26697 10.3361 6.26697C10.3361 6.26697 10.3361 6.26698 10.351 6.26499C10.3659 6.26301 10.3659 6.26301 10.3659 6.26302C10.3659 6.26302 10.3659 6.26302 10.3659 6.26302C10.3659 6.26302 10.3659 6.26302 10.3659 6.26301C10.3659 6.26301 10.3659 6.263 10.3659 6.26298C10.3658 6.26295 10.3658 6.2629 10.3658 6.26283C10.3658 6.26268 10.3658 6.26246 10.3657 6.26215C10.3657 6.26153 10.3656 6.26061 10.3654 6.2594C10.3652 6.25697 10.3648 6.25343 10.3644 6.24904C10.3637 6.24024 10.363 6.2281 10.363 6.21474C10.363 6.20134 10.3637 6.18699 10.3658 6.17366C10.3679 6.16017 10.3713 6.14869 10.376 6.14044L10.35 6.12555ZM10.438 6.18099C10.438 6.19116 10.4351 6.19846 10.4319 6.20247C10.429 6.2061 10.4261 6.20692 10.4231 6.20637C10.4192 6.20566 10.412 6.20204 10.4032 6.18963C10.3946 6.1774 10.3854 6.15799 10.3775 6.12902L10.3485 6.13697C10.3571 6.168 10.3674 6.19096 10.3787 6.20696C10.3899 6.22276 10.4031 6.2332 10.4177 6.23587C10.433 6.2387 10.4465 6.2322 10.4552 6.2213C10.4637 6.21078 10.468 6.19632 10.468 6.18099H10.438ZM10.3568 6.02353C10.386 6.0679 10.4065 6.09895 10.4197 6.12375C10.4329 6.14837 10.438 6.16518 10.438 6.18099H10.468C10.468 6.15806 10.4603 6.13612 10.4462 6.10962C10.4321 6.0833 10.4107 6.05087 10.3818 6.00702L10.3568 6.02353ZM10.3415 6.00024L10.3568 6.02352L10.3818 6.00702L10.3665 5.98375L10.3415 6.00024ZM10.3631 5.80585C10.3457 5.82847 10.334 5.86762 10.3294 5.90384C10.327 5.9223 10.3264 5.9409 10.328 5.95738C10.3296 5.97342 10.3335 5.98935 10.3419 6.00082L10.3661 5.98317C10.3625 5.97813 10.3593 5.96857 10.3579 5.95442C10.3565 5.94071 10.357 5.92444 10.3591 5.90764C10.3635 5.87337 10.3743 5.84052 10.3869 5.82414L10.3631 5.80585ZM10.441 5.93499C10.4344 5.93499 10.4295 5.9332 10.4252 5.92981C10.4207 5.92619 10.416 5.92005 10.4115 5.91009C10.4024 5.88981 10.3959 5.85807 10.3899 5.81301L10.3601 5.81698C10.3661 5.86192 10.3731 5.89768 10.3842 5.9224C10.3898 5.93493 10.397 5.94567 10.4066 5.9533C10.4165 5.96117 10.4281 5.96499 10.441 5.96499V5.93499ZM10.468 5.88999C10.468 5.91089 10.4637 5.92191 10.4593 5.9275C10.4553 5.93244 10.4497 5.93499 10.441 5.93499V5.96499C10.4563 5.96499 10.4717 5.96004 10.4827 5.94624C10.4932 5.93307 10.498 5.9141 10.498 5.88999H10.468ZM10.4374 5.80566C10.4544 5.83366 10.468 5.85643 10.468 5.88999H10.498C10.498 5.8471 10.4799 5.81776 10.463 5.79008L10.4374 5.80566ZM10.409 5.75143C10.4172 5.77242 10.4278 5.78991 10.4374 5.80566L10.463 5.79008C10.4533 5.77412 10.444 5.75875 10.437 5.74056L10.409 5.75143ZM10.4453 5.57648C10.3999 5.62262 10.3858 5.69101 10.409 5.75138L10.437 5.74061C10.418 5.69121 10.4296 5.63526 10.4667 5.59751L10.4453 5.57648ZM10.4774 5.62726C10.4755 5.61471 10.4734 5.60046 10.4708 5.58453L10.4412 5.58946C10.4438 5.60508 10.4459 5.61906 10.4477 5.63162L10.4774 5.62726ZM10.4774 5.62707L10.4773 5.62705L10.4477 5.63184L10.4477 5.63185L10.4774 5.62707ZM10.507 5.69799C10.5008 5.69799 10.4977 5.69682 10.4958 5.69564C10.494 5.69447 10.4919 5.69228 10.4897 5.68728C10.4847 5.67614 10.4819 5.65785 10.4774 5.62728L10.4477 5.63164C10.4519 5.66013 10.4552 5.68361 10.4623 5.69947C10.466 5.70797 10.4714 5.71559 10.4796 5.72086C10.4877 5.7261 10.4971 5.72799 10.507 5.72799V5.69799ZM10.4814 5.55531C10.4938 5.57519 10.5145 5.60858 10.5233 5.6396C10.5277 5.65514 10.5286 5.66808 10.5256 5.67768C10.523 5.68618 10.5169 5.69389 10.5022 5.69876L10.5117 5.72722C10.5345 5.71964 10.5485 5.7053 10.5543 5.68652C10.5597 5.66884 10.5573 5.64926 10.5522 5.63139C10.542 5.59561 10.5188 5.55866 10.5069 5.53945L10.4814 5.55531ZM10.4762 5.54686L10.4814 5.55525L10.5069 5.53951L10.5018 5.53112L10.4762 5.54686ZM10.519 5.43699C10.5067 5.42843 10.5067 5.42843 10.5067 5.42843C10.5067 5.42843 10.5067 5.42844 10.5067 5.42844C10.5067 5.42845 10.5067 5.42845 10.5067 5.42846C10.5066 5.42847 10.5066 5.42849 10.5066 5.42852C10.5066 5.42856 10.5065 5.42863 10.5065 5.42871C10.5064 5.42887 10.5062 5.42909 10.506 5.42937C10.5056 5.42995 10.5051 5.43077 10.5044 5.43181C10.503 5.43389 10.5011 5.43687 10.4989 5.44054C10.4945 5.44784 10.4888 5.45802 10.4836 5.46939C10.4785 5.48067 10.4736 5.49367 10.4713 5.50652C10.4691 5.5191 10.469 5.53361 10.4758 5.54618L10.5022 5.53181C10.5 5.52788 10.4991 5.52139 10.5009 5.51175C10.5025 5.50238 10.5063 5.49195 10.5109 5.48184C10.5154 5.47184 10.5206 5.46271 10.5246 5.45605C10.5266 5.45273 10.5283 5.45006 10.5295 5.44824C10.5301 5.44733 10.5306 5.44663 10.5309 5.44618C10.531 5.44595 10.5311 5.44578 10.5312 5.44568C10.5313 5.44563 10.5313 5.44559 10.5313 5.44557C10.5313 5.44556 10.5313 5.44555 10.5313 5.44555C10.5313 5.44555 10.5313 5.44555 10.5313 5.44555C10.5313 5.44555 10.5313 5.44556 10.5313 5.44556C10.5313 5.44556 10.5313 5.44556 10.519 5.43699ZM10.5747 5.50063C10.5672 5.50288 10.5638 5.50328 10.562 5.50308C10.5615 5.50303 10.5606 5.50311 10.5585 5.50048C10.5559 5.49714 10.5526 5.4909 10.5483 5.47938C10.5441 5.46809 10.5394 5.45297 10.5334 5.43273L10.5046 5.44126C10.5106 5.46152 10.5156 5.47752 10.5202 5.48986C10.5247 5.50196 10.5293 5.51185 10.5349 5.51901C10.5411 5.52688 10.5489 5.53183 10.5587 5.53291C10.5672 5.53383 10.5758 5.53161 10.5833 5.52936L10.5747 5.50063ZM10.5564 5.4236C10.5758 5.44299 10.5856 5.46329 10.5873 5.47812C10.5882 5.48544 10.587 5.49052 10.5852 5.4937C10.5836 5.49656 10.5807 5.49909 10.5754 5.50044L10.5826 5.52955C10.5952 5.52639 10.6052 5.51918 10.6112 5.50863C10.6171 5.4984 10.6185 5.48642 10.6171 5.47462C10.6144 5.4512 10.6002 5.425 10.5776 5.40239L10.5564 5.4236ZM10.5624 5.30339C10.5453 5.3205 10.535 5.34103 10.5336 5.36252C10.5322 5.38415 10.5399 5.40529 10.5558 5.42303L10.5781 5.40296C10.5671 5.3907 10.5627 5.37734 10.5636 5.36447C10.5644 5.35145 10.5707 5.33749 10.5836 5.3246L10.5624 5.30339ZM10.627 5.33075C10.6265 5.33751 10.6245 5.34078 10.6233 5.34201C10.6226 5.34282 10.6217 5.3433 10.6197 5.34302C10.614 5.34221 10.6007 5.33439 10.5863 5.30701L10.5597 5.32098C10.5753 5.35059 10.5949 5.36978 10.6155 5.37272C10.6266 5.37431 10.6372 5.37086 10.645 5.36276C10.6523 5.35508 10.656 5.34448 10.6569 5.33324L10.627 5.33075ZM10.6032 5.20268L10.6272 5.33468L10.6567 5.32931L10.6327 5.19731L10.6032 5.20268ZM10.651 5.18499H10.618V5.21499H10.651V5.18499ZM10.6241 5.10178L10.6361 5.20178L10.6659 5.19821L10.6539 5.09821L10.6241 5.10178ZM11.116 5.08499H10.639V5.11499H11.116V5.08499ZM11.1189 5.20178L11.1309 5.10178L11.1011 5.09821L11.0891 5.19821L11.1189 5.20178ZM11.14 5.18499H11.104V5.21499H11.14V5.18499ZM11.1277 5.33207L11.1547 5.20307L11.1253 5.19692L11.0983 5.32592L11.1277 5.33207ZM11.1716 5.30729C11.1578 5.33482 11.1421 5.34214 11.1347 5.34251C11.1313 5.34269 11.1297 5.34152 11.129 5.34069C11.1283 5.33979 11.1268 5.33717 11.1278 5.33146L11.0982 5.32653C11.0961 5.33881 11.0984 5.35082 11.1059 5.35986C11.1135 5.36896 11.1247 5.37305 11.1362 5.37248C11.1589 5.37134 11.1822 5.35317 11.1984 5.3207L11.1716 5.30729ZM11.2016 5.4236C11.2357 5.38951 11.2301 5.33793 11.1956 5.30339L11.1744 5.3246C11.1998 5.35006 11.2003 5.38248 11.1804 5.40239L11.2016 5.4236ZM11.1826 5.50044C11.1772 5.49909 11.1744 5.49656 11.1728 5.4937C11.171 5.49052 11.1698 5.48544 11.1706 5.47812C11.1724 5.46329 11.1822 5.44299 11.2016 5.4236L11.1804 5.40239C11.1578 5.425 11.1436 5.4512 11.1408 5.47462C11.1395 5.48642 11.1409 5.4984 11.1468 5.50863C11.1528 5.51918 11.1627 5.52639 11.1754 5.52955L11.1826 5.50044ZM11.2247 5.43258C11.2186 5.45209 11.2139 5.46687 11.2097 5.47806C11.2054 5.48945 11.202 5.49592 11.1993 5.49955C11.197 5.50261 11.1959 5.50267 11.1954 5.50275C11.1937 5.503 11.1905 5.50279 11.1833 5.50063L11.1747 5.52936C11.1825 5.5317 11.1912 5.53374 11.1999 5.5324C11.2097 5.53088 11.2173 5.5255 11.2232 5.51768C11.2287 5.51045 11.2332 5.5006 11.2377 5.48865C11.2423 5.47649 11.2473 5.4609 11.2533 5.44141L11.2247 5.43258ZM11.2835 5.54281C11.2923 5.50954 11.2834 5.48015 11.273 5.4598C11.2678 5.44958 11.262 5.44137 11.2576 5.43569C11.2554 5.43284 11.2535 5.4306 11.2521 5.42903C11.2514 5.42825 11.2508 5.42763 11.2504 5.42719C11.2502 5.42697 11.25 5.42679 11.2499 5.42665C11.2498 5.42659 11.2497 5.42653 11.2497 5.42649C11.2497 5.42647 11.2497 5.42645 11.2496 5.42643C11.2496 5.42642 11.2496 5.42641 11.2496 5.42641C11.2496 5.4264 11.2496 5.4264 11.2496 5.4264C11.2496 5.42639 11.2496 5.42639 11.239 5.43699C11.2284 5.4476 11.2284 5.4476 11.2284 5.44759C11.2284 5.44759 11.2284 5.44759 11.2284 5.44759C11.2284 5.44758 11.2284 5.44758 11.2284 5.44758C11.2284 5.44757 11.2283 5.44757 11.2283 5.44757C11.2283 5.44757 11.2284 5.44757 11.2284 5.44759C11.2284 5.44763 11.2285 5.44772 11.2286 5.44784C11.2288 5.44808 11.2292 5.44849 11.2297 5.44904C11.2307 5.45016 11.2322 5.45188 11.234 5.45414C11.2375 5.45868 11.2421 5.46528 11.2463 5.47344C11.2546 5.48984 11.2607 5.51145 11.2545 5.53518L11.2835 5.54281ZM11.2773 5.55412L11.2818 5.54683L11.2562 5.53116L11.2517 5.53845L11.2773 5.55412ZM11.2553 5.69861C11.2407 5.69429 11.2348 5.6869 11.2323 5.67859C11.2294 5.66901 11.2303 5.65583 11.2349 5.63987C11.2441 5.60811 11.2652 5.57375 11.2773 5.55416L11.2518 5.53841C11.2401 5.55736 11.2166 5.59518 11.2061 5.63154C11.2009 5.64965 11.1982 5.66952 11.2035 5.68727C11.2093 5.70629 11.2236 5.72051 11.2467 5.72738L11.2553 5.69861ZM11.2806 5.62728C11.2761 5.65785 11.2733 5.67614 11.2683 5.68728C11.2661 5.69228 11.264 5.69447 11.2622 5.69564C11.2603 5.69682 11.2572 5.69799 11.251 5.69799V5.72799C11.2609 5.72799 11.2703 5.7261 11.2784 5.72086C11.2866 5.71559 11.2919 5.70797 11.2957 5.69947C11.3028 5.68361 11.3061 5.66013 11.3103 5.63164L11.2806 5.62728ZM11.2806 5.62747L11.2806 5.62749L11.3103 5.63143L11.3103 5.63141L11.2806 5.62747ZM11.2806 5.62701L11.2806 5.62706L11.3102 5.63181L11.3103 5.63176L11.2806 5.62701ZM11.2872 5.58453C11.2845 5.60044 11.2824 5.61467 11.2806 5.6272L11.3103 5.63157C11.3121 5.61902 11.3142 5.60505 11.3168 5.58946L11.2872 5.58453ZM11.3459 5.7516C11.37 5.69186 11.3571 5.62356 11.3129 5.5767L11.2911 5.59729C11.3272 5.63563 11.3378 5.6915 11.3181 5.74039L11.3459 5.7516ZM11.3166 5.80935C11.327 5.79252 11.3386 5.7737 11.3462 5.75074L11.3178 5.74125C11.3113 5.76048 11.3016 5.77653 11.2911 5.79367L11.3166 5.80935ZM11.287 5.88999C11.287 5.85815 11.3002 5.83605 11.3166 5.80935L11.2911 5.79367C11.2749 5.81997 11.257 5.84871 11.257 5.88999H11.287ZM11.317 5.93499C11.3082 5.93499 11.3015 5.93234 11.2967 5.92696C11.2918 5.9213 11.287 5.91039 11.287 5.88999H11.257C11.257 5.91459 11.2627 5.93369 11.2742 5.94678C11.286 5.96015 11.3018 5.96499 11.317 5.96499V5.93499ZM11.3681 5.81307C11.3621 5.85965 11.3555 5.89131 11.3465 5.91113C11.342 5.92083 11.3374 5.92664 11.333 5.93004C11.3288 5.93324 11.3238 5.93499 11.317 5.93499V5.96499C11.3297 5.96499 11.3412 5.9615 11.3512 5.95391C11.3608 5.94653 11.3681 5.93603 11.3738 5.92361C11.3849 5.89918 11.3919 5.86334 11.3979 5.81691L11.3681 5.81307ZM11.4165 6.00331C11.4245 5.99131 11.4284 5.97511 11.43 5.95861C11.4316 5.94175 11.431 5.92289 11.4286 5.90424C11.424 5.86763 11.4123 5.82848 11.3949 5.80585L11.3711 5.82414C11.3837 5.84051 11.3945 5.87335 11.3989 5.908C11.401 5.92498 11.4015 5.94155 11.4001 5.95572C11.3987 5.97025 11.3955 5.98068 11.3915 5.98667L11.4165 6.00331ZM11.3911 6.04055L11.4164 6.00343L11.3916 5.98655L11.3663 6.02367L11.3911 6.04055ZM11.317 6.18099C11.317 6.16638 11.3219 6.15074 11.3341 6.12853C11.3464 6.10615 11.365 6.07877 11.3911 6.04057L11.3663 6.02365C11.3406 6.06133 11.3209 6.09014 11.3078 6.11411C11.2945 6.13824 11.287 6.1591 11.287 6.18099H11.317ZM11.3774 6.12936C11.3702 6.15826 11.3614 6.17758 11.353 6.18971C11.3444 6.20198 11.3371 6.20563 11.3331 6.20636C11.3297 6.20696 11.3264 6.20597 11.3233 6.20225C11.3199 6.19821 11.317 6.19098 11.317 6.18099H11.287C11.287 6.19651 11.2915 6.21102 11.3003 6.22152C11.3094 6.23233 11.323 6.23865 11.3384 6.23588C11.3531 6.23324 11.3664 6.22282 11.3776 6.20687C11.3888 6.19078 11.3988 6.16772 11.4065 6.13663L11.3774 6.12936ZM11.407 6.26499C11.4219 6.26698 11.4219 6.26697 11.4219 6.26697C11.4219 6.26697 11.4219 6.26696 11.4219 6.26696C11.4219 6.26696 11.4219 6.26695 11.4219 6.26694C11.4219 6.26692 11.4219 6.2669 11.4219 6.26687C11.4219 6.26681 11.4219 6.26673 11.4219 6.26663C11.4219 6.26643 11.422 6.26615 11.422 6.26578C11.4221 6.26505 11.4222 6.264 11.4224 6.26266C11.4227 6.25998 11.423 6.25615 11.4234 6.25143C11.4241 6.24202 11.4248 6.22898 11.4246 6.21454C11.4242 6.18666 11.4206 6.14978 11.4046 6.12488L11.3794 6.14111C11.3904 6.15821 11.3942 6.18733 11.3946 6.21495C11.3948 6.22825 11.3942 6.24035 11.3935 6.24912C11.3931 6.2535 11.3928 6.25702 11.3925 6.25943C11.3924 6.26063 11.3923 6.26156 11.3922 6.26216C11.3922 6.26247 11.3922 6.26269 11.3921 6.26284C11.3921 6.26291 11.3921 6.26296 11.3921 6.26299C11.3921 6.263 11.3921 6.26301 11.3921 6.26302C11.3921 6.26302 11.3921 6.26302 11.3921 6.26302C11.3921 6.26302 11.3921 6.26302 11.3921 6.26302C11.3921 6.26301 11.3921 6.26301 11.407 6.26499ZM11.381 6.33758C11.3992 6.32054 11.422 6.30013 11.422 6.26499H11.392C11.392 6.28533 11.3801 6.29731 11.3605 6.31567L11.381 6.33758ZM11.338 6.41553C11.3394 6.37694 11.3592 6.35802 11.381 6.33758L11.3605 6.31567C11.3384 6.33639 11.3098 6.36271 11.308 6.41446L11.338 6.41553ZM11.338 6.51999V6.41499H11.308V6.51999H11.338ZM8.15199 5.67999V6.51999H8.18199V5.67999H8.15199ZM8.21588 5.71818C8.2103 5.70637 8.20447 5.69394 8.198 5.6846C8.19185 5.67572 8.18198 5.66499 8.16699 5.66499V5.69499C8.16699 5.69499 8.16699 5.69499 8.16698 5.69499C8.16697 5.69499 8.16696 5.69499 8.16695 5.69499C8.16693 5.69499 8.16694 5.69499 8.16699 5.695C8.16708 5.69504 8.16741 5.69517 8.16798 5.69559C8.16922 5.69651 8.17102 5.69834 8.17334 5.70168C8.17809 5.70854 8.1828 5.71841 8.18876 5.73101L8.21588 5.71818ZM8.29299 5.79399C8.27309 5.79399 8.25869 5.78507 8.24661 5.771C8.23404 5.75637 8.22487 5.73719 8.21588 5.71818L8.18876 5.73101C8.1974 5.74928 8.20818 5.77231 8.22385 5.79055C8.24 5.80936 8.26212 5.82399 8.29299 5.82399V5.79399ZM8.29537 5.72111C8.30774 5.74035 8.31369 5.76109 8.31254 5.77555C8.31197 5.78257 8.30987 5.78689 8.30742 5.78938C8.30518 5.79165 8.30111 5.79399 8.29299 5.79399V5.82399C8.30737 5.82399 8.31979 5.81958 8.32881 5.81042C8.33761 5.80147 8.3415 5.78967 8.34244 5.77794C8.34428 5.75489 8.33523 5.72764 8.32061 5.70488L8.29537 5.72111ZM8.28189 5.51887C8.26316 5.57038 8.26046 5.61048 8.26581 5.6434C8.27113 5.67612 8.28427 5.70058 8.29478 5.72011L8.3212 5.70588C8.31071 5.68641 8.29985 5.66587 8.29542 5.63859C8.29102 5.61151 8.29282 5.57661 8.31009 5.52912L8.28189 5.51887ZM8.3625 5.58186C8.36513 5.59173 8.36114 5.58878 8.36557 5.58617C8.36694 5.58536 8.36746 5.58583 8.36584 5.5856C8.36428 5.58539 8.36168 5.58462 8.35814 5.58274C8.34367 5.57506 8.32259 5.55361 8.3101 5.51891L8.28188 5.52907C8.29639 5.56938 8.32181 5.59742 8.34408 5.60924C8.34974 5.61224 8.35571 5.61448 8.36167 5.61531C8.36755 5.61614 8.37452 5.61572 8.38082 5.612C8.39508 5.60358 8.39485 5.58676 8.39148 5.57413L8.3625 5.58186ZM8.33632 5.52296C8.34652 5.54088 8.35639 5.55832 8.36247 5.58176L8.39151 5.57423C8.38433 5.54652 8.37256 5.52598 8.36239 5.50811L8.33632 5.52296ZM8.32702 5.35354C8.31 5.39713 8.3058 5.42928 8.30973 5.45643C8.31363 5.48339 8.32541 5.5038 8.33632 5.52296L8.36239 5.50811C8.35122 5.4885 8.3424 5.47272 8.33942 5.45214C8.33647 5.43176 8.33913 5.40502 8.35496 5.36445L8.32702 5.35354ZM8.39244 5.40163C8.39567 5.41457 8.39372 5.42141 8.39228 5.42379C8.39195 5.42433 8.39168 5.42461 8.39153 5.42474C8.39139 5.42486 8.3913 5.4249 8.39125 5.42492C8.39123 5.42493 8.39065 5.42517 8.38919 5.42477C8.38594 5.42389 8.37944 5.41998 8.37252 5.40871C8.36577 5.39771 8.35936 5.38083 8.35583 5.35681L8.32615 5.36118C8.33012 5.38816 8.33759 5.40915 8.34696 5.42441C8.35616 5.43939 8.36804 5.4501 8.38129 5.45372C8.38808 5.45557 8.39528 5.45553 8.40206 5.45291C8.40886 5.45028 8.41425 5.44543 8.41795 5.43932C8.42513 5.42745 8.42581 5.41142 8.42154 5.39436L8.39244 5.40163ZM8.37772 5.35853C8.38304 5.37225 8.38835 5.38596 8.39247 5.40178L8.4215 5.39421C8.41688 5.3765 8.41097 5.36129 8.40568 5.34768L8.37772 5.35853ZM8.38457 5.19629C8.36563 5.23418 8.359 5.26359 8.36003 5.28992C8.36105 5.31592 8.36956 5.33753 8.37772 5.35853L8.40568 5.34768C8.39731 5.3261 8.3908 5.309 8.39001 5.28875C8.38923 5.26884 8.39401 5.24449 8.41141 5.2097L8.38457 5.19629ZM8.44299 5.23899C8.44299 5.25545 8.44097 5.26649 8.43854 5.27237C8.43731 5.27536 8.43654 5.27562 8.43724 5.27511C8.43866 5.27406 8.44098 5.27366 8.44272 5.27422C8.44358 5.2745 8.44267 5.27449 8.4403 5.27169C8.43809 5.26906 8.43532 5.26483 8.43221 5.25851C8.42598 5.2459 8.41917 5.22662 8.41256 5.19945L8.38341 5.20654C8.3903 5.23487 8.39774 5.25646 8.4053 5.27179C8.40908 5.27944 8.41309 5.28595 8.41737 5.29103C8.42151 5.29594 8.42684 5.30062 8.43351 5.30277C8.44106 5.30521 8.44877 5.30386 8.45501 5.29928C8.46052 5.29523 8.464 5.28934 8.46628 5.2838C8.47088 5.27263 8.47299 5.25704 8.47299 5.23899H8.44299ZM8.57955 4.97566C8.51192 4.9966 8.47689 5.03688 8.45959 5.08588C8.44283 5.13338 8.44299 5.18864 8.44299 5.23899H8.47299C8.47299 5.18735 8.47315 5.1376 8.48788 5.09586C8.50209 5.05561 8.53006 5.02239 8.58842 5.00432L8.57955 4.97566ZM8.64099 4.88499C8.62368 4.88499 8.61033 4.89331 8.60068 4.90402C8.59128 4.91447 8.58485 4.92771 8.58041 4.93983C8.5759 4.95211 8.57309 4.96422 8.57141 4.97315C8.57056 4.97764 8.56998 4.98141 8.56961 4.98407C8.56943 4.98541 8.56929 4.98648 8.5692 4.98723C8.56916 4.9876 8.56913 4.9879 8.5691 4.98812C8.56909 4.98822 8.56908 4.98831 8.56908 4.98837C8.56907 4.98841 8.56907 4.98843 8.56907 4.98845C8.56907 4.98846 8.56907 4.98847 8.56907 4.98848C8.56906 4.98849 8.56906 4.98849 8.56906 4.98849C8.56906 4.9885 8.56906 4.9885 8.58399 4.98999C8.59891 4.99149 8.59891 4.99149 8.59891 4.99149C8.59891 4.99149 8.59891 4.9915 8.59891 4.9915C8.59891 4.9915 8.59891 4.9915 8.59891 4.9915C8.59891 4.9915 8.59891 4.99149 8.59891 4.99148C8.59892 4.99146 8.59892 4.99142 8.59893 4.99136C8.59894 4.99123 8.59897 4.99102 8.599 4.99074C8.59907 4.99017 8.59917 4.9893 8.59933 4.98818C8.59964 4.98593 8.60014 4.98266 8.60088 4.97872C8.60238 4.97077 8.60482 4.96038 8.60857 4.95016C8.61238 4.93978 8.61719 4.93052 8.62298 4.92409C8.62853 4.91793 8.6343 4.91499 8.64099 4.91499V4.88499ZM8.69499 4.98999C8.70991 4.9885 8.70991 4.9885 8.70991 4.98849C8.70991 4.98849 8.70991 4.98849 8.70991 4.98848C8.70991 4.98848 8.70991 4.98847 8.70991 4.98846C8.70991 4.98844 8.7099 4.98841 8.7099 4.98838C8.7099 4.98831 8.70989 4.98823 8.70987 4.98812C8.70985 4.98791 8.70982 4.98762 8.70978 4.98724C8.70969 4.9865 8.70956 4.98544 8.70938 4.98411C8.70902 4.98145 8.70845 4.97771 8.70763 4.97323C8.706 4.96433 8.7033 4.95226 8.69902 4.94004C8.6948 4.92799 8.68871 4.91478 8.67984 4.90434C8.67077 4.89367 8.65792 4.88499 8.64099 4.88499V4.91499C8.64656 4.91499 8.65171 4.91757 8.65698 4.92377C8.66245 4.93021 8.66705 4.9395 8.67071 4.94995C8.6743 4.96022 8.67666 4.97066 8.67813 4.97864C8.67885 4.98259 8.67934 4.98588 8.67965 4.98814C8.6798 4.98928 8.67991 4.99015 8.67998 4.99072C8.68001 4.99101 8.68003 4.99122 8.68005 4.99135C8.68006 4.99141 8.68006 4.99146 8.68006 4.99148C8.68006 4.99149 8.68006 4.9915 8.68006 4.9915C8.68006 4.9915 8.68006 4.9915 8.68006 4.9915C8.68006 4.9915 8.68006 4.99149 8.68006 4.99149C8.68006 4.99149 8.68006 4.99149 8.69499 4.98999ZM8.83599 5.2324C8.83602 5.18439 8.83623 5.13053 8.81943 5.08393C8.8021 5.03585 8.76699 4.99609 8.69933 4.97564L8.69065 5.00435C8.74912 5.02203 8.77705 5.05483 8.79121 5.0941C8.80589 5.13484 8.80602 5.18311 8.80599 5.23238L8.83599 5.2324ZM8.83599 5.239L8.83599 5.2324L8.80599 5.23239L8.80599 5.23899L8.83599 5.239ZM8.86641 5.19945C8.8598 5.22662 8.85299 5.2459 8.84677 5.25851C8.84366 5.26483 8.84089 5.26906 8.83867 5.27169C8.83631 5.27449 8.8354 5.2745 8.83626 5.27422C8.838 5.27366 8.84032 5.27406 8.84174 5.27511C8.84243 5.27562 8.84167 5.27536 8.84044 5.27237C8.83801 5.26649 8.83599 5.25545 8.83599 5.23899H8.80599C8.80599 5.25704 8.80809 5.27263 8.8127 5.2838C8.81498 5.28934 8.81846 5.29523 8.82397 5.29928C8.83021 5.30386 8.83791 5.30521 8.84547 5.30277C8.85214 5.30062 8.85746 5.29594 8.86161 5.29103C8.86589 5.28595 8.8699 5.27944 8.87368 5.27179C8.88123 5.25646 8.88867 5.23487 8.89556 5.20654L8.86641 5.19945ZM8.90126 5.35853C8.90941 5.33753 8.91793 5.31592 8.91895 5.28992C8.91998 5.26359 8.91335 5.23418 8.89441 5.19629L8.86757 5.2097C8.88497 5.24449 8.88975 5.26884 8.88897 5.28875C8.88818 5.309 8.88167 5.3261 8.87329 5.34768L8.90126 5.35853ZM8.8865 5.40178C8.89063 5.38596 8.89594 5.37225 8.90126 5.35853L8.87329 5.34768C8.86801 5.36129 8.86209 5.3765 8.85747 5.39421L8.8865 5.40178ZM8.92315 5.35681C8.91962 5.38083 8.91321 5.39771 8.90646 5.40871C8.89953 5.41998 8.89304 5.42389 8.88979 5.42477C8.88833 5.42517 8.88775 5.42493 8.88773 5.42492C8.88768 5.4249 8.88759 5.42486 8.88745 5.42474C8.8873 5.42461 8.88703 5.42433 8.8867 5.42379C8.88525 5.42141 8.88331 5.41457 8.88654 5.40163L8.85744 5.39436C8.85317 5.41142 8.85385 5.42745 8.86103 5.43932C8.86473 5.44543 8.87011 5.45028 8.87692 5.45291C8.8837 5.45553 8.8909 5.45557 8.89769 5.45372C8.91094 5.4501 8.92282 5.43939 8.93202 5.42441C8.94139 5.40915 8.94886 5.38816 8.95283 5.36118L8.92315 5.35681ZM8.94266 5.52296C8.95357 5.5038 8.96535 5.48339 8.96925 5.45643C8.97318 5.42928 8.96897 5.39713 8.95196 5.35354L8.92402 5.36445C8.93985 5.40502 8.94251 5.43176 8.93956 5.45214C8.93658 5.47272 8.92776 5.4885 8.91659 5.50811L8.94266 5.52296ZM8.91651 5.58176C8.92258 5.55832 8.93246 5.54088 8.94266 5.52296L8.91659 5.50811C8.90641 5.52598 8.89465 5.54652 8.88747 5.57423L8.91651 5.58176ZM8.96888 5.51891C8.95639 5.55361 8.93531 5.57506 8.92083 5.58274C8.9173 5.58462 8.9147 5.58539 8.91314 5.5856C8.91152 5.58583 8.91203 5.58536 8.91341 5.58617C8.91783 5.58878 8.91385 5.59173 8.91648 5.58186L8.8875 5.57413C8.88413 5.58676 8.88389 5.60358 8.89816 5.612C8.90446 5.61572 8.91142 5.61614 8.91731 5.61531C8.92326 5.61448 8.92924 5.61224 8.93489 5.60924C8.95717 5.59743 8.98259 5.56938 8.9971 5.52907L8.96888 5.51891ZM8.9842 5.72011C8.99471 5.70058 9.00785 5.67612 9.01317 5.6434C9.01852 5.61048 9.01582 5.57038 8.99709 5.51887L8.96889 5.52912C8.98616 5.57661 8.98796 5.61151 8.98356 5.63859C8.97913 5.66587 8.96827 5.68641 8.95778 5.70588L8.9842 5.72011ZM8.98599 5.79399C8.97787 5.79399 8.97414 5.79166 8.9722 5.78961C8.97 5.78728 8.96802 5.78304 8.96759 5.77585C8.9667 5.76108 8.97281 5.74004 8.98401 5.72044L8.95797 5.70555C8.94517 5.72795 8.93628 5.75491 8.93764 5.77764C8.93833 5.7892 8.94179 5.80109 8.95037 5.81019C8.95922 5.81957 8.97161 5.82399 8.98599 5.82399V5.79399ZM9.06316 5.72002C9.05417 5.73859 9.04502 5.75727 9.03249 5.77153C9.02045 5.78521 9.00602 5.79399 8.98599 5.79399V5.82399C9.01672 5.82399 9.03881 5.80976 9.05502 5.79134C9.07072 5.77348 9.08152 5.75094 9.09016 5.73309L9.06316 5.72002ZM9.11199 5.66799C9.09716 5.66799 9.0873 5.67838 9.08107 5.68716C9.07458 5.69631 9.06874 5.7085 9.06316 5.72002L9.09016 5.73309C9.09612 5.72078 9.10082 5.71118 9.10555 5.70451C9.10784 5.70127 9.10963 5.6995 9.11086 5.69861C9.11143 5.6982 9.11176 5.69806 9.11188 5.69802C9.11197 5.69799 9.11198 5.69799 9.11199 5.69799V5.66799ZM9.12699 6.51999V5.68299H9.09699V6.51999H9.12699ZM8.16699 6.53499H9.11199V6.50499H8.16699V6.53499ZM10.8784 4.95201C10.8555 4.95296 10.8384 4.9637 10.8263 4.97841C10.8145 4.9927 10.8074 5.01067 10.803 5.02728C10.7985 5.04404 10.7966 5.0605 10.7957 5.07264C10.7952 5.07874 10.7951 5.08384 10.795 5.08744C10.795 5.08925 10.795 5.09068 10.795 5.09168C10.795 5.09219 10.795 5.09258 10.795 5.09287C10.795 5.09301 10.795 5.09312 10.795 5.0932C10.795 5.09324 10.795 5.09328 10.795 5.0933C10.795 5.09332 10.795 5.09333 10.795 5.09334C10.795 5.09334 10.795 5.09335 10.795 5.09335C10.795 5.09335 10.795 5.09336 10.81 5.09299C10.825 5.09263 10.825 5.09263 10.825 5.09264C10.825 5.09264 10.825 5.09264 10.825 5.09264C10.825 5.09264 10.825 5.09264 10.825 5.09264C10.825 5.09264 10.825 5.09263 10.825 5.09261C10.825 5.09257 10.825 5.09251 10.825 5.09242C10.825 5.09223 10.825 5.09194 10.825 5.09154C10.825 5.09074 10.825 5.08953 10.825 5.08796C10.8251 5.08483 10.8252 5.08029 10.8256 5.07482C10.8264 5.0638 10.8282 5.04932 10.832 5.03496C10.8358 5.02044 10.8415 5.0071 10.8494 4.99748C10.857 4.98829 10.8665 4.98253 10.8796 4.98198L10.8784 4.95201ZM10.945 5.09299C10.96 5.09335 10.96 5.09335 10.96 5.09334C10.96 5.09334 10.96 5.09333 10.96 5.09333C10.96 5.09332 10.96 5.09331 10.96 5.0933C10.96 5.09327 10.96 5.09324 10.96 5.09319C10.96 5.09311 10.96 5.093 10.96 5.09286C10.96 5.09257 10.96 5.09217 10.96 5.09166C10.96 5.09064 10.96 5.08918 10.96 5.08735C10.9599 5.08369 10.9598 5.0785 10.9593 5.0723C10.9585 5.05996 10.9566 5.04326 10.9524 5.02636C10.9482 5.00965 10.9415 4.99154 10.9301 4.97733C10.9184 4.96262 10.9016 4.95199 10.879 4.95199V4.98199C10.8909 4.98199 10.8996 4.98712 10.9067 4.99603C10.9142 5.00545 10.9196 5.01884 10.9233 5.03363C10.927 5.04823 10.9287 5.06303 10.9294 5.07432C10.9298 5.07992 10.9299 5.08458 10.93 5.08781C10.93 5.08942 10.93 5.09067 10.93 5.0915C10.93 5.09191 10.93 5.09221 10.93 5.09241C10.93 5.0925 10.93 5.09257 10.93 5.09261C10.93 5.09263 10.93 5.09264 10.93 5.09265C10.93 5.09265 10.93 5.09265 10.93 5.09265C10.93 5.09265 10.93 5.09264 10.93 5.09264C10.93 5.09264 10.93 5.09264 10.945 5.09299ZM10.81 5.10799H10.945V5.07799H10.81V5.10799Z" fill="white"/>
<rect x="3" y="1" width="16" height="12" fill="url(#paint0_linear)" style="mix-blend-mode:overlay"/>
</g>
<defs>
<filter id="filter0_d" x="0" y="0" width="22" height="18" filterUnits="userSpaceOnUse" color-interpolation-filters="sRGB">
<feFlood flood-opacity="0" result="BackgroundImageFix"/>
<feColorMatrix in="SourceAlpha" type="matrix" values="0 0 0 0 0 0 0 0 0 0 0 0 0 0 0 0 0 0 127 0" result="hardAlpha"/>
<feOffset dy="2"/>
<feGaussianBlur stdDeviation="1.5"/>
<feColorMatrix type="matrix" values="0 0 0 0 0 0 0 0 0 0 0 0 0 0 0 0 0 0 0.1 0"/>
<feBlend mode="normal" in2="BackgroundImageFix" result="effect1_dropShadow"/>
<feBlend mode="normal" in="SourceGraphic" in2="effect1_dropShadow" result="shape"/>
</filter>
<linearGradient id="paint0_linear" x1="11" y1="1" x2="11" y2="13" gradientUnits="userSpaceOnUse">
<stop stop-color="white" stop-opacity="0.7"/>
<stop offset="1" stop-opacity="0.3"/>
</linearGradient>
</defs>
</svg>
