<svg width="22" height="18" viewBox="0 0 22 18" fill="none" xmlns="http://www.w3.org/2000/svg">
<g filter="url(#filter0_d)">
<mask id="mask0" style="mask-type:alpha" maskUnits="userSpaceOnUse" x="3" y="1" width="16" height="12">
<rect x="3" y="1" width="16" height="12" fill="white"/>
</mask>
<g mask="url(#mask0)">
<path fill-rule="evenodd" clip-rule="evenodd" d="M3 1V13H19V1H3Z" fill="#E31D1C"/>
<mask id="mask1" style="mask-type:alpha" maskUnits="userSpaceOnUse" x="3" y="1" width="16" height="12">
<path fill-rule="evenodd" clip-rule="evenodd" d="M3 1V13H19V1H3Z" fill="white"/>
</mask>
<g mask="url(#mask1)">
<path fill-rule="evenodd" clip-rule="evenodd" d="M10.6616 9.58849L10.8906 9.09211L11.1195 9.58849L11.2553 9.05954L11.5699 9.50741L11.6084 8.9629L11.9985 9.34785L11.9384 8.80528L12.3916 9.11495L12.2347 8.59175L12.7363 8.81618L12.4878 8.32918L13.0218 8.46116L12.6895 8.026L13.2387 8.06128L12.8335 7.69196L13.3802 7.62941L12.915 7.33779L13.4416 7.17943L12.9314 6.97488L13.4211 6.72579L12.8823 6.6149L13.3192 6.28309L12.7691 6.2694L13.1393 5.86553L12.5955 5.9495L12.8871 5.48656L12.3672 5.66548L12.5707 5.15834L12.0914 5.42647L12.2003 4.89143L11.7769 5.24015L11.7878 4.69441L11.434 5.1125L11.3465 4.5736L11.0737 5.04763L10.8906 4.5329L10.7074 5.04763L10.4346 4.5736L10.3471 5.1125L9.99327 4.69441L10.0042 5.24015L9.58079 4.89143L9.68976 5.42647L9.21041 5.15834L9.41394 5.66548L8.89403 5.48656L9.18559 5.9495L8.64182 5.86553L9.01203 6.2694L8.46189 6.28309L8.89886 6.6149L8.36002 6.72579L8.84969 6.97488L8.33948 7.17943L8.86612 7.33779L8.40093 7.62941L8.94762 7.69196L8.5424 8.06128L9.09157 8.026L8.75935 8.46116L9.29334 8.32918L9.04479 8.81618L9.54644 8.59175L9.38956 9.11495L9.84274 8.80528L9.78257 9.34785L10.1727 8.9629L10.2112 9.50741L10.5258 9.05954L10.6616 9.58849Z" fill="#FFC84A"/>
<path fill-rule="evenodd" clip-rule="evenodd" d="M2.60399 7.96006L3.91142 7.42946C4.10199 7.35212 4.31538 7.35306 4.50527 7.43208L6.32064 8.18756C6.52604 8.27303 6.75814 8.26687 6.95871 8.17061L8.42302 7.46789C8.63304 7.3671 8.87708 7.36531 9.08856 7.46301L10.6223 8.17154C10.8289 8.26699 11.0669 8.26758 11.274 8.17314L12.8433 7.45745C13.0504 7.36305 13.2883 7.3636 13.4948 7.45897L15.0443 8.17426C15.2476 8.26814 15.4815 8.27021 15.6865 8.17995L17.3795 7.43446C17.5628 7.35375 17.7701 7.34653 17.9586 7.41429L19.4765 7.96006V12.9669H2.55951L2.60399 7.96006Z" fill="#F7FCFF"/>
<mask id="mask2" style="mask-type:alpha" maskUnits="userSpaceOnUse" x="2" y="7" width="18" height="6">
<path fill-rule="evenodd" clip-rule="evenodd" d="M2.60399 7.96006L3.91142 7.42946C4.10199 7.35212 4.31538 7.35306 4.50527 7.43208L6.32064 8.18756C6.52604 8.27303 6.75814 8.26687 6.95871 8.17061L8.42302 7.46789C8.63304 7.3671 8.87708 7.36531 9.08856 7.46301L10.6223 8.17154C10.8289 8.26699 11.0669 8.26758 11.274 8.17314L12.8433 7.45745C13.0504 7.36305 13.2883 7.3636 13.4948 7.45897L15.0443 8.17426C15.2476 8.26814 15.4815 8.27021 15.6865 8.17995L17.3795 7.43446C17.5628 7.35375 17.7701 7.34653 17.9586 7.41429L19.4765 7.96006V12.9669H2.55951L2.60399 7.96006Z" fill="white"/>
</mask>
<g mask="url(#mask2)">
<path d="M2.604 9.12287L3.91143 8.59227C4.102 8.51493 4.31539 8.51587 4.50528 8.59489L6.32065 9.35037C6.52605 9.43584 6.75815 9.42968 6.95872 9.33342L8.42302 8.6307C8.63305 8.52991 8.87709 8.52812 9.08857 8.62581L10.6223 9.33435C10.8289 9.4298 11.0669 9.43039 11.274 9.33595L12.8434 8.62026C13.0504 8.52586 13.2883 8.52641 13.4949 8.62178L15.0443 9.33707C15.2476 9.43095 15.4815 9.43302 15.6865 9.34276L17.3795 8.59727C17.5628 8.51656 17.7701 8.50934 17.9586 8.5771L19.4765 9.12287" stroke="#015989"/>
<path d="M2.604 10.7874L3.91143 10.2568C4.102 10.1794 4.31539 10.1804 4.50528 10.2594L6.32065 11.0149C6.52605 11.1003 6.75815 11.0942 6.95872 10.9979L8.42302 10.2952C8.63305 10.1944 8.87709 10.1926 9.08857 10.2903L10.6223 10.9988C10.8289 11.0943 11.0669 11.0949 11.274 11.0004L12.8434 10.2848C13.0504 10.1903 13.2883 10.1909 13.4949 10.2863L15.0443 11.0016C15.2476 11.0954 15.4815 11.0975 15.6865 11.0073L17.3795 10.2618C17.5628 10.181 17.7701 10.1738 17.9586 10.2416L19.4765 10.7874" stroke="#015989"/>
<path fill-rule="evenodd" clip-rule="evenodd" d="M2.604 12.1136L3.14984 11.8921C3.82834 11.6168 4.58806 11.6201 5.26411 11.9015L6.32065 12.3411C6.52605 12.4266 6.75815 12.4205 6.95872 12.3242L7.57398 12.0289C8.32171 11.6701 9.19059 11.6637 9.94351 12.0115L10.6223 12.3251C10.8289 12.4206 11.0669 12.4212 11.274 12.3267L12.0084 11.9918C12.7455 11.6557 13.5925 11.6576 14.328 11.9972L15.0443 12.3279C15.2476 12.4217 15.4815 12.4238 15.6865 12.3335L16.6485 11.9099C17.3011 11.6226 18.0392 11.5969 18.7102 11.8381L19.4765 12.1136V13.7711H2.69581L2.604 12.1136Z" fill="#015989"/>
</g>
<path fill-rule="evenodd" clip-rule="evenodd" d="M7.80069 2.19904C7.80069 2.19904 8.51304 2.34152 8.74735 2.34152C8.98165 2.34152 9.51025 1.98326 9.81599 2.10268C10.1217 2.2221 10.7098 2.78684 10.7098 2.78684C10.7098 2.78684 11.5427 2.16211 12.0495 2.16211C12.5564 2.16211 13.487 2.23 13.487 2.23C13.487 2.23 13.2725 2.78674 12.6692 2.88104C12.0659 2.97535 11.3442 3.43721 11.3442 3.43721C11.3442 3.43721 12.1752 3.43721 12.3247 3.43721C12.4741 3.43721 12.9688 3.71367 12.9688 3.71367C12.9688 3.71367 12.2668 3.93603 12.0659 3.93603C11.8651 3.93603 11.6432 3.93603 11.6432 3.93603C11.6432 3.93603 11.2161 4.30251 10.6885 4.22453C10.1609 4.14656 9.7918 3.8081 9.7918 3.8081C9.7918 3.8081 9.0471 3.75919 9.0471 3.67958C9.0471 3.67958 8.76266 3.5338 8.67704 3.67958C8.59142 3.82536 9.0471 3.48436 9.0471 3.48436C9.0471 3.48436 9.45866 3.15023 9.59811 3.15023C9.73757 3.15023 10.2033 3.43721 10.2033 3.43721L10.3145 3.3216L9.73757 2.88104C8.56086 3.00433 7.80069 2.19904 7.80069 2.19904Z" fill="#FFC84A"/>
</g>
</g>
<rect x="3" y="1" width="16" height="12" fill="url(#paint0_linear)" style="mix-blend-mode:overlay"/>
</g>
<defs>
<filter id="filter0_d" x="0" y="0" width="22" height="18" filterUnits="userSpaceOnUse" color-interpolation-filters="sRGB">
<feFlood flood-opacity="0" result="BackgroundImageFix"/>
<feColorMatrix in="SourceAlpha" type="matrix" values="0 0 0 0 0 0 0 0 0 0 0 0 0 0 0 0 0 0 127 0" result="hardAlpha"/>
<feOffset dy="2"/>
<feGaussianBlur stdDeviation="1.5"/>
<feColorMatrix type="matrix" values="0 0 0 0 0 0 0 0 0 0 0 0 0 0 0 0 0 0 0.1 0"/>
<feBlend mode="normal" in2="BackgroundImageFix" result="effect1_dropShadow"/>
<feBlend mode="normal" in="SourceGraphic" in2="effect1_dropShadow" result="shape"/>
</filter>
<linearGradient id="paint0_linear" x1="11" y1="1" x2="11" y2="13" gradientUnits="userSpaceOnUse">
<stop stop-color="white" stop-opacity="0.7"/>
<stop offset="1" stop-opacity="0.3"/>
</linearGradient>
</defs>
</svg>
