<svg width="22" height="18" viewBox="0 0 22 18" fill="none" xmlns="http://www.w3.org/2000/svg">
<g filter="url(#filter0_d)">
<path fill-rule="evenodd" clip-rule="evenodd" d="M3 1V13H19V1H3Z" fill="#5196ED"/>
<mask id="mask0" style="mask-type:alpha" maskUnits="userSpaceOnUse" x="3" y="1" width="16" height="12">
<path fill-rule="evenodd" clip-rule="evenodd" d="M3 1V13H19V1H3Z" fill="white"/>
</mask>
<g mask="url(#mask0)">
<path fill-rule="evenodd" clip-rule="evenodd" d="M3 7V10H19V7H3Z" fill="#AF0100"/>
<path fill-rule="evenodd" clip-rule="evenodd" d="M3 4V7H19V4H3Z" fill="#F7FCFF"/>
<path fill-rule="evenodd" clip-rule="evenodd" d="M3 1V4H19V1H3Z" fill="#FBCD17"/>
<path fill-rule="evenodd" clip-rule="evenodd" d="M3 1L11 7L3 13V1Z" fill="#5EAA22"/>
<path fill-rule="evenodd" clip-rule="evenodd" d="M6.1523 9.72789C6.1523 9.72789 4.36062 9.06072 4.42399 6.97229C4.48737 4.88385 6.31171 4.47463 6.31171 4.47463C5.6728 3.97129 3.38663 4.56112 3.31346 6.97229C3.2403 9.38346 5.47105 9.91914 6.1523 9.72789ZM6.24732 6.14269L6.31468 5.74999L6.02936 5.47187L6.42366 5.41458L6.59999 5.05728L6.77633 5.41458L7.17063 5.47187L6.88531 5.74999L6.95266 6.14269L6.59999 5.95728L6.24732 6.14269ZM6.31468 6.74999L6.24732 7.14269L6.59999 6.95728L6.95266 7.14269L6.88531 6.74999L7.17063 6.47187L6.77633 6.41458L6.59999 6.05728L6.42366 6.41458L6.02936 6.47187L6.31468 6.74999ZM6.24732 8.14269L6.31468 7.74999L6.02936 7.47187L6.42366 7.41458L6.59999 7.05728L6.77633 7.41458L7.17063 7.47187L6.88531 7.74999L6.95266 8.14269L6.59999 7.95728L6.24732 8.14269ZM6.24732 9.14269L6.31468 8.74999L6.02936 8.47187L6.42366 8.41458L6.59999 8.05728L6.77633 8.41458L7.17063 8.47187L6.88531 8.74999L6.95266 9.14269L6.59999 8.95728L6.24732 9.14269Z" fill="#F7FCFF"/>
</g>
<rect x="3" y="1" width="16" height="12" fill="url(#paint0_linear)" style="mix-blend-mode:overlay"/>
</g>
<defs>
<filter id="filter0_d" x="0" y="0" width="22" height="18" filterUnits="userSpaceOnUse" color-interpolation-filters="sRGB">
<feFlood flood-opacity="0" result="BackgroundImageFix"/>
<feColorMatrix in="SourceAlpha" type="matrix" values="0 0 0 0 0 0 0 0 0 0 0 0 0 0 0 0 0 0 127 0" result="hardAlpha"/>
<feOffset dy="2"/>
<feGaussianBlur stdDeviation="1.5"/>
<feColorMatrix type="matrix" values="0 0 0 0 0 0 0 0 0 0 0 0 0 0 0 0 0 0 0.1 0"/>
<feBlend mode="normal" in2="BackgroundImageFix" result="effect1_dropShadow"/>
<feBlend mode="normal" in="SourceGraphic" in2="effect1_dropShadow" result="shape"/>
</filter>
<linearGradient id="paint0_linear" x1="11" y1="1" x2="11" y2="13" gradientUnits="userSpaceOnUse">
<stop stop-color="white" stop-opacity="0.7"/>
<stop offset="1" stop-opacity="0.3"/>
</linearGradient>
</defs>
</svg>
