<svg width="22" height="18" viewBox="0 0 22 18" fill="none" xmlns="http://www.w3.org/2000/svg">
<g filter="url(#filter0_d)">
<mask id="mask0" style="mask-type:alpha" maskUnits="userSpaceOnUse" x="3" y="1" width="16" height="12">
<rect x="3" y="1" width="16" height="12" rx="-1" fill="white"/>
</mask>
<g mask="url(#mask0)">
<path fill-rule="evenodd" clip-rule="evenodd" d="M3 1V13H19V1H3Z" fill="#C51918"/>
<path fill-rule="evenodd" clip-rule="evenodd" d="M3 1V13L19 1H3Z" fill="#5EAA22"/>
<path d="M3.31793 14.976L3.67962 15.3795L4.1303 15.0787L22.2608 2.97695L22.8604 2.57673L22.3792 2.03993L19.7188 -0.927892L19.3571 -1.33137L18.9064 -1.03055L0.775944 11.0712L0.176346 11.4714L0.657537 12.0082L3.31793 14.976Z" fill="#272727" stroke="#FFD018" stroke-width="1.25"/>
<path fill-rule="evenodd" clip-rule="evenodd" d="M9.04429 9.45914L8.49998 10.4065L8.15238 9.33931L7.07133 8.99567L7.97216 8.44535L7.86362 7.32914L8.7527 8.0127L9.67357 7.50225L9.41531 8.63925L10.1541 9.48955L9.04429 9.45914Z" fill="#F7FCFF"/>
<path fill-rule="evenodd" clip-rule="evenodd" d="M14.0443 6.18256L13.5 7.12988L13.1524 6.06273L12.0713 5.71909L12.9722 5.16877L12.8636 4.05256L13.7527 4.73612L14.6736 4.22567L14.4153 5.36267L15.1541 6.21297L14.0443 6.18256Z" fill="#F7FCFF"/>
</g>
<rect x="3" y="1" width="16" height="12" fill="url(#paint0_linear)" style="mix-blend-mode:overlay"/>
</g>
<defs>
<filter id="filter0_d" x="0" y="0" width="22" height="18" filterUnits="userSpaceOnUse" color-interpolation-filters="sRGB">
<feFlood flood-opacity="0" result="BackgroundImageFix"/>
<feColorMatrix in="SourceAlpha" type="matrix" values="0 0 0 0 0 0 0 0 0 0 0 0 0 0 0 0 0 0 127 0" result="hardAlpha"/>
<feOffset dy="2"/>
<feGaussianBlur stdDeviation="1.5"/>
<feColorMatrix type="matrix" values="0 0 0 0 0 0 0 0 0 0 0 0 0 0 0 0 0 0 0.1 0"/>
<feBlend mode="normal" in2="BackgroundImageFix" result="effect1_dropShadow"/>
<feBlend mode="normal" in="SourceGraphic" in2="effect1_dropShadow" result="shape"/>
</filter>
<linearGradient id="paint0_linear" x1="11" y1="1" x2="11" y2="13" gradientUnits="userSpaceOnUse">
<stop stop-color="white" stop-opacity="0.7"/>
<stop offset="1" stop-opacity="0.3"/>
</linearGradient>
</defs>
</svg>
