<svg width="22" height="18" viewBox="0 0 22 18" fill="none" xmlns="http://www.w3.org/2000/svg">
<g filter="url(#filter0_d)">
<mask id="mask0" style="mask-type:alpha" maskUnits="userSpaceOnUse" x="3" y="1" width="16" height="12">
<rect x="3" y="1" width="16" height="12" fill="white"/>
</mask>
<g mask="url(#mask0)">
<path fill-rule="evenodd" clip-rule="evenodd" d="M3 1V13H19V1H3Z" fill="#F7FCFF"/>
<mask id="mask1" style="mask-type:alpha" maskUnits="userSpaceOnUse" x="3" y="1" width="16" height="12">
<path fill-rule="evenodd" clip-rule="evenodd" d="M3 1V13H19V1H3Z" fill="white"/>
</mask>
<g mask="url(#mask1)">
<path fill-rule="evenodd" clip-rule="evenodd" d="M10.8933 10.2857C12.6014 10.2857 13.9861 8.8677 13.9861 7.11848C13.9861 5.36926 12.6014 3.95123 10.8933 3.95123C9.18518 3.95123 7.80048 5.36926 7.80048 7.11848C7.80048 8.8677 9.18518 10.2857 10.8933 10.2857Z" fill="#3D58DB"/>
<mask id="mask2" style="mask-type:alpha" maskUnits="userSpaceOnUse" x="7" y="3" width="7" height="8">
<path fill-rule="evenodd" clip-rule="evenodd" d="M10.8933 10.2857C12.6014 10.2857 13.9861 8.8677 13.9861 7.11848C13.9861 5.36926 12.6014 3.95123 10.8933 3.95123C9.18518 3.95123 7.80048 5.36926 7.80048 7.11848C7.80048 8.8677 9.18518 10.2857 10.8933 10.2857Z" fill="white"/>
</mask>
<g mask="url(#mask2)">
<path fill-rule="evenodd" clip-rule="evenodd" d="M14.0943 7.36111C14.0943 7.36111 13.9207 5.86765 12.635 5.78658C11.3493 5.7055 11.0027 6.88179 10.9285 7.19343C10.8543 7.50508 10.6665 8.33642 9.31282 8.33642C7.95914 8.33642 7.83704 6.22249 7.83704 6.22249V3.72983H14.0943V7.36111Z" fill="#E31D1C"/>
</g>
<path fill-rule="evenodd" clip-rule="evenodd" d="M6.64967 2.02609L7.10715 2.43986L4.98702 4.91581L4.52954 4.50204L6.64967 2.02609ZM7.40416 2.69567L7.86165 3.10943L5.81751 5.54952L5.36003 5.13575L7.40416 2.69567ZM8.61268 3.78726L8.1552 3.3735L6.10539 5.8321L6.56287 6.24586L8.61268 3.78726Z" fill="#272727"/>
<path d="M7.10715 2.43986L7.16412 2.48864L7.21159 2.43319L7.15746 2.38423L7.10715 2.43986ZM6.64967 2.02609L6.69998 1.97047L6.64282 1.91878L6.5927 1.97731L6.64967 2.02609ZM4.98702 4.91581L4.93671 4.97143L4.99387 5.02312L5.04399 4.96459L4.98702 4.91581ZM4.52954 4.50204L4.47257 4.45326L4.4251 4.50871L4.47923 4.55767L4.52954 4.50204ZM7.86165 3.10943L7.91914 3.1576L7.96551 3.10225L7.91195 3.05381L7.86165 3.10943ZM7.40416 2.69567L7.45447 2.64005L7.3967 2.58779L7.34667 2.64751L7.40416 2.69567ZM5.81751 5.54952L5.76721 5.60514L5.82498 5.6574L5.87501 5.59768L5.81751 5.54952ZM5.36003 5.13575L5.30254 5.08759L5.25617 5.14294L5.30973 5.19138L5.36003 5.13575ZM8.1552 3.3735L8.20551 3.31788L8.1476 3.2655L8.0976 3.32547L8.1552 3.3735ZM8.61268 3.78726L8.67029 3.83529L8.71642 3.77996L8.66299 3.73164L8.61268 3.78726ZM6.10539 5.8321L6.04779 5.78407L6.00166 5.8394L6.05508 5.88772L6.10539 5.8321ZM6.56287 6.24586L6.51256 6.30149L6.57048 6.35387L6.62048 6.29389L6.56287 6.24586ZM7.15746 2.38423L6.69998 1.97047L6.59936 2.08172L7.05684 2.49548L7.15746 2.38423ZM5.04399 4.96459L7.16412 2.48864L7.05018 2.39107L4.93005 4.86703L5.04399 4.96459ZM4.47923 4.55767L4.93671 4.97143L5.03733 4.86018L4.57985 4.44642L4.47923 4.55767ZM6.5927 1.97731L4.47257 4.45326L4.58651 4.55083L6.70664 2.07487L6.5927 1.97731ZM7.91195 3.05381L7.45447 2.64005L7.35386 2.7513L7.81134 3.16506L7.91195 3.05381ZM5.87501 5.59768L7.91914 3.1576L7.80415 3.06127L5.76002 5.50135L5.87501 5.59768ZM5.30973 5.19138L5.76721 5.60514L5.86782 5.49389L5.41034 5.08013L5.30973 5.19138ZM7.34667 2.64751L5.30254 5.08759L5.41753 5.18392L7.46166 2.74383L7.34667 2.64751ZM8.1049 3.42912L8.56238 3.84289L8.66299 3.73164L8.20551 3.31788L8.1049 3.42912ZM6.163 5.88013L8.21281 3.42153L8.0976 3.32547L6.04779 5.78407L6.163 5.88013ZM6.61318 6.19024L6.1557 5.77648L6.05508 5.88772L6.51256 6.30149L6.61318 6.19024ZM8.55508 3.73924L6.50527 6.19784L6.62048 6.29389L8.67029 3.83529L8.55508 3.73924Z" fill="#272727"/>
<path fill-rule="evenodd" clip-rule="evenodd" d="M15.2926 2.02609L14.8351 2.43986L16.9552 4.91581L17.4127 4.50204L15.2926 2.02609ZM14.5381 2.69567L14.0806 3.10943L16.1247 5.54952L16.5822 5.13575L14.5381 2.69567ZM13.3295 3.78726L13.787 3.3735L15.8368 5.8321L15.3794 6.24586L13.3295 3.78726Z" fill="#272727"/>
<path d="M14.8351 2.43986L14.7781 2.48864L14.7306 2.43319L14.7848 2.38423L14.8351 2.43986ZM15.2926 2.02609L15.2423 1.97047L15.2994 1.91878L15.3495 1.97731L15.2926 2.02609ZM16.9552 4.91581L17.0055 4.97143L16.9484 5.02312L16.8982 4.96459L16.9552 4.91581ZM17.4127 4.50204L17.4697 4.45326L17.5171 4.50871L17.463 4.55767L17.4127 4.50204ZM14.0806 3.10943L14.0231 3.1576L13.9767 3.10225L14.0303 3.05381L14.0806 3.10943ZM14.5381 2.69567L14.4878 2.64005L14.5455 2.58779L14.5956 2.64751L14.5381 2.69567ZM16.1247 5.54952L16.175 5.60514L16.1172 5.6574L16.0672 5.59768L16.1247 5.54952ZM16.5822 5.13575L16.6397 5.08759L16.6861 5.14294L16.6325 5.19138L16.5822 5.13575ZM13.787 3.3735L13.7367 3.31788L13.7946 3.2655L13.8446 3.32547L13.787 3.3735ZM13.3295 3.78726L13.2719 3.83529L13.2258 3.77996L13.2792 3.73164L13.3295 3.78726ZM15.8368 5.8321L15.8944 5.78407L15.9406 5.8394L15.8871 5.88772L15.8368 5.8321ZM15.3794 6.24586L15.4297 6.30149L15.3718 6.35387L15.3218 6.29389L15.3794 6.24586ZM14.7848 2.38423L15.2423 1.97047L15.3429 2.08172L14.8854 2.49548L14.7848 2.38423ZM16.8982 4.96459L14.7781 2.48864L14.892 2.39107L17.0122 4.86703L16.8982 4.96459ZM17.463 4.55767L17.0055 4.97143L16.9049 4.86018L17.3624 4.44642L17.463 4.55767ZM15.3495 1.97731L17.4697 4.45326L17.3557 4.55083L15.2356 2.07487L15.3495 1.97731ZM14.0303 3.05381L14.4878 2.64005L14.5884 2.7513L14.1309 3.16506L14.0303 3.05381ZM16.0672 5.59768L14.0231 3.1576L14.1381 3.06127L16.1822 5.50135L16.0672 5.59768ZM16.6325 5.19138L16.175 5.60514L16.0744 5.49389L16.5319 5.08013L16.6325 5.19138ZM14.5956 2.64751L16.6397 5.08759L16.5247 5.18392L14.4806 2.74383L14.5956 2.64751ZM13.8373 3.42912L13.3799 3.84289L13.2792 3.73164L13.7367 3.31788L13.8373 3.42912ZM15.7792 5.88013L13.7294 3.42153L13.8446 3.32547L15.8944 5.78407L15.7792 5.88013ZM15.329 6.19024L15.7865 5.77648L15.8871 5.88772L15.4297 6.30149L15.329 6.19024ZM13.3872 3.73924L15.437 6.19784L15.3218 6.29389L13.2719 3.83529L13.3872 3.73924Z" fill="#272727"/>
<path fill-rule="evenodd" clip-rule="evenodd" d="M6.64967 12.2458L7.10715 11.8321L4.98702 9.35613L4.52954 9.7699L6.64967 12.2458ZM7.40416 11.5763L7.86165 11.1625L5.81751 8.72242L5.36003 9.13619L7.40416 11.5763ZM8.61268 10.4847L8.1552 10.8984L6.10539 8.43984L6.56287 8.02608L8.61268 10.4847Z" fill="#272727"/>
<path d="M7.10715 11.8321L7.16412 11.7833L7.21159 11.8387L7.15746 11.8877L7.10715 11.8321ZM6.64967 12.2458L6.69998 12.3015L6.64282 12.3532L6.5927 12.2946L6.64967 12.2458ZM4.98702 9.35613L4.93671 9.30051L4.99387 9.24882L5.04399 9.30735L4.98702 9.35613ZM4.52954 9.7699L4.47257 9.81868L4.4251 9.76324L4.47923 9.71427L4.52954 9.7699ZM7.86165 11.1625L7.91914 11.1143L7.96551 11.1697L7.91195 11.2181L7.86165 11.1625ZM7.40416 11.5763L7.45447 11.6319L7.3967 11.6841L7.34667 11.6244L7.40416 11.5763ZM5.81751 8.72242L5.76721 8.6668L5.82498 8.61455L5.87501 8.67426L5.81751 8.72242ZM5.36003 9.13619L5.30254 9.18435L5.25617 9.129L5.30973 9.08056L5.36003 9.13619ZM8.1552 10.8984L8.20551 10.9541L8.1476 11.0064L8.0976 10.9465L8.1552 10.8984ZM8.61268 10.4847L8.67029 10.4367L8.71642 10.492L8.66299 10.5403L8.61268 10.4847ZM6.10539 8.43984L6.04779 8.48787L6.00166 8.43254L6.05508 8.38422L6.10539 8.43984ZM6.56287 8.02608L6.51256 7.97045L6.57048 7.91808L6.62048 7.97805L6.56287 8.02608ZM7.15746 11.8877L6.69998 12.3015L6.59936 12.1902L7.05684 11.7765L7.15746 11.8877ZM5.04399 9.30735L7.16412 11.7833L7.05018 11.8809L4.93005 9.40492L5.04399 9.30735ZM4.47923 9.71427L4.93671 9.30051L5.03733 9.41176L4.57985 9.82552L4.47923 9.71427ZM6.5927 12.2946L4.47257 9.81868L4.58651 9.72112L6.70664 12.1971L6.5927 12.2946ZM7.91195 11.2181L7.45447 11.6319L7.35386 11.5206L7.81134 11.1069L7.91195 11.2181ZM5.87501 8.67426L7.91914 11.1143L7.80415 11.2107L5.76002 8.77059L5.87501 8.67426ZM5.30973 9.08056L5.76721 8.6668L5.86782 8.77805L5.41034 9.19181L5.30973 9.08056ZM7.34667 11.6244L5.30254 9.18435L5.41753 9.08802L7.46166 11.5281L7.34667 11.6244ZM8.1049 10.8428L8.56238 10.4291L8.66299 10.5403L8.20551 10.9541L8.1049 10.8428ZM6.163 8.39181L8.21281 10.8504L8.0976 10.9465L6.04779 8.48787L6.163 8.39181ZM6.61318 8.0817L6.1557 8.49547L6.05508 8.38422L6.51256 7.97045L6.61318 8.0817ZM8.55508 10.5327L6.50527 8.07411L6.62048 7.97805L8.67029 10.4367L8.55508 10.5327Z" fill="#272727"/>
<path fill-rule="evenodd" clip-rule="evenodd" d="M15.2926 12.2458L14.8351 11.8321L16.9552 9.35613L17.4127 9.7699L15.2926 12.2458ZM14.5381 11.5763L14.0806 11.1625L16.1247 8.72242L16.5822 9.13619L14.5381 11.5763ZM13.3295 10.4847L13.787 10.8984L15.8368 8.43984L15.3794 8.02608L13.3295 10.4847Z" fill="#272727"/>
<path d="M14.8351 11.8321L14.7781 11.7833L14.7306 11.8387L14.7848 11.8877L14.8351 11.8321ZM15.2926 12.2458L15.2423 12.3015L15.2994 12.3532L15.3495 12.2946L15.2926 12.2458ZM16.9552 9.35613L17.0055 9.30051L16.9484 9.24882L16.8982 9.30735L16.9552 9.35613ZM17.4127 9.7699L17.4697 9.81868L17.5171 9.76324L17.463 9.71427L17.4127 9.7699ZM14.0806 11.1625L14.0231 11.1143L13.9767 11.1697L14.0303 11.2181L14.0806 11.1625ZM14.5381 11.5763L14.4878 11.6319L14.5455 11.6841L14.5956 11.6244L14.5381 11.5763ZM16.1247 8.72242L16.175 8.6668L16.1172 8.61455L16.0672 8.67426L16.1247 8.72242ZM16.5822 9.13619L16.6397 9.18435L16.6861 9.129L16.6325 9.08056L16.5822 9.13619ZM13.787 10.8984L13.7367 10.9541L13.7946 11.0064L13.8446 10.9465L13.787 10.8984ZM13.3295 10.4847L13.2719 10.4367L13.2258 10.492L13.2792 10.5403L13.3295 10.4847ZM15.8368 8.43984L15.8944 8.48787L15.9406 8.43254L15.8871 8.38422L15.8368 8.43984ZM15.3794 8.02608L15.4297 7.97045L15.3718 7.91808L15.3218 7.97805L15.3794 8.02608ZM14.7848 11.8877L15.2423 12.3015L15.3429 12.1902L14.8854 11.7765L14.7848 11.8877ZM16.8982 9.30735L14.7781 11.7833L14.892 11.8809L17.0122 9.40492L16.8982 9.30735ZM17.463 9.71427L17.0055 9.30051L16.9049 9.41176L17.3624 9.82552L17.463 9.71427ZM15.3495 12.2946L17.4697 9.81868L17.3557 9.72112L15.2356 12.1971L15.3495 12.2946ZM14.0303 11.2181L14.4878 11.6319L14.5884 11.5206L14.1309 11.1069L14.0303 11.2181ZM16.0672 8.67426L14.0231 11.1143L14.1381 11.2107L16.1822 8.77059L16.0672 8.67426ZM16.6325 9.08056L16.175 8.6668L16.0744 8.77805L16.5319 9.19181L16.6325 9.08056ZM14.5956 11.6244L16.6397 9.18435L16.5247 9.08802L14.4806 11.5281L14.5956 11.6244ZM13.8373 10.8428L13.3799 10.4291L13.2792 10.5403L13.7367 10.9541L13.8373 10.8428ZM15.7792 8.39181L13.7294 10.8504L13.8446 10.9465L15.8944 8.48787L15.7792 8.39181ZM15.329 8.0817L15.7865 8.49547L15.8871 8.38422L15.4297 7.97045L15.329 8.0817ZM13.3872 10.5327L15.437 8.07411L15.3218 7.97805L13.2719 10.4367L13.3872 10.5327Z" fill="#272727"/>
</g>
</g>
<rect x="3" y="1" width="16" height="12" fill="url(#paint0_linear)" style="mix-blend-mode:overlay"/>
</g>
<defs>
<filter id="filter0_d" x="0" y="0" width="22" height="18" filterUnits="userSpaceOnUse" color-interpolation-filters="sRGB">
<feFlood flood-opacity="0" result="BackgroundImageFix"/>
<feColorMatrix in="SourceAlpha" type="matrix" values="0 0 0 0 0 0 0 0 0 0 0 0 0 0 0 0 0 0 127 0" result="hardAlpha"/>
<feOffset dy="2"/>
<feGaussianBlur stdDeviation="1.5"/>
<feColorMatrix type="matrix" values="0 0 0 0 0 0 0 0 0 0 0 0 0 0 0 0 0 0 0.1 0"/>
<feBlend mode="normal" in2="BackgroundImageFix" result="effect1_dropShadow"/>
<feBlend mode="normal" in="SourceGraphic" in2="effect1_dropShadow" result="shape"/>
</filter>
<linearGradient id="paint0_linear" x1="11" y1="1" x2="11" y2="13" gradientUnits="userSpaceOnUse">
<stop stop-color="white" stop-opacity="0.7"/>
<stop offset="1" stop-opacity="0.3"/>
</linearGradient>
</defs>
</svg>
