<svg width="22" height="18" viewBox="0 0 22 18" fill="none" xmlns="http://www.w3.org/2000/svg">
<g filter="url(#filter0_d)">
<mask id="mask0" style="mask-type:alpha" maskUnits="userSpaceOnUse" x="3" y="1" width="16" height="12">
<rect x="3" y="1" width="16" height="12" fill="white"/>
</mask>
<g mask="url(#mask0)">
</g>
<path fill-rule="evenodd" clip-rule="evenodd" d="M3 1H19V13H3V1Z" fill="#2E42A5"/>
<g clip-path="url(#clip0)">
<path d="M14.2873 7.23138H14.1623V7.35638V8.84517C14.1623 9.8309 14.5753 10.4897 14.9974 10.9003C15.2077 11.1047 15.4197 11.2474 15.5835 11.3392C15.6655 11.3852 15.736 11.4188 15.789 11.4412C15.8154 11.4524 15.8382 11.4611 15.8564 11.4673C15.8654 11.4704 15.8744 11.4732 15.8827 11.4754L15.8833 11.4756C15.888 11.4768 15.9051 11.4814 15.9243 11.4814C15.9439 11.4814 15.9611 11.4767 15.9663 11.4753L15.9667 11.4752C15.9753 11.4729 15.9844 11.4699 15.9932 11.4667C16.0112 11.4603 16.0332 11.4514 16.0583 11.4401C16.1087 11.4174 16.1752 11.3835 16.252 11.3374C16.4057 11.245 16.6035 11.1018 16.7991 10.897C17.192 10.4855 17.5732 9.82765 17.5732 8.84517V8.8431V8.84103V8.83895V8.83687V8.83477V8.83267V8.83055V8.82843V8.82631V8.82417V8.82203V8.81987V8.81772V8.81555V8.81337V8.81119V8.809V8.8068V8.80459V8.80238V8.80016V8.79793V8.79569V8.79344V8.79119V8.78893V8.78666V8.78439V8.78211V8.77982V8.77752V8.77522V8.7729V8.77058V8.76826V8.76592V8.76358V8.76124V8.75888V8.75652V8.75415V8.75177V8.74939V8.747V8.7446V8.7422V8.73979V8.73737V8.73494V8.73251V8.73007V8.72763V8.72517V8.72271V8.72025V8.71778V8.7153V8.71281V8.71032V8.70782V8.70532V8.7028V8.70029V8.69776V8.69523V8.69269V8.69015V8.6876V8.68504V8.68248V8.67991V8.67734V8.67476V8.67217V8.66958V8.66698V8.66437V8.66176V8.65914V8.65652V8.65389V8.65125V8.64861V8.64596V8.64331V8.64065V8.63799V8.63532V8.63264V8.62996V8.62727V8.62458V8.62188V8.61918V8.61647V8.61375V8.61103V8.60831V8.60557V8.60284V8.6001V8.59735V8.5946V8.59184V8.58907V8.58631V8.58353V8.58075V8.57797V8.57518V8.57239V8.56959V8.56678V8.56397V8.56116V8.55834V8.55552V8.55269V8.54985V8.54701V8.54417V8.54132V8.53847V8.53561V8.53275V8.52988V8.52701V8.52414V8.52126V8.51837V8.51548V8.51259V8.50969V8.50679V8.50388V8.50097V8.49805V8.49513V8.49221V8.48928V8.48635V8.48341V8.48047V8.47752V8.47457V8.47162V8.46866V8.4657V8.46274V8.45977V8.45679V8.45382V8.45083V8.44785V8.44486V8.44187V8.43887V8.43587V8.43287V8.42986V8.42685V8.42384V8.42082V8.4178V8.41477V8.41174V8.40871V8.40568V8.40264V8.39959V8.39655V8.3935V8.39045V8.38739V8.38433V8.38127V8.37821V8.37514V8.37207V8.36899V8.36592V8.36284V8.35975V8.35667V8.35358V8.35049V8.34739V8.34429V8.34119V8.33809V8.33498V8.33187V8.32876V8.32565V8.32253V8.31941V8.31629V8.31317V8.31004V8.30691V8.30378V8.30064V8.29751V8.29437V8.29122V8.28808V8.28493V8.28179V8.27863V8.27548V8.27233V8.26917V8.26601V8.26285V8.25968V8.25652V8.25335V8.25018V8.24701V8.24384V8.24066V8.23748V8.2343V8.23112V8.22794V8.22476V8.22157V8.21838V8.21519V8.212V8.20881V8.20562V8.20242V8.19922V8.19602V8.19282V8.18962V8.18642V8.18321V8.18001V8.1768V8.17359V8.17038V8.16717V8.16396V8.16075V8.15753V8.15432V8.1511V8.14788V8.14466V8.14144V8.13822V8.135V8.13178V8.12856V8.12533V8.12211V8.11888V8.11566V8.11243V8.1092V8.10597V8.10274V8.09951V8.09628V8.09305V8.08982V8.08659V8.08336V8.08012V8.07689V8.07366V8.07042V8.06719V8.06395V8.06072V8.05748V8.05425V8.05101V8.04777V8.04454V8.0413V8.03807V8.03483V8.03159V8.02836V8.02512V8.02189V8.01865V8.01541V8.01218V8.00894V8.00571V8.00247V7.99924V7.996V7.99277V7.98954V7.9863V7.98307V7.97984V7.97661V7.97338V7.97014V7.96691V7.96368V7.96046V7.95723V7.954V7.95077V7.94755V7.94432V7.9411V7.93787V7.93465V7.93143V7.92821V7.92499V7.92177V7.91855V7.91533V7.91212V7.9089V7.90569V7.90247V7.89926V7.89605V7.89284V7.88963V7.88643V7.88322V7.88002V7.87682V7.87362V7.87042V7.86722V7.86402V7.86083V7.85763V7.85444V7.85125V7.84806V7.84487V7.84169V7.8385V7.83532V7.83214V7.82896V7.82579V7.82261V7.81944V7.81627V7.8131V7.80993V7.80677V7.8036V7.80044V7.79729V7.79413V7.79097V7.78782V7.78467V7.78152V7.77838V7.77524V7.7721V7.76896V7.76582V7.76269V7.75956V7.75643V7.7533V7.75018V7.74706V7.74394V7.74082V7.73771V7.7346V7.73149V7.72839V7.72528V7.72218V7.71909V7.71599V7.7129V7.70981V7.70673V7.70365V7.70057V7.69749V7.69442V7.69135V7.68828V7.68522V7.68216V7.6791V7.67605V7.67299V7.66995V7.6669V7.66386V7.66082V7.65779V7.65476V7.65173V7.64871V7.64569V7.64267V7.63966V7.63665V7.63364V7.63064V7.62764V7.62465V7.62166V7.61867V7.61569V7.61271V7.60973V7.60676V7.60379V7.60083V7.59787V7.59491V7.59196V7.58901V7.58607V7.58313V7.58019V7.57726V7.57433V7.57141V7.56849V7.56558V7.56267V7.55976V7.55686V7.55397V7.55107V7.54819V7.5453V7.54242V7.53955V7.53668V7.53381V7.53095V7.5281V7.52525V7.5224V7.51956V7.51672V7.51389V7.51106V7.50824V7.50542V7.50261V7.4998V7.497V7.49421V7.49141V7.48863V7.48584V7.48307V7.48029V7.47753V7.47477V7.47201V7.46926V7.46651V7.46377V7.46104V7.45831V7.45559V7.45287V7.45015V7.44745V7.44475V7.44205V7.43936V7.43667V7.43399V7.43132V7.42865V7.42599V7.42333V7.42068V7.41804V7.4154V7.41276V7.41014V7.40752V7.4049V7.40229V7.39969V7.39709V7.3945V7.39192V7.38934V7.38676V7.3842V7.38164V7.37908V7.37654V7.37399V7.37146V7.36893V7.36641V7.36389V7.36138V7.35888V7.35638V7.23138H17.4482H14.2873Z" fill="white" stroke="#F7FCFF" stroke-width="0.25"/>
<mask id="mask1" style="mask-type:alpha" maskUnits="userSpaceOnUse" x="14" y="7" width="4" height="5">
<path d="M14.2873 7.23138H14.1623V7.35638V8.84517C14.1623 9.8309 14.5753 10.4897 14.9974 10.9003C15.2077 11.1047 15.4197 11.2474 15.5835 11.3392C15.6655 11.3852 15.736 11.4188 15.789 11.4412C15.8154 11.4524 15.8382 11.4611 15.8564 11.4673C15.8654 11.4704 15.8744 11.4732 15.8827 11.4754L15.8833 11.4756C15.888 11.4768 15.9051 11.4814 15.9243 11.4814C15.9439 11.4814 15.9611 11.4767 15.9663 11.4753L15.9667 11.4752C15.9753 11.4729 15.9844 11.4699 15.9932 11.4667C16.0112 11.4603 16.0332 11.4514 16.0583 11.4401C16.1087 11.4174 16.1752 11.3835 16.252 11.3374C16.4057 11.245 16.6035 11.1018 16.7991 10.897C17.192 10.4855 17.5732 9.82765 17.5732 8.84517V8.8431V8.84103V8.83895V8.83687V8.83477V8.83267V8.83055V8.82843V8.82631V8.82417V8.82203V8.81987V8.81772V8.81555V8.81337V8.81119V8.809V8.8068V8.80459V8.80238V8.80016V8.79793V8.79569V8.79344V8.79119V8.78893V8.78666V8.78439V8.78211V8.77982V8.77752V8.77522V8.7729V8.77058V8.76826V8.76592V8.76358V8.76124V8.75888V8.75652V8.75415V8.75177V8.74939V8.747V8.7446V8.7422V8.73979V8.73737V8.73494V8.73251V8.73007V8.72763V8.72517V8.72271V8.72025V8.71778V8.7153V8.71281V8.71032V8.70782V8.70532V8.7028V8.70029V8.69776V8.69523V8.69269V8.69015V8.6876V8.68504V8.68248V8.67991V8.67734V8.67476V8.67217V8.66958V8.66698V8.66437V8.66176V8.65914V8.65652V8.65389V8.65125V8.64861V8.64596V8.64331V8.64065V8.63799V8.63532V8.63264V8.62996V8.62727V8.62458V8.62188V8.61918V8.61647V8.61375V8.61103V8.60831V8.60557V8.60284V8.6001V8.59735V8.5946V8.59184V8.58907V8.58631V8.58353V8.58075V8.57797V8.57518V8.57239V8.56959V8.56678V8.56397V8.56116V8.55834V8.55552V8.55269V8.54985V8.54701V8.54417V8.54132V8.53847V8.53561V8.53275V8.52988V8.52701V8.52414V8.52126V8.51837V8.51548V8.51259V8.50969V8.50679V8.50388V8.50097V8.49805V8.49513V8.49221V8.48928V8.48635V8.48341V8.48047V8.47752V8.47457V8.47162V8.46866V8.4657V8.46274V8.45977V8.45679V8.45382V8.45083V8.44785V8.44486V8.44187V8.43887V8.43587V8.43287V8.42986V8.42685V8.42384V8.42082V8.4178V8.41477V8.41174V8.40871V8.40568V8.40264V8.39959V8.39655V8.3935V8.39045V8.38739V8.38433V8.38127V8.37821V8.37514V8.37207V8.36899V8.36592V8.36284V8.35975V8.35667V8.35358V8.35049V8.34739V8.34429V8.34119V8.33809V8.33498V8.33187V8.32876V8.32565V8.32253V8.31941V8.31629V8.31317V8.31004V8.30691V8.30378V8.30064V8.29751V8.29437V8.29122V8.28808V8.28493V8.28179V8.27863V8.27548V8.27233V8.26917V8.26601V8.26285V8.25968V8.25652V8.25335V8.25018V8.24701V8.24384V8.24066V8.23748V8.2343V8.23112V8.22794V8.22476V8.22157V8.21838V8.21519V8.212V8.20881V8.20562V8.20242V8.19922V8.19602V8.19282V8.18962V8.18642V8.18321V8.18001V8.1768V8.17359V8.17038V8.16717V8.16396V8.16075V8.15753V8.15432V8.1511V8.14788V8.14466V8.14144V8.13822V8.135V8.13178V8.12856V8.12533V8.12211V8.11888V8.11566V8.11243V8.1092V8.10597V8.10274V8.09951V8.09628V8.09305V8.08982V8.08659V8.08336V8.08012V8.07689V8.07366V8.07042V8.06719V8.06395V8.06072V8.05748V8.05425V8.05101V8.04777V8.04454V8.0413V8.03807V8.03483V8.03159V8.02836V8.02512V8.02189V8.01865V8.01541V8.01218V8.00894V8.00571V8.00247V7.99924V7.996V7.99277V7.98954V7.9863V7.98307V7.97984V7.97661V7.97338V7.97014V7.96691V7.96368V7.96046V7.95723V7.954V7.95077V7.94755V7.94432V7.9411V7.93787V7.93465V7.93143V7.92821V7.92499V7.92177V7.91855V7.91533V7.91212V7.9089V7.90569V7.90247V7.89926V7.89605V7.89284V7.88963V7.88643V7.88322V7.88002V7.87682V7.87362V7.87042V7.86722V7.86402V7.86083V7.85763V7.85444V7.85125V7.84806V7.84487V7.84169V7.8385V7.83532V7.83214V7.82896V7.82579V7.82261V7.81944V7.81627V7.8131V7.80993V7.80677V7.8036V7.80044V7.79729V7.79413V7.79097V7.78782V7.78467V7.78152V7.77838V7.77524V7.7721V7.76896V7.76582V7.76269V7.75956V7.75643V7.7533V7.75018V7.74706V7.74394V7.74082V7.73771V7.7346V7.73149V7.72839V7.72528V7.72218V7.71909V7.71599V7.7129V7.70981V7.70673V7.70365V7.70057V7.69749V7.69442V7.69135V7.68828V7.68522V7.68216V7.6791V7.67605V7.67299V7.66995V7.6669V7.66386V7.66082V7.65779V7.65476V7.65173V7.64871V7.64569V7.64267V7.63966V7.63665V7.63364V7.63064V7.62764V7.62465V7.62166V7.61867V7.61569V7.61271V7.60973V7.60676V7.60379V7.60083V7.59787V7.59491V7.59196V7.58901V7.58607V7.58313V7.58019V7.57726V7.57433V7.57141V7.56849V7.56558V7.56267V7.55976V7.55686V7.55397V7.55107V7.54819V7.5453V7.54242V7.53955V7.53668V7.53381V7.53095V7.5281V7.52525V7.5224V7.51956V7.51672V7.51389V7.51106V7.50824V7.50542V7.50261V7.4998V7.497V7.49421V7.49141V7.48863V7.48584V7.48307V7.48029V7.47753V7.47477V7.47201V7.46926V7.46651V7.46377V7.46104V7.45831V7.45559V7.45287V7.45015V7.44745V7.44475V7.44205V7.43936V7.43667V7.43399V7.43132V7.42865V7.42599V7.42333V7.42068V7.41804V7.4154V7.41276V7.41014V7.40752V7.4049V7.40229V7.39969V7.39709V7.3945V7.39192V7.38934V7.38676V7.3842V7.38164V7.37908V7.37654V7.37399V7.37146V7.36893V7.36641V7.36389V7.36138V7.35888V7.35638V7.23138H17.4482H14.2873Z" fill="white" stroke="white" stroke-width="0.25"/>
</mask>
<g mask="url(#mask1)">
<rect x="14.0843" y="7.10638" width="3.6" height="1.7" fill="#F50100"/>
<path d="M15.6891 9.15637C15.8043 9.15637 16.0347 8.99964 16.0923 8.96347C16.3035 8.80675 16.4571 8.95142 16.5819 9.02376C16.7163 9.09609 16.9659 9.18048 17.1195 9.02376C17.2731 8.86703 17.3595 8.87908 17.4651 8.87908C17.4843 8.69824 17.4843 8.5174 17.4843 8.31244V8.16777C17.3499 8.1316 17.2827 8.17983 17.1387 8.33656C16.9947 8.49329 16.8315 8.45712 16.6203 8.36067C16.4187 8.25216 16.2171 8.05927 16.0155 8.36067C15.9579 8.44506 15.8235 8.56562 15.6891 8.56562C15.5451 8.56562 15.4203 8.44506 15.3627 8.36067C15.1515 8.05927 14.9595 8.25216 14.7579 8.36067C14.5467 8.45712 14.3739 8.49329 14.2299 8.33656C14.0955 8.17983 14.0283 8.1316 13.8843 8.16777V8.31244C13.8843 8.5174 13.8939 8.69824 13.9131 8.87908C14.0187 8.87908 14.0955 8.86703 14.2491 9.02376C14.4027 9.18048 14.6619 9.09609 14.7867 9.02376C14.9211 8.95142 15.0747 8.80675 15.2859 8.96347C15.3435 8.99964 15.5643 9.15637 15.6891 9.15637H15.6891Z" fill="#F50100"/>
<path fill-rule="evenodd" clip-rule="evenodd" d="M14.7178 7.88083C14.7178 7.88083 14.8046 7.88586 14.9073 8.01844C15.01 8.15102 15.3881 8.06663 15.3881 7.98666C15.3881 7.90668 15.1587 7.8589 15.2468 7.72215C15.335 7.5854 15.4843 7.58516 15.6043 7.6564C15.6387 7.6564 15.6349 8.12418 15.7135 8.0985C15.9622 8.01718 16.3634 7.85604 16.4811 7.92517C16.6359 8.01613 16.7544 7.99351 16.7151 7.863C16.6757 7.73249 16.5746 7.65091 16.3798 7.72215C16.185 7.79339 16.2309 7.863 16.0626 7.863C15.8942 7.863 15.6054 7.97685 15.7337 7.72215C15.8486 7.49392 15.9857 7.48946 16.0381 7.5854C16.0648 7.63449 15.8464 7.74288 15.8464 7.79339C15.8464 7.863 16.409 7.6565 16.4811 7.6565C16.5532 7.6565 16.7516 7.65091 16.7713 7.72215C16.791 7.79339 16.9108 7.85876 16.8195 7.92517C16.7281 7.99159 16.5775 8.03319 16.6812 8.11827C16.7848 8.20336 17.0474 8.24206 17.0588 8.33056C17.0703 8.41907 17.1832 8.55124 17.1379 8.55124C17.0926 8.55124 17.0107 8.67589 16.9344 8.63794C16.8581 8.59998 16.8492 8.56666 16.9223 8.53591C16.9954 8.50516 16.9947 8.37586 16.9344 8.37586C16.8741 8.37586 16.8792 8.36607 16.7419 8.32077C16.6045 8.27547 16.4227 8.22511 16.4337 8.32077C16.4446 8.41643 16.5376 8.62175 16.3726 8.64132C16.2076 8.66089 16.1304 8.73946 16.0983 8.67619C16.0662 8.61292 15.9514 8.5286 16.0416 8.50157C16.1319 8.47453 16.2181 8.59346 16.2507 8.57405C16.2832 8.55463 16.3533 8.48534 16.2916 8.40305C16.2298 8.32077 16.11 8.31798 16.2043 8.2564C16.2986 8.19481 16.2423 8.14789 16.0626 8.27547C15.8829 8.40305 15.7829 8.51148 15.6251 8.49615C15.4673 8.48082 15.3965 8.55097 15.3458 8.53029C15.2951 8.50961 15.0481 8.7588 14.977 8.69556C14.9058 8.63232 14.6762 8.60805 14.7176 8.53029C14.7589 8.45253 14.8144 8.41249 14.8762 8.45253C14.938 8.49256 14.9994 8.5326 15.0411 8.49256C15.0828 8.45253 15.2149 8.26568 15.1846 8.23821C15.1543 8.21074 15.0476 8.16371 14.8762 8.16371C14.7048 8.16371 14.7008 8.02133 14.6601 7.9564C14.6194 7.89146 14.7178 7.88083 14.7178 7.88083Z" fill="#FFD100"/>
<path d="M15.6891 10.3564C15.8043 10.3564 16.0347 10.1997 16.0923 10.1635C16.3035 10.0068 16.4571 10.1514 16.5819 10.2238C16.7163 10.2961 16.9659 10.3805 17.1195 10.2238C17.2731 10.067 17.3595 10.0791 17.4651 10.0791C17.4843 9.89825 17.4843 9.71741 17.4843 9.51246V9.36778C17.3499 9.33161 17.2827 9.37984 17.1387 9.53657C16.9947 9.6933 16.8315 9.65713 16.6203 9.56068C16.4187 9.45218 16.2171 9.25928 16.0155 9.56068C15.9579 9.64507 15.8235 9.76563 15.6891 9.76563C15.5451 9.76563 15.4203 9.64507 15.3627 9.56068C15.1515 9.25928 14.9595 9.45218 14.7579 9.56068C14.5467 9.65713 14.3739 9.6933 14.2299 9.53657C14.0955 9.37984 14.0283 9.33161 13.8843 9.36778V9.51246C13.8843 9.71741 13.8939 9.89825 13.9131 10.0791C14.0187 10.0791 14.0955 10.067 14.2491 10.2238C14.4027 10.3805 14.6619 10.2961 14.7867 10.2238C14.9211 10.1514 15.0747 10.0068 15.2859 10.1635C15.3435 10.1997 15.5643 10.3564 15.6891 10.3564H15.6891Z" fill="#0B50A0"/>
<path d="M15.6891 11.5064C15.8043 11.5064 16.0347 11.3496 16.0923 11.3135C16.3035 11.1568 16.4571 11.3014 16.5819 11.3738C16.7163 11.4461 16.9659 11.5305 17.1195 11.3738C17.2731 11.217 17.3595 11.2291 17.4651 11.2291C17.4843 11.0482 17.4843 10.8674 17.4843 10.6624V10.5178C17.3499 10.4816 17.2827 10.5298 17.1387 10.6866C16.9947 10.8433 16.8315 10.8071 16.6203 10.7107C16.4187 10.6022 16.2171 10.4093 16.0155 10.7107C15.9579 10.7951 15.8235 10.9156 15.6891 10.9156C15.5451 10.9156 15.4203 10.7951 15.3627 10.7107C15.1515 10.4093 14.9595 10.6022 14.7579 10.7107C14.5467 10.8071 14.3739 10.8433 14.2299 10.6866C14.0955 10.5298 14.0283 10.4816 13.8843 10.5178V10.6624C13.8843 10.8674 13.8939 11.0482 13.9131 11.2291C14.0187 11.2291 14.0955 11.217 14.2491 11.3738C14.4027 11.5305 14.6619 11.4461 14.7867 11.3738C14.9211 11.3014 15.0747 11.1568 15.2859 11.3135C15.3435 11.3496 15.5643 11.5064 15.6891 11.5064H15.6891Z" fill="#0B50A0"/>
<mask id="path-11-inside-1" fill="white">
<path fill-rule="evenodd" clip-rule="evenodd" d="M15.9008 11.1488L15.6147 11.3184L15.6964 10.9738L15.4223 10.7205H15.7803L15.9003 10.3944L16.0411 10.7205H16.3463L16.1065 10.9738L16.2218 11.3184L15.9008 11.1488Z"/>
</mask>
<path fill-rule="evenodd" clip-rule="evenodd" d="M15.9008 11.1488L15.6147 11.3184L15.6964 10.9738L15.4223 10.7205H15.7803L15.9003 10.3944L16.0411 10.7205H16.3463L16.1065 10.9738L16.2218 11.3184L15.9008 11.1488Z" fill="#059334"/>
<path d="M15.9008 11.1488L16.1577 10.6625L15.8853 10.5186L15.6204 10.6757L15.9008 11.1488ZM15.6147 11.3184L15.0795 11.1915L14.7806 12.452L15.8951 11.7915L15.6147 11.3184ZM15.6964 10.9738L16.2315 11.1006L16.3057 10.7879L16.0696 10.5698L15.6964 10.9738ZM15.4223 10.7205V10.1705H14.0166L15.049 11.1245L15.4223 10.7205ZM15.7803 10.7205V11.2705H16.1639L16.2964 10.9105L15.7803 10.7205ZM15.9003 10.3944L16.4053 10.1764L15.8598 8.91265L15.3842 10.2044L15.9003 10.3944ZM16.0411 10.7205L15.5362 10.9385L15.6795 11.2705H16.0411V10.7205ZM16.3463 10.7205L16.7457 11.0986L17.6245 10.1705H16.3463V10.7205ZM16.1065 10.9738L15.7071 10.5956L15.4802 10.8353L15.5849 11.1482L16.1065 10.9738ZM16.2218 11.3184L15.9649 11.8047L17.179 12.446L16.7434 11.1439L16.2218 11.3184ZM15.6204 10.6757L15.3343 10.8452L15.8951 11.7915L16.1812 11.622L15.6204 10.6757ZM16.1498 11.4453L16.2315 11.1006L15.1612 10.8469L15.0795 11.1915L16.1498 11.4453ZM16.0696 10.5698L15.7956 10.3165L15.049 11.1245L15.3231 11.3777L16.0696 10.5698ZM15.4223 11.2705H15.7803V10.1705H15.4223V11.2705ZM16.2964 10.9105L16.4165 10.5844L15.3842 10.2044L15.2642 10.5305L16.2964 10.9105ZM15.3954 10.6124L15.5362 10.9385L16.5461 10.5025L16.4053 10.1764L15.3954 10.6124ZM16.0411 11.2705H16.3463V10.1705H16.0411V11.2705ZM15.9469 10.3424L15.7071 10.5956L16.5059 11.3519L16.7457 11.0986L15.9469 10.3424ZM15.5849 11.1482L15.7002 11.4929L16.7434 11.1439L16.6281 10.7993L15.5849 11.1482ZM16.4787 10.832L16.1577 10.6625L15.6439 11.6351L15.9649 11.8047L16.4787 10.832Z" fill="#FFD100" mask="url(#path-11-inside-1)"/>
<mask id="path-13-inside-2" fill="white">
<path fill-rule="evenodd" clip-rule="evenodd" d="M15.1008 10.1488L14.8147 10.3184L14.8964 9.97375L14.6223 9.7205H14.9803L15.1004 9.39438L15.2411 9.7205H15.5463L15.3065 9.97375L15.4218 10.3184L15.1008 10.1488Z"/>
</mask>
<path fill-rule="evenodd" clip-rule="evenodd" d="M15.1008 10.1488L14.8147 10.3184L14.8964 9.97375L14.6223 9.7205H14.9803L15.1004 9.39438L15.2411 9.7205H15.5463L15.3065 9.97375L15.4218 10.3184L15.1008 10.1488Z" fill="#059334"/>
<path d="M15.1008 10.1488L15.3577 9.66248L15.0853 9.51864L14.8204 9.67566L15.1008 10.1488ZM14.8147 10.3184L14.2795 10.1915L13.9806 11.452L15.0951 10.7915L14.8147 10.3184ZM14.8964 9.97375L15.4316 10.1006L15.5057 9.78791L15.2696 9.5698L14.8964 9.97375ZM14.6223 9.7205V9.1705H13.2166L14.2491 10.1245L14.6223 9.7205ZM14.9803 9.7205V10.2705H15.3639L15.4964 9.91052L14.9803 9.7205ZM15.1004 9.39438L15.6053 9.17639L15.0598 7.91265L14.5842 9.20436L15.1004 9.39438ZM15.2411 9.7205L14.7362 9.93849L14.8795 10.2705H15.2411V9.7205ZM15.5463 9.7205L15.9457 10.0986L16.8245 9.1705H15.5463V9.7205ZM15.3065 9.97375L14.9072 9.59561L14.6802 9.83526L14.7849 10.1482L15.3065 9.97375ZM15.4218 10.3184L15.165 10.8047L16.379 11.446L15.9434 10.1439L15.4218 10.3184ZM14.8204 9.67566L14.5343 9.84523L15.0951 10.7915L15.3812 10.622L14.8204 9.67566ZM15.3498 10.4453L15.4316 10.1006L14.3612 9.84686L14.2795 10.1915L15.3498 10.4453ZM15.2696 9.5698L14.9956 9.31655L14.2491 10.1245L14.5231 10.3777L15.2696 9.5698ZM14.6223 10.2705H14.9803V9.1705H14.6223V10.2705ZM15.4964 9.91052L15.6165 9.5844L14.5842 9.20436L14.4642 9.53049L15.4964 9.91052ZM14.5954 9.61236L14.7362 9.93849L15.7461 9.50252L15.6053 9.17639L14.5954 9.61236ZM15.2411 10.2705H15.5463V9.1705H15.2411V10.2705ZM15.1469 9.34236L14.9072 9.59561L15.7059 10.3519L15.9457 10.0986L15.1469 9.34236ZM14.7849 10.1482L14.9002 10.4929L15.9434 10.1439L15.8281 9.79926L14.7849 10.1482ZM15.6787 9.83205L15.3577 9.66248L14.8439 10.6351L15.165 10.8047L15.6787 9.83205Z" fill="#FFD100" mask="url(#path-13-inside-2)"/>
<mask id="path-15-inside-3" fill="white">
<path fill-rule="evenodd" clip-rule="evenodd" d="M16.7008 10.1488L16.4147 10.3184L16.4964 9.97375L16.2223 9.7205H16.5803L16.7003 9.39438L16.8411 9.7205H17.1463L16.9065 9.97375L17.0218 10.3184L16.7008 10.1488Z"/>
</mask>
<path fill-rule="evenodd" clip-rule="evenodd" d="M16.7008 10.1488L16.4147 10.3184L16.4964 9.97375L16.2223 9.7205H16.5803L16.7003 9.39438L16.8411 9.7205H17.1463L16.9065 9.97375L17.0218 10.3184L16.7008 10.1488Z" fill="#059334"/>
<path d="M16.7008 10.1488L16.9576 9.66248L16.6853 9.51864L16.4204 9.67566L16.7008 10.1488ZM16.4147 10.3184L15.8795 10.1915L15.5806 11.452L16.6951 10.7915L16.4147 10.3184ZM16.4964 9.97375L17.0315 10.1006L17.1057 9.78791L16.8696 9.5698L16.4964 9.97375ZM16.2223 9.7205V9.1705H14.8166L15.849 10.1245L16.2223 9.7205ZM16.5803 9.7205V10.2705H16.9639L17.0964 9.91052L16.5803 9.7205ZM16.7003 9.39438L17.2053 9.17639L16.6597 7.91265L16.1842 9.20436L16.7003 9.39438ZM16.8411 9.7205L16.3362 9.93849L16.4795 10.2705H16.8411V9.7205ZM17.1463 9.7205L17.5457 10.0986L18.4245 9.1705H17.1463V9.7205ZM16.9065 9.97375L16.5071 9.59561L16.2802 9.83526L16.3849 10.1482L16.9065 9.97375ZM17.0218 10.3184L16.7649 10.8047L17.979 11.446L17.5434 10.1439L17.0218 10.3184ZM16.4204 9.67566L16.1342 9.84523L16.6951 10.7915L16.9812 10.622L16.4204 9.67566ZM16.9498 10.4453L17.0315 10.1006L15.9612 9.84686L15.8795 10.1915L16.9498 10.4453ZM16.8696 9.5698L16.5955 9.31655L15.849 10.1245L16.1231 10.3777L16.8696 9.5698ZM16.2223 10.2705H16.5803V9.1705H16.2223V10.2705ZM17.0964 9.91052L17.2165 9.5844L16.1842 9.20436L16.0641 9.53049L17.0964 9.91052ZM16.1954 9.61236L16.3362 9.93849L17.3461 9.50252L17.2053 9.17639L16.1954 9.61236ZM16.8411 10.2705H17.1463V9.1705H16.8411V10.2705ZM16.7469 9.34236L16.5071 9.59561L17.3059 10.3519L17.5457 10.0986L16.7469 9.34236ZM16.3849 10.1482L16.5002 10.4929L17.5434 10.1439L17.4281 9.79926L16.3849 10.1482ZM17.2787 9.83205L16.9576 9.66248L16.4439 10.6351L16.7649 10.8047L17.2787 9.83205Z" fill="#FFD100" mask="url(#path-15-inside-3)"/>
</g>
</g>
<path d="M13.5238 11.3896C13.5698 11.5207 13.8989 11.6927 14.2817 11.4715C14.542 11.3159 14.7104 11.0947 14.8712 10.7014C14.9171 10.6031 14.9401 10.4803 14.8329 10.4065C14.7487 10.341 14.6109 10.2673 14.5497 10.2017C14.519 10.169 14.4884 10.1444 14.4655 10.1198C14.4808 10.1362 14.4961 10.1526 14.5114 10.1772C14.6645 10.3738 14.5037 10.6605 14.3353 10.8325C14.2128 10.9554 13.9908 11.2585 13.6693 10.9718C13.6004 10.9062 13.4396 11.1766 13.5238 11.3896L13.5238 11.3896Z" fill="#FFD100"/>
<path d="M18.1783 11.3896C18.1247 11.5207 17.7956 11.6927 17.4204 11.4715C17.1602 11.3159 16.9917 11.0947 16.8233 10.7014C16.785 10.6031 16.7621 10.4803 16.8692 10.4065C16.9535 10.341 17.0913 10.2673 17.1525 10.2017C17.1831 10.169 17.2061 10.1444 17.2367 10.1198C17.2214 10.1362 17.2061 10.1526 17.1908 10.1772C17.0377 10.3738 17.1984 10.6605 17.3592 10.8325C17.4817 10.9554 17.7113 11.2585 18.0329 10.9718C18.1018 10.9062 18.2549 11.1766 18.1783 11.3896L18.1783 11.3896Z" fill="#FFD100"/>
<path d="M15.8511 12.0941C16.4636 12.0941 17.4052 11.7992 17.9105 10.767C17.9947 10.595 17.9105 10.5048 17.8109 10.4475C17.7038 10.3983 17.5736 10.2837 17.5047 10.2099C17.6272 10.341 17.6042 10.4311 17.52 10.5786C17.1296 11.2749 16.5937 11.6272 15.8511 11.6272C15.1085 11.6272 14.5727 11.2749 14.1822 10.5786C14.098 10.4311 14.075 10.341 14.1899 10.2099C14.1286 10.2837 13.9908 10.3983 13.8837 10.4475C13.7841 10.5048 13.6999 10.595 13.7841 10.767C14.2894 11.7992 15.2387 12.0941 15.8511 12.0941H15.8511Z" fill="#FFD100"/>
<path d="M14.4348 10.7097C14.4195 10.6277 14.32 10.6605 14.2894 10.7588C14.2511 10.7015 14.2128 10.6441 14.1822 10.5786C14.0903 10.4311 14.075 10.3328 14.2052 10.1936C14.2664 10.128 14.3889 10.0543 14.4731 10.1362C14.6492 10.2919 14.5573 10.5458 14.4348 10.7097L14.4348 10.7097Z" fill="#F50100"/>
<path d="M17.2597 10.7097C17.275 10.6277 17.3822 10.6605 17.4128 10.7588C17.4511 10.7015 17.4894 10.6441 17.52 10.5786C17.6119 10.4311 17.6272 10.3328 17.4894 10.1936C17.4358 10.128 17.3133 10.0543 17.2215 10.1362C17.053 10.2919 17.1372 10.5458 17.2597 10.7097L17.2597 10.7097Z" fill="#F50100"/>
<path fill-rule="evenodd" clip-rule="evenodd" d="M15.4916 5.27204C15.265 4.94589 14.979 4.72033 14.8101 4.58719C14.7227 4.51821 14.6667 4.47403 14.6667 4.45353C14.6667 4.39593 15.1219 4.54991 15.5871 4.94208C15.5974 4.91864 15.6082 4.89608 15.6195 4.87449C15.4829 4.60071 15.248 4.35822 15.1145 4.22032L15.1145 4.22032C15.0511 4.15493 15.0106 4.11306 15.0141 4.10252C15.0242 4.07216 15.4071 4.31962 15.746 4.69566C15.7789 4.66217 15.8139 4.63498 15.8505 4.61497L15.6267 4.24184H16.4267L16.1882 4.63923C16.2402 4.67604 16.2884 4.72765 16.3312 4.79134C16.6872 4.36237 17.135 4.06966 17.1459 4.10252L16.8756 4.71626C16.7483 4.7998 16.6118 4.90289 16.4771 5.02617L16.4533 5.04815L16.4613 5.07299C16.4628 5.07104 16.4639 5.06895 16.4646 5.06672C16.4684 5.05317 16.4726 5.03965 16.4771 5.02617L16.5317 5.49729C16.5327 5.5214 16.5333 5.54574 16.5333 5.57029C16.7625 5.31538 17.0057 5.21417 17.0057 5.24824C17.0057 5.25946 16.9801 5.28363 16.9401 5.32138C16.8365 5.41923 16.6362 5.6083 16.5348 5.8994C16.5308 5.91114 16.5189 5.91048 16.5039 5.90334C16.4315 6.29443 16.2332 6.57517 16 6.57517C15.7091 6.57517 15.4727 6.13861 15.4668 5.59589C15.3777 5.47045 15.2816 5.37971 15.2198 5.32138L15.2198 5.32138C15.1799 5.28363 15.1543 5.25946 15.1543 5.24824C15.1543 5.22182 15.3004 5.27672 15.4729 5.4215C15.4771 5.37029 15.4834 5.32037 15.4916 5.27204ZM16.5317 5.49729C16.7661 5.04754 17.1446 4.74906 17.3498 4.58719C17.4373 4.51821 17.4933 4.47403 17.4933 4.45353C17.4933 4.40869 17.2174 4.49208 16.8756 4.71626L16.5317 5.49729Z" fill="#FFD100"/>
<path d="M14.8928 6.15144C14.8286 6.04192 14.6545 5.99324 14.5811 6.09059C14.5536 6.11493 14.517 6.11493 14.4895 6.1271C14.4436 6.1271 14.3851 6.15774 14.4034 6.27943C14.4528 6.27943 14.4528 6.30963 14.4803 6.30963C14.4986 6.29746 14.5463 6.52068 14.638 6.50851C14.7388 6.50851 14.8286 6.56518 14.847 6.58952C14.8745 6.62602 14.9111 6.72337 14.8653 6.77205C14.8011 6.84506 14.7553 7.01543 14.8653 7.14928C14.9845 7.27097 15.287 7.45351 15.6262 7.10061C15.9562 6.75988 16.4695 6.95458 16.5062 7.07627C16.552 7.19796 16.5704 7.27097 16.5795 7.33182C16.5887 7.38049 16.8362 7.45351 16.8729 7.49001C16.9187 7.52652 16.9829 7.51435 16.9646 7.40483C16.9279 7.0641 16.772 7.01543 16.7537 6.85723C16.8454 6.8694 16.9096 6.8694 16.9462 6.82073C16.9737 6.77205 17.0104 6.68687 17.0471 6.66253C17.0746 6.63819 17.0746 6.61385 17.0379 6.62602C16.9921 6.63819 16.9646 6.66253 16.8821 6.65036C16.6869 6.6222 16.7351 5.69911 16.0897 5.51955C15.6908 5.40858 15.1934 6.16953 15.057 6.24486C15.0541 6.2465 15.0513 6.24781 15.0486 6.24879C14.9845 6.24879 14.9295 6.21228 14.8928 6.15144Z" fill="#059334"/>
<mask id="mask2" style="mask-type:alpha" maskUnits="userSpaceOnUse" x="3" y="1" width="9" height="7">
<rect x="3" y="1" width="9" height="7" fill="white"/>
</mask>
<g mask="url(#mask2)">
<path d="M1.99786 7.4999L3.97834 8.3685L12.0449 1.94436L13.0896 0.653595L10.9718 0.363283L7.68159 3.13163L5.03334 4.99685L1.99786 7.4999Z" fill="#F7FCFF"/>
<path d="M2.26898 8.10845L3.27794 8.61252L12.7145 0.533661H11.2978L2.26898 8.10845Z" fill="#F50100"/>
<path d="M13.0021 7.4999L11.0217 8.3685L2.95506 1.94436L1.91041 0.653595L4.02824 0.363283L7.31841 3.13163L9.96666 4.99685L13.0021 7.4999Z" fill="#F7FCFF"/>
<path d="M12.9346 7.93667L11.9256 8.44073L7.90745 4.98176L6.71615 4.59529L1.8099 0.658027H3.2266L8.13009 4.50184L9.43256 4.96525L12.9346 7.93667Z" fill="#F50100"/>
<mask id="path-29-outside-4" maskUnits="userSpaceOnUse" x="2" y="0" width="11" height="9" fill="black">
<rect fill="white" x="2" width="11" height="9"/>
<path fill-rule="evenodd" clip-rule="evenodd" d="M7.99226 1H6.99226V4H3V5H6.99226V8H7.99226V5H12V4H7.99226V1Z"/>
</mask>
<path fill-rule="evenodd" clip-rule="evenodd" d="M7.99226 1H6.99226V4H3V5H6.99226V8H7.99226V5H12V4H7.99226V1Z" fill="#F50100"/>
<path d="M6.99226 1V0.25H6.24226V1H6.99226ZM7.99226 1H8.74226V0.25H7.99226V1ZM6.99226 4V4.75H7.74226V4H6.99226ZM3 4V3.25H2.25V4H3ZM3 5H2.25V5.75H3V5ZM6.99226 5H7.74226V4.25H6.99226V5ZM6.99226 8H6.24226V8.75H6.99226V8ZM7.99226 8V8.75H8.74226V8H7.99226ZM7.99226 5V4.25H7.24226V5H7.99226ZM12 5V5.75H12.75V5H12ZM12 4H12.75V3.25H12V4ZM7.99226 4H7.24226V4.75H7.99226V4ZM6.99226 1.75H7.99226V0.25H6.99226V1.75ZM7.74226 4V1H6.24226V4H7.74226ZM3 4.75H6.99226V3.25H3V4.75ZM3.75 5V4H2.25V5H3.75ZM6.99226 4.25H3V5.75H6.99226V4.25ZM7.74226 8V5H6.24226V8H7.74226ZM7.99226 7.25H6.99226V8.75H7.99226V7.25ZM7.24226 5V8H8.74226V5H7.24226ZM12 4.25H7.99226V5.75H12V4.25ZM11.25 4V5H12.75V4H11.25ZM7.99226 4.75H12V3.25H7.99226V4.75ZM7.24226 1V4H8.74226V1H7.24226Z" fill="#F7FCFF" mask="url(#path-29-outside-4)"/>
</g>
<rect x="3" y="1" width="16" height="12" fill="url(#paint0_linear)" style="mix-blend-mode:overlay"/>
</g>
<defs>
<filter id="filter0_d" x="0" y="0" width="22" height="18" filterUnits="userSpaceOnUse" color-interpolation-filters="sRGB">
<feFlood flood-opacity="0" result="BackgroundImageFix"/>
<feColorMatrix in="SourceAlpha" type="matrix" values="0 0 0 0 0 0 0 0 0 0 0 0 0 0 0 0 0 0 127 0" result="hardAlpha"/>
<feOffset dy="2"/>
<feGaussianBlur stdDeviation="1.5"/>
<feColorMatrix type="matrix" values="0 0 0 0 0 0 0 0 0 0 0 0 0 0 0 0 0 0 0.1 0"/>
<feBlend mode="normal" in2="BackgroundImageFix" result="effect1_dropShadow"/>
<feBlend mode="normal" in="SourceGraphic" in2="effect1_dropShadow" result="shape"/>
</filter>
<linearGradient id="paint0_linear" x1="11" y1="1" x2="11" y2="13" gradientUnits="userSpaceOnUse">
<stop stop-color="white" stop-opacity="0.7"/>
<stop offset="1" stop-opacity="0.3"/>
</linearGradient>
<clipPath id="clip0">
<rect width="4" height="4" fill="white" transform="translate(14.2843 7.35638)"/>
</clipPath>
</defs>
</svg>
