<svg width="22" height="18" viewBox="0 0 22 18" fill="none" xmlns="http://www.w3.org/2000/svg">
<g filter="url(#filter0_d)">
<mask id="mask0" style="mask-type:alpha" maskUnits="userSpaceOnUse" x="3" y="1" width="16" height="12">
<rect x="3" y="1" width="16" height="12" fill="white"/>
</mask>
<g mask="url(#mask0)">
<path fill-rule="evenodd" clip-rule="evenodd" d="M3 1V13H19V1H3Z" fill="#4EC7EE"/>
<mask id="mask1" style="mask-type:alpha" maskUnits="userSpaceOnUse" x="3" y="1" width="16" height="12">
<path fill-rule="evenodd" clip-rule="evenodd" d="M3 1V13H19V1H3Z" fill="white"/>
</mask>
<g mask="url(#mask1)">
<path d="M5.04498 12.6185C5.01325 12.8535 5.16377 13.0209 5.41629 13.1286C5.75575 13.2734 6.09827 13.1378 6.41333 12.7887L6.00503 12.4202C5.86507 12.5753 5.76394 12.635 5.68586 12.634C5.83873 12.5248 6.03458 12.39 6.27315 12.2298L6.38766 12.0639C6.47962 11.6694 6.19366 11.4556 5.75754 11.4556C5.50066 11.4556 5.29529 11.5065 5.16499 11.6157C4.95092 11.7952 4.98757 12.0817 5.21284 12.2308C5.23071 12.2426 5.24885 12.2533 5.26723 12.2627C5.14085 12.3695 5.06373 12.4796 5.04498 12.6185Z" fill="#FFE402"/>
<path d="M5.28244 12.2477C5.28244 12.2477 5.34483 12.1094 5.31364 12.0375" stroke="#FFE402" stroke-width="0.55"/>
<path d="M7.2847 12.6185C7.31643 12.8535 7.16591 13.0209 6.91339 13.1286C6.57394 13.2734 6.23142 13.1378 5.91635 12.7887L6.32465 12.4202C6.46461 12.5753 6.56575 12.635 6.64382 12.634C6.49095 12.5248 6.2951 12.39 6.05653 12.2298L5.94202 12.0639C5.85006 11.6694 6.13602 11.4556 6.57215 11.4556C6.82902 11.4556 7.03439 11.5065 7.16469 11.6157C7.37876 11.7952 7.34211 12.0817 7.11684 12.2308C7.09897 12.2426 7.08084 12.2533 7.06245 12.2627C7.18883 12.3695 7.26596 12.4796 7.2847 12.6185Z" fill="#FFE402"/>
<path d="M7.29788 12.1346L6.79655 12.3608C6.72618 12.2048 6.70515 12.0632 6.76371 11.9281L7.26833 12.1469C7.28529 12.1077 7.28506 12.1062 7.29788 12.1346Z" fill="#FFE402"/>
<path d="M5.04498 1.3815C5.01325 1.1465 5.16377 0.979116 5.41629 0.871388C5.75575 0.726566 6.09827 0.862178 6.41333 1.21128L6.00503 1.57978C5.86507 1.4247 5.76394 1.36495 5.68586 1.36597C5.83873 1.47518 6.03458 1.61 6.27315 1.77021L6.38766 1.93607C6.47962 2.33057 6.19366 2.54433 5.75754 2.54433C5.50066 2.54433 5.29529 2.4935 5.16499 2.38425C4.95092 2.20476 4.98757 1.91824 5.21284 1.76917C5.23071 1.75735 5.24885 1.74671 5.26723 1.73723C5.14085 1.6305 5.06373 1.52033 5.04498 1.3815Z" fill="#FFE402"/>
<path d="M7.2847 1.3815C7.31643 1.1465 7.16591 0.979116 6.91339 0.871388C6.57394 0.726566 6.23142 0.862178 5.91635 1.21128L6.32465 1.57978C6.46461 1.4247 6.56575 1.36495 6.64382 1.36597C6.49095 1.47518 6.2951 1.61 6.05653 1.77021L5.94202 1.93607C5.85006 2.33057 6.13602 2.54433 6.57215 2.54433C6.82902 2.54433 7.03439 2.4935 7.16469 2.38425C7.37876 2.20476 7.34211 1.91824 7.11684 1.76917C7.09897 1.75735 7.08084 1.74671 7.06245 1.73723C7.18883 1.6305 7.26596 1.52033 7.2847 1.3815Z" fill="#FFE402"/>
<path fill-rule="evenodd" clip-rule="evenodd" d="M5.54689 11.0315C5.23138 11.0406 5.03507 11.1057 5.03507 11.4098C5.03507 11.7452 5.36089 11.8501 5.70754 11.8501C6.02155 11.8501 6.3753 11.6552 6.3753 11.3062C6.3753 11.0938 6.10532 10.6654 5.42551 9.73651C5.40195 9.71457 5.38897 9.70339 5.37858 9.70331C5.41981 9.68036 5.49241 9.65348 5.58821 9.65348C5.62147 9.65348 5.66469 9.6703 5.70754 9.69185V10.0561H6.42727V9.78113C6.42727 9.47044 5.96799 9.10348 5.58821 9.10348C5.25653 9.10348 4.99026 9.26125 4.85539 9.48824C4.7221 9.71256 4.82402 9.92789 5.01544 10.0992C5.30028 10.492 5.52144 10.8172 5.66015 11.0309C5.60919 11.0304 5.58121 11.0305 5.54689 11.0315ZM5.58069 11.2851C5.57071 11.2829 5.56111 11.2804 5.55214 11.2778C5.55882 11.2848 5.58507 11.3161 5.58507 11.4098C5.58507 11.4608 5.58261 11.4967 5.57932 11.5219C5.48653 11.44 5.46059 11.2973 5.52849 11.1875L5.53017 11.1847L5.51982 11.1642C5.52119 11.1635 5.52257 11.1628 5.52392 11.1621C5.53991 11.1538 5.55305 11.1471 5.53017 11.1847L5.58069 11.2851ZM5.55214 11.2778L5.54261 11.2749C5.54363 11.2753 5.54498 11.2759 5.54655 11.2769L5.55214 11.2778ZM5.8253 11.3062C5.8253 11.2968 5.82211 11.2912 5.81659 11.2882L5.8198 11.2917C5.82345 11.2992 5.8253 11.3041 5.8253 11.3062Z" fill="#FFE402"/>
<path fill-rule="evenodd" clip-rule="evenodd" d="M6.78276 11.0315C7.09827 11.0406 7.29458 11.1057 7.29458 11.4098C7.29458 11.7452 6.96876 11.8501 6.62211 11.8501C6.3081 11.8501 5.95435 11.6552 5.95435 11.3062C5.95435 11.0938 6.22433 10.6654 6.90414 9.73651C6.92771 9.71457 6.94068 9.70339 6.95107 9.70331C6.90985 9.68036 6.83724 9.65348 6.74144 9.65348C6.70818 9.65348 6.66496 9.6703 6.62211 9.69185V10.0561H5.90238V9.78113C5.90238 9.47044 6.36166 9.10348 6.74144 9.10348C7.07312 9.10348 7.33939 9.26125 7.47426 9.48824C7.60755 9.71256 7.50563 9.92789 7.31421 10.0992C7.02937 10.492 6.80821 10.8172 6.66951 11.0309C6.72046 11.0304 6.74845 11.0305 6.78276 11.0315ZM6.74896 11.2851C6.75894 11.2829 6.76854 11.2804 6.77751 11.2778C6.77083 11.2848 6.74458 11.3161 6.74458 11.4098C6.74458 11.4608 6.74704 11.4967 6.75033 11.5219C6.84312 11.44 6.86906 11.2973 6.80116 11.1875L6.79948 11.1847L6.80983 11.1642C6.80846 11.1635 6.80708 11.1628 6.80573 11.1621C6.78974 11.1538 6.7766 11.1471 6.79948 11.1847L6.74896 11.2851ZM6.77751 11.2778L6.78705 11.2749C6.78602 11.2753 6.78467 11.2759 6.7831 11.2769L6.77751 11.2778ZM6.50435 11.3062C6.50435 11.2968 6.50754 11.2912 6.51306 11.2882L6.50985 11.2917C6.5062 11.2992 6.50435 11.3041 6.50435 11.3062Z" fill="#FFE402"/>
<path fill-rule="evenodd" clip-rule="evenodd" d="M5.54689 7.67737C5.23138 7.66828 5.03507 7.6032 5.03507 7.29906C5.03507 6.96369 5.36089 6.85876 5.70754 6.85876C6.02155 6.85876 6.3753 7.05366 6.3753 7.40269C6.3753 7.61502 6.10532 8.0435 5.42551 8.97235C5.40195 8.99429 5.38897 9.00548 5.37858 9.00555C5.41981 9.0285 5.49241 9.05539 5.58821 9.05539C5.62147 9.05539 5.66469 9.03856 5.70754 9.01701V8.65273H6.42727V8.92773C6.42727 9.23843 5.96799 9.60539 5.58821 9.60539C5.25653 9.60539 4.99026 9.44761 4.85539 9.22062C4.7221 8.9963 4.82402 8.78097 5.01544 8.60969C5.30028 8.21684 5.52144 7.89166 5.66015 7.678C5.60919 7.67842 5.58121 7.67835 5.54689 7.67737ZM5.58069 7.42377C5.57071 7.42599 5.56111 7.42842 5.55214 7.43102C5.55882 7.42402 5.58507 7.39273 5.58507 7.29906C5.58507 7.24807 5.58261 7.21219 5.57932 7.18697C5.48653 7.26883 5.46059 7.41153 5.52849 7.52138L5.53017 7.52412L5.51982 7.54469C5.52119 7.54538 5.52257 7.54609 5.52392 7.54679C5.53991 7.55502 5.55305 7.56178 5.53017 7.52412L5.58069 7.42377ZM5.55214 7.43102L5.54261 7.43394C5.54363 7.43361 5.54498 7.43297 5.54655 7.43195L5.55214 7.43102ZM5.8253 7.40269C5.8253 7.41208 5.82211 7.41766 5.81659 7.42065L5.8198 7.41714C5.82345 7.40962 5.8253 7.40477 5.8253 7.40269Z" fill="#FFE402"/>
<path fill-rule="evenodd" clip-rule="evenodd" d="M6.78276 7.67737C7.09827 7.66828 7.29458 7.6032 7.29458 7.29906C7.29458 6.96369 6.96876 6.85876 6.62211 6.85876C6.3081 6.85876 5.95435 7.05366 5.95435 7.40269C5.95435 7.61502 6.22433 8.0435 6.90414 8.97235C6.92771 8.99429 6.94068 9.00548 6.95107 9.00555C6.90985 9.0285 6.83724 9.05539 6.74144 9.05539C6.70818 9.05539 6.66496 9.03856 6.62211 9.01701V8.65273H5.90238V8.92773C5.90238 9.23843 6.36166 9.60539 6.74144 9.60539C7.07312 9.60539 7.33939 9.44761 7.47426 9.22062C7.60755 8.9963 7.50563 8.78097 7.31421 8.60969C7.02937 8.21684 6.80821 7.89166 6.66951 7.678C6.72046 7.67842 6.74845 7.67835 6.78276 7.67737ZM6.74896 7.42377C6.75894 7.42599 6.76854 7.42842 6.77751 7.43102C6.77083 7.42402 6.74458 7.39273 6.74458 7.29906C6.74458 7.24807 6.74704 7.21219 6.75033 7.18697C6.84312 7.26883 6.86906 7.41153 6.80116 7.52138L6.79948 7.52412L6.80983 7.54469C6.80846 7.54538 6.80708 7.54609 6.80573 7.54679C6.78974 7.55502 6.7766 7.56178 6.79948 7.52412L6.74896 7.42377ZM6.77751 7.43102L6.78705 7.43394C6.78602 7.43361 6.78467 7.43297 6.7831 7.43195L6.77751 7.43102ZM6.50435 7.40269C6.50435 7.41208 6.50754 7.41766 6.51306 7.42065L6.50985 7.41714C6.5062 7.40962 6.50435 7.40477 6.50435 7.40269Z" fill="#FFE402"/>
<path fill-rule="evenodd" clip-rule="evenodd" d="M5.54689 6.32263C5.23138 6.33172 5.03507 6.3968 5.03507 6.70094C5.03507 7.03631 5.36089 7.14124 5.70754 7.14124C6.02155 7.14124 6.3753 6.94634 6.3753 6.59731C6.3753 6.38498 6.10532 5.9565 5.42551 5.02765C5.40195 5.00571 5.38897 4.99452 5.37858 4.99445C5.41981 4.9715 5.49241 4.94461 5.58821 4.94461C5.62147 4.94461 5.66469 4.96144 5.70754 4.98299V5.34727H6.42727V5.07227C6.42727 4.76157 5.96799 4.39461 5.58821 4.39461C5.25653 4.39461 4.99026 4.55239 4.85539 4.77938C4.7221 5.0037 4.82402 5.21903 5.01544 5.39031C5.30028 5.78316 5.52144 6.10834 5.66015 6.322C5.60919 6.32158 5.58121 6.32165 5.54689 6.32263ZM5.58069 6.57623C5.57071 6.57401 5.56111 6.57158 5.55214 6.56898C5.55882 6.57598 5.58507 6.60727 5.58507 6.70094C5.58507 6.75193 5.58261 6.78781 5.57932 6.81303C5.48653 6.73117 5.46059 6.58847 5.52849 6.47862L5.53017 6.47588L5.51982 6.45531C5.52119 6.45462 5.52257 6.45391 5.52392 6.45321C5.53991 6.44498 5.55305 6.43822 5.53017 6.47588L5.58069 6.57623ZM5.55214 6.56898L5.54261 6.56606C5.54363 6.56639 5.54498 6.56703 5.54655 6.56805L5.55214 6.56898ZM5.8253 6.59731C5.8253 6.58792 5.82211 6.58234 5.81659 6.57935L5.8198 6.58286C5.82345 6.59038 5.8253 6.59523 5.8253 6.59731Z" fill="#FFE402"/>
<path fill-rule="evenodd" clip-rule="evenodd" d="M6.78276 6.32263C7.09827 6.33172 7.29458 6.3968 7.29458 6.70094C7.29458 7.03631 6.96876 7.14124 6.62211 7.14124C6.3081 7.14124 5.95435 6.94634 5.95435 6.59731C5.95435 6.38498 6.22433 5.9565 6.90414 5.02765C6.92771 5.00571 6.94068 4.99452 6.95107 4.99445C6.90985 4.9715 6.83724 4.94461 6.74144 4.94461C6.70818 4.94461 6.66496 4.96144 6.62211 4.98299V5.34727H5.90238V5.07227C5.90238 4.76157 6.36166 4.39461 6.74144 4.39461C7.07312 4.39461 7.33939 4.55239 7.47426 4.77938C7.60755 5.0037 7.50563 5.21903 7.31421 5.39031C7.02937 5.78316 6.80821 6.10834 6.66951 6.322C6.72046 6.32158 6.74845 6.32165 6.78276 6.32263ZM6.74896 6.57623C6.75894 6.57401 6.76854 6.57158 6.77751 6.56898C6.77083 6.57598 6.74458 6.60727 6.74458 6.70094C6.74458 6.75193 6.74704 6.78781 6.75033 6.81303C6.84312 6.73117 6.86906 6.58847 6.80116 6.47862L6.79948 6.47588L6.80983 6.45531C6.80846 6.45462 6.80708 6.45391 6.80573 6.45321C6.78974 6.44498 6.7766 6.43822 6.79948 6.47588L6.74896 6.57623ZM6.77751 6.56898L6.78705 6.56606C6.78602 6.56639 6.78467 6.56703 6.7831 6.56805L6.77751 6.56898ZM6.50435 6.59731C6.50435 6.58792 6.50754 6.58234 6.51306 6.57935L6.50985 6.58286C6.5062 6.59038 6.50435 6.59523 6.50435 6.59731Z" fill="#FFE402"/>
<path fill-rule="evenodd" clip-rule="evenodd" d="M5.54689 2.9685C5.23138 2.95942 5.03507 2.89434 5.03507 2.5902C5.03507 2.25483 5.36089 2.1499 5.70754 2.1499C6.02155 2.1499 6.3753 2.34479 6.3753 2.69382C6.3753 2.90616 6.10532 3.33464 5.42551 4.26349C5.40195 4.28543 5.38897 4.29661 5.37858 4.29669C5.41981 4.31964 5.49241 4.34652 5.58821 4.34652C5.62147 4.34652 5.66469 4.3297 5.70754 4.30815V3.94387H6.42727V4.21887C6.42727 4.52956 5.96799 4.89652 5.58821 4.89652C5.25653 4.89652 4.99026 4.73875 4.85539 4.51176C4.7221 4.28744 4.82402 4.07211 5.01544 3.90083C5.30028 3.50798 5.52144 3.18279 5.66015 2.96913C5.60919 2.96956 5.58121 2.96949 5.54689 2.9685ZM5.58069 2.71491C5.57071 2.71713 5.56111 2.71956 5.55214 2.72216C5.55882 2.71516 5.58507 2.68386 5.58507 2.5902C5.58507 2.53921 5.58261 2.50333 5.57932 2.47811C5.48653 2.55997 5.46059 2.70267 5.52849 2.81252L5.53017 2.81526L5.51982 2.83583C5.52119 2.83652 5.52257 2.83723 5.52392 2.83792C5.53991 2.84616 5.55305 2.85292 5.53017 2.81526L5.58069 2.71491ZM5.55214 2.72216L5.54261 2.72508C5.54363 2.72474 5.54498 2.72411 5.54655 2.72309L5.55214 2.72216ZM5.8253 2.69382C5.8253 2.70321 5.82211 2.7088 5.81659 2.71179L5.8198 2.70828C5.82345 2.70076 5.8253 2.6959 5.8253 2.69382Z" fill="#FFE402"/>
<path fill-rule="evenodd" clip-rule="evenodd" d="M6.78276 2.9685C7.09827 2.95942 7.29458 2.89434 7.29458 2.5902C7.29458 2.25483 6.96876 2.1499 6.62211 2.1499C6.3081 2.1499 5.95435 2.34479 5.95435 2.69382C5.95435 2.90616 6.22433 3.33464 6.90414 4.26349C6.92771 4.28543 6.94068 4.29661 6.95107 4.29669C6.90985 4.31964 6.83724 4.34652 6.74144 4.34652C6.70818 4.34652 6.66496 4.3297 6.62211 4.30815V3.94387H5.90238V4.21887C5.90238 4.52956 6.36166 4.89652 6.74144 4.89652C7.07312 4.89652 7.33939 4.73875 7.47426 4.51176C7.60755 4.28744 7.50563 4.07211 7.31421 3.90083C7.02937 3.50798 6.80821 3.18279 6.66951 2.96913C6.72046 2.96956 6.74845 2.96949 6.78276 2.9685ZM6.74896 2.71491C6.75894 2.71713 6.76854 2.71956 6.77751 2.72216C6.77083 2.71516 6.74458 2.68386 6.74458 2.5902C6.74458 2.53921 6.74704 2.50333 6.75033 2.47811C6.84312 2.55997 6.86906 2.70267 6.80116 2.81252L6.79948 2.81526L6.80983 2.83583C6.80846 2.83652 6.80708 2.83723 6.80573 2.83792C6.78974 2.84616 6.7766 2.85292 6.79948 2.81526L6.74896 2.71491ZM6.77751 2.72216L6.78705 2.72508C6.78602 2.72474 6.78467 2.72411 6.7831 2.72309L6.77751 2.72216ZM6.50435 2.69382C6.50435 2.70321 6.50754 2.7088 6.51306 2.71179L6.50985 2.70828C6.5062 2.70076 6.50435 2.6959 6.50435 2.69382Z" fill="#FFE402"/>
<path fill-rule="evenodd" clip-rule="evenodd" d="M12.4934 2.3924L12.6981 3.15625C12.6981 3.15625 12.7005 3.32979 12.5044 3.32979C12.3084 3.32979 12.2985 3.15625 12.2985 3.15625L12.4934 2.3924ZM14.2252 5.30998C14.2252 6.3041 13.4663 7.10998 12.5302 7.10998C11.594 7.10998 10.8352 6.3041 10.8352 5.30998C10.8352 4.31587 11.594 3.50998 12.5302 3.50998C13.4663 3.50998 14.2252 4.31587 14.2252 5.30998ZM13.2906 3.31029L13.3182 2.51995L12.9085 3.19346C12.9085 3.19346 12.8672 3.36231 13.0547 3.41963C13.2422 3.47695 13.2906 3.31029 13.2906 3.31029ZM14.0703 2.8942L13.8129 3.64195C13.8129 3.64195 13.7179 3.78717 13.5553 3.67754C13.3928 3.56791 13.4816 3.4185 13.4816 3.4185L14.0703 2.8942ZM14.2184 4.1218L14.6832 3.48199L13.9669 3.81126C13.9669 3.81126 13.8383 3.92816 13.9616 4.08052C14.085 4.23288 14.2184 4.1218 14.2184 4.1218ZM15.1055 4.23879L14.4657 4.70366C14.4657 4.70366 14.3046 4.7681 14.2343 4.58506C14.1641 4.40203 14.3225 4.33061 14.3225 4.33061L15.1055 4.23879ZM14.5439 5.34113L15.2916 5.08362L14.516 4.94251C14.516 4.94251 14.3436 4.96448 14.3573 5.16006C14.371 5.35563 14.5439 5.34113 14.5439 5.34113ZM15.2303 5.94795L14.4399 5.9756C14.4399 5.9756 14.2703 5.93891 14.3144 5.74788C14.3585 5.55685 14.5298 5.58625 14.5298 5.58625L15.2303 5.94795ZM14.1629 6.55057L14.9268 6.7552L14.3627 6.20452C14.3627 6.20452 14.2075 6.12631 14.1095 6.2961C14.0114 6.46588 14.1629 6.55057 14.1629 6.55057ZM14.4082 7.43382L13.7375 7.01479C13.7375 7.01479 13.6174 6.88951 13.7608 6.75581C13.9041 6.6221 14.0297 6.74228 14.0297 6.74228L14.4082 7.43382ZM13.2014 7.32687L13.7203 7.92367L13.5606 7.1517C13.5606 7.1517 13.4756 7.00006 13.2994 7.086C13.1232 7.17195 13.2014 7.32687 13.2014 7.32687ZM12.9242 8.18135L12.6025 7.45893C12.6025 7.45893 12.5729 7.2879 12.7666 7.25723C12.9602 7.22656 12.9971 7.39642 12.9971 7.39642L12.9242 8.18135ZM11.9995 7.39642L12.0822 8.1829L12.3942 7.45893C12.3942 7.45893 12.4115 7.28598 12.2179 7.25531C12.0243 7.22464 11.9995 7.39642 11.9995 7.39642ZM11.2852 7.92801L11.436 7.15172C11.436 7.15172 11.5099 6.99468 11.6862 7.08063C11.8624 7.16657 11.7952 7.32688 11.7952 7.32688L11.2852 7.92801ZM10.9669 6.74229L10.5957 7.44057L11.2591 7.01481C11.2591 7.01481 11.3703 6.88115 11.2269 6.74744C11.0835 6.61373 10.9669 6.74229 10.9669 6.74229ZM10.0747 6.76377L10.6339 6.20454C10.6339 6.20454 10.783 6.11568 10.881 6.28547C10.979 6.45526 10.8337 6.5506 10.8337 6.5506L10.0747 6.76377ZM10.4668 5.58628L9.76857 5.95759L10.5567 5.97563C10.5567 5.97563 10.7236 5.92696 10.6795 5.73593C10.6354 5.5449 10.4668 5.58628 10.4668 5.58628ZM9.70428 5.09348L10.4806 4.94254C10.4806 4.94254 10.6538 4.95224 10.6402 5.14782C10.6265 5.3434 10.4527 5.34116 10.4527 5.34116L9.70428 5.09348ZM10.6741 4.33064L9.88757 4.24802L10.5309 4.70368C10.5309 4.70368 10.6964 4.75665 10.7667 4.57361C10.8369 4.39058 10.6741 4.33064 10.6741 4.33064ZM10.3072 3.48967L11.0297 3.81128C11.0297 3.81128 11.1661 3.91863 11.0427 4.07099C10.9193 4.22335 10.7782 4.12182 10.7782 4.12182L10.3072 3.48967ZM11.515 3.41852L10.9181 2.89974L11.1837 3.64197C11.1837 3.64197 11.2889 3.78031 11.4515 3.67068C11.614 3.56105 11.515 3.41852 11.515 3.41852ZM11.669 2.52284L12.0881 3.19347C12.0881 3.19347 12.1411 3.35872 11.9536 3.41604C11.7662 3.47336 11.706 3.31029 11.706 3.31029L11.669 2.52284Z" fill="#FFE402"/>
<path d="M8.77385 5L9.49543 5.07298C9.14914 7.42001 10.0831 8.47745 12.5136 8.47745C14.974 8.47745 16.1134 7.37204 16.1134 5C16.1134 5 16.6256 4.97095 16.6214 5.07298C16.5109 7.80213 15.3396 9.55396 12.442 9.55396C9.4063 9.55396 8.33767 7.95624 8.77385 5Z" fill="#FFE402"/>
<path d="M8.98921 6.39999L9.67071 6.47298C9.34366 8.82 10.2257 9.87744 12.5213 9.87744C14.845 9.87744 15.921 8.77204 15.921 6.39999C15.921 6.39999 16.4048 6.37094 16.4009 6.47298C16.2965 9.20212 15.1903 10.954 12.4536 10.954C9.58653 10.954 8.57726 9.35623 8.98921 6.39999Z" fill="#FFE402"/>
</g>
</g>
<rect x="3" y="1" width="16" height="12" fill="url(#paint0_linear)" style="mix-blend-mode:overlay"/>
</g>
<defs>
<filter id="filter0_d" x="0" y="0" width="22" height="18" filterUnits="userSpaceOnUse" color-interpolation-filters="sRGB">
<feFlood flood-opacity="0" result="BackgroundImageFix"/>
<feColorMatrix in="SourceAlpha" type="matrix" values="0 0 0 0 0 0 0 0 0 0 0 0 0 0 0 0 0 0 127 0" result="hardAlpha"/>
<feOffset dy="2"/>
<feGaussianBlur stdDeviation="1.5"/>
<feColorMatrix type="matrix" values="0 0 0 0 0 0 0 0 0 0 0 0 0 0 0 0 0 0 0.1 0"/>
<feBlend mode="normal" in2="BackgroundImageFix" result="effect1_dropShadow"/>
<feBlend mode="normal" in="SourceGraphic" in2="effect1_dropShadow" result="shape"/>
</filter>
<linearGradient id="paint0_linear" x1="11" y1="1" x2="11" y2="13" gradientUnits="userSpaceOnUse">
<stop stop-color="white" stop-opacity="0.7"/>
<stop offset="1" stop-opacity="0.3"/>
</linearGradient>
</defs>
</svg>
