<svg width="22" height="18" viewBox="0 0 22 18" fill="none" xmlns="http://www.w3.org/2000/svg">
<g filter="url(#filter0_d)">
<mask id="mask0" style="mask-type:alpha" maskUnits="userSpaceOnUse" x="3" y="1" width="16" height="12">
<rect x="3" y="1" width="16" height="12" fill="white"/>
</mask>
<g mask="url(#mask0)">
<path fill-rule="evenodd" clip-rule="evenodd" d="M3 1V13H19V1H3Z" fill="#E31D1C"/>
<mask id="mask1" style="mask-type:alpha" maskUnits="userSpaceOnUse" x="3" y="1" width="16" height="12">
<path fill-rule="evenodd" clip-rule="evenodd" d="M3 1V13H19V1H3Z" fill="white"/>
</mask>
<g mask="url(#mask1)">
<path fill-rule="evenodd" clip-rule="evenodd" d="M3 1V7H19V1H3Z" fill="#2E42A5"/>
<path fill-rule="evenodd" clip-rule="evenodd" d="M5.39923 6.52659C5.39923 6.52659 6.00256 6.90213 7.40065 6.90213C8.79873 6.90213 9.54083 6.52659 9.54083 6.52659C9.54083 6.52659 8.44442 5.88922 7.46407 5.88922C6.48373 5.88922 5.39923 6.52659 5.39923 6.52659Z" fill="black"/>
<path d="M5.43528 4.3711L5.32724 4.43397L5.36339 4.4961H5.43528H9.5979H9.68949L9.71709 4.40876L9.5979 4.3711L9.71711 4.40868L9.71715 4.40857L9.71724 4.40829L9.7175 4.40744L9.71836 4.40465L9.72131 4.39478C9.72379 4.38634 9.72725 4.37425 9.73138 4.35889C9.73965 4.32819 9.75067 4.28431 9.76208 4.23036C9.78482 4.1228 9.80943 3.97355 9.81629 3.80794C9.8297 3.48384 9.7762 3.06127 9.46161 2.78779C9.16553 2.5304 8.75265 2.40238 8.36271 2.33677C7.97003 2.27069 7.58326 2.26526 7.32702 2.26526C6.79761 2.26526 6.31174 2.32798 5.52532 2.77336C5.30583 2.89767 5.18033 3.07071 5.12091 3.26035C5.06265 3.44628 5.06996 3.64094 5.10097 3.81159C5.13212 3.98295 5.1886 4.13787 5.23652 4.24894C5.26061 4.30479 5.28286 4.35029 5.29926 4.38213C5.30746 4.39807 5.31423 4.41063 5.31905 4.41939L5.32478 4.42966L5.32644 4.43258L5.32695 4.43347L5.32712 4.43376L5.32719 4.43388C5.32721 4.43392 5.32724 4.43397 5.43528 4.3711Z" fill="#FFD83D" stroke="black" stroke-width="0.25"/>
<path d="M4.94307 4.453L5.00134 4.56358C4.94307 4.453 4.94311 4.45297 4.94317 4.45295L4.94329 4.45288L4.94358 4.45273L4.9444 4.4523L4.94693 4.451L4.95561 4.44665C4.963 4.44301 4.97361 4.4379 4.98744 4.43154C5.0151 4.41883 5.05565 4.40111 5.10917 4.38008C5.21622 4.33803 5.37512 4.28274 5.58646 4.22772C6.00925 4.11765 6.64139 4.00879 7.48758 4.00879C8.33377 4.00879 8.96591 4.11765 9.38869 4.22772C9.60004 4.28274 9.75894 4.33803 9.86599 4.38008C9.91951 4.40111 9.96006 4.41883 9.98772 4.43154C10.0015 4.4379 10.0122 4.44301 10.0195 4.44665L10.0282 4.451L10.0308 4.4523L10.0316 4.45273L10.0319 4.45288L10.032 4.45295C10.032 4.45297 10.0321 4.453 9.97381 4.56358L10.0321 4.453L10.1294 4.5043L10.0909 4.60737L9.49844 6.19155L9.45715 6.30197L4.94307 4.453ZM4.94307 4.453L4.84658 4.50384L4.88388 4.60633L5.46036 6.19051L5.50061 6.30113L5.61342 6.26759L4.94307 4.453ZM9.34451 6.26721L9.34453 6.26721L5.61345 6.26758L5.61349 6.26757L5.61388 6.26745L5.61569 6.26692L5.62334 6.26471L5.65414 6.25602C5.68134 6.24848 5.72155 6.23762 5.77292 6.22455C5.8757 6.19839 6.02297 6.16343 6.20004 6.12845C6.55498 6.05833 7.02605 5.98888 7.49705 5.98888C7.96793 5.98888 8.43014 6.0583 8.77602 6.12833C8.94861 6.16328 9.0914 6.1982 9.19079 6.22431C9.24047 6.23736 9.27926 6.24819 9.30546 6.25571L9.33508 6.26437L9.3424 6.26656L9.34411 6.26709L9.34448 6.2672L9.34451 6.26721Z" fill="#FFD83D" stroke="black" stroke-width="0.25"/>
<mask id="path-9-outside-1" maskUnits="userSpaceOnUse" x="6.05878" y="0" width="3" height="3" fill="black">
<rect fill="white" x="6.05878" width="3" height="3"/>
<path fill-rule="evenodd" clip-rule="evenodd" d="M7.56298 1H7.31088L7.34333 1.46136L7.05878 1.42264V1.73962L7.3477 1.69983L7.31088 2.42642H7.56298L7.52566 1.6986L7.81508 1.73962V1.42264L7.5309 1.46343L7.56298 1Z"/>
</mask>
<path fill-rule="evenodd" clip-rule="evenodd" d="M7.56298 1H7.31088L7.34333 1.46136L7.05878 1.42264V1.73962L7.3477 1.69983L7.31088 2.42642H7.56298L7.52566 1.6986L7.81508 1.73962V1.42264L7.5309 1.46343L7.56298 1Z" fill="#FFD83D"/>
<path d="M7.31088 1V0.75H7.04268L7.06149 1.01754L7.31088 1ZM7.56298 1L7.81238 1.01726L7.83088 0.75H7.56298V1ZM7.34333 1.46136L7.30962 1.70908L7.61429 1.75053L7.59271 1.44382L7.34333 1.46136ZM7.05878 1.42264L7.09248 1.17492L6.80878 1.13632V1.42264H7.05878ZM7.05878 1.73962H6.80878V2.02642L7.09289 1.98728L7.05878 1.73962ZM7.3477 1.69983L7.59738 1.71248L7.61266 1.41097L7.31359 1.45216L7.3477 1.69983ZM7.31088 2.42642L7.0612 2.41376L7.04789 2.67642H7.31088V2.42642ZM7.56298 2.42642V2.67642H7.82613L7.81265 2.41361L7.56298 2.42642ZM7.52566 1.6986L7.56074 1.45108L7.26045 1.40852L7.27598 1.71141L7.52566 1.6986ZM7.81508 1.73962L7.78 1.98715L8.06508 2.02755V1.73962H7.81508ZM7.81508 1.42264H8.06508V1.13419L7.77956 1.17518L7.81508 1.42264ZM7.5309 1.46343L7.2815 1.44617L7.26013 1.75486L7.56642 1.7109L7.5309 1.46343ZM7.31088 1.25H7.56298V0.75H7.31088V1.25ZM7.59271 1.44382L7.56026 0.982458L7.06149 1.01754L7.09395 1.4789L7.59271 1.44382ZM7.02507 1.67036L7.30962 1.70908L7.37704 1.21364L7.09248 1.17492L7.02507 1.67036ZM7.30878 1.73962V1.42264H6.80878V1.73962H7.30878ZM7.31359 1.45216L7.02466 1.49196L7.09289 1.98728L7.38181 1.94749L7.31359 1.45216ZM7.56056 2.43907L7.59738 1.71248L7.09802 1.68717L7.0612 2.41376L7.56056 2.43907ZM7.56298 2.17642H7.31088V2.67642H7.56298V2.17642ZM7.27598 1.71141L7.31331 2.43922L7.81265 2.41361L7.77533 1.6858L7.27598 1.71141ZM7.85016 1.4921L7.56074 1.45108L7.49058 1.94613L7.78 1.98715L7.85016 1.4921ZM7.56508 1.42264V1.73962H8.06508V1.42264H7.56508ZM7.56642 1.7109L7.8506 1.67011L7.77956 1.17518L7.49538 1.21597L7.56642 1.7109ZM7.31358 0.982738L7.2815 1.44617L7.78031 1.4807L7.81238 1.01726L7.31358 0.982738Z" fill="black" mask="url(#path-9-outside-1)"/>
</g>
</g>
<rect x="3" y="1" width="16" height="12" fill="url(#paint0_linear)" style="mix-blend-mode:overlay"/>
</g>
<defs>
<filter id="filter0_d" x="0" y="0" width="22" height="18" filterUnits="userSpaceOnUse" color-interpolation-filters="sRGB">
<feFlood flood-opacity="0" result="BackgroundImageFix"/>
<feColorMatrix in="SourceAlpha" type="matrix" values="0 0 0 0 0 0 0 0 0 0 0 0 0 0 0 0 0 0 127 0" result="hardAlpha"/>
<feOffset dy="2"/>
<feGaussianBlur stdDeviation="1.5"/>
<feColorMatrix type="matrix" values="0 0 0 0 0 0 0 0 0 0 0 0 0 0 0 0 0 0 0.1 0"/>
<feBlend mode="normal" in2="BackgroundImageFix" result="effect1_dropShadow"/>
<feBlend mode="normal" in="SourceGraphic" in2="effect1_dropShadow" result="shape"/>
</filter>
<linearGradient id="paint0_linear" x1="11" y1="1" x2="11" y2="13" gradientUnits="userSpaceOnUse">
<stop stop-color="white" stop-opacity="0.7"/>
<stop offset="1" stop-opacity="0.3"/>
</linearGradient>
</defs>
</svg>
