<svg width="22" height="18" viewBox="0 0 22 18" fill="none" xmlns="http://www.w3.org/2000/svg">
<g filter="url(#filter0_d)">
<mask id="mask0" style="mask-type:alpha" maskUnits="userSpaceOnUse" x="3" y="1" width="16" height="12">
<rect x="3" y="1" width="16" height="12" fill="white"/>
</mask>
<g mask="url(#mask0)">
<path fill-rule="evenodd" clip-rule="evenodd" d="M3 1H19V13H3V1Z" fill="#FECA00"/>
<rect x="4" y="2" width="3" height="10" fill="#1F8A6E"/>
<rect x="7" y="2" width="3" height="10" fill="#F56800"/>
<rect x="10" y="2" width="8" height="10" fill="#B01D00"/>
<path fill-rule="evenodd" clip-rule="evenodd" d="M11.4713 4C11.4713 4 10.8278 3.99813 10.8278 5.11869V6.76186C10.8278 6.76186 10.5214 6.81648 10.5214 7.00678C10.5214 7.19709 10.5863 7.36361 10.7071 7.36361C10.8278 7.36361 10.9485 7.92187 10.8278 7.92187C10.7071 7.92187 10.5863 8.16141 10.7071 8.16141C10.7359 8.16141 10.7579 8.15749 10.7746 8.15451C10.7922 8.15138 10.804 8.14928 10.8118 8.15386C10.8278 8.16314 10.8278 8.19977 10.8278 8.31053C10.8278 8.52807 10.7071 8.61604 10.7071 8.61604C10.7071 8.61604 10.5934 8.58432 10.5934 8.71234C10.5934 8.84036 10.7071 8.87277 10.7071 8.87277C10.7071 8.87277 10.7721 8.90091 10.6468 8.96152C10.5214 9.02214 10.5214 9.05144 10.5214 9.05144H10.8278L10.9812 9.33215L11.1276 9.05144H11.43C11.43 9.05144 11.2777 8.95405 11.2599 8.93364C11.242 8.91322 11.2204 8.88341 11.2599 8.84927C11.2714 8.83932 11.2882 8.83172 11.3063 8.82355C11.3502 8.80371 11.4015 8.78055 11.4015 8.71234C11.4015 8.61604 11.2085 8.61604 11.2085 8.61604C11.2085 8.61604 11.0907 8.40339 11.1276 8.31053C11.1379 8.28457 11.1438 8.26146 11.1488 8.24165C11.1618 8.1906 11.1693 8.16141 11.2326 8.16141C11.3205 8.16141 11.371 8.05043 11.2599 7.92187C11.2599 7.92187 11.3872 8.05874 11.3498 8.23635C11.3124 8.41396 11.3887 8.4944 11.43 8.4944C11.4713 8.4944 11.5371 8.43333 11.5371 8.43333C11.5371 8.43333 11.8804 8.74027 12.0312 8.74027C12.1821 8.74027 12.3984 8.4944 12.3984 8.4944L12.709 8.66882C12.709 8.66882 12.9363 8.98727 12.9028 9.2062C12.8693 9.42513 12.7397 9.54712 12.5872 9.51327C12.4348 9.47942 12.1867 9.54888 12.1678 9.64331C12.165 9.6576 12.1607 9.67501 12.1561 9.69412L12.1561 9.69413C12.13 9.80131 12.0909 9.96175 12.2104 9.92217C12.3513 9.87552 12.3788 9.83974 12.3788 9.83974C12.3788 9.83974 12.3603 9.92217 12.4738 9.92217C12.5872 9.92217 12.62 9.83974 12.62 9.83974C12.62 9.83974 12.7377 9.92217 12.8202 9.92217C12.9028 9.92217 12.9953 9.85866 12.9953 9.85866C12.9953 9.85866 13.0562 9.95301 13.1909 9.92217C13.3255 9.89132 13.4273 9.53988 13.3293 9.46114C13.3293 9.46114 13.6542 9.41402 13.7376 9.13165C13.7376 9.13165 13.4233 9.127 13.4557 8.93364C13.4881 8.74027 13.6541 8.61604 13.6541 8.61604C13.6541 8.61604 14.1319 8.38471 14.3375 8.31053C14.5431 8.23635 14.8848 8.16141 14.9695 8.16141C15.004 8.16141 15.0286 8.24185 15.0619 8.35088C15.1105 8.50977 15.1777 8.72938 15.321 8.84927C15.5627 9.05144 15.3979 9.51327 15.3979 9.51327C15.3979 9.51327 14.8601 9.56745 14.8601 9.71306C14.8601 9.85866 14.8688 9.92217 14.9695 9.92217C15.0702 9.92217 15.0682 9.83974 15.0682 9.83974C15.0682 9.83974 15.128 9.92217 15.2245 9.92217C15.321 9.92217 15.3979 9.83974 15.3979 9.83974C15.3979 9.83974 15.4236 9.92217 15.55 9.92217C15.6765 9.92217 15.6756 9.83974 15.6756 9.83974C15.6756 9.83974 15.6984 9.92217 15.8098 9.92217C15.9213 9.92217 16.1501 9.83974 16.1501 9.83974C16.1501 9.83974 16.1859 9.92217 16.3017 9.92217C16.4174 9.92217 16.4202 9.83974 16.4202 9.83974C16.4202 9.83974 16.482 9.92217 16.5822 9.92217C16.6825 9.92217 16.7413 9.83974 16.7413 9.83974C16.7413 9.83974 16.8854 9.92217 16.9849 9.92217C17.0843 9.92217 17.0486 9.77335 16.9849 9.64331C16.9687 9.61042 16.9501 9.58232 16.933 9.55665C16.8826 9.48083 16.8464 9.42624 16.9317 9.33215C16.9559 9.3055 16.9836 9.27857 17.0113 9.25161L17.0113 9.25159C17.1146 9.15107 17.2185 9.05002 17.1424 8.96152C17.1198 8.93526 17.0934 8.91688 17.0668 8.8984C16.9797 8.83789 16.891 8.77629 16.9317 8.43333C16.9561 8.22795 17.0024 8.06098 17.0455 7.90596L17.0455 7.90596L17.0455 7.90595C17.0963 7.72303 17.1424 7.55675 17.1424 7.36361C17.1424 7.00678 16.9317 6.59876 16.9317 6.59876C16.9317 6.59876 17.2154 6.40073 17.2154 5.9979C17.2154 5.59507 16.5822 5.55113 16.5822 5.55113C16.5822 5.55113 15.9533 5.71303 15.6756 5.63208C15.6129 5.61381 15.5605 5.60068 15.5169 5.58974C15.3671 5.55224 15.321 5.54069 15.321 5.43691C15.321 5.30287 15.1189 5.55113 15.1189 5.55113C15.1189 5.55113 14.9605 5.48754 15.0682 5.35596C15.1759 5.22438 15.2245 5.17279 15.2245 5.17279C15.2245 5.17279 15.1296 5.06458 14.9695 5.11869C14.8094 5.17279 14.7808 5.26245 14.7808 5.26245C14.7808 5.26245 14.5983 5.07559 14.712 4.93991C14.8258 4.80423 14.9695 4.93991 14.9695 4.93991C14.9695 4.93991 15.133 5.02529 15.1462 4.91322C15.1593 4.80115 15.1462 4.71179 15.1462 4.71179C15.1462 4.71179 15.5564 4.82945 15.4405 5.01247C15.3246 5.19549 15.3979 5.26245 15.3979 5.26245C15.3979 5.26245 15.6799 5.27981 15.7308 5.08529C15.7501 5.01173 15.7469 4.94038 15.7328 4.88431C15.8141 4.92258 15.9061 4.96793 15.8804 5.04315C15.8332 5.18136 15.7308 5.35596 15.7308 5.35596C15.7308 5.35596 16.0126 5.33949 16.0965 5.11869C16.1805 4.89788 16.1501 5.17279 16.1501 5.17279C16.1501 5.17279 16.2581 5.16895 16.4202 5.26245C16.5822 5.35596 16.4202 5.11869 16.4202 5.11869C16.4202 5.11869 16.7566 5.53583 17.0748 5.48637C17.393 5.43691 17.3754 5.17279 17.3754 5.17279C17.3754 5.17279 17.3 5.04315 17.1424 5.04315C16.9849 5.04315 17.0748 5.17279 17.0748 5.17279C17.0748 5.17279 17.2284 5.26029 16.9849 5.17279C16.9143 5.14745 16.809 5.06564 16.6784 4.96413C16.358 4.71516 15.8851 4.34768 15.3979 4.40396C14.712 4.48319 14.4727 4.78969 14.4727 4.78969V4.53448C14.4727 4.53448 14.3574 4.71179 14.25 4.71179C14.1425 4.71179 13.8442 4.53448 13.8442 4.53448L13.6541 4.71179C13.6541 4.71179 13.5821 4.53448 13.4557 4.53448C13.3293 4.53448 13.3293 4.71179 13.3293 4.71179C13.3293 4.71179 13.1704 4.63362 12.9953 4.63362C12.9236 4.63362 12.8626 4.60743 12.8155 4.58723C12.7478 4.55813 12.709 4.54149 12.709 4.63362C12.709 4.65232 12.7094 4.67017 12.7098 4.68715C12.7129 4.81189 12.7148 4.88973 12.5333 4.91322C12.3271 4.93991 12.1678 4.93991 12.1678 4.93991C12.1678 4.93991 12.0444 4.78969 11.9484 4.78969C11.8523 4.78969 11.7411 4.90626 11.7411 5.01247C11.7411 5.11869 11.8655 5.4216 11.9484 5.48637C11.9702 5.50343 11.9661 5.50156 11.9483 5.49336C11.8985 5.47042 11.7411 5.3979 11.7411 5.55113C11.7411 5.65678 11.7675 5.68319 11.7867 5.70248C11.8054 5.72118 11.8174 5.73318 11.7922 5.80412C11.7817 5.83364 11.7674 5.86778 11.7524 5.90341C11.6941 6.04177 11.6264 6.20259 11.7411 6.20259C11.803 6.20259 11.8616 6.18895 11.9033 6.17924C11.9587 6.16634 11.9844 6.16037 11.9484 6.20259C11.934 6.21942 11.9147 6.23968 11.8953 6.26011C11.8292 6.32951 11.7611 6.40093 11.8789 6.34673C11.9408 6.31824 11.993 6.27691 12.0361 6.24283C12.0991 6.19299 12.1426 6.15865 12.1678 6.20259C12.1838 6.23038 12.171 6.26751 12.16 6.29934C12.1418 6.35228 12.1286 6.39054 12.2613 6.34673C12.3078 6.33137 12.3351 6.3194 12.3502 6.31079C12.3508 6.31941 12.3579 6.33139 12.3788 6.34673C12.4234 6.37943 12.4148 6.4104 12.4083 6.43408C12.4009 6.46087 12.3961 6.47831 12.4738 6.47831C12.5481 6.47831 12.653 6.42072 12.7151 6.38659C12.7753 6.35354 12.7954 6.34248 12.709 6.42698C12.6545 6.48024 12.5757 6.51574 12.4883 6.55515C12.2937 6.64285 12.0561 6.74989 11.9484 7.11502C11.8029 7.60788 11.8681 7.70944 11.8777 7.72106L11.43 7.23086C11.43 7.23086 11.5371 7.14718 11.5371 7.00678C11.5371 6.86639 11.2599 6.76186 11.2599 6.76186C11.2599 6.76186 11.2696 5.01482 11.3498 4.63362C11.43 4.25243 11.4713 4 11.4713 4ZM12.3642 6.29429C12.3591 6.2943 12.3494 6.29981 12.3502 6.31079C12.3696 6.29977 12.3692 6.29428 12.3642 6.29429ZM15.7328 4.88431L15.7269 4.88152C15.6613 4.85069 15.6049 4.82416 15.6266 4.78969C15.6571 4.74125 15.7097 4.79213 15.7328 4.88431ZM16.0291 8.66462C16.0291 8.66462 15.8169 8.87272 15.9516 8.91846C15.9925 8.93233 16.0422 8.94006 16.0884 8.94726L16.0884 8.94726C16.1946 8.96377 16.2822 8.97742 16.2018 9.05599C16.0864 9.16877 15.9887 9.32113 15.9887 9.4599C15.9887 9.59867 15.992 9.71582 16.0291 9.65724C16.0495 9.62509 16.1333 9.59143 16.2235 9.55516C16.2977 9.52536 16.3762 9.49381 16.4276 9.4599C16.5245 9.39581 16.5231 9.32651 16.5206 9.20197C16.5202 9.18043 16.5197 9.15724 16.5197 9.13214C16.5197 8.96191 16.0291 8.66462 16.0291 8.66462ZM14.3829 5.87756C14.4323 5.83826 14.4355 5.35313 14.4355 5.35313C14.4355 5.35313 14.609 5.41089 14.609 5.48667C14.609 5.53386 14.5959 5.56086 14.576 5.6016C14.564 5.62628 14.5496 5.65601 14.5341 5.69832C14.496 5.80254 14.5997 5.86783 14.6961 5.92848C14.7034 5.93311 14.7107 5.9377 14.7179 5.94229C14.7832 5.98393 14.8016 5.89358 14.8157 5.82384C14.8236 5.78517 14.8302 5.75284 14.8427 5.75284C14.878 5.75284 15.1409 5.81245 15.3388 5.91301C15.5114 6.00074 15.6809 5.95767 16.0689 5.85902C16.1256 5.8446 16.1869 5.829 16.2537 5.81245C16.777 5.68261 16.8457 5.87756 16.8994 6.03105C16.953 6.18454 16.5467 6.39723 16.2537 6.43578C16.1249 6.45271 16.0134 6.44733 15.9107 6.44237C15.7798 6.43604 15.6634 6.43042 15.5443 6.47277C15.3576 6.53915 14.7737 6.53254 14.5458 6.52996C14.5143 6.52961 14.4896 6.52933 14.4737 6.52933C14.3691 6.52933 14.3493 6.4963 14.3096 6.43003C14.2995 6.41319 14.2881 6.3942 14.2737 6.37307C14.2027 6.26876 14.2889 6.20055 14.3447 6.20055C14.4005 6.20055 14.3829 6.07846 14.3447 6.03105C14.3065 5.98365 14.3334 5.91687 14.3829 5.87756Z" fill="#FECA00"/>
<rect x="9" y="2" width="1" height="10" fill="#E8AA00"/>
<path fill-rule="evenodd" clip-rule="evenodd" d="M10.0856 2.06116V2.24168C10.0856 2.26391 10.076 2.29423 10.0653 2.32821C10.0312 2.43594 9.98543 2.58051 10.1966 2.62114C10.4744 2.67458 10.679 2.79605 10.7412 2.91072C10.7811 2.98421 10.7698 2.86175 10.7566 2.71773V2.71772C10.7492 2.63701 10.7412 2.54952 10.7412 2.48594C10.7412 2.30892 10.5429 1.96397 10.4024 2.06116C10.2619 2.15836 10.0856 2.06116 10.0856 2.06116ZM10.0856 11.7537V11.9342C10.0856 11.9342 10.2619 11.837 10.4024 11.9342C10.5429 12.0314 10.7412 11.6864 10.7412 11.5094C10.7412 11.4458 10.7492 11.3583 10.7566 11.2776C10.7698 11.1336 10.7811 11.0111 10.7412 11.0846C10.679 11.1993 10.4744 11.3208 10.1966 11.3742C9.98543 11.4148 10.0312 11.5594 10.0653 11.6671C10.076 11.7011 10.0856 11.7314 10.0856 11.7537ZM17.9178 11.7537V11.9342C17.9178 11.9342 17.7415 11.837 17.601 11.9342C17.4605 12.0314 17.2622 11.6864 17.2622 11.5094C17.2622 11.4458 17.2542 11.3583 17.2468 11.2776L17.2468 11.2776C17.2336 11.1336 17.2224 11.0111 17.2622 11.0846C17.3244 11.1993 17.5291 11.3208 17.8068 11.3742C18.018 11.4148 17.9723 11.5594 17.9382 11.6671C17.9274 11.7011 17.9178 11.7314 17.9178 11.7537ZM17.9178 2.24168V2.06116C17.9178 2.06116 17.7415 2.15836 17.601 2.06116C17.4605 1.96397 17.2622 2.30892 17.2622 2.48594C17.2622 2.54952 17.2542 2.63701 17.2468 2.71773C17.2336 2.86175 17.2224 2.98421 17.2622 2.91072C17.3244 2.79605 17.5291 2.67458 17.8068 2.62114C18.018 2.58051 17.9723 2.43594 17.9382 2.32821C17.9274 2.29423 17.9178 2.26391 17.9178 2.24168Z" fill="#FECA00"/>
</g>
<rect x="3" y="1" width="16" height="12" fill="url(#paint0_linear)" style="mix-blend-mode:overlay"/>
</g>
<defs>
<filter id="filter0_d" x="0" y="0" width="22" height="18" filterUnits="userSpaceOnUse" color-interpolation-filters="sRGB">
<feFlood flood-opacity="0" result="BackgroundImageFix"/>
<feColorMatrix in="SourceAlpha" type="matrix" values="0 0 0 0 0 0 0 0 0 0 0 0 0 0 0 0 0 0 127 0" result="hardAlpha"/>
<feOffset dy="2"/>
<feGaussianBlur stdDeviation="1.5"/>
<feColorMatrix type="matrix" values="0 0 0 0 0 0 0 0 0 0 0 0 0 0 0 0 0 0 0.1 0"/>
<feBlend mode="normal" in2="BackgroundImageFix" result="effect1_dropShadow"/>
<feBlend mode="normal" in="SourceGraphic" in2="effect1_dropShadow" result="shape"/>
</filter>
<linearGradient id="paint0_linear" x1="11" y1="1" x2="11" y2="13" gradientUnits="userSpaceOnUse">
<stop stop-color="white" stop-opacity="0.7"/>
<stop offset="1" stop-opacity="0.3"/>
</linearGradient>
</defs>
</svg>
