<svg width="22" height="18" viewBox="0 0 22 18" fill="none" xmlns="http://www.w3.org/2000/svg">
<g filter="url(#filter0_d)">
<mask id="mask0" style="mask-type:alpha" maskUnits="userSpaceOnUse" x="3" y="1" width="16" height="12">
<rect x="3" y="1" width="16" height="12" fill="white"/>
</mask>
<g mask="url(#mask0)">
<path fill-rule="evenodd" clip-rule="evenodd" d="M3 9H19V13H3V9Z" fill="#55BA07"/>
<path fill-rule="evenodd" clip-rule="evenodd" d="M3 5H19V9H3V5Z" fill="#F7FCFF"/>
<path fill-rule="evenodd" clip-rule="evenodd" d="M3 1H19V5H3V1Z" fill="#3D58DB"/>
<path fill-rule="evenodd" clip-rule="evenodd" d="M10.625 5.12013C10.3637 5.1903 10.2257 5.37091 10.2257 5.69047C10.2257 6.05567 10.405 6.39845 10.625 6.57523V5.12013ZM11.25 6.56545C11.4639 6.38623 11.6359 6.04983 11.6359 5.69141C11.6359 5.38103 11.5 5.20124 11.25 5.12663V6.56545ZM11.2289 4.86613C11.6381 4.95702 11.9343 5.23571 11.9343 5.68849C11.9343 6.0178 11.7776 6.41814 11.5347 6.69286L12.7516 7.88638L13.0518 7.78754L13.5 8.46738C13.5 8.46738 12.367 8.99999 10.9667 8.99999C9.56639 8.99999 8.5 8.46738 8.5 8.46738L8.88158 7.88638L9.18974 7.9874L10.3187 6.71356C10.0652 6.43853 9.9005 6.02617 9.9005 5.68849C9.9005 5.21969 10.218 4.93753 10.6497 4.85719C10.6972 4.7452 10.8082 4.66666 10.9375 4.66666C11.0702 4.66666 11.1836 4.7494 11.2289 4.86613Z" fill="#1D1D1D"/>
</g>
<rect x="3" y="1" width="16" height="12" fill="url(#paint0_linear)" style="mix-blend-mode:overlay"/>
</g>
<defs>
<filter id="filter0_d" x="0" y="0" width="22" height="18" filterUnits="userSpaceOnUse" color-interpolation-filters="sRGB">
<feFlood flood-opacity="0" result="BackgroundImageFix"/>
<feColorMatrix in="SourceAlpha" type="matrix" values="0 0 0 0 0 0 0 0 0 0 0 0 0 0 0 0 0 0 127 0" result="hardAlpha"/>
<feOffset dy="2"/>
<feGaussianBlur stdDeviation="1.5"/>
<feColorMatrix type="matrix" values="0 0 0 0 0 0 0 0 0 0 0 0 0 0 0 0 0 0 0.1 0"/>
<feBlend mode="normal" in2="BackgroundImageFix" result="effect1_dropShadow"/>
<feBlend mode="normal" in="SourceGraphic" in2="effect1_dropShadow" result="shape"/>
</filter>
<linearGradient id="paint0_linear" x1="11" y1="1" x2="11" y2="13" gradientUnits="userSpaceOnUse">
<stop stop-color="white" stop-opacity="0.7"/>
<stop offset="1" stop-opacity="0.3"/>
</linearGradient>
</defs>
</svg>
