<svg width="22" height="18" viewBox="0 0 22 18" fill="none" xmlns="http://www.w3.org/2000/svg">
<g filter="url(#filter0_d)">
<mask id="mask0" style="mask-type:alpha" maskUnits="userSpaceOnUse" x="3" y="1" width="16" height="12">
<rect x="3" y="1" width="16" height="12" fill="white"/>
</mask>
<g mask="url(#mask0)">
<path fill-rule="evenodd" clip-rule="evenodd" d="M3 10H19V13H3V10Z" fill="#55BA07"/>
<path fill-rule="evenodd" clip-rule="evenodd" d="M3 4H19V10H3V4Z" fill="#1D1D1D"/>
<path fill-rule="evenodd" clip-rule="evenodd" d="M3 1H19V4H3V1Z" fill="#E11C1B"/>
<path fill-rule="evenodd" clip-rule="evenodd" d="M10.8987 8.53296C10.0027 8.34776 9.77478 7.81258 9.78438 7.08937C9.78438 6.32411 10.1828 5.61584 10.8896 5.53116C11.5964 5.44648 12.1754 5.71014 12.4788 6.07807C12.225 5.07932 11.3842 4.97008 10.7387 4.97008C9.76678 4.96159 8.74091 5.63422 8.74091 7.1641C8.74091 8.53296 9.64861 9.20972 10.7667 9.23223C12.1646 9.23223 12.3834 8.2669 12.4236 7.93804C12.3423 7.99639 12.267 8.06614 12.1897 8.13772C11.9103 8.39643 11.6051 8.67896 10.8987 8.53296ZM13.1076 6.60694L12.4695 6.85384L13.1315 7.14638L13.1076 7.92089L13.61 7.38626L14.339 7.53634L13.8965 6.94298L14.2824 6.37193L13.6737 6.50041L13.2435 6.01431L13.1076 6.60694Z" fill="white"/>
</g>
<rect x="3" y="1" width="16" height="12" fill="url(#paint0_linear)" style="mix-blend-mode:overlay"/>
</g>
<defs>
<filter id="filter0_d" x="0" y="0" width="22" height="18" filterUnits="userSpaceOnUse" color-interpolation-filters="sRGB">
<feFlood flood-opacity="0" result="BackgroundImageFix"/>
<feColorMatrix in="SourceAlpha" type="matrix" values="0 0 0 0 0 0 0 0 0 0 0 0 0 0 0 0 0 0 127 0" result="hardAlpha"/>
<feOffset dy="2"/>
<feGaussianBlur stdDeviation="1.5"/>
<feColorMatrix type="matrix" values="0 0 0 0 0 0 0 0 0 0 0 0 0 0 0 0 0 0 0.1 0"/>
<feBlend mode="normal" in2="BackgroundImageFix" result="effect1_dropShadow"/>
<feBlend mode="normal" in="SourceGraphic" in2="effect1_dropShadow" result="shape"/>
</filter>
<linearGradient id="paint0_linear" x1="11" y1="1" x2="11" y2="13" gradientUnits="userSpaceOnUse">
<stop stop-color="white" stop-opacity="0.7"/>
<stop offset="1" stop-opacity="0.3"/>
</linearGradient>
</defs>
</svg>
