<svg width="22" height="18" viewBox="0 0 22 18" fill="none" xmlns="http://www.w3.org/2000/svg">
<g filter="url(#filter0_d)">
<mask id="mask0" style="mask-type:alpha" maskUnits="userSpaceOnUse" x="3" y="1" width="16" height="12">
<rect x="3" y="1" width="16" height="12" fill="white"/>
</mask>
<g mask="url(#mask0)">
<path fill-rule="evenodd" clip-rule="evenodd" d="M14 1H19V13H14V1Z" fill="#D9071E"/>
<path fill-rule="evenodd" clip-rule="evenodd" d="M3 1H9V13H3V1Z" fill="#3D58DB"/>
<path fill-rule="evenodd" clip-rule="evenodd" d="M8 1H14V13H8V1Z" fill="#FBCD17"/>
<path fill-rule="evenodd" clip-rule="evenodd" d="M13.8592 10.8071L13.3327 11.0947L11.5874 7.90035L12.114 7.61267L13.8592 10.8071ZM8.25677 10.8839L8.78331 11.1716L10.5286 7.97716L10.0021 7.68948L8.25677 10.8839Z" fill="#FD1900"/>
<path fill-rule="evenodd" clip-rule="evenodd" d="M8.68903 5.69452V8.47018C8.68903 9.08677 8.1581 9.89034 7.89034 10.1893C7.62257 10.4882 7.09076 11.1731 7.09076 11.1731V3.70416C7.09076 2.86638 7.89034 2.57859 7.89034 2.57859C7.89034 2.57859 8.55425 2.70994 8.68903 3.70416V4.67315C8.89452 4.83497 9.5807 5.33126 10.024 5.12176C10.5503 4.87301 10.7321 4.15953 10.7321 4.15953C10.7321 4.15953 10.6829 3.43958 10.4668 3.43958C10.2508 3.43958 10.2335 2.42545 11.0609 2.42545C11.8882 2.42545 11.9846 2.81635 11.9846 3.12797C11.9846 3.29131 11.8537 3.55346 11.7291 3.80292C11.616 4.02936 11.5081 4.24535 11.5081 4.36751C11.5081 4.62425 11.7015 5.12176 11.9846 5.12176C12.1831 5.12176 13.1381 4.75076 13.6908 4.52915V3.70416C13.8255 2.70994 14.4895 2.57859 14.4895 2.57859C14.4895 2.57859 15.289 2.86638 15.289 3.70416V11.1731C15.289 11.1731 14.7572 10.4882 14.4895 10.1893C14.2217 9.89034 13.6908 9.08677 13.6908 8.47018V5.69452H8.68903ZM9.57509 10.9161C10.1159 10.564 10.907 8.98508 10.907 8.98508L11.1696 9.04609C11.1696 9.04609 11.5707 10.0919 12.7498 10.9161C11.4929 11.2515 11.1696 11.9251 11.1696 11.9251C11.1696 11.3862 9.57509 10.9161 9.57509 10.9161ZM9.488 9.91667C9.85251 9.91667 10.148 9.63685 10.148 9.29167C10.148 8.94649 9.85251 8.66667 9.488 8.66667C9.12349 8.66667 8.828 8.94649 8.828 9.29167C8.828 9.63685 9.12349 9.91667 9.488 9.91667ZM13.36 9.29167C13.36 9.63685 13.0645 9.91667 12.7 9.91667C12.3355 9.91667 12.04 9.63685 12.04 9.29167C12.04 8.94649 12.3355 8.66667 12.7 8.66667C13.0645 8.66667 13.36 8.94649 13.36 9.29167Z" fill="#A77B3B"/>
<path d="M15.57 6.20383L16.029 6.4022L14.1592 10.7282L13.7003 10.5298L15.57 6.20383Z" fill="#FDFF00"/>
<path opacity="0.3" fill-rule="evenodd" clip-rule="evenodd" d="M8.52002 4.91666H13.8V8.7361C13.8 8.7361 12.4565 9.14078 11.16 9.80485C10.203 9.09489 8.52002 8.7361 8.52002 8.7361V4.91666Z" fill="#E1E5E8"/>
<mask id="mask1" style="mask-type:alpha" maskUnits="userSpaceOnUse" x="8" y="4" width="6" height="6">
<path fill-rule="evenodd" clip-rule="evenodd" d="M8.52002 4.91666H13.8V8.7361C13.8 8.7361 12.4565 9.14078 11.16 9.80485C10.203 9.09489 8.52002 8.7361 8.52002 8.7361V4.91666Z" fill="white"/>
</mask>
<g mask="url(#mask1)">
<rect x="8.52002" y="7.41666" width="5.28" height="2.5" fill="#3D58DB"/>
<rect x="8.52002" y="4.91666" width="5.28" height="2.5" fill="#FD1900"/>
<path fill-rule="evenodd" clip-rule="evenodd" d="M10.8934 6.04106L10.4932 6.07418L10.724 5.76285L10.478 5.44043L10.8802 5.49222L11.0344 5.13668L11.2059 5.4998L11.606 5.46668L11.3752 5.77801L11.6212 6.10043L11.219 6.04864L11.0648 6.40418L10.8934 6.04106Z" fill="#FDFF00"/>
<path fill-rule="evenodd" clip-rule="evenodd" d="M10.1751 5.33585C10.1751 5.33585 9.1001 5.98985 9.45842 6.45931C9.81673 6.92878 10.2678 6.98888 10.2678 6.98888C10.2678 6.98888 9.16818 8.63853 11.1035 9.58097C13.1755 8.67117 12.0858 6.98888 12.0858 6.98888C12.0858 6.98888 12.7237 6.84777 12.8514 6.34016C12.9791 5.83255 12.0177 5.25034 12.0177 5.25034C12.0177 5.25034 12.6175 6.11974 12.4806 6.34016C12.3436 6.56058 11.6101 6.78499 11.1035 6.78499C10.597 6.78499 9.81477 6.64276 9.68853 6.25759C9.56229 5.87242 10.1751 5.33585 10.1751 5.33585Z" fill="#FDFF00"/>
</g>
<path fill-rule="evenodd" clip-rule="evenodd" d="M5.36835 6.76449C5.36835 6.76449 5.89541 7.3876 6.39169 7.18387C6.88797 6.98014 6.76765 6.24973 6.76765 6.24973L6.39169 6.59079H6.07166V6.76449L5.82171 6.59079V6.76449H5.36835ZM5.72481 7.72202C5.72481 7.72202 6.3672 8.28229 6.8 8.12396C7.23279 7.96564 7.12411 7.20726 7.12411 7.20726L6.74815 7.54832H6.42812V7.72202L6.17817 7.54832V7.72202H5.72481ZM7.45471 8.99346C7.02192 9.15179 6.37953 8.59152 6.37953 8.59152H6.83289V8.41782L7.08284 8.59152V8.41782H7.40287L7.77883 8.07676C7.77883 8.07676 7.88751 8.83514 7.45471 8.99346Z" fill="#048F02"/>
<path fill-rule="evenodd" clip-rule="evenodd" d="M9.98967 2.12424H9.48967V2.42203H9.25433V2.92203H9.48967V3.79435H9.98967V2.92203H10.2758V2.42203H9.98967V2.12424Z" fill="#FDFF00"/>
<path fill-rule="evenodd" clip-rule="evenodd" d="M10.5791 2.69226L9.42102 2.99059L10.5791 3.35653V2.69226Z" fill="#DB4400"/>
</g>
<rect x="3" y="1" width="16" height="12" fill="url(#paint0_linear)" style="mix-blend-mode:overlay"/>
</g>
<defs>
<filter id="filter0_d" x="0" y="0" width="22" height="18" filterUnits="userSpaceOnUse" color-interpolation-filters="sRGB">
<feFlood flood-opacity="0" result="BackgroundImageFix"/>
<feColorMatrix in="SourceAlpha" type="matrix" values="0 0 0 0 0 0 0 0 0 0 0 0 0 0 0 0 0 0 127 0" result="hardAlpha"/>
<feOffset dy="2"/>
<feGaussianBlur stdDeviation="1.5"/>
<feColorMatrix type="matrix" values="0 0 0 0 0 0 0 0 0 0 0 0 0 0 0 0 0 0 0.1 0"/>
<feBlend mode="normal" in2="BackgroundImageFix" result="effect1_dropShadow"/>
<feBlend mode="normal" in="SourceGraphic" in2="effect1_dropShadow" result="shape"/>
</filter>
<linearGradient id="paint0_linear" x1="11" y1="1" x2="11" y2="13" gradientUnits="userSpaceOnUse">
<stop stop-color="white" stop-opacity="0.7"/>
<stop offset="1" stop-opacity="0.3"/>
</linearGradient>
</defs>
</svg>
