<svg width="22" height="18" viewBox="0 0 22 18" fill="none" xmlns="http://www.w3.org/2000/svg">
<g filter="url(#filter0_d)">
<mask id="mask0" style="mask-type:alpha" maskUnits="userSpaceOnUse" x="3" y="1" width="16" height="12">
<rect x="3" y="1" width="16" height="12" fill="white"/>
</mask>
<g mask="url(#mask0)">
<path fill-rule="evenodd" clip-rule="evenodd" d="M3 1H19V13H3V1Z" fill="#E8AA00"/>
<path fill-rule="evenodd" clip-rule="evenodd" d="M5 3H17V11H5V3Z" fill="#C51918"/>
<mask id="mask1" style="mask-type:alpha" maskUnits="userSpaceOnUse" x="5" y="3" width="12" height="8">
<path fill-rule="evenodd" clip-rule="evenodd" d="M5 3H17V11H5V3Z" fill="white"/>
</mask>
<g mask="url(#mask1)">
<path fill-rule="evenodd" clip-rule="evenodd" d="M13.1154 8.87565C13.3193 8.87565 13.4846 8.70625 13.4846 8.49727C13.4846 8.2883 13.3193 8.1189 13.1154 8.1189C12.9115 8.1189 12.7462 8.2883 12.7462 8.49727C12.7462 8.70625 12.9115 8.87565 13.1154 8.87565Z" fill="#1E5E91"/>
<path fill-rule="evenodd" clip-rule="evenodd" d="M8.31378 7.16592C7.34516 6.0402 8.73341 4.08661 8.73341 4.08661C8.73341 4.08661 8.94095 5.25338 9.70913 6.03851C9.70913 6.09426 9.63659 6.17652 9.56315 6.2598C9.51186 6.31796 9.46013 6.37662 9.43236 6.42709C9.36482 6.54985 9.59669 6.61982 9.70913 6.61982C9.7596 6.61982 9.78749 6.69301 9.81265 6.75907C9.84356 6.84019 9.87037 6.91056 9.92987 6.82142C10.0378 6.65969 9.82192 6.30433 9.82192 6.30433L10.1637 5.94383L10.2793 5.7108H10.1637V5.47087L10.0827 5.53738C10.0827 5.53738 9.99385 5.32286 9.82192 5.32286C9.64999 5.32286 9.59669 5.22476 9.59669 5.22476H9.82192C9.9347 5.22476 9.80389 5.07531 9.70913 4.99747C9.66666 4.96257 9.60222 4.9746 9.54405 4.98547C9.47244 4.99883 9.41032 5.01043 9.41032 4.93057C9.41032 4.84303 9.47848 4.83144 9.55723 4.81804C9.6087 4.80928 9.66469 4.79975 9.70913 4.76775C9.78264 4.71482 9.88172 4.73109 9.98897 4.74871C10.0458 4.75804 10.1049 4.76775 10.1637 4.76775H10.4422C10.5427 4.76775 10.2793 4.93057 10.2793 4.93057L10.4422 5.07531L10.6844 5.32286L10.5633 5.39476L10.8132 5.63716C10.8132 5.63716 10.7284 5.77512 10.8132 5.77512C10.8482 5.77512 10.8712 5.80378 10.8862 5.83748C10.9012 5.80378 10.9242 5.77512 10.9592 5.77512C11.044 5.77512 10.9592 5.63716 10.9592 5.63716L11.2091 5.39476L11.088 5.32286L11.3302 5.07531L11.4931 4.93057C11.4931 4.93057 11.2297 4.76775 11.3302 4.76775H11.6087C11.6675 4.76775 11.7266 4.75804 11.7834 4.74871C11.8907 4.73109 11.9898 4.71482 12.0633 4.76775C12.1077 4.79975 12.1637 4.80928 12.2152 4.81804C12.2939 4.83144 12.3621 4.84303 12.3621 4.93057C12.3621 5.01043 12.3 4.99883 12.2284 4.98547C12.1702 4.9746 12.1058 4.96257 12.0633 4.99747C11.9685 5.07531 11.8377 5.22476 11.9505 5.22476H12.1757C12.1757 5.22476 12.1224 5.32286 11.9505 5.32286C11.7786 5.32286 11.6897 5.53738 11.6897 5.53738L11.6087 5.47087V5.7108H11.4931L11.6087 5.94383L11.9505 6.30433C11.9505 6.30433 11.7346 6.65969 11.8425 6.82142C11.902 6.91056 11.9289 6.84019 11.9598 6.75907C11.9849 6.69301 12.0128 6.61982 12.0633 6.61982C12.1757 6.61982 12.4076 6.54985 12.3401 6.42709C12.3123 6.37662 12.2606 6.31796 12.2093 6.2598C12.1358 6.17652 12.0633 6.09426 12.0633 6.03851C12.8315 5.25338 13.039 4.08661 13.039 4.08661C13.039 4.08661 14.4273 6.0402 13.4586 7.16592C12.49 8.29165 11.7786 7.95219 11.7786 7.95219C11.7786 7.95219 12.6366 8.75052 12.7317 8.7507C12.7451 8.75073 12.7151 8.67705 12.6855 8.604C12.6562 8.5319 12.6272 8.46042 12.6402 8.46098C12.6679 8.46217 12.7222 8.5277 12.7766 8.59346C12.8201 8.64588 12.8636 8.69845 12.8939 8.71869C12.9133 8.73172 12.9894 8.70529 13.06 8.68079C13.1196 8.66009 13.1752 8.64077 13.1892 8.64785C13.2487 8.67785 13.2335 8.73856 13.219 8.79637C13.2153 8.81123 13.2116 8.82591 13.2093 8.83981C13.2071 8.85246 13.2833 8.80307 13.3634 8.75111C13.4475 8.69656 13.5359 8.63919 13.5426 8.64785C13.5441 8.64967 13.5456 8.65152 13.5472 8.65344C13.5758 8.68784 13.6218 8.74326 13.2818 9.00531C13.2818 9.05569 13.2836 9.09679 13.2851 9.13019C13.2898 9.23743 13.291 9.2652 13.2183 9.2652C13.186 9.2652 13.1407 9.28124 13.0883 9.29983C12.9538 9.3475 12.7721 9.41187 12.6402 9.2652C12.4569 9.06133 11.3302 8.24079 11.3302 8.24079L11.2091 8.30833C11.2091 8.30833 11.6218 9.44718 11.8425 9.4551C11.9522 9.45904 11.7857 9.56549 11.565 9.7065C11.3417 9.84925 11.0629 10.0274 10.9592 10.1705C10.9283 10.2131 10.9044 10.1482 10.8862 10.007C10.868 10.1482 10.8441 10.2131 10.8132 10.1705C10.7095 10.0274 10.4307 9.84925 10.2074 9.7065C9.98674 9.56549 9.82018 9.45904 9.92987 9.4551C10.1506 9.44718 10.5633 8.30833 10.5633 8.30833L10.4422 8.24079L9.99385 8.75574C9.99385 8.75574 9.3155 9.06133 9.13216 9.2652C9.00027 9.41187 8.81864 9.3475 8.68416 9.29983C8.63172 9.28124 8.58645 9.2652 8.55409 9.2652C8.43874 9.2652 8.40013 9.10381 8.55409 8.90593C8.64442 8.78982 8.7827 8.77429 8.91452 8.75949C9.00735 8.74906 9.09699 8.739 9.16442 8.69441C9.32762 8.58653 9.59669 8.30833 9.59669 8.30833L9.99385 7.95219C9.99385 7.95219 9.2824 8.29165 8.31378 7.16592Z" fill="#F6C540"/>
<path fill-rule="evenodd" clip-rule="evenodd" d="M9.21653 9.51515L8.77897 8.74805C8.77897 8.74805 8.20689 7.429 8.20689 7.26885C8.20689 7.10871 7.97658 6.63446 7.97658 6.77213C7.97658 6.90979 7.95752 8.01367 7.95752 8.01367L8.94182 9.44335V9.61469H9.0718L9.21653 9.51515Z" fill="#F6C540"/>
<path d="M12.7209 8.48246L12.7875 8.26151L13.6005 8.50642L13.5339 8.72738L12.7209 8.48246Z" fill="#F6C540"/>
<path d="M13.1539 8.08017L13.3737 8.15213L13.159 8.84114L12.9391 8.76918L13.1539 8.08017Z" fill="#F6C540"/>
<path fill-rule="evenodd" clip-rule="evenodd" d="M11.0686 3.64625C11.0367 3.63369 11.0028 3.62201 10.9669 3.61121L10.9643 3.62048C10.9327 3.61458 10.9031 3.61121 10.8769 3.61121C10.8675 3.61121 10.8577 3.61164 10.8476 3.61246L10.8472 3.61121C10.8452 3.61181 10.8432 3.61241 10.8412 3.61302C10.7842 3.61847 10.7164 3.63565 10.6474 3.65802C10.2829 3.69928 10.0945 3.8596 10.1154 4.13549C10.1261 4.27718 10.1736 4.37822 10.2531 4.43544V4.51987C10.2531 4.51987 10.669 4.79023 10.8769 4.79023C11.0849 4.79023 11.5008 4.51987 11.5008 4.51987V4.46732C11.6154 4.42152 11.6836 4.30898 11.6967 4.13549C11.7182 3.85147 11.5179 3.68993 11.132 3.65468L11.131 3.66616C11.1101 3.65906 11.0892 3.65237 11.0686 3.64625ZM11.5008 4.30076V3.93344C11.546 3.984 11.5645 4.0479 11.5586 4.12537C11.5525 4.20622 11.5341 4.26408 11.5008 4.30076ZM10.2531 4.11904V4.07806C10.2522 4.09126 10.2522 4.10492 10.2531 4.11904Z" fill="#F6C540"/>
<path fill-rule="evenodd" clip-rule="evenodd" d="M9.97688 6.17974C9.97688 6.17974 10.5457 6.07239 10.8538 6.07239C11.1303 6.07239 11.7307 6.17974 11.7307 6.17974C11.7307 6.85976 11.9221 7.27609 11.7307 7.74055C11.5394 8.20501 11.0717 7.98175 10.86 8.4262C10.5895 8.00462 10.2242 8.23668 9.97688 7.63637C9.72954 7.03606 10.1272 6.75957 9.97688 6.17974Z" fill="#1E5E91"/>
<mask id="mask2" style="mask-type:alpha" maskUnits="userSpaceOnUse" x="9" y="6" width="3" height="3">
<path fill-rule="evenodd" clip-rule="evenodd" d="M9.97688 6.17974C9.97688 6.17974 10.5457 6.07239 10.8538 6.07239C11.1303 6.07239 11.7307 6.17974 11.7307 6.17974C11.7307 6.85976 11.9221 7.27609 11.7307 7.74055C11.5394 8.20501 11.0717 7.98175 10.86 8.4262C10.5895 8.00462 10.2242 8.23668 9.97688 7.63637C9.72954 7.03606 10.1272 6.75957 9.97688 6.17974Z" fill="white"/>
</mask>
<g mask="url(#mask2)">
<rect x="9.97687" y="7.59866" width="1.75385" height="0.851351" fill="#5EAA22"/>
</g>
<path fill-rule="evenodd" clip-rule="evenodd" d="M10.9 7.39999C11.1761 7.39999 11.4 7.17614 11.4 6.89999C11.4 6.62385 11.1761 6.39999 10.9 6.39999C10.6238 6.39999 10.4 6.62385 10.4 6.89999C10.4 7.17614 10.6238 7.39999 10.9 7.39999Z" fill="#F6C540"/>
</g>
</g>
<rect x="3" y="1" width="16" height="12" fill="url(#paint0_linear)" style="mix-blend-mode:overlay"/>
</g>
<defs>
<filter id="filter0_d" x="0" y="0" width="22" height="18" filterUnits="userSpaceOnUse" color-interpolation-filters="sRGB">
<feFlood flood-opacity="0" result="BackgroundImageFix"/>
<feColorMatrix in="SourceAlpha" type="matrix" values="0 0 0 0 0 0 0 0 0 0 0 0 0 0 0 0 0 0 127 0" result="hardAlpha"/>
<feOffset dy="2"/>
<feGaussianBlur stdDeviation="1.5"/>
<feColorMatrix type="matrix" values="0 0 0 0 0 0 0 0 0 0 0 0 0 0 0 0 0 0 0.1 0"/>
<feBlend mode="normal" in2="BackgroundImageFix" result="effect1_dropShadow"/>
<feBlend mode="normal" in="SourceGraphic" in2="effect1_dropShadow" result="shape"/>
</filter>
<linearGradient id="paint0_linear" x1="11" y1="1" x2="11" y2="13" gradientUnits="userSpaceOnUse">
<stop stop-color="white" stop-opacity="0.7"/>
<stop offset="1" stop-opacity="0.3"/>
</linearGradient>
</defs>
</svg>
