<svg width="22" height="18" viewBox="0 0 22 18" fill="none" xmlns="http://www.w3.org/2000/svg">
<g filter="url(#filter0_d)">
<mask id="mask0" style="mask-type:alpha" maskUnits="userSpaceOnUse" x="3" y="1" width="16" height="12">
<rect x="3" y="1" width="16" height="12" fill="white"/>
</mask>
<g mask="url(#mask0)">
<path fill-rule="evenodd" clip-rule="evenodd" d="M3 1V13H19V1H3Z" fill="#1C9975"/>
<mask id="mask1" style="mask-type:alpha" maskUnits="userSpaceOnUse" x="3" y="1" width="16" height="12">
<path fill-rule="evenodd" clip-rule="evenodd" d="M3 1V13H19V1H3Z" fill="white"/>
</mask>
<g mask="url(#mask1)">
<path fill-rule="evenodd" clip-rule="evenodd" d="M11.0108 4.42685L10.1939 4.91999L10.3803 3.95768L9.70001 3.23749L10.6211 3.19855L11.0108 2.29999L11.4005 3.19855H12.32L11.6413 3.95768L11.8457 4.91999L11.0108 4.42685Z" fill="#FECA00"/>
<path fill-rule="evenodd" clip-rule="evenodd" d="M8.69128 4.79223L8.1862 5.09714L8.30141 4.50213L7.8808 4.05682L8.45033 4.03274L8.69128 3.47714L8.93224 4.03274H9.5008L9.08116 4.50213L9.20749 5.09714L8.69128 4.79223Z" fill="#FECA00"/>
<path fill-rule="evenodd" clip-rule="evenodd" d="M13.2905 4.79223L12.7854 5.09714L12.9006 4.50213L12.48 4.05682L13.0495 4.03274L13.2905 3.47714L13.5314 4.03274H14.1L13.6803 4.50213L13.8067 5.09714L13.2905 4.79223Z" fill="#FECA00"/>
<path fill-rule="evenodd" clip-rule="evenodd" d="M7.38324 5.80531L6.97793 6.05L7.07037 5.57252L6.73285 5.21517L7.18988 5.19585L7.38324 4.75L7.5766 5.19585H8.03285L7.6961 5.57252L7.79748 6.05L7.38324 5.80531Z" fill="#FECA00"/>
<path fill-rule="evenodd" clip-rule="evenodd" d="M14.7804 5.80531L14.3751 6.05L14.4675 5.57252L14.13 5.21517L14.587 5.19585L14.7804 4.75L14.9738 5.19585H15.43L15.0933 5.57252L15.1946 6.05L14.7804 5.80531Z" fill="#FECA00"/>
<mask id="mask2" style="mask-type:alpha" maskUnits="userSpaceOnUse" x="7" y="4" width="8" height="8">
<path fill-rule="evenodd" clip-rule="evenodd" d="M11 12C13.2091 12 15 10.2091 15 8C15 5.79086 13.2091 4 11 4C8.79086 4 7 5.79086 7 8C7 10.2091 8.79086 12 11 12Z" fill="white"/>
</mask>
<g mask="url(#mask2)">
<path d="M9.31014 12.6392H7.35779V10.0103L9.30663 10.0103C9.99698 10.0006 10.5014 9.80343 10.838 9.42408L11.0057 9.23505L11.193 9.40479C11.6425 9.81238 12.0915 10.0103 12.5457 10.0103H14.6979V12.6392H12.5457C12.0239 12.6392 11.5201 12.4429 11.0383 12.0585C10.6117 12.4367 10.0324 12.629 9.31014 12.6392Z" fill="#F7FCFF"/>
</g>
<path fill-rule="evenodd" clip-rule="evenodd" d="M11.0173 4.80389C11.0173 4.80389 10.163 5.64789 10.163 6.80618C10.163 7.05406 10.2021 7.28823 10.2636 7.50322C9.98833 6.89315 9.96926 6.23162 10.2068 5.51002L9.88347 5.40356C9.6418 6.13764 9.64076 6.8278 9.88068 7.46742C9.38437 7.16839 8.81336 6.96747 8.22726 6.90268L8.18986 7.24105C8.70207 7.29767 9.202 7.46846 9.64093 7.72128C9.53256 7.67759 9.41893 7.63958 9.30039 7.60932C8.21891 7.3333 7.1579 7.72469 7.1579 7.72469C7.1579 7.72469 7.76994 9.0978 8.95539 9.30028C9.01449 9.31038 9.07292 9.31824 9.13059 9.32406L9.12163 9.32408C8.55643 9.32408 8.03083 9.093 7.53864 8.62352L7.30368 8.86986C7.85651 9.39718 8.46455 9.66451 9.12163 9.66451C9.76426 9.66451 10.3611 9.40882 10.9064 8.90429C10.9939 8.85146 11.0451 8.81366 11.0533 8.80752L11.0747 8.82576C11.0635 8.84507 11.0579 8.85561 11.0579 8.85561C11.0579 8.85561 11.1116 8.88815 11.2086 8.934C11.747 9.35135 12.4207 9.66451 12.9537 9.66451C13.6108 9.66451 14.2189 9.39718 14.7717 8.86986L14.5367 8.62352C14.0445 9.093 13.5189 9.32408 12.9537 9.32408C12.7472 9.32408 12.5449 9.29091 12.3464 9.22415C12.6244 9.23911 12.9305 9.21407 13.2475 9.11718C14.4152 8.76017 14.9019 7.68035 14.9019 7.68035C14.9019 7.68035 14.2806 7.3451 13.4915 7.34133C13.6683 7.29573 13.8528 7.26231 14.0452 7.24105L14.0078 6.90268C13.2677 6.98449 12.6273 7.2343 12.0902 7.65114C12.4043 6.96057 12.4286 6.20846 12.1636 5.40356L11.8402 5.51002C12.0568 6.16774 12.0601 6.77555 11.8506 7.33998C11.8864 7.17308 11.9077 6.99469 11.9077 6.80618C11.9077 5.58511 11.0173 4.80389 11.0173 4.80389ZM11.3932 8.37771L11.3805 8.39596L11.396 8.37754L11.3932 8.37771ZM10.5674 8.29798L10.6009 8.26719C10.6313 8.31774 10.6617 8.36533 10.6913 8.40974C10.6528 8.37351 10.6115 8.33606 10.5674 8.29798Z" fill="#F7FCFF"/>
</g>
</g>
<rect x="3" y="1" width="16" height="12" fill="url(#paint0_linear)" style="mix-blend-mode:overlay"/>
</g>
<defs>
<filter id="filter0_d" x="0" y="0" width="22" height="18" filterUnits="userSpaceOnUse" color-interpolation-filters="sRGB">
<feFlood flood-opacity="0" result="BackgroundImageFix"/>
<feColorMatrix in="SourceAlpha" type="matrix" values="0 0 0 0 0 0 0 0 0 0 0 0 0 0 0 0 0 0 127 0" result="hardAlpha"/>
<feOffset dy="2"/>
<feGaussianBlur stdDeviation="1.5"/>
<feColorMatrix type="matrix" values="0 0 0 0 0 0 0 0 0 0 0 0 0 0 0 0 0 0 0.1 0"/>
<feBlend mode="normal" in2="BackgroundImageFix" result="effect1_dropShadow"/>
<feBlend mode="normal" in="SourceGraphic" in2="effect1_dropShadow" result="shape"/>
</filter>
<linearGradient id="paint0_linear" x1="11" y1="1" x2="11" y2="13" gradientUnits="userSpaceOnUse">
<stop stop-color="white" stop-opacity="0.7"/>
<stop offset="1" stop-opacity="0.3"/>
</linearGradient>
</defs>
</svg>
