<svg width="22" height="18" viewBox="0 0 22 18" fill="none" xmlns="http://www.w3.org/2000/svg">
<g filter="url(#filter0_d)">
<mask id="mask0" style="mask-type:alpha" maskUnits="userSpaceOnUse" x="3" y="1" width="16" height="12">
<rect x="3" y="1" width="16" height="12" fill="white"/>
</mask>
<g mask="url(#mask0)">
<path fill-rule="evenodd" clip-rule="evenodd" d="M3 1H20V13H3V1Z" fill="#2993EC"/>
<path fill-rule="evenodd" clip-rule="evenodd" d="M6.10638 6.79167C6.10638 9.43803 8.29733 11.5833 11 11.5833C13.7027 11.5833 15.8936 9.43803 15.8936 6.79167C15.8936 4.1453 13.7027 2 11 2C8.29733 2 6.10638 4.1453 6.10638 6.79167ZM14.8298 6.79167C14.8298 8.86273 13.1151 10.5417 11 10.5417C8.88487 10.5417 7.17021 8.86273 7.17021 6.79167C7.17021 4.7206 8.88487 3.04167 11 3.04167C13.1151 3.04167 14.8298 4.7206 14.8298 6.79167Z" fill="#F1F9FF"/>
<path fill-rule="evenodd" clip-rule="evenodd" d="M6.53192 6.79166C6.53192 9.2079 8.53235 11.1667 11 11.1667C13.4677 11.1667 15.4681 9.2079 15.4681 6.79166C15.4681 4.37541 13.4677 2.41666 11 2.41666C8.53235 2.41666 6.53192 4.37541 6.53192 6.79166ZM15.2553 6.79166C15.2553 9.09284 13.3502 10.9583 11 10.9583C8.64986 10.9583 6.74469 9.09284 6.74469 6.79166C6.74469 4.49047 8.64986 2.62499 11 2.62499C13.3502 2.62499 15.2553 4.49047 15.2553 6.79166Z" fill="#E31D1C"/>
<path d="M11 11.0917C8.57228 11.0917 6.60692 9.165 6.60692 6.79166H6.45692C6.45692 9.2508 8.49243 11.2417 11 11.2417V11.0917ZM15.3931 6.79166C15.3931 9.165 13.4277 11.0917 11 11.0917V11.2417C13.5076 11.2417 15.5431 9.2508 15.5431 6.79166H15.3931ZM11 2.49166C13.4277 2.49166 15.3931 4.41831 15.3931 6.79166H15.5431C15.5431 4.33251 13.5076 2.34166 11 2.34166V2.49166ZM6.60692 6.79166C6.60692 4.41831 8.57228 2.49166 11 2.49166V2.34166C8.49243 2.34166 6.45692 4.33251 6.45692 6.79166H6.60692ZM11 11.0333C13.3901 11.0333 15.3303 9.13575 15.3303 6.79166H15.1803C15.1803 9.04994 13.3102 10.8833 11 10.8833V11.0333ZM6.66969 6.79166C6.66969 9.13575 8.60993 11.0333 11 11.0333V10.8833C8.68978 10.8833 6.81969 9.04994 6.81969 6.79166H6.66969ZM11 2.54999C8.60993 2.54999 6.66969 4.44757 6.66969 6.79166H6.81969C6.81969 4.53337 8.68978 2.69999 11 2.69999V2.54999ZM15.3303 6.79166C15.3303 4.44757 13.3901 2.54999 11 2.54999V2.69999C13.3102 2.69999 15.1803 4.53337 15.1803 6.79166H15.3303Z" fill="#E31D1C"/>
<path fill-rule="evenodd" clip-rule="evenodd" d="M10.2931 3.875C10.1097 3.875 9.97328 4.0445 10.0125 4.22364L10.2059 5.10751C10.2229 5.18516 10.2704 5.24967 10.3341 5.28959C10.2753 5.3353 10.2346 5.40354 10.2252 5.48242L9.53138 11.3052C9.51865 11.412 9.56645 11.5167 9.65985 11.5701C9.92096 11.7194 10.4871 12 11.0532 12C11.6193 12 12.1855 11.7194 12.4466 11.5701C12.54 11.5167 12.5878 11.412 12.575 11.3052L11.8813 5.48242C11.8719 5.40354 11.8311 5.3353 11.7723 5.28959C11.836 5.24967 11.8835 5.18516 11.9005 5.10751L12.0939 4.22364C12.1331 4.0445 11.9967 3.875 11.8133 3.875H10.2931Z" fill="#A7A7A7"/>
<path d="M6.25964 7.00642C6.28543 6.9239 6.37465 6.87747 6.45892 6.90272C6.5432 6.92797 6.59061 7.01534 6.56482 7.09785C6.5202 7.24063 6.5202 7.4515 6.56943 7.72739C6.58831 7.83322 6.61075 7.91493 6.63836 7.98711C6.64935 8.01586 6.66073 8.04218 6.67592 8.07484C6.66916 8.0603 6.70625 8.13908 6.71527 8.15949C6.76296 8.26744 6.78405 8.36204 6.78405 8.50064C6.78405 8.58693 6.71261 8.65689 6.62448 8.65689C6.53635 8.65689 6.4649 8.58693 6.4649 8.50064C6.4649 8.40593 6.45318 8.35334 6.42235 8.28357C6.41509 8.26713 6.38045 8.19355 6.38549 8.20439C6.36748 8.16569 6.35338 8.13305 6.33948 8.0967C6.30484 8.00614 6.27726 7.90575 6.25504 7.78117C6.19793 7.46109 6.19793 7.20387 6.25964 7.00642Z" fill="#73BE4A"/>
<path fill-rule="evenodd" clip-rule="evenodd" d="M11.1064 9.08957L9.04914 10.4913L9.77491 8.14235L7.77769 6.65971L10.2835 6.60971L11.1064 4.29166L11.9293 6.60971L14.4351 6.65971L12.4379 8.14235L13.1636 10.4913L11.1064 9.08957Z" fill="#F7FCFF"/>
<path d="M15.7797 7.21473C15.7539 7.13221 15.6647 7.08579 15.5804 7.11104C15.4962 7.13629 15.4488 7.22365 15.4745 7.30617C15.5192 7.44894 15.5192 7.65981 15.4699 7.93571C15.4511 8.04153 15.4286 8.12324 15.401 8.19542C15.39 8.22418 15.3786 8.25049 15.3634 8.28316C15.3702 8.26861 15.3331 8.34739 15.3241 8.36781C15.2764 8.47575 15.2553 8.57035 15.2553 8.70895C15.2553 8.79525 15.3268 8.8652 15.4149 8.8652C15.503 8.8652 15.5745 8.79525 15.5745 8.70895C15.5745 8.61424 15.5862 8.56166 15.617 8.49189C15.6243 8.47545 15.6589 8.40186 15.6539 8.41271C15.6719 8.374 15.686 8.34137 15.6999 8.30501C15.7345 8.21445 15.7621 8.11406 15.7843 7.98948C15.8414 7.66941 15.8414 7.41218 15.7797 7.21473Z" fill="#73BE4A"/>
<path d="M11.0304 2.57379C11.0304 2.57379 11.6126 2.83316 11.3612 3.24154" stroke="#73BE4A" stroke-width="0.5" stroke-linecap="round" stroke-linejoin="round"/>
<path d="M11.4559 2.57379C11.4559 2.57379 12.0381 2.83316 11.7867 3.24154" stroke="#73BE4A" stroke-width="0.5" stroke-linecap="round" stroke-linejoin="round"/>
<path d="M7.6299 4.17838C7.67211 4.10531 7.76077 4.08332 7.82792 4.12924C7.89507 4.17516 7.91529 4.27162 7.87308 4.34468C7.7921 4.48485 7.74994 4.67717 7.74994 4.92377C7.74994 5.01007 7.68564 5.08002 7.60632 5.08002C7.52701 5.08002 7.46271 5.01007 7.46271 4.92377C7.46271 4.6224 7.51733 4.37322 7.6299 4.17838Z" fill="#73BE4A"/>
<path d="M7.40424 5.60626C7.40424 5.69255 7.33994 5.76251 7.26062 5.76251C7.1813 5.76251 7.117 5.69255 7.117 5.60626V5.16117C7.117 4.84624 7.1664 4.59823 7.27057 4.41711C7.31264 4.34396 7.40125 4.32176 7.46849 4.36753C7.53573 4.41331 7.55614 4.50972 7.51406 4.58287C7.44263 4.70707 7.40424 4.89984 7.40424 5.16117V5.60626Z" fill="#73BE4A"/>
<path d="M14.7421 5.39795C14.7421 5.48424 14.8064 5.5542 14.8857 5.5542C14.965 5.5542 15.0293 5.48424 15.0293 5.39795V4.95286C15.0293 4.63793 14.9799 4.38991 14.8757 4.2088C14.8337 4.13564 14.745 4.11345 14.6778 4.15922C14.6106 4.20499 14.5902 4.3014 14.6322 4.37456C14.7037 4.49876 14.7421 4.69153 14.7421 4.95286V5.39795Z" fill="#73BE4A"/>
<path d="M15.1676 6.1271C15.1676 6.2134 15.2319 6.28335 15.3112 6.28335C15.3905 6.28335 15.4548 6.2134 15.4548 6.1271V5.68202C15.4548 5.36709 15.4054 5.11907 15.3013 4.93795C15.2592 4.8648 15.1706 4.8426 15.1033 4.88838C15.0361 4.93415 15.0157 5.03056 15.0578 5.10371C15.1292 5.22791 15.1676 5.42068 15.1676 5.68202V6.1271Z" fill="#73BE4A"/>
</g>
<rect x="3" y="1" width="16" height="12" fill="url(#paint0_linear)" style="mix-blend-mode:overlay"/>
</g>
<defs>
<filter id="filter0_d" x="0" y="0" width="22" height="18" filterUnits="userSpaceOnUse" color-interpolation-filters="sRGB">
<feFlood flood-opacity="0" result="BackgroundImageFix"/>
<feColorMatrix in="SourceAlpha" type="matrix" values="0 0 0 0 0 0 0 0 0 0 0 0 0 0 0 0 0 0 127 0" result="hardAlpha"/>
<feOffset dy="2"/>
<feGaussianBlur stdDeviation="1.5"/>
<feColorMatrix type="matrix" values="0 0 0 0 0 0 0 0 0 0 0 0 0 0 0 0 0 0 0.1 0"/>
<feBlend mode="normal" in2="BackgroundImageFix" result="effect1_dropShadow"/>
<feBlend mode="normal" in="SourceGraphic" in2="effect1_dropShadow" result="shape"/>
</filter>
<linearGradient id="paint0_linear" x1="11" y1="1" x2="11" y2="13" gradientUnits="userSpaceOnUse">
<stop stop-color="white" stop-opacity="0.7"/>
<stop offset="1" stop-opacity="0.3"/>
</linearGradient>
</defs>
</svg>
