<svg width="22" height="18" viewBox="0 0 22 18" fill="none" xmlns="http://www.w3.org/2000/svg">
<g filter="url(#filter0_d)">
<rect x="3" y="1" width="16" height="12" fill="#21428E"/>
<path fill-rule="evenodd" clip-rule="evenodd" d="M9.26184 3.56575C9.26184 3.60244 9.28332 3.62544 9.29996 3.64327C9.32796 3.67326 9.34227 3.6886 9.2177 3.72973C9.03011 3.79533 8.5225 3.88278 8.16939 3.87185C8.10187 3.87185 7.98313 3.84817 7.87775 3.82716C7.79369 3.81039 7.71813 3.79533 7.68385 3.79533C7.63766 3.80105 7.74254 3.85466 7.82775 3.89822C7.90536 3.9379 7.96665 3.96922 7.88248 3.94838C7.63971 3.88278 7.49626 3.86092 7.68385 3.98117C7.8273 4.06863 8.14732 4.06863 8.59975 4.01397C8.69241 4.00249 8.86409 3.96994 9.03026 3.93844C9.18071 3.90991 9.32664 3.88224 9.4053 3.87185C9.46864 3.86558 9.49563 3.89533 9.51964 3.92181C9.53747 3.94146 9.55365 3.95931 9.58186 3.95931C10.1777 3.9921 11.2371 3.97024 11.7006 3.90465C12.0868 3.84999 12.2302 3.87185 12.3406 4.00304C12.5613 4.25447 12.3295 4.47312 11.7006 4.6043C10.9281 4.76828 10.6081 4.9104 10.3102 5.22743C9.59289 5.99268 10.4315 6.85631 11.9985 6.97656C12.9144 7.05309 13.5103 7.228 13.3668 7.37012C13.3117 7.42478 12.7047 7.51224 12.0095 7.5669C10.4978 7.68715 9.82462 7.89486 9.25081 8.44146C8.9308 8.74756 8.82045 8.93341 8.82045 9.18484C8.82045 9.33008 8.82045 9.41502 8.77859 9.4647C8.71964 9.53467 8.57763 9.53467 8.2356 9.53467C7.92662 9.53467 7.49626 9.49094 7.29763 9.42535C6.98865 9.34882 6.94451 9.34883 7.05486 9.48001C7.27556 9.74238 7.90455 9.97195 8.42319 9.97195C8.82045 9.97195 9.04115 10.0485 9.39426 10.2999C10.1005 10.8137 10.906 11.0105 12.2413 10.9996C13.9958 10.9886 15 10.5295 15 9.75331C15 9.17391 14.3379 8.83502 12.9585 8.71476C12.2633 8.64917 10.895 8.75849 10.2991 8.93341C10.1888 8.9662 10.3102 8.88968 10.575 8.75849C10.895 8.60544 11.4247 8.49612 12.142 8.43053C13.731 8.29935 14.4483 7.94952 14.4483 7.29359C14.4483 6.65953 13.742 6.29877 12.2302 6.15666C10.7405 6.02547 10.6302 5.7631 11.8882 5.38048C12.782 5.11811 13.2344 4.72455 13.2344 4.18888C13.2344 3.36898 12.782 3.09567 11.2702 3.01915C10.3543 2.97542 10.1336 2.99728 9.73634 3.18313C9.47151 3.30338 9.26184 3.4783 9.26184 3.56575ZM10.5718 3.48C10.5203 3.58 10.3828 3.68 10.2969 3.68C10.1938 3.68 10.1766 3.58 10.2282 3.48C10.2797 3.36 10.4172 3.28 10.5031 3.28C10.6062 3.28 10.6234 3.36 10.5718 3.48ZM11.6636 10.1877C12.3936 10.2507 13.592 10.0617 13.7772 9.84758C13.8426 9.77199 13.3927 9.57678 13.1857 9.4886C12.4445 9.25935 10.9772 9.34369 10.2473 9.67122C9.98581 9.79719 10.8574 10.0995 11.6636 10.1877Z" fill="white"/>
<rect x="3" y="1" width="16" height="12" fill="url(#paint0_linear)" style="mix-blend-mode:overlay"/>
</g>
<defs>
<filter id="filter0_d" x="0" y="0" width="22" height="18" filterUnits="userSpaceOnUse" color-interpolation-filters="sRGB">
<feFlood flood-opacity="0" result="BackgroundImageFix"/>
<feColorMatrix in="SourceAlpha" type="matrix" values="0 0 0 0 0 0 0 0 0 0 0 0 0 0 0 0 0 0 127 0" result="hardAlpha"/>
<feOffset dy="2"/>
<feGaussianBlur stdDeviation="1.5"/>
<feColorMatrix type="matrix" values="0 0 0 0 0 0 0 0 0 0 0 0 0 0 0 0 0 0 0.1 0"/>
<feBlend mode="normal" in2="BackgroundImageFix" result="effect1_dropShadow"/>
<feBlend mode="normal" in="SourceGraphic" in2="effect1_dropShadow" result="shape"/>
</filter>
<linearGradient id="paint0_linear" x1="11" y1="1" x2="11" y2="13" gradientUnits="userSpaceOnUse">
<stop stop-color="white" stop-opacity="0.7"/>
<stop offset="1" stop-opacity="0.3"/>
</linearGradient>
</defs>
</svg>
