<svg width="22" height="18" viewBox="0 0 22 18" fill="none" xmlns="http://www.w3.org/2000/svg">
<g filter="url(#filter0_d)">
<mask id="mask0" style="mask-type:alpha" maskUnits="userSpaceOnUse" x="3" y="1" width="16" height="12">
<rect x="3" y="1" width="16" height="12" fill="white"/>
</mask>
<g mask="url(#mask0)">
<path fill-rule="evenodd" clip-rule="evenodd" d="M3 1V13H19V1H3Z" fill="#E11C1B"/>
<mask id="mask1" style="mask-type:alpha" maskUnits="userSpaceOnUse" x="3" y="1" width="16" height="12">
<path fill-rule="evenodd" clip-rule="evenodd" d="M3 1V13H19V1H3Z" fill="white"/>
</mask>
<g mask="url(#mask1)">
<path fill-rule="evenodd" clip-rule="evenodd" d="M3 1V6H19V1H3Z" fill="#272727"/>
<path fill-rule="evenodd" clip-rule="evenodd" d="M3 9V13H19V9H3Z" fill="#5EAA22"/>
<path fill-rule="evenodd" clip-rule="evenodd" d="M5.00083 7.97294V7.97173L4.99615 7.97253L5.00083 7.97294ZM5.31506 6.0634H5.36655L5.28763 6.05132L5.31506 6.0634ZM6.77882 6.0634C6.805 6.01308 6.83233 5.96331 6.86079 5.9141L5.71606 5.15635L7.06625 5.59556C7.14176 5.48997 7.22273 5.38759 7.3088 5.28872L6.31659 4.34406L7.58101 5.00387C7.67376 4.9153 7.77098 4.83029 7.87236 4.74909L7.06991 3.64057L8.20318 4.50752C8.30861 4.43744 8.41757 4.37114 8.52981 4.30885L7.95182 3.06848L8.90914 4.11933C9.02323 4.06832 9.14005 4.02123 9.25937 3.97827L8.93396 2.64618L9.67523 3.84816C9.79456 3.81626 9.91594 3.78837 10.0391 3.76465L9.98476 2.38725L10.4778 3.69895C10.5996 3.68583 10.7228 3.67673 10.8472 3.67181L11.0705 2.3L11.2938 3.67221C11.4181 3.67735 11.5411 3.68666 11.6627 3.69998L12.1562 2.38725L12.1017 3.76654C12.2245 3.79041 12.3454 3.81843 12.4643 3.85043L13.207 2.64618L12.8808 3.98154C12.9994 4.0245 13.1155 4.07155 13.2289 4.12247L14.1891 3.06848L13.6091 4.31321C13.7204 4.37527 13.8286 4.44128 13.9332 4.51102L15.071 3.64057L14.265 4.75409C14.3653 4.8348 14.4616 4.91925 14.5535 5.0072L15.8243 4.34406L14.8267 5.29385C14.9119 5.39195 14.9919 5.49348 15.0667 5.59816L16.4249 5.15635L15.273 5.91882C15.3005 5.96649 15.3269 6.01469 15.3523 6.0634H14.3698C13.6928 5.1249 12.4553 4.49659 11.0409 4.49659C9.62655 4.49659 8.38909 5.1249 7.71204 6.0634H6.77882ZM8.27984 6.0634C8.92129 5.40181 9.92848 4.97553 11.061 4.97553C12.1935 4.97553 13.2007 5.40181 13.8422 6.0634H8.27984ZM16.7744 6.0634H16.8259L16.8533 6.05132L16.7744 6.0634ZM17.1408 7.97185L17.1448 7.97253L17.1408 7.97288V7.97185Z" fill="#E11C1B"/>
</g>
</g>
<rect x="3" y="1" width="16" height="12" fill="url(#paint0_linear)" style="mix-blend-mode:overlay"/>
</g>
<defs>
<filter id="filter0_d" x="0" y="0" width="22" height="18" filterUnits="userSpaceOnUse" color-interpolation-filters="sRGB">
<feFlood flood-opacity="0" result="BackgroundImageFix"/>
<feColorMatrix in="SourceAlpha" type="matrix" values="0 0 0 0 0 0 0 0 0 0 0 0 0 0 0 0 0 0 127 0" result="hardAlpha"/>
<feOffset dy="2"/>
<feGaussianBlur stdDeviation="1.5"/>
<feColorMatrix type="matrix" values="0 0 0 0 0 0 0 0 0 0 0 0 0 0 0 0 0 0 0.1 0"/>
<feBlend mode="normal" in2="BackgroundImageFix" result="effect1_dropShadow"/>
<feBlend mode="normal" in="SourceGraphic" in2="effect1_dropShadow" result="shape"/>
</filter>
<linearGradient id="paint0_linear" x1="11" y1="1" x2="11" y2="13" gradientUnits="userSpaceOnUse">
<stop stop-color="white" stop-opacity="0.7"/>
<stop offset="1" stop-opacity="0.3"/>
</linearGradient>
</defs>
</svg>
