<svg width="22" height="18" viewBox="0 0 22 18" fill="none" xmlns="http://www.w3.org/2000/svg">
<g filter="url(#filter0_d)">
<mask id="mask0" style="mask-type:alpha" maskUnits="userSpaceOnUse" x="3" y="1" width="16" height="12">
<rect x="3" y="1" width="16" height="12" fill="white"/>
</mask>
<g mask="url(#mask0)">
<path fill-rule="evenodd" clip-rule="evenodd" d="M14 1H19V13H14V1Z" fill="#D9071E"/>
<path fill-rule="evenodd" clip-rule="evenodd" d="M3 1H9V13H3V1Z" fill="#006923"/>
<path fill-rule="evenodd" clip-rule="evenodd" d="M8 1H14V13H8V1Z" fill="white"/>
<path fill-rule="evenodd" clip-rule="evenodd" d="M10.1921 4.9567C10.1921 4.9567 9.84867 5.22302 9.91289 5.50696C9.97711 5.7909 10.6539 5.50696 10.572 5.23183C10.4902 4.9567 10.1921 4.9567 10.1921 4.9567Z" fill="#FCCA3D"/>
<path fill-rule="evenodd" clip-rule="evenodd" d="M9.66767 5.63405C9.41073 5.63405 9.30361 5.41993 9.35675 5.19235C9.38516 5.07073 9.45892 4.91644 9.57929 4.71597L10.008 4.97336C9.96207 5.04979 9.92549 5.11613 9.89836 5.1709C9.98823 5.19744 10.0768 5.23688 10.1489 5.28436C10.3824 5.43809 10.4683 5.71201 10.218 5.91502C10.1696 5.95431 10.091 6.08827 10.0476 6.21692C10.167 6.22357 10.2524 6.24153 10.3311 6.28808C10.552 6.4188 10.5313 6.65721 10.363 6.84131C10.2437 6.9718 10.0844 7.07765 9.93438 7.13187C9.68475 7.22208 9.41767 7.18753 9.41767 6.86795L9.4176 6.86561C9.41711 6.8526 9.41628 6.83035 9.52776 6.82783L9.54947 6.8276L9.54187 6.82755L9.52776 6.82783C9.33754 6.82513 9.29683 6.72443 9.27311 6.54512C9.2671 6.4997 9.26467 6.45647 9.26133 6.36318L9.25911 6.30247L9.25643 6.24335L9.25563 6.2302C9.25187 6.17248 9.24927 6.13251 9.37866 6.13251H9.08862V5.63251H9.37866C9.54316 5.63251 9.63406 5.68806 9.68616 5.80291C9.71516 5.75083 9.7467 5.7018 9.77991 5.65784C9.73808 5.64337 9.69567 5.63405 9.66767 5.63405ZM9.98614 6.51229L9.99392 6.50397C9.99307 6.5049 9.99223 6.50609 9.99142 6.50751L9.98614 6.51229ZM9.76781 6.66053C9.76725 6.66065 9.76697 6.66071 9.76708 6.66067L9.76791 6.66051L9.76781 6.66053ZM9.76776 6.47205L9.76879 6.47954L9.76716 6.46507L9.76776 6.47205Z" fill="#A8AC71"/>
<path fill-rule="evenodd" clip-rule="evenodd" d="M12.6332 7.20145C12.6332 7.20145 13.0957 5.83077 12.3605 5.12126C11.6253 4.41174 10.7758 4.45922 10.7758 4.45922C10.7758 4.45922 10.5311 4.64099 10.7758 4.77962C11.0204 4.91825 10.9179 5.05117 10.9179 5.05117C10.9179 5.05117 10.5082 4.63515 10.2362 4.8782C9.96424 5.12126 10.4901 5.08426 10.4345 5.26727C10.3788 5.45028 10.1429 6.26281 10.4876 6.67303C10.8322 7.08326 10.1617 6.99423 10.2981 6.99423C10.4345 6.99423 10.9179 7.08972 10.9179 6.99423C10.9179 6.89874 11.086 7.36547 11.2299 7.36547C11.3737 7.36547 11.4847 7.20145 11.4847 7.20145C11.4847 7.20145 11.6864 7.36547 11.8092 7.36547C11.9321 7.36547 12.3605 7.25813 12.3605 7.25813L11.5508 6.57587C11.5508 6.57587 11.5996 6.27494 11.4847 6.2098C11.3699 6.14467 12.4056 6.78702 12.4867 6.99423C12.5678 7.20145 12.6332 7.20145 12.6332 7.20145Z" fill="#8F4620"/>
<path d="M8.53323 6.86329C8.53323 6.86329 8.6083 6.62401 8.68868 6.6074C8.75832 6.59301 8.90475 6.72207 8.90475 6.72207C9.16487 8.167 9.79383 8.73136 10.8375 8.73136C11.8934 8.73136 12.5333 8.30252 12.9068 6.96989C12.9068 6.96989 13.1053 6.76714 13.1754 6.78968C13.2516 6.81422 13.3472 7.08246 13.3472 7.08246C13.2516 8.64077 12.1266 9.56448 10.8548 9.56448C9.57066 9.56448 8.5222 8.52947 8.53323 6.86329Z" fill="#9FAB2F"/>
<path fill-rule="evenodd" clip-rule="evenodd" d="M9.66711 7.82822C9.66711 7.82822 11.1693 8.14689 11.7622 8.14689C12.3551 8.14689 11.242 8.63079 10.8076 8.63079C10.3733 8.63079 9.66711 7.82822 9.66711 7.82822Z" fill="#2FC2DC"/>
<rect x="10.3333" y="8.05" width="1" height="0.535714" rx="0.0833333" fill="#F9AA51"/>
<path d="M9.08777 7.06794L9.49708 6.78078C10.0298 7.54009 10.8265 7.78989 11.9407 7.52917L12.0546 8.01602C10.7521 8.3208 9.74526 8.0051 9.08777 7.06794Z" fill="#259485"/>
<path fill-rule="evenodd" clip-rule="evenodd" d="M11.2956 7.17513C11.2956 7.17513 10.6888 7.49456 10.8911 7.49456C11.0934 7.49456 11.885 7.65428 11.731 7.49456C11.5769 7.33484 11.2956 7.17513 11.2956 7.17513Z" fill="#FCCA3D"/>
<path fill-rule="evenodd" clip-rule="evenodd" d="M10.5782 6.79412C10.5782 6.79412 10.4629 6.46109 10.223 6.46109C9.98301 6.46109 10.0507 6.73428 9.93535 6.73428C9.81997 6.73428 10.0429 6.92652 10.1422 6.92652C10.2416 6.92652 10.5782 6.79412 10.5782 6.79412Z" fill="#FCCA3D"/>
</g>
<rect x="3" y="1" width="16" height="12" fill="url(#paint0_linear)" style="mix-blend-mode:overlay"/>
</g>
<defs>
<filter id="filter0_d" x="0" y="0" width="22" height="18" filterUnits="userSpaceOnUse" color-interpolation-filters="sRGB">
<feFlood flood-opacity="0" result="BackgroundImageFix"/>
<feColorMatrix in="SourceAlpha" type="matrix" values="0 0 0 0 0 0 0 0 0 0 0 0 0 0 0 0 0 0 127 0" result="hardAlpha"/>
<feOffset dy="2"/>
<feGaussianBlur stdDeviation="1.5"/>
<feColorMatrix type="matrix" values="0 0 0 0 0 0 0 0 0 0 0 0 0 0 0 0 0 0 0.1 0"/>
<feBlend mode="normal" in2="BackgroundImageFix" result="effect1_dropShadow"/>
<feBlend mode="normal" in="SourceGraphic" in2="effect1_dropShadow" result="shape"/>
</filter>
<linearGradient id="paint0_linear" x1="11" y1="1" x2="11" y2="13" gradientUnits="userSpaceOnUse">
<stop stop-color="white" stop-opacity="0.7"/>
<stop offset="1" stop-opacity="0.3"/>
</linearGradient>
</defs>
</svg>
