<svg width="22" height="18" viewBox="0 0 22 18" fill="none" xmlns="http://www.w3.org/2000/svg">
<g filter="url(#filter0_d)">
<mask id="mask0" style="mask-type:alpha" maskUnits="userSpaceOnUse" x="3" y="1" width="16" height="12">
<rect x="3" y="1" width="16" height="12" fill="white"/>
</mask>
<g mask="url(#mask0)">
<path fill-rule="evenodd" clip-rule="evenodd" d="M14 1H19V13H14V1Z" fill="#409100"/>
<path fill-rule="evenodd" clip-rule="evenodd" d="M3 1H9V13H3V1Z" fill="#409100"/>
<path fill-rule="evenodd" clip-rule="evenodd" d="M8 1H14V13H8V1Z" fill="white"/>
<path fill-rule="evenodd" clip-rule="evenodd" d="M9.34769 10.3852C8.56987 10.5118 8.32461 10.1321 8.32461 10.1321L8.42257 10.0517C8.48836 9.99764 8.70997 10.0162 8.92518 10.0342C9.03042 10.043 9.13414 10.0517 9.21736 10.0517C9.33876 10.0517 9.47846 10.0334 9.62401 10.0143C9.78226 9.99353 9.94742 9.97188 10.1035 9.97188C10.403 9.97188 9.21736 9.58016 8.96397 9.82041C8.71058 10.0607 8 9.70907 8 9.50859C8 9.37179 8.2616 9.42167 8.50021 9.46717C8.6113 9.48836 8.71742 9.50859 8.78983 9.50859C9.01776 9.50859 8.5619 9.06395 8.32461 9.06395C8.08733 9.06395 8.5619 8.96067 8.78983 8.96067C8.91962 8.96067 9.04022 8.99416 9.14408 9.023C9.22261 9.0448 9.29157 9.06395 9.34769 9.06395C9.47801 9.06395 8.69325 8.72664 8.5619 8.72664H9.21736C9.44232 8.72664 9.49695 8.75835 9.54871 8.78839C9.59533 8.81545 9.63963 8.84116 9.8039 8.84116C10.1506 8.84116 9.96077 8.65152 9.96077 8.65152C9.96077 8.65152 8.78983 8.52996 8.5619 8.36205C8.40778 8.24851 8.82137 8.28852 9.21229 8.32633L9.2123 8.32633C9.3995 8.34444 9.5815 8.36205 9.69347 8.36205C10.0392 8.36205 8.96397 8.11522 8.78983 8.11522H9.58226C9.75573 8.11522 9.94618 8.171 10.146 8.22953L10.146 8.22953C10.3665 8.29412 10.5984 8.36205 10.8315 8.36205C11.0773 8.36205 10.5973 8.21544 10.0701 8.0544L10.07 8.05439C9.64397 7.92425 9.18701 7.78468 9.05718 7.70541C8.92284 7.62339 9.02503 7.65516 9.21115 7.71301C9.42751 7.78026 9.75729 7.88277 9.96077 7.88277C10.3393 7.88277 9.4572 7.51145 9.21736 7.51145C8.97752 7.51145 8.7479 7.4035 8.96397 7.30372C9.09663 7.24246 9.44216 7.33473 9.7431 7.4151C9.9323 7.46563 10.1039 7.51145 10.1939 7.51145C10.3029 7.51145 10.3836 7.55393 10.4694 7.59913C10.567 7.65051 10.6713 7.70541 10.8315 7.70541C11.1328 7.70541 10.1939 7.30372 9.8039 7.30372C9.41395 7.30372 9.34769 7.11454 9.58226 7.11454C9.81684 7.11454 9.05718 6.79224 9.05718 6.79224C9.05718 6.79224 8.94705 6.56365 9.21736 6.56365H9.58226C9.70732 6.56365 9.4572 6.1672 9.21736 6.1672C8.97752 6.1672 9.18668 6.04743 9.58226 6.04743C9.82281 6.04743 9.96353 6.13045 10.1329 6.23035C10.242 6.29473 10.363 6.36613 10.5303 6.42682C10.9571 6.58168 10.6351 6.1672 10.5303 6.1672C10.4254 6.1672 9.34769 5.82938 9.34769 5.82938C9.34769 5.82938 9.4572 5.70493 9.34769 5.53548C9.26504 5.40761 9.60898 5.47273 9.81842 5.51239C9.88651 5.52528 9.94039 5.53548 9.96077 5.53548C10.0103 5.53548 10.1527 5.57087 10.3276 5.61432L10.3276 5.61433C10.4456 5.64365 10.5784 5.67665 10.7074 5.70493C11.0276 5.77512 9.61964 5.1879 9.4572 5.1879C9.29477 5.1879 9.8039 5.09141 10.1035 5.09141C10.2507 5.09141 10.3218 5.11473 10.394 5.13845C10.4687 5.16296 10.5446 5.1879 10.7074 5.1879C11.0276 5.1879 10.1035 4.84468 9.8039 4.84468C9.50434 4.84468 9.68145 4.54914 9.8039 4.54914C9.85158 4.54914 9.97223 4.565 10.1196 4.58437L10.1196 4.58437L10.1196 4.58437H10.1196L10.1196 4.58437L10.1196 4.58437L10.1196 4.58437C10.3508 4.61475 10.6476 4.65375 10.8315 4.65375C10.9716 4.65375 10.8436 4.61451 10.6574 4.55743L10.6574 4.55743L10.6574 4.55743C10.4432 4.49173 10.1518 4.4024 10.1035 4.32209C10.0501 4.23346 10.1587 4.24952 10.3481 4.27752L10.3482 4.27753C10.3824 4.28259 10.4193 4.28804 10.4583 4.29333C10.5874 4.36101 10.6953 4.40472 10.7111 4.35311C10.7157 4.33826 10.7258 4.32765 10.7387 4.32001C10.7692 4.32135 10.8002 4.32209 10.8315 4.32209C11.0101 4.32209 10.9276 4.29488 10.7557 4.26232L10.7403 4.25762C10.4796 4.17789 9.91526 4.00746 10.1263 4.11263C10.1677 4.13323 10.2142 4.15865 10.2624 4.18549C10.1201 4.16664 10.0005 4.15357 9.96077 4.15357C9.81807 4.15357 9.67496 4.04331 9.96077 4.04331H10.5303C10.3532 4.04331 10.1035 4.04331 10.1035 3.90417C10.1035 3.80947 10.3012 3.84368 10.4833 3.87519C10.5688 3.88998 10.6508 3.90417 10.7074 3.90417C10.8845 3.90417 10.9286 3.90417 10.8315 3.8214C10.7394 3.7428 10.4216 3.74319 10.2243 3.74343L10.1939 3.74345C10.0005 3.74345 10.6038 3.64244 10.8315 3.64244C10.8698 3.64244 10.8867 3.64244 10.8868 3.64172C10.8868 3.64115 10.8763 3.64012 10.8574 3.63829C10.7583 3.62866 10.429 3.59664 10.1939 3.49025C9.98348 3.39508 10.1678 3.41894 10.4091 3.45018C10.5536 3.46889 10.7187 3.49025 10.8315 3.49025C11.1328 3.49025 10.7074 3.28766 10.3872 3.28766C10.1302 3.28766 10.2526 3.21745 10.4115 3.12635L10.4115 3.12635C10.4506 3.10395 10.4919 3.08029 10.5303 3.05609C10.6458 2.98326 10.7304 3.10751 10.78 3.18041C10.8139 3.23022 10.8315 3.25606 10.8315 3.17869C10.8315 3.10316 10.812 3.05524 10.7962 3.03005C10.8047 3.03715 10.8162 3.04588 10.8315 3.05609C10.9557 3.13892 10.8315 2.83881 10.8315 2.83881C10.8315 2.83881 10.7074 2.75593 10.8315 2.75593C10.9557 2.75593 10.7916 2.61346 10.7074 2.61346C10.6232 2.61346 10.9286 2.47714 10.9286 2.47714L10.9959 1.89999C10.9959 1.89999 11.1623 2.52888 11.1623 2.61346V3.05609C11.1623 3.16147 11.0878 3.23499 11.038 3.28419C10.9755 3.34588 10.9517 3.36931 11.1623 3.36931C11.5408 3.36931 11.5247 3.49025 11.2943 3.49025C11.0639 3.49025 11.3605 3.64244 11.7741 3.64244C12.1878 3.64244 11.4272 3.8214 11.1623 3.8214C10.8974 3.8214 11.4272 3.90417 11.7741 3.90417C12.0084 3.90417 11.7681 3.98514 11.5464 4.05984C11.4398 4.09576 11.3375 4.13024 11.2943 4.15357C11.2255 4.19073 11.3951 4.18944 11.5747 4.17954C11.4803 4.20736 11.3865 4.23586 11.3154 4.25762C11.2291 4.284 11.1999 4.29292 11.2005 4.29651C11.2009 4.29834 11.209 4.29878 11.2212 4.29945C11.2575 4.30142 11.33 4.30536 11.3446 4.35311C11.3664 4.42436 11.5637 4.31394 11.7502 4.2096C11.78 4.19289 11.8096 4.17633 11.8382 4.1607C11.8872 4.15656 11.9187 4.15357 11.9187 4.15357C11.9187 4.15357 12.0902 4.35138 12.0902 4.47218C12.0902 4.54263 11.8646 4.56339 11.6241 4.58553L11.5999 4.58777C11.6119 4.57189 11.5608 4.5802 11.4856 4.59878C11.3609 4.61161 11.2431 4.62751 11.1623 4.65375C11.0851 4.67882 11.0982 4.68928 11.1609 4.69153L11.1438 4.69673C11.0848 4.71479 11.0645 4.72099 11.0649 4.72455C11.0652 4.72641 11.0711 4.72755 11.08 4.72929H11.08C11.1062 4.73435 11.1584 4.74447 11.173 4.79222C11.1948 4.86347 11.3266 4.7731 11.4511 4.6877L11.4629 4.67963L11.5814 4.67174L11.5814 4.67174C11.7169 4.66257 11.8473 4.65375 11.9187 4.65375C12.142 4.65375 11.6954 4.76139 11.5247 4.76139C11.452 4.76139 11.5436 4.77785 11.6832 4.80295C11.8717 4.83683 12.1479 4.88648 12.2259 4.93264C12.3192 4.98782 12.0454 4.96722 11.8017 4.9489L11.8017 4.9489C11.6905 4.94053 11.5856 4.93264 11.5247 4.93264C11.3304 4.93264 11.2943 5.09141 11.4272 5.09141H11.9187C12.1046 5.09141 12.2981 5.37579 12.2259 5.37579C12.2041 5.37579 12.1572 5.39045 12.0919 5.41088C11.9416 5.45789 11.6936 5.53548 11.4272 5.53548C11.045 5.53548 11.9187 5.53589 12.0902 5.53548C12.2616 5.53507 12.7507 5.53589 12.7507 5.70493C12.7507 5.81009 12.6581 5.83319 12.5368 5.86346C12.4631 5.88185 12.3787 5.90288 12.2981 5.94657C12.0849 6.06218 12.9359 6.1672 12.9359 6.1672C12.9359 6.1672 12.5991 6.27196 12.4352 6.27196C12.2712 6.27196 12.5114 6.42682 12.9359 6.42682C13.2643 6.42682 13.1679 6.60528 13.1074 6.71721L13.1074 6.71721C13.0898 6.74996 13.0751 6.77701 13.0751 6.79224C13.0751 6.82167 13.013 6.84707 12.923 6.88383C12.8075 6.93108 12.646 6.99709 12.5114 7.11454C12.3566 7.24967 12.5447 7.20994 12.7572 7.16506L12.7572 7.16506C12.8732 7.14057 12.9964 7.11454 13.0751 7.11454C13.2983 7.11454 13.3933 7.12384 13.3207 7.23205C13.248 7.34025 12.5991 7.51145 12.4352 7.51145H13.3207C13.5662 7.51145 13.2519 7.70541 12.9359 7.70541C12.724 7.70541 12.6054 7.78517 12.5273 7.83772C12.4889 7.86353 12.4603 7.88277 12.4352 7.88277H13.0751C13.1077 7.88277 13.1436 7.83066 13.1764 7.7829C13.2053 7.7409 13.2319 7.70227 13.2519 7.70541C13.5414 7.75084 13.4115 8.11522 13.2519 8.11522C13.0687 8.11522 12.5114 8.23807 12.5991 8.36205C12.6415 8.42205 12.7078 8.39493 12.8153 8.35097C12.9299 8.3041 13.0913 8.23807 13.3207 8.23807C13.765 8.23807 13.3634 8.36205 13.2519 8.36205C13.1404 8.36205 12.6686 8.45211 12.5114 8.52996C12.4064 8.58192 12.7716 8.5645 13.1348 8.54718C13.3157 8.53856 13.4961 8.52996 13.6177 8.52996C13.9834 8.52996 12.7507 8.84116 12.2981 8.84116C11.8456 8.84116 12.5991 8.96067 12.7507 8.96067C12.8088 8.96067 12.9216 8.97587 13.0607 8.9946L13.0608 8.9946H13.0608C13.2843 9.02471 13.5756 9.06395 13.8169 9.06395C14.2083 9.06395 13.4255 9.32182 13.0751 9.32182L12.9951 9.3216C12.6827 9.32032 12.4479 9.31936 12.5991 9.50859C12.6832 9.61381 12.963 9.58516 13.2551 9.55526C13.5323 9.52688 13.8206 9.49737 13.9629 9.58016C14.2186 9.7289 13.0873 9.71605 12.5992 9.71051H12.5992H12.5992C12.5294 9.70972 12.4727 9.70907 12.4352 9.70907C12.135 9.70907 12.7353 9.82041 13.2519 9.82041L13.3171 9.82039C13.7787 9.82009 13.8881 9.82002 13.8881 9.97188C13.8881 10.1053 12.8825 10.0708 12.4629 10.0564C12.3832 10.0537 12.3247 10.0517 12.2981 10.0517C12.2177 10.0517 12.1712 10.1003 12.123 10.1505C12.0713 10.2044 12.0178 10.2602 11.9187 10.2602C11.8372 10.2602 11.7989 10.208 11.7639 10.1605C11.7169 10.0964 11.676 10.0406 11.5437 10.1321C11.3133 10.2916 11.7741 11.9 11.7741 11.9H10.5303V10.3852C10.5303 10.3852 10.1255 10.2587 9.34769 10.3852ZM10.7767 3.00823C10.775 3.00859 10.7798 3.01622 10.7962 3.03005C10.7866 3.01478 10.7784 3.00786 10.7767 3.00823ZM10.3439 9.01182C10.1474 8.93783 10.6454 8.93403 10.8758 8.93403C10.9501 8.93403 10.9765 8.93403 10.9781 8.9404C10.979 8.94391 10.9724 8.94936 10.9622 8.95779C10.9334 8.98156 10.8758 9.02908 10.8758 9.12414C10.8758 9.26599 10.6891 9.1748 10.5126 9.08863L10.5126 9.08863L10.5126 9.08863L10.5126 9.08862C10.4526 9.05932 10.3938 9.0306 10.3439 9.01182ZM10.7511 8.43282C10.5207 8.43282 10.0227 8.43662 10.2192 8.51061C10.2691 8.52938 10.3279 8.55811 10.3879 8.58741L10.3879 8.58742L10.3879 8.58742L10.388 8.58742C10.5644 8.67359 10.7511 8.76478 10.7511 8.62292C10.7511 8.52787 10.8087 8.48034 10.8375 8.45658C10.8477 8.44814 10.8543 8.4427 10.8534 8.43919C10.8518 8.43282 10.8254 8.43282 10.7511 8.43282ZM10.3357 8.09776C10.1752 8.0589 10.5818 8.05691 10.7699 8.05691C10.8317 8.05691 10.8529 8.05691 10.8535 8.06044C10.8538 8.06229 10.8485 8.06511 10.8404 8.06939C10.8169 8.08187 10.7699 8.10683 10.7699 8.15676C10.7699 8.23127 10.6175 8.18337 10.4734 8.13811C10.4244 8.12272 10.3764 8.10763 10.3357 8.09776ZM10.7403 6.51308C10.4796 6.43335 9.91526 6.26292 10.1263 6.36809C10.1799 6.39479 10.2421 6.42957 10.3055 6.46506C10.492 6.5694 10.6893 6.67982 10.7111 6.60857C10.7257 6.56082 10.7982 6.55688 10.8345 6.55491C10.8467 6.55424 10.8548 6.5538 10.8551 6.55197C10.8558 6.54838 10.8266 6.53946 10.7403 6.51308ZM10.1263 5.86688C9.91526 5.76171 10.4796 5.93214 10.7403 6.01186C10.8266 6.03825 10.8558 6.04717 10.8551 6.05076C10.8548 6.05259 10.8467 6.05303 10.8345 6.0537C10.7982 6.05567 10.7257 6.05961 10.7111 6.10735C10.6893 6.17861 10.492 6.06819 10.3055 5.96385L10.3055 5.96385C10.2421 5.92836 10.1799 5.89357 10.1263 5.86688ZM10.7403 5.38535C10.4796 5.30562 9.91526 5.13519 10.1263 5.24036C10.1799 5.26706 10.2421 5.30184 10.3055 5.33733C10.492 5.44167 10.6893 5.55209 10.7111 5.48084C10.7257 5.43309 10.7982 5.42915 10.8345 5.42718C10.8467 5.42651 10.8548 5.42607 10.8551 5.42424C10.8558 5.42065 10.8266 5.41173 10.7403 5.38535ZM11.3046 8.80873C11.535 8.80873 12.033 8.81253 11.8365 8.88652C11.7866 8.90529 11.7278 8.93402 11.6678 8.96332L11.6678 8.96333L11.6677 8.96333C11.4913 9.0495 11.3046 9.14069 11.3046 8.99883C11.3046 8.90378 11.247 8.85625 11.2182 8.83249C11.208 8.82405 11.2014 8.81861 11.2023 8.8151C11.2039 8.80873 11.2303 8.80873 11.3046 8.80873ZM11.8365 8.51061C12.033 8.43662 11.535 8.43282 11.3046 8.43282C11.2303 8.43282 11.2039 8.43282 11.2023 8.43919C11.2014 8.4427 11.208 8.44814 11.2182 8.45658C11.247 8.48034 11.3046 8.52787 11.3046 8.62292C11.3046 8.76478 11.4913 8.67359 11.6677 8.58742L11.6677 8.58742L11.6678 8.58742L11.6678 8.58741C11.7278 8.55811 11.7866 8.52938 11.8365 8.51061ZM12.1447 7.64385L12.1447 7.64385C12.1653 7.6391 12.1659 7.63894 12.1392 7.64542C12.0862 7.65825 11.9752 7.7019 11.8503 7.75103L11.8503 7.75103L11.8503 7.75103C11.5968 7.85075 11.2858 7.97304 11.2858 7.90615C11.2858 7.85623 11.2388 7.83126 11.2153 7.81878C11.2072 7.8145 11.2019 7.81169 11.2022 7.80984C11.2028 7.8063 11.224 7.8063 11.2858 7.8063C11.4425 7.8063 12.042 7.66762 12.1447 7.64385ZM11.9293 6.11749C12.1404 6.01231 11.5761 6.18275 11.3154 6.26247C11.2291 6.28885 11.1999 6.29777 11.2005 6.30136C11.2009 6.3032 11.209 6.30364 11.2212 6.3043C11.2575 6.30627 11.33 6.31022 11.3446 6.35796C11.3664 6.42921 11.5637 6.31879 11.7502 6.21446C11.8136 6.17897 11.8758 6.14418 11.9293 6.11749ZM11.3154 6.76368C11.5761 6.68396 12.1404 6.51353 11.9293 6.6187C11.8758 6.64539 11.8136 6.68018 11.7502 6.71567C11.5637 6.82001 11.3664 6.93043 11.3446 6.85917C11.33 6.81143 11.2575 6.80749 11.2212 6.80552C11.209 6.80485 11.2009 6.80441 11.2005 6.80258C11.1999 6.79899 11.2291 6.79007 11.3154 6.76368ZM11.9293 5.61627C12.1404 5.5111 11.5761 5.68153 11.3154 5.76126C11.2291 5.78764 11.1999 5.79656 11.2005 5.80015C11.2009 5.80198 11.209 5.80242 11.2212 5.80309C11.2575 5.80506 11.33 5.809 11.3446 5.85675C11.3664 5.928 11.5637 5.81758 11.7502 5.71324C11.8136 5.67775 11.8758 5.64297 11.9293 5.61627ZM11.1438 5.32325C11.3237 5.26826 11.7131 5.15128 11.5711 5.23536C11.535 5.2567 11.4935 5.28517 11.4511 5.31422C11.3266 5.39962 11.1948 5.48999 11.173 5.41874C11.1584 5.37099 11.1062 5.36087 11.08 5.35581H11.08C11.0711 5.35407 11.0652 5.35293 11.0649 5.35107C11.0645 5.34751 11.0848 5.34131 11.1438 5.32325ZM11.2586 7.23022C11.052 7.23022 11.2586 7.06699 11.2586 7.06699H11.3649C11.4015 7.06699 11.4341 7.05195 11.4769 7.03221C11.5588 6.99443 11.6781 6.93941 11.9336 6.93941C12.3228 6.93941 11.4652 7.23022 11.2586 7.23022Z" fill="#409100"/>
</g>
<rect x="3" y="1" width="16" height="12" fill="url(#paint0_linear)" style="mix-blend-mode:overlay"/>
</g>
<defs>
<filter id="filter0_d" x="0" y="0" width="22" height="18" filterUnits="userSpaceOnUse" color-interpolation-filters="sRGB">
<feFlood flood-opacity="0" result="BackgroundImageFix"/>
<feColorMatrix in="SourceAlpha" type="matrix" values="0 0 0 0 0 0 0 0 0 0 0 0 0 0 0 0 0 0 127 0" result="hardAlpha"/>
<feOffset dy="2"/>
<feGaussianBlur stdDeviation="1.5"/>
<feColorMatrix type="matrix" values="0 0 0 0 0 0 0 0 0 0 0 0 0 0 0 0 0 0 0.1 0"/>
<feBlend mode="normal" in2="BackgroundImageFix" result="effect1_dropShadow"/>
<feBlend mode="normal" in="SourceGraphic" in2="effect1_dropShadow" result="shape"/>
</filter>
<linearGradient id="paint0_linear" x1="11" y1="1" x2="11" y2="13" gradientUnits="userSpaceOnUse">
<stop stop-color="white" stop-opacity="0.7"/>
<stop offset="1" stop-opacity="0.3"/>
</linearGradient>
</defs>
</svg>
