<svg width="22" height="18" viewBox="0 0 22 18" fill="none" xmlns="http://www.w3.org/2000/svg">
<g filter="url(#filter0_d)">
<mask id="mask0" style="mask-type:alpha" maskUnits="userSpaceOnUse" x="3" y="1" width="16" height="12">
<rect x="3" y="1" width="16" height="12" fill="white"/>
</mask>
<g mask="url(#mask0)">
<path fill-rule="evenodd" clip-rule="evenodd" d="M3 1V13H19V1H3Z" fill="#2E42A5"/>
<mask id="mask1" style="mask-type:alpha" maskUnits="userSpaceOnUse" x="3" y="1" width="16" height="12">
<path fill-rule="evenodd" clip-rule="evenodd" d="M3 1V13H19V1H3Z" fill="white"/>
</mask>
<g mask="url(#mask1)">
<path fill-rule="evenodd" clip-rule="evenodd" d="M3 9V13H19V9H3Z" fill="#FECA00"/>
<mask id="mask2" style="mask-type:alpha" maskUnits="userSpaceOnUse" x="3" y="1" width="16" height="8">
<rect x="3" y="1" width="16" height="8" fill="white"/>
</mask>
<g mask="url(#mask2)">
<path d="M1.8689 8.56469L5.04026 9.29834L11.8008 5.56288L12.5162 5.14457L18.938 1.78674L20.4593 0.726224L16.9795 0.405294L11.3687 3.5703L7.31397 5.56288L1.8689 8.56469Z" fill="white"/>
<path d="M2.14752 9.00942L3.85499 9.56949L19.8245 0.59298H17.427L2.14752 9.00942Z" fill="#F50100"/>
<path d="M20.1854 8.36539L20.3113 9.1204L16.9597 9.29834L11.5566 6.13367L11.0472 6.30771L0.959772 1.20532L5.12469 0.403655L10.6927 3.47959L15.0484 5.58422L20.1854 8.36539Z" fill="white"/>
<path d="M20.1969 8.81853L18.4894 9.3786L11.6895 5.53529L9.67341 5.10589L1.37053 0.731148H3.76802L12.0662 5.00205L14.2704 5.51695L20.1969 8.81853Z" fill="#F50100"/>
<path d="M9.5945 0.375V-0.25H8.9695V0.375H9.5945ZM9.5945 3.375V4H10.2195V3.375H9.5945ZM2.375 3.375V2.75H1.75V3.375H2.375ZM2.375 6.625H1.75V7.25H2.375V6.625ZM9.5945 6.625H10.2195V6H9.5945V6.625ZM9.5945 10.625H8.9695V11.25H9.5945V10.625ZM12.4388 10.625V11.25H13.0638V10.625H12.4388ZM12.4388 6.625V6H11.8138V6.625H12.4388ZM19.625 6.625V7.25H20.25V6.625H19.625ZM19.625 3.375H20.25V2.75H19.625V3.375ZM12.4388 3.375H11.8138V4H12.4388V3.375ZM12.4388 0.375H13.0638V-0.25H12.4388V0.375ZM11.1888 3.375V4H11.8138V3.375H11.1888ZM11.1888 1.625H11.8138V1H11.1888V1.625ZM10.8445 1.625V1H10.2195V1.625H10.8445ZM10.8445 3.375H10.2195V4H10.8445V3.375ZM11.1888 4.625H11.8138V4H11.1888V4.625ZM10.8445 4.625V4H10.2195V4.625H10.8445ZM11.1888 5.375V6H11.8138V5.375H11.1888ZM10.8445 5.375H10.2195V6H10.8445V5.375ZM9.5945 4.625H10.2195V4H9.5945V4.625ZM3.625 4.625V4H3V4.625H3.625ZM3.625 5.375H3V6H3.625V5.375ZM9.5945 5.375V6H10.2195V5.375H9.5945ZM10.8445 6.625V6H10.2195V6.625H10.8445ZM10.8445 9.375H10.2195V10H10.8445V9.375ZM11.1888 9.375V10H11.8138V9.375H11.1888ZM11.1888 6.625H11.8138V6H11.1888V6.625ZM12.4388 4.625V4H11.8138V4.625H12.4388ZM12.4388 5.375H11.8138V6H12.4388V5.375ZM18.375 4.625H19V4H18.375V4.625ZM18.375 5.375V6H19V5.375H18.375ZM9.5945 1H10.2195V-0.25H9.5945V1ZM10.2195 1V0.375H8.9695V1H10.2195ZM10.2195 3.375V1H8.9695V3.375H10.2195ZM3 4H9.5945V2.75H3V4ZM2.375 4H3V2.75H2.375V4ZM3 4V3.375H1.75V4H3ZM3 6V4H1.75V6H3ZM3 6.625V6H1.75V6.625H3ZM3 6H2.375V7.25H3V6ZM9.5945 6H3V7.25H9.5945V6ZM10.2195 10V6.625H8.9695V10H10.2195ZM10.2195 10.625V10H8.9695V10.625H10.2195ZM10.2195 10H9.5945V11.25H10.2195V10ZM11.8138 10H10.2195V11.25H11.8138V10ZM12.4388 10H11.8138V11.25H12.4388V10ZM11.8138 10V10.625H13.0638V10H11.8138ZM11.8138 6.625V10H13.0638V6.625H11.8138ZM19 6H12.4388V7.25H19V6ZM19.625 6H19V7.25H19.625V6ZM19 6V6.625H20.25V6H19ZM19 4V6H20.25V4H19ZM19 3.375V4H20.25V3.375H19ZM19 4H19.625V2.75H19V4ZM12.4388 4H19V2.75H12.4388V4ZM11.8138 1V3.375H13.0638V1H11.8138ZM11.8138 0.375V1H13.0638V0.375H11.8138ZM11.8138 1H12.4388V-0.25H11.8138V1ZM10.2195 1H11.8138V-0.25H10.2195V1ZM11.8138 3.375V1.625H10.5638V3.375H11.8138ZM11.1888 1H10.8445V2.25H11.1888V1ZM10.2195 1.625V3.375H11.4695V1.625H10.2195ZM10.8445 4H11.1888V2.75H10.8445V4ZM11.1888 4H10.8445V5.25H11.1888V4ZM11.8138 5.375V4.625H10.5638V5.375H11.8138ZM10.8445 6H11.1888V4.75H10.8445V6ZM10.2195 4.625V5.375H11.4695V4.625H10.2195ZM9.5945 4H3.625V5.25H9.5945V4ZM3 4.625V5.375H4.25V4.625H3ZM3.625 6H9.5945V4.75H3.625V6ZM10.2195 5.375V4.625H8.9695V5.375H10.2195ZM10.2195 6.625V9.375H11.4695V6.625H10.2195ZM10.8445 10H11.1888V8.75H10.8445V10ZM11.8138 9.375V6.625H10.5638V9.375H11.8138ZM11.1888 6H10.8445V7.25H11.1888V6ZM11.8138 4.625V5.375H13.0638V4.625H11.8138ZM18.375 4H12.4388V5.25H18.375V4ZM19 5.375V4.625H17.75V5.375H19ZM12.4388 6H18.375V4.75H12.4388V6Z" fill="white"/>
<path fill-rule="evenodd" clip-rule="evenodd" d="M11.8462 0.333344H10.1538V4.00001H3V6.00001H10.1538V10.6667H11.8462V6.00001H20V4.00001H11.8462V0.333344Z" fill="#F50100"/>
</g>
<path fill-rule="evenodd" clip-rule="evenodd" d="M11.025 6.29999C11.7844 6.29999 12.4 5.68438 12.4 4.92499C12.4 4.1656 11.7844 3.54999 11.025 3.54999C10.2656 3.54999 9.65002 4.1656 9.65002 4.92499C9.65002 5.68438 10.2656 6.29999 11.025 6.29999Z" fill="#2E42A5"/>
<path fill-rule="evenodd" clip-rule="evenodd" d="M11.05 5.34564L10.4011 5.79721L10.63 5.04049L10 4.56286L10.7904 4.54675L11.05 3.79999L11.3096 4.54675L12.1 4.56286L11.47 5.04049L11.6989 5.79721L11.05 5.34564Z" fill="#FECA00"/>
<path fill-rule="evenodd" clip-rule="evenodd" d="M6.54999 5.28804L6.00921 5.66435L6.19999 5.03375L5.67499 4.63572L6.33368 4.6223L6.54999 4L6.7663 4.6223L7.42499 4.63572L6.89999 5.03375L7.09077 5.66435L6.54999 5.28804Z" fill="#FECA00"/>
<path fill-rule="evenodd" clip-rule="evenodd" d="M15.55 5.28804L15.0092 5.66435L15.2 5.03375L14.675 4.63572L15.3337 4.6223L15.55 4L15.7663 4.6223L16.425 4.63572L15.9 5.03375L16.0908 5.66435L15.55 5.28804Z" fill="#FECA00"/>
<path fill-rule="evenodd" clip-rule="evenodd" d="M11.05 2.88805L10.5092 3.26436L10.7 2.63376L10.175 2.23573L10.8337 2.22231L11.05 1.60001L11.2663 2.22231L11.925 2.23573L11.4 2.63376L11.5908 3.26436L11.05 2.88805Z" fill="#FECA00"/>
<path fill-rule="evenodd" clip-rule="evenodd" d="M11.05 8.18807L10.5092 8.56437L10.7 7.93378L10.175 7.53575L10.8337 7.52233L11.05 6.90002L11.2663 7.52233L11.925 7.53575L11.4 7.93378L11.5908 8.56437L11.05 8.18807Z" fill="#FECA00"/>
</g>
</g>
<rect x="3" y="1" width="16" height="12" fill="url(#paint0_linear)" style="mix-blend-mode:overlay"/>
</g>
<defs>
<filter id="filter0_d" x="0" y="0" width="22" height="18" filterUnits="userSpaceOnUse" color-interpolation-filters="sRGB">
<feFlood flood-opacity="0" result="BackgroundImageFix"/>
<feColorMatrix in="SourceAlpha" type="matrix" values="0 0 0 0 0 0 0 0 0 0 0 0 0 0 0 0 0 0 127 0" result="hardAlpha"/>
<feOffset dy="2"/>
<feGaussianBlur stdDeviation="1.5"/>
<feColorMatrix type="matrix" values="0 0 0 0 0 0 0 0 0 0 0 0 0 0 0 0 0 0 0.1 0"/>
<feBlend mode="normal" in2="BackgroundImageFix" result="effect1_dropShadow"/>
<feBlend mode="normal" in="SourceGraphic" in2="effect1_dropShadow" result="shape"/>
</filter>
<linearGradient id="paint0_linear" x1="11" y1="1" x2="11" y2="13" gradientUnits="userSpaceOnUse">
<stop stop-color="white" stop-opacity="0.7"/>
<stop offset="1" stop-opacity="0.3"/>
</linearGradient>
</defs>
</svg>
