<svg width="22" height="18" viewBox="0 0 22 18" fill="none" xmlns="http://www.w3.org/2000/svg">
<g filter="url(#filter0_d)">
<mask id="mask0" style="mask-type:alpha" maskUnits="userSpaceOnUse" x="3" y="1" width="16" height="12">
<rect x="3" y="1" width="16" height="12" fill="white"/>
</mask>
<g mask="url(#mask0)">
<path fill-rule="evenodd" clip-rule="evenodd" d="M7 1H15.5V13H7V1Z" fill="#F7FCFF"/>
<path fill-rule="evenodd" clip-rule="evenodd" d="M15 1H19V13H15V1Z" fill="#F50101"/>
<path fill-rule="evenodd" clip-rule="evenodd" d="M3 1H7V13H3V1Z" fill="#F50101"/>
<path d="M10.8707 5.37257L10.8874 5.55355C10.3882 5.60404 10.1185 5.36011 10.1185 4.85384C10.1185 4.35148 10.3823 4.08446 10.8785 4.0813L10.8796 4.26311C10.4776 4.26567 10.2924 4.45307 10.2924 4.85384C10.2924 5.2507 10.4717 5.41292 10.8707 5.37257Z" fill="#A2BB6A"/>
<path d="M11.0918 5.37257L11.075 5.55355C11.5742 5.60404 11.8439 5.36011 11.8439 4.85384C11.8439 4.35148 11.5801 4.08446 11.0839 4.0813L11.0828 4.26311C11.4848 4.26567 11.67 4.45307 11.67 4.85384C11.67 5.2507 11.4907 5.41292 11.0918 5.37257Z" fill="#A2BB6A"/>
<mask id="path-8-outside-1" maskUnits="userSpaceOnUse" x="8.5885" y="4.44073" width="5" height="6" fill="black">
<rect fill="white" x="8.5885" y="4.44073" width="5" height="6"/>
<path fill-rule="evenodd" clip-rule="evenodd" d="M11.0434 5.45271C11.0567 5.44516 11.0641 5.44073 11.0641 5.44073V5.4643C11.1604 5.51741 11.4028 5.64185 11.5604 5.64185C11.7607 5.64185 12.033 5.44073 12.033 5.44073L12.4887 6.0841C12.4887 6.0841 12.1818 6.72725 12.4166 7.51316C12.6514 8.29906 12.4042 8.90505 11.36 8.97234C11.36 8.97234 11.1543 9.01143 11.0641 9.07373V9.13129C11.0641 9.11697 11.0565 9.10335 11.0434 9.09055C11.0303 9.10335 11.0227 9.11697 11.0227 9.13129V9.07373C10.9325 9.01143 10.7268 8.97234 10.7268 8.97234C9.68263 8.90505 9.4354 8.29906 9.6702 7.51316C9.905 6.72725 9.59814 6.0841 9.59814 6.0841L10.0538 5.44073C10.0538 5.44073 10.3261 5.64185 10.5264 5.64185C10.684 5.64185 10.9264 5.51741 11.0227 5.4643V5.44073C11.0227 5.44073 11.0301 5.44516 11.0434 5.45271Z"/>
</mask>
<path fill-rule="evenodd" clip-rule="evenodd" d="M11.0434 5.45271C11.0567 5.44516 11.0641 5.44073 11.0641 5.44073V5.4643C11.1604 5.51741 11.4028 5.64185 11.5604 5.64185C11.7607 5.64185 12.033 5.44073 12.033 5.44073L12.4887 6.0841C12.4887 6.0841 12.1818 6.72725 12.4166 7.51316C12.6514 8.29906 12.4042 8.90505 11.36 8.97234C11.36 8.97234 11.1543 9.01143 11.0641 9.07373V9.13129C11.0641 9.11697 11.0565 9.10335 11.0434 9.09055C11.0303 9.10335 11.0227 9.11697 11.0227 9.13129V9.07373C10.9325 9.01143 10.7268 8.97234 10.7268 8.97234C9.68263 8.90505 9.4354 8.29906 9.6702 7.51316C9.905 6.72725 9.59814 6.0841 9.59814 6.0841L10.0538 5.44073C10.0538 5.44073 10.3261 5.64185 10.5264 5.64185C10.684 5.64185 10.9264 5.51741 11.0227 5.4643V5.44073C11.0227 5.44073 11.0301 5.44516 11.0434 5.45271Z" fill="#E8AA00"/>
<path d="M11.0641 5.44073H11.5641V4.56056L10.8081 5.01126L11.0641 5.44073ZM11.0434 5.45271L10.7968 5.88769L11.0434 6.02744L11.29 5.88769L11.0434 5.45271ZM11.0641 5.4643H10.5641V5.75949L10.8226 5.90209L11.0641 5.4643ZM12.033 5.44073L12.441 5.15176L12.1463 4.73552L11.736 5.03853L12.033 5.44073ZM12.4887 6.0841L12.9399 6.29941L13.0663 6.03458L12.8967 5.79513L12.4887 6.0841ZM12.4166 7.51316L11.9375 7.65629L12.4166 7.51316ZM11.36 8.97234L11.3279 8.47337L11.297 8.47536L11.2667 8.48112L11.36 8.97234ZM11.0641 9.07373L10.7798 8.66242L10.5641 8.81151V9.07373H11.0641ZM11.0434 9.09055L11.3935 8.73359L11.0434 8.3902L10.6933 8.73359L11.0434 9.09055ZM11.0227 9.07373H11.5227V8.81151L11.307 8.66242L11.0227 9.07373ZM10.7268 8.97234L10.8201 8.48112L10.7898 8.47536L10.7589 8.47337L10.7268 8.97234ZM9.59814 6.0841L9.19011 5.79513L9.02052 6.03458L9.14688 6.29941L9.59814 6.0841ZM10.0538 5.44073L10.3508 5.03853L9.94054 4.73552L9.64575 5.15176L10.0538 5.44073ZM11.0227 5.4643L11.2642 5.90209L11.5227 5.75949V5.4643H11.0227ZM11.0227 5.44073L11.2787 5.01126L10.5227 4.56056V5.44073H11.0227ZM11.0641 5.44073C10.8081 5.01126 10.8081 5.01126 10.8081 5.01125C10.8081 5.01125 10.8081 5.01124 10.8081 5.01124C10.8081 5.01123 10.8082 5.01123 10.8082 5.01122C10.8082 5.01121 10.8082 5.0112 10.8082 5.01119C10.8083 5.01116 10.8083 5.01114 10.8083 5.01112C10.8084 5.01107 10.8085 5.01103 10.8085 5.011C10.8087 5.01093 10.8088 5.01088 10.8088 5.01084C10.8089 5.01076 10.809 5.01075 10.8089 5.0108C10.8087 5.0109 10.8081 5.01124 10.8072 5.01181C10.8052 5.01294 10.8017 5.01497 10.7968 5.01772L11.29 5.88769C11.2984 5.8829 11.3053 5.87894 11.3104 5.87598C11.3129 5.8745 11.315 5.87326 11.3167 5.87229C11.3175 5.87181 11.3182 5.87139 11.3188 5.87104C11.3191 5.87087 11.3193 5.87071 11.3196 5.87057C11.3197 5.8705 11.3198 5.87044 11.3199 5.87038C11.3199 5.87035 11.32 5.87032 11.32 5.87029C11.3201 5.87028 11.3201 5.87026 11.3201 5.87025C11.3201 5.87024 11.3201 5.87024 11.3201 5.87023C11.3201 5.87023 11.3201 5.87022 11.3202 5.87022C11.3202 5.87021 11.3202 5.87021 11.0641 5.44073ZM11.5641 5.4643V5.44073H10.5641V5.4643H11.5641ZM10.8226 5.90209C10.8793 5.93339 10.9827 5.98784 11.1 6.0358C11.2014 6.07724 11.378 6.14185 11.5604 6.14185V5.14185C11.5813 5.14185 11.5834 5.1451 11.5599 5.13878C11.5395 5.13329 11.5119 5.12386 11.4785 5.11018C11.4111 5.08263 11.3452 5.04831 11.3057 5.02651L10.8226 5.90209ZM11.5604 6.14185C11.7943 6.14185 12.0074 6.0363 12.1094 5.98126C12.1717 5.94758 12.2247 5.91449 12.2621 5.88987C12.2811 5.87741 12.2966 5.86672 12.3081 5.85867C12.3139 5.85464 12.3186 5.85125 12.3223 5.8486C12.3241 5.84727 12.3257 5.84613 12.327 5.84518C12.3276 5.84471 12.3282 5.84428 12.3287 5.84391C12.329 5.84372 12.3292 5.84355 12.3294 5.84339C12.3296 5.84331 12.3297 5.84323 12.3298 5.84315C12.3298 5.84312 12.3299 5.84306 12.3299 5.84304C12.33 5.84299 12.3301 5.84294 12.033 5.44073C11.736 5.03853 11.736 5.03848 11.7361 5.03843C11.7361 5.03841 11.7362 5.03837 11.7362 5.03833C11.7363 5.03827 11.7364 5.03821 11.7365 5.03816C11.7366 5.03804 11.7368 5.03794 11.7369 5.03785C11.7371 5.03767 11.7373 5.03753 11.7375 5.03744C11.7377 5.03726 11.7377 5.03724 11.7375 5.03739C11.7371 5.03768 11.7358 5.03861 11.7337 5.04008C11.7295 5.04303 11.7222 5.04805 11.7125 5.05444C11.6926 5.06753 11.665 5.08472 11.6343 5.10132C11.6025 5.11846 11.5745 5.13114 11.5531 5.13865C11.5281 5.14744 11.5329 5.14185 11.5604 5.14185V6.14185ZM11.625 5.72971L12.0806 6.37308L12.8967 5.79513L12.441 5.15176L11.625 5.72971ZM12.4887 6.0841C12.0374 5.86879 12.0373 5.86897 12.0372 5.86914C12.0372 5.8692 12.0371 5.86938 12.0371 5.8695C12.0369 5.86975 12.0368 5.87001 12.0367 5.87028C12.0364 5.87082 12.0362 5.87139 12.0359 5.87201C12.0353 5.87325 12.0346 5.87466 12.0339 5.87622C12.0325 5.87936 12.0307 5.88314 12.0288 5.88757C12.0248 5.89641 12.0198 5.90783 12.0141 5.92169C12.0026 5.94937 11.9879 5.98697 11.9718 6.03345C11.9398 6.12615 11.9017 6.25581 11.8727 6.41398C11.8151 6.72923 11.792 7.16935 11.9375 7.65629L12.8957 7.37002C12.8064 7.07105 12.8193 6.79665 12.8564 6.59385C12.8749 6.49299 12.8988 6.41275 12.9169 6.3603C12.9259 6.33421 12.9334 6.31542 12.9378 6.30486C12.94 6.2996 12.9414 6.29643 12.9418 6.29547C12.942 6.29499 12.942 6.29507 12.9417 6.29572C12.9415 6.29605 12.9413 6.29652 12.941 6.29713C12.9409 6.29744 12.9407 6.29778 12.9405 6.29816C12.9404 6.29835 12.9403 6.29855 12.9402 6.29876C12.9402 6.29886 12.9401 6.29903 12.9401 6.29908C12.94 6.29924 12.9399 6.29941 12.4887 6.0841ZM11.9375 7.65629C12.0363 7.98689 11.9969 8.16334 11.9451 8.2453C11.902 8.31365 11.7673 8.44505 11.3279 8.47337L11.3922 9.4713C11.9968 9.43233 12.5079 9.22709 12.7907 8.77915C13.0649 8.34482 13.0317 7.82533 12.8957 7.37002L11.9375 7.65629ZM11.36 8.97234C11.2667 8.48112 11.2666 8.48113 11.2666 8.48114C11.2666 8.48115 11.2665 8.48116 11.2665 8.48117C11.2664 8.48118 11.2663 8.48119 11.2662 8.48121C11.2661 8.48124 11.2659 8.48127 11.2657 8.48131C11.2653 8.48138 11.2649 8.48147 11.2644 8.48156C11.2635 8.48174 11.2623 8.48197 11.2609 8.48224C11.2582 8.48278 11.2547 8.48348 11.2505 8.48434C11.2421 8.48607 11.2307 8.48847 11.2171 8.49152C11.1903 8.49754 11.1529 8.50647 11.111 8.5182C11.0483 8.53576 10.9007 8.57892 10.7798 8.66242L11.3484 9.48504C11.3246 9.5015 11.3133 9.50397 11.3296 9.49763C11.3415 9.49299 11.3591 9.48721 11.3807 9.48114C11.4016 9.47531 11.4213 9.47057 11.4358 9.46731C11.4429 9.46572 11.4483 9.46458 11.4515 9.46393C11.4531 9.4636 11.4541 9.46341 11.4544 9.46334C11.4546 9.46331 11.4546 9.46331 11.4544 9.46334C11.4543 9.46336 11.4542 9.46338 11.454 9.46342C11.4539 9.46343 11.4538 9.46345 11.4537 9.46348C11.4537 9.46349 11.4536 9.4635 11.4535 9.46351C11.4535 9.46352 11.4535 9.46352 11.4535 9.46353C11.4534 9.46354 11.4534 9.46355 11.36 8.97234ZM11.5641 9.13129V9.07373H10.5641V9.13129H11.5641ZM10.6933 9.44752C10.6583 9.4132 10.5641 9.30603 10.5641 9.13129H11.5641C11.5641 8.92791 11.4546 8.79351 11.3935 8.73359L10.6933 9.44752ZM10.6933 8.73359C10.6322 8.79351 10.5227 8.92791 10.5227 9.13129H11.5227C11.5227 9.30603 11.4285 9.4132 11.3935 9.44752L10.6933 8.73359ZM11.5227 9.13129V9.07373H10.5227V9.13129H11.5227ZM10.7268 8.97234C10.6334 9.46355 10.6334 9.46354 10.6333 9.46353C10.6333 9.46352 10.6333 9.46352 10.6333 9.46351C10.6332 9.4635 10.6331 9.46349 10.6331 9.46348C10.633 9.46345 10.6329 9.46343 10.6328 9.46342C10.6326 9.46338 10.6325 9.46336 10.6324 9.46334C10.6322 9.46331 10.6322 9.46331 10.6324 9.46334C10.6327 9.46341 10.6337 9.4636 10.6353 9.46393C10.6385 9.46458 10.6439 9.46572 10.651 9.46731C10.6655 9.47057 10.6852 9.47531 10.7061 9.48114C10.7277 9.48721 10.7453 9.49299 10.7572 9.49763C10.7735 9.50397 10.7622 9.5015 10.7384 9.48504L11.307 8.66242C11.1861 8.57892 11.0385 8.53576 10.9758 8.5182C10.9339 8.50647 10.8965 8.49754 10.8697 8.49152C10.8561 8.48847 10.8447 8.48607 10.8363 8.48434C10.8321 8.48348 10.8286 8.48278 10.8259 8.48224C10.8245 8.48197 10.8233 8.48174 10.8224 8.48156C10.8219 8.48147 10.8215 8.48138 10.8211 8.48131C10.8209 8.48127 10.8207 8.48124 10.8206 8.48121C10.8205 8.48119 10.8204 8.48118 10.8203 8.48117C10.8203 8.48116 10.8202 8.48115 10.8202 8.48114C10.8202 8.48113 10.8201 8.48112 10.7268 8.97234ZM9.19113 7.37002C9.0551 7.82533 9.02189 8.34482 9.2961 8.77915C9.5789 9.22709 10.09 9.43233 10.6946 9.4713L10.7589 8.47337C10.3195 8.44505 10.1848 8.31365 10.1417 8.2453C10.0899 8.16334 10.0505 7.98689 10.1493 7.65629L9.19113 7.37002ZM9.59814 6.0841C9.14688 6.29941 9.1468 6.29924 9.14672 6.29908C9.14669 6.29903 9.14661 6.29886 9.14656 6.29876C9.14647 6.29855 9.14637 6.29835 9.14628 6.29816C9.1461 6.29778 9.14594 6.29744 9.14579 6.29713C9.14551 6.29652 9.14529 6.29605 9.14514 6.29572C9.14484 6.29507 9.1448 6.29499 9.14502 6.29547C9.14545 6.29643 9.14685 6.2996 9.14903 6.30486C9.15341 6.31542 9.16086 6.33421 9.16988 6.3603C9.18802 6.41275 9.21194 6.49299 9.23038 6.59385C9.26746 6.79665 9.28045 7.07105 9.19113 7.37002L10.1493 7.65629C10.2948 7.16935 10.2717 6.72923 10.2141 6.41398C10.1851 6.25581 10.147 6.12615 10.115 6.03345C10.0989 5.98697 10.0842 5.94937 10.0727 5.92169C10.067 5.90783 10.062 5.89641 10.058 5.88757C10.0561 5.88314 10.0543 5.87936 10.0529 5.87622C10.0522 5.87466 10.0515 5.87325 10.0509 5.87201C10.0506 5.87139 10.0504 5.87082 10.0501 5.87028C10.05 5.87001 10.0499 5.86975 10.0497 5.8695C10.0497 5.86938 10.0496 5.8692 10.0496 5.86914C10.0495 5.86897 10.0494 5.86879 9.59814 6.0841ZM9.64575 5.15176L9.19011 5.79513L10.0062 6.37308L10.4618 5.72971L9.64575 5.15176ZM10.5264 5.14185C10.5539 5.14185 10.5587 5.14744 10.5337 5.13865C10.5123 5.13114 10.4843 5.11846 10.4525 5.10132C10.4218 5.08472 10.3942 5.06753 10.3743 5.05444C10.3646 5.04805 10.3573 5.04303 10.3531 5.04008C10.351 5.03861 10.3497 5.03768 10.3493 5.03739C10.3491 5.03724 10.3491 5.03726 10.3493 5.03744C10.3495 5.03754 10.3497 5.03767 10.3499 5.03785C10.35 5.03794 10.3502 5.03804 10.3503 5.03816C10.3504 5.03821 10.3505 5.03827 10.3506 5.03834C10.3506 5.03837 10.3507 5.03842 10.3507 5.03843C10.3508 5.03848 10.3508 5.03853 10.0538 5.44073C9.75675 5.84294 9.75682 5.84299 9.75689 5.84304C9.75692 5.84306 9.75699 5.84312 9.75704 5.84315C9.75714 5.84323 9.75725 5.84331 9.75736 5.84339C9.75758 5.84355 9.75781 5.84372 9.75807 5.84391C9.75858 5.84428 9.75916 5.84471 9.75981 5.84518C9.7611 5.84613 9.76268 5.84727 9.76452 5.8486C9.76819 5.85125 9.77295 5.85464 9.7787 5.85867C9.79016 5.86672 9.80572 5.87741 9.82467 5.88987C9.86209 5.91449 9.91507 5.94758 9.97744 5.98126C10.0794 6.0363 10.2925 6.14185 10.5264 6.14185V5.14185ZM10.7811 5.02651C10.7416 5.04831 10.6757 5.08263 10.6083 5.11018C10.5749 5.12386 10.5473 5.13329 10.5269 5.13878C10.5034 5.1451 10.5055 5.14185 10.5264 5.14185V6.14185C10.7088 6.14185 10.8854 6.07724 10.9868 6.0358C11.1041 5.98784 11.2075 5.93339 11.2642 5.90209L10.7811 5.02651ZM11.5227 5.4643V5.44073H10.5227V5.4643H11.5227ZM11.0227 5.44073C10.7666 5.87021 10.7666 5.87021 10.7667 5.87022C10.7667 5.87022 10.7667 5.87023 10.7667 5.87023C10.7667 5.87024 10.7667 5.87024 10.7667 5.87025C10.7667 5.87026 10.7667 5.87028 10.7668 5.87029C10.7668 5.87032 10.7669 5.87035 10.7669 5.87038C10.767 5.87044 10.7671 5.8705 10.7672 5.87057C10.7675 5.87071 10.7677 5.87087 10.768 5.87104C10.7686 5.87139 10.7693 5.87181 10.7701 5.87229C10.7718 5.87326 10.7739 5.8745 10.7764 5.87598C10.7815 5.87894 10.7884 5.8829 10.7968 5.88769L11.29 5.01772C11.2851 5.01497 11.2816 5.01294 11.2796 5.01181C11.2787 5.01124 11.2781 5.0109 11.2779 5.0108C11.2778 5.01075 11.2779 5.01076 11.278 5.01084C11.278 5.01088 11.2781 5.01093 11.2783 5.011C11.2783 5.01103 11.2784 5.01107 11.2785 5.01112C11.2785 5.01114 11.2785 5.01116 11.2786 5.01119C11.2786 5.0112 11.2786 5.01121 11.2786 5.01122C11.2786 5.01123 11.2787 5.01123 11.2787 5.01124C11.2787 5.01124 11.2787 5.01125 11.2787 5.01125C11.2787 5.01126 11.2787 5.01126 11.0227 5.44073Z" fill="#E8AA00" mask="url(#path-8-outside-1)"/>
<mask id="mask1" style="mask-type:alpha" maskUnits="userSpaceOnUse" x="9" y="4" width="5" height="6">
<mask id="path-10-outside-2" maskUnits="userSpaceOnUse" x="8.5885" y="4.44073" width="5" height="6" fill="black">
<rect fill="white" x="8.5885" y="4.44073" width="5" height="6"/>
<path fill-rule="evenodd" clip-rule="evenodd" d="M11.0434 5.45271C11.0567 5.44516 11.0641 5.44073 11.0641 5.44073V5.4643C11.1604 5.51741 11.4028 5.64185 11.5604 5.64185C11.7607 5.64185 12.033 5.44073 12.033 5.44073L12.4887 6.0841C12.4887 6.0841 12.1818 6.72725 12.4166 7.51316C12.6514 8.29906 12.4042 8.90505 11.36 8.97234C11.36 8.97234 11.1543 9.01143 11.0641 9.07373V9.13129C11.0641 9.11697 11.0565 9.10335 11.0434 9.09055C11.0303 9.10335 11.0227 9.11697 11.0227 9.13129V9.07373C10.9325 9.01143 10.7268 8.97234 10.7268 8.97234C9.68263 8.90505 9.4354 8.29906 9.6702 7.51316C9.905 6.72725 9.59814 6.0841 9.59814 6.0841L10.0538 5.44073C10.0538 5.44073 10.3261 5.64185 10.5264 5.64185C10.684 5.64185 10.9264 5.51741 11.0227 5.4643V5.44073C11.0227 5.44073 11.0301 5.44516 11.0434 5.45271Z"/>
</mask>
<path fill-rule="evenodd" clip-rule="evenodd" d="M11.0434 5.45271C11.0567 5.44516 11.0641 5.44073 11.0641 5.44073V5.4643C11.1604 5.51741 11.4028 5.64185 11.5604 5.64185C11.7607 5.64185 12.033 5.44073 12.033 5.44073L12.4887 6.0841C12.4887 6.0841 12.1818 6.72725 12.4166 7.51316C12.6514 8.29906 12.4042 8.90505 11.36 8.97234C11.36 8.97234 11.1543 9.01143 11.0641 9.07373V9.13129C11.0641 9.11697 11.0565 9.10335 11.0434 9.09055C11.0303 9.10335 11.0227 9.11697 11.0227 9.13129V9.07373C10.9325 9.01143 10.7268 8.97234 10.7268 8.97234C9.68263 8.90505 9.4354 8.29906 9.6702 7.51316C9.905 6.72725 9.59814 6.0841 9.59814 6.0841L10.0538 5.44073C10.0538 5.44073 10.3261 5.64185 10.5264 5.64185C10.684 5.64185 10.9264 5.51741 11.0227 5.4643V5.44073C11.0227 5.44073 11.0301 5.44516 11.0434 5.45271Z" fill="white"/>
<path d="M11.0641 5.44073H11.5641V4.56056L10.8081 5.01126L11.0641 5.44073ZM11.0434 5.45271L10.7968 5.88769L11.0434 6.02744L11.29 5.88769L11.0434 5.45271ZM11.0641 5.4643H10.5641V5.75949L10.8226 5.90209L11.0641 5.4643ZM12.033 5.44073L12.441 5.15176L12.1463 4.73552L11.736 5.03853L12.033 5.44073ZM12.4887 6.0841L12.9399 6.29941L13.0663 6.03458L12.8967 5.79513L12.4887 6.0841ZM12.4166 7.51316L11.9375 7.65629L12.4166 7.51316ZM11.36 8.97234L11.3279 8.47337L11.297 8.47536L11.2667 8.48112L11.36 8.97234ZM11.0641 9.07373L10.7798 8.66242L10.5641 8.81151V9.07373H11.0641ZM11.0434 9.09055L11.3935 8.73359L11.0434 8.3902L10.6933 8.73359L11.0434 9.09055ZM11.0227 9.07373H11.5227V8.81151L11.307 8.66242L11.0227 9.07373ZM10.7268 8.97234L10.8201 8.48112L10.7898 8.47536L10.7589 8.47337L10.7268 8.97234ZM9.59814 6.0841L9.19011 5.79513L9.02052 6.03458L9.14688 6.29941L9.59814 6.0841ZM10.0538 5.44073L10.3508 5.03853L9.94054 4.73552L9.64575 5.15176L10.0538 5.44073ZM11.0227 5.4643L11.2642 5.90209L11.5227 5.75949V5.4643H11.0227ZM11.0227 5.44073L11.2787 5.01126L10.5227 4.56056V5.44073H11.0227ZM11.0641 5.44073C10.8081 5.01126 10.8081 5.01126 10.8081 5.01125C10.8081 5.01125 10.8081 5.01124 10.8081 5.01124C10.8081 5.01123 10.8082 5.01123 10.8082 5.01122C10.8082 5.01121 10.8082 5.0112 10.8082 5.01119C10.8083 5.01116 10.8083 5.01114 10.8083 5.01112C10.8084 5.01107 10.8085 5.01103 10.8085 5.011C10.8087 5.01093 10.8088 5.01088 10.8088 5.01084C10.8089 5.01076 10.809 5.01075 10.8089 5.0108C10.8087 5.0109 10.8081 5.01124 10.8072 5.01181C10.8052 5.01294 10.8017 5.01497 10.7968 5.01772L11.29 5.88769C11.2984 5.8829 11.3053 5.87894 11.3104 5.87598C11.3129 5.8745 11.315 5.87326 11.3167 5.87229C11.3175 5.87181 11.3182 5.87139 11.3188 5.87104C11.3191 5.87087 11.3193 5.87071 11.3196 5.87057C11.3197 5.8705 11.3198 5.87044 11.3199 5.87038C11.3199 5.87035 11.32 5.87032 11.32 5.87029C11.3201 5.87028 11.3201 5.87026 11.3201 5.87025C11.3201 5.87024 11.3201 5.87024 11.3201 5.87023C11.3201 5.87023 11.3201 5.87022 11.3202 5.87022C11.3202 5.87021 11.3202 5.87021 11.0641 5.44073ZM11.5641 5.4643V5.44073H10.5641V5.4643H11.5641ZM10.8226 5.90209C10.8793 5.93339 10.9827 5.98784 11.1 6.0358C11.2014 6.07724 11.378 6.14185 11.5604 6.14185V5.14185C11.5813 5.14185 11.5834 5.1451 11.5599 5.13878C11.5395 5.13329 11.5119 5.12386 11.4785 5.11018C11.4111 5.08263 11.3452 5.04831 11.3057 5.02651L10.8226 5.90209ZM11.5604 6.14185C11.7943 6.14185 12.0074 6.0363 12.1094 5.98126C12.1717 5.94758 12.2247 5.91449 12.2621 5.88987C12.2811 5.87741 12.2966 5.86672 12.3081 5.85867C12.3139 5.85464 12.3186 5.85125 12.3223 5.8486C12.3241 5.84727 12.3257 5.84613 12.327 5.84518C12.3276 5.84471 12.3282 5.84428 12.3287 5.84391C12.329 5.84372 12.3292 5.84355 12.3294 5.84339C12.3296 5.84331 12.3297 5.84323 12.3298 5.84315C12.3298 5.84312 12.3299 5.84306 12.3299 5.84304C12.33 5.84299 12.3301 5.84294 12.033 5.44073C11.736 5.03853 11.736 5.03848 11.7361 5.03843C11.7361 5.03841 11.7362 5.03837 11.7362 5.03833C11.7363 5.03827 11.7364 5.03821 11.7365 5.03816C11.7366 5.03804 11.7368 5.03794 11.7369 5.03785C11.7371 5.03767 11.7373 5.03753 11.7375 5.03744C11.7377 5.03726 11.7377 5.03724 11.7375 5.03739C11.7371 5.03768 11.7358 5.03861 11.7337 5.04008C11.7295 5.04303 11.7222 5.04805 11.7125 5.05444C11.6926 5.06753 11.665 5.08472 11.6343 5.10132C11.6025 5.11846 11.5745 5.13114 11.5531 5.13865C11.5281 5.14744 11.5329 5.14185 11.5604 5.14185V6.14185ZM11.625 5.72971L12.0806 6.37308L12.8967 5.79513L12.441 5.15176L11.625 5.72971ZM12.4887 6.0841C12.0374 5.86879 12.0373 5.86897 12.0372 5.86914C12.0372 5.8692 12.0371 5.86938 12.0371 5.8695C12.0369 5.86975 12.0368 5.87001 12.0367 5.87028C12.0364 5.87082 12.0362 5.87139 12.0359 5.87201C12.0353 5.87325 12.0346 5.87466 12.0339 5.87622C12.0325 5.87936 12.0307 5.88314 12.0288 5.88757C12.0248 5.89641 12.0198 5.90783 12.0141 5.92169C12.0026 5.94937 11.9879 5.98697 11.9718 6.03345C11.9398 6.12615 11.9017 6.25581 11.8727 6.41398C11.8151 6.72923 11.792 7.16935 11.9375 7.65629L12.8957 7.37002C12.8064 7.07105 12.8193 6.79665 12.8564 6.59385C12.8749 6.49299 12.8988 6.41275 12.9169 6.3603C12.9259 6.33421 12.9334 6.31542 12.9378 6.30486C12.94 6.2996 12.9414 6.29643 12.9418 6.29547C12.942 6.29499 12.942 6.29507 12.9417 6.29572C12.9415 6.29605 12.9413 6.29652 12.941 6.29713C12.9409 6.29744 12.9407 6.29778 12.9405 6.29816C12.9404 6.29835 12.9403 6.29855 12.9402 6.29876C12.9402 6.29886 12.9401 6.29903 12.9401 6.29908C12.94 6.29924 12.9399 6.29941 12.4887 6.0841ZM11.9375 7.65629C12.0363 7.98689 11.9969 8.16334 11.9451 8.2453C11.902 8.31365 11.7673 8.44505 11.3279 8.47337L11.3922 9.4713C11.9968 9.43233 12.5079 9.22709 12.7907 8.77915C13.0649 8.34482 13.0317 7.82533 12.8957 7.37002L11.9375 7.65629ZM11.36 8.97234C11.2667 8.48112 11.2666 8.48113 11.2666 8.48114C11.2666 8.48115 11.2665 8.48116 11.2665 8.48117C11.2664 8.48118 11.2663 8.48119 11.2662 8.48121C11.2661 8.48124 11.2659 8.48127 11.2657 8.48131C11.2653 8.48138 11.2649 8.48147 11.2644 8.48156C11.2635 8.48174 11.2623 8.48197 11.2609 8.48224C11.2582 8.48278 11.2547 8.48348 11.2505 8.48434C11.2421 8.48607 11.2307 8.48847 11.2171 8.49152C11.1903 8.49754 11.1529 8.50647 11.111 8.5182C11.0483 8.53576 10.9007 8.57892 10.7798 8.66242L11.3484 9.48504C11.3246 9.5015 11.3133 9.50397 11.3296 9.49763C11.3415 9.49299 11.3591 9.48721 11.3807 9.48114C11.4016 9.47531 11.4213 9.47057 11.4358 9.46731C11.4429 9.46572 11.4483 9.46458 11.4515 9.46393C11.4531 9.4636 11.4541 9.46341 11.4544 9.46334C11.4546 9.46331 11.4546 9.46331 11.4544 9.46334C11.4543 9.46336 11.4542 9.46338 11.454 9.46342C11.4539 9.46343 11.4538 9.46345 11.4537 9.46348C11.4537 9.46349 11.4536 9.4635 11.4535 9.46351C11.4535 9.46352 11.4535 9.46352 11.4535 9.46353C11.4534 9.46354 11.4534 9.46355 11.36 8.97234ZM11.5641 9.13129V9.07373H10.5641V9.13129H11.5641ZM10.6933 9.44752C10.6583 9.4132 10.5641 9.30603 10.5641 9.13129H11.5641C11.5641 8.92791 11.4546 8.79351 11.3935 8.73359L10.6933 9.44752ZM10.6933 8.73359C10.6322 8.79351 10.5227 8.92791 10.5227 9.13129H11.5227C11.5227 9.30603 11.4285 9.4132 11.3935 9.44752L10.6933 8.73359ZM11.5227 9.13129V9.07373H10.5227V9.13129H11.5227ZM10.7268 8.97234C10.6334 9.46355 10.6334 9.46354 10.6333 9.46353C10.6333 9.46352 10.6333 9.46352 10.6333 9.46351C10.6332 9.4635 10.6331 9.46349 10.6331 9.46348C10.633 9.46345 10.6329 9.46343 10.6328 9.46342C10.6326 9.46338 10.6325 9.46336 10.6324 9.46334C10.6322 9.46331 10.6322 9.46331 10.6324 9.46334C10.6327 9.46341 10.6337 9.4636 10.6353 9.46393C10.6385 9.46458 10.6439 9.46572 10.651 9.46731C10.6655 9.47057 10.6852 9.47531 10.7061 9.48114C10.7277 9.48721 10.7453 9.49299 10.7572 9.49763C10.7735 9.50397 10.7622 9.5015 10.7384 9.48504L11.307 8.66242C11.1861 8.57892 11.0385 8.53576 10.9758 8.5182C10.9339 8.50647 10.8965 8.49754 10.8697 8.49152C10.8561 8.48847 10.8447 8.48607 10.8363 8.48434C10.8321 8.48348 10.8286 8.48278 10.8259 8.48224C10.8245 8.48197 10.8233 8.48174 10.8224 8.48156C10.8219 8.48147 10.8215 8.48138 10.8211 8.48131C10.8209 8.48127 10.8207 8.48124 10.8206 8.48121C10.8205 8.48119 10.8204 8.48118 10.8203 8.48117C10.8203 8.48116 10.8202 8.48115 10.8202 8.48114C10.8202 8.48113 10.8201 8.48112 10.7268 8.97234ZM9.19113 7.37002C9.0551 7.82533 9.02189 8.34482 9.2961 8.77915C9.5789 9.22709 10.09 9.43233 10.6946 9.4713L10.7589 8.47337C10.3195 8.44505 10.1848 8.31365 10.1417 8.2453C10.0899 8.16334 10.0505 7.98689 10.1493 7.65629L9.19113 7.37002ZM9.59814 6.0841C9.14688 6.29941 9.1468 6.29924 9.14672 6.29908C9.14669 6.29903 9.14661 6.29886 9.14656 6.29876C9.14647 6.29855 9.14637 6.29835 9.14628 6.29816C9.1461 6.29778 9.14594 6.29744 9.14579 6.29713C9.14551 6.29652 9.14529 6.29605 9.14514 6.29572C9.14484 6.29507 9.1448 6.29499 9.14502 6.29547C9.14545 6.29643 9.14685 6.2996 9.14903 6.30486C9.15341 6.31542 9.16086 6.33421 9.16988 6.3603C9.18802 6.41275 9.21194 6.49299 9.23038 6.59385C9.26746 6.79665 9.28045 7.07105 9.19113 7.37002L10.1493 7.65629C10.2948 7.16935 10.2717 6.72923 10.2141 6.41398C10.1851 6.25581 10.147 6.12615 10.115 6.03345C10.0989 5.98697 10.0842 5.94937 10.0727 5.92169C10.067 5.90783 10.062 5.89641 10.058 5.88757C10.0561 5.88314 10.0543 5.87936 10.0529 5.87622C10.0522 5.87466 10.0515 5.87325 10.0509 5.87201C10.0506 5.87139 10.0504 5.87082 10.0501 5.87028C10.05 5.87001 10.0499 5.86975 10.0497 5.8695C10.0497 5.86938 10.0496 5.8692 10.0496 5.86914C10.0495 5.86897 10.0494 5.86879 9.59814 6.0841ZM9.64575 5.15176L9.19011 5.79513L10.0062 6.37308L10.4618 5.72971L9.64575 5.15176ZM10.5264 5.14185C10.5539 5.14185 10.5587 5.14744 10.5337 5.13865C10.5123 5.13114 10.4843 5.11846 10.4525 5.10132C10.4218 5.08472 10.3942 5.06753 10.3743 5.05444C10.3646 5.04805 10.3573 5.04303 10.3531 5.04008C10.351 5.03861 10.3497 5.03768 10.3493 5.03739C10.3491 5.03724 10.3491 5.03726 10.3493 5.03744C10.3495 5.03754 10.3497 5.03767 10.3499 5.03785C10.35 5.03794 10.3502 5.03804 10.3503 5.03816C10.3504 5.03821 10.3505 5.03827 10.3506 5.03834C10.3506 5.03837 10.3507 5.03842 10.3507 5.03843C10.3508 5.03848 10.3508 5.03853 10.0538 5.44073C9.75675 5.84294 9.75682 5.84299 9.75689 5.84304C9.75692 5.84306 9.75699 5.84312 9.75704 5.84315C9.75714 5.84323 9.75725 5.84331 9.75736 5.84339C9.75758 5.84355 9.75781 5.84372 9.75807 5.84391C9.75858 5.84428 9.75916 5.84471 9.75981 5.84518C9.7611 5.84613 9.76268 5.84727 9.76452 5.8486C9.76819 5.85125 9.77295 5.85464 9.7787 5.85867C9.79016 5.86672 9.80572 5.87741 9.82467 5.88987C9.86209 5.91449 9.91507 5.94758 9.97744 5.98126C10.0794 6.0363 10.2925 6.14185 10.5264 6.14185V5.14185ZM10.7811 5.02651C10.7416 5.04831 10.6757 5.08263 10.6083 5.11018C10.5749 5.12386 10.5473 5.13329 10.5269 5.13878C10.5034 5.1451 10.5055 5.14185 10.5264 5.14185V6.14185C10.7088 6.14185 10.8854 6.07724 10.9868 6.0358C11.1041 5.98784 11.2075 5.93339 11.2642 5.90209L10.7811 5.02651ZM11.5227 5.4643V5.44073H10.5227V5.4643H11.5227ZM11.0227 5.44073C10.7666 5.87021 10.7666 5.87021 10.7667 5.87022C10.7667 5.87022 10.7667 5.87023 10.7667 5.87023C10.7667 5.87024 10.7667 5.87024 10.7667 5.87025C10.7667 5.87026 10.7667 5.87028 10.7668 5.87029C10.7668 5.87032 10.7669 5.87035 10.7669 5.87038C10.767 5.87044 10.7671 5.8705 10.7672 5.87057C10.7675 5.87071 10.7677 5.87087 10.768 5.87104C10.7686 5.87139 10.7693 5.87181 10.7701 5.87229C10.7718 5.87326 10.7739 5.8745 10.7764 5.87598C10.7815 5.87894 10.7884 5.8829 10.7968 5.88769L11.29 5.01772C11.2851 5.01497 11.2816 5.01294 11.2796 5.01181C11.2787 5.01124 11.2781 5.0109 11.2779 5.0108C11.2778 5.01075 11.2779 5.01076 11.278 5.01084C11.278 5.01088 11.2781 5.01093 11.2783 5.011C11.2783 5.01103 11.2784 5.01107 11.2785 5.01112C11.2785 5.01114 11.2785 5.01116 11.2786 5.01119C11.2786 5.0112 11.2786 5.01121 11.2786 5.01122C11.2786 5.01123 11.2787 5.01123 11.2787 5.01124C11.2787 5.01124 11.2787 5.01125 11.2787 5.01125C11.2787 5.01126 11.2787 5.01126 11.0227 5.44073Z" fill="white" mask="url(#path-10-outside-2)"/>
</mask>
<g mask="url(#mask1)">
<rect x="9.65216" y="5.36362" width="1.3913" height="1.90909" fill="#67BAFF"/>
<rect x="11.0435" y="5.36362" width="1.3913" height="1.90909" fill="white"/>
<rect x="9.47827" y="7.45453" width="3.47826" height="2.18182" fill="#C51918"/>
<path d="M11.7174 7.13749H11.5435V5.83014H11.7174V7.13749Z" fill="#C9A951"/>
<path d="M11.6469 6.54276L11.5621 6.69461L11.262 6.527L11.3467 6.37515L11.6469 6.54276Z" fill="#C9A951"/>
<path d="M11.6469 6.17915L11.5621 6.33099L11.262 6.16338L11.3467 6.01154L11.6469 6.17915Z" fill="#C9A951"/>
<path d="M11.6098 6.54276L11.6946 6.69461L11.9948 6.527L11.91 6.37515L11.6098 6.54276Z" fill="#C9A951"/>
<path d="M11.6098 6.17915L11.6946 6.33099L11.9948 6.16338L11.91 6.01154L11.6098 6.17915Z" fill="#C9A951"/>
<path fill-rule="evenodd" clip-rule="evenodd" d="M10.6881 5.78494C10.5833 5.87663 10.6509 6.21172 10.4791 6.21172C10.3074 6.21172 10.0656 5.9608 10.0048 6.12637C9.94388 6.29194 10.0048 6.23631 10.0048 6.37733C10.0048 6.51834 9.85895 6.9102 9.93185 6.97644C10.0048 7.04268 10.0795 7.21723 10.0665 7.13552C10.0536 7.05381 9.99845 6.93382 10.0214 6.80347C9.99921 6.66881 10.1443 6.53929 10.1443 6.53929C10.1443 6.53929 10.1285 6.6791 10.1171 6.73122C10.1171 6.73122 10.0693 6.83644 10.0887 6.90632C10.0887 6.90632 10.1378 7.10327 10.1581 7.11688C10.1581 7.11688 10.1712 6.65053 10.1862 6.57367C10.2011 6.49682 10.3077 6.66037 10.3432 6.64183C10.3432 6.64183 10.3554 6.96072 10.3369 6.99872C10.3369 6.99872 10.2995 7.07415 10.3134 7.09824C10.3134 7.09824 10.3481 7.18554 10.3777 7.16012C10.3777 7.16012 10.3788 7.1583 10.3938 7.07333C10.3938 7.07333 10.3763 7.02201 10.4036 6.90518C10.4036 6.90518 10.4323 6.64792 10.4442 6.70374C10.4442 6.70374 10.4389 6.8252 10.4526 6.8878C10.4526 6.8878 10.4745 7.04323 10.4788 7.0603C10.4788 7.0603 10.5838 7.20979 10.5866 7.14665C10.5866 7.14665 10.486 7.02668 10.5075 6.9354C10.5075 6.9354 10.4499 6.67678 10.5303 6.61911C10.5303 6.61911 10.7436 6.52045 10.7565 6.35156C10.7565 6.35156 10.7874 6.15908 10.7929 6.07085C10.7929 6.07085 10.7461 6.04491 10.8429 5.99935C10.8429 5.99935 10.9986 5.93959 10.9015 5.85649" fill="#D18219"/>
</g>
<path d="M9.09998 4.8432L9.48664 5.15304C8.98299 5.9818 9.09998 6.76161 9.09998 7.26306C9.09998 8.18775 9.79482 9.25497 11.0053 9.25497C11.9049 9.25497 12.8828 8.55462 13.1136 7.6989C13.2953 7.02511 12.8783 5.44181 12.5637 5.02859L12.9359 4.8432C13.4242 5.48454 14.3502 6.95418 14.0791 7.95932C13.727 9.2647 12.3444 10.255 11.0053 10.255C9.13005 10.255 8.09998 8.67288 8.09998 7.26306C8.09998 6.54708 8.50975 5.81442 9.09998 4.8432Z" fill="#00A854"/>
<path fill-rule="evenodd" clip-rule="evenodd" d="M11 8.60001C11.5523 8.60001 12 8.37615 12 8.10001C12 7.82386 11.5523 7.60001 11 7.60001C10.4477 7.60001 10 7.82386 10 8.10001C10 8.37615 10.4477 8.60001 11 8.60001Z" fill="#FDD200"/>
<rect x="9.5" y="9" width="3" height="1" fill="#CA0000"/>
</g>
<rect x="3" y="1" width="16" height="12" fill="url(#paint0_linear)" style="mix-blend-mode:overlay"/>
</g>
<defs>
<filter id="filter0_d" x="0" y="0" width="22" height="18" filterUnits="userSpaceOnUse" color-interpolation-filters="sRGB">
<feFlood flood-opacity="0" result="BackgroundImageFix"/>
<feColorMatrix in="SourceAlpha" type="matrix" values="0 0 0 0 0 0 0 0 0 0 0 0 0 0 0 0 0 0 127 0" result="hardAlpha"/>
<feOffset dy="2"/>
<feGaussianBlur stdDeviation="1.5"/>
<feColorMatrix type="matrix" values="0 0 0 0 0 0 0 0 0 0 0 0 0 0 0 0 0 0 0.1 0"/>
<feBlend mode="normal" in2="BackgroundImageFix" result="effect1_dropShadow"/>
<feBlend mode="normal" in="SourceGraphic" in2="effect1_dropShadow" result="shape"/>
</filter>
<linearGradient id="paint0_linear" x1="11" y1="1" x2="11" y2="13" gradientUnits="userSpaceOnUse">
<stop stop-color="white" stop-opacity="0.7"/>
<stop offset="1" stop-opacity="0.3"/>
</linearGradient>
</defs>
</svg>
