<svg width="22" height="18" viewBox="0 0 22 18" fill="none" xmlns="http://www.w3.org/2000/svg">
<g filter="url(#filter0_d)">
<mask id="mask0" style="mask-type:alpha" maskUnits="userSpaceOnUse" x="3" y="1" width="16" height="12">
<rect x="3" y="1" width="16" height="12" fill="white"/>
</mask>
<g mask="url(#mask0)">
<path fill-rule="evenodd" clip-rule="evenodd" d="M3 1V13H19V1H3Z" fill="#F7FCFF"/>
<mask id="mask1" style="mask-type:alpha" maskUnits="userSpaceOnUse" x="3" y="1" width="16" height="12">
<path fill-rule="evenodd" clip-rule="evenodd" d="M3 1V13H19V1H3Z" fill="white"/>
</mask>
<g mask="url(#mask1)">
<path fill-rule="evenodd" clip-rule="evenodd" d="M3 1V4H19V1H3Z" fill="#BF2714"/>
<path fill-rule="evenodd" clip-rule="evenodd" d="M3 10V13H19V10H3Z" fill="#BF2714"/>
<mask id="mask2" style="mask-type:alpha" maskUnits="userSpaceOnUse" x="8" y="4" width="6" height="6">
<path fill-rule="evenodd" clip-rule="evenodd" d="M11 10C12.6569 10 14 8.65685 14 7C14 5.34315 12.6569 4 11 4C9.34315 4 8 5.34315 8 7C8 8.65685 9.34315 10 11 10Z" fill="white"/>
</mask>
<g mask="url(#mask2)">
<path fill-rule="evenodd" clip-rule="evenodd" d="M10.019 7.6876L10.2388 4.0745C8.95054 4.33894 8 5.31376 8 7.10202C8 8.04537 8.627 7.93306 9.55266 7.76726C9.7009 7.7407 9.85679 7.71278 10.019 7.6876ZM11.4472 4.02692L11.9582 7.69933C12.1428 7.73303 12.3194 7.77146 12.486 7.80771C13.3904 8.0045 14 8.13714 14 7.10202C14 5.25665 12.8919 4.20441 11.4472 4.02692Z" fill="#FA8F21"/>
<path fill-rule="evenodd" clip-rule="evenodd" d="M11 10C12.6569 10 14 9.10457 14 8C14 6.89543 12.6569 6 11 6C9.34315 6 8 6.89543 8 8C8 9.10457 9.34315 10 11 10Z" fill="#5277B9"/>
<path fill-rule="evenodd" clip-rule="evenodd" d="M8.27437 7.88238C8.247 7.79665 8.3396 7.72222 8.41744 7.76739L8.60429 7.87582C8.63216 7.89199 8.66618 7.89349 8.69536 7.87983L9.15659 7.66387C9.18892 7.64873 9.22692 7.6523 9.25587 7.67319L9.75411 8.03279L10.4428 7.66197C10.4694 7.64768 10.501 7.64635 10.5287 7.65836L11.0474 7.8837C11.0736 7.89509 11.1035 7.89451 11.1292 7.88211L11.5946 7.65811C11.6194 7.64615 11.6481 7.64516 11.6737 7.65539L12.2494 7.88536C12.2754 7.89572 12.3045 7.89456 12.3295 7.88218L12.7755 7.66155C12.8037 7.6476 12.8369 7.64798 12.8648 7.66257L13.2738 7.87678C13.3034 7.89227 13.3388 7.89169 13.3679 7.87522L13.5806 7.75472C13.6565 7.71176 13.7466 7.78134 13.7242 7.86556L13.6797 8.03279H8.32239L8.27437 7.88238Z" fill="#5277B9"/>
<path fill-rule="evenodd" clip-rule="evenodd" d="M8.27249 8.47531C8.24592 8.38905 8.33985 8.31555 8.41719 8.36207L8.58718 8.46431C8.61568 8.48145 8.65091 8.48303 8.68082 8.46851L9.11944 8.25565C9.15254 8.23958 9.19184 8.24334 9.2213 8.26538L9.69928 8.62293L10.3611 8.2536C10.3883 8.23843 10.421 8.23703 10.4494 8.2498L10.9443 8.47263C10.9712 8.48475 11.0022 8.48414 11.0286 8.47096L11.4724 8.24951C11.4979 8.23679 11.5277 8.23575 11.554 8.24664L12.1041 8.47439C12.1307 8.48543 12.1609 8.4842 12.1866 8.47103L12.6114 8.25317C12.6403 8.23835 12.6747 8.23876 12.7032 8.25425L13.092 8.46529C13.1223 8.48173 13.159 8.48112 13.1888 8.46366L13.3838 8.34914C13.4592 8.30485 13.5506 8.37366 13.5289 8.45839L13.4867 8.62293H8.31796L8.27249 8.47531Z" fill="#5277B9"/>
<path fill-rule="evenodd" clip-rule="evenodd" d="M8.37082 8.86877C8.34425 8.78251 8.43818 8.70901 8.51552 8.75553L8.68551 8.85777C8.71401 8.87491 8.74923 8.87649 8.77915 8.86197L9.21777 8.64911C9.25087 8.63305 9.29017 8.6368 9.31963 8.65884L9.79761 9.0164L10.4594 8.64706C10.4866 8.6319 10.5194 8.63049 10.5478 8.64327L11.0426 8.86609C11.0696 8.87822 11.1005 8.8776 11.1269 8.86442L11.5708 8.64297C11.5962 8.63026 11.626 8.62921 11.6523 8.64011L12.2024 8.86785C12.229 8.87889 12.2592 8.87766 12.2849 8.86449L12.7097 8.64664C12.7387 8.63182 12.773 8.63222 12.8016 8.64771L13.1904 8.85875C13.2207 8.8752 13.2574 8.87458 13.2871 8.85712L13.4821 8.7426C13.5576 8.69832 13.6489 8.76713 13.6272 8.85185L13.585 9.0164H8.41629L8.37082 8.86877Z" fill="#5277B9"/>
<path fill-rule="evenodd" clip-rule="evenodd" d="M8.96097 9.26221C8.9344 9.17595 9.02832 9.10244 9.10567 9.14896L9.27566 9.25121C9.30415 9.26835 9.33938 9.26993 9.3693 9.25541L9.80792 9.04254C9.84102 9.02648 9.88032 9.03023 9.90978 9.05227L10.3878 9.40983L11.0496 9.0405C11.0768 9.02533 11.1095 9.02392 11.1379 9.0367L11.6328 9.25953C11.6597 9.27165 11.6907 9.27104 11.7171 9.25785L12.1609 9.0364C12.1864 9.02369 12.2161 9.02264 12.2425 9.03354L12.7925 9.26128C12.8192 9.27232 12.8494 9.27109 12.875 9.25793L13.2999 9.04007C13.3288 9.02525 13.3632 9.02565 13.3917 9.04115L13.7805 9.25218C13.8108 9.26863 13.8475 9.26801 13.8772 9.25056L14.0723 9.13603C14.1477 9.09175 14.2391 9.16056 14.2174 9.24528L14.1752 9.40983H9.00644L8.96097 9.26221Z" fill="#5277B9"/>
<path fill-rule="evenodd" clip-rule="evenodd" d="M8.1741 9.75403C8.14754 9.66777 8.24146 9.59426 8.3188 9.64078L8.48879 9.74303C8.51729 9.76017 8.55252 9.76175 8.58244 9.74723L9.02105 9.53436C9.05415 9.5183 9.09345 9.52205 9.12291 9.54409L9.60089 9.90165L10.2627 9.53232C10.2899 9.51715 10.3227 9.51574 10.351 9.52852L10.8459 9.75135C10.8728 9.76347 10.9038 9.76286 10.9302 9.74967L11.374 9.52823C11.3995 9.51551 11.4293 9.51446 11.4556 9.52536L12.0057 9.7531C12.0323 9.76414 12.0625 9.76292 12.0882 9.74975L12.513 9.53189C12.5419 9.51707 12.5763 9.51747 12.6048 9.53297L12.9936 9.74401C13.0239 9.76045 13.0606 9.75983 13.0904 9.74238L13.2854 9.62786C13.3608 9.58357 13.4522 9.65238 13.4305 9.73711L13.3883 9.90165H8.21958L8.1741 9.75403Z" fill="#5277B9"/>
<path d="M9.33362 5.72293H9.83362L9.82203 7.69898C9.90597 7.96504 10.0257 8.06899 10.2113 8.06899V8.56899C9.78911 8.56899 9.49043 8.30975 9.33362 7.7742V5.72293Z" fill="#FF0000"/>
<path d="M12.5959 5.72293H12.0959L12.1075 7.69898C12.0235 7.96504 11.9038 8.06899 11.7182 8.06899V8.56899C12.1404 8.56899 12.4391 8.30975 12.5959 7.7742V5.72293Z" fill="#FF0000"/>
<path fill-rule="evenodd" clip-rule="evenodd" d="M11.3624 4.45432C11.3624 4.45432 10.533 4.23743 10.533 4.7874C10.533 5.33737 10.533 6.51847 10.533 6.51847L11.4999 6.80564V5.39074C11.4999 5.39074 11.0165 5.09531 11.0165 4.86428C11.0165 4.63324 11.3624 4.45432 11.3624 4.45432Z" fill="#FF0000"/>
<path d="M9.96686 7.44533L10.2822 7.04236" stroke="black" stroke-width="0.5"/>
<path d="M10.2544 7.43204L9.95227 7.02667" stroke="black" stroke-width="0.5"/>
<path d="M10.4193 7.44533L10.7347 7.04236" stroke="black" stroke-width="0.5"/>
<path d="M10.7069 7.43204L10.4047 7.02667" stroke="black" stroke-width="0.5"/>
<path d="M10.8521 7.44533L11.1674 7.04236" stroke="black" stroke-width="0.5"/>
<path d="M11.1396 7.43204L10.8375 7.02667" stroke="black" stroke-width="0.5"/>
<path d="M11.3045 7.44533L11.6198 7.04236" stroke="black" stroke-width="0.5"/>
<path d="M11.5921 7.43204L11.2899 7.02667" stroke="black" stroke-width="0.5"/>
<path d="M11.757 7.44533L12.0724 7.04236" stroke="black" stroke-width="0.5"/>
<path d="M12.0446 7.43204L11.7424 7.02667" stroke="black" stroke-width="0.5"/>
</g>
</g>
</g>
<rect x="3" y="1" width="16" height="12" fill="url(#paint0_linear)" style="mix-blend-mode:overlay"/>
</g>
<defs>
<filter id="filter0_d" x="0" y="0" width="22" height="18" filterUnits="userSpaceOnUse" color-interpolation-filters="sRGB">
<feFlood flood-opacity="0" result="BackgroundImageFix"/>
<feColorMatrix in="SourceAlpha" type="matrix" values="0 0 0 0 0 0 0 0 0 0 0 0 0 0 0 0 0 0 127 0" result="hardAlpha"/>
<feOffset dy="2"/>
<feGaussianBlur stdDeviation="1.5"/>
<feColorMatrix type="matrix" values="0 0 0 0 0 0 0 0 0 0 0 0 0 0 0 0 0 0 0.1 0"/>
<feBlend mode="normal" in2="BackgroundImageFix" result="effect1_dropShadow"/>
<feBlend mode="normal" in="SourceGraphic" in2="effect1_dropShadow" result="shape"/>
</filter>
<linearGradient id="paint0_linear" x1="11" y1="1" x2="11" y2="13" gradientUnits="userSpaceOnUse">
<stop stop-color="white" stop-opacity="0.7"/>
<stop offset="1" stop-opacity="0.3"/>
</linearGradient>
</defs>
</svg>
