<svg width="22" height="18" viewBox="0 0 22 18" fill="none" xmlns="http://www.w3.org/2000/svg">
<g filter="url(#filter0_d)">
<mask id="mask0" style="mask-type:alpha" maskUnits="userSpaceOnUse" x="3" y="1" width="16" height="12">
<rect x="3" y="1" width="16" height="12" fill="white"/>
</mask>
<g mask="url(#mask0)">
<rect x="3" y="1" width="16" height="12" fill="#E11C1B"/>
<path fill-rule="evenodd" clip-rule="evenodd" d="M3 1L19 13H3V1Z" fill="#1D1D1D"/>
<path fill-rule="evenodd" clip-rule="evenodd" d="M6.54169 10.1342H7.2076L7.52429 9.38757L7.89653 10.1292L8.57879 10.1665L7.99572 10.8011L8.29511 11.5657L7.55397 11.1401L6.86958 11.5695L7.12775 10.8272L6.54169 10.1342Z" fill="#EEEEF6"/>
<path fill-rule="evenodd" clip-rule="evenodd" d="M4.54169 8.13422H5.2076L5.52429 7.38757L5.89653 8.12919L6.57879 8.1665L5.99572 8.80113L6.29511 9.56566L5.55397 9.14008L4.86958 9.56947L5.12775 8.82715L4.54169 8.13422Z" fill="#EEEEF6"/>
<path fill-rule="evenodd" clip-rule="evenodd" d="M6.54169 7.13422H7.2076L7.52429 6.38757L7.89653 7.12919L8.57879 7.1665L7.99572 7.80113L8.29511 8.56566L7.55397 8.14008L6.86958 8.56947L7.12775 7.82715L6.54169 7.13422Z" fill="#EEEEF6"/>
<path fill-rule="evenodd" clip-rule="evenodd" d="M7.85559 9.28212L8.31333 9.2669L8.47856 8.7948L8.66407 9.26438L9.08527 9.30487L8.70598 9.57304L9.01188 10.0479L8.48116 9.84942L8.02117 10.0543L8.26409 9.5861L7.85559 9.28212Z" fill="#EEEEF6"/>
<path fill-rule="evenodd" clip-rule="evenodd" d="M8.85559 8.28212L9.31333 8.2669L9.47856 7.7948L9.66407 8.26438L10.0853 8.30487L9.70598 8.57304L10.0119 9.04793L9.48116 8.84942L9.02117 9.05431L9.26409 8.5861L8.85559 8.28212Z" fill="#EEEEF6"/>
<path fill-rule="evenodd" clip-rule="evenodd" d="M13.5419 2C13.5419 2 11.9976 2.3081 12.431 4.45492H12.2107C12.2107 4.45492 12.2287 4.3429 12.0169 4.27721C11.805 4.21153 11.8474 4.23619 11.7381 4.27721C11.6288 4.31824 10.9637 4.27721 10.9637 4.27721V4.35939L11.4344 4.56265C11.4344 4.56265 11.4228 4.7319 11.6195 4.82569C11.8163 4.91947 11.9592 4.96466 11.9592 4.96466C11.9592 4.96466 11.9883 5.15143 11.8039 5.15143C11.6195 5.15143 10.878 4.91106 10.6143 5.50162C10.3505 6.09218 10 6.52548 10 6.52548H10.3955L10.2893 6.65736H10.7346L10.6143 6.72568C10.6143 6.72568 11.1651 6.71955 11.2081 6.65736C11.251 6.59516 11.2081 6.82597 11.2081 6.82597C11.2081 6.82597 11.7417 6.58228 11.771 6.52548L12.02 6.69634L12.091 6.4072L12.3583 6.52548L12.431 6.24999C12.431 6.24999 13.187 7.51439 13.7605 7.44182V7.23197L14.2837 7.44182L14.3502 7.3485C14.3502 7.3485 14.9823 7.60627 15.1769 7.63016L15.0381 7.3485H15.1769L15.0381 6.82597H15.1769L14.8993 6.4072L14.9771 6.29382L14.9256 6.14481C14.9256 6.14481 15.9433 6.46902 15.8974 6.98484C15.8515 7.50066 15.3983 7.70881 15.3983 7.70881C15.3983 7.70881 14.9636 7.84196 14.571 7.81331C14.571 7.81331 14.8827 8.18144 15.5421 8.0567C16.2015 7.93196 16.42 7.2926 16.42 7.2926C16.42 7.2926 16.7224 7.92061 16.4735 8.25082C16.2245 8.58102 15.1163 8.81285 15.1163 8.81285C15.1163 8.81285 15.5173 9.04795 15.8974 8.98771C16.2776 8.92747 16.8688 8.59658 16.9834 8.0567C17.0981 7.51682 16.588 6.52059 16.357 6.4072L16.2657 6.06157L16.4735 6.14481L16.0473 5.10258L16.2539 5.14786L15.6509 4.39778L15.817 4.34664L14.9839 3.74783L15.2332 3.68198C15.2332 3.68198 14.6174 3.36993 13.915 3.74783L13.9217 3.61727L13.7371 3.64848L13.748 3.50486L13.9315 3.22691L13.6561 3.12079C13.6561 3.12079 13.8787 2.78634 13.8453 2.79093C13.8453 2.79093 13.5972 2.86214 13.6112 2.83229C13.6112 2.83229 13.7364 2.50995 13.7035 2.51858C13.7035 2.51858 13.4157 2.61645 13.4583 2.56748L13.5689 2.37055L13.5419 2Z" fill="#FBCD17"/>
</g>
<rect x="3" y="1" width="16" height="12" fill="url(#paint0_linear)" style="mix-blend-mode:overlay"/>
</g>
<defs>
<filter id="filter0_d" x="0" y="0" width="22" height="18" filterUnits="userSpaceOnUse" color-interpolation-filters="sRGB">
<feFlood flood-opacity="0" result="BackgroundImageFix"/>
<feColorMatrix in="SourceAlpha" type="matrix" values="0 0 0 0 0 0 0 0 0 0 0 0 0 0 0 0 0 0 127 0" result="hardAlpha"/>
<feOffset dy="2"/>
<feGaussianBlur stdDeviation="1.5"/>
<feColorMatrix type="matrix" values="0 0 0 0 0 0 0 0 0 0 0 0 0 0 0 0 0 0 0.1 0"/>
<feBlend mode="normal" in2="BackgroundImageFix" result="effect1_dropShadow"/>
<feBlend mode="normal" in="SourceGraphic" in2="effect1_dropShadow" result="shape"/>
</filter>
<linearGradient id="paint0_linear" x1="11" y1="1" x2="11" y2="13" gradientUnits="userSpaceOnUse">
<stop stop-color="white" stop-opacity="0.7"/>
<stop offset="1" stop-opacity="0.3"/>
</linearGradient>
</defs>
</svg>
