<svg width="22" height="18" viewBox="0 0 22 18" fill="none" xmlns="http://www.w3.org/2000/svg">
<g filter="url(#filter0_d)">
<mask id="mask0" style="mask-type:alpha" maskUnits="userSpaceOnUse" x="3" y="1" width="16" height="12">
<rect x="3" y="1" width="16" height="12" fill="white"/>
</mask>
<g mask="url(#mask0)">
<path fill-rule="evenodd" clip-rule="evenodd" d="M3 1V13H19V1H3Z" fill="#BF2714"/>
<mask id="mask1" style="mask-type:alpha" maskUnits="userSpaceOnUse" x="3" y="1" width="16" height="12">
<path fill-rule="evenodd" clip-rule="evenodd" d="M3 1V13H19V1H3Z" fill="white"/>
</mask>
<g mask="url(#mask1)">
<path fill-rule="evenodd" clip-rule="evenodd" d="M3 0V7H19V0H3Z" fill="#3D58DB"/>
</g>
<path fill-rule="evenodd" clip-rule="evenodd" d="M3 1V13L12 7L3 1Z" fill="#F7FCFF"/>
<mask id="mask2" style="mask-type:alpha" maskUnits="userSpaceOnUse" x="3" y="1" width="9" height="12">
<path fill-rule="evenodd" clip-rule="evenodd" d="M3 1V13L12 7L3 1Z" fill="white"/>
</mask>
<g mask="url(#mask2)">
<path fill-rule="evenodd" clip-rule="evenodd" d="M9.80251 6.46007L10.4405 6.70608L10.82 6.25942L10.8301 6.8568L11.4172 7.04777L10.7992 7.25754L10.8399 7.80649L10.4329 7.38598L9.79308 7.50768L10.1708 7.02335L9.80251 6.46007Z" fill="#FECA00"/>
<path fill-rule="evenodd" clip-rule="evenodd" d="M3.80251 9.46007L4.3889 9.71932L4.82001 9.25942L4.77852 9.87004L5.4172 10.0478L4.74765 10.2708L4.83993 10.8065L4.37375 10.4237L3.79308 10.5077L4.11927 10.0366L3.80251 9.46007Z" fill="#FECA00"/>
<path fill-rule="evenodd" clip-rule="evenodd" d="M3.80251 3.46007L4.45139 3.69918L4.82001 3.25942L4.84101 3.8499L5.4172 4.04777L4.81014 4.25064L4.83993 4.80649L4.43624 4.40355L3.79308 4.50768L4.18176 4.01645L3.80251 3.46007Z" fill="#FECA00"/>
<path fill-rule="evenodd" clip-rule="evenodd" d="M7.06073 8.26642C7.75109 8.26642 8.31073 7.70677 8.31073 7.01642C8.31073 6.32606 7.75109 5.76642 7.06073 5.76642C6.37037 5.76642 5.81073 6.32606 5.81073 7.01642C5.81073 7.70677 6.37037 8.26642 7.06073 8.26642Z" fill="#FECA00"/>
<path fill-rule="evenodd" clip-rule="evenodd" d="M6.91298 5.11986L6.98015 5.92286C6.98657 5.97162 7.02409 6.01047 7.0726 6.01859C7.13353 6.02879 7.1912 5.98766 7.2014 5.92672L7.29006 5.12644C7.29161 5.11713 7.29248 5.10772 7.29264 5.09829C7.29448 4.99301 7.21062 4.90617 7.10534 4.90433C7.0959 4.90416 7.08647 4.9047 7.07711 4.90593C6.97272 4.91968 6.89923 5.01546 6.91298 5.11986ZM6.70393 5.50794L6.80773 5.85726C6.81737 5.88968 6.84975 5.90976 6.88638 5.9033C6.9164 5.89621 6.93498 5.86612 6.92789 5.8361L6.84505 5.48552C6.83552 5.4452 6.79646 5.4191 6.75556 5.42572C6.75283 5.42616 6.75013 5.42678 6.74747 5.42757C6.71325 5.43773 6.69376 5.47372 6.70393 5.50794ZM7.26534 5.87181C7.2572 5.90157 7.27472 5.93229 7.30775 5.94121C7.34086 5.94816 7.37392 5.92922 7.38468 5.89715L7.50062 5.55167C7.51197 5.51782 7.49375 5.48118 7.4599 5.46982C7.45728 5.46894 7.4546 5.46823 7.45188 5.46769C7.41124 5.45965 7.3713 5.48438 7.36037 5.52434L7.26534 5.87181ZM8.3039 5.52073L7.74504 6.13783C7.7151 6.17685 7.71416 6.23085 7.74272 6.27089C7.77859 6.32119 7.84846 6.33289 7.89876 6.29701L8.56587 5.79202C8.57356 5.78654 8.58082 5.78049 8.58761 5.77394C8.66335 5.70079 8.66546 5.58009 8.59231 5.50434C8.58576 5.49756 8.57871 5.49127 8.57122 5.48552C8.48768 5.42142 8.36799 5.43719 8.3039 5.52073ZM8.13389 6.8307L8.96837 6.76612C9.07276 6.75237 9.16854 6.82585 9.18229 6.93025C9.18352 6.93961 9.18406 6.94904 9.18389 6.95847C9.18206 7.06376 9.09522 7.14762 8.98993 7.14578C8.9805 7.14562 8.97109 7.14475 8.96178 7.14319L8.13003 7.05195C8.06909 7.04175 8.02796 6.98408 8.03816 6.92315C8.04628 6.87464 8.08513 6.83712 8.13389 6.8307ZM8.56697 8.1598L7.91891 7.59559C7.87989 7.56565 7.82589 7.56471 7.78585 7.59327C7.73555 7.62914 7.72386 7.69901 7.75973 7.74931L8.29569 8.42177C8.30117 8.42946 8.30721 8.43672 8.31376 8.44351C8.38691 8.51925 8.50761 8.52136 8.58336 8.44821C8.59015 8.44166 8.59644 8.43461 8.60218 8.42712C8.66628 8.34358 8.65052 8.22389 8.56697 8.1598ZM7.22604 7.98444L7.27552 8.82695C7.28927 8.93135 7.21579 9.02713 7.11139 9.04088C7.10203 9.04211 7.0926 9.04264 7.08316 9.04248C6.97788 9.04064 6.89402 8.9538 6.89586 8.84852C6.89602 8.83908 6.89689 8.82967 6.89845 8.82037L7.00479 7.98058C7.01499 7.91964 7.07266 7.87851 7.1336 7.88871C7.18211 7.89683 7.21962 7.93568 7.22604 7.98444ZM5.91051 8.4396L6.46115 7.76946C6.49109 7.73044 6.49203 7.67644 6.46348 7.6364C6.4276 7.5861 6.35774 7.57441 6.30744 7.61028L5.64853 8.16831C5.64085 8.17379 5.63358 8.17983 5.62679 8.18639C5.55105 8.25954 5.54894 8.38024 5.62209 8.45598C5.62864 8.46277 5.63569 8.46906 5.64318 8.47481C5.72672 8.53891 5.84641 8.52314 5.91051 8.4396ZM6.07231 7.07659L5.2327 7.14578C5.1283 7.15953 5.03253 7.08604 5.01878 6.98165C5.01755 6.97229 5.01701 6.96286 5.01717 6.95342C5.01901 6.84814 5.10585 6.76428 5.21113 6.76612C5.22057 6.76628 5.22998 6.76715 5.23928 6.76871L6.07617 6.85534C6.13711 6.86554 6.17824 6.92321 6.16804 6.98415C6.15992 7.03266 6.12107 7.07017 6.07231 7.07659ZM5.57517 5.76106L6.28728 6.3117C6.3263 6.34164 6.3803 6.34258 6.42034 6.31403C6.47064 6.27815 6.48234 6.20829 6.44646 6.15799L5.84645 5.49908C5.84097 5.4914 5.83493 5.48413 5.82838 5.47734C5.75523 5.4016 5.63453 5.39949 5.55878 5.47264C5.55199 5.47919 5.5457 5.48624 5.53996 5.49373C5.47586 5.57727 5.49162 5.69696 5.57517 5.76106ZM7.66951 5.96953L7.84311 5.64912C7.86012 5.61773 7.89935 5.60607 7.93074 5.62308C7.93317 5.6244 7.93552 5.62587 7.93776 5.62749C7.97136 5.65173 7.98052 5.69781 7.95875 5.73306L7.76943 6.03953C7.75322 6.06578 7.7188 6.07391 7.69256 6.0577C7.6621 6.03637 7.6534 5.99927 7.66951 5.96953ZM8.54881 6.55448L8.19949 6.65828C8.16706 6.66792 8.14698 6.7003 8.15344 6.73693C8.16054 6.76695 8.19063 6.78553 8.22065 6.77844L8.57122 6.6956C8.61154 6.68607 8.63765 6.64701 8.63103 6.60611C8.63058 6.60338 8.62997 6.60068 8.62918 6.59802C8.61901 6.5638 8.58303 6.54431 8.54881 6.55448ZM8.08722 7.52006L8.40762 7.69366C8.43901 7.71067 8.45067 7.7499 8.43366 7.78129C8.43234 7.78372 8.43087 7.78607 8.42925 7.78831C8.40501 7.82191 8.35894 7.83107 8.32369 7.8093L8.01721 7.61998C7.99097 7.60377 7.98284 7.56935 7.99905 7.54311C8.02038 7.51265 8.05747 7.50395 8.08722 7.52006ZM7.50227 8.39936L7.39846 8.05004C7.38882 8.01761 7.35644 7.99753 7.31982 8.00399C7.2898 8.01109 7.27121 8.04118 7.2783 8.0712L7.36115 8.42177C7.37068 8.46209 7.40974 8.4882 7.45063 8.48158C7.45337 8.48113 7.45607 8.48052 7.45872 8.47973C7.49294 8.46956 7.51244 8.43358 7.50227 8.39936ZM6.53668 7.93777L6.36308 8.25817C6.34608 8.28956 6.30685 8.30122 6.27546 8.28421C6.27302 8.2829 6.27068 8.28142 6.26843 8.2798C6.23483 8.25556 6.22567 8.20949 6.24745 8.17424L6.43676 7.86776C6.45297 7.84152 6.48739 7.83339 6.51363 7.8496C6.5441 7.87093 6.5528 7.90802 6.53668 7.93777ZM5.65739 7.35282L6.00671 7.24901C6.03913 7.23937 6.05921 7.20699 6.05275 7.17037C6.04566 7.14035 6.01557 7.12176 5.98555 7.12885L5.63497 7.2117C5.59465 7.22123 5.56855 7.26029 5.57517 7.30118C5.57561 7.30392 5.57623 7.30662 5.57701 7.30927C5.58718 7.34349 5.62317 7.36299 5.65739 7.35282ZM6.11898 6.38723L5.79857 6.21363C5.76718 6.19663 5.75552 6.1574 5.77253 6.12601C5.77385 6.12357 5.77532 6.12123 5.77694 6.11898C5.80118 6.08538 5.84726 6.07622 5.8825 6.098L6.18898 6.28731C6.21523 6.30352 6.22336 6.33794 6.20715 6.36418C6.18582 6.39465 6.14872 6.40335 6.11898 6.38723ZM7.98279 6.30339C7.956 6.31868 7.94667 6.35279 7.96371 6.38246C7.98221 6.41078 8.01898 6.42077 8.04926 6.4057L8.37553 6.24339C8.4075 6.22749 8.42052 6.18869 8.40462 6.15672C8.40338 6.15425 8.40199 6.15185 8.40045 6.14955C8.3774 6.11513 8.33167 6.10436 8.29569 6.12489L7.98279 6.30339ZM8.11553 7.1583C8.12446 7.12527 8.15518 7.10775 8.18493 7.11589L8.5324 7.21092C8.57237 7.22185 8.59709 7.26179 8.58905 7.30243C8.58851 7.30515 8.5878 7.30783 8.58692 7.31045C8.57556 7.3443 8.53892 7.36252 8.50508 7.35117L8.1596 7.23523C8.12752 7.22447 8.10859 7.19141 8.11553 7.1583ZM7.75335 7.83334C7.73806 7.80655 7.70395 7.79722 7.67429 7.81426C7.64597 7.83276 7.63598 7.86953 7.65104 7.89981L7.81336 8.22608C7.82926 8.25805 7.86806 8.27107 7.90002 8.25517C7.9025 8.25393 7.90489 8.25254 7.90719 8.251C7.94162 8.22795 7.95238 8.18222 7.93185 8.14624L7.75335 7.83334ZM6.89845 7.96608C6.93147 7.97501 6.94899 8.00573 6.94086 8.03548L6.84583 8.38296C6.8349 8.42292 6.79495 8.44764 6.75431 8.4396C6.75159 8.43906 6.74892 8.43835 6.74629 8.43747C6.71245 8.42611 6.69422 8.38947 6.70558 8.35563L6.82151 8.01015C6.83227 7.97808 6.86534 7.95914 6.89845 7.96608ZM6.2234 7.6039C6.2502 7.58861 6.25953 7.5545 6.24249 7.52484C6.22399 7.49652 6.18722 7.48653 6.15693 7.50159L5.83066 7.66391C5.7987 7.67981 5.78568 7.71861 5.80158 7.75057C5.80281 7.75305 5.8042 7.75544 5.80574 7.75774C5.82879 7.79217 5.87452 7.80293 5.91051 7.7824L6.2234 7.6039ZM6.09066 6.749C6.08174 6.78202 6.05102 6.79954 6.02126 6.79141L5.67379 6.69638C5.63383 6.68545 5.6091 6.6455 5.61714 6.60486C5.61768 6.60214 5.61839 6.59947 5.61927 6.59684C5.63063 6.563 5.66727 6.54477 5.70112 6.55613L6.0466 6.67206C6.07867 6.68282 6.09761 6.71589 6.09066 6.749ZM6.45284 6.07395C6.46813 6.10075 6.50224 6.11008 6.53191 6.09304C6.56023 6.07454 6.57022 6.03777 6.55515 6.00748L6.39284 5.68121C6.37694 5.64925 6.33814 5.63623 6.30617 5.65213C6.3037 5.65336 6.3013 5.65475 6.299 5.65629C6.26458 5.67934 6.25381 5.72507 6.27434 5.76106L6.45284 6.07395Z" fill="#FECA00"/>
</g>
</g>
<rect x="3" y="1" width="16" height="12" fill="url(#paint0_linear)" style="mix-blend-mode:overlay"/>
</g>
<defs>
<filter id="filter0_d" x="0" y="0" width="22" height="18" filterUnits="userSpaceOnUse" color-interpolation-filters="sRGB">
<feFlood flood-opacity="0" result="BackgroundImageFix"/>
<feColorMatrix in="SourceAlpha" type="matrix" values="0 0 0 0 0 0 0 0 0 0 0 0 0 0 0 0 0 0 127 0" result="hardAlpha"/>
<feOffset dy="2"/>
<feGaussianBlur stdDeviation="1.5"/>
<feColorMatrix type="matrix" values="0 0 0 0 0 0 0 0 0 0 0 0 0 0 0 0 0 0 0.1 0"/>
<feBlend mode="normal" in2="BackgroundImageFix" result="effect1_dropShadow"/>
<feBlend mode="normal" in="SourceGraphic" in2="effect1_dropShadow" result="shape"/>
</filter>
<linearGradient id="paint0_linear" x1="11" y1="1" x2="11" y2="13" gradientUnits="userSpaceOnUse">
<stop stop-color="white" stop-opacity="0.7"/>
<stop offset="1" stop-opacity="0.3"/>
</linearGradient>
</defs>
</svg>
