<svg width="22" height="18" viewBox="0 0 22 18" fill="none" xmlns="http://www.w3.org/2000/svg">
<g filter="url(#filter0_d)">
<mask id="mask0" style="mask-type:alpha" maskUnits="userSpaceOnUse" x="3" y="1" width="16" height="12">
<rect x="3" y="1" width="16" height="12" fill="white"/>
</mask>
<g mask="url(#mask0)">
<path fill-rule="evenodd" clip-rule="evenodd" d="M3 1V13H19V1H3Z" fill="#2E42A5"/>
<mask id="mask1" style="mask-type:alpha" maskUnits="userSpaceOnUse" x="3" y="1" width="16" height="12">
<path fill-rule="evenodd" clip-rule="evenodd" d="M3 1V13H19V1H3Z" fill="white"/>
</mask>
<g mask="url(#mask1)">
<path fill-rule="evenodd" clip-rule="evenodd" d="M13.308 6.83454C13.308 6.83454 13.3574 7.35452 13.2492 7.64916C13.1409 7.9438 13.0859 8.11483 13.0859 7.92649C13.0859 7.73816 13.0099 7.58891 12.9488 7.58891C12.8876 7.58891 12.9359 7.77567 12.8745 7.77567C12.813 7.77567 12.6013 7.80778 12.6013 7.69834C12.6013 7.58891 12.5735 7.99193 12.7108 8.02797C12.8482 8.06401 12.6441 8.17585 12.553 8.14121C12.553 8.14121 12.9278 8.25692 13.0747 8.35552C13.0747 8.35552 13.5152 8.87795 13.9272 8.81422C13.9272 8.81422 13.3662 8.63023 13.465 8.2787C13.5639 7.92717 13.9272 7.87632 13.9272 7.87632C13.9272 7.87632 14.0977 7.93049 14.0926 8.07239C14.0875 8.21429 14.2173 8.02797 14.2173 8.02797C14.2173 8.02797 14.2382 7.84869 14.2152 7.80494C14.1921 7.76119 14.6057 7.6765 14.6318 7.49188C14.6318 7.49188 14.2092 7.51023 14.1802 7.46281C14.1512 7.41538 14.311 7.34102 14.261 7.24857C14.211 7.15611 13.465 7.77567 13.465 7.77567C13.465 7.77567 13.7226 7.35397 13.7226 7.12752C13.7226 6.90106 13.6572 6.74631 13.465 6.74631C13.2729 6.74631 13.308 6.83454 13.308 6.83454Z" fill="#5EAA22"/>
<path fill-rule="evenodd" clip-rule="evenodd" d="M17.1917 6.95814C17.1912 6.95892 17.1922 6.95963 17.1929 6.95901C17.2204 6.93324 17.3918 6.78331 17.5353 6.9017C17.6919 7.03084 17.4564 7.15669 17.4564 7.15669C17.4564 7.15669 17.5665 7.25813 17.6924 7.25813C17.8183 7.25813 17.8492 7.15669 17.8492 7.15669C17.8492 7.15669 17.8588 7.38244 18.2694 7.46792C18.2694 7.46792 18.4159 7.26809 18.2694 7.15869C18.2694 7.15869 18.4425 7.12458 18.4299 6.99141C18.4299 6.99141 18.2877 7.03746 18.1862 6.93164C18.0847 6.82581 17.887 6.77701 17.7432 6.80141C17.3782 6.67635 17.2139 6.9214 17.1917 6.95814Z" fill="#5EAA22"/>
<path fill-rule="evenodd" clip-rule="evenodd" d="M14.7018 8.09713C14.7018 8.09713 15.1264 8.85587 14.8611 9.01309C14.5957 9.17031 16.1229 9.05847 16.2668 9.01309C16.4107 8.96771 16.2378 8.72848 16.0782 8.66207C15.9186 8.59565 15.2625 8.37469 15.088 8.20804C14.9135 8.04139 15.02 7.98225 15.1606 7.81774C15.3012 7.65323 15.8216 7.58745 15.8216 7.43369C15.8216 7.27992 16.1517 6.64578 16.3824 6.59793C16.6131 6.55009 16.4885 6.47474 16.4354 6.47474C16.3824 6.47474 16.0634 6.78707 15.9425 6.73072C15.8216 6.67437 15.8068 6.67833 15.9425 6.54213C16.0782 6.40592 16.1804 6.24915 16.001 6.36195C15.8216 6.47474 15.5258 6.65326 15.3837 6.65326C15.2415 6.65326 14.7354 6.59237 14.7982 6.73072C14.8611 6.86907 14.8877 7.10921 15.1606 7.27145C15.4335 7.43369 15.3149 7.55241 15.088 7.70874C14.8611 7.86508 14.7018 8.09713 14.7018 8.09713Z" fill="#96877D"/>
<path d="M17.5193 7.09378L16.7102 8.63532C16.7102 8.63532 16.6866 9.07077 17.2651 8.78061C17.8435 8.49045 17.8207 8.28465 17.9875 8.28465C18.1543 8.28465 18.2072 8.19667 18.2072 8.19667L18.0961 8.11368C18.0961 8.11368 18.0833 7.96231 18.1536 7.92832C18.1536 7.92832 18.0156 7.85607 17.9959 7.91639C17.9762 7.97671 17.8788 7.79023 17.9339 7.79023C17.9339 7.79023 17.8122 7.97744 17.7865 8.05049C17.7865 8.05049 17.6104 7.98246 17.6188 7.66729C17.6273 7.35212 17.5193 7.09378 17.5193 7.09378Z" fill="#FFD018"/>
<path d="M13.6682 6.84967C13.6682 6.84967 13.2562 6.94078 13.3006 7.0356C13.3451 7.13042 13.4105 7.03304 13.2088 7.14731C13.2088 7.14731 12.8545 7.4076 12.7772 7.3794C12.7 7.35119 12.8319 7.44496 12.8319 7.14731C12.8319 6.84967 12.6262 7.09195 12.8319 6.89326C13.0377 6.69456 13.1099 6.84967 13.2088 6.73533C13.3078 6.621 13.2188 6.6818 13.4873 6.6818C13.7557 6.6818 13.6682 6.84967 13.6682 6.84967Z" fill="#FFD018"/>
<path d="M14.9253 8.38171C14.9253 8.38171 13.7718 9.24289 13.5412 9.30717C13.3107 9.37146 14.0154 9.28949 14.1876 9.1758C14.3597 9.06211 14.9253 8.38171 14.9253 8.38171Z" fill="#FFD018"/>
<path fill-rule="evenodd" clip-rule="evenodd" d="M17.2123 9.89243C17.2123 9.89243 17.323 10.5709 17.034 10.5042C16.7449 10.4374 16.625 10.4028 16.625 10.4028C16.625 10.4028 16.731 10.7189 16.8825 10.7189C16.8825 10.7189 17.1406 11.1967 17.0413 11.3476C17.0413 11.3476 17.4859 11.005 17.414 10.7325C17.3421 10.4601 17.5289 10.7773 17.5289 10.7773C17.5289 10.7773 17.6926 10.8524 17.8108 10.7686C17.9291 10.6848 17.8093 10.722 17.6911 10.5624C17.5728 10.4028 17.602 9.95467 17.2422 9.72239C16.8825 9.49012 16.7987 9.49754 16.7987 9.49754C16.7987 9.49754 16.5338 9.08601 16.6925 9.11322C16.6925 9.11322 17.8301 9.48369 17.8597 9.57864C17.8892 9.67359 18.1909 9.65619 18.0401 9.38471C17.8892 9.11322 17.0761 8.94961 16.9793 8.87305C16.8825 8.79648 16.9725 8.5061 16.7987 8.44284C16.625 8.37958 16.1502 7.9307 16.1505 7.71438C16.1508 7.49806 15.9273 7.39624 15.733 7.39624C15.5388 7.39624 15.173 7.34293 15.0185 7.34293C14.8639 7.34293 14.7199 7.58851 14.8692 7.58851C15.0185 7.58851 14.891 8.04829 14.641 8.14878C14.391 8.24926 14.1978 8.39369 13.9123 8.39369C13.6269 8.39369 14.3164 8.6275 14.4263 8.53517C14.5362 8.44284 14.5001 8.30526 14.8692 8.14878C15.2383 7.9923 15.5905 7.89965 15.5459 8.02421C15.5013 8.14878 15.6151 8.35713 15.789 8.28172C15.9628 8.20631 16.0186 8.01583 16.0186 8.14878C16.0186 8.28172 16.2852 8.96454 16.4889 9.23104C16.6925 9.49754 17.2123 9.89243 17.2123 9.89243Z" fill="#5EAA22"/>
<path d="M14.7856 7.39914C14.7856 7.39914 14.6503 7.60385 14.7856 7.60385C14.9208 7.60385 15.1384 7.60385 15.0058 7.5015C14.8733 7.39914 14.7856 7.39914 14.7856 7.39914Z" fill="#FFD018"/>
<path d="M15.2375 7.39421C15.2375 7.39421 15.2381 7.53032 15.3319 7.53032C15.4256 7.53032 15.509 7.66642 15.509 7.53032C15.509 7.39421 15.6393 7.43935 15.4384 7.39421C15.2375 7.34907 15.2375 7.39421 15.2375 7.39421Z" fill="#FFD018"/>
<path d="M15.8148 7.42538C15.8148 7.42538 15.7244 7.49002 15.7696 7.60531C15.8148 7.7206 15.917 7.94875 15.7696 7.94875C15.6222 7.94875 15.501 8.031 15.6161 8.031C15.7312 8.031 15.9361 8.11326 15.9361 8.031C15.9361 7.94875 16.0194 8.16664 16.0194 8.031C16.0194 7.89537 16.0194 7.83056 16.0194 7.75102C16.0194 7.67148 16.1027 7.64861 16.0194 7.537C15.9361 7.42538 15.8148 7.42538 15.8148 7.42538Z" fill="#FFD018"/>
<path d="M16.0236 8.21909C16.0236 8.21909 16.2119 8.78217 16.3143 8.85477C16.4167 8.92736 16.4627 9.53887 16.5076 9.60536C16.5525 9.67185 17.1649 10.0074 17.1649 10.1875C17.1649 10.3676 17.3535 10.0491 17.2592 9.8708C17.1649 9.69247 16.8681 9.3128 16.6546 9.23C16.4411 9.1472 16.4682 8.94671 16.4233 8.80581C16.3784 8.6649 16.6889 8.91966 16.4233 8.60004C16.1577 8.28042 16.1647 8.45194 16.2395 8.45194C16.3143 8.45194 16.3891 8.41417 16.3143 8.3645C16.2395 8.31484 16.0236 8.21909 16.0236 8.21909Z" fill="#FFD018"/>
<path d="M14.0271 9.38031C14.0271 9.38031 13.4153 10.4066 13.3062 10.4596C13.197 10.5127 13.1157 10.5234 13.0599 10.4596C13.0041 10.3958 12.9984 10.6309 13.0599 10.6952C13.1214 10.7595 13.3062 10.7595 13.4087 10.6453C13.4087 10.6453 13.425 10.934 13.5847 11.1517C13.7445 11.3693 13.811 11.3092 13.811 11.4323C13.811 11.5554 13.8488 11.7184 13.8976 11.7184C13.9463 11.7184 13.9841 12.1058 13.8976 12.1058C13.811 12.1058 14.0981 12.1376 14.2232 12.0407C14.3483 11.9438 14.4018 11.87 14.375 11.87C14.3483 11.87 14.0271 11.7094 14.0271 11.5957C14.0271 11.4821 13.811 11.3931 13.811 11.2243C13.811 11.0556 13.6988 10.855 13.6988 10.7751C13.6988 10.6952 13.7948 10.8059 13.8976 10.7303C14.0004 10.6546 14.0271 10.4596 14.0271 10.4596C14.0271 10.4596 13.8652 10.5628 13.811 10.5112C13.7569 10.4596 13.5866 10.3578 13.6988 10.1831C13.811 10.0084 14.0271 9.38031 14.0271 9.38031Z" fill="#FFD018"/>
<path fill-rule="evenodd" clip-rule="evenodd" d="M15.0871 6.14355C15.0871 6.14355 14.8681 6.23611 14.9411 6.37362C15.0141 6.51114 15.0404 6.57203 15.0871 6.54159C15.1339 6.51114 15.4621 6.45358 15.3886 6.29857C15.315 6.14355 15.161 6.14355 15.161 6.14355H15.0871Z" fill="#5EAA22"/>
<path d="M15.847 6.0692C15.847 6.0692 15.5577 5.94758 15.6541 6.0692C15.7505 6.19082 15.8739 6.25494 15.9627 6.25494C16.0514 6.25494 16.2359 6.2298 16.1437 6.18073C16.0514 6.13166 15.847 6.0692 15.847 6.0692Z" fill="#FFD018"/>
<path fill-rule="evenodd" clip-rule="evenodd" d="M12.9907 9.23029C12.9922 9.22277 12.9833 9.21735 12.9776 9.22249C12.9176 9.27674 12.7362 9.45916 12.813 9.6178C12.9045 9.80661 12.996 9.87217 12.996 9.87217C12.996 9.87217 13.0517 10.1612 13.1669 10.2399C13.1669 10.2399 13.3215 10.2324 13.3292 10.0074C13.3292 10.0074 13.5919 9.93418 13.6691 10.09C13.6691 10.09 13.6182 10.1075 13.6182 10.2399C13.6182 10.3723 13.737 10.5158 13.737 10.5158C13.737 10.5158 13.7914 10.0591 14.036 9.76468C14.2806 9.47027 14.3506 9.41216 14.3506 9.41216V9.08087C14.3506 9.08087 13.8445 9.4726 13.737 9.79831C13.737 9.79831 13.4822 9.80639 13.3786 9.76468C13.2751 9.72298 13.5079 9.65457 13.3786 9.50634C13.2493 9.35811 13.3086 9.71505 13.1669 9.6178C12.9453 9.55925 12.9754 9.309 12.9907 9.23029Z" fill="#5EAA22"/>
<path fill-rule="evenodd" clip-rule="evenodd" d="M14.0934 8.9425L16.6857 8.9425V10.4471C16.6857 10.4471 16.4744 11.6766 15.3454 12.2823C15.3454 12.2823 14.2519 11.6682 14.0934 10.4471V8.9425Z" fill="#5EAA22"/>
<mask id="mask2" style="mask-type:alpha" maskUnits="userSpaceOnUse" x="14" y="8" width="3" height="5">
<path fill-rule="evenodd" clip-rule="evenodd" d="M14.0934 8.9425L16.6857 8.9425V10.4471C16.6857 10.4471 16.4744 11.6766 15.3454 12.2823C15.3454 12.2823 14.2519 11.6682 14.0934 10.4471V8.9425Z" fill="white"/>
</mask>
<g mask="url(#mask2)">
<path fill-rule="evenodd" clip-rule="evenodd" d="M15.3258 8.86121L14.1932 11.094L15.7292 9.76895L16.7863 11.4335V8.86121L15.7292 9.68446L15.3258 8.86121Z" fill="#58A5FF"/>
<path d="M15.2901 10.4757C15.2901 10.429 15.3279 10.3912 15.3746 10.3912C15.4213 10.3912 15.4591 10.429 15.4591 10.4757V11.901C15.4591 11.9476 15.4213 11.9855 15.3746 11.9855C15.3279 11.9855 15.2901 11.9476 15.2901 11.901L15.2901 10.4757Z" fill="#FFD018"/>
<path d="M14.9921 10.825C14.9485 10.825 14.9132 10.7897 14.9132 10.7461C14.9132 10.7025 14.9485 10.6672 14.9921 10.6672H15.764C15.8076 10.6672 15.8429 10.7025 15.8429 10.7461C15.8429 10.7897 15.8076 10.825 15.764 10.825H14.9921Z" fill="#FFD018"/>
<path d="M15.5318 11.7952L15.4458 11.8655C15.319 11.7105 15.2034 11.636 15.1013 11.636C14.9509 11.636 14.8286 11.5096 14.7288 11.2701L14.8314 11.2274C14.9158 11.43 15.0076 11.5248 15.1013 11.5248C15.2433 11.5248 15.386 11.6169 15.5318 11.7952Z" fill="#FFD018"/>
<path fill-rule="evenodd" clip-rule="evenodd" d="M14.629 10.8883C14.6285 10.8879 14.6277 10.8882 14.6277 10.8889V11.43C14.6277 11.4306 14.6283 11.431 14.6288 11.4308L15.0331 11.2632C15.0336 11.263 15.0337 11.2623 15.0333 11.2619L14.629 10.8883Z" fill="#FFD018"/>
<path d="M15.2542 11.7952L15.3402 11.8655C15.4669 11.7105 15.5825 11.636 15.6847 11.636C15.8351 11.636 15.9574 11.5096 16.0571 11.2701L15.9546 11.2274C15.8702 11.43 15.7784 11.5248 15.6847 11.5248C15.5427 11.5248 15.3999 11.6169 15.2542 11.7952Z" fill="#FFD018"/>
<path fill-rule="evenodd" clip-rule="evenodd" d="M16.1569 10.8883C16.1574 10.8879 16.1583 10.8882 16.1583 10.8889V11.43C16.1583 11.4306 16.1577 11.431 16.1572 11.4308L15.7529 11.2632C15.7524 11.263 15.7522 11.2623 15.7527 11.2619L16.1569 10.8883Z" fill="#FFD018"/>
<rect x="15.2042" y="9.82785" width="0.338028" height="0.478481" fill="white"/>
</g>
</g>
</g>
<mask id="mask3" style="mask-type:alpha" maskUnits="userSpaceOnUse" x="3" y="1" width="9" height="7">
<rect x="3" y="1" width="9" height="7" fill="white"/>
</mask>
<g mask="url(#mask3)">
<path d="M1.99786 7.4999L3.97834 8.3685L12.0449 1.94436L13.0896 0.653595L10.9718 0.363283L7.68159 3.13163L5.03334 4.99685L1.99786 7.4999Z" fill="#F7FCFF"/>
<path d="M2.26898 8.10845L3.27794 8.61252L12.7145 0.533661H11.2978L2.26898 8.10845Z" fill="#F50100"/>
<path d="M13.0021 7.4999L11.0217 8.3685L2.95506 1.94436L1.91041 0.653595L4.02824 0.363283L7.31841 3.13163L9.96666 4.99685L13.0021 7.4999Z" fill="#F7FCFF"/>
<path d="M12.9346 7.93667L11.9256 8.44073L7.90745 4.98176L6.71615 4.59529L1.8099 0.658027H3.2266L8.13009 4.50184L9.43256 4.96525L12.9346 7.93667Z" fill="#F50100"/>
<mask id="path-35-outside-1" maskUnits="userSpaceOnUse" x="2" y="0" width="11" height="9" fill="black">
<rect fill="white" x="2" width="11" height="9"/>
<path fill-rule="evenodd" clip-rule="evenodd" d="M7.99226 1H6.99226V4H3V5H6.99226V8H7.99226V5H12V4H7.99226V1Z"/>
</mask>
<path fill-rule="evenodd" clip-rule="evenodd" d="M7.99226 1H6.99226V4H3V5H6.99226V8H7.99226V5H12V4H7.99226V1Z" fill="#F50100"/>
<path d="M6.99226 1V0.25H6.24226V1H6.99226ZM7.99226 1H8.74226V0.25H7.99226V1ZM6.99226 4V4.75H7.74226V4H6.99226ZM3 4V3.25H2.25V4H3ZM3 5H2.25V5.75H3V5ZM6.99226 5H7.74226V4.25H6.99226V5ZM6.99226 8H6.24226V8.75H6.99226V8ZM7.99226 8V8.75H8.74226V8H7.99226ZM7.99226 5V4.25H7.24226V5H7.99226ZM12 5V5.75H12.75V5H12ZM12 4H12.75V3.25H12V4ZM7.99226 4H7.24226V4.75H7.99226V4ZM6.99226 1.75H7.99226V0.25H6.99226V1.75ZM7.74226 4V1H6.24226V4H7.74226ZM3 4.75H6.99226V3.25H3V4.75ZM3.75 5V4H2.25V5H3.75ZM6.99226 4.25H3V5.75H6.99226V4.25ZM7.74226 8V5H6.24226V8H7.74226ZM7.99226 7.25H6.99226V8.75H7.99226V7.25ZM7.24226 5V8H8.74226V5H7.24226ZM12 4.25H7.99226V5.75H12V4.25ZM11.25 4V5H12.75V4H11.25ZM7.99226 4.75H12V3.25H7.99226V4.75ZM7.24226 1V4H8.74226V1H7.24226Z" fill="#F7FCFF" mask="url(#path-35-outside-1)"/>
</g>
<rect x="3" y="1" width="16" height="12" fill="url(#paint0_linear)" style="mix-blend-mode:overlay"/>
</g>
<defs>
<filter id="filter0_d" x="0" y="0" width="22" height="18" filterUnits="userSpaceOnUse" color-interpolation-filters="sRGB">
<feFlood flood-opacity="0" result="BackgroundImageFix"/>
<feColorMatrix in="SourceAlpha" type="matrix" values="0 0 0 0 0 0 0 0 0 0 0 0 0 0 0 0 0 0 127 0" result="hardAlpha"/>
<feOffset dy="2"/>
<feGaussianBlur stdDeviation="1.5"/>
<feColorMatrix type="matrix" values="0 0 0 0 0 0 0 0 0 0 0 0 0 0 0 0 0 0 0.1 0"/>
<feBlend mode="normal" in2="BackgroundImageFix" result="effect1_dropShadow"/>
<feBlend mode="normal" in="SourceGraphic" in2="effect1_dropShadow" result="shape"/>
</filter>
<linearGradient id="paint0_linear" x1="11" y1="1" x2="11" y2="13" gradientUnits="userSpaceOnUse">
<stop stop-color="white" stop-opacity="0.7"/>
<stop offset="1" stop-opacity="0.3"/>
</linearGradient>
</defs>
</svg>
