<svg width="22" height="18" viewBox="0 0 22 18" fill="none" xmlns="http://www.w3.org/2000/svg">
<g filter="url(#filter0_d)">
<mask id="mask0" style="mask-type:alpha" maskUnits="userSpaceOnUse" x="3" y="1" width="16" height="12">
<rect x="3" y="1" width="16" height="12" fill="white"/>
</mask>
<g mask="url(#mask0)">
<path fill-rule="evenodd" clip-rule="evenodd" d="M7 1H19V13H7V1Z" fill="#EF0000"/>
<path fill-rule="evenodd" clip-rule="evenodd" d="M3 1H9V13H3V1Z" fill="#2F8D00"/>
<mask id="mask1" style="mask-type:alpha" maskUnits="userSpaceOnUse" x="5" y="3" width="8" height="8">
<path fill-rule="evenodd" clip-rule="evenodd" d="M8.95236 10.9036C6.82212 10.9036 5.09521 9.1559 5.09521 6.99999C5.09521 4.84408 6.82212 3.09637 8.95236 3.09637C11.0826 3.09637 12.8095 4.84408 12.8095 6.99999C12.8095 9.1559 11.0826 10.9036 8.95236 10.9036Z" fill="white"/>
</mask>
<g mask="url(#mask1)">
<path fill-rule="evenodd" clip-rule="evenodd" d="M8.71423 3H9.21423V4.3494H8.71423V3Z" fill="#FFE017"/>
<path fill-rule="evenodd" clip-rule="evenodd" d="M8.71423 9.74698H9.21423V11H8.71423V9.74698Z" fill="#FFE017"/>
<path d="M5.15719 7.20189L5.0174 6.84324C6.55999 6.2274 7.72427 5.83025 8.51426 5.65126C9.67332 5.38866 10.9469 5.19437 12.335 5.06824L12.369 5.45223C10.9969 5.57692 9.73964 5.76872 8.59749 6.02749C7.83101 6.20115 6.6829 6.59279 5.15719 7.20189Z" fill="#FFE017"/>
<path d="M12.5704 4.83192L12.457 5.19997C11.2911 4.83192 10.3414 4.67371 9.61139 4.72271L9.58618 4.33801C10.37 4.2854 11.3635 4.45091 12.5704 4.83192Z" fill="#FFE017"/>
<path d="M12.9738 6.88988L12.7583 7.20781C12.164 6.79517 11.4317 6.5879 10.5566 6.5879V6.20236C11.5053 6.20236 12.3127 6.4309 12.9738 6.88988Z" fill="#FFE017"/>
<path d="M12.651 7.00528L12.7495 7.37771C11.4682 7.72478 10.2652 7.92169 9.14049 7.96806C8.00801 8.01475 6.68808 7.81714 5.17957 7.37671L5.28516 7.00628C6.75701 7.436 8.03733 7.62768 9.12498 7.58284C10.2204 7.53768 11.3958 7.34529 12.651 7.00528Z" fill="#FFE017"/>
<path d="M12.5058 8.81793L11.9037 9.43527C10.7593 8.29199 9.75186 7.4745 8.88748 6.98332C8.00832 6.48374 6.86183 5.97645 5.44977 5.4635L5.73934 4.64703C7.19304 5.17511 8.38171 5.70106 9.30712 6.22692C10.2473 6.76118 11.3115 7.62468 12.5058 8.81793Z" fill="#FFE017"/>
<path d="M5.72915 9.16763L5.50122 8.85871C5.53305 8.83466 5.58984 8.79454 5.66809 8.74371C5.79729 8.65977 5.94076 8.57597 6.09512 8.49767C6.52028 8.282 6.94675 8.14734 7.3535 8.13497C7.3734 8.13437 7.39321 8.13406 7.41293 8.13406V8.51961C7.39704 8.51961 7.38105 8.51985 7.36495 8.52034C7.02216 8.53076 6.64573 8.64962 6.26583 8.84234C6.12423 8.91417 5.99229 8.99123 5.87389 9.06815C5.83267 9.09493 5.7962 9.11969 5.76496 9.14176C5.74674 9.15463 5.73465 9.16348 5.72915 9.16763Z" fill="#FFE017"/>
<path d="M5.90607 9.30127L6.002 8.92816C7.27206 9.26263 8.2512 9.4293 8.93455 9.4293C9.61534 9.4293 10.6286 9.2327 11.9679 8.83813L12.0743 9.20831C10.7034 9.61221 9.65904 9.81485 8.93455 9.81485C8.21261 9.81485 7.20474 9.64328 5.90607 9.30127Z" fill="#FFE017"/>
<path d="M5.41119 5.8472L6.01473 5.23123L6.89839 6.11805L6.29485 6.73402L5.41119 5.8472Z" fill="#FFE017"/>
<path d="M10.418 8.92385L10.8669 8.18488L12.2687 9.0571L11.8198 9.79608L10.418 8.92385Z" fill="#FFE017"/>
</g>
<path fill-rule="evenodd" clip-rule="evenodd" d="M5.09521 6.99999C5.09521 9.1559 6.82212 10.9036 8.95236 10.9036C11.0826 10.9036 12.8095 9.1559 12.8095 6.99999C12.8095 4.84408 11.0826 3.09637 8.95236 3.09637C6.82212 3.09637 5.09521 4.84408 5.09521 6.99999ZM12.3333 7.04818C12.3333 8.91131 10.8409 10.4217 8.99998 10.4217C7.15903 10.4217 5.66664 8.91131 5.66664 7.04818C5.66664 5.18505 7.15903 3.67469 8.99998 3.67469C10.8409 3.67469 12.3333 5.18505 12.3333 7.04818Z" fill="#F9E813"/>
<path d="M6.82831 4.59262V7.72298C7.03438 8.96202 7.72861 9.58153 8.911 9.58153C10.0934 9.58153 10.7876 8.96202 10.9937 7.72298V4.59262H6.82831Z" fill="white"/>
<path d="M6.0426 4H11.5794V7.71137L11.5748 7.73706C11.3073 9.21984 10.3591 10 8.81101 10C7.26288 10 6.3147 9.21984 6.04724 7.73706L6.0426 7.71137V4Z" fill="#C51918"/>
<path fill-rule="evenodd" clip-rule="evenodd" d="M7.52378 4.953H6.62378V5.853H7.52378V4.953ZM11.0238 4.953H10.1238V5.853H11.0238V4.953Z" fill="#F9E813"/>
<path fill-rule="evenodd" clip-rule="evenodd" d="M6.62378 6.953H7.52378V7.853H6.62378V6.953ZM10.1736 6.96717H11.0736V7.86717H10.1736V6.96717ZM10.1872 8.42463H9.28719V9.32463H10.1872V8.42463Z" fill="#F9E813"/>
<path fill-rule="evenodd" clip-rule="evenodd" d="M7.32422 8.42062H8.22422V9.32062H7.32422V8.42062Z" fill="#F9E813"/>
<path d="M7.42609 5.35535H10.3959V7.5758C10.3959 7.5758 10.1756 8.72245 8.91102 8.72245C7.64647 8.72245 7.42609 7.5758 7.42609 7.5758V5.35535Z" fill="#F7FCFF"/>
<path d="M8.61902 5.60242H9.27918V6.08315C9.27918 6.08315 9.2302 6.33141 8.9491 6.33141C8.66801 6.33141 8.61902 6.08315 8.61902 6.08315V5.60242Z" fill="#013399"/>
<path d="M8.61902 6.66266H9.27918V7.1434C9.27918 7.1434 9.2302 7.39165 8.9491 7.39165C8.66801 7.39165 8.61902 7.1434 8.61902 7.1434V6.66266Z" fill="#013399"/>
<path d="M9.47614 6.66266H10.1363V7.1434C10.1363 7.1434 10.0873 7.39165 9.80622 7.39165C9.52512 7.39165 9.47614 7.1434 9.47614 7.1434V6.66266Z" fill="#013399"/>
<path d="M7.7619 6.66266H8.42207V7.1434C8.42207 7.1434 8.37308 7.39165 8.09198 7.39165C7.81089 7.39165 7.7619 7.1434 7.7619 7.1434V6.66266Z" fill="#013399"/>
<path d="M8.61902 7.7229H9.27918V8.20364C9.27918 8.20364 9.2302 8.45189 8.9491 8.45189C8.66801 8.45189 8.61902 8.20364 8.61902 8.20364V7.7229Z" fill="#013399"/>
</g>
<rect x="3" y="1" width="16" height="12" fill="url(#paint0_linear)" style="mix-blend-mode:overlay"/>
</g>
<defs>
<filter id="filter0_d" x="0" y="0" width="22" height="18" filterUnits="userSpaceOnUse" color-interpolation-filters="sRGB">
<feFlood flood-opacity="0" result="BackgroundImageFix"/>
<feColorMatrix in="SourceAlpha" type="matrix" values="0 0 0 0 0 0 0 0 0 0 0 0 0 0 0 0 0 0 127 0" result="hardAlpha"/>
<feOffset dy="2"/>
<feGaussianBlur stdDeviation="1.5"/>
<feColorMatrix type="matrix" values="0 0 0 0 0 0 0 0 0 0 0 0 0 0 0 0 0 0 0.1 0"/>
<feBlend mode="normal" in2="BackgroundImageFix" result="effect1_dropShadow"/>
<feBlend mode="normal" in="SourceGraphic" in2="effect1_dropShadow" result="shape"/>
</filter>
<linearGradient id="paint0_linear" x1="11" y1="1" x2="11" y2="13" gradientUnits="userSpaceOnUse">
<stop stop-color="white" stop-opacity="0.7"/>
<stop offset="1" stop-opacity="0.3"/>
</linearGradient>
</defs>
</svg>
