<svg width="22" height="18" viewBox="0 0 22 18" fill="none" xmlns="http://www.w3.org/2000/svg">
<g filter="url(#filter0_d)">
<mask id="mask0" style="mask-type:alpha" maskUnits="userSpaceOnUse" x="3" y="1" width="16" height="12">
<rect x="3" y="1" width="16" height="12" fill="white"/>
</mask>
<g mask="url(#mask0)">
<path fill-rule="evenodd" clip-rule="evenodd" d="M3 1V13H19V1H3Z" fill="#F7FCFF"/>
<mask id="mask1" style="mask-type:alpha" maskUnits="userSpaceOnUse" x="3" y="1" width="16" height="12">
<path fill-rule="evenodd" clip-rule="evenodd" d="M3 1V13H19V1H3Z" fill="white"/>
</mask>
<g mask="url(#mask1)">
<path fill-rule="evenodd" clip-rule="evenodd" d="M9 7C9 8.10457 9.89543 9 11 9C12.1046 9 13 8.10457 13 7C13 5.89543 12.1046 5 11 5C9.89543 5 9 5.89543 9 7ZM12.5 7C12.5 7.82843 11.8284 8.5 11 8.5C10.1716 8.5 9.5 7.82843 9.5 7C9.5 6.17157 10.1716 5.5 11 5.5C11.8284 5.5 12.5 6.17157 12.5 7Z" fill="#272727"/>
<path fill-rule="evenodd" clip-rule="evenodd" d="M3 1V5H19V1H3Z" fill="#F05234"/>
<path fill-rule="evenodd" clip-rule="evenodd" d="M3 9V13H19V9H3Z" fill="#3D58DB"/>
<path d="M10.289 5.92791L10.5736 6.33901C10.2892 6.53595 10.2034 6.80835 10.3123 7.21449C10.4188 7.6119 10.6547 7.7982 11.0715 7.81267L11.0541 8.31237C10.4183 8.29029 9.99288 7.95437 9.82931 7.3439C9.66807 6.74217 9.82272 6.25074 10.289 5.92791Z" fill="#73BE4A"/>
<path d="M11.7123 5.92791L11.4277 6.33901C11.7122 6.53595 11.7979 6.80835 11.6891 7.21449C11.5826 7.6119 11.3467 7.7982 10.9299 7.81267L10.9472 8.31237C11.5831 8.29029 12.0085 7.95437 12.172 7.3439C12.3333 6.74217 12.1786 6.25074 11.7123 5.92791Z" fill="#73BE4A"/>
<path fill-rule="evenodd" clip-rule="evenodd" d="M11.0012 7.37363C11.2774 7.37363 11.5012 7.14977 11.5012 6.87363C11.5012 6.59748 11.2774 6.37363 11.0012 6.37363C10.7251 6.37363 10.5012 6.59748 10.5012 6.87363C10.5012 7.14977 10.7251 7.37363 11.0012 7.37363Z" fill="#FBCD17"/>
</g>
</g>
<rect x="3" y="1" width="16" height="12" fill="url(#paint0_linear)" style="mix-blend-mode:overlay"/>
</g>
<defs>
<filter id="filter0_d" x="0" y="0" width="22" height="18" filterUnits="userSpaceOnUse" color-interpolation-filters="sRGB">
<feFlood flood-opacity="0" result="BackgroundImageFix"/>
<feColorMatrix in="SourceAlpha" type="matrix" values="0 0 0 0 0 0 0 0 0 0 0 0 0 0 0 0 0 0 127 0" result="hardAlpha"/>
<feOffset dy="2"/>
<feGaussianBlur stdDeviation="1.5"/>
<feColorMatrix type="matrix" values="0 0 0 0 0 0 0 0 0 0 0 0 0 0 0 0 0 0 0.1 0"/>
<feBlend mode="normal" in2="BackgroundImageFix" result="effect1_dropShadow"/>
<feBlend mode="normal" in="SourceGraphic" in2="effect1_dropShadow" result="shape"/>
</filter>
<linearGradient id="paint0_linear" x1="11" y1="1" x2="11" y2="13" gradientUnits="userSpaceOnUse">
<stop stop-color="white" stop-opacity="0.7"/>
<stop offset="1" stop-opacity="0.3"/>
</linearGradient>
</defs>
</svg>
