<svg width="22" height="18" viewBox="0 0 22 18" fill="none" xmlns="http://www.w3.org/2000/svg">
<g filter="url(#filter0_d)">
<mask id="mask0" style="mask-type:alpha" maskUnits="userSpaceOnUse" x="3" y="1" width="16" height="12">
<rect x="3" y="1" width="16" height="12" fill="white"/>
</mask>
<g mask="url(#mask0)">
<path fill-rule="evenodd" clip-rule="evenodd" d="M3 1V13H19V1H3Z" fill="#4857A1"/>
<mask id="mask1" style="mask-type:alpha" maskUnits="userSpaceOnUse" x="3" y="1" width="16" height="12">
<path fill-rule="evenodd" clip-rule="evenodd" d="M3 1V13H19V1H3Z" fill="white"/>
</mask>
<g mask="url(#mask1)">
<path fill-rule="evenodd" clip-rule="evenodd" d="M3 1V5H19V1H3Z" fill="#C51918"/>
<path fill-rule="evenodd" clip-rule="evenodd" d="M3 9V13H19V9H3Z" fill="#F7FCFF"/>
<path fill-rule="evenodd" clip-rule="evenodd" d="M8.26042 2.34787L8.19576 2.1037C8.24888 2.11907 8.3064 2.13483 8.36705 2.15102L8.36517 2.14172C9.11932 2.21151 10.2871 2.58791 10.5068 2.98056C10.5918 3.13233 10.5094 3.26063 10.4014 3.42875L10.4013 3.42881C10.3852 3.45392 10.3685 3.47991 10.3517 3.50701C10.2975 3.59456 10.2483 3.67829 10.2019 3.75719C10.0328 4.04523 9.90133 4.26903 9.69721 4.38082L9.70117 5.02029L6.3323 4.993L6.32799 4.34872C6.15314 4.22903 6.03038 4.02 5.87633 3.75771L5.87633 3.75771C5.82999 3.67881 5.78082 3.59509 5.72655 3.50753C5.70974 3.48042 5.69303 3.4544 5.6769 3.42928C5.56891 3.26115 5.48651 3.13286 5.57145 2.98109C5.73736 2.68467 6.48358 2.39233 7.16384 2.23681C7.29219 2.19418 7.42581 2.15421 7.55833 2.11586L7.61295 2.15311C7.67191 2.14489 7.72891 2.1382 7.78339 2.13316L7.86366 2.30424H8.12715C8.12715 2.30424 8.29278 2.76761 8.29278 3.02495C8.29278 3.28228 8.12715 3.49508 8.12715 3.49508V3.67272C8.15607 3.67499 8.18642 3.67776 8.21796 3.68097C8.21797 3.66528 8.21939 3.64876 8.22237 3.63184C8.23734 3.54696 8.28599 3.48458 8.33103 3.49252C8.37608 3.50046 8.40046 3.57572 8.38549 3.66061C8.3831 3.67414 8.37986 3.68711 8.37591 3.69931C8.55347 3.72207 8.75237 3.75383 8.94079 3.7865C9.01263 3.65528 9.10022 3.52564 9.18385 3.40186L9.18385 3.40185C9.40003 3.0819 9.58975 2.80109 9.41268 2.63347C9.37889 2.60147 9.31754 2.57172 9.23841 2.54418C8.97793 2.48106 8.69413 2.43179 8.41855 2.40629L8.41132 2.37047C8.3585 2.3624 8.30778 2.35487 8.26042 2.34787ZM9.54214 3.89868C9.63696 3.91751 9.6944 3.92947 9.6944 3.92947L9.69502 4.02819C10.0291 3.78952 10.2631 3.24947 10.2832 3.07271C10.2951 2.9677 10.1196 2.84548 9.84401 2.73356C9.96998 2.9682 9.79372 3.2016 9.57301 3.49387C9.48933 3.60467 9.39927 3.72393 9.31686 3.85494L9.39992 3.87084C9.39867 3.84607 9.40161 3.81817 9.40928 3.78954C9.43159 3.70628 9.48549 3.64838 9.52967 3.66022C9.57385 3.67205 9.59158 3.74915 9.56927 3.83241C9.56265 3.85712 9.55325 3.8796 9.54214 3.89868ZM7.81912 3.67392V3.47609C7.81912 3.47609 7.67572 3.32506 7.65349 3.01052C7.63731 2.78164 7.68853 2.51188 7.71763 2.38193C7.51715 2.40748 7.30654 2.44548 7.10121 2.49164C6.9363 2.53274 6.80277 2.57996 6.74626 2.63347C6.56919 2.80109 6.75891 3.0819 6.97509 3.40185C7.05587 3.52142 7.14034 3.64645 7.21075 3.77309C7.33238 3.74827 7.45461 3.7253 7.56874 3.70701C7.56396 3.69048 7.56056 3.67244 7.5589 3.65344C7.55139 3.56757 7.58224 3.49473 7.6278 3.49074C7.67336 3.48676 7.71639 3.55314 7.7239 3.63901C7.72528 3.65473 7.72537 3.67001 7.72432 3.68452C7.75722 3.68036 7.78891 3.6768 7.81912 3.67392ZM6.8413 3.85369C6.7591 3.72318 6.66934 3.60432 6.58593 3.49387L6.58593 3.49387C6.36009 3.19481 6.1808 2.95739 6.32421 2.7172C6.00071 2.83825 5.78319 2.96837 5.79509 3.07323C5.81397 3.23964 6.02244 3.72797 6.32555 3.98376L6.32553 3.98021C6.32553 3.98021 6.4494 3.94745 6.63252 3.90307C6.62039 3.88456 6.60979 3.86256 6.60186 3.83816C6.57522 3.75618 6.58889 3.67827 6.63239 3.66413C6.67589 3.65 6.73275 3.705 6.75939 3.78698C6.76878 3.81589 6.77316 3.84429 6.77299 3.86957L6.8413 3.85369Z" fill="#F6C540"/>
<path fill-rule="evenodd" clip-rule="evenodd" d="M7.29655 2.34203C7.31964 2.35788 7.34808 2.36722 7.37884 2.36722C7.45613 2.36722 7.51879 2.30818 7.51879 2.23534C7.51879 2.1625 7.45613 2.10345 7.37884 2.10345C7.32402 2.10345 7.27656 2.13315 7.2536 2.1764C7.2305 2.16056 7.20206 2.15121 7.17131 2.15121C7.122 2.15121 7.07864 2.17524 7.05371 2.21155C7.02953 2.19277 6.99854 2.18149 6.96476 2.18149C6.88746 2.18149 6.8248 2.24054 6.8248 2.31338C6.8248 2.31744 6.82499 2.32145 6.82537 2.32542C6.79972 2.2954 6.7604 2.2762 6.71631 2.2762C6.64625 2.2762 6.58822 2.3247 6.57796 2.38802C6.55234 2.3573 6.51254 2.33757 6.46786 2.33757C6.40069 2.33757 6.34458 2.38215 6.33102 2.44163C6.30804 2.42604 6.27984 2.41686 6.24936 2.41686C6.18734 2.41686 6.13474 2.45488 6.11637 2.50753C6.09754 2.49865 6.07628 2.49364 6.05378 2.49364C5.98473 2.49364 5.92735 2.54077 5.9159 2.60276C5.90693 2.60106 5.89765 2.60017 5.88815 2.60017C5.81159 2.60017 5.74939 2.6581 5.74821 2.72997C5.73988 2.72852 5.7313 2.72776 5.72252 2.72776C5.64522 2.72776 5.58256 2.7868 5.58256 2.85964C5.58256 2.86888 5.58357 2.87789 5.58549 2.88659C5.57625 2.88478 5.56669 2.88383 5.55689 2.88383C5.47959 2.88383 5.41693 2.94288 5.41693 3.01572C5.41693 3.07106 5.4531 3.11844 5.50438 3.13801C5.50136 3.14879 5.49975 3.16011 5.49975 3.17179C5.49975 3.22713 5.53592 3.27451 5.5872 3.29408C5.58417 3.30487 5.58256 3.31619 5.58256 3.32787C5.58256 3.39898 5.64228 3.45694 5.71704 3.45965C5.68551 3.48384 5.66538 3.52069 5.66538 3.56198C5.66538 3.63482 5.72804 3.69387 5.80534 3.69387C5.88263 3.69387 5.9453 3.63482 5.9453 3.56198C5.9453 3.49088 5.88558 3.43291 5.81082 3.4302C5.84234 3.40602 5.86248 3.36916 5.86248 3.32787C5.86248 3.27253 5.82631 3.22515 5.77503 3.20558C5.77805 3.1948 5.77966 3.18347 5.77966 3.17179C5.77966 3.11645 5.74349 3.06907 5.69221 3.0495C5.69524 3.03872 5.69685 3.0274 5.69685 3.01572C5.69685 3.00648 5.69584 2.99747 5.69392 2.98877C5.70316 2.99058 5.71272 2.99153 5.72252 2.99153C5.79908 2.99153 5.86128 2.9336 5.86246 2.86172C5.87079 2.86318 5.87938 2.86394 5.88815 2.86394C5.95721 2.86394 6.01459 2.81681 6.02603 2.75482C6.035 2.75652 6.04428 2.75741 6.05378 2.75741C6.11581 2.75741 6.16841 2.7194 6.18677 2.66674C6.20561 2.67563 6.22686 2.68063 6.24936 2.68063C6.28006 2.68063 6.30846 2.67131 6.33154 2.65551C6.33589 2.67315 6.344 2.68943 6.35502 2.70357C6.33798 2.72542 6.3279 2.7524 6.3279 2.7816C6.3279 2.85271 6.38762 2.91067 6.46238 2.91339C6.43086 2.93757 6.41072 2.97443 6.41072 3.01572C6.41072 3.07106 6.44689 3.11844 6.49817 3.13801C6.49515 3.14879 6.49354 3.16011 6.49354 3.17179C6.49354 3.22713 6.52971 3.27451 6.58099 3.29408C6.57796 3.30487 6.57635 3.31619 6.57635 3.32787C6.57635 3.40071 6.63901 3.45975 6.71631 3.45975C6.79361 3.45975 6.85627 3.40071 6.85627 3.32787C6.85627 3.27253 6.8201 3.22515 6.76882 3.20558C6.77184 3.1948 6.77345 3.18347 6.77345 3.17179C6.77345 3.11645 6.73728 3.06907 6.686 3.0495C6.68903 3.03872 6.69064 3.0274 6.69064 3.01572C6.69064 2.94461 6.63092 2.88665 6.55616 2.88393C6.58769 2.85975 6.60782 2.82289 6.60782 2.7816C6.60782 2.7524 6.59775 2.72542 6.5807 2.70357C6.59775 2.68171 6.60782 2.65473 6.60782 2.62553C6.60782 2.59633 6.59775 2.56934 6.5807 2.54749C6.59377 2.53074 6.60274 2.51098 6.60621 2.48951C6.63184 2.52023 6.67163 2.53996 6.71631 2.53996C6.79361 2.53996 6.85627 2.48092 6.85627 2.40808C6.85627 2.40402 6.85607 2.4 6.85569 2.39604C6.88135 2.42605 6.92067 2.44526 6.96476 2.44526C7.01407 2.44526 7.05742 2.42123 7.08235 2.38492C7.10654 2.4037 7.13752 2.41498 7.17131 2.41498C7.22613 2.41498 7.27358 2.38528 7.29655 2.34203ZM6.46786 2.60134C6.51417 2.60134 6.55523 2.58014 6.5807 2.54749C6.55523 2.51484 6.51417 2.49364 6.46786 2.49364C6.48204 2.49364 6.49354 2.48281 6.49354 2.46945C6.49354 2.45609 6.48204 2.44526 6.46786 2.44526C6.45368 2.44526 6.44219 2.45609 6.44219 2.46945C6.44219 2.48281 6.45368 2.49364 6.46786 2.49364C6.43716 2.49364 6.40876 2.50296 6.38568 2.51876C6.37789 2.48719 6.35807 2.45998 6.33102 2.44163C6.32898 2.4506 6.3279 2.45991 6.3279 2.46945C6.3279 2.49865 6.33798 2.52564 6.35502 2.54749C6.33798 2.56934 6.3279 2.59633 6.3279 2.62553C6.3279 2.63584 6.32916 2.64588 6.33154 2.65551C6.35894 2.63675 6.37884 2.60886 6.3862 2.57657C6.40918 2.59216 6.43738 2.60134 6.46786 2.60134ZM6.46786 2.64972C6.42155 2.64972 6.3805 2.67091 6.35502 2.70357C6.3805 2.73622 6.42155 2.75741 6.46786 2.75741C6.51417 2.75741 6.55523 2.73622 6.5807 2.70357C6.55523 2.67091 6.51417 2.64972 6.46786 2.64972ZM6.46786 2.64972C6.48204 2.64972 6.49354 2.63889 6.49354 2.62553C6.49354 2.61217 6.48204 2.60134 6.46786 2.60134C6.45368 2.60134 6.44219 2.61217 6.44219 2.62553C6.44219 2.63889 6.45368 2.64972 6.46786 2.64972ZM6.3862 2.57657C6.37426 2.56847 6.36373 2.55865 6.35502 2.54749C6.36361 2.53649 6.37396 2.52679 6.38568 2.51876C6.38806 2.52839 6.38932 2.53843 6.38932 2.54875C6.38932 2.55829 6.38824 2.5676 6.3862 2.57657ZM6.76882 3.20558C6.7526 3.19939 6.73488 3.19599 6.71631 3.19599C6.65141 3.19599 6.59682 3.23761 6.58099 3.29408C6.5972 3.30027 6.61493 3.30368 6.63349 3.30368C6.6984 3.30368 6.75298 3.26205 6.76882 3.20558ZM6.686 3.0495C6.66979 3.04332 6.65206 3.03991 6.63349 3.03991C6.56859 3.03991 6.51401 3.08154 6.49817 3.13801C6.51438 3.14419 6.53211 3.1476 6.55068 3.1476C6.61558 3.1476 6.67017 3.10597 6.686 3.0495ZM6.55616 2.88393L6.55068 2.88383C6.5172 2.88383 6.48646 2.89491 6.46238 2.91339L6.46786 2.91349C6.50134 2.91349 6.53208 2.90241 6.55616 2.88393ZM5.81082 3.4302L5.80534 3.4301C5.77186 3.4301 5.74112 3.44118 5.71704 3.45965L5.72252 3.45975C5.756 3.45975 5.78674 3.44868 5.81082 3.4302ZM5.77503 3.20558C5.75919 3.26205 5.70461 3.30368 5.63971 3.30368C5.62114 3.30368 5.60341 3.30027 5.5872 3.29408C5.60303 3.23761 5.65762 3.19599 5.72252 3.19599C5.74109 3.19599 5.75881 3.19939 5.77503 3.20558ZM5.69221 3.0495C5.67638 3.10597 5.62179 3.1476 5.55689 3.1476C5.53832 3.1476 5.5206 3.14419 5.50438 3.13801C5.52022 3.08154 5.5748 3.03991 5.63971 3.03991C5.65827 3.03991 5.676 3.04332 5.69221 3.0495ZM5.58549 2.88659C5.59677 2.9378 5.63957 2.97814 5.69392 2.98877C5.68264 2.93756 5.63984 2.89722 5.58549 2.88659ZM5.86246 2.86172C5.79744 2.85035 5.74819 2.79662 5.74819 2.73206L5.74821 2.72997C5.81324 2.74134 5.86248 2.79507 5.86248 2.85964L5.86246 2.86172ZM6.02603 2.75482C5.96203 2.74269 5.91383 2.68941 5.91383 2.62553C5.91383 2.61777 5.91454 2.61016 5.9159 2.60276C5.97991 2.6149 6.02811 2.66817 6.02811 2.73206C6.02811 2.73982 6.0274 2.74743 6.02603 2.75482ZM6.18677 2.66674C6.14089 2.6451 6.1094 2.60039 6.1094 2.54875C6.1094 2.53435 6.11185 2.5205 6.11637 2.50753C6.16225 2.52918 6.19374 2.57389 6.19374 2.62553C6.19374 2.63992 6.1913 2.65378 6.18677 2.66674ZM6.60621 2.48951C6.58751 2.46709 6.57635 2.43881 6.57635 2.40808C6.57635 2.40126 6.5769 2.39456 6.57796 2.38802C6.59667 2.41044 6.60782 2.43872 6.60782 2.46945C6.60782 2.47627 6.60727 2.48297 6.60621 2.48951ZM6.82537 2.32542C6.82793 2.35203 6.83887 2.37636 6.85569 2.39604C6.85314 2.36943 6.84219 2.3451 6.82537 2.32542ZM7.08235 2.38492C7.05121 2.36073 7.03135 2.3241 7.03135 2.28309C7.03135 2.25672 7.03956 2.23216 7.05371 2.21155C7.08486 2.23574 7.10472 2.27237 7.10472 2.31338C7.10472 2.33975 7.0965 2.36431 7.08235 2.38492ZM7.29655 2.34203C7.2616 2.31805 7.23888 2.2792 7.23888 2.23534C7.23888 2.21416 7.24418 2.19414 7.2536 2.1764C7.28855 2.20038 7.31127 2.23924 7.31127 2.28309C7.31127 2.30428 7.30597 2.32429 7.29655 2.34203ZM5.88815 2.75625C5.90233 2.75625 5.91383 2.74542 5.91383 2.73206C5.91383 2.71869 5.90233 2.70786 5.88815 2.70786C5.87397 2.70786 5.86248 2.71869 5.86248 2.73206C5.86248 2.74542 5.87397 2.75625 5.88815 2.75625ZM5.72252 2.88383C5.7367 2.88383 5.74819 2.873 5.74819 2.85964C5.74819 2.84628 5.7367 2.83545 5.72252 2.83545C5.70834 2.83545 5.69685 2.84628 5.69685 2.85964C5.69685 2.873 5.70834 2.88383 5.72252 2.88383ZM5.55689 3.03991C5.57107 3.03991 5.58256 3.02908 5.58256 3.01572C5.58256 3.00236 5.57107 2.99153 5.55689 2.99153C5.54271 2.99153 5.53122 3.00236 5.53122 3.01572C5.53122 3.02908 5.54271 3.03991 5.55689 3.03991ZM5.63971 3.19599C5.65388 3.19599 5.66538 3.18515 5.66538 3.17179C5.66538 3.15843 5.65388 3.1476 5.63971 3.1476C5.62553 3.1476 5.61403 3.15843 5.61403 3.17179C5.61403 3.18515 5.62553 3.19599 5.63971 3.19599ZM5.72252 3.35206C5.7367 3.35206 5.74819 3.34123 5.74819 3.32787C5.74819 3.31451 5.7367 3.30368 5.72252 3.30368C5.70834 3.30368 5.69685 3.31451 5.69685 3.32787C5.69685 3.34123 5.70834 3.35206 5.72252 3.35206ZM5.83101 3.56198C5.83101 3.57534 5.81952 3.58617 5.80534 3.58617C5.79116 3.58617 5.77966 3.57534 5.77966 3.56198C5.77966 3.54862 5.79116 3.53779 5.80534 3.53779C5.81952 3.53779 5.83101 3.54862 5.83101 3.56198ZM6.05378 2.64972C6.06796 2.64972 6.07946 2.63889 6.07946 2.62553C6.07946 2.61217 6.06796 2.60134 6.05378 2.60134C6.03961 2.60134 6.02811 2.61217 6.02811 2.62553C6.02811 2.63889 6.03961 2.64972 6.05378 2.64972ZM6.24936 2.57294C6.26354 2.57294 6.27503 2.56211 6.27503 2.54875C6.27503 2.53539 6.26354 2.52456 6.24936 2.52456C6.23518 2.52456 6.22368 2.53539 6.22368 2.54875C6.22368 2.56211 6.23518 2.57294 6.24936 2.57294ZM6.71631 2.43227C6.73049 2.43227 6.74198 2.42144 6.74198 2.40808C6.74198 2.39472 6.73049 2.38389 6.71631 2.38389C6.70213 2.38389 6.69064 2.39472 6.69064 2.40808C6.69064 2.42144 6.70213 2.43227 6.71631 2.43227ZM6.96476 2.33757C6.97894 2.33757 6.99043 2.32674 6.99043 2.31338C6.99043 2.30002 6.97894 2.28918 6.96476 2.28918C6.95058 2.28918 6.93908 2.30002 6.93908 2.31338C6.93908 2.32674 6.95058 2.33757 6.96476 2.33757ZM7.17131 2.30729C7.18549 2.30729 7.19698 2.29645 7.19698 2.28309C7.19698 2.26973 7.18549 2.2589 7.17131 2.2589C7.15713 2.2589 7.14564 2.26973 7.14564 2.28309C7.14564 2.29645 7.15713 2.30729 7.17131 2.30729ZM7.37884 2.25953C7.39301 2.25953 7.40451 2.2487 7.40451 2.23534C7.40451 2.22198 7.39301 2.21115 7.37884 2.21115C7.36466 2.21115 7.35316 2.22198 7.35316 2.23534C7.35316 2.2487 7.36466 2.25953 7.37884 2.25953ZM6.46786 2.8058C6.48204 2.8058 6.49354 2.79496 6.49354 2.7816C6.49354 2.76824 6.48204 2.75741 6.46786 2.75741C6.45368 2.75741 6.44219 2.76824 6.44219 2.7816C6.44219 2.79496 6.45368 2.8058 6.46786 2.8058ZM6.55068 3.03991C6.56486 3.03991 6.57635 3.02908 6.57635 3.01572C6.57635 3.00236 6.56486 2.99153 6.55068 2.99153C6.5365 2.99153 6.52501 3.00236 6.52501 3.01572C6.52501 3.02908 6.5365 3.03991 6.55068 3.03991ZM6.63349 3.19599C6.64767 3.19599 6.65917 3.18515 6.65917 3.17179C6.65917 3.15843 6.64767 3.1476 6.63349 3.1476C6.61932 3.1476 6.60782 3.15843 6.60782 3.17179C6.60782 3.18515 6.61932 3.19599 6.63349 3.19599ZM6.71631 3.35206C6.73049 3.35206 6.74198 3.34123 6.74198 3.32787C6.74198 3.31451 6.73049 3.30368 6.71631 3.30368C6.70213 3.30368 6.69064 3.31451 6.69064 3.32787C6.69064 3.34123 6.70213 3.35206 6.71631 3.35206ZM10.3602 3.58617C10.3744 3.58617 10.3859 3.57534 10.3859 3.56198C10.3859 3.54862 10.3744 3.53779 10.3602 3.53779C10.346 3.53779 10.3345 3.54862 10.3345 3.56198C10.3345 3.57534 10.346 3.58617 10.3602 3.58617ZM10.2202 3.56198C10.2202 3.63482 10.2829 3.69387 10.3602 3.69387C10.4375 3.69387 10.5002 3.63482 10.5002 3.56198C10.5002 3.52069 10.48 3.48384 10.4485 3.45965C10.5233 3.45694 10.583 3.39898 10.583 3.32787C10.583 3.31619 10.5814 3.30487 10.5783 3.29408C10.6296 3.27451 10.6658 3.22713 10.6658 3.17179C10.6658 3.16011 10.6642 3.14879 10.6612 3.13801C10.7124 3.11844 10.7486 3.07106 10.7486 3.01572C10.7486 2.94288 10.6859 2.88383 10.6086 2.88383C10.5988 2.88383 10.5893 2.88478 10.5801 2.88659C10.582 2.87789 10.583 2.86888 10.583 2.85964C10.583 2.7868 10.5203 2.72776 10.443 2.72776C10.4342 2.72776 10.4257 2.72852 10.4173 2.72997C10.4161 2.6581 10.3539 2.60017 10.2774 2.60017C10.2679 2.60017 10.2586 2.60106 10.2496 2.60276C10.2382 2.54077 10.1808 2.49364 10.1118 2.49364C10.0893 2.49364 10.068 2.49865 10.0492 2.50753C10.0308 2.45488 9.9782 2.41686 9.91618 2.41686C9.8857 2.41686 9.8575 2.42604 9.83452 2.44163C9.82096 2.38215 9.76484 2.33757 9.69768 2.33757C9.65299 2.33757 9.6132 2.3573 9.58758 2.38802C9.57732 2.3247 9.51929 2.2762 9.44923 2.2762C9.40514 2.2762 9.36582 2.2954 9.34016 2.32542C9.34055 2.32145 9.34074 2.31744 9.34074 2.31338C9.34074 2.24054 9.27808 2.18149 9.20078 2.18149C9.167 2.18149 9.13601 2.19277 9.11183 2.21155C9.0869 2.17524 9.04354 2.15121 8.99423 2.15121C8.96348 2.15121 8.93504 2.16056 8.91194 2.1764C8.88898 2.13315 8.84152 2.10345 8.7867 2.10345C8.70941 2.10345 8.64674 2.1625 8.64674 2.23534C8.64674 2.30818 8.70941 2.36722 8.7867 2.36722C8.81746 2.36722 8.84589 2.35788 8.86899 2.34203C8.89196 2.38528 8.93941 2.41498 8.99423 2.41498C9.02801 2.41498 9.059 2.4037 9.08319 2.38492C9.10812 2.42123 9.15147 2.44526 9.20078 2.44526C9.24487 2.44526 9.28419 2.42605 9.30985 2.39604C9.30947 2.4 9.30927 2.40402 9.30927 2.40808C9.30927 2.48092 9.37193 2.53996 9.44923 2.53996C9.49391 2.53996 9.5337 2.52023 9.55933 2.48951C9.5628 2.51098 9.57177 2.53074 9.58484 2.54749C9.56779 2.56934 9.55772 2.59633 9.55772 2.62553C9.55772 2.65473 9.56779 2.68171 9.58484 2.70357C9.56779 2.72542 9.55772 2.7524 9.55772 2.7816C9.55772 2.82289 9.57785 2.85975 9.60938 2.88393C9.53462 2.88665 9.4749 2.94461 9.4749 3.01572C9.4749 3.0274 9.47651 3.03872 9.47954 3.0495C9.42826 3.06907 9.39209 3.11645 9.39209 3.17179C9.39209 3.18347 9.3937 3.1948 9.39672 3.20558C9.34544 3.22515 9.30927 3.27253 9.30927 3.32787C9.30927 3.40071 9.37193 3.45975 9.44923 3.45975C9.52653 3.45975 9.58919 3.40071 9.58919 3.32787C9.58919 3.31619 9.58758 3.30487 9.58455 3.29408C9.63583 3.27451 9.672 3.22713 9.672 3.17179C9.672 3.16011 9.67039 3.14879 9.66737 3.13801C9.71865 3.11844 9.75482 3.07106 9.75482 3.01572C9.75482 2.97443 9.73468 2.93757 9.70316 2.91339C9.77792 2.91067 9.83764 2.85271 9.83764 2.7816C9.83764 2.7524 9.82756 2.72542 9.81051 2.70357C9.82154 2.68943 9.82965 2.67315 9.834 2.65551C9.85708 2.67131 9.88547 2.68063 9.91618 2.68063C9.93868 2.68063 9.95993 2.67563 9.97877 2.66674C9.99713 2.7194 10.0497 2.75741 10.1118 2.75741C10.1213 2.75741 10.1305 2.75652 10.1395 2.75482C10.151 2.81681 10.2083 2.86394 10.2774 2.86394C10.2862 2.86394 10.2947 2.86318 10.3031 2.86172C10.3043 2.9336 10.3665 2.99153 10.443 2.99153C10.4528 2.99153 10.4624 2.99058 10.4716 2.98877C10.4697 2.99747 10.4687 3.00648 10.4687 3.01572C10.4687 3.0274 10.4703 3.03872 10.4733 3.0495C10.422 3.06907 10.3859 3.11645 10.3859 3.17179C10.3859 3.18347 10.3875 3.1948 10.3905 3.20558C10.3392 3.22515 10.3031 3.27253 10.3031 3.32787C10.3031 3.36916 10.3232 3.40602 10.3547 3.4302C10.28 3.43291 10.2202 3.49088 10.2202 3.56198ZM9.77934 2.57657C9.75636 2.59216 9.72816 2.60134 9.69768 2.60134C9.65137 2.60134 9.61031 2.58014 9.58484 2.54749C9.61031 2.51484 9.65137 2.49364 9.69768 2.49364C9.72838 2.49364 9.75678 2.50296 9.77986 2.51876C9.77748 2.52839 9.77622 2.53843 9.77622 2.54875C9.77622 2.55829 9.7773 2.5676 9.77934 2.57657ZM9.81051 2.54749C9.82756 2.56934 9.83764 2.59633 9.83764 2.62553C9.83764 2.63584 9.83638 2.64588 9.834 2.65551C9.8066 2.63675 9.7867 2.60886 9.77934 2.57657C9.79128 2.56847 9.80181 2.55865 9.81051 2.54749ZM9.81051 2.54749C9.80193 2.53649 9.79158 2.52679 9.77986 2.51876C9.78765 2.48719 9.80747 2.45998 9.83452 2.44163C9.83656 2.4506 9.83764 2.45991 9.83764 2.46945C9.83764 2.49865 9.82756 2.52564 9.81051 2.54749ZM9.58455 3.29408C9.56872 3.23761 9.51413 3.19599 9.44923 3.19599C9.43066 3.19599 9.41294 3.19939 9.39672 3.20558C9.41256 3.26205 9.46714 3.30368 9.53204 3.30368C9.55061 3.30368 9.56834 3.30027 9.58455 3.29408ZM9.66737 3.13801C9.65153 3.08154 9.59695 3.03991 9.53204 3.03991C9.51348 3.03991 9.49575 3.04332 9.47954 3.0495C9.49537 3.10597 9.54996 3.1476 9.61486 3.1476C9.63343 3.1476 9.65115 3.14419 9.66737 3.13801ZM9.70316 2.91339C9.67908 2.89491 9.64834 2.88383 9.61486 2.88383L9.60938 2.88393C9.63346 2.90241 9.6642 2.91349 9.69768 2.91349L9.70316 2.91339ZM9.81051 2.70357C9.78504 2.67091 9.74398 2.64972 9.69768 2.64972C9.65137 2.64972 9.61031 2.67091 9.58484 2.70357C9.61031 2.73622 9.65137 2.75741 9.69768 2.75741C9.74398 2.75741 9.78504 2.73622 9.81051 2.70357ZM8.86899 2.34203C8.90394 2.31805 8.92666 2.2792 8.92666 2.23534C8.92666 2.21416 8.92136 2.19414 8.91194 2.1764C8.87699 2.20038 8.85427 2.23924 8.85427 2.28309C8.85427 2.30428 8.85957 2.32429 8.86899 2.34203ZM9.08319 2.38492C9.11433 2.36073 9.13419 2.3241 9.13419 2.28309C9.13419 2.25672 9.12598 2.23216 9.11183 2.21155C9.08068 2.23574 9.06082 2.27237 9.06082 2.31338C9.06082 2.33975 9.06904 2.36431 9.08319 2.38492ZM9.34016 2.32542C9.33761 2.35203 9.32667 2.37636 9.30985 2.39604C9.3124 2.36943 9.32335 2.3451 9.34016 2.32542ZM9.55933 2.48951C9.57803 2.46709 9.58919 2.43881 9.58919 2.40808C9.58919 2.40126 9.58864 2.39456 9.58758 2.38802C9.56887 2.41044 9.55772 2.43872 9.55772 2.46945C9.55772 2.47627 9.55827 2.48297 9.55933 2.48951ZM9.97877 2.66674C10.0246 2.6451 10.0561 2.60039 10.0561 2.54875C10.0561 2.53435 10.0537 2.5205 10.0492 2.50753C10.0033 2.52918 9.9718 2.57389 9.9718 2.62553C9.9718 2.63992 9.97424 2.65378 9.97877 2.66674ZM10.1395 2.75482C10.2035 2.74269 10.2517 2.68941 10.2517 2.62553C10.2517 2.61777 10.251 2.61016 10.2496 2.60276C10.1856 2.6149 10.1374 2.66817 10.1374 2.73206C10.1374 2.73982 10.1381 2.74742 10.1395 2.75482ZM10.4716 2.98877C10.526 2.97814 10.5688 2.9378 10.5801 2.88659C10.5257 2.89722 10.4829 2.93756 10.4716 2.98877ZM10.4173 2.72997L10.4173 2.73206C10.4173 2.79662 10.3681 2.85035 10.3031 2.86172L10.3031 2.85964C10.3031 2.79507 10.3523 2.74134 10.4173 2.72997ZM10.4733 3.0495C10.4895 3.04332 10.5073 3.03991 10.5258 3.03991C10.5907 3.03991 10.6453 3.08154 10.6612 3.13801C10.6449 3.14419 10.6272 3.1476 10.6086 3.1476C10.5437 3.1476 10.4892 3.10597 10.4733 3.0495ZM10.3905 3.20558C10.4067 3.19939 10.4244 3.19599 10.443 3.19599C10.5079 3.19599 10.5625 3.23761 10.5783 3.29408C10.5621 3.30027 10.5444 3.30368 10.5258 3.30368C10.4609 3.30368 10.4063 3.26205 10.3905 3.20558ZM10.443 3.45975C10.4095 3.45975 10.3788 3.44868 10.3547 3.4302L10.3602 3.4301C10.3937 3.4301 10.4244 3.44118 10.4485 3.45965L10.443 3.45975ZM10.443 3.35206C10.4572 3.35206 10.4687 3.34123 10.4687 3.32787C10.4687 3.31451 10.4572 3.30368 10.443 3.30368C10.4288 3.30368 10.4173 3.31451 10.4173 3.32787C10.4173 3.34123 10.4288 3.35206 10.443 3.35206ZM10.5258 3.19599C10.54 3.19599 10.5515 3.18515 10.5515 3.17179C10.5515 3.15843 10.54 3.1476 10.5258 3.1476C10.5117 3.1476 10.5002 3.15843 10.5002 3.17179C10.5002 3.18515 10.5117 3.19599 10.5258 3.19599ZM10.6086 3.03991C10.6228 3.03991 10.6343 3.02908 10.6343 3.01572C10.6343 3.00236 10.6228 2.99153 10.6086 2.99153C10.5945 2.99153 10.583 3.00236 10.583 3.01572C10.583 3.02908 10.5945 3.03991 10.6086 3.03991ZM10.443 2.88383C10.4572 2.88383 10.4687 2.873 10.4687 2.85964C10.4687 2.84628 10.4572 2.83545 10.443 2.83545C10.4288 2.83545 10.4173 2.84628 10.4173 2.85964C10.4173 2.873 10.4288 2.88383 10.443 2.88383ZM10.2774 2.75625C10.2916 2.75625 10.3031 2.74542 10.3031 2.73206C10.3031 2.71869 10.2916 2.70786 10.2774 2.70786C10.2632 2.70786 10.2517 2.71869 10.2517 2.73206C10.2517 2.74542 10.2632 2.75625 10.2774 2.75625ZM10.1118 2.64972C10.1259 2.64972 10.1374 2.63889 10.1374 2.62553C10.1374 2.61217 10.1259 2.60134 10.1118 2.60134C10.0976 2.60134 10.0861 2.61217 10.0861 2.62553C10.0861 2.63889 10.0976 2.64972 10.1118 2.64972ZM9.91618 2.57294C9.93036 2.57294 9.94185 2.56211 9.94185 2.54875C9.94185 2.53539 9.93036 2.52456 9.91618 2.52456C9.902 2.52456 9.89051 2.53539 9.89051 2.54875C9.89051 2.56211 9.902 2.57294 9.91618 2.57294ZM9.69768 2.49364C9.71186 2.49364 9.72335 2.48281 9.72335 2.46945C9.72335 2.45609 9.71186 2.44526 9.69768 2.44526C9.6835 2.44526 9.672 2.45609 9.672 2.46945C9.672 2.48281 9.6835 2.49364 9.69768 2.49364ZM9.44923 2.43227C9.46341 2.43227 9.4749 2.42144 9.4749 2.40808C9.4749 2.39472 9.46341 2.38389 9.44923 2.38389C9.43505 2.38389 9.42356 2.39472 9.42356 2.40808C9.42356 2.42144 9.43505 2.43227 9.44923 2.43227ZM9.20078 2.33757C9.21496 2.33757 9.22645 2.32674 9.22645 2.31338C9.22645 2.30002 9.21496 2.28918 9.20078 2.28918C9.1866 2.28918 9.17511 2.30002 9.17511 2.31338C9.17511 2.32674 9.1866 2.33757 9.20078 2.33757ZM8.99423 2.30729C9.00841 2.30729 9.0199 2.29645 9.0199 2.28309C9.0199 2.26973 9.00841 2.2589 8.99423 2.2589C8.98005 2.2589 8.96856 2.26973 8.96856 2.28309C8.96856 2.29645 8.98005 2.30729 8.99423 2.30729ZM8.7867 2.25953C8.80088 2.25953 8.81238 2.2487 8.81238 2.23534C8.81238 2.22198 8.80088 2.21115 8.7867 2.21115C8.77252 2.21115 8.76103 2.22198 8.76103 2.23534C8.76103 2.2487 8.77252 2.25953 8.7867 2.25953ZM9.69768 2.64972C9.71186 2.64972 9.72335 2.63889 9.72335 2.62553C9.72335 2.61217 9.71186 2.60134 9.69768 2.60134C9.6835 2.60134 9.672 2.61217 9.672 2.62553C9.672 2.63889 9.6835 2.64972 9.69768 2.64972ZM9.69768 2.8058C9.71186 2.8058 9.72335 2.79496 9.72335 2.7816C9.72335 2.76824 9.71186 2.75741 9.69768 2.75741C9.6835 2.75741 9.672 2.76824 9.672 2.7816C9.672 2.79496 9.6835 2.8058 9.69768 2.8058ZM9.61486 3.03991C9.62904 3.03991 9.64053 3.02908 9.64053 3.01572C9.64053 3.00236 9.62904 2.99153 9.61486 2.99153C9.60068 2.99153 9.58919 3.00236 9.58919 3.01572C9.58919 3.02908 9.60068 3.03991 9.61486 3.03991ZM9.53204 3.19599C9.54622 3.19599 9.55772 3.18515 9.55772 3.17179C9.55772 3.15843 9.54622 3.1476 9.53204 3.1476C9.51787 3.1476 9.50637 3.15843 9.50637 3.17179C9.50637 3.18515 9.51787 3.19599 9.53204 3.19599ZM9.44923 3.35206C9.46341 3.35206 9.4749 3.34123 9.4749 3.32787C9.4749 3.31451 9.46341 3.30368 9.44923 3.30368C9.43505 3.30368 9.42356 3.31451 9.42356 3.32787C9.42356 3.34123 9.43505 3.35206 9.44923 3.35206Z" fill="white"/>
<path fill-rule="evenodd" clip-rule="evenodd" d="M8.11035 1.46067L7.89147 1.46704L7.88695 1.80833L7.48306 1.81361L7.4849 2.02074L7.88421 2.01553L7.87907 2.40453L8.09795 2.39816L8.10305 2.01267L8.50039 2.00749L8.49855 1.80035L8.10579 1.80548L8.11035 1.46067Z" fill="#F6C540"/>
<path fill-rule="evenodd" clip-rule="evenodd" d="M5.01984 5.00299H10.9627V9.75947C10.9627 9.75947 10.783 12.1288 7.99127 12.1288C5.19955 12.1288 5.01984 9.75947 5.01984 9.75947V5.00299Z" fill="#C51918"/>
<path fill-rule="evenodd" clip-rule="evenodd" d="M6.81347 5.16757C6.75897 5.16757 6.67509 5.20445 6.56389 5.24621C6.4527 5.28798 6.33592 5.37814 6.44991 5.46845C6.56389 5.55876 6.72707 5.75697 6.72707 5.68286C6.72707 5.60876 6.922 5.5369 6.922 5.57283C6.922 5.60876 6.86165 5.68286 7.01995 5.68286C7.17825 5.68286 7.25981 5.72694 7.0909 5.72694C6.922 5.72694 6.90364 5.79975 6.79387 5.79975C6.6841 5.79975 6.44991 5.72639 6.44991 5.68286C6.44991 5.63934 6.58553 5.89684 6.72707 5.89684C6.86861 5.89684 6.949 6.02213 7.01995 5.95949C7.0909 5.89684 7.08251 5.89684 7.19713 5.89684C7.31176 5.89684 7.26992 5.64385 7.26992 5.64385C7.26992 5.64385 6.86796 5.16757 6.81347 5.16757Z" fill="#E8AA00"/>
<path fill-rule="evenodd" clip-rule="evenodd" d="M9.10688 5.16757C9.16138 5.16757 9.24526 5.20445 9.35646 5.24621C9.46765 5.28798 9.58442 5.37814 9.47044 5.46845C9.35646 5.55876 9.19328 5.75697 9.19328 5.68286C9.19328 5.60876 8.99835 5.5369 8.99835 5.57283C8.99835 5.60876 9.0587 5.68286 8.9004 5.68286C8.7421 5.68286 8.66054 5.72694 8.82945 5.72694C8.99835 5.72694 9.01671 5.79975 9.12648 5.79975C9.23625 5.79975 9.47044 5.72639 9.47044 5.68286C9.47044 5.63934 9.33482 5.89684 9.19328 5.89684C9.05174 5.89684 8.97135 6.02213 8.9004 5.95949C8.82945 5.89684 8.83784 5.89684 8.72322 5.89684C8.60859 5.89684 8.65042 5.64385 8.65042 5.64385C8.65042 5.64385 9.05239 5.16757 9.10688 5.16757Z" fill="#E8AA00"/>
<path fill-rule="evenodd" clip-rule="evenodd" d="M9.83535 5.68468C9.94927 5.93502 9.07617 6.86499 9.07617 6.86499H8.97841C8.93733 6.86499 8.86092 6.76974 8.76866 6.65473C8.70543 6.5759 8.63475 6.4878 8.5629 6.41471C8.42773 6.27722 8.49937 6.16172 8.56615 6.05405C8.58666 6.02098 8.60672 5.98864 8.62018 5.95663C8.64934 5.88729 8.65349 5.85963 8.65823 5.82803C8.6628 5.79755 8.66792 5.7634 8.69656 5.68468C8.73864 5.56899 8.88534 5.41973 8.98706 5.31623C9.02634 5.27626 9.05892 5.24312 9.07617 5.22137C9.13063 5.15271 9.08931 5.15311 8.97562 5.15421C8.96002 5.15436 8.94306 5.15452 8.9248 5.15452C8.77343 5.15452 8.48428 5.22137 8.39785 5.29945C8.31142 5.37752 8.22079 5.39417 8.08762 5.39417C7.95445 5.39417 8.03659 5.47868 8.15787 5.53575C8.02729 5.55927 7.94357 5.76439 7.89439 5.94651C7.86756 5.76439 7.80836 5.55927 7.67778 5.53575C7.79906 5.47868 7.8812 5.39417 7.74803 5.39417C7.61486 5.39417 7.52423 5.37752 7.4378 5.29945C7.35137 5.22137 7.06222 5.15452 6.91085 5.15452C6.89259 5.15452 6.87563 5.15436 6.86003 5.15421C6.74634 5.15311 6.70502 5.15271 6.75948 5.22137C6.77674 5.24312 6.80931 5.27626 6.84859 5.31623C6.95031 5.41973 7.09702 5.56899 7.13909 5.68468C7.16773 5.7634 7.17285 5.79755 7.17742 5.82803C7.18216 5.85963 7.18631 5.88729 7.21547 5.95663C7.22893 5.98864 7.24899 6.02098 7.2695 6.05405C7.33628 6.16172 7.40792 6.27722 7.27275 6.41471C7.2009 6.4878 7.13023 6.5759 7.06699 6.65473C6.97473 6.76974 6.89833 6.86499 6.85724 6.86499H6.75948C6.75948 6.86499 5.88638 5.93502 6.0003 5.68468C6.04434 5.58792 6.11536 5.49674 6.17414 5.42128C6.26742 5.30152 6.32985 5.22137 6.20455 5.22137C6.0003 5.22137 5.1861 5.70787 5.1861 6.80484C5.1861 7.9018 5.26131 8.52569 5.43589 8.96277C5.55502 9.26105 5.4459 9.55072 5.36457 9.7666C5.32672 9.86707 5.29489 9.95155 5.29489 10.0135C5.29489 10.2085 5.61547 10.0376 5.61547 9.9155C5.61547 9.85741 5.65936 9.94391 5.7054 10.0346C5.75616 10.1347 5.80953 10.2398 5.80953 10.162C5.80953 10.0789 5.86064 9.99115 5.90566 9.91386C5.94111 9.853 5.97279 9.79862 5.97279 9.75808C5.97279 9.71754 6.01776 9.71905 6.06808 9.72073C6.132 9.72286 6.20455 9.72528 6.20455 9.64221C6.20455 9.58616 6.22764 9.57497 6.25638 9.56103C6.30377 9.53805 6.36655 9.50761 6.36655 9.25627C6.36655 9.06998 6.40613 9.13598 6.45153 9.21169C6.49331 9.28136 6.54003 9.35926 6.56536 9.25627C6.56782 9.24624 6.59405 9.20305 6.62647 9.14965C6.67366 9.07194 6.73397 8.97262 6.75326 8.92245C6.69379 9.14186 6.5511 9.37049 6.46049 9.4794C6.36655 9.59233 6.20455 9.83747 6.20455 9.83747C6.20455 9.83747 6.35563 9.91685 6.46049 9.83747C6.51906 9.79313 6.52302 9.83485 6.52733 9.88032C6.53073 9.91626 6.53436 9.95455 6.56536 9.95455C6.58482 9.95455 6.60314 9.95755 6.61946 9.96021C6.63153 9.96219 6.6425 9.96398 6.65203 9.96425C6.61703 10.0483 6.58563 10.1826 6.69094 10.0929C6.76615 10.0287 6.81889 10.0027 6.85383 9.9855C6.89426 9.96555 6.91085 9.95736 6.91085 9.9155C6.91085 9.87372 6.92728 9.88787 6.95301 9.91004C6.97535 9.92928 7.00469 9.95455 7.03639 9.95455C7.07723 9.95455 7.08574 9.90095 7.09811 9.823C7.1064 9.77074 7.11643 9.70755 7.13909 9.64221C7.14437 9.62699 7.14934 9.61236 7.15404 9.59848C7.19964 9.46399 7.22091 9.40127 7.27275 9.57093C7.29698 9.65022 7.33978 9.70635 7.37704 9.75524C7.42775 9.82175 7.46822 9.87484 7.4378 9.95455C7.42589 9.98576 7.41095 10.021 7.39496 10.0588C7.34007 10.1883 7.27275 10.3473 7.27275 10.4724C7.27275 10.5468 7.20089 10.6482 7.13335 10.7435C7.05419 10.8551 6.98097 10.9585 7.03639 11.0001C7.13909 11.0772 7.01481 11.3369 6.91085 11.4701C6.80689 11.6033 7.67778 11.9091 7.82986 11.9091C7.83202 11.9091 7.83413 11.9079 7.83621 11.9057V11.9091C7.83621 11.9091 8.9248 11.8593 8.9248 11.4701C8.82084 11.3369 8.69656 11.0772 8.79926 11.0001C8.85469 10.9585 8.78146 10.8551 8.7023 10.7435C8.63476 10.6482 8.5629 10.5468 8.5629 10.4724C8.5629 10.3473 8.49558 10.1883 8.44069 10.0588C8.4247 10.021 8.40976 9.98576 8.39785 9.95455C8.36743 9.87484 8.40791 9.82175 8.45861 9.75524C8.49587 9.70635 8.53867 9.65022 8.5629 9.57093C8.61474 9.40127 8.63601 9.46399 8.68161 9.59848C8.68631 9.61236 8.69128 9.62699 8.69656 9.64221C8.71923 9.70755 8.72925 9.77074 8.73754 9.823C8.74991 9.90095 8.75842 9.95455 8.79926 9.95455C8.83096 9.95455 8.8603 9.92928 8.88264 9.91004C8.90837 9.88787 8.9248 9.87372 8.9248 9.9155C8.9248 9.95736 8.94139 9.96555 8.98183 9.9855C9.01676 10.0027 9.0695 10.0287 9.14471 10.0929C9.25003 10.1826 9.21863 10.0483 9.18362 9.96425C9.19315 9.96398 9.20412 9.96219 9.21619 9.96021C9.23251 9.95755 9.25084 9.95455 9.2703 9.95455C9.30129 9.95455 9.30492 9.91626 9.30832 9.88032C9.31263 9.83485 9.31659 9.79313 9.37516 9.83747C9.48002 9.91685 9.6311 9.83747 9.6311 9.83747C9.6311 9.83747 9.4691 9.59233 9.37516 9.4794C9.28455 9.37049 9.14186 9.14186 9.08239 8.92246C9.10168 8.97262 9.16199 9.07194 9.20918 9.14965C9.2416 9.20305 9.26783 9.24624 9.2703 9.25627C9.29562 9.35926 9.34234 9.28136 9.38412 9.21169C9.42952 9.13598 9.4691 9.06998 9.4691 9.25627C9.4691 9.50761 9.53188 9.53805 9.57927 9.56103C9.60801 9.57497 9.6311 9.58616 9.6311 9.64221C9.6311 9.72528 9.70365 9.72286 9.76757 9.72073C9.81789 9.71905 9.86286 9.71754 9.86286 9.75808C9.86286 9.79862 9.89454 9.853 9.92999 9.91386C9.97501 9.99115 10.0261 10.0789 10.0261 10.162C10.0261 10.2398 10.0795 10.1347 10.1302 10.0346C10.1763 9.94391 10.2202 9.85741 10.2202 9.9155C10.2202 10.0376 10.5408 10.2085 10.5408 10.0135C10.5408 9.95155 10.5089 9.86707 10.4711 9.7666C10.3898 9.55072 10.2806 9.26105 10.3998 8.96277C10.5743 8.52569 10.6496 7.9018 10.6496 6.80484C10.6496 5.70787 9.83535 5.22137 9.6311 5.22137C9.5058 5.22137 9.56823 5.30152 9.66152 5.42128C9.72029 5.49674 9.79131 5.58792 9.83535 5.68468ZM9.07617 8.89826C9.07813 8.90631 9.0802 8.91438 9.08239 8.92246C9.0784 8.91208 9.07617 8.90381 9.07617 8.89826ZM9.14471 9.9155C9.14471 9.88812 9.16469 9.91883 9.18362 9.96425C9.15955 9.96493 9.14471 9.9559 9.14471 9.9155ZM6.65203 9.96425C6.6761 9.96493 6.69094 9.9559 6.69094 9.9155C6.69094 9.88812 6.67096 9.91883 6.65203 9.96425ZM6.75326 8.92245C6.75725 8.91208 6.75948 8.90381 6.75948 8.89826C6.75752 8.90631 6.75545 8.91438 6.75326 8.92245Z" fill="#F7FCFF"/>
<path fill-rule="evenodd" clip-rule="evenodd" d="M6.88397 6.94156H9.09855V8.59091C9.09855 8.59091 8.86081 9.41249 7.99126 9.41249C7.12171 9.41249 6.88397 8.59091 6.88397 8.59091V6.94156Z" fill="#C51918"/>
<path fill-rule="evenodd" clip-rule="evenodd" d="M8.28983 6.9176H7.71012V7.86446H6.88196V8.20263H7.71012V9.42002H8.28983V8.20263H9.11798V7.86446H8.28983V6.9176Z" fill="#F7FCFF"/>
<path fill-rule="evenodd" clip-rule="evenodd" d="M6.43681 10.6635C6.70597 10.3539 6.95823 10.0785 6.73379 9.88339C6.50936 9.68829 6.24141 9.85742 5.97224 10.1671C5.70308 10.4767 5.53464 10.8096 5.75908 11.0047C5.98352 11.1998 6.16765 10.9731 6.43681 10.6635Z" fill="#E8AA00"/>
<path fill-rule="evenodd" clip-rule="evenodd" d="M9.36788 10.6635C9.09872 10.3539 8.84645 10.0785 9.07089 9.88339C9.29533 9.68829 9.56328 9.85742 9.83244 10.1671C10.1016 10.4767 10.27 10.8096 10.0456 11.0047C9.82117 11.1998 9.63704 10.9731 9.36788 10.6635Z" fill="#E8AA00"/>
</g>
</g>
<rect x="3" y="1" width="16" height="12" fill="url(#paint0_linear)" style="mix-blend-mode:overlay"/>
</g>
<defs>
<filter id="filter0_d" x="0" y="0" width="22" height="18" filterUnits="userSpaceOnUse" color-interpolation-filters="sRGB">
<feFlood flood-opacity="0" result="BackgroundImageFix"/>
<feColorMatrix in="SourceAlpha" type="matrix" values="0 0 0 0 0 0 0 0 0 0 0 0 0 0 0 0 0 0 127 0" result="hardAlpha"/>
<feOffset dy="2"/>
<feGaussianBlur stdDeviation="1.5"/>
<feColorMatrix type="matrix" values="0 0 0 0 0 0 0 0 0 0 0 0 0 0 0 0 0 0 0.1 0"/>
<feBlend mode="normal" in2="BackgroundImageFix" result="effect1_dropShadow"/>
<feBlend mode="normal" in="SourceGraphic" in2="effect1_dropShadow" result="shape"/>
</filter>
<linearGradient id="paint0_linear" x1="11" y1="1" x2="11" y2="13" gradientUnits="userSpaceOnUse">
<stop stop-color="white" stop-opacity="0.7"/>
<stop offset="1" stop-opacity="0.3"/>
</linearGradient>
</defs>
</svg>
