<svg width="22" height="18" viewBox="0 0 22 18" fill="none" xmlns="http://www.w3.org/2000/svg">
<g filter="url(#filter0_d)">
<mask id="mask0" style="mask-type:alpha" maskUnits="userSpaceOnUse" x="3" y="1" width="16" height="12">
<rect x="3" y="1" width="16" height="12" fill="white"/>
</mask>
<g mask="url(#mask0)">
<path fill-rule="evenodd" clip-rule="evenodd" d="M3 1V13H19V1H3Z" fill="#FECA00"/>
<mask id="mask1" style="mask-type:alpha" maskUnits="userSpaceOnUse" x="3" y="1" width="16" height="12">
<path fill-rule="evenodd" clip-rule="evenodd" d="M3 1V13H19V1H3Z" fill="white"/>
</mask>
<g mask="url(#mask1)">
<path fill-rule="evenodd" clip-rule="evenodd" d="M3 1V8H19V1H3Z" fill="#3CA5D9"/>
<path fill-rule="evenodd" clip-rule="evenodd" d="M3 10V13H19V10H3Z" fill="#5A962A"/>
<path fill-rule="evenodd" clip-rule="evenodd" d="M15.0409 6.9328C15.0243 6.9332 15.0077 6.9334 14.991 6.9334C14.9767 6.9334 14.9625 6.93325 14.9483 6.93296L14.6461 7.91988L14.5821 6.89189C14.5515 6.88558 14.5212 6.87857 14.4911 6.87088L13.9677 7.76085L14.1449 6.74749C14.1164 6.73425 14.0882 6.72035 14.0605 6.70582L13.3447 7.45137L13.7529 6.50697C13.728 6.48744 13.7036 6.46734 13.6798 6.44669L12.8107 7.00811L13.4269 6.18374C13.407 6.15884 13.3877 6.13345 13.3691 6.1076L12.3944 6.45497L13.1846 5.79476C13.1709 5.76567 13.1579 5.73619 13.1456 5.70635L12.1182 5.82178L13.0399 5.36022C13.0334 5.32861 13.0276 5.29672 13.0227 5.26458L11.9972 5.14267L13.001 4.90393C13.002 4.87127 13.0039 4.83881 13.0065 4.80657L12.0377 4.45425L13.0692 4.45093C13.0779 4.4193 13.0873 4.38799 13.0975 4.35702L12.2377 3.79363L13.2423 4.02574C13.2581 3.99707 13.2746 3.96884 13.2919 3.94107L12.5862 3.19643L13.5104 3.65182C13.5324 3.6277 13.5549 3.60412 13.5781 3.5811L13.0646 2.69484L13.8582 3.34916C13.8851 3.33076 13.9124 3.31301 13.9402 3.29591L13.6471 2.31591L14.267 3.13406C14.2973 3.12238 14.328 3.11141 14.359 3.10117L14.3022 2.08006L14.7152 3.01872C14.7471 3.01436 14.7792 3.01074 14.8115 3.00788L14.9946 2L15.1778 3.00854C15.21 3.0115 15.2419 3.01521 15.2736 3.01966L15.6871 2.08006L15.6302 3.10352C15.6606 3.11372 15.6908 3.12462 15.7206 3.13622L16.3421 2.31591L16.0479 3.29967C16.075 3.31645 16.1016 3.33385 16.1278 3.35186L16.9246 2.69484L16.4086 3.58566C16.4309 3.60801 16.4527 3.63089 16.4739 3.65427L17.403 3.19643L16.693 3.94567C16.7095 3.97244 16.7254 3.99963 16.7406 4.02721L17.7516 3.79363L16.8858 4.3609C16.8955 4.3906 16.9045 4.42061 16.9129 4.45091L17.9515 4.45425L16.9757 4.80912C16.9782 4.83995 16.98 4.87099 16.981 4.9022L17.9921 5.14267L16.9592 5.26546C16.9545 5.29619 16.949 5.3267 16.9428 5.35695L17.871 5.82178L16.8367 5.70558C16.825 5.73421 16.8126 5.7625 16.7995 5.79044L17.5949 6.45497L16.6144 6.10556C16.5965 6.1305 16.5779 6.15501 16.5588 6.17907L17.1786 7.00811L16.3054 6.44402C16.2822 6.46412 16.2586 6.48369 16.2345 6.50273L16.6445 7.45137L15.9264 6.7033C15.8992 6.71761 15.8717 6.73131 15.8438 6.74438L16.0215 7.76085L15.4972 6.86927C15.4675 6.87697 15.4375 6.88401 15.4072 6.89037L15.3432 7.91988L15.0409 6.9328ZM14.973 6.20742C15.6733 6.20742 16.241 5.64796 16.241 4.95784C16.241 4.26772 15.6733 3.70827 14.973 3.70827C14.2727 3.70827 13.705 4.26772 13.705 4.95784C13.705 5.64796 14.2727 6.20742 14.973 6.20742ZM15.7023 4.99442C15.7023 5.3891 15.3824 5.70904 14.9877 5.70904C14.593 5.70904 14.2731 5.3891 14.2731 4.99442C14.2731 4.59975 14.593 4.27981 14.9877 4.27981C15.3824 4.27981 15.7023 4.59975 15.7023 4.99442Z" fill="#FFDC17"/>
</g>
</g>
<rect x="3" y="1" width="16" height="12" fill="url(#paint0_linear)" style="mix-blend-mode:overlay"/>
</g>
<defs>
<filter id="filter0_d" x="0" y="0" width="22" height="18" filterUnits="userSpaceOnUse" color-interpolation-filters="sRGB">
<feFlood flood-opacity="0" result="BackgroundImageFix"/>
<feColorMatrix in="SourceAlpha" type="matrix" values="0 0 0 0 0 0 0 0 0 0 0 0 0 0 0 0 0 0 127 0" result="hardAlpha"/>
<feOffset dy="2"/>
<feGaussianBlur stdDeviation="1.5"/>
<feColorMatrix type="matrix" values="0 0 0 0 0 0 0 0 0 0 0 0 0 0 0 0 0 0 0.1 0"/>
<feBlend mode="normal" in2="BackgroundImageFix" result="effect1_dropShadow"/>
<feBlend mode="normal" in="SourceGraphic" in2="effect1_dropShadow" result="shape"/>
</filter>
<linearGradient id="paint0_linear" x1="11" y1="1" x2="11" y2="13" gradientUnits="userSpaceOnUse">
<stop stop-color="white" stop-opacity="0.7"/>
<stop offset="1" stop-opacity="0.3"/>
</linearGradient>
</defs>
</svg>
