<svg width="22" height="18" viewBox="0 0 22 18" fill="none" xmlns="http://www.w3.org/2000/svg">
<g filter="url(#filter0_d)">
<mask id="mask0" style="mask-type:alpha" maskUnits="userSpaceOnUse" x="3" y="1" width="16" height="12">
<rect x="3" y="1" width="16" height="12" fill="white"/>
</mask>
<g mask="url(#mask0)">
<rect x="3" y="1" width="16" height="12" fill="#67BD23"/>
<path d="M6.49086 3.28776C6.49086 3.28776 6.7462 4.45242 6.49086 4.22905C6.23551 4.00567 5.66819 4.85693 6.26083 4.54299C6.85347 4.22905 6.95779 3.90364 6.95779 4.54299C6.95779 5.18234 7.24118 4.85704 6.75101 5.33227C6.26083 5.8075 8.46903 5.81492 7.47994 6.11239C6.49086 6.40985 6.02207 7.04407 6.75101 6.81088C7.47994 6.57768 8.65344 5.59 8.34714 5.33227C8.04083 5.07454 8.19142 5.12734 8.19142 4.54299C8.19142 3.95864 7.99696 3.80794 7.74347 3.65703C7.48998 3.50611 8.72972 4.67776 9.14395 3.98276C9.55817 3.28776 9.50831 3.73647 9.80774 3.98276C10.1072 4.22905 10.5734 4.52629 10.5734 3.98276C10.5734 3.43922 11.1882 2.39045 11.1882 3.46672C11.1882 4.54299 11.9599 5.0994 11.9599 4.37822C11.9599 3.65703 12.6696 2.95068 12.6696 3.46672C12.6696 3.98276 13.077 3.95886 13.4252 3.80794C13.7735 3.65703 13.744 3.25884 13.744 4.37822C13.744 5.49759 13.8899 7.24692 13.4252 7.09945C12.9606 6.95197 13.3949 6.28633 12.9598 5.33227C12.5248 4.37822 13.4032 4.37483 12.4953 5.59285C11.5874 6.81088 11.7316 6.63192 11.4599 6.11239C11.1882 5.59285 12.3464 5.07169 11.4599 5.33227C10.5734 5.59285 11.0553 7.05149 10.8144 6.58194C10.5734 6.11239 9.95797 3.61807 9.88285 4.86523C9.80774 6.11239 10.1194 6.81088 9.45992 6.81088C8.80043 6.81088 8.2426 6.86129 8.69327 6.58194C9.14395 6.30259 9.14395 5.33227 9.14395 5.33227" stroke="white" stroke-width="0.5"/>
<path fill-rule="evenodd" clip-rule="evenodd" d="M9.96684 8.92784C9.56023 8.97708 7.50554 8.96864 6.89174 8.82056C6.75422 8.79156 6.83284 9.4187 6.92182 9.56282C7.01081 9.70695 7.70934 9.85135 7.95289 9.88461C8.16187 9.91314 8.96705 9.86822 9.804 9.82153C9.94247 9.81381 10.0818 9.80604 10.2195 9.79854C10.9522 9.75863 12.0226 9.82818 12.5824 9.86455C12.7634 9.87631 12.891 9.88461 12.9365 9.88461C13.1081 9.88461 13.0952 9.9425 13.0693 10.0588C13.067 10.0689 13.0647 10.0794 13.0624 10.0903C13.0331 10.2276 13.1869 10.5226 13.2547 10.5503C13.3225 10.5781 13.8269 10.5503 14.1017 10.4443C14.2581 10.3839 14.2766 10.3923 14.3173 10.4107C14.3481 10.4246 14.3917 10.4443 14.5173 10.4443C14.7061 10.4443 14.7159 10.174 14.7228 9.98312C14.7266 9.879 14.7295 9.79854 14.7601 9.79854C14.7945 9.79854 14.8407 9.90062 14.8839 9.99617C14.9498 10.1419 15.0088 10.2724 15.0088 10.0027C15.0088 9.55613 14.4836 8.9713 14.3119 9.01809C14.1915 9.0509 13.9933 9.01471 13.8587 8.99014C13.8013 8.97966 13.7555 8.9713 13.7323 8.9713C13.6986 8.9713 13.7087 8.96314 13.731 8.94516C13.7601 8.92164 13.8101 8.88135 13.8101 8.82056C13.8101 8.71327 13.708 8.69809 13.623 8.69809C13.538 8.69809 13.4926 8.76757 13.4926 8.82056C13.4926 8.87355 13.5567 8.92784 13.5567 8.92784C13.5434 8.92784 13.4763 8.92695 13.3692 8.92554C12.6781 8.9164 10.3189 8.88521 9.96684 8.92784ZM13.4375 9.87309C13.4375 9.873 13.4916 9.84165 13.617 9.68707C13.7558 9.51593 13.8049 9.57063 13.8561 9.62766C13.8825 9.65705 13.9094 9.68707 13.9495 9.68707C14.0673 9.68707 14.2229 9.68707 14.3241 9.77297C14.4253 9.85886 14.1909 9.97693 14.1227 9.97693C14.0888 9.97693 14.0637 9.95579 14.0385 9.93448C14.0129 9.91284 13.987 9.89103 13.9515 9.89103C13.9097 9.89103 13.8745 9.92136 13.8459 9.94597C13.8264 9.96278 13.8099 9.97693 13.7966 9.97693C13.785 9.97693 13.7592 9.96219 13.7257 9.94312C13.6646 9.90823 13.5781 9.85886 13.5069 9.85886C13.4625 9.85886 13.4376 9.87316 13.4375 9.87309Z" fill="white"/>
<path d="M6.89174 8.82056L6.90347 8.77193L6.90206 8.77163L6.89174 8.82056ZM9.96684 8.92784L9.97285 8.97748L9.96684 8.92784ZM6.92182 9.56282L6.96437 9.53656L6.92182 9.56282ZM7.95289 9.88461L7.95966 9.83507L7.95289 9.88461ZM9.804 9.82153L9.80121 9.77161L9.804 9.82153ZM10.2195 9.79854L10.2222 9.84846L10.2195 9.79854ZM12.5824 9.86455L12.5791 9.91445L12.5824 9.86455ZM13.0693 10.0588L13.1181 10.0697V10.0697L13.0693 10.0588ZM13.0624 10.0903L13.0135 10.0799V10.0799L13.0624 10.0903ZM14.1017 10.4443L14.1197 10.4909L14.1017 10.4443ZM14.3173 10.4107L14.3379 10.3651V10.3651L14.3173 10.4107ZM14.7228 9.98312L14.7728 9.98493V9.98493L14.7228 9.98312ZM14.8839 9.99617L14.9294 9.97558V9.97558L14.8839 9.99617ZM14.3119 9.01809L14.2988 8.96985V8.96985L14.3119 9.01809ZM13.8587 8.99014L13.8497 9.03933L13.8587 8.99014ZM13.731 8.94516L13.6996 8.90624V8.90624L13.731 8.94516ZM13.5567 8.92784V8.97784H13.693L13.589 8.8897L13.5567 8.92784ZM13.3692 8.92554L13.3686 8.97553L13.3692 8.92554ZM13.617 9.68707L13.6558 9.71857L13.617 9.68707ZM13.4375 9.87309L13.4809 9.84819L13.4808 9.84801L13.4375 9.87309ZM13.8561 9.62766L13.8189 9.66105L13.8189 9.66105L13.8561 9.62766ZM14.3241 9.77297L14.3565 9.73485L14.3241 9.77297ZM14.0385 9.93448L14.0062 9.97269L14.0385 9.93448ZM13.8459 9.94597L13.8785 9.98386L13.8459 9.94597ZM13.7257 9.94312L13.7505 9.89969L13.7257 9.94312ZM13.5069 9.85886V9.80886V9.85886ZM6.88001 8.86916C7.19311 8.9447 7.86587 8.98374 8.50586 8.99818C9.14663 9.01263 9.76545 9.00259 9.97285 8.97748L9.96083 8.8782C9.76162 8.90232 9.14979 8.91268 8.50812 8.89821C7.86566 8.88371 7.20417 8.8445 6.90347 8.77195L6.88001 8.86916ZM6.96437 9.53656C6.94684 9.50816 6.92664 9.44908 6.90902 9.37096C6.89182 9.29472 6.8783 9.20607 6.87169 9.12281C6.86501 9.0387 6.86569 8.96367 6.87507 8.91316C6.8799 8.88717 6.88604 8.87344 6.8901 8.86794C6.8917 8.86578 6.89141 8.86706 6.88843 8.86836C6.88496 8.86987 6.88201 8.8696 6.88142 8.86948L6.90206 8.77163C6.88428 8.76788 6.86583 8.76911 6.84844 8.7767C6.83156 8.78407 6.81894 8.79599 6.8097 8.80848C6.79209 8.83229 6.7825 8.86392 6.77675 8.89491C6.76498 8.95833 6.76509 9.04366 6.772 9.13072C6.77898 9.21864 6.7932 9.31199 6.81147 9.39297C6.82931 9.47206 6.85232 9.54542 6.87928 9.58909L6.96437 9.53656ZM7.95966 9.83507C7.84 9.81873 7.60657 9.77474 7.39241 9.71701C7.28527 9.68814 7.18442 9.65621 7.10556 9.62312C7.0661 9.60656 7.03333 9.5902 7.00845 9.57443C6.98266 9.55808 6.96957 9.54498 6.96437 9.53656L6.87928 9.58909C6.89633 9.6167 6.92453 9.63964 6.95492 9.6589C6.98622 9.67874 7.02453 9.69757 7.06687 9.71533C7.15163 9.7509 7.25732 9.78417 7.36638 9.81357C7.58462 9.87239 7.82223 9.91723 7.94613 9.93415L7.95966 9.83507ZM9.80121 9.77161C9.38261 9.79496 8.9725 9.81784 8.64093 9.83132C8.30697 9.8449 8.05871 9.84859 7.95966 9.83507L7.94613 9.93415C8.05605 9.94916 8.31488 9.94466 8.64499 9.93124C8.97748 9.91772 9.38843 9.89479 9.80678 9.87146L9.80121 9.77161ZM10.2167 9.74861C10.079 9.75611 9.93967 9.76389 9.80121 9.77161L9.80678 9.87146C9.94526 9.86373 10.0846 9.85596 10.2222 9.84846L10.2167 9.74861ZM12.5856 9.81466C12.0268 9.77835 10.9531 9.70851 10.2167 9.74861L10.2222 9.84846C10.9513 9.80875 12.0184 9.87802 12.5791 9.91445L12.5856 9.81466ZM12.9365 9.83461C12.8931 9.83461 12.768 9.82651 12.5856 9.81466L12.5791 9.91445C12.7587 9.92612 12.8889 9.93461 12.9365 9.93461V9.83461ZM13.1181 10.0697C13.1243 10.0416 13.1308 10.0129 13.1333 9.9875C13.1358 9.96232 13.1355 9.9325 13.1214 9.90516C13.1062 9.87569 13.0798 9.85791 13.0486 9.84788C13.0187 9.83827 12.9813 9.83461 12.9365 9.83461V9.93461C12.9775 9.93461 13.0028 9.93818 13.018 9.94307C13.0252 9.94539 13.0288 9.94762 13.0305 9.94889C13.0319 9.94996 13.0323 9.9506 13.0325 9.95103C13.0334 9.95271 13.0357 9.95918 13.0338 9.97757C13.032 9.99573 13.0271 10.0179 13.0204 10.048L13.1181 10.0697ZM13.1113 10.1007C13.1135 10.09 13.1158 10.0798 13.1181 10.0697L13.0204 10.048C13.0182 10.058 13.0158 10.0687 13.0135 10.0799L13.1113 10.1007ZM13.2737 10.5041C13.2748 10.5045 13.2708 10.5028 13.2617 10.4935C13.2535 10.485 13.2438 10.4729 13.233 10.4575C13.2115 10.4266 13.1883 10.3856 13.1676 10.3406C13.147 10.2956 13.1296 10.2481 13.1192 10.2045C13.1085 10.1599 13.1062 10.1243 13.1113 10.1007L13.0135 10.0799C13.0039 10.1249 13.0099 10.1777 13.0219 10.2279C13.0342 10.2791 13.0541 10.3328 13.0767 10.3822C13.0994 10.4316 13.1255 10.4781 13.151 10.5146C13.1637 10.5329 13.1768 10.5495 13.1899 10.563C13.2021 10.5756 13.2177 10.5892 13.2358 10.5966L13.2737 10.5041ZM14.0837 10.3976C13.9526 10.4482 13.7631 10.4811 13.5956 10.4977C13.5124 10.506 13.436 10.51 13.3767 10.5104C13.347 10.5105 13.3222 10.5098 13.3034 10.5082C13.2939 10.5075 13.2865 10.5066 13.2809 10.5056C13.2749 10.5046 13.273 10.5038 13.2737 10.5041L13.2358 10.5966C13.2522 10.6033 13.2745 10.6062 13.2953 10.6079C13.318 10.6098 13.3459 10.6106 13.3773 10.6104C13.4402 10.61 13.5198 10.6057 13.6055 10.5972C13.7758 10.5804 13.9759 10.5464 14.1197 10.4909L14.0837 10.3976ZM14.3379 10.3651C14.3284 10.3608 14.3155 10.3548 14.3003 10.3511C14.2841 10.3471 14.2672 10.3461 14.2475 10.3482C14.2109 10.3522 14.1615 10.3676 14.0837 10.3976L14.1197 10.4909C14.1982 10.4606 14.2363 10.45 14.2582 10.4477C14.2678 10.4466 14.2729 10.4474 14.2765 10.4482C14.2812 10.4494 14.2858 10.4513 14.2967 10.4562L14.3379 10.3651ZM14.5173 10.3943C14.457 10.3943 14.4184 10.3895 14.3924 10.3839C14.3671 10.3783 14.3523 10.3716 14.3379 10.3651L14.2967 10.4562C14.3131 10.4637 14.3355 10.4738 14.3711 10.4815C14.4059 10.4892 14.452 10.4943 14.5173 10.4943V10.3943ZM14.6728 9.9813C14.6693 10.0784 14.6651 10.1869 14.6403 10.2711C14.628 10.3129 14.6119 10.344 14.5923 10.3642C14.574 10.3829 14.5509 10.3943 14.5173 10.3943V10.4943C14.5781 10.4943 14.627 10.4719 14.6639 10.4339C14.6994 10.3975 14.7216 10.3491 14.7362 10.2994C14.7652 10.2007 14.7694 10.0786 14.7728 9.98493L14.6728 9.9813ZM14.7601 9.74854C14.7251 9.74854 14.7058 9.77343 14.6973 9.79015C14.689 9.80663 14.6847 9.82638 14.682 9.84427C14.6764 9.88091 14.6747 9.93046 14.6728 9.9813L14.7728 9.98493C14.7747 9.93165 14.7763 9.88891 14.7808 9.85929C14.7831 9.84406 14.7856 9.83718 14.7865 9.83532C14.7873 9.8337 14.7798 9.84854 14.7601 9.84854V9.74854ZM14.9294 9.97558C14.9081 9.92848 14.8848 9.87674 14.8622 9.83687C14.851 9.81707 14.8386 9.79774 14.8253 9.78276C14.8143 9.77047 14.7921 9.74854 14.7601 9.74854V9.84854C14.7454 9.84854 14.7418 9.83937 14.7505 9.84921C14.7569 9.85634 14.7652 9.86851 14.7752 9.88618C14.7951 9.92124 14.8164 9.96831 14.8383 10.0168L14.9294 9.97558ZM14.9588 10.0027C14.9588 10.0356 14.9579 10.0617 14.9563 10.0819C14.9546 10.1025 14.9524 10.1153 14.9504 10.1225C14.9494 10.126 14.9488 10.1267 14.9494 10.1258C14.9498 10.125 14.9527 10.12 14.9596 10.1155C14.9678 10.1102 14.9779 10.1082 14.9873 10.1098C14.9953 10.1111 15 10.1144 15.0009 10.1151C15.002 10.116 15.0018 10.116 15.0001 10.1141C14.9986 10.1123 14.9966 10.1096 14.994 10.1057C14.9887 10.0978 14.9826 10.0871 14.9756 10.0736C14.9615 10.0465 14.9461 10.0124 14.9294 9.97558L14.8383 10.0168C14.8546 10.0528 14.8713 10.0897 14.8868 10.1196C14.8946 10.1346 14.9026 10.1489 14.9107 10.1611C14.9182 10.1723 14.9283 10.1857 14.9411 10.1953C14.9478 10.2003 14.958 10.2063 14.9712 10.2085C14.9858 10.2109 15.0008 10.2079 15.0136 10.1997C15.035 10.186 15.043 10.1626 15.0467 10.1495C15.0553 10.1187 15.0588 10.07 15.0588 10.0027H14.9588ZM14.3251 9.06634C14.3313 9.06463 14.3461 9.06443 14.3725 9.07504C14.3979 9.08524 14.4286 9.10332 14.4632 9.12935C14.5322 9.18129 14.6109 9.26054 14.6853 9.3561C14.8354 9.54896 14.9588 9.7959 14.9588 10.0027H15.0588C15.0588 9.76294 14.9195 9.49417 14.7642 9.29467C14.6859 9.19405 14.6011 9.10796 14.5233 9.04945C14.4845 9.02025 14.446 8.99683 14.4098 8.98226C14.3746 8.9681 14.3354 8.95986 14.2988 8.96985L14.3251 9.06634ZM13.8497 9.03933C13.9167 9.05156 14.0019 9.06714 14.0857 9.07539C14.1684 9.08353 14.2556 9.08525 14.3251 9.06634L14.2988 8.96985C14.2478 8.98374 14.1758 8.98377 14.0955 8.97587C14.0165 8.96809 13.9353 8.95329 13.8677 8.94095L13.8497 9.03933ZM13.7323 9.0213C13.7395 9.0213 13.7533 9.02277 13.7749 9.02618C13.7957 9.02947 13.8209 9.03405 13.8497 9.03933L13.8677 8.94095C13.8392 8.93575 13.8128 8.93092 13.7905 8.9274C13.7691 8.92402 13.7483 8.9213 13.7323 8.9213V9.0213ZM13.6996 8.90624C13.6945 8.91033 13.6882 8.91542 13.6831 8.92014C13.6805 8.92255 13.677 8.92594 13.6737 8.93003C13.671 8.93344 13.6651 8.94127 13.6622 8.95253C13.6586 8.96667 13.6603 8.98478 13.6727 8.99977C13.6826 9.0116 13.6948 9.01595 13.7002 9.01759C13.7114 9.02099 13.7237 9.0213 13.7323 9.0213V8.9213C13.724 8.9213 13.7249 8.9206 13.7292 8.9219C13.7312 8.92249 13.7411 8.92553 13.7496 8.93577C13.7543 8.94149 13.7581 8.94875 13.7597 8.95712C13.7612 8.96523 13.7604 8.97228 13.759 8.97742C13.7567 8.98654 13.7522 8.99193 13.7517 8.99263C13.7506 8.99401 13.75 8.9944 13.751 8.99352C13.753 8.99165 13.7563 8.98898 13.7624 8.98408L13.6996 8.90624ZM13.7601 8.82056C13.7601 8.83635 13.7538 8.85105 13.7421 8.86601C13.73 8.88152 13.7145 8.89419 13.6996 8.90624L13.7624 8.98408C13.7766 8.97261 13.8007 8.95338 13.8208 8.92766C13.8414 8.90139 13.8601 8.86555 13.8601 8.82056H13.7601ZM13.623 8.74809C13.6644 8.74809 13.7015 8.75214 13.7269 8.76424C13.7387 8.76984 13.7463 8.77639 13.7511 8.78371C13.7558 8.79083 13.7601 8.80197 13.7601 8.82056H13.8601C13.8601 8.7855 13.8516 8.75451 13.8345 8.72861C13.8176 8.70291 13.7943 8.68555 13.7699 8.67395C13.723 8.65163 13.6666 8.64809 13.623 8.64809V8.74809ZM13.5426 8.82056C13.5426 8.79094 13.5697 8.74809 13.623 8.74809V8.64809C13.5063 8.64809 13.4426 8.74419 13.4426 8.82056H13.5426ZM13.5567 8.92784C13.589 8.8897 13.589 8.88971 13.589 8.88971C13.589 8.88972 13.589 8.88972 13.589 8.88973C13.5891 8.88974 13.5891 8.88974 13.5891 8.88975C13.5891 8.88977 13.5891 8.88978 13.5891 8.88978C13.5891 8.8898 13.5891 8.8898 13.5891 8.88979C13.5891 8.88977 13.589 8.88971 13.5889 8.88959C13.5886 8.88937 13.5882 8.88895 13.5875 8.88836C13.5862 8.88719 13.5842 8.88534 13.5818 8.88292C13.5768 8.87802 13.5703 8.87111 13.5638 8.86301C13.5492 8.84452 13.5426 8.82919 13.5426 8.82056H13.4426C13.4426 8.86492 13.4681 8.90323 13.4855 8.92513C13.4951 8.93723 13.5045 8.9472 13.5116 8.95414C13.5151 8.95764 13.5181 8.96044 13.5203 8.96244C13.5214 8.96344 13.5224 8.96425 13.523 8.96484C13.5234 8.96514 13.5237 8.96538 13.5239 8.96557C13.524 8.96567 13.5241 8.96575 13.5242 8.96582C13.5242 8.96585 13.5242 8.96588 13.5243 8.96591C13.5243 8.96592 13.5243 8.96594 13.5243 8.96595C13.5243 8.96595 13.5243 8.96596 13.5243 8.96596C13.5243 8.96597 13.5244 8.96598 13.5567 8.92784ZM13.3686 8.97553C13.4753 8.97694 13.5429 8.97784 13.5567 8.97784V8.87784C13.5438 8.87784 13.4773 8.87696 13.3699 8.87554L13.3686 8.97553ZM9.97285 8.97748C10.0575 8.96723 10.2678 8.96115 10.5503 8.95821C10.8314 8.95528 11.1806 8.95547 11.5406 8.95728C12.2606 8.96089 13.023 8.97096 13.3686 8.97553L13.3699 8.87554C13.0244 8.87097 12.2616 8.86089 11.5411 8.85728C11.1809 8.85547 10.8311 8.85528 10.5493 8.85821C10.2688 8.86113 10.0522 8.86714 9.96083 8.8782L9.97285 8.97748ZM13.5781 9.65557C13.5166 9.73146 13.4733 9.77615 13.4461 9.80141C13.4326 9.81402 13.4231 9.82172 13.4175 9.826C13.4147 9.82813 13.4129 9.82943 13.412 9.83007C13.4115 9.83038 13.4112 9.83056 13.4111 9.83064C13.4109 9.83075 13.411 9.83067 13.4107 9.83088C13.4107 9.83088 13.4103 9.83117 13.4098 9.83151C13.4096 9.83159 13.4087 9.83222 13.4076 9.83306C13.4072 9.83331 13.4054 9.83465 13.4033 9.8366C13.4021 9.83785 13.3986 9.84167 13.3966 9.84434C13.3926 9.85108 13.3878 9.87874 13.3943 9.89817L13.4808 9.84801C13.4872 9.86745 13.4824 9.8951 13.4784 9.90184C13.4764 9.90452 13.473 9.90834 13.4717 9.90958C13.4696 9.91153 13.4678 9.91286 13.4675 9.91311C13.4664 9.91395 13.4655 9.91455 13.4654 9.91462C13.4651 9.91481 13.4649 9.91496 13.4648 9.915C13.4647 9.91506 13.4646 9.9151 13.4646 9.9151C13.4645 9.91517 13.465 9.91489 13.4652 9.91473C13.4659 9.91426 13.4669 9.91361 13.4682 9.91276C13.4707 9.91106 13.474 9.90868 13.4783 9.90545C13.4867 9.89899 13.4986 9.88917 13.5143 9.87461C13.5455 9.84552 13.592 9.79725 13.6558 9.71857L13.5781 9.65557ZM13.8933 9.59426C13.8813 9.58086 13.8653 9.56278 13.8467 9.54881C13.8269 9.53399 13.801 9.52128 13.7686 9.52181C13.7369 9.52232 13.7064 9.53536 13.6764 9.55706C13.6465 9.5787 13.6143 9.61105 13.5781 9.65557L13.6558 9.71857C13.6891 9.67752 13.7151 9.65253 13.735 9.63807C13.7549 9.62368 13.7659 9.62186 13.7702 9.62179C13.7738 9.62173 13.7785 9.62269 13.7867 9.62882C13.796 9.63579 13.8053 9.64594 13.8189 9.66105L13.8933 9.59426ZM13.9495 9.63707C13.9432 9.63707 13.9366 9.63505 13.9275 9.62825C13.9172 9.62062 13.9072 9.60976 13.8933 9.59426L13.8189 9.66105C13.8415 9.68627 13.8833 9.73707 13.9495 9.73707V9.63707ZM14.3565 9.73485C14.2963 9.68372 14.222 9.65995 14.1511 9.64845C14.0802 9.63697 14.0078 9.63707 13.9495 9.63707V9.73707C14.009 9.73707 14.0734 9.73717 14.1351 9.74716C14.1966 9.75714 14.2508 9.77632 14.2918 9.81108L14.3565 9.73485ZM14.1227 10.0269C14.1499 10.0269 14.1849 10.0163 14.2163 10.0033C14.2494 9.98965 14.2856 9.97032 14.3167 9.94737C14.3463 9.92548 14.3777 9.89559 14.3917 9.85886C14.3991 9.83925 14.402 9.81663 14.3956 9.79316C14.3892 9.76989 14.3749 9.75051 14.3565 9.73485L14.2918 9.81108C14.2952 9.81402 14.2971 9.81628 14.2981 9.81767C14.2985 9.81836 14.2988 9.81886 14.2989 9.81916C14.2991 9.81945 14.2991 9.8196 14.2991 9.81962C14.2991 9.81964 14.2991 9.81965 14.2991 9.81964C14.2991 9.81964 14.2991 9.81964 14.2991 9.81964C14.2991 9.81964 14.2991 9.81966 14.2991 9.8197C14.2991 9.81974 14.2991 9.81981 14.2991 9.81991C14.2991 9.8203 14.2989 9.82139 14.2982 9.82329C14.2946 9.83285 14.2821 9.84858 14.2572 9.86694C14.2338 9.88425 14.205 9.8998 14.1781 9.91094C14.1494 9.92278 14.1295 9.92693 14.1227 9.92693V10.0269ZM14.0062 9.97269C14.0287 9.99161 14.0675 10.0269 14.1227 10.0269V9.92693C14.11 9.92693 14.0988 9.91997 14.0708 9.89628L14.0062 9.97269ZM13.9515 9.94103C13.9659 9.94103 13.978 9.94885 14.0062 9.97269L14.0708 9.89628C14.0477 9.87683 14.0082 9.84103 13.9515 9.84103V9.94103ZM13.8785 9.98386C13.8933 9.97112 13.9062 9.96019 13.9196 9.95205C13.9327 9.94412 13.943 9.94103 13.9515 9.94103V9.84103C13.9183 9.84103 13.89 9.85311 13.8678 9.8665C13.8461 9.87967 13.827 9.89621 13.8133 9.90808L13.8785 9.98386ZM13.7966 10.0269C13.8193 10.0269 13.8376 10.0156 13.8472 10.009C13.8582 10.0015 13.8694 9.9917 13.8785 9.98386L13.8133 9.90808C13.8028 9.91705 13.7961 9.92277 13.7906 9.92653C13.7881 9.92827 13.7872 9.92863 13.7875 9.92847C13.7879 9.92833 13.7912 9.92693 13.7966 9.92693V10.0269ZM13.701 9.98655C13.7172 9.99584 13.7334 10.0051 13.7469 10.0119C13.7537 10.0153 13.761 10.0187 13.7681 10.0213C13.7743 10.0235 13.7847 10.0269 13.7966 10.0269V9.92693C13.8027 9.92693 13.8056 9.92849 13.8026 9.92739C13.8005 9.92664 13.7971 9.92514 13.7918 9.92249C13.7812 9.91715 13.7677 9.90947 13.7505 9.89969L13.701 9.98655ZM13.5069 9.90886C13.5322 9.90886 13.564 9.91795 13.6 9.93371C13.6354 9.94919 13.6701 9.96892 13.701 9.98655L13.7505 9.89969C13.7203 9.88243 13.6811 9.86004 13.6401 9.8421C13.5998 9.82446 13.5528 9.80886 13.5069 9.80886V9.90886ZM13.3942 9.898C13.4041 9.91026 13.4253 9.92158 13.4337 9.92295C13.438 9.92309 13.4447 9.92258 13.4471 9.92217C13.4511 9.92139 13.4541 9.92028 13.4547 9.92004C13.4567 9.91931 13.4582 9.91861 13.4585 9.91849C13.4594 9.91808 13.4601 9.91771 13.4602 9.91768C13.4604 9.91757 13.4606 9.91747 13.4606 9.91745C13.4607 9.91741 13.4608 9.91737 13.4608 9.91736C13.4609 9.91731 13.4609 9.91729 13.461 9.91725C13.4611 9.91719 13.4615 9.91699 13.4622 9.91669C13.4636 9.91609 13.4662 9.91502 13.47 9.91386C13.4777 9.91156 13.4901 9.90886 13.5069 9.90886V9.80886C13.4793 9.80886 13.4571 9.81331 13.4411 9.81814C13.4331 9.82055 13.4268 9.82305 13.4221 9.8251C13.4197 9.82614 13.4178 9.82704 13.4164 9.82775C13.4157 9.8281 13.4151 9.82838 13.4149 9.82853C13.4146 9.82867 13.4148 9.82855 13.415 9.82844C13.415 9.82843 13.4157 9.82808 13.4166 9.82768C13.4169 9.82757 13.4184 9.82687 13.4203 9.82614C13.421 9.82591 13.424 9.8248 13.4279 9.82402C13.4304 9.82361 13.4371 9.8231 13.4414 9.82324C13.4497 9.8246 13.471 9.83593 13.4809 9.84819L13.3942 9.898Z" fill="white"/>
<path d="M16.1161 3.37274C16.1161 3.37274 16.9232 7.00001 16.1161 7.00001C15.309 7.00001 15.309 6.68362 15.309 6.68362C15.309 6.68362 16.1953 7.09119 15.9502 6.02539C15.7051 4.9596 15.4764 5.69333 15.4764 4.75608C15.4764 3.81883 15.309 3.19007 15.309 3.66934C15.309 4.1486 15.1979 7.04361 14.7601 6.45141C14.3223 5.8592 14.4287 4.02529 14.4287 3.84731" stroke="white" stroke-width="0.5"/>
</g>
<rect x="3" y="1" width="16" height="12" fill="url(#paint0_linear)" style="mix-blend-mode:overlay"/>
</g>
<defs>
<filter id="filter0_d" x="0" y="0" width="22" height="18" filterUnits="userSpaceOnUse" color-interpolation-filters="sRGB">
<feFlood flood-opacity="0" result="BackgroundImageFix"/>
<feColorMatrix in="SourceAlpha" type="matrix" values="0 0 0 0 0 0 0 0 0 0 0 0 0 0 0 0 0 0 127 0" result="hardAlpha"/>
<feOffset dy="2"/>
<feGaussianBlur stdDeviation="1.5"/>
<feColorMatrix type="matrix" values="0 0 0 0 0 0 0 0 0 0 0 0 0 0 0 0 0 0 0.1 0"/>
<feBlend mode="normal" in2="BackgroundImageFix" result="effect1_dropShadow"/>
<feBlend mode="normal" in="SourceGraphic" in2="effect1_dropShadow" result="shape"/>
</filter>
<linearGradient id="paint0_linear" x1="11" y1="1" x2="11" y2="13" gradientUnits="userSpaceOnUse">
<stop stop-color="white" stop-opacity="0.7"/>
<stop offset="1" stop-opacity="0.3"/>
</linearGradient>
</defs>
</svg>
