<svg width="22" height="18" viewBox="0 0 22 18" fill="none" xmlns="http://www.w3.org/2000/svg">
<g filter="url(#filter0_d)">
<mask id="mask0" style="mask-type:alpha" maskUnits="userSpaceOnUse" x="3" y="1" width="16" height="12">
<rect x="3" y="1" width="16" height="12" fill="white"/>
</mask>
<g mask="url(#mask0)">
<path fill-rule="evenodd" clip-rule="evenodd" d="M3 1V13H19V1H3Z" fill="#2E42A5"/>
<mask id="mask1" style="mask-type:alpha" maskUnits="userSpaceOnUse" x="3" y="1" width="16" height="12">
<path fill-rule="evenodd" clip-rule="evenodd" d="M3 1V13H19V1H3Z" fill="white"/>
</mask>
<g mask="url(#mask1)">
<mask id="mask2" style="mask-type:alpha" maskUnits="userSpaceOnUse" x="3" y="1" width="9" height="7">
<rect x="3" y="1" width="9" height="7" fill="white"/>
</mask>
<g mask="url(#mask2)">
<path d="M1.99786 7.4999L3.97834 8.3685L12.0449 1.94436L13.0896 0.653595L10.9718 0.363283L7.68159 3.13163L5.03334 4.99685L1.99786 7.4999Z" fill="#F7FCFF"/>
<path d="M2.26898 8.10845L3.27794 8.61252L12.7145 0.533661H11.2978L2.26898 8.10845Z" fill="#F50100"/>
<path d="M13.0021 7.4999L11.0217 8.3685L2.95506 1.94436L1.91041 0.653595L4.02824 0.363283L7.31841 3.13163L9.96666 4.99685L13.0021 7.4999Z" fill="#F7FCFF"/>
<path d="M12.9346 7.93667L11.9256 8.44073L7.90745 4.98176L6.71615 4.59529L1.8099 0.658027H3.2266L8.13009 4.50184L9.43256 4.96525L12.9346 7.93667Z" fill="#F50100"/>
<mask id="path-10-outside-1" maskUnits="userSpaceOnUse" x="2" y="0" width="11" height="9" fill="black">
<rect fill="white" x="2" width="11" height="9"/>
<path fill-rule="evenodd" clip-rule="evenodd" d="M7.99226 1H6.99226V4H3V5H6.99226V8H7.99226V5H12V4H7.99226V1Z"/>
</mask>
<path fill-rule="evenodd" clip-rule="evenodd" d="M7.99226 1H6.99226V4H3V5H6.99226V8H7.99226V5H12V4H7.99226V1Z" fill="#F50100"/>
<path d="M6.99226 1V0.25H6.24226V1H6.99226ZM7.99226 1H8.74226V0.25H7.99226V1ZM6.99226 4V4.75H7.74226V4H6.99226ZM3 4V3.25H2.25V4H3ZM3 5H2.25V5.75H3V5ZM6.99226 5H7.74226V4.25H6.99226V5ZM6.99226 8H6.24226V8.75H6.99226V8ZM7.99226 8V8.75H8.74226V8H7.99226ZM7.99226 5V4.25H7.24226V5H7.99226ZM12 5V5.75H12.75V5H12ZM12 4H12.75V3.25H12V4ZM7.99226 4H7.24226V4.75H7.99226V4ZM6.99226 1.75H7.99226V0.25H6.99226V1.75ZM7.74226 4V1H6.24226V4H7.74226ZM3 4.75H6.99226V3.25H3V4.75ZM3.75 5V4H2.25V5H3.75ZM6.99226 4.25H3V5.75H6.99226V4.25ZM7.74226 8V5H6.24226V8H7.74226ZM7.99226 7.25H6.99226V8.75H7.99226V7.25ZM7.24226 5V8H8.74226V5H7.24226ZM12 4.25H7.99226V5.75H12V4.25ZM11.25 4V5H12.75V4H11.25ZM7.99226 4.75H12V3.25H7.99226V4.75ZM7.24226 1V4H8.74226V1H7.24226Z" fill="#F7FCFF" mask="url(#path-10-outside-1)"/>
</g>
<path d="M13.0228 5.89462H12.8978V6.01962C12.8978 6.27982 12.8966 6.53461 12.8954 6.78322C12.8927 7.3754 12.8901 7.93254 12.9041 8.44418C12.9239 9.17072 12.9772 9.81643 13.1139 10.3543C13.2507 10.8929 13.474 11.3345 13.8419 11.6402C14.2109 11.9468 14.7094 12.1034 15.3701 12.1034C16.0372 12.1034 16.5495 11.9087 16.9339 11.5587C17.3156 11.2111 17.5598 10.7207 17.713 10.1486C18.0183 9.00878 17.9736 7.49886 17.8888 6.0125L17.8821 5.89462H17.764H13.0228Z" fill="#B7E1FF" stroke="#F7FCFF" stroke-width="0.25"/>
<mask id="mask3" style="mask-type:alpha" maskUnits="userSpaceOnUse" x="12" y="5" width="7" height="8">
<path d="M13.0228 5.89462H12.8978V6.01962C12.8978 6.27982 12.8966 6.53461 12.8954 6.78322C12.8927 7.3754 12.8901 7.93254 12.9041 8.44418C12.9239 9.17072 12.9772 9.81643 13.1139 10.3543C13.2507 10.8929 13.474 11.3345 13.8419 11.6402C14.2109 11.9468 14.7094 12.1034 15.3701 12.1034C16.0372 12.1034 16.5495 11.9087 16.9339 11.5587C17.3156 11.2111 17.5598 10.7207 17.713 10.1486C18.0183 9.00878 17.9736 7.49886 17.8888 6.0125L17.8821 5.89462H17.764H13.0228Z" fill="white" stroke="white" stroke-width="0.25"/>
</mask>
<g mask="url(#mask3)">
<rect x="14.2" y="10.8" width="3.6" height="1.2" fill="#2E42A5"/>
<g filter="url(#filter1_d)">
<rect x="11.8" y="4.80002" width="7.2" height="3.6" fill="#FDFF00"/>
</g>
<path fill-rule="evenodd" clip-rule="evenodd" d="M15.4 8.04002C15.8639 8.04002 16.24 7.66394 16.24 7.20002C16.24 6.7361 15.8639 6.36002 15.4 6.36002C14.9361 6.36002 14.56 6.7361 14.56 7.20002C14.56 7.66394 14.9361 8.04002 15.4 8.04002Z" fill="#272727"/>
<path fill-rule="evenodd" clip-rule="evenodd" d="M13.0706 9.41184L13.6065 8.91817C13.6065 8.91817 14.3305 8.84537 14.4159 9.00519C14.5012 9.165 14.4505 8.93137 14.5868 9.29825C14.723 9.66513 14.7769 9.14063 14.8518 9.66513C14.9268 10.1896 14.9902 10.3706 14.9902 10.4926C14.9902 10.6146 15.6725 10.9782 15.4108 11.2285C15.1491 11.4789 15.1375 12.0557 15.1375 12.2209C15.1375 12.3862 15.1169 12.4603 14.8518 12.4233C14.5868 12.3862 14.2644 12.5182 14.2 12.5182C14.1356 12.5182 13.3584 12.3598 13.3584 12.0338C13.3584 11.7078 13.0706 9.41184 13.0706 9.41184Z" fill="#CE6201"/>
</g>
</g>
</g>
<rect x="3" y="1" width="16" height="12" fill="url(#paint0_linear)" style="mix-blend-mode:overlay"/>
</g>
<defs>
<filter id="filter0_d" x="0" y="0" width="22" height="18" filterUnits="userSpaceOnUse" color-interpolation-filters="sRGB">
<feFlood flood-opacity="0" result="BackgroundImageFix"/>
<feColorMatrix in="SourceAlpha" type="matrix" values="0 0 0 0 0 0 0 0 0 0 0 0 0 0 0 0 0 0 127 0" result="hardAlpha"/>
<feOffset dy="2"/>
<feGaussianBlur stdDeviation="1.5"/>
<feColorMatrix type="matrix" values="0 0 0 0 0 0 0 0 0 0 0 0 0 0 0 0 0 0 0.1 0"/>
<feBlend mode="normal" in2="BackgroundImageFix" result="effect1_dropShadow"/>
<feBlend mode="normal" in="SourceGraphic" in2="effect1_dropShadow" result="shape"/>
</filter>
<filter id="filter1_d" x="11.8" y="4.80002" width="7.2" height="3.85" filterUnits="userSpaceOnUse" color-interpolation-filters="sRGB">
<feFlood flood-opacity="0" result="BackgroundImageFix"/>
<feColorMatrix in="SourceAlpha" type="matrix" values="0 0 0 0 0 0 0 0 0 0 0 0 0 0 0 0 0 0 127 0" result="hardAlpha"/>
<feOffset dy="0.25"/>
<feColorMatrix type="matrix" values="0 0 0 0 0 0 0 0 0 0 0 0 0 0 0 0 0 0 0.5 0"/>
<feBlend mode="normal" in2="BackgroundImageFix" result="effect1_dropShadow"/>
<feBlend mode="normal" in="SourceGraphic" in2="effect1_dropShadow" result="shape"/>
</filter>
<linearGradient id="paint0_linear" x1="11" y1="1" x2="11" y2="13" gradientUnits="userSpaceOnUse">
<stop stop-color="white" stop-opacity="0.7"/>
<stop offset="1" stop-opacity="0.3"/>
</linearGradient>
</defs>
</svg>
