<svg width="22" height="18" viewBox="0 0 22 18" fill="none" xmlns="http://www.w3.org/2000/svg">
<g filter="url(#filter0_d)">
<mask id="mask0" style="mask-type:alpha" maskUnits="userSpaceOnUse" x="3" y="1" width="16" height="12">
<rect x="3" y="1" width="16" height="12" fill="white"/>
</mask>
<g mask="url(#mask0)">
<path fill-rule="evenodd" clip-rule="evenodd" d="M3 1V13H19V1H3Z" fill="#3D58DB"/>
<mask id="mask1" style="mask-type:alpha" maskUnits="userSpaceOnUse" x="3" y="1" width="16" height="12">
<path fill-rule="evenodd" clip-rule="evenodd" d="M3 1V13H19V1H3Z" fill="white"/>
</mask>
<g mask="url(#mask1)">
<path fill-rule="evenodd" clip-rule="evenodd" d="M3 1V5H19V1H3Z" fill="#F7FCFF"/>
<path fill-rule="evenodd" clip-rule="evenodd" d="M3 9V13H19V9H3Z" fill="#E31D1C"/>
<path d="M10.802 4.01517L11.0506 3.98872L11.0268 3.76517H10.802H6.17241H5.9387L5.92298 3.99835L6.17241 4.01517L5.92298 3.99839L5.92297 3.9985L5.92294 3.9989L5.92284 4.00043L5.92244 4.0064L5.92092 4.02952L5.91525 4.11762C5.91042 4.19381 5.90365 4.30344 5.89586 4.43741C5.88027 4.70529 5.86058 5.0709 5.84417 5.46148C5.81183 6.23128 5.79039 7.13247 5.84639 7.55333C5.95568 8.37457 6.45575 10.2181 8.38991 11.0536L8.49078 11.0972L8.59109 11.0523C10.4282 10.2309 11.0426 8.57657 11.1844 7.5547C11.2559 7.03898 11.2195 6.13656 11.1693 5.38666C11.1439 5.00665 11.1142 4.65748 11.0909 4.40338C11.0793 4.27628 11.0692 4.17285 11.062 4.10108L11.0536 4.01817L11.0514 3.99639L11.0508 3.99074L11.0506 3.98927L11.0506 3.98888L11.0506 3.98877L10.802 4.01517Z" fill="#E31D1C" stroke="white" stroke-width="0.5"/>
<mask id="mask2" style="mask-type:alpha" maskUnits="userSpaceOnUse" x="5" y="3" width="7" height="9">
<path d="M10.802 4.01517L11.0506 3.98872L11.0268 3.76517H10.802H6.17241H5.9387L5.92298 3.99835L6.17241 4.01517L5.92298 3.99839L5.92297 3.9985L5.92294 3.9989L5.92284 4.00043L5.92244 4.0064L5.92092 4.02952L5.91525 4.11762C5.91042 4.19381 5.90365 4.30344 5.89586 4.43741C5.88027 4.70529 5.86058 5.0709 5.84417 5.46148C5.81183 6.23128 5.79039 7.13247 5.84639 7.55333C5.95568 8.37457 6.45575 10.2181 8.38991 11.0536L8.49078 11.0972L8.59109 11.0523C10.4282 10.2309 11.0426 8.57657 11.1844 7.5547C11.2559 7.03898 11.2195 6.13656 11.1693 5.38666C11.1439 5.00665 11.1142 4.65748 11.0909 4.40338C11.0793 4.27628 11.0692 4.17285 11.062 4.10108L11.0536 4.01817L11.0514 3.99639L11.0508 3.99074L11.0506 3.98927L11.0506 3.98888L11.0506 3.98877L10.802 4.01517Z" fill="white" stroke="white" stroke-width="0.5"/>
</mask>
<g mask="url(#mask2)">
<path fill-rule="evenodd" clip-rule="evenodd" d="M7.93117 4.29486C7.93117 4.29486 8.03442 4.45217 8.08064 4.69271C8.12686 4.93326 8.13483 5.20689 8.13483 5.20689L7.35279 5.08629V5.97676L8.15671 5.84924L8.13266 6.78301C8.13266 6.78301 8.03051 6.81406 7.78482 6.78301C7.53913 6.75196 7.05511 6.62186 7.05511 6.62186V7.47205C7.05511 7.47205 7.54686 7.31473 7.78482 7.27863C8.02277 7.24253 8.13266 7.27863 8.13266 7.27863L8.14044 8.09389H8.9378L8.93003 7.27863C8.93003 7.27863 9.18096 7.24 9.44605 7.28182C9.71114 7.32364 9.96259 7.47205 9.96259 7.47205V6.62186C9.96259 6.62186 9.70784 6.74878 9.46757 6.78036C9.22729 6.81194 8.93003 6.78301 8.93003 6.78301L8.95408 5.84924C8.95408 5.84924 9.09325 5.81481 9.27985 5.84014C9.46646 5.86547 9.70002 5.97676 9.70002 5.97676V5.08629C9.70002 5.08629 9.47238 5.21017 9.29326 5.23264C9.11415 5.25511 8.93219 5.20689 8.93219 5.20689C8.93219 5.20689 8.93885 4.91978 8.97736 4.708C9.01588 4.49622 9.12494 4.29486 9.12494 4.29486H7.93117Z" fill="#F7FCFF"/>
<path fill-rule="evenodd" clip-rule="evenodd" d="M6.44867 9.12262C6.44867 9.12262 6.66842 8.65099 7.02598 8.56131C7.38355 8.47163 7.75849 8.84196 7.75849 8.84196C7.75849 8.84196 7.98744 8.09375 8.54549 8.09375C9.10354 8.09375 9.2994 8.84196 9.2994 8.84196C9.2994 8.84196 9.53749 8.56131 9.87988 8.56131C10.2223 8.56131 10.5395 9.12262 10.5395 9.12262C10.5395 9.12262 9.51678 10.9793 8.49408 10.9793C7.47137 10.9793 6.44867 9.12262 6.44867 9.12262Z" fill="#2E42A5"/>
</g>
</g>
</g>
<rect x="3" y="1" width="16" height="12" fill="url(#paint0_linear)" style="mix-blend-mode:overlay"/>
</g>
<defs>
<filter id="filter0_d" x="0" y="0" width="22" height="18" filterUnits="userSpaceOnUse" color-interpolation-filters="sRGB">
<feFlood flood-opacity="0" result="BackgroundImageFix"/>
<feColorMatrix in="SourceAlpha" type="matrix" values="0 0 0 0 0 0 0 0 0 0 0 0 0 0 0 0 0 0 127 0" result="hardAlpha"/>
<feOffset dy="2"/>
<feGaussianBlur stdDeviation="1.5"/>
<feColorMatrix type="matrix" values="0 0 0 0 0 0 0 0 0 0 0 0 0 0 0 0 0 0 0.1 0"/>
<feBlend mode="normal" in2="BackgroundImageFix" result="effect1_dropShadow"/>
<feBlend mode="normal" in="SourceGraphic" in2="effect1_dropShadow" result="shape"/>
</filter>
<linearGradient id="paint0_linear" x1="11" y1="1" x2="11" y2="13" gradientUnits="userSpaceOnUse">
<stop stop-color="white" stop-opacity="0.7"/>
<stop offset="1" stop-opacity="0.3"/>
</linearGradient>
</defs>
</svg>
