<svg width="22" height="18" viewBox="0 0 22 18" fill="none" xmlns="http://www.w3.org/2000/svg">
<g filter="url(#filter0_d)">
<mask id="mask0" style="mask-type:alpha" maskUnits="userSpaceOnUse" x="3" y="1" width="16" height="12">
<rect x="3" y="1" width="16" height="12" fill="white"/>
</mask>
<g mask="url(#mask0)">
<path fill-rule="evenodd" clip-rule="evenodd" d="M3 1V13H19V1H3Z" fill="#F7FCFF"/>
<mask id="mask1" style="mask-type:alpha" maskUnits="userSpaceOnUse" x="3" y="1" width="16" height="12">
<path fill-rule="evenodd" clip-rule="evenodd" d="M3 1V13H19V1H3Z" fill="white"/>
</mask>
<g mask="url(#mask1)">
<path fill-rule="evenodd" clip-rule="evenodd" d="M3 7V13H19V7H3Z" fill="#56C6F5"/>
<path fill-rule="evenodd" clip-rule="evenodd" d="M8.12709 5.51424C8.12338 5.47198 8.11454 5.43546 8.09926 5.40698C7.97082 5.1676 8.01232 4.86807 8.01232 4.86807C8.01232 4.86807 7.85895 5.21885 7.76896 5.5491C7.67437 5.39531 7.6413 5.24123 7.6413 5.24123C7.6413 5.24123 7.58008 6.21002 7.76725 6.43957C7.95442 6.66911 8.07921 6.76997 8.07921 6.76997C8.07921 6.76997 8.09337 6.36769 8.03888 6.05308C8.07728 5.92184 8.11192 5.77806 8.12433 5.65427C8.1489 5.63608 8.21364 5.58747 8.29466 5.52137C8.26052 5.70975 8.25882 5.81211 8.25882 5.81211C8.25882 5.81211 8.96411 5.30001 8.98204 5.02895C8.99996 4.75788 9.19388 4.52585 9.19388 4.52585C9.19388 4.52585 9.03353 4.63558 8.85043 4.78272C8.89884 4.55519 9.04872 4.37585 9.04872 4.37585C9.04872 4.37585 8.24761 4.92406 8.18196 5.21287C8.15341 5.33849 8.13677 5.43983 8.12709 5.51424ZM8.16139 7.17944C8.08458 7.03441 7.75031 6.42645 7.51716 6.37354C7.25223 6.31343 7.0534 6.0856 7.0534 6.0856C7.0534 6.0856 7.46953 6.9626 7.74452 7.07263C7.96535 7.16098 8.11076 7.19626 8.15947 7.20672C8.15145 7.32495 8.15005 7.40662 8.15005 7.40662C8.15005 7.40662 8.27994 7.31243 8.47887 7.09299C8.6778 6.87356 8.66736 5.9029 8.66736 5.9029C8.66736 5.9029 8.58852 6.19483 8.37676 6.365C8.23471 6.47915 8.18122 6.90889 8.16139 7.17944ZM7.53569 7.08769C7.83835 7.08591 8.30395 7.82805 8.30395 7.82805C8.30395 7.82805 8.12357 7.83794 7.80845 7.78815C7.49334 7.73836 7.0022 6.89271 7.0022 6.89271C7.0022 6.89271 7.23303 7.08947 7.53569 7.08769ZM9.01101 8.81613C9.01101 8.81613 9.19061 7.87039 8.92092 7.64993C8.65124 7.42946 8.60366 7.09999 8.60366 7.09999C8.60366 7.09999 8.36409 8.14874 8.60366 8.42033C8.84323 8.69192 9.01101 8.81613 9.01101 8.81613ZM7.92286 8.5608C8.09897 8.76961 8.66007 8.5608 8.66007 8.5608C8.66007 8.5608 8.78371 8.67308 8.33872 8.26638C7.89373 7.85968 6.98827 8.11655 7.23195 8.11655C7.47563 8.11655 7.74674 8.352 7.92286 8.5608ZM8.33872 9.67098C8.66518 9.94747 9.3706 9.29006 9.3706 9.29006C9.3706 9.29006 9.189 9.07014 8.85243 8.90804C8.51587 8.74595 7.27436 8.90804 7.27436 8.90804L7.82686 9.15396C7.82686 9.15396 7.21185 9.39448 7.3751 9.38108C7.53835 9.36767 8.01226 9.39448 8.33872 9.67098Z" fill="#006923"/>
<path fill-rule="evenodd" clip-rule="evenodd" d="M12.6067 9.0982C12.6067 9.0982 12.326 8.62652 12.6067 8.39865C12.8874 8.17077 12.9985 8.32234 12.9985 8.06035C12.9985 7.79836 13.0269 7.87637 13.1648 7.7463C13.3027 7.61624 13.205 7.30033 13.3897 7.45828C13.5744 7.61624 13.6089 7.31334 13.6089 7.94257C13.6089 8.5718 13.6089 7.37187 13.6089 7.01845C13.6089 6.66504 13.3897 6.7487 13.3897 6.51169C13.3897 6.27468 13.1705 5.9207 13.3897 5.9207C13.6089 5.9207 13.7377 6.18406 13.7377 6.18406C13.7377 6.18406 13.9531 6.55114 13.9531 6.18406C13.9531 5.81698 13.5697 5.92611 13.3897 5.52104C13.2097 5.11597 13.2382 5.56647 12.9985 5.04451C12.7588 4.52256 12.4734 4.35692 12.7359 4.35692C12.9985 4.35692 12.9399 4.35692 13.1648 4.35692C13.3897 4.35692 13.7377 4.17011 13.7377 4.35692C13.7377 4.54374 13.7377 4.45813 13.7377 4.75132C13.7377 5.04451 13.9531 5.04451 13.9531 5.04451C13.9531 5.04451 14.0702 4.45813 14.2173 4.75132C14.3643 5.04451 14.2642 5.52104 14.3719 5.52104C14.4795 5.52104 14.3904 5.02859 14.6255 5.40577C14.8606 5.78295 14.6255 6.03856 14.6255 6.18406C14.6255 6.32957 14.3719 6.68605 14.3719 6.68605C14.3719 6.68605 14.4214 6.86041 14.6255 6.68605C14.8296 6.51169 15.0232 6.33733 15.0232 6.51169C15.0232 6.68605 15.4209 6.74021 15.0232 7.01845C14.6255 7.29669 14.8791 7.57525 14.6255 7.57525C14.3719 7.57525 14.073 7.94257 13.9531 7.94257C13.8332 7.94257 13.3846 8.2238 13.6089 8.2238C13.8332 8.2238 14.0627 7.66134 14.2173 7.94257C14.3719 8.2238 14.3698 7.8969 14.4977 8.06035C14.6255 8.2238 14.7533 9.11065 14.6255 8.75465C14.4977 8.39865 14.2973 8.39865 13.9531 8.39865C13.6089 8.39865 12.9399 8.42435 13.1648 8.5895C13.3897 8.75465 13.6423 8.42435 13.7377 8.5895C13.8332 8.75465 13.8054 8.9198 13.9531 8.75465C14.1008 8.5895 14.2461 8.75465 14.3719 8.75465C14.4977 8.75465 14.2461 8.93952 14.3719 9.0982C14.4977 9.25689 14.778 9.46827 14.4977 9.46827C14.2173 9.46827 14.073 9.24411 13.9531 9.46827C13.8332 9.69243 13.8281 10.0817 13.6089 9.77501C13.3897 9.46827 12.9985 9.62396 12.9985 9.46827C12.9985 9.31258 13.0841 9.28744 12.8454 9.28744C12.6067 9.28744 12.6067 9.0982 12.6067 9.0982Z" fill="#009933"/>
<path fill-rule="evenodd" clip-rule="evenodd" d="M13.7581 5.72501C13.7581 5.79404 13.7039 5.85001 13.6371 5.85001C13.5703 5.85001 13.5161 5.79404 13.5161 5.72501C13.5161 5.65597 13.5703 5.60001 13.6371 5.60001C13.7039 5.60001 13.7581 5.65597 13.7581 5.72501ZM8.16937 6.00001C8.23618 6.00001 8.29034 5.94404 8.29034 5.87501C8.29034 5.80597 8.23618 5.75001 8.16937 5.75001C8.10256 5.75001 8.0484 5.80597 8.0484 5.87501C8.0484 5.94404 8.10256 6.00001 8.16937 6.00001ZM8.29034 6.52501C8.29034 6.59404 8.23618 6.65001 8.16937 6.65001C8.10256 6.65001 8.0484 6.59404 8.0484 6.52501C8.0484 6.45597 8.10256 6.40001 8.16937 6.40001C8.23618 6.40001 8.29034 6.45597 8.29034 6.52501ZM8.36292 7.80001C8.42973 7.80001 8.48388 7.74404 8.48388 7.67501C8.48388 7.60597 8.42973 7.55001 8.36292 7.55001C8.29611 7.55001 8.24195 7.60597 8.24195 7.67501C8.24195 7.74404 8.29611 7.80001 8.36292 7.80001ZM9.33066 9.05001C9.39747 9.05001 9.45163 8.99404 9.45163 8.92501C9.45163 8.85597 9.39747 8.80001 9.33066 8.80001C9.26385 8.80001 9.20969 8.85597 9.20969 8.92501C9.20969 8.99404 9.26385 9.05001 9.33066 9.05001ZM13.9758 7.15001C14.0426 7.15001 14.0968 7.09404 14.0968 7.02501C14.0968 6.95597 14.0426 6.90001 13.9758 6.90001C13.909 6.90001 13.8549 6.95597 13.8549 7.02501C13.8549 7.09404 13.909 7.15001 13.9758 7.15001ZM13.7097 8.02501C13.7097 8.09404 13.6555 8.15001 13.5887 8.15001C13.5219 8.15001 13.4678 8.09404 13.4678 8.02501C13.4678 7.95597 13.5219 7.90001 13.5887 7.90001C13.6555 7.90001 13.7097 7.95597 13.7097 8.02501ZM12.5726 9.25001C12.6394 9.25001 12.6936 9.19404 12.6936 9.12501C12.6936 9.05597 12.6394 9.00001 12.5726 9.00001C12.5058 9.00001 12.4516 9.05597 12.4516 9.12501C12.4516 9.19404 12.5058 9.25001 12.5726 9.25001ZM9.50001 9.27501C9.50001 9.34404 9.44585 9.40001 9.37905 9.40001C9.31224 9.40001 9.25808 9.34404 9.25808 9.27501C9.25808 9.20597 9.31224 9.15001 9.37905 9.15001C9.44585 9.15001 9.50001 9.20597 9.50001 9.27501Z" fill="#C51918"/>
<path fill-rule="evenodd" clip-rule="evenodd" d="M12.0189 10.9099C12.0189 10.8075 10.4686 9.73912 10.0525 9.50346C9.63644 9.26781 7.60453 7.9708 8.15787 6.00012H8.07414C8.07414 6.00012 7.69966 8.42835 10.2797 9.93774C11.4544 10.7258 11.5129 10.9099 11.5129 10.9099C11.5129 10.9099 12.0189 11.0123 12.0189 10.9099Z" fill="#FECA00"/>
<path fill-rule="evenodd" clip-rule="evenodd" d="M9.96212 10.9099C9.96212 10.8075 11.5124 9.73912 11.9285 9.50346C12.3446 9.26781 14.3765 7.9708 13.8231 6.00012H13.9069C13.9069 6.00012 14.2814 8.42835 11.7013 9.93774C10.5266 10.7258 10.4681 10.9099 10.4681 10.9099C10.4681 10.9099 9.96212 11.0123 9.96212 10.9099Z" fill="#FECA00"/>
<path fill-rule="evenodd" clip-rule="evenodd" d="M11.0242 9.44284C12.1065 9.44284 12.9839 8.04191 12.9839 6.67501C12.9839 5.3081 12.1065 4.60001 11.0242 4.60001C9.94189 4.60001 9.06451 5.3081 9.06451 6.67501C9.06451 8.04191 9.94189 9.44284 11.0242 9.44284Z" fill="#56C6F5"/>
<path fill-rule="evenodd" clip-rule="evenodd" d="M10.1566 5.76943C10.1566 5.76943 10.4584 5.50324 10.3075 5.50324C10.2782 5.50324 10.2426 5.49752 10.2041 5.49136C10.0445 5.46574 9.83651 5.43238 9.83651 5.76943V6.34863L9.83643 6.34999H9.7919C9.76429 6.34999 9.7419 6.37238 9.7419 6.39999C9.7419 6.42761 9.76429 6.44999 9.7919 6.44999H9.83102C9.82434 6.57371 9.81249 6.79372 9.80088 7.01362L9.74366 7.01862C9.71408 7.02121 9.6922 7.04729 9.69479 7.07687L9.69849 7.11918C9.70108 7.14876 9.72715 7.17064 9.75673 7.16805L9.79292 7.16489C9.77949 7.42181 9.76816 7.64665 9.76816 7.67417C9.76816 7.74175 10.2273 7.71558 10.2273 7.71558C10.2273 7.71558 10.213 7.44454 10.1973 7.12951L10.2281 7.12682C10.2576 7.12423 10.2795 7.09815 10.2769 7.06857L10.2732 7.02626C10.2706 6.99668 10.2446 6.9748 10.215 6.97739L10.1899 6.97959C10.1806 6.79091 10.1715 6.59933 10.1652 6.44999H10.2242C10.2518 6.44999 10.2742 6.42761 10.2742 6.39999C10.2742 6.37238 10.2518 6.34999 10.2242 6.34999H10.1611C10.1583 6.27537 10.1566 6.21928 10.1566 6.19102V5.76943Z" fill="white"/>
<path fill-rule="evenodd" clip-rule="evenodd" d="M9.93542 6.5H10.0967V6.71505H9.93542V6.5Z" fill="black"/>
<path fill-rule="evenodd" clip-rule="evenodd" d="M9.88708 7.25H10.1559V7.75H9.88708V7.25Z" fill="black"/>
<path fill-rule="evenodd" clip-rule="evenodd" d="M11.1727 5.76943C11.1727 5.76943 11.4745 5.50324 11.3236 5.50324C11.2944 5.50324 11.2587 5.49752 11.2203 5.49136C11.0606 5.46574 10.8527 5.43238 10.8527 5.76943V6.34863L10.8526 6.34999H10.8081C10.7805 6.34999 10.7581 6.37238 10.7581 6.39999C10.7581 6.42761 10.7805 6.44999 10.8081 6.44999H10.8472C10.8405 6.57371 10.8287 6.79372 10.8171 7.01362L10.7598 7.01862C10.7303 7.02121 10.7084 7.04729 10.711 7.07687L10.7147 7.11918C10.7173 7.14876 10.7433 7.17064 10.7729 7.16805L10.8091 7.16489C10.7957 7.42181 10.7843 7.64665 10.7843 7.67417C10.7843 7.74175 11.2435 7.71558 11.2435 7.71558C11.2435 7.71558 11.2292 7.44454 11.2135 7.12951L11.2442 7.12682C11.2738 7.12423 11.2957 7.09815 11.2931 7.06857L11.2894 7.02626C11.2868 6.99668 11.2607 6.9748 11.2312 6.97739L11.206 6.97959C11.1968 6.79091 11.1877 6.59933 11.1814 6.44999H11.2403C11.268 6.44999 11.2903 6.42761 11.2903 6.39999C11.2903 6.37238 11.268 6.34999 11.2403 6.34999H11.1773C11.1744 6.27537 11.1727 6.21928 11.1727 6.19102V5.76943Z" fill="white"/>
<path fill-rule="evenodd" clip-rule="evenodd" d="M12.1405 5.76943C12.1405 5.76943 12.4423 5.50324 12.2914 5.50324C12.2621 5.50324 12.2265 5.49752 12.188 5.49136C12.0283 5.46574 11.8204 5.43238 11.8204 5.76943V6.34863L11.8203 6.34999H11.7758C11.7482 6.34999 11.7258 6.37238 11.7258 6.39999C11.7258 6.42761 11.7482 6.44999 11.7758 6.44999H11.8149C11.8082 6.57371 11.7964 6.79372 11.7848 7.01362L11.7275 7.01862C11.698 7.02121 11.6761 7.04729 11.6787 7.07687L11.6824 7.11918C11.685 7.14876 11.711 7.17064 11.7406 7.16805L11.7768 7.16489C11.7634 7.42181 11.752 7.64665 11.752 7.67417C11.752 7.74175 12.2112 7.71558 12.2112 7.71558C12.2112 7.71558 12.1969 7.44454 12.1812 7.12951L12.2119 7.12682C12.2415 7.12423 12.2634 7.09815 12.2608 7.06857L12.2571 7.02626C12.2545 6.99668 12.2284 6.9748 12.1989 6.97739L12.1737 6.97959C12.1645 6.79091 12.1554 6.59933 12.1491 6.44999H12.208C12.2357 6.44999 12.258 6.42761 12.258 6.39999C12.258 6.37238 12.2357 6.34999 12.208 6.34999H12.145C12.1421 6.27537 12.1405 6.21928 12.1405 6.19102V5.76943Z" fill="white"/>
<path fill-rule="evenodd" clip-rule="evenodd" d="M11.9193 6.5H12.0806V6.71505H11.9193V6.5Z" fill="black"/>
<path fill-rule="evenodd" clip-rule="evenodd" d="M11.871 7.25H12.1398V7.75H11.871V7.25Z" fill="black"/>
<path fill-rule="evenodd" clip-rule="evenodd" d="M12.2581 4.20001H9.69355V4.58283L9.67635 4.58437C9.67635 4.58437 8.4199 5.56073 8.76861 7.02333C9.11731 8.48593 10.5024 9.57058 10.5024 9.57058L10.5722 9.31817C10.5722 9.31817 9.2524 7.52359 9.2524 6.8065C9.2524 6.08941 9.50141 5.41635 9.76506 5.3117C9.92364 5.24875 9.951 5.26153 9.99421 5.28171C10.0228 5.29508 10.0584 5.3117 10.1438 5.3117C10.3579 5.3117 10.5722 5.15841 10.5722 5.15841C10.5722 5.15841 10.7212 5.3117 10.8596 5.3117C10.998 5.3117 10.9999 5.15841 10.9999 5.15841V4.65001H11.0154V5.15841C11.0154 5.15841 11.0174 5.3117 11.1558 5.3117C11.2942 5.3117 11.4432 5.15841 11.4432 5.15841C11.4432 5.15841 11.6574 5.3117 11.8716 5.3117C11.9569 5.3117 11.9925 5.29508 12.0212 5.28171C12.0644 5.26153 12.0917 5.24875 12.2503 5.3117C12.514 5.41635 12.763 6.08941 12.763 6.8065C12.763 7.52359 11.4432 9.31817 11.4432 9.31817L11.513 9.57058C11.513 9.57058 12.8981 8.48593 13.2468 7.02333C13.5955 5.56073 12.339 4.58437 12.339 4.58437L12.2581 4.57713V4.20001Z" fill="#E8AA00"/>
<path d="M9.69355 4.20001V3.95001H9.44355V4.20001H9.69355ZM12.2581 4.20001H12.5081V3.95001H12.2581V4.20001ZM9.69355 4.58283L9.71582 4.83184L9.94355 4.81148V4.58283H9.69355ZM9.67635 4.58437L9.65409 4.33536L9.58094 4.3419L9.52295 4.38696L9.67635 4.58437ZM8.76861 7.02333L8.52542 7.08131L8.76861 7.02333ZM10.5024 9.57058L10.3483 9.76741L10.6434 9.99853L10.7433 9.63723L10.5024 9.57058ZM10.5722 9.31817L10.8132 9.38482L10.8455 9.26784L10.7736 9.17005L10.5722 9.31817ZM9.76506 5.3117L9.67283 5.07933L9.67283 5.07933L9.76506 5.3117ZM9.99421 5.28171L9.88843 5.50823L9.88843 5.50823L9.99421 5.28171ZM10.5722 5.15841L10.7515 4.98417L10.6016 4.82999L10.4268 4.95508L10.5722 5.15841ZM10.9999 5.15841L11.2499 5.16157V5.15841H10.9999ZM10.9999 4.65001V4.40001H10.7499V4.65001H10.9999ZM11.0154 4.65001H11.2654V4.40001H11.0154V4.65001ZM11.0154 5.15841H10.7654L10.7655 5.16157L11.0154 5.15841ZM11.4432 5.15841L11.5886 4.95508L11.4137 4.82999L11.2639 4.98417L11.4432 5.15841ZM12.0212 5.28171L12.1269 5.50823L12.0212 5.28171ZM12.2503 5.3117L12.1581 5.54406L12.2503 5.3117ZM11.4432 9.31817L11.2418 9.17005L11.1698 9.26784L11.2022 9.38482L11.4432 9.31817ZM11.513 9.57058L11.272 9.63723L11.372 9.99853L11.6671 9.76741L11.513 9.57058ZM12.339 4.58437L12.4924 4.38696L12.4344 4.3419L12.3613 4.33536L12.339 4.58437ZM12.2581 4.57713H12.0081V4.80578L12.2358 4.82614L12.2581 4.57713ZM9.69355 4.45001H12.2581V3.95001H9.69355V4.45001ZM9.94355 4.58283V4.20001H9.44355V4.58283H9.94355ZM9.69862 4.83338L9.71582 4.83184L9.67129 4.33382L9.65409 4.33536L9.69862 4.83338ZM9.01179 6.96535C8.8579 6.31987 9.05561 5.77942 9.30289 5.38919C9.42658 5.19399 9.56074 5.03994 9.66384 4.93496C9.71522 4.88264 9.75839 4.84303 9.78795 4.81708C9.80272 4.80412 9.81405 4.79461 9.82125 4.78868C9.82485 4.78571 9.82742 4.78364 9.82887 4.78249C9.82959 4.78191 9.83003 4.78156 9.83018 4.78144C9.83026 4.78138 9.83026 4.78138 9.83019 4.78143C9.83015 4.78146 9.8301 4.7815 9.83003 4.78156C9.82999 4.78159 9.82992 4.78164 9.8299 4.78166C9.82983 4.78171 9.82975 4.78177 9.67635 4.58437C9.52295 4.38696 9.52287 4.38703 9.52277 4.3871C9.52274 4.38713 9.52264 4.38721 9.52256 4.38727C9.52241 4.38738 9.52225 4.38752 9.52206 4.38766C9.52168 4.38796 9.52123 4.38831 9.5207 4.38873C9.51965 4.38956 9.5183 4.39063 9.51665 4.39194C9.51337 4.39457 9.50892 4.39816 9.5034 4.40271C9.49237 4.41179 9.47705 4.42469 9.45814 4.44128C9.42036 4.47444 9.36809 4.52253 9.30712 4.5846C9.18554 4.70839 9.02738 4.88984 8.88054 5.12156C8.58678 5.58516 8.33061 6.26419 8.52542 7.08131L9.01179 6.96535ZM10.5024 9.57058C10.6565 9.37375 10.6566 9.37378 10.6566 9.37382C10.6566 9.37382 10.6567 9.37385 10.6567 9.37386C10.6567 9.37388 10.6567 9.37388 10.6567 9.37387C10.6567 9.37385 10.6565 9.37376 10.6563 9.37361C10.656 9.3733 10.6552 9.37273 10.6542 9.37191C10.6521 9.37026 10.6488 9.36759 10.6443 9.36391C10.6352 9.35656 10.6214 9.3452 10.6034 9.33C10.5673 9.2996 10.5146 9.25391 10.4498 9.19431C10.3202 9.07495 10.1432 8.90068 9.95593 8.68255C9.57825 8.24275 9.17301 7.64159 9.01179 6.96535L8.52542 7.08131C8.7129 7.86767 9.17456 8.54013 9.5766 9.0083C9.77914 9.24416 9.97028 9.43246 10.1112 9.56219C10.1818 9.62713 10.24 9.6776 10.281 9.71222C10.3016 9.72954 10.3178 9.74291 10.3292 9.75216C10.3349 9.75679 10.3394 9.76039 10.3426 9.76293C10.3442 9.76421 10.3455 9.76522 10.3464 9.76597C10.3469 9.76634 10.3473 9.76665 10.3476 9.76689C10.3477 9.76701 10.3479 9.76711 10.348 9.7672C10.348 9.76724 10.3481 9.76729 10.3481 9.76731C10.3482 9.76736 10.3483 9.76741 10.5024 9.57058ZM10.3313 9.25151L10.2614 9.50392L10.7433 9.63723L10.8132 9.38482L10.3313 9.25151ZM9.0024 6.8065C9.0024 7.04454 9.10656 7.33423 9.23149 7.60591C9.36105 7.88768 9.53168 8.18865 9.69917 8.46189C9.86717 8.73598 10.0348 8.98661 10.1602 9.16847C10.223 9.25952 10.2753 9.33359 10.3121 9.38507C10.3306 9.41081 10.3451 9.43092 10.3551 9.44468C10.3601 9.45157 10.3639 9.45687 10.3666 9.4605C10.3679 9.46231 10.3689 9.46371 10.3696 9.46468C10.37 9.46516 10.3703 9.46554 10.3705 9.46581C10.3706 9.46594 10.3706 9.46605 10.3707 9.46613C10.3707 9.46617 10.3708 9.46621 10.3708 9.46623C10.3708 9.46626 10.3708 9.46628 10.5722 9.31817C10.7736 9.17005 10.7736 9.17006 10.7736 9.17007C10.7736 9.17006 10.7736 9.17006 10.7736 9.17004C10.7736 9.17001 10.7735 9.16996 10.7735 9.16987C10.7734 9.16971 10.7732 9.16943 10.7729 9.16905C10.7723 9.16829 10.7715 9.1671 10.7703 9.1655C10.7679 9.16229 10.7644 9.15743 10.7597 9.15099C10.7504 9.13812 10.7365 9.11897 10.7189 9.09425C10.6835 9.04478 10.6328 8.97305 10.5718 8.88464C10.4497 8.70761 10.2874 8.46479 10.1255 8.20059C9.96299 7.93554 9.80366 7.65342 9.68576 7.39702C9.56322 7.13054 9.5024 6.927 9.5024 6.8065H9.0024ZM9.67283 5.07933C9.53944 5.13228 9.43937 5.24137 9.36688 5.34817C9.291 5.45996 9.22646 5.59724 9.174 5.74656C9.06893 6.04561 9.0024 6.42129 9.0024 6.8065H9.5024C9.5024 6.47461 9.56038 6.15522 9.64573 5.9123C9.68847 5.79065 9.73562 5.69521 9.78058 5.62897C9.82894 5.55773 9.85886 5.54344 9.8573 5.54406L9.67283 5.07933ZM10.1 5.05519C10.0701 5.04124 10.0042 5.00951 9.90615 5.01609C9.83243 5.02104 9.75497 5.04673 9.67283 5.07933L9.8573 5.54406C9.89263 5.53004 9.91583 5.52218 9.93073 5.5179C9.94593 5.51353 9.94715 5.51447 9.93964 5.51497C9.93536 5.51526 9.92878 5.51537 9.92051 5.51458C9.91206 5.51376 9.90385 5.51218 9.89631 5.51011C9.88906 5.50813 9.88408 5.50613 9.88254 5.50549C9.8819 5.50522 9.88211 5.50528 9.88843 5.50823L10.1 5.05519ZM10.1438 5.0617C10.1305 5.0617 10.1217 5.06105 10.1162 5.06044C10.111 5.05986 10.1088 5.05928 10.1088 5.05928C10.1087 5.05926 10.1089 5.05931 10.1092 5.05941C10.1095 5.05952 10.1097 5.05959 10.1096 5.05954C10.1088 5.05925 10.1076 5.05875 10.1 5.05519L9.88843 5.50823C9.90466 5.5158 9.93893 5.53213 9.98669 5.54415C10.0335 5.55593 10.0847 5.5617 10.1438 5.5617V5.0617ZM10.5722 5.15841C10.4268 4.95508 10.4268 4.95505 10.4269 4.95501C10.4269 4.955 10.4269 4.95497 10.4269 4.95495C10.427 4.95491 10.4271 4.95487 10.4271 4.95484C10.4272 4.95476 10.4273 4.9547 10.4274 4.95465C10.4275 4.95454 10.4276 4.95447 10.4277 4.95443C10.4278 4.95435 10.4277 4.9544 10.4275 4.95458C10.4269 4.95494 10.4257 4.9558 10.4238 4.95708C10.4199 4.95966 10.4134 4.96389 10.4047 4.96924C10.3871 4.98005 10.3614 4.99477 10.3307 5.00941C10.2644 5.041 10.1968 5.0617 10.1438 5.0617V5.5617C10.3049 5.5617 10.4515 5.50575 10.5459 5.4607C10.5956 5.43702 10.6368 5.41342 10.6661 5.39549C10.6808 5.38646 10.6927 5.37872 10.7014 5.37292C10.7058 5.37001 10.7093 5.36757 10.7121 5.36569C10.7134 5.36474 10.7146 5.36394 10.7155 5.36328C10.716 5.36295 10.7164 5.36265 10.7167 5.3624C10.7169 5.36227 10.7171 5.36215 10.7172 5.36204C10.7173 5.36199 10.7174 5.36194 10.7175 5.36189C10.7175 5.36186 10.7176 5.36183 10.7176 5.36182C10.7176 5.36178 10.7177 5.36175 10.5722 5.15841ZM10.8596 5.0617C10.8697 5.0617 10.869 5.06405 10.855 5.05807C10.8421 5.05249 10.8257 5.04315 10.8077 5.03049C10.7902 5.0182 10.7749 5.00544 10.764 4.9957C10.7586 4.99095 10.7547 4.98724 10.7525 4.98509C10.7514 4.98402 10.7507 4.98336 10.7505 4.98318C10.7504 4.98309 10.7505 4.98312 10.7506 4.98328C10.7507 4.98336 10.7508 4.98347 10.751 4.98362C10.751 4.98369 10.7511 4.98378 10.7512 4.98387C10.7512 4.98391 10.7513 4.98396 10.7513 4.98401C10.7514 4.98404 10.7514 4.98408 10.7514 4.98409C10.7514 4.98413 10.7515 4.98417 10.5722 5.15841C10.3929 5.33266 10.393 5.3327 10.393 5.33274C10.393 5.33276 10.3931 5.3328 10.3931 5.33283C10.3932 5.33289 10.3932 5.33295 10.3933 5.33301C10.3934 5.33314 10.3935 5.33328 10.3937 5.33343C10.394 5.33372 10.3943 5.33405 10.3947 5.33443C10.3954 5.33517 10.3963 5.33606 10.3973 5.33709C10.3994 5.33916 10.4021 5.34179 10.4053 5.34491C10.4118 5.35114 10.4206 5.3594 10.4314 5.36903C10.4527 5.38803 10.4833 5.41359 10.5203 5.43962C10.5839 5.48433 10.7096 5.5617 10.8596 5.5617V5.0617ZM10.9999 5.15841C10.75 5.15525 10.75 5.15514 10.75 5.15503C10.75 5.155 10.75 5.15489 10.75 5.15482C10.75 5.15467 10.75 5.15453 10.75 5.15439C10.75 5.15411 10.75 5.15384 10.75 5.15357C10.75 5.15304 10.75 5.15253 10.75 5.15205C10.75 5.15109 10.7501 5.15023 10.7501 5.14946C10.7502 5.14792 10.7503 5.14671 10.7503 5.14577C10.7505 5.14397 10.7506 5.14286 10.7507 5.14211C10.7508 5.14184 10.7514 5.13744 10.7549 5.12982C10.7586 5.12186 10.7691 5.10299 10.7923 5.08598C10.8184 5.06688 10.8449 5.0617 10.8596 5.0617V5.5617C10.9435 5.5617 11.0221 5.53736 11.0875 5.48952C11.1501 5.44377 11.187 5.38657 11.2084 5.3403C11.2298 5.29435 11.2395 5.25163 11.2442 5.22261C11.2467 5.20749 11.2481 5.19441 11.2488 5.18423C11.2492 5.1791 11.2495 5.17459 11.2497 5.17081C11.2497 5.16892 11.2498 5.16719 11.2498 5.16565C11.2499 5.16488 11.2499 5.16416 11.2499 5.16348C11.2499 5.16314 11.2499 5.16281 11.2499 5.16249C11.2499 5.16233 11.2499 5.16218 11.2499 5.16202C11.2499 5.16195 11.2499 5.16183 11.2499 5.1618C11.2499 5.16169 11.2499 5.16157 10.9999 5.15841ZM10.7499 4.65001V5.15841H11.2499V4.65001H10.7499ZM11.0154 4.40001H10.9999V4.90001H11.0154V4.40001ZM10.7654 4.65001V5.15841H11.2654V4.65001H10.7654ZM11.0154 5.15841C10.7655 5.16157 10.7655 5.16169 10.7655 5.1618C10.7655 5.16183 10.7655 5.16195 10.7655 5.16202C10.7655 5.16218 10.7655 5.16233 10.7655 5.16249C10.7655 5.16281 10.7655 5.16314 10.7655 5.16348C10.7655 5.16416 10.7655 5.16488 10.7655 5.16565C10.7656 5.16719 10.7656 5.16892 10.7657 5.17081C10.7659 5.17459 10.7661 5.1791 10.7665 5.18423C10.7673 5.19441 10.7687 5.20749 10.7712 5.22261C10.7759 5.25163 10.7856 5.29435 10.8069 5.3403C10.8284 5.38657 10.8653 5.44377 10.9278 5.48952C10.9932 5.53736 11.0718 5.5617 11.1558 5.5617V5.0617C11.1705 5.0617 11.197 5.06688 11.2231 5.08598C11.2463 5.10299 11.2568 5.12186 11.2605 5.12982C11.264 5.13744 11.2646 5.14184 11.2646 5.14211C11.2648 5.14286 11.2649 5.14397 11.265 5.14577C11.2651 5.14671 11.2652 5.14792 11.2653 5.14946C11.2653 5.15023 11.2653 5.15109 11.2654 5.15205C11.2654 5.15253 11.2654 5.15304 11.2654 5.15357C11.2654 5.15384 11.2654 5.15411 11.2654 5.15439C11.2654 5.15453 11.2654 5.15467 11.2654 5.15482C11.2654 5.15489 11.2654 5.155 11.2654 5.15503C11.2654 5.15514 11.2654 5.15525 11.0154 5.15841ZM11.1558 5.5617C11.3057 5.5617 11.4314 5.48433 11.4951 5.43962C11.5321 5.41359 11.5627 5.38803 11.584 5.36903C11.5948 5.3594 11.6036 5.35114 11.6101 5.34491C11.6133 5.34179 11.616 5.33916 11.618 5.33709C11.6191 5.33606 11.62 5.33517 11.6207 5.33443C11.6211 5.33405 11.6214 5.33372 11.6217 5.33343C11.6218 5.33328 11.622 5.33314 11.6221 5.33301C11.6221 5.33295 11.6222 5.33289 11.6223 5.33283C11.6223 5.3328 11.6223 5.33276 11.6223 5.33274C11.6224 5.3327 11.6224 5.33266 11.4432 5.15841C11.2639 4.98417 11.2639 4.98413 11.264 4.98409C11.264 4.98407 11.264 4.98404 11.264 4.98401C11.2641 4.98396 11.2641 4.98391 11.2642 4.98387C11.2643 4.98378 11.2643 4.98369 11.2644 4.98362C11.2646 4.98347 11.2647 4.98336 11.2648 4.98328C11.2649 4.98312 11.2649 4.98309 11.2649 4.98318C11.2647 4.98336 11.264 4.98402 11.2629 4.98509C11.2607 4.98724 11.2567 4.99095 11.2514 4.9957C11.2405 5.00544 11.2251 5.0182 11.2076 5.03049C11.1896 5.04315 11.1733 5.05249 11.1603 5.05807C11.1464 5.06405 11.1457 5.0617 11.1558 5.0617V5.5617ZM11.4432 5.15841C11.2977 5.36175 11.2978 5.36178 11.2978 5.36182C11.2978 5.36183 11.2979 5.36186 11.2979 5.36189C11.298 5.36194 11.298 5.36199 11.2981 5.36204C11.2983 5.36215 11.2984 5.36227 11.2986 5.3624C11.299 5.36265 11.2994 5.36295 11.2999 5.36328C11.3008 5.36394 11.302 5.36474 11.3033 5.36569C11.306 5.36757 11.3096 5.37001 11.314 5.37292C11.3227 5.37872 11.3346 5.38646 11.3493 5.39549C11.3785 5.41342 11.4198 5.43702 11.4694 5.4607C11.5639 5.50575 11.7105 5.5617 11.8716 5.5617V5.0617C11.8186 5.0617 11.7509 5.041 11.6847 5.00941C11.654 4.99477 11.6283 4.98005 11.6107 4.96924C11.6019 4.96389 11.5955 4.95966 11.5916 4.95708C11.5897 4.9558 11.5884 4.95494 11.5879 4.95458C11.5877 4.9544 11.5876 4.95435 11.5877 4.95443C11.5877 4.95447 11.5878 4.95454 11.588 4.95465C11.5881 4.9547 11.5882 4.95476 11.5883 4.95484C11.5883 4.95487 11.5884 4.95491 11.5884 4.95495C11.5885 4.95497 11.5885 4.955 11.5885 4.95501C11.5886 4.95505 11.5886 4.95508 11.4432 5.15841ZM11.8716 5.5617C11.9307 5.5617 11.9819 5.55593 12.0287 5.54415C12.0764 5.53213 12.1107 5.5158 12.1269 5.50823L11.9154 5.05519C11.9078 5.05875 11.9065 5.05925 11.9058 5.05954C11.9057 5.05959 11.9059 5.05952 11.9062 5.05941C11.9065 5.05931 11.9067 5.05926 11.9066 5.05928C11.9066 5.05928 11.9044 5.05986 11.8991 5.06044C11.8937 5.06105 11.8849 5.0617 11.8716 5.0617V5.5617ZM12.1269 5.50823C12.1333 5.50528 12.1335 5.50522 12.1328 5.50549C12.1313 5.50613 12.1263 5.50813 12.1191 5.51011C12.1115 5.51218 12.1033 5.51376 12.0949 5.51458C12.0866 5.51537 12.08 5.51526 12.0757 5.51497C12.0682 5.51447 12.0694 5.51353 12.0846 5.5179C12.0995 5.52218 12.1227 5.53004 12.1581 5.54406L12.3425 5.07933C12.2604 5.04673 12.1829 5.02104 12.1092 5.01609C12.0112 5.00951 11.9452 5.04124 11.9154 5.05519L12.1269 5.50823ZM12.1581 5.54406C12.1565 5.54344 12.1864 5.55773 12.2348 5.62897C12.2798 5.69521 12.3269 5.79065 12.3696 5.9123C12.455 6.15522 12.513 6.47461 12.513 6.8065H13.013C13.013 6.42129 12.9464 6.04561 12.8414 5.74656C12.7889 5.59724 12.7244 5.45996 12.6485 5.34817C12.576 5.24137 12.4759 5.13228 12.3425 5.07933L12.1581 5.54406ZM12.513 6.8065C12.513 6.927 12.4521 7.13054 12.3296 7.39702C12.2117 7.65342 12.0524 7.93554 11.8899 8.20059C11.728 8.46479 11.5656 8.70761 11.4436 8.88464C11.3826 8.97305 11.3319 9.04478 11.2965 9.09425C11.2788 9.11897 11.265 9.13812 11.2556 9.15099C11.251 9.15743 11.2474 9.16229 11.2451 9.1655C11.2439 9.1671 11.243 9.16829 11.2425 9.16905C11.2422 9.16943 11.242 9.16971 11.2419 9.16987C11.2418 9.16996 11.2418 9.17001 11.2418 9.17004C11.2418 9.17006 11.2417 9.17006 11.2417 9.17007C11.2417 9.17006 11.2418 9.17005 11.4432 9.31817C11.6446 9.46628 11.6446 9.46626 11.6446 9.46623C11.6446 9.46621 11.6446 9.46617 11.6447 9.46613C11.6447 9.46605 11.6448 9.46594 11.6449 9.46581C11.6451 9.46554 11.6454 9.46516 11.6457 9.46468C11.6464 9.46371 11.6475 9.46231 11.6488 9.4605C11.6514 9.45687 11.6553 9.45157 11.6603 9.44468C11.6703 9.43092 11.6848 9.41081 11.7032 9.38507C11.74 9.33359 11.7924 9.25952 11.8552 9.16847C11.9806 8.98661 12.1482 8.73598 12.3162 8.46189C12.4837 8.18865 12.6543 7.88768 12.7839 7.60591C12.9088 7.33423 13.013 7.04454 13.013 6.8065H12.513ZM11.2022 9.38482L11.272 9.63723L11.7539 9.50392L11.6841 9.25151L11.2022 9.38482ZM11.513 9.57058C11.6671 9.76741 11.6672 9.76736 11.6672 9.76731C11.6673 9.76729 11.6673 9.76724 11.6674 9.7672C11.6675 9.76711 11.6676 9.76701 11.6678 9.76689C11.6681 9.76665 11.6685 9.76634 11.6689 9.76597C11.6699 9.76522 11.6712 9.76421 11.6728 9.76293C11.676 9.76039 11.6805 9.75679 11.6862 9.75216C11.6976 9.74291 11.7138 9.72954 11.7344 9.71222C11.7754 9.6776 11.8336 9.62713 11.9042 9.56219C12.0451 9.43246 12.2362 9.24416 12.4388 9.0083C12.8408 8.54013 13.3025 7.86767 13.4899 7.08131L13.0036 6.96535C12.8424 7.64159 12.4371 8.24275 12.0594 8.68255C11.8721 8.90068 11.6952 9.07495 11.5655 9.19431C11.5008 9.25391 11.4481 9.2996 11.412 9.33C11.394 9.3452 11.3802 9.35656 11.3711 9.36391C11.3666 9.36759 11.3632 9.37026 11.3612 9.37191C11.3601 9.37273 11.3594 9.3733 11.359 9.37361C11.3588 9.37376 11.3587 9.37385 11.3587 9.37387C11.3587 9.37388 11.3587 9.37388 11.3587 9.37386C11.3587 9.37385 11.3588 9.37382 11.3588 9.37382C11.3588 9.37378 11.3588 9.37375 11.513 9.57058ZM13.4899 7.08131C13.6848 6.26419 13.4286 5.58516 13.1348 5.12156C12.988 4.88984 12.8298 4.70839 12.7083 4.5846C12.6473 4.52253 12.595 4.47444 12.5572 4.44128C12.5383 4.42469 12.523 4.41179 12.512 4.40271C12.5065 4.39816 12.502 4.39457 12.4987 4.39194C12.4971 4.39063 12.4957 4.38956 12.4947 4.38873C12.4941 4.38831 12.4937 4.38796 12.4933 4.38766C12.4931 4.38752 12.493 4.38738 12.4928 4.38727C12.4927 4.38721 12.4926 4.38713 12.4926 4.3871C12.4925 4.38703 12.4924 4.38696 12.339 4.58437C12.1856 4.78177 12.1855 4.78171 12.1855 4.78166C12.1854 4.78164 12.1854 4.78159 12.1853 4.78156C12.1853 4.7815 12.1852 4.78146 12.1852 4.78143C12.1851 4.78138 12.1851 4.78138 12.1852 4.78144C12.1853 4.78156 12.1858 4.78191 12.1865 4.78249C12.188 4.78364 12.1905 4.78571 12.1941 4.78868C12.2013 4.79461 12.2127 4.80412 12.2274 4.81708C12.257 4.84303 12.3002 4.88264 12.3515 4.93496C12.4546 5.03994 12.5888 5.19399 12.7125 5.38919C12.9598 5.77942 13.1575 6.31987 13.0036 6.96535L13.4899 7.08131ZM12.3613 4.33536L12.2803 4.32812L12.2358 4.82614L12.3168 4.83338L12.3613 4.33536ZM12.0081 4.20001V4.57713H12.5081V4.20001H12.0081Z" fill="#FFD018"/>
<path fill-rule="evenodd" clip-rule="evenodd" d="M9.55176 7.89246C9.55176 7.89246 9.709 7.47025 9.98397 7.61099C10.2589 7.75173 10.2349 8.24167 10.4851 8.06707C10.7353 7.89246 10.5934 7.61099 10.9642 7.61099C11.3349 7.61099 11.2803 8.06707 11.5026 8.06707C11.7249 8.06707 11.7442 7.61099 11.9927 7.61099C12.2413 7.61099 12.4933 7.89246 12.4933 7.89246L11.0225 9.89372L9.55176 7.89246Z" fill="#8FC753"/>
<path fill-rule="evenodd" clip-rule="evenodd" d="M10.9472 2.01474H11.0472V2.12192H11.17V2.22192H11.0472V2.40394C11.1851 2.42724 11.2903 2.55092 11.2903 2.7C11.2903 2.86569 11.1603 3 11 3C10.8396 3 10.7097 2.86569 10.7097 2.7C10.7097 2.55295 10.812 2.43061 10.9472 2.40495V2.22192H10.8343V2.12192H10.9472V2.01474Z" fill="#FFD018"/>
<path fill-rule="evenodd" clip-rule="evenodd" d="M9.87338 3.58306C9.73341 3.58306 9.43823 3.76542 9.43823 3.76542L9.66774 4.38551L11.0521 4.32223L12.4364 4.38551L12.6659 3.76542C12.6659 3.76542 12.3707 3.58306 12.2308 3.58306C12.1693 3.58306 12.1615 3.53899 12.1527 3.48957C12.1416 3.42643 12.1288 3.35455 12.0007 3.35455C11.9101 3.35455 11.8461 3.37286 11.7943 3.38769C11.7155 3.41024 11.6648 3.42472 11.5918 3.35455C11.5888 3.35162 11.5857 3.34868 11.5827 3.34575C11.4645 3.23203 11.3418 3.11392 11.1433 3.11392C11.1036 3.11392 11.074 3.15955 11.0521 3.23306C11.0301 3.15955 11.0005 3.11392 10.9609 3.11392C10.7623 3.11392 10.6396 3.23203 10.5215 3.34575C10.5184 3.34869 10.5154 3.35162 10.5123 3.35455C10.4393 3.42472 10.3887 3.41024 10.3099 3.38769C10.258 3.37286 10.194 3.35455 10.1034 3.35455C9.97531 3.35455 9.96258 3.42643 9.95141 3.48957C9.94265 3.53899 9.93485 3.58306 9.87338 3.58306Z" fill="#E31D1C"/>
<path fill-rule="evenodd" clip-rule="evenodd" d="M10.5 3.00001C10.5 3.00001 10.8333 2.75873 11 2.75873C11.1667 2.75873 11.5 3.00001 11.5 3.00001V5.00001H10.5V3.00001Z" fill="#FFD018"/>
<path fill-rule="evenodd" clip-rule="evenodd" d="M10.804 2.78424L10.7068 2.81795C10.45 2.90703 10.2277 2.93641 10.0398 2.90747C9.65313 2.84787 9.14854 3.04908 9.21176 3.34374C9.23947 3.47287 9.32035 3.71675 9.40446 3.92345C9.52116 4.21026 9.60284 4.35494 9.69839 4.35494C9.71075 4.35494 9.84048 4.36202 9.88372 4.36438C9.8915 4.36481 9.89648 4.36508 9.89747 4.36513C10.038 4.37224 10.1619 4.37601 10.281 4.37545C10.6256 4.37384 10.8391 4.34001 10.9154 4.23664L10.9379 4.20622L10.9272 4.16958C10.8367 3.85844 10.7948 3.43161 10.8025 2.89015L10.804 2.78424ZM9.35348 3.31127C9.32248 3.16678 9.71717 3.0094 10.0184 3.05582C10.2061 3.08475 10.4188 3.06298 10.6565 2.99145C10.6552 3.47274 10.6945 3.86368 10.7749 4.16502C10.706 4.20107 10.5249 4.22431 10.2804 4.22545C10.1642 4.22599 10.0427 4.2223 9.90457 4.21531C9.9058 4.21537 9.76225 4.20742 9.7131 4.2054C9.71146 4.20374 9.70954 4.20166 9.7074 4.19916C9.69444 4.18406 9.67824 4.15965 9.65999 4.12732C9.62401 4.0636 9.582 3.97277 9.53827 3.86531C9.45726 3.66622 9.37903 3.43032 9.35348 3.31127Z" fill="#FFD018"/>
<path fill-rule="evenodd" clip-rule="evenodd" d="M11.2273 2.78424L11.3245 2.81795C11.5813 2.90703 11.8036 2.93641 11.9915 2.90747C12.3782 2.84787 12.8828 3.04908 12.8195 3.34374C12.7918 3.47287 12.711 3.71675 12.6269 3.92345C12.5101 4.21026 12.4285 4.35494 12.3329 4.35494C12.3206 4.35494 12.1908 4.36202 12.1476 4.36438C12.1398 4.36481 12.1348 4.36508 12.1338 4.36513C11.9933 4.37224 11.8695 4.37601 11.7503 4.37545C11.4057 4.37384 11.1922 4.34001 11.1159 4.23664L11.0935 4.20622L11.1041 4.16958C11.1946 3.85844 11.2365 3.43161 11.2288 2.89015L11.2273 2.78424ZM12.6778 3.31127C12.7088 3.16678 12.3141 3.0094 12.0129 3.05582C11.8252 3.08475 11.6126 3.06298 11.3748 2.99145C11.3761 3.47274 11.3368 3.86368 11.2564 4.16502C11.3253 4.20107 11.5064 4.22431 11.751 4.22545C11.8671 4.22599 11.9886 4.2223 12.1267 4.21531C12.1255 4.21537 12.2691 4.20742 12.3182 4.2054C12.3198 4.20374 12.3218 4.20166 12.3239 4.19916C12.3369 4.18406 12.3531 4.15965 12.3713 4.12732C12.4073 4.0636 12.4493 3.97277 12.493 3.86531C12.5741 3.66622 12.6523 3.43032 12.6778 3.31127Z" fill="#FFD018"/>
<path d="M6.9786 11.1603L6.60822 10.2314C8.13871 9.62114 9.60306 9.31424 11 9.31424C12.3795 9.31424 13.6818 9.5031 14.9053 9.88149L14.6099 10.8368C13.484 10.4887 12.2813 10.3142 11 10.3142C9.7361 10.3142 8.39607 10.5951 6.9786 11.1603Z" fill="white"/>
<path d="M9.88696 9.94251L9.91734 9.69437C10.4546 9.76013 10.8134 9.79302 10.9941 9.79314C11.2667 9.8054 11.5916 9.78566 11.9683 9.73361L12.0025 9.98126C11.6118 10.0352 11.2721 10.0559 10.9885 10.043C10.7998 10.043 10.4343 10.0095 9.88696 9.94251Z" fill="#272727"/>
<path fill-rule="evenodd" clip-rule="evenodd" d="M8.16188 5C8.16188 5 6.77069 6.25531 7.04526 7.48285C7.35717 9.35159 9.22934 10.0041 9.22934 10.0041L10.2211 9.65267C10.2211 9.65267 8.32094 8.56378 8.32094 7.48285C8.32094 6.40192 8.60554 5 8.60554 5H8.16188Z" fill="#006923"/>
<path fill-rule="evenodd" clip-rule="evenodd" d="M14.0592 5C14.0592 5 15.4504 6.25531 15.1759 7.48285C14.864 9.35159 12.9918 10.0041 12.9918 10.0041L12 9.65267C12 9.65267 13.9002 8.56378 13.9002 7.48285C13.9002 6.40192 13.6156 5 13.6156 5H14.0592Z" fill="#009933"/>
</g>
</g>
<rect x="3" y="1" width="16" height="12" fill="url(#paint0_linear)" style="mix-blend-mode:overlay"/>
</g>
<defs>
<filter id="filter0_d" x="0" y="0" width="22" height="18" filterUnits="userSpaceOnUse" color-interpolation-filters="sRGB">
<feFlood flood-opacity="0" result="BackgroundImageFix"/>
<feColorMatrix in="SourceAlpha" type="matrix" values="0 0 0 0 0 0 0 0 0 0 0 0 0 0 0 0 0 0 127 0" result="hardAlpha"/>
<feOffset dy="2"/>
<feGaussianBlur stdDeviation="1.5"/>
<feColorMatrix type="matrix" values="0 0 0 0 0 0 0 0 0 0 0 0 0 0 0 0 0 0 0.1 0"/>
<feBlend mode="normal" in2="BackgroundImageFix" result="effect1_dropShadow"/>
<feBlend mode="normal" in="SourceGraphic" in2="effect1_dropShadow" result="shape"/>
</filter>
<linearGradient id="paint0_linear" x1="11" y1="1" x2="11" y2="13" gradientUnits="userSpaceOnUse">
<stop stop-color="white" stop-opacity="0.7"/>
<stop offset="1" stop-opacity="0.3"/>
</linearGradient>
</defs>
</svg>
