<svg width="22" height="18" viewBox="0 0 22 18" fill="none" xmlns="http://www.w3.org/2000/svg">
<g filter="url(#filter0_d)">
<mask id="mask0" style="mask-type:alpha" maskUnits="userSpaceOnUse" x="3" y="1" width="16" height="12">
<rect x="3" y="1" width="16" height="12" fill="white"/>
</mask>
<g mask="url(#mask0)">
<path fill-rule="evenodd" clip-rule="evenodd" d="M3 1V13H19V1H3Z" fill="#E31D1C"/>
<mask id="mask1" style="mask-type:alpha" maskUnits="userSpaceOnUse" x="3" y="1" width="16" height="12">
<path fill-rule="evenodd" clip-rule="evenodd" d="M3 1V13H19V1H3Z" fill="white"/>
</mask>
<g mask="url(#mask1)">
<path fill-rule="evenodd" clip-rule="evenodd" d="M3 7V13H19V7H3Z" fill="#2E42A5"/>
</g>
<path fill-rule="evenodd" clip-rule="evenodd" d="M3 0V14L13 7L3 0Z" fill="#F7FCFF"/>
<mask id="mask2" style="mask-type:alpha" maskUnits="userSpaceOnUse" x="3" y="0" width="10" height="14">
<path fill-rule="evenodd" clip-rule="evenodd" d="M3 0V14L13 7L3 0Z" fill="white"/>
</mask>
<g mask="url(#mask2)">
<path fill-rule="evenodd" clip-rule="evenodd" d="M7.06291 5.59441C7.78126 5.59441 8.36361 5.23749 8.36361 4.7972C8.36361 4.35692 7.78126 4 7.06291 4C6.34455 4 5.76221 4.35692 5.76221 4.7972C5.76221 5.23749 6.34455 5.59441 7.06291 5.59441Z" fill="#FBCD17"/>
<path fill-rule="evenodd" clip-rule="evenodd" d="M7.17671 4.19266C7.07052 4.19266 6.99507 4.26107 6.99507 4.36403L6.99517 4.37539C6.98947 4.39255 6.98626 4.41167 6.98569 4.43308C6.98421 4.48786 7.00461 4.53355 7.04742 4.57546C7.05006 4.58756 7.05143 4.59758 7.05104 4.60327C7.04844 4.59434 7.03811 4.58684 7.01843 4.57258C6.99045 4.5523 6.94359 4.51832 6.87322 4.44704C6.77186 4.34438 6.69537 4.30419 6.60029 4.32016C6.57146 4.325 6.54324 4.33515 6.50937 4.34872C6.45535 4.36817 6.40563 4.37269 6.31383 4.35517C6.05873 4.30647 5.77893 4.35425 5.47601 4.49462L5.58112 4.72145C5.83965 4.60165 6.06773 4.5627 6.26696 4.60073C6.40382 4.62686 6.49885 4.61823 6.59407 4.58394C6.6351 4.5685 6.63869 4.56721 6.6417 4.56671C6.63868 4.56721 6.64061 4.56907 6.65329 4.58126C6.66183 4.58947 6.67525 4.60236 6.69531 4.62268C6.72388 4.65162 6.75376 4.67783 6.78426 4.70166C6.72562 4.71741 6.72866 4.72823 6.73942 4.76661C6.74381 4.78225 6.74947 4.80246 6.75278 4.82945C6.76007 4.88903 6.74796 4.91976 6.7584 4.93448C6.77006 4.9509 6.80979 4.94738 6.93588 4.94176C6.96982 4.94025 7.01571 4.93675 7.06867 4.93174C7.17254 4.92191 7.29008 4.9076 7.36231 4.89576C7.43247 4.88426 7.45112 4.88006 7.48054 4.85865L7.48055 4.85864C7.49072 4.84616 7.49943 4.83549 7.50664 4.82598C7.74655 4.79073 7.95989 4.76569 8.14973 4.74842C8.21779 4.74222 8.27249 4.73797 8.32545 4.73409C8.33171 4.73403 8.33171 4.73403 8.36249 4.72759L8.36249 4.72759C8.37595 4.72187 8.38151 4.71951 8.38339 4.71872L8.38337 4.71877C8.38422 4.71839 8.38472 4.71816 8.38339 4.71872L8.44467 4.57358L8.38136 4.49702C8.34364 4.48517 8.33948 4.48386 8.33526 4.48367C8.33474 4.48365 8.33421 4.48364 8.33362 4.48364C8.32868 4.48335 8.32688 4.48324 8.32507 4.48318C8.32404 4.48315 8.32301 4.48313 8.32139 4.48311L8.26406 4.48303C8.22253 4.48303 8.18973 4.47952 8.14234 4.47109L8.09827 4.46299C7.90336 4.42723 7.72259 4.42723 7.3392 4.4844L7.31777 4.46803C7.37952 4.4573 7.45471 4.45001 7.53418 4.44578L7.53419 4.44578C7.58222 4.44354 7.58222 4.44354 7.60904 4.44283L7.62078 4.44255L7.61931 4.19267L7.60034 4.19266H7.17671ZM6.96962 4.91642L6.99353 4.91146L7.01707 4.90643L6.96962 4.91642Z" fill="#DA610A"/>
<path d="M6.9625 5.29038L7.00295 5.29701L7.0434 5.29038C7.53991 5.20898 7.86685 5.21848 8.05628 5.28202C8.2745 5.35522 8.51572 5.3345 8.76938 5.24907C8.68887 5.60796 8.64765 5.94715 8.64765 6.26594C8.64765 6.62935 8.71795 6.92292 8.78174 7.18049C8.78345 7.1874 8.78515 7.19428 8.78685 7.20113C8.84936 7.45334 8.90116 7.66236 8.90116 7.90222C8.90116 8.11753 8.82975 8.23062 8.72994 8.30129C8.61436 8.38311 8.42162 8.43524 8.13578 8.43524C7.73278 8.43524 7.35576 8.54378 7.00862 8.75612L7.00295 8.75205L6.99728 8.75612C6.65014 8.54378 6.27313 8.43524 5.87012 8.43524C5.58428 8.43524 5.39154 8.38311 5.27596 8.30129C5.17615 8.23062 5.10474 8.11753 5.10474 7.90222C5.10474 7.66236 5.15654 7.45334 5.21905 7.20113C5.22075 7.19428 5.22245 7.1874 5.22416 7.18049C5.28796 6.92292 5.35825 6.62935 5.35825 6.26594C5.35825 5.94715 5.31704 5.60796 5.23652 5.24907C5.49018 5.3345 5.7314 5.35522 5.94962 5.28202C6.13905 5.21848 6.46599 5.20898 6.9625 5.29038Z" fill="#56C6F5" stroke="#E31D1C" stroke-width="0.5"/>
<path fill-rule="evenodd" clip-rule="evenodd" d="M7.39242 6.11208L7.00671 5.76923L6.621 6.11208H6.73528V6.30974L6.13528 6.68351V7.5978H6.021V7.76923H6.13528H7.87814H8.021V7.5978H7.87814V6.68351L7.24957 6.29194V6.11208H7.39242Z" fill="#F7FCFF"/>
<path d="M6.97595 9.51019C7.50647 9.51019 7.8717 9.45227 8.05977 9.35354C8.10907 9.2697 8.19554 9.22237 8.28755 9.22578C8.70078 9.24107 9.02082 9.06699 9.27241 8.68437C9.54426 8.27097 9.59888 7.68373 9.4217 6.91293L9.87151 6.80954C10.0745 7.69271 10.0082 8.40543 9.65805 8.93796C9.34426 9.41514 8.91643 9.67002 8.39429 9.6873C8.12762 9.88476 7.66028 9.97172 6.97595 9.97172C6.31393 9.97172 5.82307 9.84318 5.50825 9.57006C4.79331 9.40116 4.33898 9.116 4.16033 8.69333C3.9699 8.24277 3.9699 7.61729 4.14754 6.81155L4.59825 6.91092C4.43931 7.63185 4.43931 8.16787 4.58546 8.51365C4.68744 8.75494 4.98376 8.95185 5.48578 9.08837L5.95219 9.1881L5.9298 9.30588C6.15733 9.43887 6.50507 9.51019 6.97595 9.51019Z" fill="#FBCD17"/>
<path d="M5.35699 5.41196L5.61267 5.51481L5.48483 5.78059L5.84242 5.59627L5.81465 5.73273L5.73798 6.10936L5.8845 5.68048V6.05931L5.97402 5.68048L6.23987 5.76066L5.97402 5.59627L6.23987 5.51481" stroke="#73BE4A" stroke-width="0.5" stroke-linecap="round" stroke-linejoin="round"/>
<path fill-rule="evenodd" clip-rule="evenodd" d="M5.84442 5.96854C5.98249 5.96854 6.09442 5.85661 6.09442 5.71854C6.09442 5.58047 5.98249 5.46854 5.84442 5.46854C5.70635 5.46854 5.59442 5.58047 5.59442 5.71854C5.59442 5.85661 5.70635 5.96854 5.84442 5.96854Z" fill="#FBCD17"/>
<path fill-rule="evenodd" clip-rule="evenodd" d="M8.32054 5.93666C8.31645 5.76852 8.29777 5.38461 8.21246 5.38461C8.12665 5.38461 8.1136 5.77302 8.11195 5.93958C7.96423 5.98787 7.85303 6.11498 7.85303 6.11498H8.5888C8.5888 6.11498 8.47289 5.98249 8.32054 5.93666Z" fill="#F7FCFF"/>
</g>
</g>
<rect x="3" y="1" width="16" height="12" fill="url(#paint0_linear)" style="mix-blend-mode:overlay"/>
</g>
<defs>
<filter id="filter0_d" x="0" y="0" width="22" height="18" filterUnits="userSpaceOnUse" color-interpolation-filters="sRGB">
<feFlood flood-opacity="0" result="BackgroundImageFix"/>
<feColorMatrix in="SourceAlpha" type="matrix" values="0 0 0 0 0 0 0 0 0 0 0 0 0 0 0 0 0 0 127 0" result="hardAlpha"/>
<feOffset dy="2"/>
<feGaussianBlur stdDeviation="1.5"/>
<feColorMatrix type="matrix" values="0 0 0 0 0 0 0 0 0 0 0 0 0 0 0 0 0 0 0.1 0"/>
<feBlend mode="normal" in2="BackgroundImageFix" result="effect1_dropShadow"/>
<feBlend mode="normal" in="SourceGraphic" in2="effect1_dropShadow" result="shape"/>
</filter>
<linearGradient id="paint0_linear" x1="11" y1="1" x2="11" y2="13" gradientUnits="userSpaceOnUse">
<stop stop-color="white" stop-opacity="0.7"/>
<stop offset="1" stop-opacity="0.3"/>
</linearGradient>
</defs>
</svg>
