<svg width="22" height="18" viewBox="0 0 22 18" fill="none" xmlns="http://www.w3.org/2000/svg">
<g filter="url(#filter0_d)">
<mask id="mask0" style="mask-type:alpha" maskUnits="userSpaceOnUse" x="3" y="1" width="16" height="12">
<rect x="3" y="1" width="16" height="12" fill="white"/>
</mask>
<g mask="url(#mask0)">
<path fill-rule="evenodd" clip-rule="evenodd" d="M3 1H19V13H3V1Z" fill="#3D58DB"/>
<path d="M3 3.5H2.5V4V10V10.5H3H19H19.5V10V4V3.5H19H3Z" fill="#C51918" stroke="#FFD018"/>
<path d="M6.57466 5.6655C6.51469 5.6655 6.46606 5.5299 6.46606 5.36263C6.46606 5.19535 6.51469 5.05975 6.57466 5.05975H15.28C15.34 5.05975 15.3886 5.19535 15.3886 5.36263C15.3886 5.5299 15.34 5.6655 15.28 5.6655H6.57466Z" fill="#FFD018"/>
<path fill-rule="evenodd" clip-rule="evenodd" d="M15.0476 5.30108L15.5531 4.65619L16.4476 5.30108L15.5531 5.96294L15.0476 5.30108Z" fill="#F7FCFF"/>
<path d="M6.57466 7.6655C6.51469 7.6655 6.46606 7.5299 6.46606 7.36263C6.46606 7.19535 6.51469 7.05975 6.57466 7.05975H15.28C15.34 7.05975 15.3886 7.19535 15.3886 7.36263C15.3886 7.5299 15.34 7.6655 15.28 7.6655H6.57466Z" fill="#FFD018"/>
<path fill-rule="evenodd" clip-rule="evenodd" d="M15.0476 7.30108L15.5531 6.65619L16.4476 7.30108L15.5531 7.96294L15.0476 7.30108Z" fill="#F7FCFF"/>
<path d="M5.17277 8.91084C5.09235 8.91084 5.02716 8.75687 5.02716 8.56694C5.02716 8.37702 5.09235 8.22305 5.17277 8.22305H16.8449C16.9253 8.22305 16.9905 8.37702 16.9905 8.56694C16.9905 8.75687 16.9253 8.91084 16.8449 8.91084H5.17277Z" fill="#FFD018"/>
<path fill-rule="evenodd" clip-rule="evenodd" d="M7.40863 7.02636C7.40863 7.02636 8.8293 4.03635 10.8613 4.03635C12.8932 4.03635 14.3617 7.02636 14.3617 7.02636C14.3617 7.02636 12.5686 9.97708 10.8851 9.97708C9.20171 9.97708 7.40863 7.02636 7.40863 7.02636Z" fill="#F7FCFF"/>
<mask id="mask1" style="mask-type:alpha" maskUnits="userSpaceOnUse" x="7" y="4" width="8" height="6">
<path fill-rule="evenodd" clip-rule="evenodd" d="M7.40863 7.02636C7.40863 7.02636 8.8293 4.03635 10.8613 4.03635C12.8932 4.03635 14.3617 7.02636 14.3617 7.02636C14.3617 7.02636 12.5686 9.97708 10.8851 9.97708C9.20171 9.97708 7.40863 7.02636 7.40863 7.02636Z" fill="white"/>
</mask>
<g mask="url(#mask1)">
<path fill-rule="evenodd" clip-rule="evenodd" d="M10.9621 3.84006C10.9621 3.84006 10.4985 4.40316 10.653 4.94012C10.8075 5.47708 11.1676 5.42036 11.1676 5.89324C11.1676 6.36612 11.0013 6.8484 11.1676 6.8484C11.334 6.8484 11.3916 7.17472 11.2396 7.39595C11.0875 7.61718 10.9531 7.62401 10.9621 7.98406C10.9711 8.34411 11.7581 8.69755 11.3769 8.69755C10.9956 8.69755 10.4931 9.0676 10.653 9.0676C10.8129 9.0676 11.6493 9.35591 11.6493 9.73429C11.6493 10.1127 11.6493 10.4155 11.6493 10.4155H7.28558V3.84006H10.9621Z" fill="#272727"/>
<path fill-rule="evenodd" clip-rule="evenodd" d="M8.90946 5.96152H8.69226V6.84613H8.90946V5.96152ZM9.55018 5.96152H9.33298V6.84613H9.55018V5.96152ZM9.01262 5.96152H9.22982V6.84613H9.01262V5.96152ZM9.87054 5.96152H9.65335V6.84613H9.87054V5.96152ZM9.97371 5.96152H10.1909V6.84613H9.97371V5.96152ZM10.5113 5.96152H10.2941V6.84613H10.5113V5.96152ZM8.69226 7.23075H8.90946V8.11536H8.69226V7.23075ZM9.55018 7.23075H9.33298V8.11536H9.55018V7.23075ZM9.01262 7.23075H9.22982V8.11536H9.01262V7.23075ZM9.87054 7.23075H9.65335V8.11536H9.87054V7.23075ZM9.97371 7.23075H10.1909V8.11536H9.97371V7.23075ZM10.5113 7.23075H10.2941V8.11536H10.5113V7.23075Z" fill="#F7FCFF"/>
<path fill-rule="evenodd" clip-rule="evenodd" d="M11.4887 5.96152H11.2715V6.84613H11.4887V5.96152ZM12.1294 5.96152H11.9122V6.84613H12.1294V5.96152ZM11.5918 5.96152H11.809V6.84613H11.5918V5.96152ZM12.4498 5.96152H12.2326V6.84613H12.4498V5.96152ZM12.5529 5.96152H12.7701V6.84613H12.5529V5.96152ZM13.0905 5.96152H12.8733V6.84613H13.0905V5.96152ZM11.2715 7.23075H11.4887V8.11536H11.2715V7.23075ZM12.1294 7.23075H11.9122V8.11536H12.1294V7.23075ZM11.5918 7.23075H11.809V8.11536H11.5918V7.23075ZM12.4498 7.23075H12.2326V8.11536H12.4498V7.23075ZM12.5529 7.23075H12.7701V8.11536H12.5529V7.23075ZM13.0905 7.23075H12.8733V8.11536H13.0905V7.23075Z" fill="#272727"/>
<path fill-rule="evenodd" clip-rule="evenodd" d="M9.61576 4.53579C9.31151 4.63005 9.17228 5.42796 9.20629 5.62082C9.2403 5.81368 9.34352 5.59662 9.34352 5.59662C9.34352 5.59662 9.55405 6.05417 9.57575 6.17727C9.59746 6.30037 9.70832 5.99119 9.70832 5.99119C9.70832 5.99119 10.0735 6.24275 10.1229 6.52306C10.1723 6.80336 10.2467 6.2023 10.2467 6.2023L10.3294 6.18771L10.2771 5.89091L10.4348 6.0258L10.3861 5.74978C10.3861 5.74978 10.5049 5.90504 10.4748 5.73415C10.4447 5.56326 10.4279 5.46785 10.4279 5.46785L10.3867 5.23427L10.5428 5.20674C10.5428 5.20674 9.92001 4.44152 9.61576 4.53579Z" fill="#3D58DB"/>
</g>
<path fill-rule="evenodd" clip-rule="evenodd" d="M16.0442 7.8479C15.7282 7.8879 15.4525 8.64951 15.4525 8.84535C15.4525 9.04119 15.5919 8.84535 15.5919 8.84535C15.5919 8.84535 15.7197 9.3325 15.7197 9.4575C15.7197 9.5825 15.8826 9.29727 15.8826 9.29727C15.8826 9.29727 16.1985 9.60842 16.1985 9.89305C16.1985 10.1777 16.3761 9.59866 16.3761 9.59866H16.4601V9.29727L16.592 9.4575V9.17723C16.592 9.17723 16.6821 9.35076 16.6821 9.17723C16.6821 9.0037 16.6821 8.90683 16.6821 8.90683V8.66964H16.8406C16.8406 8.66964 16.3602 7.80791 16.0442 7.8479Z" fill="#3D58DB"/>
<path fill-rule="evenodd" clip-rule="evenodd" d="M5.79646 7.73252C6.11246 7.77252 6.38812 8.53413 6.38812 8.72996C6.38812 8.9258 6.24877 8.72996 6.24877 8.72996C6.24877 8.72996 6.1209 9.21712 6.1209 9.34212C6.1209 9.46712 5.95803 9.18189 5.95803 9.18189C5.95803 9.18189 5.6421 9.49303 5.6421 9.77766C5.6421 10.0623 5.46452 9.48327 5.46452 9.48327H5.38052V9.18189L5.24859 9.34212V9.06184C5.24859 9.06184 5.15856 9.23537 5.15856 9.06184C5.15856 8.88832 5.15856 8.79144 5.15856 8.79144V8.55426H5.00001C5.00001 8.55426 5.48046 7.69252 5.79646 7.73252Z" fill="#3D58DB"/>
</g>
<rect x="3" y="1" width="16" height="12" fill="url(#paint0_linear)" style="mix-blend-mode:overlay"/>
</g>
<defs>
<filter id="filter0_d" x="0" y="0" width="22" height="18" filterUnits="userSpaceOnUse" color-interpolation-filters="sRGB">
<feFlood flood-opacity="0" result="BackgroundImageFix"/>
<feColorMatrix in="SourceAlpha" type="matrix" values="0 0 0 0 0 0 0 0 0 0 0 0 0 0 0 0 0 0 127 0" result="hardAlpha"/>
<feOffset dy="2"/>
<feGaussianBlur stdDeviation="1.5"/>
<feColorMatrix type="matrix" values="0 0 0 0 0 0 0 0 0 0 0 0 0 0 0 0 0 0 0.1 0"/>
<feBlend mode="normal" in2="BackgroundImageFix" result="effect1_dropShadow"/>
<feBlend mode="normal" in="SourceGraphic" in2="effect1_dropShadow" result="shape"/>
</filter>
<linearGradient id="paint0_linear" x1="11" y1="1" x2="11" y2="13" gradientUnits="userSpaceOnUse">
<stop stop-color="white" stop-opacity="0.7"/>
<stop offset="1" stop-opacity="0.3"/>
</linearGradient>
</defs>
</svg>
