<svg width="22" height="18" viewBox="0 0 22 18" fill="none" xmlns="http://www.w3.org/2000/svg">
<g filter="url(#filter0_d)">
<mask id="mask0" style="mask-type:alpha" maskUnits="userSpaceOnUse" x="3" y="1" width="16" height="12">
<rect x="3" y="1" width="16" height="12" fill="white"/>
</mask>
<g mask="url(#mask0)">
<path fill-rule="evenodd" clip-rule="evenodd" d="M3 1V13H19V1H3Z" fill="#2E42A5"/>
<mask id="mask1" style="mask-type:alpha" maskUnits="userSpaceOnUse" x="3" y="1" width="16" height="12">
<path fill-rule="evenodd" clip-rule="evenodd" d="M3 1V13H19V1H3Z" fill="white"/>
</mask>
<g mask="url(#mask1)">
<path fill-rule="evenodd" clip-rule="evenodd" d="M13.5233 6.01636C13.5233 6.01636 13.9663 11.982 15.9643 11.982C17.9623 11.982 18.4537 6.01636 18.4537 6.01636H13.5233Z" fill="#FECA00" stroke="#F7FCFF" stroke-width="0.25"/>
<path fill-rule="evenodd" clip-rule="evenodd" d="M15.9556 6.31091L16.0288 6.22828L16.3758 6.44931C16.426 6.37118 16.5155 6.33483 16.6408 6.34083L16.5143 6.14811L16.6174 6.09321L16.8576 6.38238L16.8813 6.38983L16.8204 6.01407L16.9412 6L17.0201 6.48693C17.022 6.48683 17.0239 6.48678 17.0258 6.48678C17.0598 6.48678 17.0981 6.50319 17.1375 6.52924L17.2232 6L17.344 6.01407L17.2831 6.38983L17.3068 6.38238L17.547 6.09321L17.6501 6.14811L17.5236 6.34083C17.6489 6.33483 17.7384 6.37118 17.7886 6.44931L18.1356 6.22828L18.2088 6.31091L17.8281 6.55343C17.8333 6.58084 17.8359 6.61088 17.8359 6.64355V6.69979L18.3613 6.58464L18.4001 6.68236L17.8359 6.88224V6.95048L18.3708 6.90717L18.3869 7.00955L17.8359 7.08972V7.20763L18.3882 7.29887L18.366 7.40049L17.8359 7.32125V8.47032H17.7547V7.3091L17.3991 7.25595C17.3592 7.53711 17.3143 7.89109 17.3206 8.01907C17.3269 8.14552 17.4213 8.19971 17.4875 8.23775C17.5391 8.26734 17.5736 8.28716 17.5364 8.32362C17.4513 8.40695 17.2386 8.48678 17.0258 8.48678C16.813 8.48678 16.6032 8.40695 16.5577 8.32362C16.5496 8.30875 16.5506 8.30995 16.5579 8.31831C16.5915 8.35681 16.7574 8.54718 16.7704 8.01907C16.7776 7.72929 16.735 7.4677 16.6862 7.26778L16.4097 7.3091V8.47032H16.3285V7.32125L15.7984 7.40049L15.7762 7.29887L16.3285 7.20763V7.08972L15.7775 7.00955L15.7936 6.90717L16.3285 6.95048V6.88224L15.7643 6.68236L15.8031 6.58464L16.3285 6.69979V6.64355C16.3285 6.61088 16.3311 6.58084 16.3363 6.55343L15.9556 6.31091ZM16.651 7.13665C16.6526 7.1422 16.6542 7.14783 16.6559 7.15354L16.4097 7.1942V7.10155L16.651 7.13665ZM16.6561 6.75716C16.6524 6.76124 16.6488 6.76526 16.6452 6.76921L16.4097 6.7176V6.64355C16.4097 6.62877 16.4103 6.61469 16.4114 6.60131L16.6561 6.75716ZM16.8126 6.60241C16.7853 6.62593 16.7583 6.6513 16.7328 6.67673L16.442 6.4915C16.4828 6.4206 16.5633 6.39482 16.6885 6.41337L16.8126 6.60241ZM17.3473 6.73049L17.7224 6.4915C17.6816 6.4206 17.6011 6.39482 17.4759 6.41337L17.3019 6.67839C17.3178 6.69594 17.333 6.7135 17.3473 6.73049ZM17.4738 6.77917L17.753 6.60131C17.7541 6.61469 17.7547 6.62877 17.7547 6.64355V6.7176L17.4738 6.77917ZM17.5862 6.9707L17.7547 6.91103V6.95706L17.5862 6.9707ZM17.4565 7.14494L17.7547 7.10155V7.1942L17.4565 7.14494ZM16.4097 6.91103V6.95706L16.5782 6.9707L16.4097 6.91103Z" fill="#CF6900"/>
<path fill-rule="evenodd" clip-rule="evenodd" d="M15.439 8.92139C15.439 8.92139 14.7822 10.0214 14.7822 10.6882C14.7822 10.6882 15.2298 11.0432 15.9996 11.0432C16.7694 11.0432 17.1656 10.6882 17.1656 10.6882C16.9488 9.89781 16.5799 8.92139 16.5799 8.92139H15.439Z" fill="#00A727"/>
<path fill-rule="evenodd" clip-rule="evenodd" d="M15.471 8.61758C15.471 8.31464 15.7166 8.06906 16.0195 8.06906C16.3225 8.06906 16.568 8.31464 16.568 8.61758V8.99282H15.471V8.61758Z" fill="#E31D1C"/>
<path fill-rule="evenodd" clip-rule="evenodd" d="M13.7596 7.41673C13.7596 7.41673 14.6265 7.59534 14.6265 7.87696C14.6265 8.15858 14.9756 8.26013 15.0614 8.18399C15.1471 8.10786 15.7512 8.0546 15.7512 7.68752C15.7512 7.32044 15.8016 7.2205 15.6549 6.9874C15.5082 6.75429 15.2022 5.96632 15.1318 6.28203C15.0614 6.59773 14.9554 6.8316 14.7596 6.64342C14.5638 6.45523 14.3123 6.05682 14.2241 6.28203C14.1358 6.50723 14.5038 6.73329 14.2241 6.73329C13.9443 6.73329 14.1415 6.74805 14.1415 6.93874C14.1415 7.12942 14.1747 7.30916 13.9671 7.30916C13.7596 7.30916 13.7596 7.41673 13.7596 7.41673Z" fill="#FF927F"/>
<mask id="mask2" style="mask-type:alpha" maskUnits="userSpaceOnUse" x="3" y="1" width="9" height="7">
<rect x="3" y="1" width="9" height="7" fill="white"/>
</mask>
<g mask="url(#mask2)">
<path d="M1.99786 7.4999L3.97834 8.3685L12.0449 1.94436L13.0896 0.653595L10.9718 0.363283L7.68159 3.13163L5.03334 4.99685L1.99786 7.4999Z" fill="#F7FCFF"/>
<path d="M2.26898 8.10845L3.27794 8.61252L12.7145 0.533661H11.2978L2.26898 8.10845Z" fill="#F50100"/>
<path d="M13.0021 7.4999L11.0217 8.3685L2.95506 1.94436L1.91041 0.653595L4.02824 0.363283L7.31841 3.13163L9.96666 4.99685L13.0021 7.4999Z" fill="#F7FCFF"/>
<path d="M12.9346 7.93667L11.9256 8.44073L7.90745 4.98176L6.71615 4.59529L1.8099 0.658027H3.2266L8.13009 4.50184L9.43256 4.96525L12.9346 7.93667Z" fill="#F50100"/>
<mask id="path-15-outside-1" maskUnits="userSpaceOnUse" x="2" y="0" width="11" height="9" fill="black">
<rect fill="white" x="2" width="11" height="9"/>
<path fill-rule="evenodd" clip-rule="evenodd" d="M7.99226 1H6.99226V4H3V5H6.99226V8H7.99226V5H12V4H7.99226V1Z"/>
</mask>
<path fill-rule="evenodd" clip-rule="evenodd" d="M7.99226 1H6.99226V4H3V5H6.99226V8H7.99226V5H12V4H7.99226V1Z" fill="#F50100"/>
<path d="M6.99226 1V0.25H6.24226V1H6.99226ZM7.99226 1H8.74226V0.25H7.99226V1ZM6.99226 4V4.75H7.74226V4H6.99226ZM3 4V3.25H2.25V4H3ZM3 5H2.25V5.75H3V5ZM6.99226 5H7.74226V4.25H6.99226V5ZM6.99226 8H6.24226V8.75H6.99226V8ZM7.99226 8V8.75H8.74226V8H7.99226ZM7.99226 5V4.25H7.24226V5H7.99226ZM12 5V5.75H12.75V5H12ZM12 4H12.75V3.25H12V4ZM7.99226 4H7.24226V4.75H7.99226V4ZM6.99226 1.75H7.99226V0.25H6.99226V1.75ZM7.74226 4V1H6.24226V4H7.74226ZM3 4.75H6.99226V3.25H3V4.75ZM3.75 5V4H2.25V5H3.75ZM6.99226 4.25H3V5.75H6.99226V4.25ZM7.74226 8V5H6.24226V8H7.74226ZM7.99226 7.25H6.99226V8.75H7.99226V7.25ZM7.24226 5V8H8.74226V5H7.24226ZM12 4.25H7.99226V5.75H12V4.25ZM11.25 4V5H12.75V4H11.25ZM7.99226 4.75H12V3.25H7.99226V4.75ZM7.24226 1V4H8.74226V1H7.24226Z" fill="#F7FCFF" mask="url(#path-15-outside-1)"/>
</g>
</g>
</g>
<rect x="3" y="1" width="16" height="12" fill="url(#paint0_linear)" style="mix-blend-mode:overlay"/>
</g>
<defs>
<filter id="filter0_d" x="0" y="0" width="22" height="18" filterUnits="userSpaceOnUse" color-interpolation-filters="sRGB">
<feFlood flood-opacity="0" result="BackgroundImageFix"/>
<feColorMatrix in="SourceAlpha" type="matrix" values="0 0 0 0 0 0 0 0 0 0 0 0 0 0 0 0 0 0 127 0" result="hardAlpha"/>
<feOffset dy="2"/>
<feGaussianBlur stdDeviation="1.5"/>
<feColorMatrix type="matrix" values="0 0 0 0 0 0 0 0 0 0 0 0 0 0 0 0 0 0 0.1 0"/>
<feBlend mode="normal" in2="BackgroundImageFix" result="effect1_dropShadow"/>
<feBlend mode="normal" in="SourceGraphic" in2="effect1_dropShadow" result="shape"/>
</filter>
<linearGradient id="paint0_linear" x1="11" y1="1" x2="11" y2="13" gradientUnits="userSpaceOnUse">
<stop stop-color="white" stop-opacity="0.7"/>
<stop offset="1" stop-opacity="0.3"/>
</linearGradient>
</defs>
</svg>
