<svg width="22" height="18" viewBox="0 0 22 18" fill="none" xmlns="http://www.w3.org/2000/svg">
<g filter="url(#filter0_d)">
<mask id="mask0" style="mask-type:alpha" maskUnits="userSpaceOnUse" x="3" y="1" width="16" height="12">
<rect x="3" y="1" width="16" height="12" fill="white"/>
</mask>
<g mask="url(#mask0)">
<path fill-rule="evenodd" clip-rule="evenodd" d="M3 1H19V13H3V1Z" fill="#F7FCFF"/>
<path fill-rule="evenodd" clip-rule="evenodd" d="M3 1V5H19V1H3Z" fill="#C51918"/>
<path fill-rule="evenodd" clip-rule="evenodd" d="M3 9V13H19V9H3Z" fill="#409100"/>
<path fill-rule="evenodd" clip-rule="evenodd" d="M10.9726 8.78867C10.7663 8.79458 10.6289 8.57663 10.6289 8.57663L10.8404 8.52213C10.8536 8.38265 10.9492 8.30847 10.9492 8.30847C11.0125 8.34911 11.0808 8.53227 11.0808 8.53227L11.2621 8.55774C11.2621 8.55774 11.1789 8.78276 10.9726 8.78867ZM9.96523 8.851C9.76175 8.88556 9.59532 8.68886 9.59532 8.68886L9.79721 8.60545C9.79082 8.46549 9.87523 8.37873 9.87523 8.37873C9.94352 8.41017 10.0367 8.58203 10.0367 8.58203H10.2197C10.2197 8.58203 10.1687 8.81643 9.96523 8.851ZM9.24146 9.04909L9.33362 9.37728C9.81168 9.24792 10.3666 9.18288 10.9982 9.18288C11.6298 9.18288 12.1847 9.24792 12.6627 9.37728L12.7549 9.04909C12.2449 8.91109 11.6593 8.84245 10.9982 8.84245C10.337 8.84245 9.75148 8.91109 9.24146 9.04909ZM12.37 8.7229C12.37 8.7229 12.2036 8.9196 12.0001 8.88504C11.7966 8.85048 11.7456 8.61607 11.7456 8.61607H11.9286C11.9286 8.61607 12.0218 8.44421 12.0901 8.41277C12.0901 8.41277 12.1745 8.49954 12.1681 8.63949L12.37 8.7229Z" fill="#FFBB00"/>
<path fill-rule="evenodd" clip-rule="evenodd" d="M10.9793 7.84934C10.9793 7.84934 10.7448 8.38599 10.3754 8.42749C10.0061 8.469 9.81854 8.12228 9.81854 8.12228C9.81854 8.12228 9.79435 8.48284 9.35573 8.62182C8.91712 8.7608 8.68616 8.20552 8.68616 8.20552C8.68616 8.20552 8.91451 8.40977 9.26868 8.32077C9.62284 8.23176 9.76264 7.90305 9.76264 7.90305C9.76264 7.90305 10.0248 8.24574 10.3754 8.0744C10.7261 7.90305 10.9202 7.69364 10.9202 7.4927V6.89179C10.9202 6.89179 10.8297 6.73597 10.6727 6.73597C10.5158 6.73597 10.472 6.84643 10.472 6.84643C10.472 6.84643 10.4107 6.22127 10.9752 6.18263L10.9752 6.18112L10.9908 6.18173L11.0064 6.18112L11.0064 6.18263C11.5709 6.22127 11.5096 6.84643 11.5096 6.84643C11.5096 6.84643 11.4658 6.73597 11.3088 6.73597C11.1519 6.73597 11.0614 6.89179 11.0614 6.89179V7.4927C11.0614 7.69364 11.2554 7.90305 11.6061 8.0744C11.9568 8.24574 12.2189 7.90305 12.2189 7.90305C12.2189 7.90305 12.3587 8.23176 12.7129 8.32077C13.0671 8.40977 13.2954 8.20552 13.2954 8.20552C13.2954 8.20552 13.0644 8.7608 12.6258 8.62182C12.1872 8.48284 12.163 8.12228 12.163 8.12228C12.163 8.12228 11.9755 8.469 11.6061 8.42749C11.2368 8.38599 11.0023 7.84934 11.0023 7.84934L10.9908 7.14104L10.9793 7.84934ZM10.9741 6.35096C10.7137 6.35096 10.6609 6.57142 10.6609 6.57142C10.8902 6.57142 10.9741 6.67137 10.9741 6.67137C10.9741 6.67137 11.1438 6.57142 11.3148 6.57142C11.3148 6.57142 11.2345 6.35096 10.9741 6.35096Z" fill="#FFBB00"/>
<path d="M8.95025 7.49925L7.9539 7.58455C7.88098 6.73281 8.23154 5.92703 8.96829 5.18868C10.0521 4.10253 12.2468 4.20833 13.1809 5.19877C13.7147 5.76465 13.9881 6.54875 14.0144 7.52849L13.0147 7.55531C12.9946 6.80482 12.8031 6.25556 12.4535 5.88492C11.8962 5.29408 10.3502 5.21954 9.67616 5.89501C9.13412 6.43824 8.90459 6.96583 8.95025 7.49925Z" fill="#FFBB00"/>
</g>
<rect x="3" y="1" width="16" height="12" fill="url(#paint0_linear)" style="mix-blend-mode:overlay"/>
</g>
<defs>
<filter id="filter0_d" x="0" y="0" width="22" height="18" filterUnits="userSpaceOnUse" color-interpolation-filters="sRGB">
<feFlood flood-opacity="0" result="BackgroundImageFix"/>
<feColorMatrix in="SourceAlpha" type="matrix" values="0 0 0 0 0 0 0 0 0 0 0 0 0 0 0 0 0 0 127 0" result="hardAlpha"/>
<feOffset dy="2"/>
<feGaussianBlur stdDeviation="1.5"/>
<feColorMatrix type="matrix" values="0 0 0 0 0 0 0 0 0 0 0 0 0 0 0 0 0 0 0.1 0"/>
<feBlend mode="normal" in2="BackgroundImageFix" result="effect1_dropShadow"/>
<feBlend mode="normal" in="SourceGraphic" in2="effect1_dropShadow" result="shape"/>
</filter>
<linearGradient id="paint0_linear" x1="11" y1="1" x2="11" y2="13" gradientUnits="userSpaceOnUse">
<stop stop-color="white" stop-opacity="0.7"/>
<stop offset="1" stop-opacity="0.3"/>
</linearGradient>
</defs>
</svg>
