<svg width="22" height="18" viewBox="0 0 22 18" fill="none" xmlns="http://www.w3.org/2000/svg">
<g filter="url(#filter0_d)">
<mask id="mask0" style="mask-type:alpha" maskUnits="userSpaceOnUse" x="3" y="1" width="16" height="12">
<rect x="3" y="1" width="16" height="12" fill="white"/>
</mask>
<g mask="url(#mask0)">
<path fill-rule="evenodd" clip-rule="evenodd" d="M3 1V13H19V1H3Z" fill="#29C470"/>
<mask id="mask1" style="mask-type:alpha" maskUnits="userSpaceOnUse" x="3" y="1" width="16" height="12">
<path fill-rule="evenodd" clip-rule="evenodd" d="M3 1V13H19V1H3Z" fill="white"/>
</mask>
<g mask="url(#mask1)">
<rect x="4" y="0.838531" width="5" height="13.1615" fill="#C51918"/>
<mask id="mask2" style="mask-type:alpha" maskUnits="userSpaceOnUse" x="4" y="0" width="5" height="14">
<rect x="4" y="0.838531" width="5" height="13.1615" fill="white"/>
</mask>
<g mask="url(#mask2)">
<path fill-rule="evenodd" clip-rule="evenodd" d="M4.29768 1.45281L4.02463 1.80367L4 1.77932L4.26491 1.43891V1.37058L4.26591 1.36423L4.29671 1.26939L4.27786 1.23635L4.12163 1.39256L4.42278 0.923551V1.08381L4.48057 1.13598L4.61861 0.894546L4.4801 0.662188L4.38014 0.739007L4.42068 0.82044L4.39281 0.839795L4.16715 0.462285L4.31091 0.560584L4.33624 0.523863L4.19848 0.383538L4.25941 0.316433L4.05807 0.022575L4.084 0L4.30317 0.319877L4.24632 0.382489L4.38078 0.519454L4.31887 0.609224L4.27764 0.581032L4.3563 0.712629L4.4889 0.610725L4.65783 0.894123L4.48844 1.19039L4.39001 1.10155V1.03758L4.2912 1.19146L4.33308 1.26485L4.29768 1.37385V1.45281ZM4.02463 4.31512L4.29768 3.96426V3.8853L4.33308 3.77629L4.2912 3.7029L4.39001 3.54902V3.613L4.48844 3.70184L4.65783 3.40557L4.4889 3.12217L4.3563 3.22408L4.27764 3.09248L4.31887 3.12067L4.38078 3.0309L4.24632 2.89394L4.30317 2.83132L4.084 2.51145L4.05807 2.53402L4.25941 2.82788L4.19848 2.89499L4.33624 3.03531L4.31091 3.07203L4.16715 2.97373L4.39281 3.35124L4.42068 3.33189L4.38014 3.25045L4.4801 3.17364L4.61861 3.40599L4.48057 3.64742L4.42278 3.59526V3.435L4.12163 3.904L4.27786 3.7478L4.29671 3.78083L4.26591 3.87568L4.26491 3.88202V3.95036L4 4.29076L4.02463 4.31512ZM4.29768 6.25411L4.02463 6.60497L4 6.58061L4.26491 6.24021V6.17187L4.26591 6.16553L4.29671 6.07068L4.27786 6.03764L4.12163 6.19385L4.42278 5.72485V5.88511L4.48057 5.93727L4.61861 5.69584L4.4801 5.46348L4.38014 5.5403L4.42068 5.62174L4.39281 5.64109L4.16715 5.26358L4.31091 5.36188L4.33624 5.32516L4.19848 5.18483L4.25941 5.11773L4.05807 4.82387L4.084 4.8013L4.30317 5.12117L4.24632 5.18378L4.38078 5.32075L4.31887 5.41052L4.27764 5.38233L4.3563 5.51392L4.4889 5.41202L4.65783 5.69542L4.48844 5.99169L4.39001 5.90285V5.83887L4.2912 5.99275L4.33308 6.06614L4.29768 6.17515V6.25411ZM4.02463 8.93175L4.29768 8.58089V8.50193L4.33308 8.39293L4.2912 8.31954L4.39001 8.16565V8.22963L4.48844 8.31847L4.65783 8.0222L4.4889 7.7388L4.3563 7.84071L4.27764 7.70911L4.31887 7.7373L4.38078 7.64753L4.24632 7.51057L4.30317 7.44795L4.084 7.12808L4.05807 7.15065L4.25941 7.44451L4.19848 7.51162L4.33624 7.65194L4.31091 7.68866L4.16715 7.59036L4.39281 7.96787L4.42068 7.94852L4.38014 7.86708L4.4801 7.79027L4.61861 8.02262L4.48057 8.26406L4.42278 8.21189V8.05163L4.12163 8.52063L4.27786 8.36443L4.29671 8.39746L4.26591 8.49231L4.26491 8.49866V8.56699L4 8.90739L4.02463 8.93175ZM4.02463 11L4.29768 10.6491V10.5702L4.33308 10.4612L4.2912 10.3878L4.39001 10.2339V10.2979L4.48844 10.3867L4.65783 10.0905L4.4889 9.80705L4.3563 9.90896L4.27764 9.77736L4.31887 9.80555L4.38078 9.71578L4.24632 9.57882L4.30317 9.5162L4.084 9.19633L4.05807 9.2189L4.25941 9.51276L4.19848 9.57987L4.33624 9.72019L4.31091 9.75691L4.16715 9.65861L4.39281 10.0361L4.42068 10.0168L4.38014 9.93534L4.4801 9.85852L4.61861 10.0909L4.48057 10.3323L4.42278 10.2801V10.1199L4.12163 10.5889L4.27786 10.4327L4.29671 10.4657L4.26591 10.5606L4.26491 10.5669V10.6352L4 10.9756L4.02463 11ZM8.97537 11L8.70232 10.6491V10.5702L8.66692 10.4612L8.7088 10.3878L8.60999 10.2339V10.2979L8.51156 10.3867L8.34217 10.0905L8.5111 9.80705L8.6437 9.90896L8.72236 9.77736L8.68113 9.80555L8.61922 9.71578L8.75368 9.57882L8.69683 9.5162L8.916 9.19633L8.94193 9.2189L8.74059 9.51276L8.80152 9.57987L8.66376 9.72019L8.68909 9.75691L8.83285 9.65861L8.60719 10.0361L8.57932 10.0168L8.61986 9.93534L8.5199 9.85852L8.38139 10.0909L8.51943 10.3323L8.57722 10.2801V10.1199L8.87837 10.5889L8.72214 10.4327L8.70329 10.4657L8.73409 10.5606L8.73509 10.5669V10.6352L9 10.9756L8.97537 11ZM8.70232 8.58089L8.97537 8.93175L9 8.90739L8.73509 8.56699V8.49866L8.73409 8.49231L8.70329 8.39746L8.72214 8.36443L8.87837 8.52063L8.57722 8.05163V8.21189L8.51943 8.26406L8.38139 8.02262L8.5199 7.79027L8.61986 7.86708L8.57932 7.94852L8.60719 7.96787L8.83285 7.59036L8.68909 7.68866L8.66376 7.65194L8.80152 7.51162L8.74059 7.44451L8.94193 7.15065L8.916 7.12808L8.69683 7.44795L8.75368 7.51057L8.61922 7.64753L8.68113 7.7373L8.72236 7.70911L8.6437 7.84071L8.5111 7.7388L8.34217 8.0222L8.51156 8.31847L8.60999 8.22963V8.16565L8.7088 8.31954L8.66692 8.39293L8.70232 8.50193V8.58089ZM8.97537 6.60497L8.70232 6.25411V6.17515L8.66692 6.06614L8.7088 5.99275L8.60999 5.83887V5.90285L8.51156 5.99169L8.34217 5.69542L8.5111 5.41202L8.6437 5.51392L8.72236 5.38233L8.68113 5.41052L8.61922 5.32075L8.75368 5.18378L8.69683 5.12117L8.916 4.8013L8.94193 4.82387L8.74059 5.11773L8.80152 5.18483L8.66376 5.32516L8.68909 5.36188L8.83285 5.26358L8.60719 5.64109L8.57932 5.62174L8.61986 5.5403L8.5199 5.46348L8.38139 5.69584L8.51943 5.93727L8.57722 5.88511V5.72485L8.87837 6.19385L8.72214 6.03764L8.70329 6.07068L8.73409 6.16553L8.73509 6.17187V6.24021L9 6.58061L8.97537 6.60497ZM8.70232 3.96426L8.97537 4.31512L9 4.29076L8.73509 3.95036V3.88202L8.73409 3.87568L8.70329 3.78083L8.72214 3.7478L8.87837 3.904L8.57722 3.435V3.59526L8.51943 3.64742L8.38139 3.40599L8.5199 3.17364L8.61986 3.25045L8.57932 3.33189L8.60719 3.35124L8.83285 2.97373L8.68909 3.07203L8.66376 3.03531L8.80152 2.89499L8.74059 2.82788L8.94193 2.53402L8.916 2.51145L8.69683 2.83132L8.75368 2.89394L8.61922 3.0309L8.68113 3.12067L8.72236 3.09248L8.6437 3.22408L8.5111 3.12217L8.34217 3.40557L8.51156 3.70184L8.60999 3.613V3.54902L8.7088 3.7029L8.66692 3.77629L8.70232 3.8853V3.96426ZM8.97537 1.80367L8.70232 1.45281V1.37385L8.66692 1.26485L8.7088 1.19146L8.60999 1.03758V1.10155L8.51156 1.19039L8.34217 0.894123L8.5111 0.610725L8.6437 0.712629L8.72236 0.581032L8.68113 0.609224L8.61922 0.519454L8.75368 0.382489L8.69683 0.319877L8.916 0L8.94193 0.022575L8.74059 0.316433L8.80152 0.383538L8.66376 0.523863L8.68909 0.560584L8.83285 0.462285L8.60719 0.839795L8.57932 0.82044L8.61986 0.739007L8.5199 0.662188L8.38139 0.894546L8.51943 1.13598L8.57722 1.08381V0.923551L8.87837 1.39256L8.72214 1.23635L8.70329 1.26939L8.73409 1.36423L8.73509 1.37058V1.43891L9 1.77932L8.97537 1.80367Z" fill="#E8AA00"/>
<path fill-rule="evenodd" clip-rule="evenodd" d="M6.65335 8.28228H7.4301V8.46457H7.60709V8.6104H7.81948V9.08436H7.60709V9.23019H7.4301V9.37603H6.67408L6.46492 9.56191L6.25476 9.37603H5.55399V9.23019H5.377V9.08436H5.20001V8.6104H5.377V8.46457H5.55399V8.28228H6.27558L6.46492 8.11481L6.65335 8.28228Z" fill="#389F5D"/>
<path d="M7.4301 8.28228H7.5051V8.20728H7.4301V8.28228ZM6.65335 8.28228L6.60353 8.33834L6.62484 8.35728H6.65335V8.28228ZM7.4301 8.46457H7.3551V8.53957H7.4301V8.46457ZM7.60709 8.46457H7.68209V8.38957H7.60709V8.46457ZM7.60709 8.6104H7.53209V8.6854H7.60709V8.6104ZM7.81948 8.6104H7.89448V8.5354H7.81948V8.6104ZM7.81948 9.08436V9.15936H7.89448V9.08436H7.81948ZM7.60709 9.08436V9.00936H7.53209V9.08436H7.60709ZM7.60709 9.23019V9.30519H7.68209V9.23019H7.60709ZM7.4301 9.23019V9.15519H7.3551V9.23019H7.4301ZM7.4301 9.37603V9.45103H7.5051V9.37603H7.4301ZM6.67408 9.37603V9.30103H6.64556L6.62425 9.31997L6.67408 9.37603ZM6.46492 9.56191L6.41522 9.61809L6.46503 9.66215L6.51474 9.61797L6.46492 9.56191ZM6.25476 9.37603L6.30445 9.31985L6.28317 9.30103H6.25476V9.37603ZM5.55399 9.37603H5.47899V9.45103H5.55399V9.37603ZM5.55399 9.23019H5.62899V9.15519H5.55399V9.23019ZM5.377 9.23019H5.302V9.30519H5.377V9.23019ZM5.377 9.08436H5.452V9.00936H5.377V9.08436ZM5.20001 9.08436H5.12501V9.15936H5.20001V9.08436ZM5.20001 8.6104V8.5354H5.12501V8.6104H5.20001ZM5.377 8.6104V8.6854H5.452V8.6104H5.377ZM5.377 8.46457V8.38957H5.302V8.46457H5.377ZM5.55399 8.46457V8.53957H5.62899V8.46457H5.55399ZM5.55399 8.28228V8.20728H5.47899V8.28228H5.55399ZM6.27558 8.28228V8.35728H6.30399L6.32527 8.33845L6.27558 8.28228ZM6.46492 8.11481L6.51474 8.05875L6.46503 8.01457L6.41523 8.05863L6.46492 8.11481ZM7.4301 8.20728H6.65335V8.35728H7.4301V8.20728ZM7.5051 8.46457V8.28228H7.3551V8.46457H7.5051ZM7.60709 8.38957H7.4301V8.53957H7.60709V8.38957ZM7.68209 8.6104V8.46457H7.53209V8.6104H7.68209ZM7.81948 8.5354H7.60709V8.6854H7.81948V8.5354ZM7.89448 9.08436V8.6104H7.74448V9.08436H7.89448ZM7.60709 9.15936H7.81948V9.00936H7.60709V9.15936ZM7.68209 9.23019V9.08436H7.53209V9.23019H7.68209ZM7.4301 9.30519H7.60709V9.15519H7.4301V9.30519ZM7.5051 9.37603V9.23019H7.3551V9.37603H7.5051ZM6.67408 9.45103H7.4301V9.30103H6.67408V9.45103ZM6.51474 9.61797L6.7239 9.43209L6.62425 9.31997L6.41509 9.50585L6.51474 9.61797ZM6.20507 9.4322L6.41522 9.61809L6.51461 9.50574L6.30445 9.31985L6.20507 9.4322ZM5.55399 9.45103H6.25476V9.30103H5.55399V9.45103ZM5.47899 9.23019V9.37603H5.62899V9.23019H5.47899ZM5.377 9.30519H5.55399V9.15519H5.377V9.30519ZM5.302 9.08436V9.23019H5.452V9.08436H5.302ZM5.20001 9.15936H5.377V9.00936H5.20001V9.15936ZM5.12501 8.6104V9.08436H5.27501V8.6104H5.12501ZM5.377 8.5354H5.20001V8.6854H5.377V8.5354ZM5.302 8.46457V8.6104H5.452V8.46457H5.302ZM5.55399 8.38957H5.377V8.53957H5.55399V8.38957ZM5.47899 8.28228V8.46457H5.62899V8.28228H5.47899ZM6.27558 8.20728H5.55399V8.35728H6.27558V8.20728ZM6.32527 8.33845L6.51461 8.17098L6.41523 8.05863L6.22589 8.2261L6.32527 8.33845ZM6.41509 8.17087L6.60353 8.33834L6.70317 8.22622L6.51474 8.05875L6.41509 8.17087Z" fill="#E8AA00"/>
<path fill-rule="evenodd" clip-rule="evenodd" d="M5.65765 8.70364V8.38156H6.03294L5.65765 8.70364ZM7.23648 8.70364V8.38156H6.86119L7.23648 8.70364ZM5.65765 9.28697V8.96489L6.03294 9.28697H5.65765ZM7.23648 8.96489V9.28697H6.86119L7.23648 8.96489Z" fill="#C51918"/>
<path fill-rule="evenodd" clip-rule="evenodd" d="M6.32257 8.40927L6.45211 8.23962L6.58003 8.40927H6.32257ZM6.32257 8.56775L6.45211 8.73739L6.58003 8.56775H6.32257ZM6.45211 8.96879L6.32257 9.13844H6.58003L6.45211 8.96879ZM6.32257 9.29692L6.45211 9.46656L6.58003 9.29692H6.32257Z" fill="#E8AA00"/>
<path fill-rule="evenodd" clip-rule="evenodd" d="M6.32523 8.38916V8.46208H6.25085V8.56208H6.32523V8.63499H6.58477V8.56208H6.65915V8.46208H6.58477V8.38916H6.32523ZM6.58477 9.19124V9.11833H6.32523V9.19124H6.25085V9.29124H6.32523V9.36416H6.58477V9.29124H6.65915V9.19124H6.58477Z" fill="#AF0100"/>
<path fill-rule="evenodd" clip-rule="evenodd" d="M5.82697 8.77462L5.95028 8.60422L6.07204 8.77462H5.82697ZM5.82697 8.93381L5.95028 9.10422L6.07204 8.93381H5.82697ZM6.97682 8.60422L6.85351 8.77462H7.09858L6.97682 8.60422ZM6.85351 8.93381L6.97682 9.10422L7.09858 8.93381H6.85351Z" fill="#AF0100"/>
<path fill-rule="evenodd" clip-rule="evenodd" d="M5.82611 8.75375V8.82813H5.75531V8.93013H5.82611V9.0045H6.07316V8.93013H6.14396V8.82813H6.07316V8.75375H5.82611ZM7.09971 8.82813V8.75375H6.85266V8.82813H6.78186V8.93013H6.85266V9.0045H7.09971V8.93013H7.17051V8.82813H7.09971Z" fill="#E8AA00"/>
<mask id="mask3" style="mask-type:alpha" maskUnits="userSpaceOnUse" x="5" y="9" width="3" height="3">
<path fill-rule="evenodd" clip-rule="evenodd" d="M6.1085 9.62543L5.22272 10.1249V10.9527L6.1085 11.4723H7.0679L7.97475 10.9527V10.1249L7.0679 9.62543H6.1085Z" fill="white"/>
</mask>
<g mask="url(#mask3)">
<path d="M5.23541 10.5479H6.61594V11.4594H5.23541V10.5479Z" fill="#E8AA00"/>
<rect x="5.09381" y="9.63644" width="1.52212" height="0.911458" fill="#F9E8E7"/>
<path d="M5.44781 10.1676L5.90607 9.89166V10.1676H5.44781Z" fill="#E8AA00"/>
<rect width="1.52212" height="0.911458" transform="matrix(-1 0 0 1 8.13806 9.63644)" fill="#E8AA00"/>
<path d="M7.67786 10.1676L7.2196 9.89166V10.1676H7.67786Z" fill="#F9E8E7"/>
<rect x="7.99646" y="11.4594" width="1.38053" height="0.911458" transform="rotate(-180 7.99646 11.4594)" fill="#F9E8E7"/>
<path d="M7.64246 10.9282L7.1842 11.2041V10.9282H7.64246Z" fill="#E8AA00"/>
<path d="M5.44775 10.8706L5.90601 11.1466V10.8706H5.44775Z" fill="#FCFCFC"/>
</g>
<path fill-rule="evenodd" clip-rule="evenodd" d="M6.12036 10.1833H6.35045L6.58054 10.1104L6.81063 10.1833H7.04072V10.876H6.81063L6.58054 10.9854L6.35045 10.876H6.12036V10.1833Z" fill="#C51918"/>
<path fill-rule="evenodd" clip-rule="evenodd" d="M6.89909 9.76877H7.02409V9.90983H7.07531V10.0098H7.02409V10.0637H6.89909V9.76877ZM5.64355 10.2063H5.51855V10.5012H5.64355V10.4473H5.69478V10.3473H5.64355V10.2063ZM5.82055 10.2063H5.69555V10.5012H5.82055V10.2063ZM5.64355 10.5709H5.51855V10.8657H5.64355V10.8119H5.69478V10.7119H5.64355V10.5709ZM5.69555 10.5709H5.82055V10.8657H5.69555V10.5709ZM7.46546 10.2063H7.59046V10.3473H7.64168V10.4473H7.59046V10.5012H7.46546V10.2063ZM7.76745 10.2063H7.64245V10.5012H7.76745V10.2063ZM7.59046 10.5709H7.46546V10.8657H7.59046V10.8119H7.64168V10.7119H7.59046V10.5709ZM7.64245 10.5709H7.76745V10.8657H7.64245V10.5709ZM7.20108 9.76877H7.07608V10.0637H7.20108V9.76877ZM6.17453 9.76877H6.04953V10.0637H6.17453V10.0098H6.22575V9.90983H6.17453V9.76877ZM6.22652 9.76877H6.35152V10.0637H6.22652V9.76877ZM6.89909 11.0084H7.02409V11.1494H7.07531V11.2494H7.02409V11.3032H6.89909V11.0084ZM7.20108 11.0084H7.07608V11.3032H7.20108V11.0084ZM6.17453 11.0084H6.04953V11.3032H6.17453V11.2494H6.22575V11.1494H6.17453V11.0084ZM6.22652 11.0084H6.35152V11.3032H6.22652V11.0084Z" fill="#C9343F"/>
<path fill-rule="evenodd" clip-rule="evenodd" d="M6.51255 10.3331H6.54795V10.234H6.37109V10.3473H6.22534V10.5098H6.36087V10.4733H6.26074V10.3838H6.38095L6.56188 10.5404L6.38095 10.6969H6.26074V10.6074H6.36087V10.5709H6.22534V10.7334H6.37109V10.8467H6.54795V10.7476H6.51255V10.8103H6.40649V10.7224L6.59049 10.5632L6.77448 10.7224V10.8103H6.66842V10.7476H6.63302V10.8467H6.80988V10.7334H6.95563V10.5709H6.82011V10.6074H6.92023V10.6969H6.80002L6.61909 10.5404L6.80002 10.3838H6.92023V10.4733H6.82011V10.5098H6.95563V10.3473H6.80988V10.234H6.63302V10.3331H6.66842V10.2704H6.77448V10.3583L6.59049 10.5175L6.40649 10.3583V10.2704H6.51255V10.3331Z" fill="white"/>
<path fill-rule="evenodd" clip-rule="evenodd" d="M6.79218 3.39999H6.16881V5.39999H6.79218V3.39999ZM5.38959 3.82307H5.7792V4.89999H5.38959V3.82307ZM7.22076 3.82307H7.61037V4.89999H7.22076V3.82307Z" fill="#E8AA00"/>
<path fill-rule="evenodd" clip-rule="evenodd" d="M6.16883 3.55383H5.77922V5.09229H6.16883V3.55383ZM5.38961 3.97691H5V4.70768H5.38961V3.97691ZM7.61039 3.97691H8V4.70768H7.61039V3.97691ZM7.18182 3.55383H6.79221V5.09229H7.18182V3.55383Z" fill="#389F5D"/>
<path fill-rule="evenodd" clip-rule="evenodd" d="M6.09093 3.74615C6.09093 3.80988 6.0386 3.86154 5.97405 3.86154C5.90949 3.86154 5.85716 3.80988 5.85716 3.74615C5.85716 3.68243 5.90949 3.63077 5.97405 3.63077C6.0386 3.63077 6.09093 3.68243 6.09093 3.74615ZM5.31171 4.13077C5.31171 4.19449 5.25938 4.24615 5.19483 4.24615C5.13027 4.24615 5.07794 4.19449 5.07794 4.13077C5.07794 4.06704 5.13027 4.01538 5.19483 4.01538C5.25938 4.01538 5.31171 4.06704 5.31171 4.13077ZM5.31171 4.55384C5.31171 4.61757 5.25938 4.66923 5.19483 4.66923C5.13027 4.66923 5.07794 4.61757 5.07794 4.55384C5.07794 4.49012 5.13027 4.43846 5.19483 4.43846C5.25938 4.43846 5.31171 4.49012 5.31171 4.55384ZM5.97405 5.01538C6.0386 5.01538 6.09093 4.96372 6.09093 4.9C6.09093 4.83627 6.0386 4.78461 5.97405 4.78461C5.90949 4.78461 5.85716 4.83627 5.85716 4.9C5.85716 4.96372 5.90949 5.01538 5.97405 5.01538ZM7.80521 4.24615C7.86977 4.24615 7.9221 4.19449 7.9221 4.13077C7.9221 4.06704 7.86977 4.01538 7.80521 4.01538C7.74066 4.01538 7.68833 4.06704 7.68833 4.13077C7.68833 4.19449 7.74066 4.24615 7.80521 4.24615ZM7.9221 4.55384C7.9221 4.61757 7.86977 4.66923 7.80521 4.66923C7.74066 4.66923 7.68833 4.61757 7.68833 4.55384C7.68833 4.49012 7.74066 4.43846 7.80521 4.43846C7.86977 4.43846 7.9221 4.49012 7.9221 4.55384ZM6.98703 5.01538C7.05159 5.01538 7.10392 4.96372 7.10392 4.9C7.10392 4.83627 7.05159 4.78461 6.98703 4.78461C6.92248 4.78461 6.87015 4.83627 6.87015 4.9C6.87015 4.96372 6.92248 5.01538 6.98703 5.01538ZM7.10392 3.74615C7.10392 3.80988 7.05159 3.86154 6.98703 3.86154C6.92248 3.86154 6.87015 3.80988 6.87015 3.74615C6.87015 3.68243 6.92248 3.63077 6.98703 3.63077C7.05159 3.63077 7.10392 3.68243 7.10392 3.74615Z" fill="#E1E5E8"/>
<path fill-rule="evenodd" clip-rule="evenodd" d="M6.5974 3.59231C6.5974 3.65604 6.54507 3.7077 6.48052 3.7077C6.41596 3.7077 6.36363 3.65604 6.36363 3.59231C6.36363 3.52859 6.41596 3.47693 6.48052 3.47693C6.54507 3.47693 6.5974 3.52859 6.5974 3.59231ZM5.7013 4.01539C5.7013 4.07912 5.64897 4.13077 5.58441 4.13077C5.51986 4.13077 5.46753 4.07912 5.46753 4.01539C5.46753 3.95167 5.51986 3.90001 5.58441 3.90001C5.64897 3.90001 5.7013 3.95167 5.7013 4.01539ZM6.48052 5.36154C6.54507 5.36154 6.5974 5.30988 6.5974 5.24616C6.5974 5.18243 6.54507 5.13077 6.48052 5.13077C6.41596 5.13077 6.36363 5.18243 6.36363 5.24616C6.36363 5.30988 6.41596 5.36154 6.48052 5.36154ZM7.53246 4.01539C7.53246 4.07912 7.48013 4.13077 7.41558 4.13077C7.35103 4.13077 7.2987 4.07912 7.2987 4.01539C7.2987 3.95167 7.35103 3.90001 7.41558 3.90001C7.48013 3.90001 7.53246 3.95167 7.53246 4.01539ZM5.58441 4.82308C5.64897 4.82308 5.7013 4.77142 5.7013 4.7077C5.7013 4.64397 5.64897 4.59231 5.58441 4.59231C5.51986 4.59231 5.46753 4.64397 5.46753 4.7077C5.46753 4.77142 5.51986 4.82308 5.58441 4.82308ZM7.53246 4.7077C7.53246 4.77142 7.48013 4.82308 7.41558 4.82308C7.35103 4.82308 7.2987 4.77142 7.2987 4.7077C7.2987 4.64397 7.35103 4.59231 7.41558 4.59231C7.48013 4.59231 7.53246 4.64397 7.53246 4.7077Z" fill="#C51918"/>
<path fill-rule="evenodd" clip-rule="evenodd" d="M5.80324 4.19572L6.18253 3.85318H6.79837L7.23058 4.24616H7.80517V4.40001H7.24616V4.40804L6.79837 4.86347H6.18253L5.80324 4.45243V4.40001H5.15582V4.24616H5.80324V4.19572Z" fill="#C51918"/>
<path fill-rule="evenodd" clip-rule="evenodd" d="M6.50553 4.13824L6.68971 4.3249L6.49635 4.50806L6.30299 4.3249L6.48717 4.13824L6.49635 4.12978L6.50553 4.13824ZM6.53906 4.58893L6.56063 4.56896L6.53855 4.54804L6.73049 4.36623L6.93068 4.56911L6.84059 4.66413H6.78717L6.6878 4.72664L6.53906 4.58893ZM6.49635 4.62847L6.31176 4.79937L6.18849 4.72182H6.12676L5.98122 4.56832L6.22004 4.32628L5.97968 4.0986L6.1374 3.94555L6.19456 3.99045L6.27726 3.90691L6.2524 3.88172L6.29427 3.84146L6.49635 4.04626L6.69843 3.84146L6.7403 3.88172L6.71543 3.90691L6.79814 3.99045L6.8553 3.94555L7.01302 4.0986L6.77266 4.32628L7.01148 4.56832L6.86593 4.72182H6.80421L6.68093 4.79937L6.49635 4.62847ZM6.59935 4.15065L6.60178 4.14809L6.54643 4.09702L6.53948 4.08998L6.68345 3.95714L6.79323 4.06804L6.85122 4.02249L6.92914 4.0981L6.73188 4.28496L6.59935 4.15065ZM6.47572 4.56848L6.30489 4.72664L6.20553 4.66413H6.15211L6.06202 4.56911L6.26221 4.36623L6.47572 4.56848ZM6.06356 4.0981L6.26082 4.28496L6.45321 4.08998L6.30925 3.95714L6.19946 4.06804L6.14148 4.02249L6.06356 4.0981Z" fill="#E8AA00"/>
<path fill-rule="evenodd" clip-rule="evenodd" d="M5.22418 11.7208C5.11967 11.5882 5.04913 11.4987 5.03055 11.5C4.97222 11.5043 4.91751 12.1219 5.67572 12.5918C5.67572 12.5918 5.78764 12.654 5.85283 12.5918C5.91801 12.5296 5.85283 12.438 5.85283 12.438C5.60773 12.2077 5.37878 11.9171 5.22418 11.7208L5.22418 11.7208ZM7.77582 11.7208L7.77582 11.7208L7.77583 11.7208C7.88034 11.5882 7.95087 11.4987 7.96945 11.5C8.02778 11.5043 8.08249 12.1219 7.32428 12.5918C7.32428 12.5918 7.21236 12.654 7.14717 12.5918C7.08199 12.5296 7.14717 12.438 7.14717 12.438C7.39227 12.2077 7.62122 11.9171 7.77582 11.7208ZM7.72035 12.5518C7.47121 12.6255 7.18265 12.6409 7.07231 12.5933C7.03711 12.5781 6.99974 12.5662 6.96048 12.5573C6.85072 12.5324 6.74372 12.5321 6.61676 12.546L6.56664 12.5518C6.55469 12.5532 6.54778 12.5538 6.54647 12.5538C6.53902 12.5538 6.53087 12.5549 6.52192 12.557C6.51298 12.5549 6.50482 12.5538 6.49738 12.5538C6.49606 12.5538 6.48916 12.5532 6.4772 12.5518L6.42709 12.546C6.30012 12.5321 6.19313 12.5324 6.08336 12.5573C6.0441 12.5662 6.00673 12.5781 5.97154 12.5933C5.8612 12.6409 5.57264 12.6255 5.32349 12.5518C5.32349 12.5518 5.77687 12.7339 6.04614 12.6532C6.07225 12.642 6.09979 12.6332 6.12877 12.6266C6.20542 12.6092 6.28393 12.6076 6.37837 12.6165C6.33865 12.635 6.29247 12.6561 6.23876 12.6779V12.7C6.3448 12.657 6.46906 12.6366 6.52192 12.6303C6.57478 12.6366 6.69905 12.657 6.80509 12.7V12.6779C6.75137 12.6561 6.70519 12.635 6.66547 12.6165C6.75991 12.6076 6.83842 12.6092 6.91507 12.6266C6.94405 12.6332 6.97159 12.642 6.9977 12.6532C7.26697 12.7339 7.72035 12.5518 7.72035 12.5518Z" fill="#E8AA00"/>
<path fill-rule="evenodd" clip-rule="evenodd" d="M5.88201 5.98868L5.25604 6.54031V7.0657L5.80328 7.61559H6.92067L7.53675 7.02885V6.58156L6.92067 5.98868H5.88201Z" fill="#389F5D"/>
<path fill-rule="evenodd" clip-rule="evenodd" d="M6.09734 6.04706H5.95575V6.15643H6.09734V6.04706ZM6.09734 7.47707H5.95575V7.58645H6.09734V7.47707ZM6.30973 7.47707H6.45132V7.58645H6.30973V7.47707ZM6.45132 6.04706H6.30973V6.15643H6.45132V6.04706ZM6.66371 7.47707H6.80531V7.58645H6.66371V7.47707ZM6.80531 6.04706H6.66371V6.15643H6.80531V6.04706Z" fill="#C51918"/>
<path fill-rule="evenodd" clip-rule="evenodd" d="M6.27688 6.01874H6.13275V6.12811H6.27688V6.01874ZM6.27688 7.47707H6.13275V7.58645H6.27688V7.47707ZM6.49308 6.01874H6.63722V6.12811H6.49308V6.01874ZM6.63722 7.47707H6.49308V7.58645H6.63722V7.47707Z" fill="#E8AA00"/>
<path fill-rule="evenodd" clip-rule="evenodd" d="M5.45689 5.92096H7.34691V6.21302H7.61753V7.42043H7.34691V7.67002H5.45689V7.42043H5.16302V6.21302H5.45689V5.92096ZM5.56309 6.3224H5.26922V7.31105H5.56309V7.56064H7.24071V7.31105H7.51134V6.3224H7.24071V6.03033H5.56309V6.3224Z" fill="#750100"/>
<path fill-rule="evenodd" clip-rule="evenodd" d="M6.20357 5.79999H6.02657V5.98228H6.20357V5.79999ZM6.48675 5.79999H6.30976V5.98228H6.48675V5.79999ZM6.59295 5.79999H6.76994V5.98228H6.59295V5.79999ZM6.20357 7.6229H6.02657V7.8052H6.20357V7.6229ZM6.30976 7.6229H6.48675V7.8052H6.30976V7.6229ZM6.76994 7.6229H6.59295V7.8052H6.76994V7.6229ZM4.99738 7.21921V7.04222H5.17967V7.21921H4.99738ZM4.99738 6.75055V6.92755H5.17967V6.75055H4.99738ZM4.99738 6.63588V6.45889H5.17967V6.63588H4.99738ZM7.54605 7.04222V7.21921H7.72834V7.04222H7.54605ZM7.54605 6.92755V6.75055H7.72834V6.92755H7.54605ZM7.54605 6.45889V6.63588H7.72834V6.45889H7.54605Z" fill="#389F5D"/>
<path fill-rule="evenodd" clip-rule="evenodd" d="M5.88919 6.1423L5.58392 6.40781V7.26695L5.83727 7.44622H6.93558L7.18855 7.26695V6.40781L6.90305 6.1423H5.88919Z" fill="#C51918"/>
<path fill-rule="evenodd" clip-rule="evenodd" d="M6.40167 6.49841L6.03333 6.81313H6.40167V6.49841Z" fill="#E1E5E8"/>
<path d="M6.40167 7.09863L6.03333 6.78391H6.40167V7.09863Z" fill="#E8AA00"/>
<path fill-rule="evenodd" clip-rule="evenodd" d="M6.36957 6.49841L6.73792 6.81313H6.36957V6.49841Z" fill="#E8AA00"/>
<path fill-rule="evenodd" clip-rule="evenodd" d="M6.38592 6.89811C6.44753 6.89811 6.49748 6.84816 6.49748 6.78655C6.49748 6.72494 6.44753 6.67499 6.38592 6.67499C6.3243 6.67499 6.27435 6.72494 6.27435 6.78655C6.27435 6.84816 6.3243 6.89811 6.38592 6.89811Z" fill="#29AE66"/>
<path d="M6.36957 7.09863L6.73792 6.78391H6.36957V7.09863Z" fill="#E1E5E8"/>
<path fill-rule="evenodd" clip-rule="evenodd" d="M5.60179 6.67499H5.2832V6.77699H5.60179V6.67499ZM5.60179 6.86093H5.2832V6.96293H5.60179V6.86093ZM7.19471 6.67499H7.51329V6.77699H7.19471V6.67499ZM7.51329 6.86093H7.19471V6.96293H7.51329V6.86093Z" fill="#C51918"/>
<path fill-rule="evenodd" clip-rule="evenodd" d="M5.56639 6.56561H5.2832V6.67718H5.56639V6.56561ZM5.56639 6.75155H5.2832V6.86311H5.56639V6.75155ZM5.2832 6.93749H5.56639V7.04905H5.2832V6.93749ZM7.47789 6.56561H7.19471V6.67718H7.47789V6.56561ZM7.19471 6.75155H7.47789V6.86311H7.19471V6.75155ZM7.47789 6.93749H7.19471V7.04905H7.47789V6.93749Z" fill="#E8AA00"/>
<path fill-rule="evenodd" clip-rule="evenodd" d="M7.99248 1.79518L7.99141 1.99776H6.51194L6.51089 2.91776H6.04699C5.96601 2.91776 5.74398 2.76227 5.74398 2.76227H5.3673L5.19341 2.58462V2.40611L5.00677 2.18451L5.00785 1.98192H6.48731L6.48837 1.06192H6.95227C7.03325 1.06192 7.25528 1.21742 7.25528 1.21742H7.63195L7.80585 1.39507V1.57357L7.99248 1.79518Z" fill="#E8AA00"/>
<path fill-rule="evenodd" clip-rule="evenodd" d="M5.00679 1.79518L5.00786 1.99776H6.48732L6.48838 2.91776H6.95228C7.03326 2.91776 7.25529 2.76227 7.25529 2.76227H7.63197L7.80586 2.58462V2.40611L7.99249 2.18451L7.99142 1.98192H6.51195L6.5109 1.06192H6.047C5.96602 1.06192 5.74399 1.21742 5.74399 1.21742H5.36731L5.19342 1.39507V1.57357L5.00679 1.79518Z" fill="#E1E5E8"/>
<path fill-rule="evenodd" clip-rule="evenodd" d="M6.00106 1.34268L5.98486 1.26444L6.30399 1.19105C6.3423 1.17255 6.40879 1.11985 6.50036 1.03421L6.54327 1.0825L6.55063 1.07421C6.64221 1.15985 6.7087 1.21255 6.74701 1.23105L7.06614 1.30444L7.04994 1.38268L6.87296 1.34612L6.88989 1.36126C6.87773 1.36855 6.8645 1.37917 6.85032 1.39306L6.7756 1.38206L6.78255 1.35679L6.76379 1.35374C6.75005 1.37966 6.73433 1.41675 6.71754 1.46435L6.64281 1.44235L6.67307 1.2974L6.50417 1.13899L6.38585 1.24998C6.40057 1.26332 6.41525 1.27864 6.42995 1.29597C6.41739 1.30075 6.40539 1.30496 6.39393 1.30862L6.38887 1.30983L6.40818 1.40235L6.33345 1.42435C6.3237 1.3967 6.31431 1.37259 6.30545 1.35216L6.29929 1.35306C6.28512 1.33917 6.27189 1.32855 6.25972 1.32126L6.28088 1.30235C6.27741 1.29642 6.27408 1.29127 6.27093 1.28694L6.00106 1.34268ZM6.01419 1.62918L6.0568 1.5622L5.83639 1.41442L5.8609 1.38014L5.79809 1.3328L5.77105 1.37061L5.68358 1.31196L5.64097 1.37894L5.72487 1.43519L5.70759 1.45935L5.7704 1.5067L5.7902 1.479L6.01419 1.62918ZM5.74146 1.70918L5.78407 1.6422L5.56366 1.49442L5.58817 1.46014L5.52536 1.4128L5.49832 1.45061L5.41085 1.39196L5.36825 1.45894L5.45214 1.51519L5.43486 1.53935L5.49767 1.5867L5.51748 1.559L5.74146 1.70918ZM5.62458 1.94918L5.66719 1.8822L5.44678 1.73442L5.47129 1.70014L5.40848 1.6528L5.38144 1.69061L5.29397 1.63196L5.25136 1.69894L5.33525 1.75519L5.31798 1.77935L5.38079 1.8267L5.40059 1.799L5.62458 1.94918ZM5.62823 2.14119L5.58562 2.07421L5.36163 2.22439L5.34183 2.19669L5.27902 2.24404L5.29629 2.2682L5.2124 2.32445L5.25501 2.39143L5.34248 2.33278L5.36952 2.37059L5.43233 2.32325L5.40782 2.28897L5.62823 2.14119ZM5.7025 2.31421L5.74511 2.38119L5.5247 2.52897L5.54921 2.56325L5.4864 2.61059L5.45936 2.57278L5.37189 2.63143L5.32929 2.56445L5.41318 2.5082L5.3959 2.48404L5.45871 2.43669L5.47852 2.46439L5.7025 2.31421ZM5.97523 2.39421L6.01784 2.46119L5.79743 2.60897L5.82194 2.64325L5.75913 2.69059L5.73209 2.65278L5.64462 2.71143L5.60201 2.64445L5.6859 2.5882L5.66863 2.56404L5.73144 2.51669L5.75124 2.54439L5.97523 2.39421ZM6.39098 2.77653C6.37843 2.77176 6.36643 2.76754 6.35497 2.76389L6.34014 2.76035L6.36922 2.62104L6.29449 2.59904C6.27062 2.66672 6.24891 2.71316 6.23197 2.73646L5.9621 2.68071L5.94589 2.75896L6.25349 2.82969L6.2534 2.82998L6.29789 2.85953L6.30374 2.85588C6.34251 2.88292 6.39545 2.92751 6.4614 2.98918L6.48654 2.96089L6.51167 2.98918C6.60325 2.90354 6.66974 2.85084 6.70805 2.83234L6.7184 2.82996C6.73185 2.84144 6.74535 2.85129 6.75895 2.85953L6.80344 2.82998L6.79894 2.81473L6.8039 2.8103L7.02718 2.75896L7.01098 2.68071L6.7411 2.73646C6.72416 2.71316 6.70245 2.66672 6.67858 2.59904L6.60385 2.62104L6.63411 2.76599L6.48654 2.9044L6.37242 2.79736C6.37861 2.79078 6.38479 2.78383 6.39098 2.77653ZM7.34485 2.14119L7.38745 2.07421L7.61144 2.22439L7.63125 2.19669L7.69406 2.24404L7.67678 2.2682L7.76067 2.32445L7.71806 2.39143L7.63059 2.33278L7.60355 2.37059L7.54074 2.32325L7.56525 2.28897L7.34485 2.14119ZM7.22796 2.38119L7.27057 2.31421L7.49456 2.46439L7.51436 2.43669L7.57717 2.48404L7.55989 2.5082L7.64379 2.56445L7.60118 2.63143L7.51371 2.57278L7.48667 2.61059L7.42386 2.56325L7.44837 2.52897L7.22796 2.38119ZM6.95524 2.46119L6.99784 2.39421L7.22183 2.54439L7.24164 2.51669L7.30445 2.56404L7.28717 2.5882L7.37106 2.64445L7.32845 2.71143L7.24098 2.65278L7.21394 2.69059L7.15113 2.64325L7.17564 2.60897L6.95524 2.46119ZM7.38381 1.9222L7.42641 1.98918L7.6504 1.839L7.67021 1.8667L7.73302 1.81935L7.71574 1.79519L7.79963 1.73894L7.75702 1.67196L7.66955 1.73061L7.64251 1.6928L7.5797 1.74014L7.60421 1.77442L7.38381 1.9222ZM7.26692 1.6822L7.30953 1.74918L7.53352 1.599L7.55332 1.6267L7.61613 1.57935L7.59886 1.55519L7.68275 1.49894L7.64014 1.43196L7.55267 1.49061L7.52563 1.4528L7.46282 1.50014L7.48733 1.53442L7.26692 1.6822ZM6.9942 1.6022L7.0368 1.66918L7.26079 1.519L7.2806 1.5467L7.34341 1.49935L7.32613 1.47519L7.41002 1.41894L7.36741 1.35196L7.27994 1.41061L7.2529 1.3728L7.19009 1.42014L7.2146 1.45442L6.9942 1.6022Z" fill="#C51918"/>
<path fill-rule="evenodd" clip-rule="evenodd" d="M6.10379 1.57647L6.54506 1.34247V1.98247H7.63597L7.37603 2.16968V2.41462H6.96461L6.52334 2.64863V2.00863H5.43243L5.69238 1.82141V1.57647H6.10379Z" fill="#C51918"/>
<path fill-rule="evenodd" clip-rule="evenodd" d="M6.96463 1.57647L6.52336 1.34247V1.98247H5.43245L5.69239 2.16968V2.41462H6.10381L6.54508 2.64863V2.00863H7.63599L7.37604 1.82141V1.57647H6.96463Z" fill="#29AE66"/>
<path fill-rule="evenodd" clip-rule="evenodd" d="M5.8894 1.74236L5.96141 1.60046L6.14458 1.69843L6.19504 1.62335L6.32331 1.71423L6.28386 1.77293L6.82601 2.0629L6.85943 2.01317L6.9877 2.10405L6.96529 2.1374L7.02385 2.16872L6.95185 2.31062L6.87609 2.2701L6.8146 2.36159L6.68633 2.27072L6.73681 2.19561L6.19466 1.90563L6.15021 1.97177L6.02194 1.8809L6.05538 1.83114L5.8894 1.74236Z" fill="#29AE66"/>
<path fill-rule="evenodd" clip-rule="evenodd" d="M7.04481 1.70338L6.96308 1.56685L6.78719 1.67736L6.73162 1.60598L6.61 1.70558L6.65345 1.76139L6.13285 2.08847L6.09604 2.0412L5.97442 2.1408L5.99911 2.1725L5.94287 2.20783L6.0246 2.34436L6.09734 2.29866L6.16507 2.38564L6.28668 2.28604L6.23108 2.21463L6.75169 1.88755L6.80065 1.95042L6.92226 1.85082L6.88543 1.80352L7.04481 1.70338Z" fill="#C51918"/>
</g>
<path fill-rule="evenodd" clip-rule="evenodd" d="M12.5367 2C12.5367 2 13.7018 4.7608 12.6667 5.93326C11.6315 7.10572 9 6.87967 9 6.87967C9 6.87967 12.3782 8.4055 13.8501 6.30453C15.3219 4.20356 12.5367 2 12.5367 2Z" fill="#F7FCFF"/>
<path fill-rule="evenodd" clip-rule="evenodd" d="M10.4222 3.62424L10.1139 3.84122L10.2226 3.47761L9.92336 3.2481L10.2988 3.24036L10.4222 2.88153L10.5455 3.24036L10.921 3.2481L10.6217 3.47761L10.7304 3.84122L10.4222 3.62424ZM10.4818 4.62691L10.1735 4.84389L10.2823 4.48028L9.98299 4.25077L10.3585 4.24303L10.4818 3.8842L10.6051 4.24303L10.9806 4.25077L10.6813 4.48028L10.7901 4.84389L10.4818 4.62691ZM9.23636 4.92133L9.54463 4.70435L9.85291 4.92133L9.74415 4.55772L10.0434 4.32821L9.66794 4.32047L9.54463 3.96164L9.42132 4.32047L9.04584 4.32821L9.34512 4.55772L9.23636 4.92133ZM10.4818 5.67864L10.1735 5.89563L10.2823 5.53201L9.98299 5.3025L10.3585 5.29476L10.4818 4.93593L10.6051 5.29476L10.9806 5.3025L10.6813 5.53201L10.7901 5.89563L10.4818 5.67864ZM11.1923 4.53745L11.5006 4.32047L11.8089 4.53745L11.7001 4.17384L11.9994 3.94433L11.6239 3.93659L11.5006 3.57776L11.3773 3.93659L11.0018 3.94433L11.3011 4.17384L11.1923 4.53745Z" fill="#F7FCFF"/>
</g>
</g>
<rect x="3" y="1" width="16" height="12" fill="url(#paint0_linear)" style="mix-blend-mode:overlay"/>
</g>
<defs>
<filter id="filter0_d" x="0" y="0" width="22" height="18" filterUnits="userSpaceOnUse" color-interpolation-filters="sRGB">
<feFlood flood-opacity="0" result="BackgroundImageFix"/>
<feColorMatrix in="SourceAlpha" type="matrix" values="0 0 0 0 0 0 0 0 0 0 0 0 0 0 0 0 0 0 127 0" result="hardAlpha"/>
<feOffset dy="2"/>
<feGaussianBlur stdDeviation="1.5"/>
<feColorMatrix type="matrix" values="0 0 0 0 0 0 0 0 0 0 0 0 0 0 0 0 0 0 0.1 0"/>
<feBlend mode="normal" in2="BackgroundImageFix" result="effect1_dropShadow"/>
<feBlend mode="normal" in="SourceGraphic" in2="effect1_dropShadow" result="shape"/>
</filter>
<linearGradient id="paint0_linear" x1="11" y1="1" x2="11" y2="13" gradientUnits="userSpaceOnUse">
<stop stop-color="white" stop-opacity="0.7"/>
<stop offset="1" stop-opacity="0.3"/>
</linearGradient>
</defs>
</svg>
