<svg width="22" height="18" viewBox="0 0 22 18" fill="none" xmlns="http://www.w3.org/2000/svg">
<g filter="url(#filter0_d)">
<mask id="mask0" style="mask-type:alpha" maskUnits="userSpaceOnUse" x="3" y="1" width="16" height="12">
<rect x="3" y="1" width="16" height="12" fill="white"/>
</mask>
<g mask="url(#mask0)">
<path fill-rule="evenodd" clip-rule="evenodd" d="M3 1V13H19V1H3Z" fill="#00B4FF"/>
<mask id="mask1" style="mask-type:alpha" maskUnits="userSpaceOnUse" x="3" y="1" width="16" height="12">
<path fill-rule="evenodd" clip-rule="evenodd" d="M3 1V13H19V1H3Z" fill="white"/>
</mask>
<g mask="url(#mask1)">
<rect x="3" y="1" width="9" height="7" fill="#2E42A5"/>
<mask id="mask2" style="mask-type:alpha" maskUnits="userSpaceOnUse" x="3" y="1" width="9" height="7">
<rect x="3" y="1" width="9" height="7" fill="white"/>
</mask>
<g mask="url(#mask2)">
<path d="M1.99786 7.4999L3.97834 8.3685L12.0449 1.94436L13.0896 0.653595L10.9718 0.363283L7.68159 3.13163L5.03334 4.99685L1.99786 7.4999Z" fill="#F7FCFF"/>
<path d="M2.26898 8.10845L3.27794 8.61252L12.7145 0.533661H11.2978L2.26898 8.10845Z" fill="#F50100"/>
<path d="M13.0021 7.4999L11.0217 8.3685L2.95506 1.94436L1.91041 0.653595L4.02824 0.363283L7.31841 3.13163L9.96666 4.99685L13.0021 7.4999Z" fill="#F7FCFF"/>
<path d="M12.9346 7.93667L11.9256 8.44073L7.90745 4.98176L6.71615 4.59529L1.8099 0.658027H3.2266L8.13009 4.50184L9.43256 4.96525L12.9346 7.93667Z" fill="#F50100"/>
<mask id="path-11-outside-1" maskUnits="userSpaceOnUse" x="2" y="0" width="11" height="9" fill="black">
<rect fill="white" x="2" width="11" height="9"/>
<path fill-rule="evenodd" clip-rule="evenodd" d="M7.99226 1H6.99226V4H3V5H6.99226V8H7.99226V5H12V4H7.99226V1Z"/>
</mask>
<path fill-rule="evenodd" clip-rule="evenodd" d="M7.99226 1H6.99226V4H3V5H6.99226V8H7.99226V5H12V4H7.99226V1Z" fill="#F50100"/>
<path d="M6.99226 1V0.25H6.24226V1H6.99226ZM7.99226 1H8.74226V0.25H7.99226V1ZM6.99226 4V4.75H7.74226V4H6.99226ZM3 4V3.25H2.25V4H3ZM3 5H2.25V5.75H3V5ZM6.99226 5H7.74226V4.25H6.99226V5ZM6.99226 8H6.24226V8.75H6.99226V8ZM7.99226 8V8.75H8.74226V8H7.99226ZM7.99226 5V4.25H7.24226V5H7.99226ZM12 5V5.75H12.75V5H12ZM12 4H12.75V3.25H12V4ZM7.99226 4H7.24226V4.75H7.99226V4ZM6.99226 1.75H7.99226V0.25H6.99226V1.75ZM7.74226 4V1H6.24226V4H7.74226ZM3 4.75H6.99226V3.25H3V4.75ZM3.75 5V4H2.25V5H3.75ZM6.99226 4.25H3V5.75H6.99226V4.25ZM7.74226 8V5H6.24226V8H7.74226ZM7.99226 7.25H6.99226V8.75H7.99226V7.25ZM7.24226 5V8H8.74226V5H7.24226ZM12 4.25H7.99226V5.75H12V4.25ZM11.25 4V5H12.75V4H11.25ZM7.99226 4.75H12V3.25H7.99226V4.75ZM7.24226 1V4H8.74226V1H7.24226Z" fill="#F7FCFF" mask="url(#path-11-outside-1)"/>
</g>
<path fill-rule="evenodd" clip-rule="evenodd" d="M16.4284 6.34243L16.732 5.77971L17.398 5.75981L16.8823 5.32911L17.0601 4.74781L16.6156 5.01493L16.0536 4.6741L16.108 5.31993L15.6044 5.62249L16.2581 5.7042L16.4284 6.34243ZM14.732 6.77971L14.4284 7.34243L14.2581 6.7042L13.6044 6.62249L14.108 6.31993L14.0536 5.6741L14.6156 6.01493L15.0601 5.74781L14.8823 6.32911L15.398 6.75981L14.732 6.77971ZM13.4284 8.34243L13.732 7.77971L14.398 7.75981L13.8823 7.32911L14.0601 6.74781L13.6156 7.01493L13.0536 6.6741L13.108 7.31993L12.6044 7.62249L13.2581 7.7042L13.4284 8.34243ZM11.4284 10.3424L11.732 9.77971L12.398 9.75981L11.8823 9.32911L12.0601 8.74781L11.6156 9.01493L11.0536 8.6741L11.108 9.31993L10.6044 9.62249L11.2581 9.7042L11.4284 10.3424ZM9.4871 11.8678L8.93704 12.1938L9.11978 11.559L8.60156 11.1523H9.18901L9.475 10.5707L9.78121 11.1523H10.2998L9.84805 11.559L10.0683 12.1938L9.4871 11.8678ZM11.732 11.7797L11.4284 12.3424L11.2581 11.7042L10.6044 11.6225L11.108 11.3199L11.0536 10.6741L11.6156 11.0149L12.0601 10.7478L11.8823 11.3291L12.398 11.7598L11.732 11.7797ZM13.732 10.7797L13.4284 11.3424L13.2581 10.7042L12.6044 10.6225L13.108 10.3199L13.0536 9.6741L13.6156 10.0149L14.0601 9.74781L13.8823 10.3291L14.398 10.7598L13.732 10.7797ZM15.732 9.77971L15.4284 10.3424L15.2581 9.7042L14.6044 9.62249L15.108 9.31993L15.0536 8.6741L15.6156 9.01493L16.0601 8.74781L15.8823 9.32911L16.398 9.75981L15.732 9.77971ZM16.4284 9.34243L16.732 8.77971L17.398 8.75981L16.8823 8.32911L17.0601 7.74781L16.6156 8.01493L16.0536 7.6741L16.108 8.31993L15.6044 8.62249L16.2581 8.7042L16.4284 9.34243Z" fill="#FFD018"/>
</g>
</g>
<rect x="3" y="1" width="16" height="12" fill="url(#paint0_linear)" style="mix-blend-mode:overlay"/>
</g>
<defs>
<filter id="filter0_d" x="0" y="0" width="22" height="18" filterUnits="userSpaceOnUse" color-interpolation-filters="sRGB">
<feFlood flood-opacity="0" result="BackgroundImageFix"/>
<feColorMatrix in="SourceAlpha" type="matrix" values="0 0 0 0 0 0 0 0 0 0 0 0 0 0 0 0 0 0 127 0" result="hardAlpha"/>
<feOffset dy="2"/>
<feGaussianBlur stdDeviation="1.5"/>
<feColorMatrix type="matrix" values="0 0 0 0 0 0 0 0 0 0 0 0 0 0 0 0 0 0 0.1 0"/>
<feBlend mode="normal" in2="BackgroundImageFix" result="effect1_dropShadow"/>
<feBlend mode="normal" in="SourceGraphic" in2="effect1_dropShadow" result="shape"/>
</filter>
<linearGradient id="paint0_linear" x1="11" y1="1" x2="11" y2="13" gradientUnits="userSpaceOnUse">
<stop stop-color="white" stop-opacity="0.7"/>
<stop offset="1" stop-opacity="0.3"/>
</linearGradient>
</defs>
</svg>
