<svg width="22" height="18" viewBox="0 0 22 18" fill="none" xmlns="http://www.w3.org/2000/svg">
<g filter="url(#filter0_d)">
<mask id="mask0" style="mask-type:alpha" maskUnits="userSpaceOnUse" x="3" y="1" width="16" height="12">
<rect x="3" y="1" width="16" height="12" rx="-1" fill="white"/>
</mask>
<g mask="url(#mask0)">
<path fill-rule="evenodd" clip-rule="evenodd" d="M3 1V13H19V1H3Z" fill="#FECA00"/>
<mask id="mask1" style="mask-type:alpha" maskUnits="userSpaceOnUse" x="3" y="1" width="16" height="12">
<path fill-rule="evenodd" clip-rule="evenodd" d="M3 1V13H19V1H3Z" fill="white"/>
</mask>
<g mask="url(#mask1)">
<rect x="3" y="1" width="16" height="2" fill="#272727"/>
<rect x="3" y="5" width="16" height="2" fill="#D74800"/>
<rect x="3" y="7" width="16" height="2" fill="#272727"/>
<rect x="3" y="11" width="16" height="2" fill="#D74800"/>
<path fill-rule="evenodd" clip-rule="evenodd" d="M11 10C12.6569 10 14 8.65685 14 7C14 5.34315 12.6569 4 11 4C9.34315 4 8 5.34315 8 7C8 8.65685 9.34315 10 11 10Z" fill="#F7FCFF"/>
<path fill-rule="evenodd" clip-rule="evenodd" d="M9.83981 5.16432L9.31082 5.33789L9.83981 5.38318C9.83981 5.38318 9.92533 5.59236 9.83981 5.75565C9.8181 5.79711 9.7621 5.85021 9.69062 5.918C9.48051 6.11725 9.13666 6.44333 9.13666 6.97312C9.13666 7.68315 10.5069 8.00509 10.5069 8.00509V8.34243C10.5069 8.34243 10.666 8.44122 9.75857 8.44122C8.97165 8.44122 9.02087 8.73994 9.04781 8.90347C9.05194 8.92851 9.05554 8.95038 9.05554 8.96752C9.05554 9.09663 9.43376 8.83841 9.61081 8.58132C9.70401 8.44598 10.0943 8.45313 10.4949 8.49025C10.5265 8.49318 10.8185 9.11185 10.565 9.43145C10.4585 9.56571 10.0906 9.5832 9.86081 9.59413C9.74362 9.5997 9.66233 9.60357 9.66987 9.62034C9.67552 9.63292 9.74483 9.62878 9.84557 9.62277C9.9713 9.61526 10.146 9.60484 10.307 9.62034C10.3314 9.62269 10.2367 9.70493 10.1409 9.78809C10.0422 9.87374 9.9424 9.96036 9.97052 9.96168C10.0021 9.96317 10.1869 9.86081 10.3548 9.76781C10.4937 9.69087 10.621 9.62034 10.6404 9.62034C10.7671 9.62034 10.8815 9.63597 10.9818 9.64968C11.1495 9.67259 11.2779 9.69014 11.3588 9.62034C11.3837 9.59885 11.2393 9.56427 11.0922 9.52901C10.9405 9.49268 10.7859 9.45564 10.8103 9.43145C10.9497 9.29313 10.8914 9.00322 10.8456 8.77489C10.825 8.67246 10.8069 8.58241 10.8103 8.52401C10.8222 8.31662 11.0416 8.42541 11.214 8.5109C11.2895 8.54834 11.356 8.58132 11.3921 8.58132C11.7186 8.58132 11.3132 8.16837 11.0907 7.94171C11.0712 7.92185 11.0531 7.90341 11.037 7.88681C10.9238 7.76997 11.0032 7.78567 11.1826 7.82115C11.3195 7.84822 11.5147 7.88681 11.727 7.88681C12.2175 7.88681 12.5755 7.72747 12.4511 7.29601C12.3691 7.01135 11.9198 6.9145 11.4505 6.8133C11.2085 6.76111 10.961 6.70777 10.7559 6.62691C10.2512 6.42797 10.2769 6.13792 10.2987 5.89267C10.3029 5.84497 10.307 5.79896 10.307 5.75565C10.307 5.48965 10.7559 5.16432 10.7559 5.16432C10.7559 5.16432 10.551 4.82104 10.2113 4.82104C9.87155 4.82104 9.83981 5.16432 9.83981 5.16432ZM10.7639 8.28824V8.03736C10.7639 8.03736 10.9737 8.03044 11.0473 8.20692C11.1208 8.3834 10.7639 8.28824 10.7639 8.28824Z" fill="#272727"/>
<path fill-rule="evenodd" clip-rule="evenodd" d="M9.53845 4.35564L10.0452 4.95661L10.3077 4.89488L10.1818 4.28821L9.53845 4.35564Z" fill="#D74800"/>
<path fill-rule="evenodd" clip-rule="evenodd" d="M10.1964 4.21032L10.2291 5.11385L10.6618 5.00737L10.8461 4.41561L10.1964 4.21032Z" fill="#FFD018"/>
<path fill-rule="evenodd" clip-rule="evenodd" d="M9.78849 5.71946C9.88408 5.71946 9.96157 5.64391 9.96157 5.55071C9.96157 5.45751 9.88408 5.38196 9.78849 5.38196C9.69291 5.38196 9.61542 5.45751 9.61542 5.55071C9.61542 5.64391 9.69291 5.71946 9.78849 5.71946Z" fill="#D74800"/>
<path fill-rule="evenodd" clip-rule="evenodd" d="M10.8882 4.3796L10.3844 4.98304L10.4908 5.23078L11.0664 5.00148L10.8882 4.3796Z" fill="#D74800"/>
<path fill-rule="evenodd" clip-rule="evenodd" d="M12.0593 8.94654C12.0593 8.94654 12.9456 8.55065 12.9456 7.997C12.9456 7.44335 11.5066 6.84027 11.5066 6.84027C11.5066 6.84027 10.6601 7.034 11.0416 7.29325C11.4232 7.55251 11.9343 7.6521 11.9343 7.997C11.9343 8.3419 12.0744 8.67077 11.7905 8.67077C11.5066 8.67077 12.0593 8.94654 12.0593 8.94654Z" fill="#D74800"/>
<path fill-rule="evenodd" clip-rule="evenodd" d="M10.7808 6.73907C10.7808 6.73907 10.4674 6.79413 10.4822 6.84504C10.5234 6.98578 10.952 7.16909 11.1387 7.29601C11.5203 7.55526 11.882 7.52614 12.1511 7.35742C12.4202 7.1887 10.7808 6.73907 10.7808 6.73907Z" fill="#FFFDFF"/>
</g>
</g>
<rect x="3" y="1" width="16" height="12" fill="url(#paint0_linear)" style="mix-blend-mode:overlay"/>
</g>
<defs>
<filter id="filter0_d" x="0" y="0" width="22" height="18" filterUnits="userSpaceOnUse" color-interpolation-filters="sRGB">
<feFlood flood-opacity="0" result="BackgroundImageFix"/>
<feColorMatrix in="SourceAlpha" type="matrix" values="0 0 0 0 0 0 0 0 0 0 0 0 0 0 0 0 0 0 127 0" result="hardAlpha"/>
<feOffset dy="2"/>
<feGaussianBlur stdDeviation="1.5"/>
<feColorMatrix type="matrix" values="0 0 0 0 0 0 0 0 0 0 0 0 0 0 0 0 0 0 0.1 0"/>
<feBlend mode="normal" in2="BackgroundImageFix" result="effect1_dropShadow"/>
<feBlend mode="normal" in="SourceGraphic" in2="effect1_dropShadow" result="shape"/>
</filter>
<linearGradient id="paint0_linear" x1="11" y1="1" x2="11" y2="13" gradientUnits="userSpaceOnUse">
<stop stop-color="white" stop-opacity="0.7"/>
<stop offset="1" stop-opacity="0.3"/>
</linearGradient>
</defs>
</svg>
