<svg width="22" height="18" viewBox="0 0 22 18" fill="none" xmlns="http://www.w3.org/2000/svg">
<g filter="url(#filter0_d)">
<mask id="mask0" style="mask-type:alpha" maskUnits="userSpaceOnUse" x="3" y="1" width="16" height="12">
<rect x="3" y="1" width="16" height="12" fill="white"/>
</mask>
<g mask="url(#mask0)">
<path fill-rule="evenodd" clip-rule="evenodd" d="M3 1H19V13H3V1Z" fill="#2E42A5"/>
</g>
<path fill-rule="evenodd" clip-rule="evenodd" d="M5.06675 4.40692C4.89518 4.28777 5.08814 4.0557 5.26537 4.16805C5.38159 4.24173 5.60575 4.37248 5.92599 4.54129C6.46133 4.82348 7.06921 5.10584 7.73774 5.36941C9.74863 6.1622 11.8654 6.61907 13.9853 6.56921C14.2695 6.57025 14.6814 6.53685 15.0858 6.4365C15.1314 6.42517 15.176 6.41315 15.2193 6.40041C15.1556 6.25951 15.0574 6.10395 14.9224 5.93369C14.8146 5.7977 15.0002 5.63039 15.1534 5.72548C15.2699 5.79777 15.4394 5.92361 15.6095 6.09115C15.6439 6.12499 15.6769 6.15935 15.7083 6.19419C16.2491 5.8665 16.2842 5.34297 15.6149 4.49853C15.5071 4.36253 15.6927 4.19523 15.8459 4.29032C15.8833 4.31355 15.946 4.35575 16.0257 4.41489C16.1577 4.51286 16.2897 4.62357 16.4132 4.74525C16.9738 5.29727 17.187 5.88412 16.812 6.44316C16.7762 6.49643 16.7353 6.54878 16.6925 6.59617C16.6179 6.68498 16.4692 6.80909 16.2366 6.93035C16.1868 6.95629 16.1348 6.98103 16.0806 7.00443C16.08 7.21364 15.999 7.41527 15.8333 7.59928C15.7715 7.67287 15.6501 7.77415 15.4612 7.87259C15.3254 7.9434 15.1716 8.00213 14.9992 8.04535C14.9948 8.21587 14.9268 8.38028 14.7919 8.52996C14.7393 8.59265 14.6375 8.67758 14.48 8.75967C14.2582 8.87527 13.9854 8.94991 13.6672 8.96647C13.6451 9.05044 13.6007 9.13071 13.5343 9.20435C13.495 9.25115 13.4218 9.31223 13.3101 9.37047C13.1369 9.46074 12.9202 9.51506 12.6696 9.51712C12.6579 9.51789 12.6579 9.51789 12.6124 9.5198C12.2784 9.5316 11.8316 9.50915 11.312 9.42474C10.5256 9.29702 9.74819 9.0515 9.02069 8.65993C8.80646 8.54463 8.59883 8.41765 8.39851 8.27854C8.22693 8.15939 8.4199 7.92732 8.59712 8.03967C8.64503 8.07004 8.73926 8.125 8.87465 8.19637C9.10189 8.31616 9.36014 8.43612 9.64419 8.54811C10.4974 8.88452 11.3948 9.0782 12.2945 9.0571C12.4084 9.05751 12.5779 9.04377 12.7417 9.0031C12.7812 8.99331 12.8178 8.98245 12.8513 8.97058C11.0394 8.90659 9.0164 8.38708 7.20051 7.12609C7.02894 7.00695 7.2219 6.77487 7.39913 6.88722C7.47289 6.93398 7.61627 7.01762 7.82161 7.12586C8.16542 7.30709 8.55596 7.4885 8.98549 7.65785C10.2768 8.16693 11.6355 8.4602 12.9968 8.42822C13.0008 8.42823 13.0049 8.42823 13.0091 8.42821C12.9835 8.38771 12.9529 8.34498 12.9173 8.30003C12.8565 8.22336 12.889 8.13675 12.9564 8.0928C12.62 8.06417 12.2565 8.02024 11.8709 7.95761C10.436 7.72453 9.01767 7.27657 7.691 6.56248C7.3006 6.35234 6.92225 6.12094 6.55722 5.86745C6.38564 5.74831 6.57861 5.51624 6.75583 5.62859C6.84732 5.68659 7.02444 5.7899 7.27776 5.92343C7.70155 6.14682 8.18285 6.37039 8.71217 6.57907C10.3039 7.20663 11.9792 7.56821 13.6573 7.52877C13.7989 7.52928 13.9947 7.51787 14.2083 7.48575C14.1703 7.41284 14.1212 7.33518 14.0608 7.25278C11.1403 7.1883 7.92187 6.38953 5.06675 4.40692ZM13.4085 8.30019C13.4369 8.32811 13.4636 8.35665 13.4884 8.3858C13.7868 8.33739 14.0216 8.25331 14.1622 8.13343C13.8746 8.14086 13.5434 8.13459 13.176 8.10963C13.2408 8.15264 13.3244 8.21738 13.4085 8.30019ZM14.644 7.54736C14.9674 7.45706 15.2775 7.30422 15.4094 7.04551C15.1308 7.19967 14.8044 7.22511 14.2765 7.22511C14.3552 7.27785 14.4752 7.32444 14.644 7.54736ZM6.67002 3.96877C6.49844 3.84962 6.69141 3.61755 6.86863 3.7299C6.95064 3.78189 7.10972 3.87469 7.33738 3.9947C7.71841 4.19555 8.15118 4.39658 8.62715 4.58423C10.0582 5.14845 11.5643 5.47351 13.0729 5.43807C13.2718 5.43879 13.5623 5.41523 13.8463 5.34476C14.5964 5.15857 14.8007 4.78527 14.1983 4.02529C14.0906 3.88929 14.2762 3.72198 14.4293 3.81707C14.5351 3.88275 14.6887 3.99672 14.8428 4.14851C15.2559 4.55532 15.4149 4.99285 15.1333 5.41246C15.1066 5.45214 15.0761 5.49108 15.0453 5.52525C14.9884 5.59301 14.8774 5.68556 14.7054 5.77526C14.4341 5.91671 14.0927 6.00227 13.6887 6.00576C13.6712 6.00692 13.6415 6.00846 13.5976 6.01001C13.0505 6.02935 12.3162 5.99243 11.4615 5.85359C10.1677 5.64341 8.8887 5.23946 7.69236 4.59549C7.34034 4.406 6.99918 4.19734 6.67002 3.96877ZM11.2986 10.5056C11.2614 10.7112 10.9571 10.7333 10.5797 10.6658C10.2081 10.5992 9.93683 10.4756 9.97239 10.2795C10.0095 10.0739 10.3138 10.0517 10.6913 10.1193C11.0629 10.1859 11.3342 10.3094 11.2986 10.5056Z" fill="#F7FCFF"/>
<rect x="3" y="1" width="16" height="12" fill="url(#paint0_linear)" style="mix-blend-mode:overlay"/>
</g>
<defs>
<filter id="filter0_d" x="0" y="0" width="22" height="18" filterUnits="userSpaceOnUse" color-interpolation-filters="sRGB">
<feFlood flood-opacity="0" result="BackgroundImageFix"/>
<feColorMatrix in="SourceAlpha" type="matrix" values="0 0 0 0 0 0 0 0 0 0 0 0 0 0 0 0 0 0 127 0" result="hardAlpha"/>
<feOffset dy="2"/>
<feGaussianBlur stdDeviation="1.5"/>
<feColorMatrix type="matrix" values="0 0 0 0 0 0 0 0 0 0 0 0 0 0 0 0 0 0 0.1 0"/>
<feBlend mode="normal" in2="BackgroundImageFix" result="effect1_dropShadow"/>
<feBlend mode="normal" in="SourceGraphic" in2="effect1_dropShadow" result="shape"/>
</filter>
<linearGradient id="paint0_linear" x1="11" y1="1" x2="11" y2="13" gradientUnits="userSpaceOnUse">
<stop stop-color="white" stop-opacity="0.7"/>
<stop offset="1" stop-opacity="0.3"/>
</linearGradient>
</defs>
</svg>
