<svg width="22" height="18" viewBox="0 0 22 18" fill="none" xmlns="http://www.w3.org/2000/svg">
<g filter="url(#filter0_d)">
<mask id="mask0" style="mask-type:alpha" maskUnits="userSpaceOnUse" x="3" y="1" width="16" height="12">
<rect x="3" y="1" width="16" height="12" fill="white"/>
</mask>
<g mask="url(#mask0)">
<path fill-rule="evenodd" clip-rule="evenodd" d="M3 1H19V13H3V1Z" fill="#E31D1C"/>
<path fill-rule="evenodd" clip-rule="evenodd" d="M3 2V3H19V2H3ZM3 4V5H19V4H3ZM3 7V6H19V7H3ZM3 8V9H19V8H3ZM3 11V10H19V11H3ZM3 13V12H19V13H3Z" fill="#F7FCFF"/>
<rect x="3" y="1" width="9" height="7" fill="#2E42A5"/>
<path fill-rule="evenodd" clip-rule="evenodd" d="M4.03999 3.17378L4.56991 2.80465L4.98097 3.10058H4.74823L5.2189 3.51688L5.05993 4.10058H4.81094L4.56917 3.56448L4.36299 4.10058H3.74823L4.2189 4.51688L4.03999 5.17378L4.56991 4.80465L4.98097 5.10058H4.74823L5.2189 5.51688L5.05993 6.10058H4.81094L4.56917 5.56448L4.36299 6.10058H3.74823L4.2189 6.51688L4.03999 7.17378L4.56991 6.80465L5.08265 7.17378L4.92323 6.51688L5.335 6.10058H5.14507L5.56991 5.80465L5.98097 6.10058H5.74823L6.2189 6.51688L6.03999 7.17378L6.56991 6.80465L7.08265 7.17378L6.92323 6.51688L7.335 6.10058H7.14507L7.56991 5.80465L7.98097 6.10058H7.74823L8.2189 6.51688L8.03999 7.17378L8.56991 6.80465L9.08265 7.17378L8.92323 6.51688L9.335 6.10058H9.14507L9.56991 5.80465L9.98097 6.10058H9.74823L10.2189 6.51688L10.04 7.17378L10.5699 6.80465L11.0826 7.17378L10.9232 6.51688L11.335 6.10058H10.8109L10.5692 5.56448L10.363 6.10058H10.0649L9.92323 5.51688L10.335 5.10058H10.1451L10.5699 4.80465L11.0826 5.17378L10.9232 4.51688L11.335 4.10058H10.8109L10.5692 3.56448L10.363 4.10058H10.0649L9.92323 3.51688L10.335 3.10058H10.1451L10.5699 2.80465L11.0826 3.17378L10.9232 2.51688L11.335 2.10058H10.8109L10.5692 1.56448L10.363 2.10058H9.74823L10.2189 2.51688L10.0599 3.10058H9.81094L9.56917 2.56448L9.36299 3.10058H9.06488L8.92323 2.51688L9.335 2.10058H8.81094L8.56917 1.56448L8.36299 2.10058H7.74823L8.2189 2.51688L8.05993 3.10058H7.81094L7.56917 2.56448L7.36299 3.10058H7.06488L6.92323 2.51688L7.335 2.10058H6.81094L6.56917 1.56448L6.36299 2.10058H5.74823L6.2189 2.51688L6.05993 3.10058H5.81094L5.56917 2.56448L5.36299 3.10058H5.06488L4.92323 2.51688L5.335 2.10058H4.81094L4.56917 1.56448L4.36299 2.10058H3.74823L4.2189 2.51688L4.03999 3.17378ZM10.0599 5.10058L10.2189 4.51688L9.74823 4.10058H9.98097L9.56991 3.80465L9.14507 4.10058H9.335L8.92323 4.51688L9.06488 5.10058H9.36299L9.56917 4.56448L9.81094 5.10058H10.0599ZM8.98097 5.10058L8.56991 4.80465L8.14507 5.10058H8.335L7.92323 5.51688L8.06488 6.10058H8.36299L8.56917 5.56448L8.81094 6.10058H9.05993L9.2189 5.51688L8.74823 5.10058H8.98097ZM7.2189 5.51688L7.05993 6.10058H6.81094L6.56917 5.56448L6.36299 6.10058H6.06488L5.92323 5.51688L6.335 5.10058H6.14507L6.56991 4.80465L6.98097 5.10058H6.74823L7.2189 5.51688ZM7.36299 5.10058H7.06488L6.92323 4.51688L7.335 4.10058H7.14507L7.56991 3.80465L7.98097 4.10058H7.74823L8.2189 4.51688L8.05993 5.10058H7.81094L7.56917 4.56448L7.36299 5.10058ZM6.05993 5.10058L6.2189 4.51688L5.74823 4.10058H5.98097L5.56991 3.80465L5.14507 4.10058H5.335L4.92323 4.51688L5.06488 5.10058H5.36299L5.56917 4.56448L5.81094 5.10058H6.05993ZM9.2189 3.51688L9.05993 4.10058H8.81094L8.56917 3.56448L8.36299 4.10058H8.06488L7.92323 3.51688L8.335 3.10058H8.14507L8.56991 2.80465L8.98097 3.10058H8.74823L9.2189 3.51688ZM6.98097 3.10058L6.56991 2.80465L6.14507 3.10058H6.335L5.92323 3.51688L6.06488 4.10058H6.36299L6.56917 3.56448L6.81094 4.10058H7.05993L7.2189 3.51688L6.74823 3.10058H6.98097Z" fill="#F7FCFF"/>
</g>
<rect x="3" y="1" width="16" height="12" fill="url(#paint0_linear)" style="mix-blend-mode:overlay"/>
</g>
<defs>
<filter id="filter0_d" x="0" y="0" width="22" height="18" filterUnits="userSpaceOnUse" color-interpolation-filters="sRGB">
<feFlood flood-opacity="0" result="BackgroundImageFix"/>
<feColorMatrix in="SourceAlpha" type="matrix" values="0 0 0 0 0 0 0 0 0 0 0 0 0 0 0 0 0 0 127 0" result="hardAlpha"/>
<feOffset dy="2"/>
<feGaussianBlur stdDeviation="1.5"/>
<feColorMatrix type="matrix" values="0 0 0 0 0 0 0 0 0 0 0 0 0 0 0 0 0 0 0.1 0"/>
<feBlend mode="normal" in2="BackgroundImageFix" result="effect1_dropShadow"/>
<feBlend mode="normal" in="SourceGraphic" in2="effect1_dropShadow" result="shape"/>
</filter>
<linearGradient id="paint0_linear" x1="11" y1="1" x2="11" y2="13" gradientUnits="userSpaceOnUse">
<stop stop-color="white" stop-opacity="0.7"/>
<stop offset="1" stop-opacity="0.3"/>
</linearGradient>
</defs>
</svg>
