<svg width="22" height="18" viewBox="0 0 22 18" fill="none" xmlns="http://www.w3.org/2000/svg">
<g filter="url(#filter0_d)">
<mask id="mask0" style="mask-type:alpha" maskUnits="userSpaceOnUse" x="3" y="1" width="16" height="12">
<rect x="3" y="1" width="16" height="12" fill="white"/>
</mask>
<g mask="url(#mask0)">
<path fill-rule="evenodd" clip-rule="evenodd" d="M3 1V13H19V1H3Z" fill="#F7FCFF"/>
<mask id="mask1" style="mask-type:alpha" maskUnits="userSpaceOnUse" x="3" y="1" width="16" height="12">
<path fill-rule="evenodd" clip-rule="evenodd" d="M3 1V13H19V1H3Z" fill="white"/>
</mask>
<g mask="url(#mask1)">
<rect x="3" y="3" width="16" height="1" fill="#2E42A5"/>
<rect x="3" y="5" width="16" height="1" fill="#2E42A5"/>
<rect x="3" y="7" width="16" height="1" fill="#2E42A5"/>
<rect x="3" y="9" width="16" height="1" fill="#2E42A5"/>
<rect x="3" y="11" width="16" height="1" fill="#2E42A5"/>
<rect x="3" y="1" width="8" height="7" fill="#F7FCFF"/>
<path fill-rule="evenodd" clip-rule="evenodd" d="M7.61377 6.51857C7.61377 6.51857 7.10283 7.57793 6.65375 7.79512C6.84759 7.30924 6.91894 6.31787 6.91894 6.31787C6.91894 6.31787 5.75298 6.78014 5.34374 6.69589C5.83583 6.35202 6.51888 5.71511 6.51888 5.71511C6.51888 5.71511 5.00976 5.22175 5.04679 5.01177C5.72802 5.13397 6.66488 5.00076 6.66488 5.00076C6.66488 5.00076 5.60618 3.73114 5.71355 3.63673C5.87492 3.79358 7.1437 4.45634 7.1437 4.45634C7.1437 4.45634 7.23575 3.32674 7.5088 2.94589C7.54156 3.21473 7.92481 4.43191 7.92481 4.43191C7.92481 4.43191 8.69525 3.66103 9.12287 3.66103C8.93504 3.89391 8.49029 4.91688 8.49029 4.91688C8.49029 4.91688 9.59869 4.89944 10.0201 5.10689C9.50961 5.17949 8.61533 5.62845 8.61533 5.62845C8.61533 5.62845 9.78006 6.51196 9.67387 6.69589C9.04852 6.38998 8.32555 6.28753 8.32555 6.28753C8.32555 6.28753 8.52539 7.51706 8.36385 7.79512C8.20631 7.38582 7.61377 6.51857 7.61377 6.51857Z" fill="#FFD018" stroke="#F19900" stroke-opacity="0.98" stroke-width="0.25"/>
<path fill-rule="evenodd" clip-rule="evenodd" d="M7.54675 5.94589C7.8229 5.94589 8.04675 5.72203 8.04675 5.44589C8.04675 5.16975 7.8229 4.94589 7.54675 4.94589C7.27061 4.94589 7.04675 5.16975 7.04675 5.44589C7.04675 5.72203 7.27061 5.94589 7.54675 5.94589Z" fill="#FFD018" stroke="#F19900" stroke-opacity="0.98" stroke-width="0.25"/>
</g>
</g>
<rect x="3" y="1" width="16" height="12" fill="url(#paint0_linear)" style="mix-blend-mode:overlay"/>
</g>
<defs>
<filter id="filter0_d" x="0" y="0" width="22" height="18" filterUnits="userSpaceOnUse" color-interpolation-filters="sRGB">
<feFlood flood-opacity="0" result="BackgroundImageFix"/>
<feColorMatrix in="SourceAlpha" type="matrix" values="0 0 0 0 0 0 0 0 0 0 0 0 0 0 0 0 0 0 127 0" result="hardAlpha"/>
<feOffset dy="2"/>
<feGaussianBlur stdDeviation="1.5"/>
<feColorMatrix type="matrix" values="0 0 0 0 0 0 0 0 0 0 0 0 0 0 0 0 0 0 0.1 0"/>
<feBlend mode="normal" in2="BackgroundImageFix" result="effect1_dropShadow"/>
<feBlend mode="normal" in="SourceGraphic" in2="effect1_dropShadow" result="shape"/>
</filter>
<linearGradient id="paint0_linear" x1="11" y1="1" x2="11" y2="13" gradientUnits="userSpaceOnUse">
<stop stop-color="white" stop-opacity="0.7"/>
<stop offset="1" stop-opacity="0.3"/>
</linearGradient>
</defs>
</svg>
