<svg width="22" height="18" viewBox="0 0 22 18" fill="none" xmlns="http://www.w3.org/2000/svg">
<g filter="url(#filter0_d)">
<mask id="mask0" style="mask-type:alpha" maskUnits="userSpaceOnUse" x="3" y="1" width="16" height="12">
<rect x="3" y="1" width="16" height="12" fill="white"/>
</mask>
<g mask="url(#mask0)">
<path fill-rule="evenodd" clip-rule="evenodd" d="M3 9H19V13H3V9Z" fill="#14DC5A"/>
<path fill-rule="evenodd" clip-rule="evenodd" d="M3 1H19V6H3V1Z" fill="#0099B5"/>
<path d="M2 5.625H1.625V6V9V9.375H2H20H20.375V9V6V5.625H20H2Z" fill="#F7FCFF" stroke="#C51918" stroke-width="0.75"/>
<path fill-rule="evenodd" clip-rule="evenodd" d="M11.3637 2.20046L10.8723 2.4792L11.0127 1.91269L10.542 1.49639H11.1568L11.3629 0.960297L11.6047 1.49639H12.1288L11.717 1.91269L11.915 2.4792L11.3637 2.20046ZM8.84477 3.73764L9.33611 3.4589L9.88742 3.73764L9.68943 3.17113L10.1012 2.75483H9.57714L9.33537 2.21874L9.12919 2.75483H8.51443L8.9851 3.17113L8.84477 3.73764ZM7.48827 4.7766L6.99693 5.05534L7.13726 4.48883L6.66659 4.07253H7.28134L7.48753 3.53643L7.7293 4.07253H8.25336L7.84159 4.48883L8.03958 5.05534L7.48827 4.7766ZM9.36441 4.77877L8.87306 5.05751L9.01339 4.491L8.54272 4.0747H9.15748L9.36367 3.53861L9.60543 4.0747H10.1295L9.71773 4.491L9.91572 5.05751L9.36441 4.77877ZM11.3644 4.77877L10.8731 5.05751L11.0134 4.491L10.5427 4.0747H11.1575L11.3637 3.53861L11.6054 4.0747H12.1295L11.7177 4.491L11.9157 5.05751L11.3644 4.77877ZM10.8448 3.73764L11.3361 3.4589L11.8874 3.73764L11.6894 3.17113L12.1012 2.75483H11.5771L11.3354 2.21874L11.1292 2.75483H10.5144L10.9851 3.17113L10.8448 3.73764ZM12.8731 5.05751L13.3644 4.77877L13.9157 5.05751L13.7177 4.491L14.1295 4.0747H13.6054L13.3637 3.53861L13.1575 4.0747H12.5427L13.0134 4.491L12.8731 5.05751ZM13.3361 3.4589L12.8448 3.73764L12.9851 3.17113L12.5144 2.75483H13.1292L13.3354 2.21874L13.5771 2.75483H14.1012L13.6894 3.17113L13.8874 3.73764L13.3361 3.4589ZM12.8723 2.4792L13.3637 2.20046L13.915 2.4792L13.717 1.91269L14.1288 1.49639H13.6047L13.3629 0.960297L13.1568 1.49639H12.542L13.0127 1.91269L12.8723 2.4792ZM15.3644 4.77877L14.8731 5.05751L15.0134 4.491L14.5427 4.0747H15.1575L15.3637 3.53861L15.6054 4.0747H16.1295L15.7177 4.491L15.9157 5.05751L15.3644 4.77877ZM14.8448 3.73764L15.3361 3.4589L15.8874 3.73764L15.6894 3.17113L16.1012 2.75483H15.5771L15.3354 2.21874L15.1292 2.75483H14.5144L14.9851 3.17113L14.8448 3.73764ZM15.3637 2.20046L14.8723 2.4792L15.0127 1.91269L14.542 1.49639H15.1568L15.3629 0.960297L15.6047 1.49639H16.1288L15.717 1.91269L15.915 2.4792L15.3637 2.20046ZM5.94245 5.12031C5.94245 5.12031 4.73453 4.7927 4.75727 3.58096C4.78002 2.36921 6 2.05461 6 2.05461C5.50151 1.86584 4.02757 2.11914 4.00036 3.56867C3.97315 5.0182 5.47796 5.30376 5.94245 5.12031Z" fill="#F7FCFF"/>
</g>
<rect x="3" y="1" width="16" height="12" fill="url(#paint0_linear)" style="mix-blend-mode:overlay"/>
</g>
<defs>
<filter id="filter0_d" x="0" y="0" width="22" height="18" filterUnits="userSpaceOnUse" color-interpolation-filters="sRGB">
<feFlood flood-opacity="0" result="BackgroundImageFix"/>
<feColorMatrix in="SourceAlpha" type="matrix" values="0 0 0 0 0 0 0 0 0 0 0 0 0 0 0 0 0 0 127 0" result="hardAlpha"/>
<feOffset dy="2"/>
<feGaussianBlur stdDeviation="1.5"/>
<feColorMatrix type="matrix" values="0 0 0 0 0 0 0 0 0 0 0 0 0 0 0 0 0 0 0.1 0"/>
<feBlend mode="normal" in2="BackgroundImageFix" result="effect1_dropShadow"/>
<feBlend mode="normal" in="SourceGraphic" in2="effect1_dropShadow" result="shape"/>
</filter>
<linearGradient id="paint0_linear" x1="11" y1="1" x2="11" y2="13" gradientUnits="userSpaceOnUse">
<stop stop-color="white" stop-opacity="0.7"/>
<stop offset="1" stop-opacity="0.3"/>
</linearGradient>
</defs>
</svg>
