<svg width="22" height="18" viewBox="0 0 22 18" fill="none" xmlns="http://www.w3.org/2000/svg">
<g filter="url(#filter0_d)">
<mask id="mask0" style="mask-type:alpha" maskUnits="userSpaceOnUse" x="3" y="1" width="16" height="12">
<rect x="3" y="1" width="16" height="12" fill="white"/>
</mask>
<g mask="url(#mask0)">
<path fill-rule="evenodd" clip-rule="evenodd" d="M3 1H19V13H3V1Z" fill="#F7FCFF"/>
<path fill-rule="evenodd" clip-rule="evenodd" d="M3 1H10V13H3V1Z" fill="#FFDC17"/>
<path d="M14.3908 7.37558L14.2182 7.38682C14.2594 7.97971 14.3868 8.43769 14.603 8.76089C14.9516 9.28211 15.4116 9.68511 15.7194 9.68511C15.7894 9.68511 15.8056 9.71108 15.7826 9.77518C15.7498 9.86633 15.6461 9.95598 15.5127 9.99038C15.2908 10.0476 14.7861 10.0772 14.0073 10.0772V10.2447C14.8017 10.2447 15.3155 10.2145 15.5572 10.1522C15.7449 10.1038 15.8938 9.97502 15.9459 9.83024C16.0061 9.66282 15.9152 9.51767 15.7194 9.51767C15.4908 9.51767 15.0667 9.14612 14.7482 8.6699C14.5502 8.37391 14.4302 7.94243 14.3908 7.37558Z" fill="#AF0100"/>
<path d="M13.5735 7.37558L13.7461 7.38682C13.7049 7.97971 13.5775 8.43769 13.3613 8.76089C13.0127 9.28211 12.5527 9.68511 12.2449 9.68511C12.1749 9.68511 12.1587 9.71108 12.1817 9.77518C12.2145 9.86633 12.3182 9.95598 12.4516 9.99038C12.6735 10.0476 13.1782 10.0772 13.957 10.0772V10.2447C13.1626 10.2447 12.6488 10.2145 12.4071 10.1522C12.2194 10.1038 12.0705 9.97502 12.0184 9.83024C11.9582 9.66282 12.0491 9.51767 12.2449 9.51767C12.4735 9.51767 12.8976 9.14612 13.2161 8.6699C13.4141 8.37391 13.5341 7.94243 13.5735 7.37558Z" fill="#AF0100"/>
<path fill-rule="evenodd" clip-rule="evenodd" d="M17.0334 4.39908L12.4627 7.96208C12.3027 7.90994 12.128 7.88141 11.946 7.88141C11.2044 7.88141 10.5838 8.35508 10.5838 8.96978C10.5838 9.58448 11.2044 10.0582 11.946 10.0582C12.031 10.0582 12.1145 10.0519 12.1956 10.04C12.1205 9.98137 12.0645 9.90812 12.0365 9.83025C12.0028 9.73655 12.0164 9.64983 12.0693 9.59162C12.0291 9.59561 11.9879 9.59769 11.946 9.59769C11.4456 9.59769 11.0595 9.30295 11.0595 8.96978C11.0595 8.6366 11.4456 8.34187 11.946 8.34187C12.4463 8.34187 12.8324 8.6366 12.8324 8.96978C12.8324 9.07171 12.7963 9.17004 12.7318 9.25744C12.7439 9.24661 12.7561 9.2355 12.7684 9.22412C12.9268 9.07663 12.5708 9.68511 12.263 9.68511C12.193 9.68511 12.1768 9.71108 12.1998 9.77518C12.2306 9.86056 12.3235 9.94462 12.4448 9.9832C12.9462 9.82643 13.3081 9.43923 13.3081 8.96978C13.3081 8.77775 13.2476 8.59948 13.1417 8.44511L15.5981 6.36031L15.7625 6.53018L15.8809 6.42284L16.2912 6.72694L16.1196 6.85921L16.4698 7.28489L17.1763 6.74023L17.1883 6.73404L17.1862 6.73261L17.23 6.69885L16.8798 6.27316L16.7105 6.40369L16.2517 6.0865L16.3055 6.03772L16.1579 5.88522L16.3798 5.69683L16.4976 5.81855L16.6242 5.70381L17.0219 6.01869L16.8548 6.14758L17.205 6.57327L17.8102 6.10669L17.8795 6.06874L17.8694 6.06101L17.9652 5.98722L17.6149 5.56153L17.4171 5.71402L16.9814 5.37975L17.0406 5.32609L16.9396 5.22175L17.3918 4.83793L17.0334 4.39908Z" fill="#F4B300"/>
<path fill-rule="evenodd" clip-rule="evenodd" d="M14.6919 8.96977C14.6919 8.69348 14.8173 8.44568 15.0226 8.25658L12.3979 6.22391L12.3679 6.24695L12.4445 6.31635L12.2375 6.53018L12.1285 6.43134L11.7267 6.74076L11.8804 6.8592L11.5302 7.28489L10.8312 6.74604L10.8117 6.73403L10.8138 6.7326L10.77 6.69884L11.1202 6.27315L11.2895 6.40369L11.7483 6.08649L11.6945 6.03772L11.8929 5.83281L11.6618 5.65385L11.5024 5.81855L11.3806 5.70811L10.9879 6.02627L11.1452 6.14757L10.795 6.57326L10.2091 6.12152L10.1205 6.06873L10.1306 6.06101L10.0348 5.98721L10.3851 5.56153L10.5829 5.71401L11.0186 5.37975L10.9594 5.32609L11.079 5.20254L10.6082 4.83793L10.9053 4.47836L15.4462 7.99491C15.6301 7.92202 15.8369 7.8814 16.054 7.8814C16.7956 7.8814 17.4162 8.35507 17.4162 8.96977C17.4162 9.58447 16.7956 10.0581 16.054 10.0581C15.969 10.0581 15.8855 10.0519 15.8044 10.04C15.8795 9.98136 15.9355 9.90812 15.9635 9.83024C15.9972 9.73654 15.9836 9.64982 15.9307 9.59161C15.9709 9.59561 16.0121 9.59768 16.054 9.59768C16.5544 9.59768 16.9405 9.30295 16.9405 8.96977C16.9405 8.6366 16.5544 8.34187 16.054 8.34187C15.5537 8.34187 15.1676 8.6366 15.1676 8.96977C15.1676 9.0717 15.2037 9.17003 15.2682 9.25743C15.2561 9.2466 15.2439 9.23549 15.2316 9.22411C15.0732 9.07663 15.4292 9.68511 15.737 9.68511C15.807 9.68511 15.8232 9.71107 15.8002 9.77518C15.7694 9.86056 15.6765 9.94462 15.5552 9.9832C15.0538 9.82643 14.6919 9.43923 14.6919 8.96977Z" fill="#BFBFBF"/>
<path fill-rule="evenodd" clip-rule="evenodd" d="M13.8703 6.89767C13.8344 6.89767 13.8054 6.92672 13.8054 6.96254V7.23256H13.5655C13.5308 7.23256 13.5027 7.26067 13.5027 7.29535C13.5027 7.33003 13.5308 7.35814 13.5655 7.35814H13.8054V10.9351C13.8054 10.971 13.8344 11 13.8703 11H14C14.0358 11 14.0648 10.971 14.0648 10.9351V7.35814H14.4345C14.4692 7.35814 14.4973 7.33003 14.4973 7.29535C14.4973 7.26067 14.4692 7.23256 14.4345 7.23256H14.0648V6.96254C14.0648 6.92672 14.0358 6.89767 14 6.89767H13.8703Z" fill="#AF0100"/>
<path fill-rule="evenodd" clip-rule="evenodd" d="M13.9351 11.0083C14.0784 11.0083 14.1946 10.9502 14.1946 10.8786C14.1946 10.8069 14.0784 10.7488 13.9351 10.7488C13.7918 10.7488 13.6757 10.8069 13.6757 10.8786C13.6757 10.9502 13.7918 11.0083 13.9351 11.0083Z" fill="#AF0100"/>
<path fill-rule="evenodd" clip-rule="evenodd" d="M13 3.9C13 3.40294 13.4029 3 13.9 3C14.3971 3 14.8 3.40294 14.8 3.9V5.52174H13L13 3.9Z" fill="#F4B300"/>
<path fill-rule="evenodd" clip-rule="evenodd" d="M13.8919 5.60968C14.3934 5.60968 14.8 5.54192 14.8 5.45833C14.8 5.37474 14.3934 5.30698 13.8919 5.30698C13.3903 5.30698 12.9838 5.37474 12.9838 5.45833C12.9838 5.54192 13.3903 5.60968 13.8919 5.60968Z" fill="#AF0100"/>
</g>
<rect x="3" y="1" width="16" height="12" fill="url(#paint0_linear)" style="mix-blend-mode:overlay"/>
</g>
<defs>
<filter id="filter0_d" x="0" y="0" width="22" height="18" filterUnits="userSpaceOnUse" color-interpolation-filters="sRGB">
<feFlood flood-opacity="0" result="BackgroundImageFix"/>
<feColorMatrix in="SourceAlpha" type="matrix" values="0 0 0 0 0 0 0 0 0 0 0 0 0 0 0 0 0 0 127 0" result="hardAlpha"/>
<feOffset dy="2"/>
<feGaussianBlur stdDeviation="1.5"/>
<feColorMatrix type="matrix" values="0 0 0 0 0 0 0 0 0 0 0 0 0 0 0 0 0 0 0.1 0"/>
<feBlend mode="normal" in2="BackgroundImageFix" result="effect1_dropShadow"/>
<feBlend mode="normal" in="SourceGraphic" in2="effect1_dropShadow" result="shape"/>
</filter>
<linearGradient id="paint0_linear" x1="11" y1="1" x2="11" y2="13" gradientUnits="userSpaceOnUse">
<stop stop-color="white" stop-opacity="0.7"/>
<stop offset="1" stop-opacity="0.3"/>
</linearGradient>
</defs>
</svg>
