<svg width="22" height="18" viewBox="0 0 22 18" fill="none" xmlns="http://www.w3.org/2000/svg">
<g filter="url(#filter0_d)">
<mask id="mask0" style="mask-type:alpha" maskUnits="userSpaceOnUse" x="3" y="1" width="16" height="12">
<rect x="3" y="1" width="16" height="12" fill="white"/>
</mask>
<g mask="url(#mask0)">
<path fill-rule="evenodd" clip-rule="evenodd" d="M3 1V13H19V1H3Z" fill="#2E42A5"/>
<mask id="mask1" style="mask-type:alpha" maskUnits="userSpaceOnUse" x="3" y="1" width="16" height="12">
<path fill-rule="evenodd" clip-rule="evenodd" d="M3 1V13H19V1H3Z" fill="white"/>
</mask>
<g mask="url(#mask1)">
<mask id="mask2" style="mask-type:alpha" maskUnits="userSpaceOnUse" x="3" y="1" width="9" height="7">
<rect x="3" y="1" width="9" height="7" fill="white"/>
</mask>
<g mask="url(#mask2)">
<path d="M1.99786 7.49991L3.97834 8.36852L12.0449 1.94438L13.0896 0.65361L10.9718 0.363298L7.68159 3.13164L5.03334 4.99686L1.99786 7.49991Z" fill="#F7FCFF"/>
<path d="M2.26898 8.10847L3.27794 8.61253L12.7145 0.533676H11.2978L2.26898 8.10847Z" fill="#F50100"/>
<path d="M13.0021 7.49991L11.0217 8.36852L2.95506 1.94438L1.91041 0.65361L4.02824 0.363298L7.31841 3.13164L9.96666 4.99686L13.0021 7.49991Z" fill="#F7FCFF"/>
<path d="M12.9346 7.93667L11.9256 8.44073L7.90745 4.98176L6.71615 4.59529L1.8099 0.658027H3.2266L8.13009 4.50184L9.43256 4.96525L12.9346 7.93667Z" fill="#F50100"/>
<mask id="path-10-outside-1" maskUnits="userSpaceOnUse" x="2" y="0" width="11" height="9" fill="black">
<rect fill="white" x="2" width="11" height="9"/>
<path fill-rule="evenodd" clip-rule="evenodd" d="M7.99226 1H6.99226V4H3V5H6.99226V8H7.99226V5H12V4H7.99226V1Z"/>
</mask>
<path fill-rule="evenodd" clip-rule="evenodd" d="M7.99226 1H6.99226V4H3V5H6.99226V8H7.99226V5H12V4H7.99226V1Z" fill="#F50100"/>
<path d="M6.99226 1V0.25H6.24226V1H6.99226ZM7.99226 1H8.74226V0.25H7.99226V1ZM6.99226 4V4.75H7.74226V4H6.99226ZM3 4V3.25H2.25V4H3ZM3 5H2.25V5.75H3V5ZM6.99226 5H7.74226V4.25H6.99226V5ZM6.99226 8H6.24226V8.75H6.99226V8ZM7.99226 8V8.75H8.74226V8H7.99226ZM7.99226 5V4.25H7.24226V5H7.99226ZM12 5V5.75H12.75V5H12ZM12 4H12.75V3.25H12V4ZM7.99226 4H7.24226V4.75H7.99226V4ZM6.99226 1.75H7.99226V0.25H6.99226V1.75ZM7.74226 4V1H6.24226V4H7.74226ZM3 4.75H6.99226V3.25H3V4.75ZM3.75 5V4H2.25V5H3.75ZM6.99226 4.25H3V5.75H6.99226V4.25ZM7.74226 8V5H6.24226V8H7.74226ZM7.99226 7.25H6.99226V8.75H7.99226V7.25ZM7.24226 5V8H8.74226V5H7.24226ZM12 4.25H7.99226V5.75H12V4.25ZM11.25 4V5H12.75V4H11.25ZM7.99226 4.75H12V3.25H7.99226V4.75ZM7.24226 1V4H8.74226V1H7.24226Z" fill="#F7FCFF" mask="url(#path-10-outside-1)"/>
</g>
<path fill-rule="evenodd" clip-rule="evenodd" d="M13.1234 6.01634V9.28092C13.1234 9.28092 13.075 11.982 15.5643 11.982C18.0537 11.982 18.0537 9.28092 18.0537 9.28092V6.01634H13.1234Z" fill="#3B7E05" stroke="#F7FCFF" stroke-width="0.25"/>
<path fill-rule="evenodd" clip-rule="evenodd" d="M13.1185 10.9444L13.5151 10.5462C14.1349 11.3117 14.7868 11.6842 15.48 11.6842C16.1731 11.6842 16.8244 11.3117 17.4432 10.5464L17.669 10.7727L17.6785 10.7585C17.8165 10.8753 17.9075 10.9846 17.9512 11.1113C18.0224 11.3175 17.9464 11.5157 17.7796 11.6206C17.7382 11.6466 17.7054 11.6653 17.6762 11.6789C17.6085 11.7104 17.5542 11.7241 17.4737 11.7014C17.3917 11.6783 17.3228 11.6151 17.2871 11.5283C16.7246 12.0258 16.121 12.2788 15.48 12.2788C14.8444 12.2788 14.2454 12.0301 13.6865 11.5411C13.6492 11.6265 13.5795 11.6878 13.4976 11.7093C13.4167 11.7306 13.3626 11.716 13.2955 11.6833C13.2666 11.6692 13.2341 11.6499 13.1932 11.6232C13.0282 11.5154 12.9557 11.3159 13.0305 11.1109C13.0508 11.0552 13.0834 11.0034 13.1257 10.9532C13.1233 10.9502 13.1209 10.9473 13.1185 10.9444Z" fill="#FFD018"/>
<path d="M13.5151 10.5462L13.5734 10.499L13.5209 10.4342L13.462 10.4933L13.5151 10.5462ZM13.1185 10.9444L13.0654 10.8914L13.0178 10.9392L13.0602 10.9916L13.1185 10.9444ZM17.4432 10.5464L17.4963 10.4934L17.4374 10.4343L17.3849 10.4992L17.4432 10.5464ZM17.669 10.7727L17.6159 10.8256L17.6802 10.8901L17.7311 10.8146L17.669 10.7727ZM17.6785 10.7585L17.727 10.7012L17.6632 10.6472L17.6164 10.7165L17.6785 10.7585ZM17.9512 11.1113L18.0221 11.0868V11.0868L17.9512 11.1113ZM17.7796 11.6206L17.7397 11.5571V11.5571L17.7796 11.6206ZM17.6762 11.6789L17.6445 11.6109L17.6762 11.6789ZM17.4737 11.7014L17.494 11.6292V11.6292L17.4737 11.7014ZM17.2871 11.5283L17.3565 11.4998L17.3164 11.4023L17.2374 11.4721L17.2871 11.5283ZM13.6865 11.5411L13.7359 11.4846L13.6588 11.4172L13.6178 11.511L13.6865 11.5411ZM13.4976 11.7093L13.4785 11.6368H13.4785L13.4976 11.7093ZM13.2955 11.6833L13.3284 11.6158H13.3284L13.2955 11.6833ZM13.1932 11.6232L13.1521 11.6859H13.1521L13.1932 11.6232ZM13.0305 11.1109L13.1009 11.1366L13.0305 11.1109ZM13.1257 10.9532L13.1831 11.0014L13.2229 10.9539L13.1838 10.9059L13.1257 10.9532ZM13.462 10.4933L13.0654 10.8914L13.1717 10.9973L13.5682 10.5991L13.462 10.4933ZM15.48 11.6092C14.8174 11.6092 14.1849 11.2542 13.5734 10.499L13.4568 10.5934C14.0849 11.3691 14.7562 11.7592 15.48 11.7592V11.6092ZM17.3849 10.4992C16.7744 11.2543 16.1424 11.6092 15.48 11.6092V11.7592C16.2037 11.7592 16.8744 11.3692 17.5015 10.5935L17.3849 10.4992ZM17.722 10.7197L17.4963 10.4934L17.3901 10.5993L17.6159 10.8256L17.722 10.7197ZM17.6164 10.7165L17.6068 10.7307L17.7311 10.8146L17.7407 10.8004L17.6164 10.7165ZM18.0221 11.0868C17.9721 10.9417 17.8694 10.8218 17.727 10.7012L17.6301 10.8157C17.7637 10.9288 17.843 11.0276 17.8803 11.1357L18.0221 11.0868ZM17.8195 11.684C18.016 11.5605 18.1045 11.3258 18.0221 11.0868L17.8803 11.1357C17.9402 11.3093 17.8767 11.4709 17.7397 11.5571L17.8195 11.684ZM17.7078 11.7469C17.7412 11.7314 17.7771 11.7107 17.8195 11.684L17.7397 11.5571C17.6994 11.5824 17.6696 11.5992 17.6445 11.6109L17.7078 11.7469ZM17.4533 11.7736C17.5023 11.7874 17.5465 11.7909 17.5902 11.7847C17.633 11.7787 17.6712 11.7639 17.7078 11.7469L17.6445 11.6109C17.6135 11.6254 17.5907 11.6332 17.5693 11.6362C17.5488 11.6391 17.5257 11.6381 17.494 11.6292L17.4533 11.7736ZM17.2177 11.5568C17.2614 11.6631 17.3472 11.7437 17.4533 11.7736L17.494 11.6292C17.4361 11.6129 17.3842 11.5672 17.3565 11.4998L17.2177 11.5568ZM15.48 12.3538C16.1426 12.3538 16.7633 12.0917 17.3368 11.5845L17.2374 11.4721C16.686 11.9599 16.0994 12.2038 15.48 12.2038V12.3538ZM13.6371 11.5975C14.207 12.0962 14.823 12.3538 15.48 12.3538V12.2038C14.8658 12.2038 14.2837 11.964 13.7359 11.4846L13.6371 11.5975ZM13.5167 11.7818C13.6226 11.7539 13.7095 11.6756 13.7552 11.5711L13.6178 11.511C13.5888 11.5773 13.5363 11.6216 13.4785 11.6368L13.5167 11.7818ZM13.2627 11.7507C13.299 11.7684 13.337 11.7838 13.3796 11.7906C13.4232 11.7975 13.4675 11.7948 13.5167 11.7818L13.4785 11.6368C13.4467 11.6451 13.4235 11.6457 13.4031 11.6425C13.3818 11.6391 13.3592 11.6308 13.3284 11.6158L13.2627 11.7507ZM13.1521 11.6859C13.1941 11.7134 13.2296 11.7346 13.2627 11.7507L13.3284 11.6158C13.3035 11.6037 13.274 11.5864 13.2342 11.5604L13.1521 11.6859ZM12.96 11.0852C12.8734 11.3227 12.9578 11.559 13.1521 11.6859L13.2342 11.5604C13.0987 11.4718 13.038 11.3091 13.1009 11.1366L12.96 11.0852ZM13.0682 10.9049C13.022 10.9599 12.9841 11.0192 12.96 11.0852L13.1009 11.1366C13.1175 11.0912 13.1448 11.047 13.1831 11.0014L13.0682 10.9049ZM13.0602 10.9916C13.0626 10.9945 13.065 10.9975 13.0675 11.0005L13.1838 10.9059C13.1815 10.903 13.1792 10.9001 13.1768 10.8972L13.0602 10.9916Z" fill="white"/>
<path d="M14.0658 8.32443L14.028 8.16041V6.77121C14.028 6.5641 14.1959 6.39621 14.403 6.39621C14.6101 6.39621 14.778 6.5641 14.778 6.77121V8.07404L15.1378 8.81374C15.2101 8.96234 15.1766 9.14074 15.0553 9.25298L14.6418 9.63562V10.3559C14.6418 10.563 14.474 10.7309 14.2668 10.7309C14.0597 10.7309 13.8918 10.563 13.8918 10.3559V9.47173C13.8918 9.36724 13.9354 9.26749 14.0121 9.19652L14.3416 8.89156L14.0658 8.32443Z" fill="#FFD018"/>
<path d="M16.6255 6.74982V10.4522" stroke="#FFD018" stroke-width="0.75" stroke-linecap="round" stroke-linejoin="round"/>
<path fill-rule="evenodd" clip-rule="evenodd" d="M15.3199 7.29282L15.1517 7.83955C15.1517 7.83955 14.8699 8.20406 14.818 8.38268C14.766 8.56131 14.7375 8.68 14.7518 8.68C14.766 8.68 14.8811 8.62914 14.8811 8.50591C14.8811 8.38268 15.3199 7.98641 15.3199 7.98641L15.4508 7.29282H15.3199Z" fill="#FFC6B5"/>
<path fill-rule="evenodd" clip-rule="evenodd" d="M16.6859 6.43444C16.6899 6.42665 16.6922 6.41767 16.6922 6.40812C16.6922 6.37827 16.6698 6.35406 16.6422 6.35406C16.6146 6.35406 16.5922 6.37827 16.5922 6.40812C16.5922 6.42099 16.5964 6.43281 16.6033 6.44209L16.4141 6.73505L16.4338 6.75083L16.6229 6.45801C16.6289 6.46069 16.6354 6.46217 16.6422 6.46217C16.6519 6.46217 16.661 6.45917 16.6687 6.45397L16.8677 6.75102L16.8871 6.73486L16.6859 6.43444ZM16.6791 6.68786C16.6872 6.67825 16.6922 6.66543 16.6922 6.65136C16.6922 6.62151 16.6698 6.59731 16.6422 6.59731C16.6146 6.59731 16.5922 6.62151 16.5922 6.65136C16.5922 6.66957 16.6005 6.68567 16.6133 6.69546L16.5659 6.75248H16.2447C16.2447 6.75248 16.2799 6.83299 16.3894 6.85425C16.4228 6.88604 16.5084 6.9452 16.5084 6.9452L16.4596 7.00447H16.8059V6.9452C16.8903 6.94457 16.922 6.87794 16.9333 6.85416C16.9379 6.84435 16.9391 6.84183 16.9391 6.85425C16.9391 6.89677 17.0007 6.85425 17.0007 6.85425C17.0007 6.85425 17.103 6.75248 17.103 6.65549C17.103 6.5585 16.8892 6.75248 16.8892 6.75248H16.7441L16.6791 6.68786Z" fill="#FFD018"/>
<path fill-rule="evenodd" clip-rule="evenodd" d="M15.73 7.07402C15.7348 7.08399 15.7383 7.09148 15.7383 7.10202C15.7383 7.13356 15.6047 7.17985 15.5083 7.17985C15.4119 7.17985 15.4497 7.10202 15.5083 7.05886C15.5669 7.0157 15.5036 6.94142 15.4497 6.94142C15.3986 6.94142 15.3987 6.86917 15.3989 6.8111C15.3989 6.80803 15.3989 6.805 15.3989 6.80203V6.57579C15.3989 6.48501 15.4235 6.49564 15.4705 6.51597C15.4981 6.52792 15.5335 6.54323 15.5762 6.54323C15.648 6.54323 15.652 6.55976 15.6627 6.60451C15.6693 6.6317 15.6783 6.66931 15.7066 6.71995C15.7516 6.8006 15.7425 6.81917 15.728 6.84839C15.7185 6.86772 15.7066 6.89171 15.7066 6.94142C15.7066 7.02453 15.7207 7.05418 15.73 7.07402ZM15.8491 7.6543L15.8775 7.3468C15.8775 7.3468 15.8491 7.23432 15.9155 7.23432C15.982 7.23432 16.0851 7.7721 16.1224 7.98771C16.1463 8.1256 16.1244 8.1512 16.0611 8.2251C16.0254 8.26675 15.9767 8.32376 15.9155 8.42487C15.8138 8.59305 15.8204 8.69148 15.8254 8.76648C15.8287 8.81656 15.8314 8.8562 15.8006 8.8992C15.7291 8.99914 15.6998 8.90456 15.6712 8.81228C15.6691 8.80542 15.667 8.79857 15.6648 8.79182C15.6375 8.7055 15.7621 8.44385 15.8467 8.26612C15.8578 8.24287 15.8682 8.22106 15.8775 8.20127C15.9576 8.03014 15.9501 7.97042 15.9155 7.89875C15.881 7.82709 15.8491 7.6543 15.8491 7.6543Z" fill="#FFC6B5"/>
<path fill-rule="evenodd" clip-rule="evenodd" d="M16.0097 10.6848C16.0097 10.763 15.95 10.8264 15.8762 10.8264C15.8025 10.8264 15.7427 10.763 15.7427 10.6848C15.7427 10.6066 15.8025 10.5432 15.8762 10.5432C15.95 10.5432 16.0097 10.6066 16.0097 10.6848ZM15.2998 10.7242C15.2399 10.7744 15.1669 10.786 15.1367 10.7501C15.1066 10.7141 15.1307 10.6443 15.1906 10.594C15.2505 10.5437 15.3235 10.5321 15.3536 10.5681C15.3838 10.604 15.3597 10.6739 15.2998 10.7242Z" fill="#FFD018"/>
<path fill-rule="evenodd" clip-rule="evenodd" d="M15.4755 6.39233C15.4755 6.39233 15.3367 6.42052 15.383 6.49003C15.4292 6.55955 15.3227 6.54157 15.4755 6.55056C15.6284 6.55955 15.6702 6.61519 15.6493 6.6563C15.6284 6.69741 15.6119 6.79949 15.6493 6.86099C15.6867 6.9225 15.6985 7.02953 15.7645 6.97602C15.8305 6.9225 15.9572 6.84898 15.9184 6.75264C15.8796 6.6563 15.934 6.54424 15.8493 6.49003C15.7645 6.43583 15.7455 6.46898 15.697 6.39233C15.6485 6.31568 15.577 6.29458 15.5263 6.34345C15.4755 6.39233 15.4755 6.39233 15.4755 6.39233Z" fill="#A95601"/>
<path fill-rule="evenodd" clip-rule="evenodd" d="M15.448 7.08876C15.448 7.08876 15.169 7.42472 15.2147 7.54309C15.2604 7.66145 15.3286 7.66768 15.2945 7.83598C15.2604 8.00427 15.3153 8.26446 15.2147 8.59546C15.1141 8.92646 15.048 9.70306 15.081 9.70306C15.1141 9.70306 15.16 10.1321 15.1205 10.3245C15.081 10.517 14.8056 10.678 15.081 10.678C15.3564 10.678 15.3891 10.7161 15.4991 10.678C15.6092 10.6398 15.7654 10.7877 15.7654 10.678C15.7654 10.5682 15.7771 10.5457 15.861 10.5457C15.9449 10.5457 15.9407 10.5457 16.0149 10.5457C16.0892 10.5457 16.1866 10.6149 16.1866 10.4509C16.1866 10.2869 16.2047 9.93447 16.1098 9.66083C16.0149 9.38718 16.0472 9.56193 15.9541 9.196C15.899 8.97924 15.8564 8.89321 15.8229 8.8175C15.7998 8.76539 15.7339 8.85686 15.7183 8.77528C15.713 8.74762 15.758 8.58532 15.7585 8.56448C15.7615 8.43456 15.861 8.41245 15.861 8.18896C15.861 7.92963 15.7988 7.64472 15.861 7.50217C15.9232 7.35962 16.0758 7.44533 16.0149 7.30669C15.9541 7.16805 15.9343 7.08876 15.8198 7.08876C15.7053 7.08876 15.448 7.08876 15.448 7.08876Z" fill="#F7FCFF"/>
</g>
</g>
<rect x="3" y="1" width="16" height="12" fill="url(#paint0_linear)" style="mix-blend-mode:overlay"/>
</g>
<defs>
<filter id="filter0_d" x="0" y="0" width="22" height="18" filterUnits="userSpaceOnUse" color-interpolation-filters="sRGB">
<feFlood flood-opacity="0" result="BackgroundImageFix"/>
<feColorMatrix in="SourceAlpha" type="matrix" values="0 0 0 0 0 0 0 0 0 0 0 0 0 0 0 0 0 0 127 0" result="hardAlpha"/>
<feOffset dy="2"/>
<feGaussianBlur stdDeviation="1.5"/>
<feColorMatrix type="matrix" values="0 0 0 0 0 0 0 0 0 0 0 0 0 0 0 0 0 0 0.1 0"/>
<feBlend mode="normal" in2="BackgroundImageFix" result="effect1_dropShadow"/>
<feBlend mode="normal" in="SourceGraphic" in2="effect1_dropShadow" result="shape"/>
</filter>
<linearGradient id="paint0_linear" x1="11" y1="1" x2="11" y2="13" gradientUnits="userSpaceOnUse">
<stop stop-color="white" stop-opacity="0.7"/>
<stop offset="1" stop-opacity="0.3"/>
</linearGradient>
</defs>
</svg>
