<svg width="22" height="18" viewBox="0 0 22 18" fill="none" xmlns="http://www.w3.org/2000/svg">
<g filter="url(#filter0_d)">
<mask id="mask0" style="mask-type:alpha" maskUnits="userSpaceOnUse" x="3" y="1" width="16" height="12">
<rect x="3" y="1" width="16" height="12" fill="white"/>
</mask>
<g mask="url(#mask0)">
<path fill-rule="evenodd" clip-rule="evenodd" d="M3 1V13H19V1H3Z" fill="#F7FCFF"/>
<mask id="mask1" style="mask-type:alpha" maskUnits="userSpaceOnUse" x="3" y="1" width="16" height="12">
<path fill-rule="evenodd" clip-rule="evenodd" d="M3 1V13H19V1H3Z" fill="white"/>
</mask>
<g mask="url(#mask1)">
<path fill-rule="evenodd" clip-rule="evenodd" d="M11.5736 3.9635C11.5736 4.05575 11.9948 5.35253 11.9948 5.35253H9.95079L10.5253 4.23141C10.5253 4.23141 10.6093 4.01749 10.4038 3.9635C10.1983 3.9095 9.95079 4.14233 9.95079 4.14233C9.95079 4.14233 10.0112 3.76984 10.0919 3.68915C10.1726 3.60847 10.6443 3.40161 11.0375 3.40161C11.4307 3.40161 11.5736 3.87124 11.5736 3.9635ZM4.38859 3.43476C4.54541 3.36747 6.13906 3.84237 7.33284 4.19811L7.33286 4.19811L7.33287 4.19812L7.33287 4.19812C8.01935 4.40268 8.5736 4.56784 8.64636 4.56784C8.84565 4.56784 9.66581 5.41112 9.66581 5.41112V7.29699C9.66581 7.29699 7.07721 6.75968 4.63559 4.1115C4.2775 3.7569 4.14159 3.54075 4.38859 3.43476ZM9.42187 7.41595C9.42187 7.41595 9.15037 7.60302 8.85 8.10396C8.70223 8.35038 8.69034 8.56747 8.68174 8.72445C8.67285 8.88657 8.66749 8.98458 8.51958 8.98458C8.34693 8.98458 8.22167 9.02192 8.11972 9.05232C8.04976 9.07318 7.99078 9.09076 7.935 9.09076C7.79793 9.09076 7.53475 9.60818 7.66634 9.72792C7.79793 9.84767 8.34929 10.0385 8.34929 9.72792C8.34929 9.41733 8.49759 9.24088 8.76706 9.24088C9.03652 9.24088 9.51818 9.06246 9.51818 8.67098C9.51818 8.2795 10.0433 8.30746 10.0433 8.30746L9.42187 7.41595ZM14.7806 4.19811C15.9744 3.84237 17.5681 3.36747 17.7249 3.43476C17.9719 3.54075 17.836 3.7569 17.4779 4.1115C16.5191 5.82721 12.4477 7.29699 12.4477 7.29699V5.41112C12.4477 5.41112 13.2678 4.56784 13.4671 4.56784C13.5399 4.56784 14.0941 4.4027 14.7805 4.19814L14.7805 4.19814L14.7806 4.19811L14.7806 4.19811ZM12.6916 7.41595C12.6916 7.41595 12.9631 7.60302 13.2635 8.10396C13.4112 8.35038 13.4231 8.56747 13.4317 8.72445C13.4406 8.88657 13.446 8.98458 13.5939 8.98458C13.7665 8.98458 13.8918 9.02192 13.9937 9.05232C14.0637 9.07318 14.1227 9.09076 14.1785 9.09076C14.3155 9.09076 14.5787 9.60818 14.4471 9.72792C14.3155 9.84767 13.7642 10.0385 13.7642 9.72792C13.7642 9.41733 13.6159 9.24088 13.3464 9.24088C13.0769 9.24088 12.5953 9.06246 12.5953 8.67098C12.5953 8.2795 12.0701 8.30746 12.0701 8.30746L12.6916 7.41595ZM9.25419 9.50148C9.25419 9.3305 10.0752 8.41866 10.0752 8.41866L10.9926 8.03154C10.9926 8.03154 10.9973 8.1189 11.0043 8.26397C11.0113 8.1189 11.016 8.03154 11.016 8.03154L11.9334 8.41866C11.9334 8.41866 12.7544 9.3305 12.7544 9.50148C12.7544 9.67245 11.1797 11.0657 11.016 11.0657C11.0119 11.0657 11.008 11.0638 11.0043 11.0601C11.0006 11.0638 10.9967 11.0657 10.9926 11.0657C10.8289 11.0657 9.25419 9.67245 9.25419 9.50148Z" fill="#E8AA00"/>
<path d="M6.12323 6.49617L7.07205 6.18034C7.71333 8.10691 8.33152 9.35225 8.88713 9.89043L8.19138 10.6087C7.4882 9.92759 6.81199 8.56538 6.12323 6.49617Z" fill="#46A000"/>
<path fill-rule="evenodd" clip-rule="evenodd" d="M17.3458 6.1693H16.2772C16.2772 6.1693 16.5037 6.1693 16.5286 6.38816C16.5286 6.38816 16.5338 8.23511 16.5286 8.38023C16.5234 8.52534 16.2772 8.57471 16.2772 8.57471C16.2772 8.57471 17.5736 8.57867 17.3458 8.57471C17.1181 8.57075 17.0678 8.38023 17.0678 8.38023V6.38816C17.0678 6.21951 17.3458 6.1693 17.3458 6.1693ZM5.28267 8.42663C5.16171 8.11433 4.41486 6.20208 4.41486 6.20208H5.15422C5.02578 6.20208 4.97809 6.36558 4.97809 6.36558L5.49598 7.8422C5.49598 7.8422 5.99678 6.63663 5.99678 6.42284C5.99678 6.20905 5.78655 6.20208 5.78655 6.20208H6.75048L6.51761 6.27985C6.51761 6.27985 5.74632 8.04809 5.74632 8.42663C5.70956 8.51054 6.10142 8.56635 6.10142 8.56635H5.06633L5.28267 8.42663ZM14.1333 7.72832L14.7061 6.67288L14.723 7.84719L14.5455 7.78961L14.4197 8.57378L15.0532 7.35896L14.8423 7.27971L15.6264 6.4309L15.3594 7.57814L15.2074 7.44434L14.3091 9.12046L15.3118 7.97162L15.1185 7.8751L16.1087 7.22682L15.6776 8.28325L15.4371 8.11012L14.4197 9.39099L13.9977 9.22871L14.4197 7.72832H14.1333ZM13.8025 9.72998H13.4858V9.97092H13.2364L12.5302 10.7902H12.92L13.0554 11.2514L13.2364 11.0886V11.2514L13.5904 11.0886L13.9289 11.3817L14.1814 10.2552L14.0114 10.1304L14.0987 10.054L14.0114 9.72998H13.8025Z" fill="#0093E1"/>
<path fill-rule="evenodd" clip-rule="evenodd" d="M9.17176 5.00642C9.17176 5.00642 9.63706 5.32771 10.1024 5.32771C10.5676 5.32771 11.0329 5.00642 11.0329 5.00642C11.0329 5.00642 11.4982 5.32771 11.9635 5.32771C12.4288 5.32771 12.8941 5.00642 12.8941 5.00642V6.45686C12.8941 7.95657 11.0329 9.11887 11.0329 9.11887C11.0329 9.11887 9.08165 8.05166 9.17176 6.43906V5.00642Z" fill="#F7FCFF"/>
<mask id="mask2" style="mask-type:alpha" maskUnits="userSpaceOnUse" x="9" y="5" width="4" height="5">
<path fill-rule="evenodd" clip-rule="evenodd" d="M9.17176 5.00642C9.17176 5.00642 9.63706 5.32771 10.1024 5.32771C10.5676 5.32771 11.0329 5.00642 11.0329 5.00642C11.0329 5.00642 11.4982 5.32771 11.9635 5.32771C12.4288 5.32771 12.8941 5.00642 12.8941 5.00642V6.45686C12.8941 7.95657 11.0329 9.11887 11.0329 9.11887C11.0329 9.11887 9.08165 8.05166 9.17176 6.43906V5.00642Z" fill="white"/>
</mask>
<g mask="url(#mask2)">
<path fill-rule="evenodd" clip-rule="evenodd" d="M9.03998 4.91003H12.96V6.42007H9.03998V4.91003Z" fill="#2E42A5"/>
<path fill-rule="evenodd" clip-rule="evenodd" d="M9.79767 6.42007H9.46826V9.47228H9.79767V6.42007ZM10.3577 6.42007H10.0283V9.47228H10.3577V6.42007ZM10.5883 6.42007H10.9177V9.47228H10.5883V6.42007ZM11.4777 6.42007H11.1483V9.47228H11.4777V6.42007ZM11.7083 6.42007H12.0377V9.47228H11.7083V6.42007ZM12.5977 6.42007H12.2683V9.47228H12.5977V6.42007Z" fill="#AF0100"/>
</g>
</g>
</g>
<rect x="3" y="1" width="16" height="12" fill="url(#paint0_linear)" style="mix-blend-mode:overlay"/>
</g>
<defs>
<filter id="filter0_d" x="0" y="0" width="22" height="18" filterUnits="userSpaceOnUse" color-interpolation-filters="sRGB">
<feFlood flood-opacity="0" result="BackgroundImageFix"/>
<feColorMatrix in="SourceAlpha" type="matrix" values="0 0 0 0 0 0 0 0 0 0 0 0 0 0 0 0 0 0 127 0" result="hardAlpha"/>
<feOffset dy="2"/>
<feGaussianBlur stdDeviation="1.5"/>
<feColorMatrix type="matrix" values="0 0 0 0 0 0 0 0 0 0 0 0 0 0 0 0 0 0 0.1 0"/>
<feBlend mode="normal" in2="BackgroundImageFix" result="effect1_dropShadow"/>
<feBlend mode="normal" in="SourceGraphic" in2="effect1_dropShadow" result="shape"/>
</filter>
<linearGradient id="paint0_linear" x1="11" y1="1" x2="11" y2="13" gradientUnits="userSpaceOnUse">
<stop stop-color="white" stop-opacity="0.7"/>
<stop offset="1" stop-opacity="0.3"/>
</linearGradient>
</defs>
</svg>
