<svg width="22" height="18" viewBox="0 0 22 18" fill="none" xmlns="http://www.w3.org/2000/svg">
<g filter="url(#filter0_d)">
<mask id="mask0" style="mask-type:alpha" maskUnits="userSpaceOnUse" x="3" y="1" width="16" height="12">
<rect x="3" y="1" width="16" height="12" fill="white"/>
</mask>
<g mask="url(#mask0)">
<path fill-rule="evenodd" clip-rule="evenodd" d="M3 1H19V13H3V1Z" fill="#F7FCFF"/>
<path fill-rule="evenodd" clip-rule="evenodd" d="M3 1V5H19V1H3Z" fill="#C51918"/>
<path fill-rule="evenodd" clip-rule="evenodd" d="M3 9V13H19V9H3Z" fill="#5EAA22"/>
<path fill-rule="evenodd" clip-rule="evenodd" d="M3 0L11.3348 7L3 14V0Z" fill="#272727"/>
<mask id="path-7-outside-1" maskUnits="userSpaceOnUse" x="2" y="-3.67747" width="18" height="21" fill="black">
<rect fill="white" x="2" y="-3.67747" width="18" height="21"/>
<path fill-rule="evenodd" clip-rule="evenodd" d="M3 -0.677475L11.7041 6H19V8H11.5847L3 14.4058V12.1701L10 7L3 1.76725V-0.677475Z"/>
</mask>
<path fill-rule="evenodd" clip-rule="evenodd" d="M3 -0.677475L11.7041 6H19V8H11.5847L3 14.4058V12.1701L10 7L3 1.76725V-0.677475Z" fill="#FFD018"/>
<path d="M11.7041 6L11.0955 6.79342L11.3648 7H11.7041V6ZM3 -0.677475L3.60868 -1.47089L2 -2.70501V-0.677475H3ZM19 6H20V5H19V6ZM19 8V9H20V8H19ZM11.5847 8V7H11.2527L10.9866 7.19853L11.5847 8ZM3 14.4058H2V16.3997L3.59804 15.2072L3 14.4058ZM3 12.1701L2.40589 11.3657L2 11.6655V12.1701H3ZM10 7L10.5941 7.80438L11.6767 7.00483L10.5987 6.19905L10 7ZM3 1.76725H2V2.26824L2.40126 2.5682L3 1.76725ZM12.3128 5.20658L3.60868 -1.47089L2.39132 0.115942L11.0955 6.79342L12.3128 5.20658ZM19 5H11.7041V7H19V5ZM20 8V6H18V8H20ZM11.5847 9H19V7H11.5847V9ZM3.59804 15.2072L12.1827 8.80146L10.9866 7.19853L2.40196 13.6043L3.59804 15.2072ZM2 12.1701V14.4058H4V12.1701H2ZM9.40589 6.19561L2.40589 11.3657L3.59411 12.9745L10.5941 7.80438L9.40589 6.19561ZM2.40126 2.5682L9.40126 7.80095L10.5987 6.19905L3.59874 0.966304L2.40126 2.5682ZM2 -0.677475V1.76725H4V-0.677475H2Z" fill="#272727" mask="url(#path-7-outside-1)"/>
<path d="M5.43687 9.38404L5.43787 8.59386C6.14204 8.43851 6.60851 8.23645 6.83557 7.99345C7.39469 7.30437 7.02301 5.68993 5.87432 5.70049C5.30523 5.70049 4.71673 5.97168 4.71673 6.60995C4.71673 7.40267 4.87987 7.74154 5.43787 7.74154C5.9924 7.74154 6.1957 7.77118 6.56097 7.27333L6.95737 7.39581C6.56594 7.9293 6.03832 8.35074 5.43687 8.35074C4.4461 8.35074 3.90692 7.60371 3.90692 6.73975C3.90692 5.67319 4.77276 4.92622 5.81673 4.92622C6.59569 4.92622 7.82776 5.88033 7.82776 6.73975C7.82776 7.59917 7.82776 7.99345 7.15218 8.59386C6.88006 8.83569 6.20584 9.26759 5.43687 9.38404Z" fill="#FFD018"/>
<path fill-rule="evenodd" clip-rule="evenodd" d="M5.49572 5.93992C5.45758 5.92984 5.41849 5.9526 5.40842 5.99074L5.38112 6.09415C5.37975 6.09238 5.37838 6.09061 5.37701 6.08883C5.3529 6.05761 5.30804 6.05185 5.27682 6.07596C5.2456 6.10007 5.23983 6.14493 5.26394 6.17615C5.28049 6.19758 5.29682 6.21876 5.31293 6.23968L5.23061 6.31569C5.20163 6.34245 5.19983 6.38764 5.22659 6.41663C5.25336 6.44561 5.29855 6.44741 5.32753 6.42065L5.40027 6.35348C5.44369 6.41025 5.48531 6.46492 5.52507 6.51744L5.38814 6.59095C5.35338 6.60961 5.34034 6.65291 5.35899 6.68767C5.37765 6.72243 5.42096 6.73548 5.45571 6.71682L5.6121 6.63286C5.64962 6.68284 5.6852 6.73053 5.71878 6.77585L5.531 6.87666C5.49624 6.89532 5.48319 6.93863 5.50185 6.97338C5.52051 7.00814 5.56381 7.02119 5.59857 7.00253L5.80434 6.89206C5.85906 6.96693 5.90704 7.0337 5.948 7.09189L5.81671 7.16238C5.78196 7.18104 5.76891 7.22434 5.78757 7.2591C5.80623 7.29385 5.84953 7.3069 5.88428 7.28824L6.02959 7.21023C6.09003 7.30029 6.12132 7.35432 6.12132 7.36854C6.12132 7.40799 6.1533 7.43997 6.19275 7.43997C6.2322 7.43997 6.26418 7.40799 6.26418 7.36854C6.26418 7.33238 6.22657 7.25634 6.14798 7.13448C6.14911 7.1325 6.15016 7.13047 6.15111 7.12838L6.2568 6.89566C6.27312 6.85974 6.25722 6.8174 6.22131 6.80108C6.18539 6.78477 6.14305 6.80066 6.12673 6.83658L6.05452 6.99557C6.00941 6.93064 5.95675 6.85714 5.89629 6.77463L5.97109 6.60994C5.9874 6.57402 5.97151 6.53168 5.93559 6.51537C5.89967 6.49906 5.85733 6.51495 5.84102 6.55087L5.79909 6.64319L5.72704 6.54704L5.82823 6.32423C5.84455 6.28831 5.82865 6.24597 5.79273 6.22966C5.75682 6.21334 5.71448 6.22924 5.69816 6.26515L5.62899 6.41745C5.58543 6.36013 5.53949 6.30002 5.49114 6.23704L5.54654 6.02721C5.55662 5.98907 5.53386 5.94999 5.49572 5.93992Z" fill="#FFD018"/>
<path fill-rule="evenodd" clip-rule="evenodd" d="M5.97614 5.93992C6.01429 5.92984 6.05337 5.9526 6.06344 5.99074L6.09075 6.09415C6.09211 6.09238 6.09348 6.09061 6.09485 6.08883C6.11897 6.05761 6.16382 6.05185 6.19505 6.07596C6.22627 6.10007 6.23203 6.14493 6.20792 6.17615C6.19137 6.19758 6.17504 6.21876 6.15893 6.23968L6.24125 6.31569C6.27023 6.34245 6.27203 6.38764 6.24527 6.41663C6.21851 6.44561 6.17332 6.44741 6.14433 6.42065L6.0716 6.35348C6.02817 6.41025 5.98655 6.46492 5.94679 6.51744L6.08372 6.59095C6.11848 6.60961 6.13153 6.65291 6.11287 6.68767C6.09421 6.72243 6.05091 6.73548 6.01615 6.71682L5.85976 6.63286C5.82224 6.68284 5.78667 6.73053 5.75308 6.77585L5.94086 6.87666C5.97562 6.89532 5.98867 6.93863 5.97001 6.97338C5.95135 7.00814 5.90805 7.02119 5.87329 7.00253L5.66753 6.89206C5.6128 6.96693 5.56482 7.0337 5.52386 7.09189L5.65515 7.16238C5.68991 7.18104 5.70296 7.22434 5.6843 7.2591C5.66564 7.29385 5.62233 7.3069 5.58758 7.28824L5.44227 7.21023C5.38183 7.30029 5.35054 7.35432 5.35054 7.36854C5.35054 7.40799 5.31856 7.43997 5.27911 7.43997C5.23966 7.43997 5.20768 7.40799 5.20768 7.36854C5.20768 7.33238 5.24529 7.25634 5.32389 7.13448C5.32275 7.1325 5.3217 7.13047 5.32076 7.12838L5.21506 6.89566C5.19875 6.85974 5.21464 6.8174 5.25056 6.80108C5.28647 6.78477 5.32882 6.80066 5.34513 6.83658L5.41734 6.99557C5.46245 6.93064 5.51511 6.85714 5.57557 6.77463L5.50077 6.60994C5.48446 6.57402 5.50035 6.53168 5.53627 6.51537C5.57219 6.49906 5.61453 6.51495 5.63084 6.55087L5.67277 6.64319L5.74482 6.54704L5.64363 6.32423C5.62732 6.28831 5.64321 6.24597 5.67913 6.22966C5.71505 6.21334 5.75739 6.22924 5.7737 6.26515L5.84287 6.41745C5.88643 6.36013 5.93237 6.30002 5.98072 6.23704L5.92532 6.02721C5.91525 5.98907 5.938 5.94999 5.97614 5.93992Z" fill="#FFD018"/>
</g>
<rect x="3" y="1" width="16" height="12" fill="url(#paint0_linear)" style="mix-blend-mode:overlay"/>
</g>
<defs>
<filter id="filter0_d" x="0" y="0" width="22" height="18" filterUnits="userSpaceOnUse" color-interpolation-filters="sRGB">
<feFlood flood-opacity="0" result="BackgroundImageFix"/>
<feColorMatrix in="SourceAlpha" type="matrix" values="0 0 0 0 0 0 0 0 0 0 0 0 0 0 0 0 0 0 127 0" result="hardAlpha"/>
<feOffset dy="2"/>
<feGaussianBlur stdDeviation="1.5"/>
<feColorMatrix type="matrix" values="0 0 0 0 0 0 0 0 0 0 0 0 0 0 0 0 0 0 0.1 0"/>
<feBlend mode="normal" in2="BackgroundImageFix" result="effect1_dropShadow"/>
<feBlend mode="normal" in="SourceGraphic" in2="effect1_dropShadow" result="shape"/>
</filter>
<linearGradient id="paint0_linear" x1="11" y1="1" x2="11" y2="13" gradientUnits="userSpaceOnUse">
<stop stop-color="white" stop-opacity="0.7"/>
<stop offset="1" stop-opacity="0.3"/>
</linearGradient>
</defs>
</svg>
