<svg width="22" height="18" viewBox="0 0 22 18" fill="none" xmlns="http://www.w3.org/2000/svg">
<g filter="url(#filter0_d)">
<mask id="mask0" style="mask-type:alpha" maskUnits="userSpaceOnUse" x="3" y="1" width="16" height="12">
<rect x="3" y="1" width="16" height="12" fill="white"/>
</mask>
<g mask="url(#mask0)">
<path fill-rule="evenodd" clip-rule="evenodd" d="M3 1H19V13H3V1Z" fill="#2E42A5"/>
<path d="M10.8502 9.98944C10.9014 9.93748 10.9856 9.98944 10.9856 9.98944C10.9856 9.98944 11.2286 9.8159 11.2286 9.78751C11.2286 9.75912 11.1114 9.41513 11.2101 9.29594C11.3087 9.17676 12.1092 8.75885 12.1837 8.78253C12.2582 8.80621 12.4435 9.17252 12.5039 9.17252C12.5642 9.17252 12.739 9.18064 12.739 9.1227C12.739 9.06475 12.6817 8.82729 12.8645 8.71408C13.0473 8.60086 13.1786 8.47237 13.2794 8.57822C13.3802 8.68406 13.4238 8.61613 13.4238 8.61613C13.4238 8.61613 13.4534 8.46784 13.398 8.42393C13.3427 8.38002 13.2284 8.28281 13.343 8.22173C13.4576 8.16064 13.5516 8.1775 13.5516 8.1775L13.6295 8.05744L13.5516 7.90526L13.9298 7.47188L13.8748 7.37078C13.8748 7.37078 13.9602 7.31493 13.9744 7.22631C13.9886 7.1377 14.0431 7.07801 13.9298 7.02785C13.8165 6.9777 13.778 7.05844 13.7396 7.07801C13.7012 7.09758 13.6869 7.15173 13.6869 7.15173L13.6295 7.02785C13.6295 7.02785 13.2622 6.88423 13.1321 6.88423C13.0021 6.88423 12.8983 6.88633 12.9579 6.70308C13.0175 6.51984 13.0903 6.47757 13.0496 6.42295C13.0089 6.36832 12.99 6.47757 12.8645 6.39035C12.739 6.30313 12.488 6.2755 12.488 6.13438C12.488 5.99326 12.2053 5.49828 12.0937 5.49828C11.9822 5.49828 11.9585 5.54041 11.9585 5.54041C11.9585 5.54041 11.3946 5.39913 11.3946 5.34873C11.3946 5.29834 11.484 5.18865 11.484 5.18865C11.484 5.18865 11.3859 4.96846 11.2937 5.00527C11.2016 5.04209 11.0289 5.21462 10.9395 5.21462C10.8502 5.21462 10.7 5.22657 10.7 5.22657C10.7 5.22657 11.0289 5.55289 10.9395 5.69599C10.8502 5.83908 10.7785 5.94271 10.7785 5.94271L10.6668 5.93744L10.4296 6.12332L10.5321 6.33817C10.5321 6.33817 10.3675 6.52615 10.3023 6.52615C10.2371 6.52615 10.1439 6.47034 10.038 6.52615C9.93213 6.58197 9.82349 6.56839 9.82349 6.56839C9.82349 6.56839 9.6691 6.66744 9.6691 6.70308C9.6691 6.73873 9.63242 6.81788 9.63242 6.81788H9.47008L9.25878 6.72415C9.25878 6.72415 8.96887 6.83578 9.00374 6.95689C9.03861 7.07801 9.38428 7.17226 9.38428 7.17226L9.28514 7.31549C9.28514 7.31549 9.33156 7.59774 9.42841 7.64776C9.52526 7.69778 9.7052 8.00636 9.7052 8.00636L9.63242 8.09421C9.63242 8.09421 9.75792 8.14432 9.75792 8.24542C9.75792 8.34653 9.90806 8.3697 9.90806 8.3697L10.038 8.33781L10.0548 8.40129L10.1585 8.4371L10.1912 8.48607C10.1912 8.48607 10.7104 9.01896 10.6668 9.1227C10.6232 9.22643 10.7413 9.4418 10.7413 9.4418L10.8141 9.69381L10.6668 9.83766C10.6668 9.83766 10.7989 10.0414 10.8502 9.98944Z" fill="#E8AB02"/>
<path fill-rule="evenodd" clip-rule="evenodd" d="M11.8973 3.97412L11.5121 4.19265L11.6222 3.74851L11.2531 3.42213H11.7351L11.8968 3.00183L12.0863 3.42213H12.4972L12.1744 3.74851L12.3296 4.19265L11.8973 3.97412ZM13.332 4.53714L13.7172 4.31861L14.1494 4.53714L13.9942 4.093L14.317 3.76662H13.9062L13.7166 3.34632L13.555 3.76662H13.073L13.442 4.093L13.332 4.53714ZM14.9835 4.99818L15.3687 4.77965L15.801 4.99818L15.6458 4.55404L15.9686 4.22766H15.5577L15.3682 3.80736L15.2065 4.22766H14.7245L15.0936 4.55404L14.9835 4.99818ZM6.29036 4.99818L6.67557 4.77965L7.1078 4.99818L6.95257 4.55404L7.2754 4.22766H6.86454L6.67499 3.80736L6.51334 4.22766H6.03137L6.40038 4.55404L6.29036 4.99818ZM8.32711 4.31861L7.9419 4.53714L8.05192 4.093L7.68291 3.76662H8.16488L8.32653 3.34632L8.51608 3.76662H8.92694L8.60411 4.093L8.75934 4.53714L8.32711 4.31861ZM9.75966 4.19265L10.1449 3.97412L10.5771 4.19265L10.4219 3.74851L10.7447 3.42213H10.3338L10.1443 3.00183L9.98264 3.42213H9.50067L9.86968 3.74851L9.75966 4.19265Z" fill="#F7FCFF"/>
</g>
<rect x="3" y="1" width="16" height="12" fill="url(#paint0_linear)" style="mix-blend-mode:overlay"/>
</g>
<defs>
<filter id="filter0_d" x="0" y="0" width="22" height="18" filterUnits="userSpaceOnUse" color-interpolation-filters="sRGB">
<feFlood flood-opacity="0" result="BackgroundImageFix"/>
<feColorMatrix in="SourceAlpha" type="matrix" values="0 0 0 0 0 0 0 0 0 0 0 0 0 0 0 0 0 0 127 0" result="hardAlpha"/>
<feOffset dy="2"/>
<feGaussianBlur stdDeviation="1.5"/>
<feColorMatrix type="matrix" values="0 0 0 0 0 0 0 0 0 0 0 0 0 0 0 0 0 0 0.1 0"/>
<feBlend mode="normal" in2="BackgroundImageFix" result="effect1_dropShadow"/>
<feBlend mode="normal" in="SourceGraphic" in2="effect1_dropShadow" result="shape"/>
</filter>
<linearGradient id="paint0_linear" x1="11" y1="1" x2="11" y2="13" gradientUnits="userSpaceOnUse">
<stop stop-color="white" stop-opacity="0.7"/>
<stop offset="1" stop-opacity="0.3"/>
</linearGradient>
</defs>
</svg>
