<svg width="22" height="18" viewBox="0 0 22 18" fill="none" xmlns="http://www.w3.org/2000/svg">
<g filter="url(#filter0_d)">
<rect x="3" y="1" width="16" height="12" fill="white"/>
<path d="M8.54518 11.6145C8.21224 11.7151 7.73258 11.9214 7.54072 12.0371C7.47865 12.0774 7.48429 12.1226 7.58022 12.2937C7.64794 12.4044 7.71565 12.5 7.72694 12.5C7.74387 12.5 7.93009 12.4245 8.13888 12.3289C8.34768 12.2384 8.61446 12.1189 8.73705 12.0975C8.8308 12.0811 8.91642 12.0656 8.96941 12.046C8.99075 12.0922 8.97763 12.0665 9.01651 12.1391C9.0724 12.2434 9.03761 12.241 9.13428 12.2695C9.2362 12.2996 9.48758 12.178 9.48758 12.178C9.78102 12.0874 9.94466 12.0774 10.9999 12.0774C12.0552 12.0774 12.2188 12.0874 12.5123 12.183C12.5123 12.183 12.7484 12.2546 12.7787 12.2633C12.8089 12.2719 12.8248 12.2787 12.8567 12.2719C12.8858 12.2657 12.916 12.226 12.9294 12.2021C12.9294 12.2021 12.9943 12.0631 13.011 12.0143C13.0672 12.0384 13.1697 12.0698 13.2684 12.0975C13.3869 12.1327 13.6522 12.2384 13.861 12.3289C14.0697 12.4245 14.256 12.5 14.2729 12.5C14.2842 12.5 14.3519 12.4044 14.4196 12.2937C14.555 12.0572 14.5663 12.0774 14.0754 11.8509C13.4208 11.5491 12.7662 11.4132 12.7041 11.5591C12.6928 11.5868 12.6833 11.603 12.6678 11.6389C12.6022 11.6254 12.4304 11.5893 12.2583 11.5642C11.7279 11.4786 10.272 11.4786 9.74151 11.5642C9.5694 11.5893 9.45304 11.6313 9.3558 11.6553C9.30075 11.5571 9.31227 11.5962 9.30098 11.5685C9.25584 11.4679 8.95712 11.4836 8.54518 11.6145H8.54518Z" fill="#DFDFDF"/>
<path d="M9.02473 5.3965C9.01336 5.56046 9.04747 5.67643 9.13653 5.76441C9.17632 5.8064 9.21043 5.85639 9.21043 5.85639C9.21043 5.85639 9.16495 5.90638 9.12705 5.94437C9.03799 6.03235 9.00199 6.14632 9.00199 6.26629C9.00199 6.39026 9.03799 6.47624 9.13463 6.58822C9.13463 6.58822 9.21621 6.62927 9.21422 6.68019C9.21223 6.73112 9.12705 6.78217 9.12705 6.78217C8.95272 6.98612 8.95841 7.22006 9.14032 7.41402L9.21801 7.5H11.003H12.7861L12.8733 7.40202C13.0419 7.21207 13.0419 7.00612 12.8752 6.78817C12.8752 6.78817 12.7913 6.72832 12.7899 6.6782C12.7885 6.62807 12.8695 6.57822 12.8695 6.57822C13.0438 6.35827 13.04 6.15632 12.86 5.94437C12.7785 5.85039 12.7766 5.8324 12.8411 5.78841C12.9453 5.71442 13.0097 5.46448 12.9623 5.31252C12.8922 5.08457 12.5909 4.93261 12.4071 5.03258C12.373 5.05058 12.3048 5.10057 12.2536 5.14256C12.2025 5.18655 12.1551 5.22054 12.1456 5.22054C12.1381 5.22054 12.0926 5.18455 12.0452 5.14056C11.8614 4.9746 11.6401 4.9546 11.4563 5.14256C11.4563 5.14256 11.4301 5.24311 11.3915 5.24653C11.3529 5.24996 11.2986 5.15655 11.2986 5.15655C11.111 4.9706 10.8761 4.9786 10.6847 5.17455C10.6847 5.17455 10.6578 5.25641 10.6146 5.24653C10.5713 5.23666 10.5357 5.14056 10.5357 5.14056C10.4239 5.03258 10.3531 5.03458 10.2242 5.03258C10.15 5.03138 10.0157 5.04943 9.9345 5.1101C9.85334 5.17077 9.86767 5.24346 9.84902 5.23854C9.80212 5.22616 9.75048 5.15056 9.75048 5.15056C9.56857 4.98659 9.42266 4.9586 9.24644 5.05658C9.1081 5.13256 9.0361 5.24454 9.02473 5.3965Z" fill="#171796"/>
<path d="M9.14243 8.24595C9.14243 8.24595 9.21507 8.28133 9.21256 8.32665C9.21005 8.37198 9.13295 8.41719 9.13295 8.41719C9.08935 8.4664 9.04196 8.53725 9.0268 8.57268C8.96614 8.72423 9.01164 8.92696 9.13105 9.04308C9.20308 9.11591 9.20498 9.14543 9.13674 9.23203C9.10641 9.26943 9.0704 9.32257 9.05713 9.35013C8.91497 9.62961 9.12726 9.97996 9.44191 9.97996C9.56702 9.97996 9.66179 9.93862 9.74709 9.84415C9.81533 9.76936 9.85134 9.76739 9.91199 9.83431C10.0011 9.93666 10.1186 9.99964 10.2172 9.99964C10.3328 9.99964 10.4048 9.96224 10.5223 9.84612C10.5223 9.84612 10.5689 9.75509 10.6114 9.75558C10.6539 9.75607 10.6929 9.84809 10.6929 9.84809C10.8692 10.0449 11.0474 10.0508 11.2843 9.86383C11.2843 9.86383 11.3364 9.78806 11.381 9.78904C11.4256 9.79001 11.4644 9.86777 11.4644 9.86777C11.5687 9.96224 11.6464 9.99964 11.7487 9.99964C11.8511 9.99964 11.9269 9.95831 12.0463 9.83628C12.0463 9.83628 12.108 9.7437 12.1449 9.73787C12.1818 9.73203 12.2207 9.80872 12.2207 9.80872C12.3667 9.94453 12.4463 9.98783 12.5524 9.98783C12.6624 9.98783 12.7401 9.95043 12.85 9.84809C12.9524 9.75164 13.0073 9.63946 12.9941 9.54695C12.9808 9.44657 12.8936 9.26353 12.8292 9.20054C12.8292 9.20054 12.7645 9.19491 12.7742 9.14543C12.7838 9.09596 12.8595 9.04505 12.8595 9.04505C13.0452 8.81871 13.0471 8.64354 12.8633 8.41916C12.8633 8.41916 12.7865 8.37482 12.7875 8.32469C12.7884 8.27455 12.8671 8.22431 12.8671 8.22431C13.0452 8.00583 13.0434 7.80311 12.8633 7.60432L12.7666 7.5L10.9924 7.50197L9.21825 7.50394L9.13864 7.59644C8.95288 7.81098 8.95477 8.02945 9.14243 8.24595Z" fill="#D42E12"/>
<path fill-rule="evenodd" clip-rule="evenodd" d="M11.9103 7.81082C11.9962 7.81082 12.0677 7.86932 12.0825 7.94645L12.0853 7.97618V8.28359L12.4531 8.08833C12.5345 8.04512 12.6359 8.0753 12.6796 8.15575C12.7185 8.22726 12.6987 8.31442 12.6366 8.36326L12.6114 8.37967L12.3031 8.54334L12.6114 8.70701L12.6366 8.72342C12.6987 8.77226 12.7185 8.85942 12.6796 8.93093C12.6359 9.01138 12.5345 9.04157 12.4531 8.99835L12.0853 8.80309V9.14547C12.0853 9.23679 12.0069 9.31082 11.9103 9.31082C11.8244 9.31082 11.7529 9.25233 11.7381 9.17519L11.7353 9.14547V8.84482L11.4461 8.99835C11.3647 9.04157 11.2633 9.01138 11.2195 8.93093C11.1807 8.85942 11.2005 8.77226 11.2625 8.72342L11.2878 8.70701L11.596 8.54334L11.2878 8.37967L11.2625 8.36326C11.2005 8.31442 11.1807 8.22726 11.2195 8.15575C11.2633 8.0753 11.3647 8.04512 11.4461 8.08833L11.7353 8.24187V7.97618C11.7353 7.88485 11.8136 7.81082 11.9103 7.81082Z" fill="#E9D315"/>
<path fill-rule="evenodd" clip-rule="evenodd" d="M10.2107 7.81082C10.2966 7.81082 10.3681 7.86932 10.3829 7.94645L10.3857 7.97618V8.28359L10.7535 8.08833C10.8349 8.04512 10.9363 8.0753 10.98 8.15575C11.0189 8.22726 10.9991 8.31442 10.9371 8.36326L10.9118 8.37967L10.6036 8.54334L10.9118 8.70701L10.9371 8.72342C10.9991 8.77226 11.0189 8.85942 10.98 8.93093C10.9363 9.01138 10.8349 9.04157 10.7535 8.99835L10.3857 8.80309V9.14547C10.3857 9.23679 10.3074 9.31082 10.2107 9.31082C10.1248 9.31082 10.0533 9.25233 10.0385 9.17519L10.0357 9.14547V8.84482L9.74652 8.99835C9.66512 9.04157 9.56368 9.01138 9.51995 8.93093C9.48108 8.85942 9.5009 8.77226 9.56295 8.72342L9.58817 8.70701L9.89645 8.54334L9.58817 8.37967L9.56295 8.36326C9.5009 8.31442 9.48108 8.22726 9.51995 8.15575C9.56368 8.0753 9.66512 8.04512 9.74652 8.08833L10.0357 8.24187V7.97618C10.0357 7.88485 10.1141 7.81082 10.2107 7.81082Z" fill="#E9D315"/>
<path d="M8.4014 7.42825H8.5014V7.42826C8.5014 7.42868 8.50141 7.4442 8.50143 7.47265C8.44481 7.47091 8.40258 7.42947 8.40143 7.42834L8.4014 7.42832L8.4014 7.42839L8.4014 7.42868L8.4014 7.42984L8.40141 7.43442L8.40142 7.45235L8.40145 7.52097L8.40162 7.77059L8.40233 8.57027C8.403 9.17812 8.40407 9.86353 8.40568 10.176C8.40234 10.2454 8.42222 10.2995 8.46255 10.3445C8.47998 10.3639 8.49962 10.3799 8.5164 10.3928C8.52477 10.3993 8.53175 10.4045 8.5385 10.4096C8.54786 10.4166 8.55675 10.4233 8.56823 10.4324C8.61754 10.4715 8.69914 10.5005 8.78774 10.5234C8.88137 10.5476 8.99924 10.5688 9.13406 10.5848C9.40276 10.6167 9.74484 10.6286 10.1076 10.6002C10.2566 10.6017 10.3645 10.6307 10.4463 10.6702C10.5289 10.7102 10.5898 10.7634 10.6419 10.8197C10.6683 10.8483 10.6919 10.8771 10.7159 10.9064L10.7176 10.9084C10.7403 10.9362 10.7644 10.9657 10.7893 10.9917C10.8403 11.045 10.9097 11.1 11.0093 11.1C11.1094 11.1 11.1781 11.0445 11.228 10.9903C11.2528 10.9634 11.2765 10.9328 11.2985 10.9044L11.2999 10.9026C11.3223 10.8737 11.3441 10.8456 11.3686 10.8176C11.4176 10.7613 11.4746 10.7088 11.5523 10.6694C11.6295 10.6302 11.7325 10.6013 11.8769 10.6001C12.2864 10.6064 12.636 10.5964 12.8993 10.5717C13.0309 10.5594 13.1432 10.5432 13.2316 10.5227C13.3137 10.5038 13.3923 10.4777 13.4421 10.4353L13.4456 10.4325L13.4577 10.4222C13.4676 10.4135 13.4811 10.4012 13.4955 10.3864C13.5214 10.3596 13.5618 10.3134 13.5803 10.259C13.5969 10.2104 13.6012 10.1664 13.6014 10.1343C13.6015 10.1181 13.6005 10.1046 13.5995 10.0947C13.5992 10.092 13.5989 10.0896 13.5986 10.0874V7.42825V4.5V4.4H13.4986H11H8.5014H8.4014V4.5V7.42825Z" stroke="black" stroke-width="0.2"/>
<path d="M10.4343 5.93288C10.3001 6.18276 10.2945 6.2949 10.406 6.49513C10.4929 6.6489 10.595 6.74662 10.7349 6.80909C11.0997 6.97408 11.5666 6.85234 11.75 6.54478C11.8634 6.35577 11.8502 6.0402 11.7254 5.90244L11.6914 5.8656L11.6593 5.97452C11.6139 6.1299 11.5685 6.20839 11.4778 6.29169C11.3077 6.44707 11.0733 6.48231 10.8313 6.3862C10.6442 6.31091 10.5686 6.20679 10.4986 5.91686L10.4816 5.84477L10.4343 5.93287L10.4343 5.93288Z" fill="white"/>
<path fill-rule="evenodd" clip-rule="evenodd" d="M12.022 2.886C12.022 3.252 11.786 3.52 11.454 3.52C11.122 3.52 10.888 3.252 10.888 2.886C10.888 2.518 11.122 2.252 11.454 2.252C11.786 2.252 12.022 2.518 12.022 2.886ZM7.49597 3.5V2.646L7.83397 3.5H7.98197L8.31197 2.646V3.5H8.51197V2.272H8.27997L7.90997 3.216L7.53597 2.272H7.29797V3.5H7.49597ZM8.89797 3.5L9.02397 3.16H9.49397L9.61997 3.5H9.83197L9.35997 2.272H9.15997L8.68797 3.5H8.89797ZM9.25797 2.526L9.08997 2.98H9.42597L9.25797 2.526ZM10.422 3.5V3.01L10.868 2.272H10.648L10.324 2.822L9.99797 2.272H9.77197L10.216 3.01V3.5H10.422ZM11.454 3.334C11.238 3.334 11.098 3.146 11.098 2.886C11.098 2.626 11.238 2.438 11.454 2.438C11.67 2.438 11.812 2.626 11.812 2.886C11.812 3.146 11.67 3.334 11.454 3.334ZM12.698 2.456V3.5H12.49V2.456H12.082V2.272H13.106V2.456H12.698ZM13.842 3.5V2.456H14.25V2.272H13.226V2.456H13.634V3.5H13.842ZM15.248 3.314V3.5H14.446V2.272H15.248V2.456H14.65V2.78H15.192V2.962H14.65V3.314H15.248Z" fill="#FF2500"/>
<path fill-rule="evenodd" clip-rule="evenodd" d="M15.8882 10.4001C15.8882 10.4001 15.7182 10.0652 16.1482 9.89992C16.5781 9.73465 16.7883 9.9503 16.9777 10.1504C17.167 10.3506 17.1462 10.9547 17.1462 10.9547L16.6783 11.7032L15.2427 12L14.6707 11.7032L14 10.4001L14.0501 9.1207C14.0501 9.1207 14.118 8.63065 14.118 8.5292C14.118 8.42775 14.4295 7.64147 14.4295 7.64147L14.7246 7.34918L15.559 6.90527L15.952 6.709L16.4399 6.09231L16.3859 5.60137L15.8298 6.30964H15.3589L14.8686 6.51502L14.6707 6.7016L14.4295 6.709L14.3351 6.51502L14.5983 6.09231L14.996 5.69196L14.8131 5.3534L15.0838 5.23006L15.0317 5.04344L15.3322 5.23006L15.559 5.04344L15.6022 4.8718L15.0838 4.59397C15.0838 4.59397 15.5911 4.38113 15.8298 4.40334C16.0686 4.42556 16.2939 4.70653 16.2939 4.70653L16.9777 4.59397C16.9777 4.59397 16.7946 5.04344 16.8538 5.04344C16.9129 5.04344 17.2843 5.04344 17.2843 5.04344L17.1462 5.60137H17.6757L17.2843 6.0312L17.5898 6.19876L17.1249 6.51502L17.5898 6.82784L17.1576 7.11178L17.4011 7.58264L17.7844 7.34918L18 7.64147L17.6757 8.36122L17.1462 8.73682L16.6418 8.86391L16.1482 8.9922L15.952 9.1207L15.8298 8.62825L14.996 9.20012L14.5628 10.0968L14.6903 10.9117L14.996 11.3289L15.559 11.5305L16.2939 11.3924L16.6783 10.9248L16.77 10.4476C16.77 10.4476 16.5474 10.1235 16.3859 10.1504C16.2244 10.1774 15.8882 10.4001 15.8882 10.4001Z" fill="#DFDFDF" stroke="black" stroke-width="0.2"/>
<path d="M15.0434 7.20969C15.0434 7.20969 15.9328 7.29217 16.1703 7.10337" stroke="black" stroke-width="0.2"/>
<path d="M14.3741 7.78676C14.3741 7.78676 15.2635 7.86924 15.501 7.68044" stroke="black" stroke-width="0.2"/>
<path d="M14.2248 8.31638C14.2248 8.31638 14.7048 8.39708 14.7523 8.23004" stroke="black" stroke-width="0.2"/>
<path fill-rule="evenodd" clip-rule="evenodd" d="M15.375 5.74998C15.306 5.74998 15.25 5.69402 15.25 5.62498C15.25 5.55595 15.306 5.49998 15.375 5.49998C15.444 5.49998 15.5 5.55595 15.5 5.62498C15.5 5.69402 15.444 5.74998 15.375 5.74998Z" fill="black"/>
<path fill-rule="evenodd" clip-rule="evenodd" d="M6.11176 10.4001C6.11176 10.4001 6.28179 10.0652 5.85183 9.89992C5.42188 9.73465 5.21173 9.9503 5.02234 10.1504C4.83296 10.3506 4.85377 10.9547 4.85377 10.9547L5.32174 11.7032L6.75731 12L7.32932 11.7032L8 10.4001L7.94988 9.1207C7.94988 9.1207 7.88205 8.63065 7.88205 8.5292C7.88205 8.42775 7.57047 7.64147 7.57047 7.64147L7.27542 7.34918L6.44096 6.90527L6.04803 6.709L5.56014 6.09231L5.61412 5.60137L6.17015 6.30964H6.64113L7.13138 6.51502L7.32932 6.7016L7.57047 6.709L7.66495 6.51502L7.40168 6.09231L7.00403 5.69196L7.18694 5.3534L6.91619 5.23006L6.96827 5.04344L6.66775 5.23006L6.44096 5.04344L6.39776 4.8718L6.91619 4.59397C6.91619 4.59397 6.40894 4.38113 6.17015 4.40334C5.93136 4.42556 5.70607 4.70653 5.70607 4.70653L5.02234 4.59397C5.02234 4.59397 5.20539 5.04344 5.14623 5.04344C5.08708 5.04344 4.71573 5.04344 4.71573 5.04344L4.85377 5.60137H4.32431L4.71573 6.0312L4.41017 6.19876L4.87509 6.51502L4.41017 6.82784L4.84244 7.11178L4.59889 7.58264L4.21559 7.34918L4 7.64147L4.32431 8.36122L4.85377 8.73682L5.35816 8.86391L5.85183 8.9922L6.04803 9.1207L6.17015 8.62825L7.00403 9.20012L7.43721 10.0968L7.30969 10.9117L7.00403 11.3289L6.44096 11.5305L5.70607 11.3924L5.32174 10.9248L5.22997 10.4476C5.22997 10.4476 5.45264 10.1235 5.61412 10.1504C5.77561 10.1774 6.11176 10.4001 6.11176 10.4001Z" fill="#DFDFDF" stroke="black" stroke-width="0.2"/>
<path d="M6.95662 7.20969C6.95662 7.20969 6.06715 7.29217 5.82966 7.10337" stroke="black" stroke-width="0.2"/>
<path d="M7.62593 7.78676C7.62593 7.78676 6.73646 7.86924 6.49897 7.68044" stroke="black" stroke-width="0.2"/>
<path d="M7.77524 8.31638C7.77524 8.31638 7.29525 8.39708 7.24774 8.23004" stroke="black" stroke-width="0.2"/>
<path fill-rule="evenodd" clip-rule="evenodd" d="M6.625 5.74998C6.69404 5.74998 6.75 5.69402 6.75 5.62498C6.75 5.55595 6.69404 5.49998 6.625 5.49998C6.55596 5.49998 6.5 5.55595 6.5 5.62498C6.5 5.69402 6.55596 5.74998 6.625 5.74998Z" fill="black"/>
<rect x="3" y="1" width="16" height="12" fill="url(#paint0_linear)" style="mix-blend-mode:overlay"/>
</g>
<defs>
<filter id="filter0_d" x="0" y="0" width="22" height="18" filterUnits="userSpaceOnUse" color-interpolation-filters="sRGB">
<feFlood flood-opacity="0" result="BackgroundImageFix"/>
<feColorMatrix in="SourceAlpha" type="matrix" values="0 0 0 0 0 0 0 0 0 0 0 0 0 0 0 0 0 0 127 0" result="hardAlpha"/>
<feOffset dy="2"/>
<feGaussianBlur stdDeviation="1.5"/>
<feColorMatrix type="matrix" values="0 0 0 0 0 0 0 0 0 0 0 0 0 0 0 0 0 0 0.1 0"/>
<feBlend mode="normal" in2="BackgroundImageFix" result="effect1_dropShadow"/>
<feBlend mode="normal" in="SourceGraphic" in2="effect1_dropShadow" result="shape"/>
</filter>
<linearGradient id="paint0_linear" x1="11" y1="1" x2="11" y2="13" gradientUnits="userSpaceOnUse">
<stop stop-color="white" stop-opacity="0.7"/>
<stop offset="1" stop-opacity="0.3"/>
</linearGradient>
</defs>
</svg>
