<svg width="22" height="18" viewBox="0 0 22 18" fill="none" xmlns="http://www.w3.org/2000/svg">
<g filter="url(#filter0_d)">
<mask id="mask0" style="mask-type:alpha" maskUnits="userSpaceOnUse" x="3" y="1" width="16" height="12">
<rect x="3" y="1" width="16" height="12" fill="white"/>
</mask>
<g mask="url(#mask0)">
<path fill-rule="evenodd" clip-rule="evenodd" d="M3 1H19V13H3V1Z" fill="#F7FCFF"/>
<path fill-rule="evenodd" clip-rule="evenodd" d="M3 1V5H19V1H3Z" fill="#E31D1C"/>
<path fill-rule="evenodd" clip-rule="evenodd" d="M3 9V13H19V9H3Z" fill="#3D58DB"/>
<mask id="path-6-outside-1" maskUnits="userSpaceOnUse" x="2" y="-3" width="18" height="20" fill="black">
<rect fill="white" x="2" y="-3" width="18" height="20"/>
<path fill-rule="evenodd" clip-rule="evenodd" d="M10.7143 6L3 0V14L10.7143 8H19V6H10.7143Z"/>
</mask>
<path fill-rule="evenodd" clip-rule="evenodd" d="M10.7143 6L3 0V14L10.7143 8H19V6H10.7143Z" fill="#5EAA22"/>
<path d="M3 0L3.61394 -0.789352L2 -2.04464V0H3ZM10.7143 6L10.1003 6.78935L10.3712 7H10.7143V6ZM3 14H2V16.0446L3.61394 14.7894L3 14ZM10.7143 8V7H10.3712L10.1003 7.21065L10.7143 8ZM19 8V9H20V8H19ZM19 6H20V5H19V6ZM2.38606 0.789352L10.1003 6.78935L11.3282 5.21065L3.61394 -0.789352L2.38606 0.789352ZM4 14V0H2V14H4ZM10.1003 7.21065L2.38606 13.2106L3.61394 14.7894L11.3282 8.78935L10.1003 7.21065ZM19 7H10.7143V9H19V7ZM18 6V8H20V6H18ZM10.7143 7H19V5H10.7143V7Z" fill="#F7FCFF" mask="url(#path-6-outside-1)"/>
<path d="M3.3 3.6L2.5 3V4V10V11L3.3 10.4L7.3 7.4L7.83333 7L7.3 6.6L3.3 3.6Z" fill="#272727" stroke="#FECA00"/>
</g>
<rect x="3" y="1" width="16" height="12" fill="url(#paint0_linear)" style="mix-blend-mode:overlay"/>
</g>
<defs>
<filter id="filter0_d" x="0" y="0" width="22" height="18" filterUnits="userSpaceOnUse" color-interpolation-filters="sRGB">
<feFlood flood-opacity="0" result="BackgroundImageFix"/>
<feColorMatrix in="SourceAlpha" type="matrix" values="0 0 0 0 0 0 0 0 0 0 0 0 0 0 0 0 0 0 127 0" result="hardAlpha"/>
<feOffset dy="2"/>
<feGaussianBlur stdDeviation="1.5"/>
<feColorMatrix type="matrix" values="0 0 0 0 0 0 0 0 0 0 0 0 0 0 0 0 0 0 0.1 0"/>
<feBlend mode="normal" in2="BackgroundImageFix" result="effect1_dropShadow"/>
<feBlend mode="normal" in="SourceGraphic" in2="effect1_dropShadow" result="shape"/>
</filter>
<linearGradient id="paint0_linear" x1="11" y1="1" x2="11" y2="13" gradientUnits="userSpaceOnUse">
<stop stop-color="white" stop-opacity="0.7"/>
<stop offset="1" stop-opacity="0.3"/>
</linearGradient>
</defs>
</svg>
