<svg width="22" height="18" viewBox="0 0 22 18" fill="none" xmlns="http://www.w3.org/2000/svg">
<g filter="url(#filter0_d)">
<mask id="mask0" style="mask-type:alpha" maskUnits="userSpaceOnUse" x="3" y="1" width="16" height="12">
<rect x="3" y="1" width="16" height="12" fill="white"/>
</mask>
<g mask="url(#mask0)">
<path fill-rule="evenodd" clip-rule="evenodd" d="M3 1H19V13H3V1Z" fill="#F7FCFF"/>
<path fill-rule="evenodd" clip-rule="evenodd" d="M3 1V13H19V1H3Z" fill="#5EAA22"/>
<mask id="mask1" style="mask-type:alpha" maskUnits="userSpaceOnUse" x="3" y="1" width="16" height="12">
<path fill-rule="evenodd" clip-rule="evenodd" d="M3 1V13H19V1H3Z" fill="white"/>
</mask>
<g mask="url(#mask1)">
<rect x="16" y="6" width="3" height="7" fill="#FF8126"/>
<rect x="13" y="6" width="3" height="7" fill="#272727"/>
<rect x="10" y="6" width="3" height="7" fill="#C51918"/>
<path fill-rule="evenodd" clip-rule="evenodd" d="M13.8076 2.55846C14.0783 2.65797 13.8076 2.8103 13.8076 2.8103C13.8076 2.8103 13.7542 2.74819 13.7542 2.69632C13.7542 2.64446 13.5468 2.69632 13.4399 2.88453C13.3386 3.0629 13.5253 3.06238 13.7217 3.06184C13.7325 3.06181 13.7433 3.06178 13.7542 3.06178C13.8651 3.06178 14.0386 3.05086 14.2 3.04069C14.3403 3.03186 14.4714 3.0236 14.5443 3.0236C14.7009 3.0236 14.7751 3.0236 14.9818 2.88453C15.1161 2.79413 15.5604 2.68347 15.8908 2.6012C16.0686 2.55691 16.2134 2.52084 16.259 2.50059C16.3894 2.44273 16.1286 2.74819 16.1286 2.74819C16.1286 2.74819 17.1346 2.34245 17.3362 2.2039C17.4607 2.1183 17.4043 2.19136 17.3122 2.31065C17.2552 2.38443 17.1846 2.47591 17.1346 2.55846C17.0496 2.6991 17.2228 2.56501 17.4152 2.41609C17.5183 2.33629 17.6269 2.25224 17.7042 2.2039C17.9258 2.06535 17.6479 2.44117 17.5257 2.55846C17.4035 2.67574 17.8125 2.55846 17.9542 2.44117C18.0584 2.35486 17.9632 2.50572 17.8831 2.63272C17.8543 2.67831 17.8275 2.72082 17.8126 2.74819L17.8102 2.75255C17.7554 2.8527 17.738 2.88453 17.8692 2.88453C18.0023 2.88453 17.5257 3.25506 17.5257 3.25506C17.5257 3.25506 17.6677 3.23252 17.5257 3.47924C17.442 3.62467 17.0344 3.77158 16.7035 3.89086C16.4731 3.97392 16.2798 4.04359 16.259 4.09002C16.2217 4.17339 15.8505 4.26995 15.6775 4.31495C15.6158 4.331 15.5794 4.34049 15.5922 4.34049C15.641 4.34049 15.7222 4.40227 15.6341 4.40227C15.5459 4.40227 15.3911 4.4521 15.3911 4.4521C15.3911 4.4521 15.4726 4.4521 15.3911 4.56819C15.3521 4.6238 15.2837 4.61499 15.2357 4.60882C15.1835 4.6021 15.1555 4.59849 15.2158 4.68428C15.27 4.76141 15.2899 4.78964 15.2837 4.79787C15.2765 4.8072 15.2356 4.79075 15.1728 4.79075C15.1167 4.79075 15.0567 4.76673 14.9937 4.74151C14.9241 4.71363 14.8509 4.68428 14.7751 4.68428C14.6365 4.68428 14.7756 4.78239 14.8625 4.84367C14.8661 4.84623 14.8697 4.84873 14.8731 4.85115C14.9506 4.90601 14.9183 4.9059 14.7779 4.90542C14.7638 4.90537 14.7485 4.90532 14.7322 4.90532C14.6451 4.90532 14.5983 4.89582 14.5731 4.89072C14.5467 4.88536 14.5443 4.88486 14.5443 4.90532C14.5443 4.92494 14.4786 4.89763 14.3997 4.86476C14.3179 4.83073 14.2218 4.79075 14.1695 4.79075C14.0667 4.79075 14.3876 5.00296 14.3876 5.00296C14.3876 5.00296 14.2204 4.9489 14.1299 4.90532C14.0784 4.88055 14.1438 4.9974 14.2029 5.10288C14.2477 5.18297 14.2888 5.25651 14.2724 5.25651C14.2599 5.25651 14.2323 5.24329 14.201 5.22822C14.1365 5.1973 14.0559 5.1586 14.0559 5.21043C14.0559 5.28753 14.1299 5.34481 14.2204 5.34481C14.3109 5.34481 14.3258 5.46522 14.2724 5.46522C14.2538 5.46522 14.231 5.45725 14.2091 5.4496C14.1679 5.43519 14.1299 5.42191 14.1299 5.46522C14.1299 5.49316 14.146 5.51407 14.1646 5.53828C14.1901 5.57151 14.2204 5.61094 14.2204 5.68323C14.2204 5.80819 14.0857 5.82597 14.1299 5.74316C14.1741 5.66034 13.9766 5.46044 13.9766 5.55828V5.68323C13.9766 5.77158 13.9595 5.77722 13.9329 5.78604C13.9166 5.79147 13.8966 5.7981 13.8747 5.82597C13.842 5.86758 13.8371 5.89125 13.8343 5.90451C13.8316 5.91764 13.831 5.92056 13.8076 5.92056C13.7891 5.92056 13.7737 5.89295 13.7529 5.85584C13.7211 5.79887 13.6768 5.71952 13.5895 5.68323C13.5066 5.64876 13.5023 5.67378 13.4947 5.71701C13.4892 5.74893 13.4819 5.79079 13.4399 5.82597C13.3769 5.87884 13.3943 5.90077 13.4152 5.92699C13.427 5.94184 13.4399 5.95806 13.4399 5.98207C13.4399 6.04845 13.3296 5.91569 13.3296 5.82597C13.3296 5.73626 13.2042 5.61691 13.2042 5.68323C13.2042 5.74956 13.2042 5.82597 13.1398 5.82597C13.1088 5.82597 13.1076 5.84809 13.1061 5.87779C13.1044 5.90979 13.1023 5.95061 13.0618 5.98207C13.022 6.01306 13.0228 5.99654 13.0248 5.96024C13.0266 5.9255 13.0294 5.87264 12.9984 5.82597C12.9596 5.76758 12.992 5.67721 13.0085 5.63125C13.0189 5.6021 13.023 5.59082 12.9984 5.61691C12.9358 5.68326 12.8559 5.68325 12.8019 5.68323L12.7998 5.68323C12.7726 5.68323 12.7489 5.71781 12.732 5.74241C12.7153 5.76668 12.7053 5.78122 12.7053 5.74316C12.7053 5.66654 12.7853 5.46522 12.9358 5.46522C13.0517 5.46522 13.1101 5.41819 13.1603 5.37778C13.1752 5.36573 13.1894 5.35426 13.2042 5.34481C13.2687 5.30367 13.2042 5.24999 13.1398 5.21043C13.1105 5.19246 13.1211 5.13452 13.1415 5.08277C13.1772 5.05976 13.2042 5.03136 13.2042 5.00296C13.2042 4.96738 13.1659 5.02062 13.1415 5.08277C13.0951 5.11258 13.0342 5.13334 12.9984 5.13334C12.964 5.13334 12.9855 5.07115 13.0124 4.99334C13.0352 4.9276 13.0618 4.8507 13.0618 4.79075C13.0618 4.73367 13.0713 4.68404 13.0779 4.64972C13.0864 4.60535 13.09 4.58657 13.0618 4.61033C13.0268 4.63983 12.8405 4.60738 12.7134 4.58526C12.659 4.57578 12.6154 4.56819 12.5993 4.56819C12.5756 4.56819 12.5947 4.52356 12.6137 4.47918C12.6377 4.42331 12.6614 4.36784 12.5993 4.40227C12.502 4.45622 12.304 4.45394 12.1788 4.4525C12.1606 4.45229 12.144 4.4521 12.1294 4.4521C12.0562 4.4521 12.1065 4.38753 12.1334 4.3529C12.1488 4.33313 12.1566 4.32312 12.1294 4.34049C12.0547 4.38827 11.9804 4.40227 11.8964 4.40227C11.8585 4.40227 11.8477 4.37981 11.8358 4.35523C11.8214 4.32528 11.8054 4.29218 11.7372 4.29272C11.6129 4.29368 11.585 4.29175 11.5166 4.23778C11.481 4.20969 11.501 4.19318 11.5124 4.1838C11.5228 4.17516 11.5259 4.17257 11.4715 4.17257H11.1343C10.9664 4.17257 11.1349 4.04177 11.1954 4.04177C11.2559 4.04177 11.3261 3.92407 11.1954 3.97692C11.1117 4.01075 11.0222 4.00127 10.9164 3.99007C10.8568 3.98377 10.7921 3.97692 10.7204 3.97692C10.5212 3.97692 10.483 3.88486 10.6008 3.88486C10.7186 3.88486 10.7256 3.81742 10.5425 3.81742C10.4276 3.81742 10.3332 3.78624 10.2628 3.763C10.2209 3.74919 10.1876 3.73819 10.1635 3.73819C10.0989 3.73819 10.0291 3.64742 10.1635 3.64742C10.298 3.64742 10.4705 3.57176 10.3234 3.57176C10.2402 3.57176 10.1016 3.52752 9.98094 3.48903C9.88805 3.45939 9.80585 3.43316 9.76789 3.43316C9.73875 3.43316 9.78432 3.42338 9.84502 3.41035C9.96607 3.38437 10.1473 3.34547 9.91617 3.34547C9.66933 3.34547 9.4107 3.14431 9.23206 3.00536C9.15954 2.94895 9.1002 2.9028 9.0602 2.88453C8.92165 2.82126 9.0602 2.69632 9.1001 2.74819C9.14001 2.80005 9.41946 2.87981 9.29842 2.8103C9.17738 2.74079 9.1001 2.6225 9.0602 2.55846C9.02029 2.49441 9.05101 2.45018 9.1001 2.50059C9.1492 2.55101 9.37574 2.69632 9.37574 2.69632C9.37574 2.69632 9.25453 2.55846 9.15831 2.34245C9.06209 2.12644 9.25453 2.17906 9.41946 2.34245C9.58438 2.50584 9.739 2.54907 9.81664 2.55846C9.89427 2.56784 9.739 2.44077 9.58956 2.34245C9.44012 2.24413 9.47404 1.89216 9.58956 2.0327C9.64966 2.10581 9.93438 2.24515 10.2129 2.38143C10.4697 2.5071 10.7212 2.63018 10.7863 2.69632C10.899 2.81079 10.8083 2.64015 10.7101 2.4553C10.69 2.4175 10.6696 2.37912 10.6506 2.34245C10.5853 2.21688 10.8474 2.35956 11.1456 2.52188C11.3603 2.63878 11.5938 2.76587 11.7372 2.8103C11.836 2.8409 11.9539 2.88991 12.0718 2.93887C12.3627 3.05969 12.653 3.18027 12.653 3.0236C12.653 2.80344 12.919 2.45894 13.2042 2.34245C13.3853 2.26852 13.4705 2.33535 13.5779 2.41949C13.6396 2.46793 13.7087 2.5221 13.8076 2.55846ZM13.5007 5.14244C13.5651 5.14244 13.5475 4.47346 13.5475 4.47346C13.5475 4.47346 13.7375 4.88369 13.7375 5.06121C13.7375 5.14228 13.7318 5.16624 13.7336 5.18962C13.7357 5.21744 13.7486 5.24443 13.7945 5.36576C13.8414 5.48952 13.8103 5.47612 13.7257 5.43957C13.6575 5.41016 13.5546 5.36576 13.4297 5.36576C13.1494 5.36576 13.4363 5.14244 13.5007 5.14244Z" fill="#FF8126"/>
</g>
</g>
<rect x="3" y="1" width="16" height="12" fill="url(#paint0_linear)" style="mix-blend-mode:overlay"/>
</g>
<defs>
<filter id="filter0_d" x="0" y="0" width="22" height="18" filterUnits="userSpaceOnUse" color-interpolation-filters="sRGB">
<feFlood flood-opacity="0" result="BackgroundImageFix"/>
<feColorMatrix in="SourceAlpha" type="matrix" values="0 0 0 0 0 0 0 0 0 0 0 0 0 0 0 0 0 0 127 0" result="hardAlpha"/>
<feOffset dy="2"/>
<feGaussianBlur stdDeviation="1.5"/>
<feColorMatrix type="matrix" values="0 0 0 0 0 0 0 0 0 0 0 0 0 0 0 0 0 0 0.1 0"/>
<feBlend mode="normal" in2="BackgroundImageFix" result="effect1_dropShadow"/>
<feBlend mode="normal" in="SourceGraphic" in2="effect1_dropShadow" result="shape"/>
</filter>
<linearGradient id="paint0_linear" x1="11" y1="1" x2="11" y2="13" gradientUnits="userSpaceOnUse">
<stop stop-color="white" stop-opacity="0.7"/>
<stop offset="1" stop-opacity="0.3"/>
</linearGradient>
</defs>
</svg>
