<svg width="16" height="16" viewBox="0 0 16 16" fill="none" xmlns="http://www.w3.org/2000/svg">
<path d="M1.30005 13.8V6.84998" stroke="#606580" stroke-miterlimit="10" stroke-linecap="round" stroke-linejoin="round"/>
<path d="M7.5 6.84998V13.8" stroke="#606580" stroke-miterlimit="10" stroke-linecap="round" stroke-linejoin="round"/>
<path d="M4.4 7.09999C6.27777 7.09999 7.8 6.58511 7.8 5.94999C7.8 5.31486 6.27777 4.79999 4.4 4.79999C2.52223 4.79999 1 5.31486 1 5.94999C1 6.58511 2.52223 7.09999 4.4 7.09999Z" stroke="#606580" stroke-miterlimit="10" stroke-linecap="round" stroke-linejoin="round"/>
<path d="M1 9.65002C1 10.3 2.55 10.8 4.4 10.8C6.25 10.8 7.8 10.3 7.8 9.65002" stroke="#606580" stroke-miterlimit="10" stroke-linecap="round" stroke-linejoin="round"/>
<path d="M1 13.6C1 14.25 2.55 14.75 4.4 14.75C6.25 14.75 7.8 14.25 7.8 13.6" stroke="#606580" stroke-miterlimit="10" stroke-linecap="round" stroke-linejoin="round"/>
<path d="M11.1001 5.04999V12" stroke="#606580" stroke-miterlimit="10" stroke-linecap="round" stroke-linejoin="round"/>
<path d="M9.44995 5.2C10.6 5 11.4 4.6 11.4 4.15C11.4 3.5 9.84995 3 7.99995 3C6.99995 3 6.09995 3.15 5.44995 3.4" stroke="#606580" stroke-miterlimit="10" stroke-linecap="round" stroke-linejoin="round"/>
<path d="M9.44995 8.89998C10.6 8.69998 11.4 8.29998 11.4 7.84998" stroke="#606580" stroke-miterlimit="10" stroke-linecap="round" stroke-linejoin="round"/>
<path d="M9.44995 12.85C10.6 12.65 11.4 12.25 11.4 11.8" stroke="#606580" stroke-miterlimit="10" stroke-linecap="round" stroke-linejoin="round"/>
<path d="M14.7 3.25V10.2" stroke="#606580" stroke-miterlimit="10" stroke-linecap="round" stroke-linejoin="round"/>
<path d="M13.05 3.4C14.2 3.25 15 2.85 15 2.4C15 1.75 13.45 1.25 11.6 1.25C10.6 1.25 9.70005 1.4 9.05005 1.65" stroke="#606580" stroke-miterlimit="10" stroke-linecap="round" stroke-linejoin="round"/>
<path d="M13.05 7.09999C14.2 6.89999 15 6.49999 15 6.04999" stroke="#606580" stroke-miterlimit="10" stroke-linecap="round" stroke-linejoin="round"/>
<path d="M13.05 11.05C14.2 10.85 15 10.45 15 10" stroke="#606580" stroke-miterlimit="10" stroke-linecap="round" stroke-linejoin="round"/>
</svg>
