<svg width="16" height="16" viewBox="0 0 16 16" fill="none" xmlns="http://www.w3.org/2000/svg">
<path d="M12.4 13.65V3.84998" stroke="#606580" stroke-miterlimit="10" stroke-linecap="round" stroke-linejoin="round"/>
<path d="M3.6001 3.84998V13.65" stroke="#606580" stroke-miterlimit="10" stroke-linecap="round" stroke-linejoin="round"/>
<path d="M7.99995 4.2C10.6509 4.2 12.8 3.48366 12.8 2.6C12.8 1.71634 10.6509 1 7.99995 1C5.34898 1 3.19995 1.71634 3.19995 2.6C3.19995 3.48366 5.34898 4.2 7.99995 4.2Z" stroke="#606580" stroke-miterlimit="10" stroke-linecap="round" stroke-linejoin="round"/>
<path d="M12.8 7.79999C12.8 8.69999 10.65 9.39999 7.99995 9.39999C5.34995 9.39999 3.19995 8.69999 3.19995 7.79999" stroke="#606580" stroke-miterlimit="10" stroke-linecap="round" stroke-linejoin="round"/>
<path d="M12.8 13.4C12.8 14.3 10.65 15 7.99995 15C5.34995 15 3.19995 14.3 3.19995 13.4" stroke="#606580" stroke-miterlimit="10" stroke-linecap="round" stroke-linejoin="round"/>
</svg>
