<svg width="16" height="17" viewBox="0 0 16 17" fill="none" xmlns="http://www.w3.org/2000/svg">
<path d="M2.15002 1.95001H13.85" stroke="#606580" stroke-miterlimit="10" stroke-linecap="round" stroke-linejoin="round"/>
<path d="M2.15002 15.5H13.85" stroke="#606580" stroke-miterlimit="10" stroke-linecap="round" stroke-linejoin="round"/>
<path d="M13.1001 1.95001V15.5" stroke="#606580" stroke-miterlimit="10" stroke-linecap="round" stroke-linejoin="round"/>
<path d="M2.90002 15.5V1.95001" stroke="#606580" stroke-miterlimit="10" stroke-linecap="round" stroke-linejoin="round"/>
<path d="M9.1001 1.95V0.5H12.4001V1.95" stroke="#606580" stroke-miterlimit="10" stroke-linecap="round" stroke-linejoin="round"/>
<path d="M10.35 9.70002C10.2 7.45002 8.00002 5.65002 8.00002 5.65002C8.00002 5.65002 5.80002 7.45002 5.65002 9.70002C5.65002 9.80002 5.65002 9.85002 5.65002 9.95002C5.65002 11.25 6.70002 12.3 8.00002 12.3C9.30002 12.3 10.35 11.25 10.35 9.95002C10.35 9.90002 10.35 9.80002 10.35 9.70002Z" stroke="#606580" stroke-miterlimit="10" stroke-linecap="round" stroke-linejoin="round"/>
<path d="M7.15002 10.1C7.15002 10.45 7.45002 10.75 7.80002 10.75" stroke="#606580" stroke-miterlimit="10" stroke-linecap="round" stroke-linejoin="round"/>
</svg>
