<svg width="16" height="16" viewBox="0 0 16 16" fill="none" xmlns="http://www.w3.org/2000/svg">
<path d="M7.09995 14.4H4.24995C3.09995 14.4 2.19995 13.45 2.19995 12.35V7.7L3.99995 2.5H7.39995L8.49995 4.4L11.95 3.4C12.7 3.2 13.4 3.75 13.4 4.5V7.05" stroke="#606580" stroke-miterlimit="10" stroke-linecap="round" stroke-linejoin="round"/>
<path d="M10.2 6.34999L9.90002 5.64999L11.7 4.99999C11.9 4.89999 12.1 5.09999 12.1 5.29999V6.24999" stroke="#606580" stroke-miterlimit="10" stroke-linecap="round" stroke-linejoin="round"/>
<path d="M4 0.950012H7.45" stroke="#606580" stroke-miterlimit="10" stroke-linecap="round" stroke-linejoin="round"/>
<path d="M2.6001 12.35H7.1001" stroke="#606580" stroke-miterlimit="10" stroke-linecap="round" stroke-linejoin="round"/>
<path d="M2.6001 7.70001H7.1001" stroke="#606580" stroke-miterlimit="10" stroke-linecap="round" stroke-linejoin="round"/>
<path d="M13.8501 12.55C13.7001 10.4 11.6001 8.65002 11.6001 8.65002C11.6001 8.65002 9.5001 10.35 9.3501 12.55C9.3501 12.65 9.3501 12.7 9.3501 12.8C9.3501 14.05 10.3501 15.05 11.6001 15.05C12.8501 15.05 13.8501 14.05 13.8501 12.8C13.8501 12.7 13.8501 12.6 13.8501 12.55Z" stroke="#606580" stroke-miterlimit="10" stroke-linecap="round" stroke-linejoin="round"/>
</svg>
