<svg width="16" height="16" viewBox="0 0 16 16" fill="none" xmlns="http://www.w3.org/2000/svg">
<path d="M9.40007 9.70001C9.70007 8.90001 9.60008 8.10001 9.10008 7.20001C8.95008 6.95001 8.80008 6.75001 8.60008 6.50001C8.55008 7.25001 8.35008 7.95001 7.95008 8.70001L7.60008 9.35001L7.45008 8.65001C7.40008 8.35001 7.30008 8.10001 7.15008 7.90001C7.00008 8.25001 6.85008 8.60001 6.70008 8.95001C6.55008 9.30001 6.55008 9.65001 6.65008 9.95001L7.10008 11.15L6.70008 11C6.60008 10.95 6.50008 10.9 6.40008 10.85C5.20008 10.15 4.75008 9.00001 5.15008 7.55001C5.30008 6.95001 5.60008 6.45001 5.90008 6.00001L5.95008 5.95001C6.40008 5.15001 6.85008 4.40001 7.10008 3.60001C7.15008 3.50001 7.15008 3.35001 7.20008 3.25001L7.35008 2.70001L7.65008 2.90001C7.70008 2.95001 7.75008 2.95001 7.75008 3.00001L8.00008 3.25001C8.70008 3.95001 9.45008 4.65001 10.0001 5.50001C10.6001 6.35001 10.9001 7.15001 11.0001 8.00001C11.1501 9.30001 10.7501 10.25 9.80008 10.9C9.65008 11 9.45008 11.1 9.25008 11.15C9.20008 11.2 9.10008 11.2 9.05008 11.25" stroke="#606580" stroke-width="1.10095" stroke-miterlimit="10" stroke-linecap="round" stroke-linejoin="round"/>
<path d="M13.15 15.25H2.85C1.95 15.25 1.25 14.55 1.25 13.65V2.35C1.25 1.45 1.95 0.75 2.85 0.75H13.1C14 0.75 14.7 1.45 14.7 2.35V13.6C14.75 14.55 14.05 15.25 13.15 15.25Z" stroke="#606580" stroke-miterlimit="10" stroke-linecap="round" stroke-linejoin="round"/>
<path d="M3.75 12.75H12.25" stroke="#606580" stroke-width="1.10095" stroke-miterlimit="10" stroke-linecap="round" stroke-linejoin="round"/>
</svg>
