<svg width="16" height="16" viewBox="0 0 16 16" fill="none" xmlns="http://www.w3.org/2000/svg">
<path d="M6.75005 1C6.75005 1 2.20005 4.75 1.85005 9.5C1.85005 9.7 1.80005 9.85 1.80005 10.05C1.80005 12.75 4.00005 15 6.75005 15C9.25005 15 11.3 13.15 11.65 10.7" stroke="#606580" stroke-miterlimit="10" stroke-linecap="round" stroke-linejoin="round"/>
<path d="M3.84998 10.3C3.84998 11.7 4.94998 12.8 6.34998 12.8" stroke="#606580" stroke-miterlimit="10" stroke-linecap="round" stroke-linejoin="round"/>
<path d="M13.15 8.29999H9.69995C9.14995 8.29999 8.69995 7.84999 8.69995 7.29999V5.04999L9.59995 2.54999H11.25L11.75 3.44999L13.4 2.99999C13.75 2.89999 14.1 3.14999 14.1 3.54999V7.19999C14.2 7.79999 13.75 8.29999 13.15 8.29999Z" stroke="#606580" stroke-miterlimit="10" stroke-linecap="round" stroke-linejoin="round"/>
<path d="M13.05 5.49999L12.65 4.54999" stroke="#606580" stroke-miterlimit="10" stroke-linecap="round" stroke-linejoin="round"/>
<path d="M9.44995 1.40002H11.4" stroke="#606580" stroke-miterlimit="10" stroke-linecap="round" stroke-linejoin="round"/>
</svg>
