<svg width="16" height="16" viewBox="0 0 16 16" fill="none" xmlns="http://www.w3.org/2000/svg">
<path d="M11.35 3.20002L11.75 3.30002C11.85 3.30002 11.9 3.35002 12 3.40002L12.4 3.60002L12.6 4.00002C12.65 4.05002 12.65 4.15002 12.7 4.25002L12.8 4.65002L12.7 5.00002C12.7 5.05002 12.65 5.15002 12.6 5.25002L12.4 5.60002L12 5.80002C11.95 5.85002 11.85 5.85002 11.75 5.90002L11.35 6.05002L10.95 5.90002C10.85 5.85002 10.8 5.85002 10.7 5.80002L10.3 5.60002L10.1 5.25002C10.05 5.20002 10.05 5.10002 9.99998 5.00002L9.84998 4.60002L9.94998 4.20002C9.94998 4.10002 9.99998 4.05002 10.05 3.95002L10.25 3.60002L10.65 3.40002C10.7 3.35002 10.8 3.35002 10.9 3.30002L11.35 3.20002ZM11.6 1.65002H11.05C10.85 1.65002 10.7 1.80002 10.7 1.95002L10.65 2.35002C10.5 2.40002 10.35 2.45002 10.25 2.50002L9.89997 2.25002C9.84997 2.20002 9.74997 2.20002 9.69998 2.20002C9.59997 2.20002 9.49997 2.25002 9.44998 2.30002L9.04998 2.65002C8.89998 2.80002 8.89998 3.00002 8.99998 3.15002L9.24998 3.50002C9.19998 3.65002 9.14998 3.75002 9.09998 3.90002L8.64997 4.00002C8.44997 4.05002 8.34998 4.20002 8.34998 4.35002V4.85002C8.34998 5.05002 8.49997 5.20002 8.64997 5.20002L9.09998 5.25002C9.14998 5.40002 9.19998 5.50002 9.24998 5.65002L8.99998 6.05002C8.89998 6.20002 8.89998 6.40002 9.04998 6.50002L9.39997 6.85002C9.49997 7.00002 9.59997 7.00002 9.69998 7.00002C9.79998 7.00002 9.84997 7.00002 9.89997 6.95002L10.25 6.70002C10.4 6.75002 10.5 6.80002 10.65 6.85002L10.7 7.25002C10.75 7.45002 10.9 7.55002 11.05 7.55002H11.6C11.8 7.55002 11.95 7.40002 11.95 7.25002L12 6.85002C12.15 6.80002 12.3 6.75002 12.4 6.70002L12.75 6.95002C12.8 7.00002 12.9 7.00002 12.95 7.00002C13.05 7.00002 13.15 6.95002 13.2 6.90002L13.55 6.55002C13.7 6.40002 13.7 6.20002 13.6 6.10002L13.5 5.70002C13.55 5.55002 13.65 5.45002 13.65 5.30002L14.05 5.25002C14.25 5.20002 14.35 5.05002 14.35 4.90002V4.40002C14.35 4.20002 14.2 4.05002 14.05 4.05002L13.65 4.00002C13.6 3.75002 13.55 3.65002 13.5 3.50002L13.75 3.15002C13.85 3.00002 13.85 2.80002 13.7 2.70002L13.35 2.35002C13.3 2.30002 13.2 2.25002 13.1 2.25002C13 2.25002 12.95 2.25002 12.9 2.30002L12.5 2.50002C12.35 2.45002 12.2 2.35002 12.05 2.35002L12 1.95002C11.95 1.75002 11.8 1.65002 11.6 1.65002Z" fill="#606580"/>
<path d="M6.54998 1C6.54998 1 1.99998 4.75 1.64998 9.5C1.64998 9.7 1.59998 9.85 1.59998 10.05C1.59998 12.75 3.79998 15 6.54998 15C9.04998 15 11.15 13.1 11.45 10.7" stroke="#606580" stroke-miterlimit="10" stroke-linecap="round" stroke-linejoin="round"/>
<path d="M3.6499 10.3C3.6499 11.7 4.7499 12.8 6.1499 12.8" stroke="#606580" stroke-miterlimit="10" stroke-linecap="round" stroke-linejoin="round"/>
</svg>
