<svg width="16" height="17" viewBox="0 0 16 17" fill="none" xmlns="http://www.w3.org/2000/svg">
<path d="M6.90002 2.04999C6.90002 2.04999 2.55002 5.64999 2.20002 10.25C2.20002 10.4 2.15002 10.6 2.15002 10.8C2.15002 13.4 4.25002 15.55 6.90002 15.55C9.30002 15.55 11.3 13.75 11.6 11.4" stroke="#606580" stroke-miterlimit="10" stroke-linecap="round" stroke-linejoin="round"/>
<path d="M4.15002 11C4.15002 12.3 5.20002 13.4 6.55002 13.4" stroke="#606580" stroke-miterlimit="10" stroke-linecap="round" stroke-linejoin="round"/>
<path d="M13.8001 5.4C13.6501 3.2 11.5501 1.5 11.5501 1.5C11.5501 1.5 9.5001 3.2 9.3501 5.4C9.3501 5.5 9.3501 5.55 9.3501 5.65C9.3501 6.9 10.3501 7.9 11.6001 7.9C12.8501 7.9 13.8501 6.9 13.8501 5.65C13.8001 5.55 13.8001 5.5 13.8001 5.4Z" stroke="#606580" stroke-miterlimit="10" stroke-linecap="round" stroke-linejoin="round"/>
</svg>
