<svg width="16" height="16" viewBox="0 0 16 16" fill="none" xmlns="http://www.w3.org/2000/svg">
<path d="M6.95 1C6.95 1 2.4 4.75 2.05 9.5C2.05 9.7 2 9.85 2 10.05C2 12.75 4.2 15 6.95 15C8.1 15 9.2 14.6 10.05 13.9" stroke="#606580" stroke-miterlimit="10" stroke-linecap="round" stroke-linejoin="round"/>
<path d="M4.05005 10.3C4.05005 11.7 5.15005 12.8 6.55005 12.8" stroke="#606580" stroke-miterlimit="10" stroke-linecap="round" stroke-linejoin="round"/>
<path d="M9.14995 2.74998C9.53655 2.74998 9.84995 2.43657 9.84995 2.04998C9.84995 1.66338 9.53655 1.34998 9.14995 1.34998C8.76335 1.34998 8.44995 1.66338 8.44995 2.04998C8.44995 2.43657 8.76335 2.74998 9.14995 2.74998Z" fill="#606580"/>
<path d="M9.49995 6.85C10.0799 6.85 10.55 6.3799 10.55 5.8C10.55 5.2201 10.0799 4.75 9.49995 4.75C8.92005 4.75 8.44995 5.2201 8.44995 5.8C8.44995 6.3799 8.92005 6.85 9.49995 6.85Z" fill="#606580"/>
<path d="M11.75 4.65005C12.3299 4.65005 12.8 4.17995 12.8 3.60005C12.8 3.02015 12.3299 2.55005 11.75 2.55005C11.1701 2.55005 10.7 3.02015 10.7 3.60005C10.7 4.17995 11.1701 4.65005 11.75 4.65005Z" fill="#606580"/>
<path d="M11.75 7.79999L13.95 10.05L11.75 12.3" stroke="#606580" stroke-miterlimit="10" stroke-linecap="round" stroke-linejoin="round"/>
<path d="M9.44995 10.05H13.95" stroke="#606580" stroke-miterlimit="10" stroke-linecap="round" stroke-linejoin="round"/>
</svg>
