<svg width="16" height="16" viewBox="0 0 16 16" fill="none" xmlns="http://www.w3.org/2000/svg">
<path d="M9.35002 2.8C8.40002 1.65 7.60002 1 7.60002 1C7.60002 1 3.05002 4.75 2.70002 9.5C2.70002 9.7 2.65002 9.85 2.65002 10.05C2.65002 12.75 4.85002 15 7.60002 15C10.35 15 12.55 12.8 12.55 10.05C12.55 9.85 12.55 9.7 12.5 9.5C12.45 9.15 12.4 8.8 12.35 8.4" stroke="#606580" stroke-miterlimit="10" stroke-linecap="round" stroke-linejoin="round"/>
<path d="M4.69995 10.3C4.69995 11.7 5.79995 12.8 7.19995 12.8" stroke="#606580" stroke-miterlimit="10" stroke-linecap="round" stroke-linejoin="round"/>
<path d="M7.6001 5.2L9.2001 6.8C9.4501 7.05 9.8001 7.05 10.0501 6.8L13.3501 3.5" stroke="#606580" stroke-miterlimit="10" stroke-linecap="round" stroke-linejoin="round"/>
</svg>
