<svg width="16" height="16" viewBox="0 0 16 16" fill="none" xmlns="http://www.w3.org/2000/svg">
<path d="M10.65 7.74999V1.54999C10.65 1.54999 10.65 1.54999 12.25 1.54999C13.85 1.54999 13.85 3.14999 13.85 3.14999C13.85 3.14999 13.85 4.74999 12.25 4.74999C11.15 4.74999 10 4.74999 9.55005 4.74999" stroke="#606580" stroke-miterlimit="10" stroke-linecap="round" stroke-linejoin="round"/>
<path d="M12.25 6.25H9.5" stroke="#606580" stroke-miterlimit="10" stroke-linecap="round" stroke-linejoin="round"/>
<path d="M7.10002 1C7.10002 1 2.55002 4.75 2.20002 9.5C2.20002 9.7 2.15002 9.85 2.15002 10.05C2.15002 12.75 4.35002 15 7.10002 15C9.60002 15 11.7 13.1 12 10.7" stroke="#606580" stroke-miterlimit="10" stroke-linecap="round" stroke-linejoin="round"/>
<path d="M4.25 10.3C4.25 11.7 5.35 12.8 6.75 12.8" stroke="#606580" stroke-miterlimit="10" stroke-linecap="round" stroke-linejoin="round"/>
</svg>
