<svg width="16" height="16" viewBox="0 0 16 16" fill="none" xmlns="http://www.w3.org/2000/svg">
<path d="M6.2 1C6.2 1 1.65 4.75 1.3 9.5C1.3 9.7 1.25 9.85 1.25 10.05C1.25 12.75 3.45 15 6.2 15C8.7 15 10.8 13.1 11.1 10.7" stroke="#606580" stroke-miterlimit="10" stroke-linecap="round" stroke-linejoin="round"/>
<path d="M3.30005 10.3C3.30005 11.7 4.40005 12.8 5.80005 12.8" stroke="#606580" stroke-miterlimit="10" stroke-linecap="round" stroke-linejoin="round"/>
<path d="M11.45 0.900024C13.4339 0.900024 15 2.4662 15 4.45003C15 6.43385 13.4339 8.00003 11.45 8.00003C9.4662 8.00003 7.90002 6.43385 7.90002 4.45003C7.95223 2.4662 9.51841 0.900024 11.45 0.900024Z" stroke="#606580" stroke-miterlimit="10" stroke-linecap="round" stroke-linejoin="round"/>
<path d="M11.5 6.5V4H11" stroke="#606580" stroke-miterlimit="10" stroke-linecap="round" stroke-linejoin="round"/>
<path d="M11.5 2.5V2.7" stroke="#606580" stroke-miterlimit="10" stroke-linecap="round" stroke-linejoin="round"/>
<path d="M11 6.5H12" stroke="#606580" stroke-miterlimit="10" stroke-linecap="round" stroke-linejoin="round"/>
</svg>
