<svg width="16" height="16" viewBox="0 0 16 16" fill="none" xmlns="http://www.w3.org/2000/svg">
<path d="M6.10002 1C6.10002 1 1.55002 4.75 1.20002 9.5C1.20002 9.7 1.15002 9.85 1.15002 10.05C1.15002 12.75 3.35002 15 6.10002 15C8.05002 15 9.70002 13.9 10.5 12.25" stroke="#606580" stroke-miterlimit="10" stroke-linecap="round" stroke-linejoin="round"/>
<path d="M3.19995 10.3C3.19995 11.7 4.29995 12.8 5.69995 12.8" stroke="#606580" stroke-miterlimit="10" stroke-linecap="round" stroke-linejoin="round"/>
<path d="M11.4501 8.80001V6.40001L9.4001 5.20001L7.3501 6.40001V8.80001L9.4001 9.95001L11.4501 8.80001Z" stroke="#606580" stroke-miterlimit="10" stroke-linecap="round" stroke-linejoin="round"/>
<path d="M7.3501 6.40002L9.4001 7.60002L11.4501 6.40002" stroke="#606580" stroke-miterlimit="10" stroke-linecap="round" stroke-linejoin="round"/>
<path d="M12.8 7.95L14.85 6.8V4.4L12.8 3.25L10.7 4.4" stroke="#606580" stroke-miterlimit="10" stroke-linecap="round" stroke-linejoin="round"/>
<path d="M10.7 4.40002L12.8 5.60002L14.85 4.40002" stroke="#606580" stroke-miterlimit="10" stroke-linecap="round" stroke-linejoin="round"/>
<path d="M7.69995 4.8V2.4L9.74995 1.25L11.8 2.4" stroke="#606580" stroke-miterlimit="10" stroke-linecap="round" stroke-linejoin="round"/>
<path d="M11.8 2.40002L9.74995 3.60002L7.69995 2.40002" stroke="#606580" stroke-miterlimit="10" stroke-linecap="round" stroke-linejoin="round"/>
</svg>
