<svg width="16" height="16" viewBox="0 0 16 16" fill="none" xmlns="http://www.w3.org/2000/svg">
<path d="M6.60002 1C6.60002 1 2.05002 4.75 1.70002 9.5C1.70002 9.7 1.65002 9.85 1.65002 10.05C1.65002 12.75 3.85002 15 6.60002 15C8.10002 15 9.45003 14.35 10.35 13.25" stroke="#606580" stroke-miterlimit="10" stroke-linecap="round" stroke-linejoin="round"/>
<path d="M3.75 10.3C3.75 11.7 4.85 12.8 6.25 12.8" stroke="#606580" stroke-miterlimit="10" stroke-linecap="round" stroke-linejoin="round"/>
<path d="M7.80005 3.29999L10 3.59999L12.1 5.39999L13.8 8.29999C14.1 8.74999 13.95 9.39999 13.45 9.64999L12.05 10.5" stroke="#606580" stroke-miterlimit="10" stroke-linecap="round" stroke-linejoin="round"/>
<path d="M14.3001 5.69996C13.9001 5.04996 13.0501 4.79996 12.4001 5.19996L10.4501 6.34996C10.0501 6.59996 9.90005 7.14996 10.1501 7.54996L10.9501 8.84996" stroke="#606580" stroke-miterlimit="10" stroke-linecap="round" stroke-linejoin="round"/>
<path d="M13.2 7.5L12.25 8.05" stroke="#606580" stroke-miterlimit="10" stroke-linecap="round" stroke-linejoin="round"/>
<path d="M10.25 7.34995L12.15 6.19995" stroke="#606580" stroke-miterlimit="10" stroke-linecap="round" stroke-linejoin="round"/>
</svg>
