<svg width="16" height="17" viewBox="0 0 16 17" fill="none" xmlns="http://www.w3.org/2000/svg">
<path d="M6.94995 8.10002V4.65002L8.69995 8.10002L10.5 4.65002V8.10002" stroke="#606580" stroke-miterlimit="10" stroke-linecap="round" stroke-linejoin="round"/>
<path d="M14.25 4.65002H13.75C12.9 4.65002 12.2 5.40002 12.2 6.35002C12.2 7.30002 12.9 8.05002 13.75 8.05002H14.25" stroke="#606580" stroke-miterlimit="10" stroke-linecap="round" stroke-linejoin="round"/>
<path d="M6.7 1.5C6.7 1.5 2.15 5.25 1.8 10C1.8 10.2 1.75 10.35 1.75 10.55C1.75 13.25 3.95 15.5 6.7 15.5C9.2 15.5 11.25 13.65 11.6 11.2" stroke="#606580" stroke-miterlimit="10" stroke-linecap="round" stroke-linejoin="round"/>
<path d="M3.80005 10.8C3.80005 12.2 4.90005 13.3 6.30005 13.3" stroke="#606580" stroke-miterlimit="10" stroke-linecap="round" stroke-linejoin="round"/>
</svg>
