<svg width="16" height="16" viewBox="0 0 16 16" fill="none" xmlns="http://www.w3.org/2000/svg">
<path d="M10.95 11.7C10.75 8.84998 8.00005 6.59998 8.00005 6.59998C8.00005 6.59998 5.25005 8.84998 5.05005 11.75C5.05005 11.85 5.05005 11.95 5.05005 12.1C5.05005 13.75 6.40005 15.05 8.00005 15.05C9.60005 15.05 10.95 13.7 10.95 12.1C10.95 11.9 10.95 11.8 10.95 11.7Z" stroke="#606580" stroke-miterlimit="10" stroke-linecap="round" stroke-linejoin="round"/>
<path d="M6.25 12.2C6.25 13.05 6.9 13.7 7.75 13.7" stroke="#606580" stroke-miterlimit="10" stroke-linecap="round" stroke-linejoin="round"/>
<path d="M5.75 3.34999L8.05 1.04999L10.3 3.34999" stroke="#606580" stroke-miterlimit="10" stroke-linecap="round" stroke-linejoin="round"/>
<path d="M8.05005 4.44999V1.04999" stroke="#606580" stroke-miterlimit="10" stroke-linecap="round" stroke-linejoin="round"/>
<path d="M2.75 10.65L0.5 8.39998L2.75 6.09998" stroke="#606580" stroke-miterlimit="10" stroke-linecap="round" stroke-linejoin="round"/>
<path d="M0.5 8.39996H4" stroke="#606580" stroke-miterlimit="10" stroke-linecap="round" stroke-linejoin="round"/>
<path d="M13.25 10.5L15.5 8.24995L13.25 5.94995" stroke="#606580" stroke-miterlimit="10" stroke-linecap="round" stroke-linejoin="round"/>
<path d="M15.5 8.25H12" stroke="#606580" stroke-miterlimit="10" stroke-linecap="round" stroke-linejoin="round"/>
</svg>
