<svg width="16" height="17" viewBox="0 0 16 17" fill="none" xmlns="http://www.w3.org/2000/svg">
<path d="M10.95 11.6C10.65 13.95 8.65002 15.75 6.20002 15.75C3.55002 15.75 1.40002 13.6 1.40002 10.95C1.40002 10.75 1.40002 10.6 1.45002 10.4C1.80002 5.79997 6.20002 2.09998 6.20002 2.09998" stroke="#606580" stroke-miterlimit="10" stroke-linecap="round" stroke-linejoin="round"/>
<path d="M3.3501 11.2C3.3501 12.55 4.4501 13.65 5.8001 13.65" stroke="#606580" stroke-miterlimit="10" stroke-linecap="round" stroke-linejoin="round"/>
<path d="M13.7 9.89999L14.6 8.99999L13.7 8.04999" stroke="#606580" stroke-miterlimit="10" stroke-linecap="round" stroke-linejoin="round"/>
<path d="M11.4 9H14.6" stroke="#606580" stroke-miterlimit="10" stroke-linecap="round" stroke-linejoin="round"/>
<path d="M13.7 6.50002L14.6 5.60002L13.7 4.65002" stroke="#606580" stroke-miterlimit="10" stroke-linecap="round" stroke-linejoin="round"/>
<path d="M9.90002 5.59998H14.6" stroke="#606580" stroke-miterlimit="10" stroke-linecap="round" stroke-linejoin="round"/>
<path d="M13.7 3.1L14.6 2.2L13.7 1.25" stroke="#606580" stroke-miterlimit="10" stroke-linecap="round" stroke-linejoin="round"/>
<path d="M8.40002 2.20001H14.6" stroke="#606580" stroke-miterlimit="10" stroke-linecap="round" stroke-linejoin="round"/>
</svg>
