<svg width="16" height="16" viewBox="0 0 16 16" fill="none" xmlns="http://www.w3.org/2000/svg">
<path d="M6.54998 1C6.54998 1 1.99998 4.75 1.64998 9.5C1.64998 9.7 1.59998 9.85 1.59998 10.05C1.59998 12.75 3.79998 15 6.54998 15C9.04998 15 11.15 13.1 11.45 10.7" stroke="#606580" stroke-miterlimit="10" stroke-linecap="round" stroke-linejoin="round"/>
<path d="M3.6499 10.3C3.6499 11.7 4.7499 12.8 6.1499 12.8" stroke="#606580" stroke-miterlimit="10" stroke-linecap="round" stroke-linejoin="round"/>
<path d="M11.25 8C13.0449 8 14.5 6.54493 14.5 4.75C14.5 2.95507 13.0449 1.5 11.25 1.5C9.45507 1.5 8 2.95507 8 4.75C8 6.54493 9.45507 8 11.25 8Z" stroke="#606580" stroke-miterlimit="10" stroke-linecap="round" stroke-linejoin="round"/>
<path d="M11.3 3.65002V5.05002L12.05 5.45002" stroke="#606580" stroke-miterlimit="10" stroke-linecap="round" stroke-linejoin="round"/>
</svg>
