<svg width="16" height="16" viewBox="0 0 16 16" fill="none" xmlns="http://www.w3.org/2000/svg">
<path d="M6.85002 1C6.85002 1 2.30002 4.75 1.95002 9.5C1.95002 9.7 1.90002 9.85 1.90002 10.05C1.90002 12.75 4.10002 15 6.85002 15C9.35002 15 11.45 13.1 11.75 10.7" stroke="#606580" stroke-miterlimit="10" stroke-linecap="round" stroke-linejoin="round"/>
<path d="M3.94995 10.3C3.94995 11.7 5.04995 12.8 6.44995 12.8" stroke="#606580" stroke-miterlimit="10" stroke-linecap="round" stroke-linejoin="round"/>
<path d="M10.0769 5.93878C10.3077 6.55102 10.8462 7 11.5 7C12.3462 7 13 6.26531 13 5.40816C13 4.38775 11.5 4.02041 11.5 4.02041C11.5 4.02041 10 3.69388 10 2.59184C10 1.69388 10.6923 1 11.5 1C12.1538 1 12.7308 1.44898 12.9231 2.06122" stroke="#606580" stroke-miterlimit="10" stroke-linecap="round" stroke-linejoin="round"/>
</svg>
