<svg width="16" height="16" viewBox="0 0 16 16" fill="none" xmlns="http://www.w3.org/2000/svg">
<path d="M7.54998 1C7.54998 1 2.99998 4.75 2.64998 9.5C2.64998 9.7 2.59998 9.85 2.59998 10.05C2.59998 12.75 4.79998 15 7.54998 15C10.05 15 12.15 13.1 12.45 10.7" stroke="#606580" stroke-miterlimit="10" stroke-linecap="round" stroke-linejoin="round"/>
<path d="M4.6499 10.3C4.6499 11.7 5.7499 12.8 7.1499 12.8" stroke="#606580" stroke-miterlimit="10" stroke-linecap="round" stroke-linejoin="round"/>
<path d="M10.4999 6.14999C10.6999 6.69999 11.2499 7.14999 11.8999 7.14999C12.6999 7.14999 13.3999 6.49999 13.3999 5.64999C13.3999 4.69999 11.8999 4.34999 11.8999 4.34999C11.8999 4.34999 10.3999 4.04999 10.3999 3.04999C10.3999 2.24999 11.0499 1.54999 11.8999 1.54999C12.5499 1.54999 13.0999 1.94999 13.2999 2.54999" stroke="#606580" stroke-miterlimit="10" stroke-linecap="round" stroke-linejoin="round"/>
<path fill-rule="evenodd" clip-rule="evenodd" d="M11.8999 1C11.8999 1.5 11.8999 1.5 11.8999 1.4C11.8999 1.4 11.8999 1.2 11.8999 1.35C11.8999 1.5 11.8999 1.6 11.8999 1.6C11.8999 1.6 11.8999 1.15 11.8999 1Z" stroke="#606580" stroke-miterlimit="10" stroke-linecap="round" stroke-linejoin="round"/>
<path d="M11.8999 7.45001C11.8999 7.30001 11.8999 7.20001 11.8999 7.20001C11.8999 7.20001 11.8999 7.30001 11.8999 7.45001ZM11.8999 7.45001C11.8999 7.55001 11.8999 7.75001 11.8999 7.85001" stroke="#606580" stroke-miterlimit="10" stroke-linecap="round" stroke-linejoin="round"/>
</svg>
