<svg width="16" height="17" viewBox="0 0 16 17" fill="none" xmlns="http://www.w3.org/2000/svg">
<path d="M7.14995 1.5C7.14995 1.5 2.59995 5.25 2.24995 10C2.24995 10.2 2.19995 10.35 2.19995 10.55C2.19995 13.25 4.39995 15.5 7.14995 15.5C9.64995 15.5 11.7 13.65 12.05 11.2" stroke="#606580" stroke-miterlimit="10" stroke-linecap="round" stroke-linejoin="round"/>
<path d="M4.25 10.8C4.25 12.2 5.35 13.3 6.75 13.3" stroke="#606580" stroke-miterlimit="10" stroke-linecap="round" stroke-linejoin="round"/>
<path d="M10.8 3C10.7 3 10.65 3.05 10.6 3.15V3.2C10.35 3.7 10.1 4.2 9.85002 4.7L9.80002 4.75C9.60002 4.8 9.35002 4.8 9.15002 4.85C8.80002 4.9 8.45002 4.95 8.10002 5C8.00002 5 7.90002 5.1 7.90002 5.25C7.90002 5.3 7.95002 5.35 8.00002 5.4C8.40002 5.8 8.80002 6.2 9.20002 6.55C9.25002 6.6 9.25002 6.6 9.25002 6.65C9.15002 7.1 9.10002 7.55 9.00002 8C9.00002 8.15 8.95002 8.25 8.95002 8.4V8.45C9.00002 8.55 9.05002 8.6 9.15002 8.6C9.20002 8.6 9.25002 8.6 9.25002 8.55C9.75002 8.3 10.25 8 10.75 7.75H10.8H10.85C11.35 8 11.85 8.3 12.35 8.55C12.4 8.55 12.45 8.6 12.45 8.6C12.5 8.6 12.55 8.6 12.6 8.55C12.7 8.5 12.7 8.4 12.7 8.3C12.6 7.75 12.5 7.2 12.4 6.6C12.4 6.55 12.4 6.5 12.45 6.5C12.85 6.1 13.25 5.7 13.65 5.3C13.7 5.25 13.75 5.15 13.7 5.05C13.65 4.95 13.6 4.9 13.5 4.9C12.95 4.8 12.35 4.75 11.8 4.65C11.75 4.65 11.75 4.65 11.7 4.6C11.55 4.3 11.45 4.05 11.3 3.75C11.2 3.5 11.05 3.25 10.95 3.05C11 3.05 10.9 3 10.8 3Z" stroke="#606580" stroke-miterlimit="10" stroke-linecap="round" stroke-linejoin="round"/>
</svg>
