<svg width="16" height="16" viewBox="0 0 16 16" fill="none" xmlns="http://www.w3.org/2000/svg">
<path d="M6.54998 1C6.54998 1 1.99998 4.75 1.64998 9.5C1.64998 9.7 1.59998 9.85 1.59998 10.05C1.59998 12.75 3.79998 15 6.54998 15C9.04998 15 11.1 13.15 11.45 10.7" stroke="#606580" stroke-miterlimit="10" stroke-linecap="round" stroke-linejoin="round"/>
<path d="M3.6499 10.3C3.6499 11.7 4.7499 12.8 6.1499 12.8" stroke="#606580" stroke-miterlimit="10" stroke-linecap="round" stroke-linejoin="round"/>
<path d="M13.9 4.65003C13.85 3.60003 13.2 2.65003 12.2 2.20003C11.45 1.85003 10.65 1.85003 9.94995 2.10003" stroke="#606580" stroke-miterlimit="10" stroke-linecap="round" stroke-linejoin="round"/>
<path d="M14.4001 4.65002L13.9001 5.15002L13.3501 4.65002" stroke="#606580" stroke-miterlimit="10" stroke-linecap="round" stroke-linejoin="round"/>
<path d="M8.05005 5.05005C8.10005 6.10005 8.75005 7.05005 9.75005 7.50005C10.5 7.85005 11.25 7.85005 11.95 7.60005" stroke="#606580" stroke-miterlimit="10" stroke-linecap="round" stroke-linejoin="round"/>
<path d="M7.55005 5.09998L8.10005 4.59998L8.60005 5.09998" stroke="#606580" stroke-miterlimit="10" stroke-linecap="round" stroke-linejoin="round"/>
</svg>
