<svg width="16" height="16" viewBox="0 0 16 16" fill="none" xmlns="http://www.w3.org/2000/svg">
<path d="M7.54998 1C7.54998 1 2.99998 4.75 2.64998 9.5C2.64998 9.7 2.59998 9.85 2.59998 10.05C2.59998 12.75 4.79998 15 7.54998 15C10.05 15 12.15 13.1 12.45 10.7" stroke="#606580" stroke-miterlimit="10" stroke-linecap="round" stroke-linejoin="round"/>
<path d="M4.6499 10.3C4.6499 11.7 5.7499 12.8 7.1499 12.8" stroke="#606580" stroke-miterlimit="10" stroke-linecap="round" stroke-linejoin="round"/>
<path d="M12.5 8.55002C12.8866 8.55002 13.2 8.23662 13.2 7.85002C13.2 7.46342 12.8866 7.15002 12.5 7.15002C12.1134 7.15002 11.8 7.46342 11.8 7.85002C11.8 8.23662 12.1134 8.55002 12.5 8.55002Z" fill="#606580"/>
<path d="M9.75005 2.74998C10.1366 2.74998 10.45 2.43657 10.45 2.04998C10.45 1.66338 10.1366 1.34998 9.75005 1.34998C9.36345 1.34998 9.05005 1.66338 9.05005 2.04998C9.05005 2.43657 9.36345 2.74998 9.75005 2.74998Z" fill="#606580"/>
<path d="M10.1 6.85C10.6799 6.85 11.15 6.3799 11.15 5.8C11.15 5.2201 10.6799 4.75 10.1 4.75C9.52015 4.75 9.05005 5.2201 9.05005 5.8C9.05005 6.3799 9.52015 6.85 10.1 6.85Z" fill="#606580"/>
<path d="M12.35 4.65005C12.9299 4.65005 13.4 4.17995 13.4 3.60005C13.4 3.02015 12.9299 2.55005 12.35 2.55005C11.7702 2.55005 11.3 3.02015 11.3 3.60005C11.3 4.17995 11.7702 4.65005 12.35 4.65005Z" fill="#606580"/>
</svg>
