<svg width="16" height="16" viewBox="0 0 16 16" fill="none" xmlns="http://www.w3.org/2000/svg">
<path d="M6.64995 1C6.64995 1 2.09995 4.75 1.74995 9.5C1.74995 9.7 1.69995 9.85 1.69995 10.05C1.69995 12.75 3.89995 15 6.64995 15C9.14995 15 11.2 13.15 11.55 10.7" stroke="#606580" stroke-miterlimit="10" stroke-linecap="round" stroke-linejoin="round"/>
<path d="M3.75 10.3C3.75 11.7 4.85 12.8 6.25 12.8" stroke="#606580" stroke-miterlimit="10" stroke-linecap="round" stroke-linejoin="round"/>
<path d="M11.25 4.35002C11.5814 4.35002 11.85 4.0814 11.85 3.75002C11.85 3.41865 11.5814 3.15002 11.25 3.15002C10.9187 3.15002 10.65 3.41865 10.65 3.75002C10.65 4.0814 10.9187 4.35002 11.25 4.35002Z" fill="#606580"/>
<path d="M10.25 6.35002C10.5814 6.35002 10.85 6.0814 10.85 5.75002C10.85 5.41865 10.5814 5.15002 10.25 5.15002C9.91865 5.15002 9.65002 5.41865 9.65002 5.75002C9.65002 6.0814 9.91865 6.35002 10.25 6.35002Z" fill="#606580"/>
<path d="M12.25 6.35002C12.5814 6.35002 12.85 6.0814 12.85 5.75002C12.85 5.41865 12.5814 5.15002 12.25 5.15002C11.9187 5.15002 11.65 5.41865 11.65 5.75002C11.65 6.0814 11.9187 6.35002 12.25 6.35002Z" fill="#606580"/>
<path d="M9.55 2H12.95C13.55 2 14 2.45 14 3.05V6.45C14 7.05 13.55 7.5 12.95 7.5H9.55C8.95 7.5 8.5 7.05 8.5 6.45V3.05C8.5 2.45 8.95 2 9.55 2Z" stroke="#606580" stroke-miterlimit="10" stroke-linecap="round" stroke-linejoin="round"/>
</svg>
