<svg width="16" height="16" viewBox="0 0 16 16" fill="none" xmlns="http://www.w3.org/2000/svg">
<path d="M14.2 7.60004C14.05 5.40004 12.75 3.35004 10.6 2.35004C9.00005 1.60004 7.30005 1.60004 5.80005 2.15004" stroke="#606580" stroke-miterlimit="10" stroke-linecap="round" stroke-linejoin="round"/>
<path d="M15.25 7.5L14.15 8.6L13.1 7.5" stroke="#606580" stroke-miterlimit="10" stroke-linecap="round" stroke-linejoin="round"/>
<path d="M1.80005 8.40002C1.95005 10.6 3.25005 12.65 5.40005 13.65C6.95005 14.35 8.65005 14.4 10.1 13.85" stroke="#606580" stroke-miterlimit="10" stroke-linecap="round" stroke-linejoin="round"/>
<path d="M0.75 8.50002L1.85 7.40002L2.9 8.50002" stroke="#606580" stroke-miterlimit="10" stroke-linecap="round" stroke-linejoin="round"/>
<path d="M10.3 8.75C10.15 6.5 7.99995 4.75 7.99995 4.75C7.99995 4.75 5.84995 6.5 5.69995 8.75C5.69995 8.85 5.69995 8.9 5.69995 9C5.69995 10.25 6.74995 11.3 7.99995 11.3C9.24995 11.3 10.3 10.25 10.3 9C10.3 8.95 10.3 8.85 10.3 8.75Z" stroke="#606580" stroke-miterlimit="10" stroke-linecap="round" stroke-linejoin="round"/>
</svg>
