<svg width="16" height="16" viewBox="0 0 16 16" fill="none" xmlns="http://www.w3.org/2000/svg">
<path d="M7.75002 3C7.75002 3 4.40002 5.75 4.15002 9.25C4.15002 9.4 4.15002 9.5 4.15002 9.65C4.15002 11.65 5.75002 13.25 7.75002 13.25C9.60002 13.25 11.1 11.85 11.35 10.1" stroke="#606580" stroke-miterlimit="10" stroke-linecap="round" stroke-linejoin="round"/>
<path d="M5.6001 9.79999C5.6001 10.8 6.4001 11.65 7.4501 11.65" stroke="#606580" stroke-miterlimit="10" stroke-linecap="round" stroke-linejoin="round"/>
<path d="M11.3501 8.54999C11.6262 8.54999 11.8501 8.32613 11.8501 8.04999C11.8501 7.77385 11.6262 7.54999 11.3501 7.54999C11.074 7.54999 10.8501 7.77385 10.8501 8.04999C10.8501 8.32613 11.074 8.54999 11.3501 8.54999Z" fill="#606580"/>
<path d="M9.3501 4.29999C9.62624 4.29999 9.8501 4.07613 9.8501 3.79999C9.8501 3.52385 9.62624 3.29999 9.3501 3.29999C9.07396 3.29999 8.8501 3.52385 8.8501 3.79999C8.8501 4.07613 9.07396 4.29999 9.3501 4.29999Z" fill="#606580"/>
<path d="M9.6001 7.29999C10.0143 7.29999 10.3501 6.9642 10.3501 6.54999C10.3501 6.13577 10.0143 5.79999 9.6001 5.79999C9.18588 5.79999 8.8501 6.13577 8.8501 6.54999C8.8501 6.9642 9.18588 7.29999 9.6001 7.29999Z" fill="#606580"/>
<path d="M11.25 5.65002C11.6642 5.65002 12 5.31424 12 4.90002C12 4.48581 11.6642 4.15002 11.25 4.15002C10.8358 4.15002 10.5 4.48581 10.5 4.90002C10.5 5.31424 10.8358 5.65002 11.25 5.65002Z" fill="#606580"/>
<path d="M10.8 1H13.1C14.15 1 15 1.85 15 2.9V5.2" stroke="#606580" stroke-miterlimit="10" stroke-linecap="round" stroke-linejoin="round"/>
<path d="M5.2 15H2.9C1.85 15 1 14.15 1 13.1V10.8" stroke="#606580" stroke-miterlimit="10" stroke-linecap="round" stroke-linejoin="round"/>
<path d="M1 5.2V2.9C1 1.85 1.85 1 2.9 1H5.2" stroke="#606580" stroke-miterlimit="10" stroke-linecap="round" stroke-linejoin="round"/>
<path d="M15 10.8V13.1C15 14.15 14.15 15 13.1 15H10.8" stroke="#606580" stroke-miterlimit="10" stroke-linecap="round" stroke-linejoin="round"/>
</svg>
