<svg width="16" height="16" viewBox="0 0 16 16" fill="none" xmlns="http://www.w3.org/2000/svg">
<path d="M14.75 6.15C13.95 3.2 11.25 1 8 1C4.15 1 1 4.15 1 8C1 11.85 4.15 15 8 15" stroke="#606580" stroke-miterlimit="10" stroke-linecap="round" stroke-linejoin="round"/>
<path d="M8.00002 4.34998V8.29998L5.65002 9.79998" stroke="#606580" stroke-miterlimit="10" stroke-linecap="round" stroke-linejoin="round"/>
<path d="M14.95 12.4C14.8 10.15 12.65 8.40002 12.65 8.40002C12.65 8.40002 10.5 10.15 10.35 12.4C10.35 12.5 10.35 12.55 10.35 12.65C10.35 13.9 11.4 14.95 12.65 14.95C13.9 14.95 14.95 13.9 14.95 12.65C14.95 12.55 14.95 12.5 14.95 12.4Z" stroke="#606580" stroke-miterlimit="10" stroke-linecap="round" stroke-linejoin="round"/>
</svg>
