<svg width="16" height="17" viewBox="0 0 16 17" fill="none" xmlns="http://www.w3.org/2000/svg">
<path d="M4.59998 4.2C2.49998 4.2 0.849976 4.7 0.849976 5.25V11.7C0.849976 12.3 2.54998 12.75 4.59998 12.75C6.64998 12.75 8.34998 12.25 8.34998 11.7V5.3C8.34998 4.7 6.64998 4.2 4.59998 4.2Z" stroke="#606580" stroke-miterlimit="10" stroke-linecap="round" stroke-linejoin="round"/>
<path d="M8.34998 5.3C8.34998 5.9 6.64998 6.35 4.59998 6.35C2.54998 6.35 0.849976 5.85 0.849976 5.3" stroke="#606580" stroke-miterlimit="10" stroke-linecap="round" stroke-linejoin="round"/>
<path d="M8.34998 7.45C8.34998 8.05 6.64998 8.5 4.59998 8.5C2.54998 8.5 0.849976 8 0.849976 7.45" stroke="#606580" stroke-miterlimit="10" stroke-linecap="round" stroke-linejoin="round"/>
<path d="M8.34998 9.55C8.34998 10.15 6.64998 10.6 4.59998 10.6C2.54998 10.6 0.849976 10.1 0.849976 9.55" stroke="#606580" stroke-miterlimit="10" stroke-linecap="round" stroke-linejoin="round"/>
<path d="M13.1 12V14.45C13.1 15.1 12.55 15.65 11.9 15.65H10.45" stroke="#606580" stroke-miterlimit="10" stroke-linecap="round" stroke-linejoin="round"/>
<path d="M10.45 1.35H11.9C12.55 1.35 13.1 1.9 13.1 2.55V5.75" stroke="#606580" stroke-miterlimit="10" stroke-linecap="round" stroke-linejoin="round"/>
<path d="M11.3 8.35L12.5 9.55C12.6 9.65 12.7 9.65 12.75 9.55L15.15 7.15" stroke="#606580" stroke-miterlimit="10" stroke-linecap="round" stroke-linejoin="round"/>
</svg>
