<svg width="16" height="16" viewBox="0 0 16 16" fill="none" xmlns="http://www.w3.org/2000/svg">
<path d="M11.6 6.7C9.49998 6.7 7.84998 7.2 7.84998 7.75V14.2C7.84998 14.8 9.54998 15.25 11.6 15.25C13.65 15.25 15.35 14.75 15.35 14.2V7.8C15.35 7.2 13.65 6.7 11.6 6.7Z" stroke="#606580" stroke-miterlimit="10" stroke-linecap="round" stroke-linejoin="round"/>
<path d="M15.35 7.79999C15.35 8.39999 13.65 8.84999 11.6 8.84999C9.54998 8.84999 7.84998 8.34999 7.84998 7.79999" stroke="#606580" stroke-miterlimit="10" stroke-linecap="round" stroke-linejoin="round"/>
<path d="M15.35 9.95C15.35 10.55 13.65 11 11.6 11C9.54998 11 7.84998 10.5 7.84998 9.95" stroke="#606580" stroke-miterlimit="10" stroke-linecap="round" stroke-linejoin="round"/>
<path d="M15.35 12.05C15.35 12.65 13.65 13.1 11.6 13.1C9.54998 13.1 7.84998 12.6 7.84998 12.05" stroke="#606580" stroke-miterlimit="10" stroke-linecap="round" stroke-linejoin="round"/>
<path d="M2.75 9.5H0.5V0.5H9.5V2.75" stroke="#606580" stroke-miterlimit="10" stroke-linecap="round" stroke-linejoin="round"/>
<path d="M6.15002 3.14999V6.14999H3.15002" stroke="#606580" stroke-miterlimit="10" stroke-linecap="round" stroke-linejoin="round"/>
<path d="M6.15 6.15L3.25 3.25" stroke="#606580" stroke-miterlimit="10" stroke-linecap="round" stroke-linejoin="round"/>
</svg>
