<svg width="16" height="17" viewBox="0 0 16 17" fill="none" xmlns="http://www.w3.org/2000/svg">
<path d="M13.85 6.9V3.5C13.85 2.55 11.2 1.8 7.95005 1.8C4.70005 1.8 2.05005 2.55 2.05005 3.5V13.6C2.05005 14.3 3.70005 14.9 5.80005 15.15" stroke="#606580" stroke-miterlimit="10" stroke-linecap="round" stroke-linejoin="round"/>
<path d="M13.85 3.5C13.85 4.45 11.2 5.2 7.95005 5.2C4.70005 5.2 2.05005 4.45 2.05005 3.5" stroke="#606580" stroke-miterlimit="10" stroke-linecap="round" stroke-linejoin="round"/>
<path d="M5.80005 8.45C3.60005 8.2 2.05005 7.6 2.05005 6.9" stroke="#606580" stroke-miterlimit="10" stroke-linecap="round" stroke-linejoin="round"/>
<path d="M5.80005 11.85C3.60005 11.6 2.05005 11 2.05005 10.3" stroke="#606580" stroke-miterlimit="10" stroke-linecap="round" stroke-linejoin="round"/>
<path d="M8.69995 12.45C8.69995 12.45 9.49995 11.9 10.75 11.9C12 11.9 11.95 12.7 14 12.3V9.6C11.95 10 11.95 9.2 10.75 9.2C9.54995 9.2 8.69995 9.75 8.69995 9.75V15.15" stroke="#606580" stroke-miterlimit="10" stroke-linecap="round" stroke-linejoin="round"/>
</svg>
