<svg width="16" height="17" viewBox="0 0 16 17" fill="none" xmlns="http://www.w3.org/2000/svg">
<path d="M3.69995 6.9V3.5C3.69995 2.55 6.34995 1.8 9.59995 1.8C12.85 1.8 15.5 2.55 15.5 3.5V13.6C15.5 14.3 13.85 14.9 11.75 15.15" stroke="#606580" stroke-miterlimit="10" stroke-linecap="round" stroke-linejoin="round"/>
<path d="M3.69995 3.5C3.69995 4.45 6.34995 5.2 9.59995 5.2C12.85 5.2 15.5 4.45 15.5 3.5" stroke="#606580" stroke-miterlimit="10" stroke-linecap="round" stroke-linejoin="round"/>
<path d="M11.75 8.45C13.95 8.2 15.5 7.6 15.5 6.9" stroke="#606580" stroke-miterlimit="10" stroke-linecap="round" stroke-linejoin="round"/>
<path d="M11.75 11.85C13.95 11.6 15.5 11 15.5 10.3" stroke="#606580" stroke-miterlimit="10" stroke-linecap="round" stroke-linejoin="round"/>
<path d="M6.90002 12.15H10L8.45002 13.65" stroke="#606580" stroke-miterlimit="10" stroke-linecap="round" stroke-linejoin="round"/>
<path d="M9.99995 12.15L8.44995 10.6" stroke="#606580" stroke-miterlimit="10" stroke-linecap="round" stroke-linejoin="round"/>
<path d="M3.1 11.05L3.4 11.15C3.45 11.15 3.55 11.2 3.6 11.25L3.9 11.4L4.05 11.7C4.1 11.75 4.1 11.8 4.1 11.9L4.2 12.2L4.1 12.5C4.1 12.55 4.05 12.6 4.05 12.7L3.9 13L3.6 13.15C3.55 13.2 3.5 13.2 3.4 13.2L3.1 13.3L2.8 13.2C2.75 13.2 2.7 13.15 2.6 13.15L2.3 13L2.15 12.7C2.1 12.65 2.1 12.6 2.1 12.55L2 12.15L2.1 11.85C2.1 11.8 2.15 11.75 2.15 11.7L2.3 11.4L2.6 11.25C2.65 11.2 2.7 11.2 2.8 11.2L3.1 11.05ZM3.3 9.55H2.85C2.7 9.55 2.55 9.65 2.55 9.8L2.5 10.15C2.4 10.2 2.25 10.25 2.15 10.3L1.85 10.1C1.8 10.05 1.75 10.05 1.65 10.05C1.55 10.05 1.5 10.1 1.4 10.15L1.05 10.45C0.95 10.55 0.9 10.75 1 10.85L1.2 11.15C1.15 11.25 1.1 11.4 1.05 11.5L0.7 11.55C0.6 11.6 0.5 11.75 0.5 11.9V12.35C0.5 12.5 0.6 12.65 0.75 12.65L1.1 12.7C1.15 12.8 1.2 12.95 1.25 13.05L1.05 13.35C0.95 13.5 1 13.7 1.1 13.8L1.4 14.1C1.45 14.15 1.55 14.2 1.65 14.2C1.7 14.2 1.8 14.2 1.85 14.15L2.15 13.95C2.25 14 2.35 14.05 2.5 14.05L2.55 14.4C2.6 14.55 2.7 14.65 2.85 14.65H3.3C3.45 14.65 3.6 14.55 3.6 14.4L3.65 14.05C3.75 14 3.9 13.95 4 13.9L4.3 14.1C4.35 14.15 4.4 14.15 4.5 14.15C4.6 14.15 4.65 14.1 4.75 14.05L5.05 13.75C5.15 13.65 5.2 13.45 5.1 13.35L4.9 13.05C4.95 12.95 5 12.8 5.05 12.7L5.4 12.65C5.55 12.6 5.65 12.5 5.65 12.35V11.9C5.65 11.75 5.55 11.6 5.4 11.6L5.05 11.5C5 11.4 4.95 11.25 4.9 11.15L5.1 10.85C5.2 10.7 5.2 10.55 5.05 10.45L4.75 10.15C4.7 10.1 4.6 10.05 4.5 10.05C4.45 10.05 4.35 10.05 4.3 10.1L4 10.3C3.9 10.25 3.75 10.2 3.65 10.15L3.6 9.8C3.6 9.65 3.45 9.55 3.3 9.55Z" fill="#606580"/>
</svg>
