<svg width="16" height="18" viewBox="0 0 16 18" fill="none" xmlns="http://www.w3.org/2000/svg">
<path d="M7.99995 17.0001C4.14108 17.0001 1.03516 16.153 1.03516 15.0236V2.97637C1.03516 1.94107 4.14108 0.999878 7.99995 0.999878C11.8588 0.999878 14.9648 1.94107 14.9648 2.97637V8.99998" stroke="#727689" stroke-miterlimit="10" stroke-linecap="round" stroke-linejoin="round"/>
<path d="M14.9647 2.97656C14.9647 4.10599 11.8588 4.95306 7.99995 4.95306C4.14108 4.95306 1.03516 4.01187 1.03516 2.97656" stroke="#727689" stroke-miterlimit="10" stroke-linecap="round" stroke-linejoin="round"/>
<path d="M7.99995 13.3294C4.14108 13.3294 1.03516 12.3882 1.03516 11.3529" stroke="#727689" stroke-miterlimit="10" stroke-linecap="round" stroke-linejoin="round"/>
<path d="M7.99995 9.56487C4.14108 9.56487 1.03516 8.62369 1.03516 7.58838" stroke="#727689" stroke-miterlimit="10" stroke-linecap="round" stroke-linejoin="round"/>
<path d="M11.0352 12.5207C11.0352 11.6577 11.7338 11.0001 12.5968 11.0001C13.3776 11.0412 14.0352 11.6988 14.0352 12.5207C14.0352 12.9316 13.8708 13.3426 13.542 13.6303L12.8845 14.2878C12.6379 14.5344 12.5146 14.8221 12.5146 15.1508V15.1919" stroke="#727689" stroke-miterlimit="10" stroke-linecap="round" stroke-linejoin="round"/>
<path d="M12.5559 16.8357V17.0001" stroke="#727689" stroke-miterlimit="10" stroke-linecap="round" stroke-linejoin="round"/>
</svg>
