<svg width="16" height="16" viewBox="0 0 16 16" fill="none" xmlns="http://www.w3.org/2000/svg">
<path d="M11.6001 6.7C9.5001 6.7 7.8501 7.2 7.8501 7.75V14.2C7.8501 14.8 9.5501 15.25 11.6001 15.25C13.6501 15.25 15.3501 14.75 15.3501 14.2V7.8C15.3501 7.2 13.6501 6.7 11.6001 6.7Z" stroke="#606580" stroke-miterlimit="10" stroke-linecap="round" stroke-linejoin="round"/>
<path d="M15.3501 7.79999C15.3501 8.39999 13.6501 8.84999 11.6001 8.84999C9.5501 8.84999 7.8501 8.34999 7.8501 7.79999" stroke="#606580" stroke-miterlimit="10" stroke-linecap="round" stroke-linejoin="round"/>
<path d="M15.3501 9.95C15.3501 10.55 13.6501 11 11.6001 11C9.5501 11 7.8501 10.5 7.8501 9.95" stroke="#606580" stroke-miterlimit="10" stroke-linecap="round" stroke-linejoin="round"/>
<path d="M15.3501 12.05C15.3501 12.65 13.6501 13.1 11.6001 13.1C9.5501 13.1 7.8501 12.6 7.8501 12.05" stroke="#606580" stroke-miterlimit="10" stroke-linecap="round" stroke-linejoin="round"/>
<path d="M8.3501 4V1.8C8.3501 1.2 6.6501 0.75 4.6001 0.75C2.5501 0.75 0.850098 1.25 0.850098 1.8V8.25C0.850098 8.85 2.5501 9.3 4.6001 9.3" stroke="#606580" stroke-miterlimit="10" stroke-linecap="round" stroke-linejoin="round"/>
<path d="M8.3501 1.8C8.3501 2.4 6.6501 2.85 4.6001 2.85C2.5501 2.85 0.850098 2.35 0.850098 1.8" stroke="#606580" stroke-miterlimit="10" stroke-linecap="round" stroke-linejoin="round"/>
<path d="M8.3501 3.95C8.3501 4.55 6.6501 5 4.6001 5C2.5501 5 0.850098 4.5 0.850098 3.95" stroke="#606580" stroke-miterlimit="10" stroke-linecap="round" stroke-linejoin="round"/>
<path d="M4.6001 7.15001C2.5001 7.15001 0.850098 6.65001 0.850098 6.10001" stroke="#606580" stroke-miterlimit="10" stroke-linecap="round" stroke-linejoin="round"/>
<path d="M14.9 4L13.85 5.05L12.8 4" stroke="#606580" stroke-miterlimit="10" stroke-linecap="round" stroke-linejoin="round"/>
<path d="M13.85 5.05V2.95C13.85 2.15 13.2 1.5 12.4 1.5H11" stroke="#606580" stroke-miterlimit="10" stroke-linecap="round" stroke-linejoin="round"/>
<path d="M1 12.55L2.05 11.5L3.1 12.55" stroke="#606580" stroke-miterlimit="10" stroke-linecap="round" stroke-linejoin="round"/>
<path d="M2.05005 11.5V13.65C2.05005 14.45 2.70005 15.1 3.50005 15.1H4.95005" stroke="#606580" stroke-miterlimit="10" stroke-linecap="round" stroke-linejoin="round"/>
</svg>
