<svg width="16" height="17" viewBox="0 0 16 17" fill="none" xmlns="http://www.w3.org/2000/svg">
<path d="M13.1 6.75V3.4C13.1 2.45 10.45 1.7 7.20005 1.7C3.95005 1.7 1.30005 2.45 1.30005 3.4V13.5C1.30005 14.2 2.95005 14.8 5.05005 15.05" stroke="#606580" stroke-miterlimit="10" stroke-linecap="round" stroke-linejoin="round"/>
<path d="M13.1 3.39999C13.1 4.34999 10.45 5.09999 7.20005 5.09999C3.95005 5.09999 1.30005 4.29999 1.30005 3.39999" stroke="#606580" stroke-miterlimit="10" stroke-linecap="round" stroke-linejoin="round"/>
<path d="M5.05005 8.35C2.85005 8.1 1.30005 7.5 1.30005 6.8" stroke="#606580" stroke-miterlimit="10" stroke-linecap="round" stroke-linejoin="round"/>
<path d="M5.05005 11.7C2.85005 11.45 1.30005 10.85 1.30005 10.15" stroke="#606580" stroke-miterlimit="10" stroke-linecap="round" stroke-linejoin="round"/>
<path d="M10.8 9.7C10.95 9.95 11.05 10.25 11.2 10.5C11.35 10.85 11.7 11.1 12.05 11.15C12.35 11.2 12.65 11.25 12.9 11.25C12.7 11.45 12.5 11.65 12.3 11.85C12 12.1 11.9 12.5 11.95 12.9C12 13.2 12.05 13.45 12.1 13.75C11.85 13.6 11.6 13.5 11.35 13.35C11.2 13.25 11 13.2 10.8 13.2C10.6 13.2 10.45 13.25 10.25 13.35C9.99998 13.5 9.74998 13.6 9.49998 13.75C9.54998 13.45 9.59998 13.2 9.64998 12.9C9.69998 12.5 9.59998 12.15 9.29998 11.85C9.09998 11.65 8.89998 11.45 8.69998 11.25L8.94998 11.2C9.14998 11.15 9.39998 11.15 9.59998 11.1C9.94998 11.05 10.25 10.8 10.45 10.5C10.5 10.2 10.65 9.95 10.8 9.7ZM10.8 7.8C10.65 7.8 10.6 7.85 10.55 7.95C10.55 7.95 10.55 8 10.5 8C10.15 8.65 9.84998 9.35 9.49998 10C9.49998 10.05 9.44998 10.05 9.39998 10.05C9.09998 10.1 8.79998 10.15 8.49998 10.2C8.04998 10.25 7.54998 10.35 7.09998 10.4C6.94998 10.4 6.84998 10.55 6.84998 10.7C6.84998 10.8 6.89998 10.85 6.94998 10.9C7.49998 11.4 8.04998 11.95 8.54998 12.45C8.59998 12.5 8.59998 12.55 8.59998 12.6C8.49998 13.2 8.39998 13.8 8.29998 14.4C8.24998 14.55 8.24998 14.75 8.19998 14.9C8.19998 14.95 8.19998 14.95 8.19998 15C8.24998 15.15 8.34998 15.2 8.49998 15.2C8.54998 15.2 8.59998 15.2 8.64998 15.15C9.29998 14.8 9.99998 14.45 10.65 14.1C10.7 14.1 10.7 14.1 10.7 14.1C10.7 14.1 10.75 14.1 10.8 14.1C11.45 14.45 12.15 14.8 12.8 15.15C12.85 15.2 12.9 15.2 12.95 15.2C13 15.2 13.05 15.2 13.1 15.15C13.2 15.1 13.25 14.95 13.2 14.85C13.05 14.1 12.95 13.35 12.8 12.6C12.8 12.55 12.8 12.5 12.85 12.45C13.4 11.95 13.95 11.4 14.5 10.85C14.6 10.75 14.65 10.65 14.6 10.55C14.55 10.4 14.45 10.35 14.35 10.35C13.6 10.25 12.85 10.15 12.1 10C12.05 10 12 9.94999 12 9.89999C11.8 9.54999 11.65 9.15 11.45 8.8C11.3 8.5 11.15 8.15 11 7.85C11 7.85 10.9 7.8 10.8 7.8Z" fill="#606580"/>
</svg>
