<svg width="16" height="17" viewBox="0 0 16 17" fill="none" xmlns="http://www.w3.org/2000/svg">
<path d="M3.34961 6.8V3.4C3.34961 2.5 5.99961 1.75 9.24961 1.75C12.4996 1.75 15.1496 2.5 15.1496 3.4V13.5C15.1496 14.2 13.4996 14.8 11.3996 15.05" stroke="#606580" stroke-miterlimit="10" stroke-linecap="round" stroke-linejoin="round"/>
<path d="M3.34961 3.4C3.34961 4.35 5.99961 5.1 9.24961 5.1C12.4996 5.1 15.1496 4.35 15.1496 3.4" stroke="#606580" stroke-miterlimit="10" stroke-linecap="round" stroke-linejoin="round"/>
<path d="M11.3997 8.35C13.5997 8.1 15.1497 7.5 15.1497 6.8" stroke="#606580" stroke-miterlimit="10" stroke-linecap="round" stroke-linejoin="round"/>
<path d="M11.3997 11.75C13.5997 11.5 15.1497 10.9 15.1497 10.2" stroke="#606580" stroke-miterlimit="10" stroke-linecap="round" stroke-linejoin="round"/>
<path d="M0.849854 9.8L5.59985 15.25" stroke="#606580" stroke-miterlimit="10" stroke-linecap="round" stroke-linejoin="round"/>
<path d="M5.59985 9.8L0.849854 15.25H2.54985" stroke="#606580" stroke-miterlimit="10" stroke-linecap="round" stroke-linejoin="round"/>
<path d="M6.5498 12.55H9.6498L8.0998 14.1" stroke="#606580" stroke-miterlimit="10" stroke-linecap="round" stroke-linejoin="round"/>
<path d="M9.64985 12.55L8.09985 11" stroke="#606580" stroke-miterlimit="10" stroke-linecap="round" stroke-linejoin="round"/>
</svg>
