<svg width="16" height="17" viewBox="0 0 16 17" fill="none" xmlns="http://www.w3.org/2000/svg">
<path d="M12.75 6.3V2.95C12.75 2 10.1 1.25 6.84995 1.25C3.59995 1.25 0.949951 2 0.949951 2.95V13.05C0.949951 13.75 2.59995 14.35 4.69995 14.6" stroke="#606580" stroke-miterlimit="10" stroke-linecap="round" stroke-linejoin="round"/>
<path d="M12.75 2.95C12.75 3.9 10.1 4.65 6.84995 4.65C3.59995 4.65 0.949951 3.85 0.949951 2.95" stroke="#606580" stroke-miterlimit="10" stroke-linecap="round" stroke-linejoin="round"/>
<path d="M4.69995 7.9C2.49995 7.65 0.949951 7 0.949951 6.3" stroke="#606580" stroke-miterlimit="10" stroke-linecap="round" stroke-linejoin="round"/>
<path d="M4.69995 11.25C2.49995 11 0.949951 10.4 0.949951 9.7" stroke="#606580" stroke-miterlimit="10" stroke-linecap="round" stroke-linejoin="round"/>
<path d="M11.4501 15.75C13.4383 15.75 15.0501 14.1382 15.0501 12.15C15.0501 10.1618 13.4383 8.55 11.4501 8.55C9.46187 8.55 7.8501 10.1618 7.8501 12.15C7.8501 14.1382 9.46187 15.75 11.4501 15.75Z" stroke="#606580" stroke-miterlimit="10" stroke-linecap="round" stroke-linejoin="round"/>
<path d="M11.45 10.75V12.4L12.3 12.85" stroke="#606580" stroke-miterlimit="10" stroke-linecap="round" stroke-linejoin="round"/>
</svg>
