<svg width="16" height="18" viewBox="0 0 16 18" fill="none" xmlns="http://www.w3.org/2000/svg">
<path d="M7.9648 17.0001C4.10592 17.0001 1 16.153 1 15.0236V2.97637C1 1.94107 4.10592 0.999878 7.9648 0.999878C11.8237 0.999878 14.9296 1.94107 14.9296 2.97637V8.99998" stroke="#727689" stroke-miterlimit="10" stroke-linecap="round" stroke-linejoin="round"/>
<path d="M14.9296 2.97656C14.9296 4.10599 11.8237 4.95306 7.9648 4.95306C4.10592 4.95306 1 4.01187 1 2.97656" stroke="#727689" stroke-miterlimit="10" stroke-linecap="round" stroke-linejoin="round"/>
<path d="M7.9648 13.3294C4.10592 13.3294 1 12.3882 1 11.3529" stroke="#727689" stroke-miterlimit="10" stroke-linecap="round" stroke-linejoin="round"/>
<path d="M7.9648 9.56487C4.10592 9.56487 1 8.62369 1 7.58838" stroke="#727689" stroke-miterlimit="10" stroke-linecap="round" stroke-linejoin="round"/>
<path fill-rule="evenodd" clip-rule="evenodd" d="M14.9004 12.1179C15.0332 12.2749 15.0332 12.5294 14.9004 12.6864L12.2473 15.8221C12.2315 15.8408 12.2141 15.8576 12.1955 15.8723C12.0883 15.9568 11.963 16.0001 11.841 16.0001C11.7221 16.0001 11.5746 15.9573 11.4602 15.8221L10.0996 14.214C9.96679 14.057 9.96679 13.8025 10.0996 13.6455C10.2325 13.4885 10.4478 13.4885 10.5806 13.6455L11.8537 15.1502L14.4194 12.1179C14.5522 11.9609 14.7675 11.9609 14.9004 12.1179Z" fill="#727689"/>
</svg>
