<svg width="16" height="17" viewBox="0 0 16 17" fill="none" xmlns="http://www.w3.org/2000/svg">
<path d="M3.34998 6.85V3.45C3.34998 2.5 5.99998 1.75 9.24998 1.75C12.5 1.75 15.15 2.5 15.15 3.45V13.55C15.15 14.25 13.5 14.85 11.4 15.1" stroke="#606580" stroke-miterlimit="10" stroke-linecap="round" stroke-linejoin="round"/>
<path d="M3.34998 3.45C3.34998 4.4 5.99998 5.15 9.24998 5.15C12.5 5.15 15.15 4.4 15.15 3.45" stroke="#606580" stroke-miterlimit="10" stroke-linecap="round" stroke-linejoin="round"/>
<path d="M11.3999 8.4C13.5999 8.15 15.1499 7.55 15.1499 6.85" stroke="#606580" stroke-miterlimit="10" stroke-linecap="round" stroke-linejoin="round"/>
<path d="M11.3999 11.8C13.5999 11.55 15.1499 10.95 15.1499 10.25" stroke="#606580" stroke-miterlimit="10" stroke-linecap="round" stroke-linejoin="round"/>
<path d="M6.55005 12.1H9.65005L8.10005 13.65" stroke="#606580" stroke-miterlimit="10" stroke-linecap="round" stroke-linejoin="round"/>
<path d="M9.64997 12.1L8.09998 10.55" stroke="#606580" stroke-miterlimit="10" stroke-linecap="round" stroke-linejoin="round"/>
<path d="M5.60005 13.65L6.10005 15.2L4.55005 14.7L0.800049 11L1.85005 9.95L5.60005 13.65Z" stroke="#606580" stroke-miterlimit="10" stroke-linecap="round" stroke-linejoin="round"/>
<path d="M1.69995 11.85L2.74995 10.8" stroke="#606580" stroke-miterlimit="10" stroke-linecap="round" stroke-linejoin="round"/>
</svg>
