<svg width="16" height="18" viewBox="0 0 16 18" fill="none" xmlns="http://www.w3.org/2000/svg">
  <path d="M8.0002 0.999756C4.14132 0.999756 1.0354 1.94095 1.0354 2.97625V15.0235C1.0354 16.1529 4.14132 17 8.0002 17C11.8591 17 14.965 16.0588 14.965 15.0235V2.97625C14.965 1.94095 11.8591 0.999756 8.0002 0.999756Z" stroke="#606580" stroke-miterlimit="10" stroke-linecap="round" stroke-linejoin="round"/>
  <path d="M14.965 2.97644C14.965 4.10587 11.8591 4.95294 8.0002 4.95294C4.14132 4.95294 1.0354 4.01175 1.0354 2.97644" stroke="#606580" stroke-miterlimit="10" stroke-linecap="round" stroke-linejoin="round"/>
  <path d="M14.965 11.3528C14.965 12.4822 11.8591 13.3293 8.0002 13.3293C4.14132 13.3293 1.0354 12.3881 1.0354 11.3528" stroke="#606580" stroke-miterlimit="10" stroke-linecap="round" stroke-linejoin="round"/>
  <path d="M14.965 7.58826C14.965 8.71768 11.8591 9.56475 8.0002 9.56475C4.14132 9.56475 1.0354 8.62356 1.0354 7.58826" stroke="#606580" stroke-miterlimit="10" stroke-linecap="round" stroke-linejoin="round"/>
</svg>
