<svg width="16" height="17" viewBox="0 0 16 17" fill="none" xmlns="http://www.w3.org/2000/svg">
<path d="M7.50017 2.39996H4.30017" stroke="#606580" stroke-miterlimit="10" stroke-linecap="round" stroke-linejoin="round"/>
<path d="M2.80015 2.39996H1.75015C1.15015 2.39996 0.650146 2.89996 0.650146 3.49996V11.2C0.650146 11.8 1.15015 12.3 1.75015 12.3H5.50015" stroke="#606580" stroke-miterlimit="10" stroke-linecap="round" stroke-linejoin="round"/>
<path d="M3.5501 1.14996C3.1501 1.14996 2.8501 1.44996 2.8501 1.84996V3.39996C2.8501 3.79996 3.1501 4.09996 3.5501 4.09996C3.9501 4.09996 4.2501 3.79996 4.2501 3.39996V1.84996C4.2501 1.44996 3.9501 1.14996 3.5501 1.14996Z" stroke="#606580" stroke-miterlimit="10" stroke-linecap="round" stroke-linejoin="round"/>
<path d="M8.45 1.1499C8.05 1.1499 7.75 1.4499 7.75 1.8499V3.3999C7.75 3.7999 8.05 4.0999 8.45 4.0999C8.85 4.0999 9.15 3.7999 9.15 3.3999V1.8499C9.1 1.4499 8.8 1.1499 8.45 1.1499Z" stroke="#606580" stroke-miterlimit="10" stroke-linecap="round" stroke-linejoin="round"/>
<path d="M0.750122 5.79996H11.0001H11.4001V3.49996C11.4001 2.89996 10.9001 2.39996 10.3001 2.39996H9.25012" stroke="#606580" stroke-miterlimit="10" stroke-linecap="round" stroke-linejoin="round"/>
<path d="M11.5502 15.85C13.6765 15.85 15.4002 14.1263 15.4002 12C15.4002 9.87367 13.6765 8.14996 11.5502 8.14996C9.4239 8.14996 7.7002 9.87367 7.7002 12C7.7002 14.1263 9.4239 15.85 11.5502 15.85Z" stroke="#606580" stroke-miterlimit="10" stroke-linecap="round" stroke-linejoin="round"/>
<path d="M10.8501 14.1V9.94995C10.8501 9.94995 10.8501 9.94995 11.9001 9.94995C12.9501 9.94995 13.0001 11 13.0001 11C13.0001 11 13.0001 12.05 11.9501 12.05C11.2001 12.05 10.4501 12.05 10.1001 12.05" stroke="#606580" stroke-miterlimit="10" stroke-linecap="round" stroke-linejoin="round"/>
<path d="M11.9001 13.05H10.1001" stroke="#606580" stroke-miterlimit="10" stroke-linecap="round" stroke-linejoin="round"/>
</svg>
