<svg width="16" height="17" viewBox="0 0 16 17" fill="none" xmlns="http://www.w3.org/2000/svg">
<path d="M8.79995 3.54999H5.19995" stroke="#606580" stroke-miterlimit="10" stroke-linecap="round" stroke-linejoin="round"/>
<path d="M13.25 7.44998V4.84998C13.25 4.14998 12.7 3.59998 12 3.59998H10.8" stroke="#606580" stroke-miterlimit="10" stroke-linecap="round" stroke-linejoin="round"/>
<path d="M3.45 3.54999H2.25C1.55 3.54999 1 4.14999 1 4.84999V13.6C1 14.3 1.55 14.85 2.25 14.85" stroke="#606580" stroke-miterlimit="10" stroke-linecap="round" stroke-linejoin="round"/>
<path d="M4.34998 2.15002C3.94998 2.15002 3.59998 2.50002 3.59998 2.95002V4.70002C3.59998 5.15002 3.94998 5.50002 4.39998 5.50002C4.84998 5.50002 5.19998 5.15002 5.19998 4.70002V2.95002C5.14998 2.50002 4.79998 2.15002 4.34998 2.15002Z" stroke="#606580" stroke-miterlimit="10" stroke-linecap="round" stroke-linejoin="round"/>
<path d="M9.89985 2.15002C9.44985 2.15002 9.09985 2.50002 9.09985 2.95002V4.70002C9.09985 5.15002 9.44985 5.50002 9.89985 5.50002C10.3499 5.50002 10.6999 5.15002 10.6999 4.70002V2.95002C10.6499 2.50002 10.2999 2.15002 9.89985 2.15002Z" stroke="#606580" stroke-miterlimit="10" stroke-linecap="round" stroke-linejoin="round"/>
<path d="M1.15002 7.44995H13.25" stroke="#606580" stroke-miterlimit="10" stroke-linecap="round" stroke-linejoin="round"/>
<path d="M15 11.6L13.05 9.65002L9.5 13.2L7.9 11.6L4.75 14.75" stroke="#606580" stroke-miterlimit="10" stroke-linecap="round" stroke-linejoin="round"/>
</svg>
