<svg width="16" height="17" viewBox="0 0 16 17" fill="none" xmlns="http://www.w3.org/2000/svg">
<path d="M9.14998 3H5.34998" stroke="#606580" stroke-miterlimit="10" stroke-linecap="round" stroke-linejoin="round"/>
<path d="M13.8 5.35V4.35C13.8 3.6 13.2 3 12.45 3H11.2" stroke="#606580" stroke-miterlimit="10" stroke-linecap="round" stroke-linejoin="round"/>
<path d="M3.54995 3H2.29995C1.54995 3 0.949951 3.55 0.949951 4.3V13.5C0.949951 14.25 1.54995 14.85 2.29995 14.85H4.94995" stroke="#606580" stroke-miterlimit="10" stroke-linecap="round" stroke-linejoin="round"/>
<path d="M4.4499 1.5C3.9999 1.5 3.6499 1.85 3.6499 2.3V4.15C3.6499 4.65 3.9999 5 4.4499 5C4.8999 5 5.2499 4.65 5.2499 4.2V2.3C5.2999 1.85 4.9499 1.5 4.4499 1.5Z" stroke="#606580" stroke-miterlimit="10" stroke-linecap="round" stroke-linejoin="round"/>
<path d="M10.2999 1.5C9.84988 1.5 9.49988 1.85 9.49988 2.3V4.15C9.49988 4.6 9.84988 4.95 10.2999 4.95C10.7499 4.95 11.0999 4.6 11.0999 4.15V2.3C11.0999 1.85 10.7499 1.5 10.2999 1.5Z" stroke="#606580" stroke-miterlimit="10" stroke-linecap="round" stroke-linejoin="round"/>
<path d="M1.09998 7.04999H4.94998" stroke="#606580" stroke-miterlimit="10" stroke-linecap="round" stroke-linejoin="round"/>
<path d="M11 15.5C13.2367 15.5 15.05 13.6868 15.05 11.45C15.05 9.21327 13.2367 7.40002 11 7.40002C8.7632 7.40002 6.94995 9.21327 6.94995 11.45C6.94995 13.6868 8.7632 15.5 11 15.5Z" stroke="#606580" stroke-miterlimit="10" stroke-linecap="round" stroke-linejoin="round"/>
<path d="M11 9.25V11.45" stroke="#606580" stroke-miterlimit="10" stroke-linecap="round" stroke-linejoin="round"/>
<path d="M11 13.3V13.5" stroke="#606580" stroke-miterlimit="10" stroke-linecap="round" stroke-linejoin="round"/>
</svg>
