<svg width="16" height="17" viewBox="0 0 16 17" fill="none" xmlns="http://www.w3.org/2000/svg">
<path d="M9.7001 3H5.8501" stroke="#606580" stroke-miterlimit="10" stroke-linecap="round" stroke-linejoin="round"/>
<path d="M14.4002 6.6V4.35C14.4002 3.6 13.8002 3 13.0502 3H11.8002" stroke="#606580" stroke-miterlimit="10" stroke-linecap="round" stroke-linejoin="round"/>
<path d="M4.00015 3H2.75015C2.00015 3 1.40015 3.6 1.40015 4.35V13.6C1.40015 14.35 2.00015 14.95 2.75015 14.95H5.45015" stroke="#606580" stroke-miterlimit="10" stroke-linecap="round" stroke-linejoin="round"/>
<path d="M4.9501 1.5C4.5001 1.5 4.1001 1.85 4.1001 2.35V4.25C4.1001 4.7 4.4501 5.1 4.9501 5.1C5.4001 5.1 5.8001 4.75 5.8001 4.25V2.35C5.8001 1.85 5.4001 1.5 4.9501 1.5Z" stroke="#606580" stroke-miterlimit="10" stroke-linecap="round" stroke-linejoin="round"/>
<path d="M10.8 1.5C10.35 1.5 10 1.85 10 2.35V4.25C10 4.7 10.35 5.1 10.85 5.1C11.3 5.1 11.7 4.75 11.7 4.25V2.35C11.65 1.85 11.25 1.5 10.8 1.5Z" stroke="#606580" stroke-miterlimit="10" stroke-linecap="round" stroke-linejoin="round"/>
<path d="M1.55017 7.09998H5.40017" stroke="#606580" stroke-miterlimit="10" stroke-linecap="round" stroke-linejoin="round"/>
<path d="M8.40015 14.9V8.04999C8.40015 7.54999 8.95015 7.24999 9.35015 7.54999L14.3501 10.95C14.7001 11.2 14.7001 11.7 14.3501 11.95L9.35015 15.35C8.95015 15.65 8.40015 15.4 8.40015 14.9Z" stroke="#606580" stroke-miterlimit="10" stroke-linecap="round" stroke-linejoin="round"/>
</svg>
