<svg width="19" height="19" viewBox="0 0 19 19" fill="none" xmlns="http://www.w3.org/2000/svg">
<path d="M7.24365 3.02832H11.9937" stroke="#727689" stroke-miterlimit="10" stroke-linecap="round" stroke-linejoin="round"/>
<path d="M1.48442 9.61895V4.69082C1.48442 3.8002 2.2563 3.02832 3.14692 3.02832H4.69067" stroke="#727689" stroke-miterlimit="10" stroke-linecap="round" stroke-linejoin="round"/>
<path d="M14.3094 3.02832H15.8531C16.7437 3.02832 17.5156 3.8002 17.5156 4.69082V16.1502C17.5156 17.0408 16.7437 17.8127 15.8531 17.8127H9.5" stroke="#727689" stroke-miterlimit="10" stroke-linecap="round" stroke-linejoin="round"/>
<path d="M13.122 1.1875C13.7157 1.1875 14.1313 1.6625 14.1313 2.19688V4.5125C14.1313 5.10625 13.6563 5.52188 13.122 5.52188C12.5282 5.52188 12.1126 5.04687 12.1126 4.5125V2.19688C12.1126 1.6625 12.5282 1.1875 13.122 1.1875Z" stroke="#727689" stroke-miterlimit="10" stroke-linecap="round" stroke-linejoin="round"/>
<path d="M5.87832 1.1875C6.47207 1.1875 6.8877 1.6625 6.8877 2.19688V4.5125C6.8877 5.10625 6.41269 5.52188 5.87832 5.52188C5.28457 5.52188 4.86895 5.04687 4.86895 4.5125V2.19688C4.86895 1.6625 5.28457 1.1875 5.87832 1.1875Z" stroke="#727689" stroke-miterlimit="10" stroke-linecap="round" stroke-linejoin="round"/>
<path d="M17.2781 8.13477H2.07808" stroke="#727689" stroke-miterlimit="10" stroke-linecap="round" stroke-linejoin="round"/>
<path d="M1.1875 15.4375L5.9375 15.4375" stroke="#727689" stroke-linecap="round"/>
<path d="M1.1875 13.0625L1.1875 17.8125" stroke="#727689" stroke-linecap="round"/>
<path d="M4.5125 13.0625L7.125 15.6156L4.5125 18.2281" stroke="#727689" stroke-miterlimit="10" stroke-linecap="round" stroke-linejoin="round"/>
</svg>
