<svg width="16" height="16" viewBox="0 0 16 16" fill="none" xmlns="http://www.w3.org/2000/svg">
<path d="M9.90002 2.5498H5.90002" stroke="#97A3BA" stroke-miterlimit="10" stroke-linecap="round" stroke-linejoin="round"/>
<path d="M14.75 8.0998V3.9498C14.75 3.1998 14.1 2.5498 13.35 2.5498H12.05" stroke="#97A3BA" stroke-miterlimit="10" stroke-linecap="round" stroke-linejoin="round"/>
<path d="M3.95 2.5498H2.65C1.9 2.5498 1.25 3.1998 1.25 3.9498V13.5998C1.25 14.3498 1.9 14.9998 2.65 14.9998H8" stroke="#97A3BA" stroke-miterlimit="10" stroke-linecap="round" stroke-linejoin="round"/>
<path d="M4.94998 1C4.44998 1 4.09998 1.4 4.09998 1.85V3.8C4.09998 4.3 4.49998 4.65 4.94998 4.65C5.44998 4.65 5.79998 4.25 5.79998 3.8V1.85C5.79998 1.4 5.44998 1 4.94998 1Z" stroke="#97A3BA" stroke-miterlimit="10" stroke-linecap="round" stroke-linejoin="round"/>
<path d="M11.0498 1C10.5498 1 10.1998 1.4 10.1998 1.85V3.8C10.1998 4.3 10.5998 4.65 11.0498 4.65C11.5498 4.65 11.8998 4.25 11.8998 3.8V1.85C11.8998 1.4 11.5498 1 11.0498 1Z" stroke="#97A3BA" stroke-miterlimit="10" stroke-linecap="round" stroke-linejoin="round"/>
<path d="M1.44995 6.84961H14.25" stroke="#97A3BA" stroke-miterlimit="10" stroke-linecap="round" stroke-linejoin="round"/>
<path d="M11.4894 14.0035L10 14.5L10.4965 13.0106L14.0071 9.5L15 10.4929L11.4894 14.0035Z" stroke="#97A3BA" stroke-width="0.8" stroke-miterlimit="10" stroke-linecap="round" stroke-linejoin="round"/>
<path d="M13 10.5L14 11.5" stroke="#97A3BA" stroke-width="0.8" stroke-miterlimit="10" stroke-linecap="round" stroke-linejoin="round"/>
</svg>
