<svg width="16" height="17" viewBox="0 0 16 17" fill="none" xmlns="http://www.w3.org/2000/svg">
<path d="M9.90002 3.04999H5.90002" stroke="#606580" stroke-miterlimit="10" stroke-linecap="round" stroke-linejoin="round"/>
<path d="M3.95 3.04999H2.65C1.9 3.04999 1.25 3.69999 1.25 4.44999V14.1C1.25 14.85 1.9 15.5 2.65 15.5H13.35C14.1 15.5 14.75 14.85 14.75 14.1V4.44999C14.75 3.69999 14.1 3.04999 13.35 3.04999H12.05" stroke="#606580" stroke-miterlimit="10" stroke-linecap="round" stroke-linejoin="round"/>
<path d="M4.94998 1.5C4.44998 1.5 4.09998 1.9 4.09998 2.35V4.3C4.09998 4.8 4.49998 5.15 4.94998 5.15C5.44998 5.15 5.79998 4.75 5.79998 4.3V2.35C5.79998 1.9 5.44998 1.5 4.94998 1.5Z" stroke="#606580" stroke-miterlimit="10" stroke-linecap="round" stroke-linejoin="round"/>
<path d="M11.0498 1.5C10.5498 1.5 10.1998 1.9 10.1998 2.35V4.3C10.1998 4.8 10.5998 5.15 11.0498 5.15C11.5498 5.15 11.8998 4.75 11.8998 4.3V2.35C11.8998 1.9 11.5498 1.5 11.0498 1.5Z" stroke="#606580" stroke-miterlimit="10" stroke-linecap="round" stroke-linejoin="round"/>
<path d="M1.44995 7.34998H14.25" stroke="#606580" stroke-miterlimit="10" stroke-linecap="round" stroke-linejoin="round"/>
</svg>
