<svg width="19" height="19" viewBox="0 0 19 19" fill="none" xmlns="http://www.w3.org/2000/svg">
<path d="M11.7563 3.02832H7.00635" stroke="#727689" stroke-miterlimit="10" stroke-linecap="round" stroke-linejoin="round"/>
<path d="M17.5156 9.61895V4.69082C17.5156 3.8002 16.7437 3.02832 15.8531 3.02832H14.3093" stroke="#727689" stroke-miterlimit="10" stroke-linecap="round" stroke-linejoin="round"/>
<path d="M4.69063 3.02832H3.14688C2.25625 3.02832 1.48438 3.8002 1.48438 4.69082V16.1502C1.48438 17.0408 2.25625 17.8127 3.14688 17.8127H9.5" stroke="#727689" stroke-miterlimit="10" stroke-linecap="round" stroke-linejoin="round"/>
<path d="M5.87803 1.1875C5.28428 1.1875 4.86865 1.6625 4.86865 2.19688V4.5125C4.86865 5.10625 5.34365 5.52188 5.87803 5.52188C6.47178 5.52188 6.8874 5.04687 6.8874 4.5125V2.19688C6.8874 1.6625 6.47178 1.1875 5.87803 1.1875Z" stroke="#727689" stroke-miterlimit="10" stroke-linecap="round" stroke-linejoin="round"/>
<path d="M13.1217 1.1875C12.5279 1.1875 12.1123 1.6625 12.1123 2.19688V4.5125C12.1123 5.10625 12.5873 5.52188 13.1217 5.52188C13.7154 5.52188 14.1311 5.04687 14.1311 4.5125V2.19688C14.1311 1.6625 13.7154 1.1875 13.1217 1.1875Z" stroke="#727689" stroke-miterlimit="10" stroke-linecap="round" stroke-linejoin="round"/>
<path d="M1.72192 8.13477H16.9219" stroke="#727689" stroke-miterlimit="10" stroke-linecap="round" stroke-linejoin="round"/>
<path d="M10.6875 15.4375L15.4375 15.4375" stroke="#727689" stroke-linecap="round"/>
<path d="M17.8125 13.0625L17.8125 17.8125" stroke="#727689" stroke-linecap="round"/>
<path d="M14.0125 13.0625L16.625 15.6156L14.0125 18.2281" stroke="#727689" stroke-miterlimit="10" stroke-linecap="round" stroke-linejoin="round"/>
</svg>
