<svg width="16" height="16" viewBox="0 0 16 16" fill="none" xmlns="http://www.w3.org/2000/svg">
<path d="M9.14961 2.5H5.34961" stroke="#97A3BA" stroke-miterlimit="10" stroke-linecap="round" stroke-linejoin="round"/>
<path d="M13.7992 4.85V3.85C13.7992 3.1 13.1992 2.5 12.4492 2.5H11.1992" stroke="#97A3BA" stroke-miterlimit="10" stroke-linecap="round" stroke-linejoin="round"/>
<path d="M3.54922 2.5H2.29922C1.54922 2.5 0.949219 3.05 0.949219 3.8V13C0.949219 13.75 1.54922 14.35 2.29922 14.35H4.94922" stroke="#97A3BA" stroke-miterlimit="10" stroke-linecap="round" stroke-linejoin="round"/>
<path d="M4.44844 1C3.99844 1 3.64844 1.35 3.64844 1.8V3.65C3.64844 4.15 3.99844 4.5 4.44844 4.5C4.89844 4.5 5.24844 4.15 5.24844 3.7V1.8C5.29844 1.35 4.94844 1 4.44844 1Z" stroke="#97A3BA" stroke-miterlimit="10" stroke-linecap="round" stroke-linejoin="round"/>
<path d="M10.298 1C9.84805 1 9.49805 1.35 9.49805 1.8V3.65C9.49805 4.1 9.84805 4.45 10.298 4.45C10.748 4.45 11.098 4.1 11.098 3.65V1.8C11.098 1.35 10.748 1 10.298 1Z" stroke="#97A3BA" stroke-miterlimit="10" stroke-linecap="round" stroke-linejoin="round"/>
<path d="M1.09961 6.55005H4.94961" stroke="#97A3BA" stroke-miterlimit="10" stroke-linecap="round" stroke-linejoin="round"/>
<path d="M8.63203 13.9313L8.51953 13.1437L9.30703 13.0312" stroke="#97A3BA" stroke-miterlimit="10" stroke-linecap="round" stroke-linejoin="round"/>
<path d="M9.83984 6.64697L10.5711 6.98447L10.2336 7.6876" stroke="#97A3BA" stroke-miterlimit="10" stroke-linecap="round" stroke-linejoin="round"/>
<path d="M15.4367 11.5969L14.7617 12.0187L14.3398 11.3438" stroke="#97A3BA" stroke-miterlimit="10" stroke-linecap="round" stroke-linejoin="round"/>
<path d="M8.74414 13.3689C9.41914 13.9876 10.291 14.3533 11.2754 14.3533C12.2598 14.3533 13.1316 13.9595 13.8066 13.3689" stroke="#97A3BA" stroke-width="0.8" stroke-miterlimit="10" stroke-linecap="round" stroke-linejoin="round"/>
<path d="M14.8191 11.7376C14.9316 11.4001 14.9879 11.0345 14.9879 10.6408C14.9879 8.8689 13.7504 7.4064 12.1191 7.04077" stroke="#97A3BA" stroke-width="0.8" stroke-miterlimit="10" stroke-linecap="round" stroke-linejoin="round"/>
<path d="M10.4312 7.04077C8.8 7.43452 7.5625 8.89702 7.5625 10.6408C7.5625 11.0064 7.61875 11.372 7.73125 11.7376" stroke="#97A3BA" stroke-width="0.8" stroke-miterlimit="10" stroke-linecap="round" stroke-linejoin="round"/>
</svg>
