<svg width="16" height="17" viewBox="0 0 16 17" fill="none" xmlns="http://www.w3.org/2000/svg">
<path d="M9.74988 2.79999H5.74988" stroke="#606580" stroke-miterlimit="10" stroke-linecap="round" stroke-linejoin="round"/>
<path d="M3.79985 2.79999H2.49985C1.74985 2.79999 1.09985 3.44999 1.09985 4.19999V13.85C1.09985 14.6 1.74985 15.25 2.49985 15.25H6.84985" stroke="#606580" stroke-miterlimit="10" stroke-linecap="round" stroke-linejoin="round"/>
<path d="M4.79983 1.25C4.29983 1.25 3.94983 1.65 3.94983 2.1V4.05C3.94983 4.55 4.34983 4.9 4.79983 4.9C5.29983 4.9 5.64983 4.5 5.64983 4.05V2.1C5.64983 1.65 5.29983 1.25 4.79983 1.25Z" stroke="#606580" stroke-miterlimit="10" stroke-linecap="round" stroke-linejoin="round"/>
<path d="M10.8998 1.25C10.3998 1.25 10.0498 1.65 10.0498 2.1V4.05C10.0498 4.55 10.4498 4.9 10.8998 4.9C11.3998 4.9 11.7498 4.5 11.7498 4.05V2.1C11.7498 1.65 11.3998 1.25 10.8998 1.25Z" stroke="#606580" stroke-miterlimit="10" stroke-linecap="round" stroke-linejoin="round"/>
<path d="M1.2998 7.09999H14.1498H14.6498V4.19999C14.6498 3.44999 13.9998 2.79999 13.2498 2.79999H11.9498" stroke="#606580" stroke-miterlimit="10" stroke-linecap="round" stroke-linejoin="round"/>
<path d="M10.3499 15.75L9.29993 14.7L12.3999 11.6" stroke="#606580" stroke-miterlimit="10" stroke-linecap="round" stroke-linejoin="round"/>
<path d="M13.4499 12.05C14.2507 12.05 14.8999 11.4008 14.8999 10.6C14.8999 9.79915 14.2507 9.14996 13.4499 9.14996C12.6491 9.14996 11.9999 9.79915 11.9999 10.6C11.9999 11.4008 12.6491 12.05 13.4499 12.05Z" stroke="#606580" stroke-miterlimit="10" stroke-linecap="round" stroke-linejoin="round"/>
<path d="M11.9 14.2L10.85 13.15" stroke="#606580" stroke-miterlimit="10" stroke-linecap="round" stroke-linejoin="round"/>
</svg>
