<svg width="20" height="20" viewBox="0 0 20 20" fill="none" xmlns="http://www.w3.org/2000/svg">
<path d="M18.75 1.25H7.0625L1.25 7.0625V10.5M18.75 1.25L12.9375 7.0625V18.75M18.75 1.25V12.9375L12.9375 18.75M12.9375 18.75H11.5" stroke="#97A3BA" stroke-width="1.5" stroke-miterlimit="10" stroke-linecap="round" stroke-linejoin="round"/>
<path d="M1.25 7.0625H12.9375" stroke="#97A3BA" stroke-width="1.5" stroke-miterlimit="10" stroke-linecap="round" stroke-linejoin="round"/>
<path d="M7.0625 1.25V4.1875" stroke="#97A3BA" stroke-width="1.5" stroke-miterlimit="10" stroke-linecap="round" stroke-linejoin="round"/>
<path d="M15.8125 12.9375H18.75" stroke="#97A3BA" stroke-width="1.5" stroke-miterlimit="10" stroke-linecap="round" stroke-linejoin="round"/>
<path d="M6.62134 17.5626H7.18759C8.32009 17.5626 9.25009 16.6364 9.25009 15.5001C9.25009 14.3676 8.32384 13.4376 7.18759 13.4376H6.62134" stroke="#97A3BA" stroke-linecap="round" stroke-linejoin="round"/>
<path d="M4.375 13.4376H3.8125C2.67625 13.4376 1.75 14.3639 1.75 15.5001C1.75 16.6326 2.67625 17.5626 3.8125 17.5626H4.375" stroke="#97A3BA" stroke-linecap="round" stroke-linejoin="round"/>
<path d="M4 15.5H7" stroke="#97A3BA" stroke-linecap="round" stroke-linejoin="round"/>
</svg>
