<svg width="20" height="20" viewBox="0 0 20 20" fill="none" xmlns="http://www.w3.org/2000/svg">
<path d="M18.75 1.25H7.0625L1.25 7.0625V10.5M18.75 1.25L12.9375 7.0625V18.75M18.75 1.25V12.9375L12.9375 18.75M12.9375 18.75H11.5" stroke="#97A3BA" stroke-width="1.5" stroke-miterlimit="10" stroke-linecap="round" stroke-linejoin="round"/>
<path d="M1.25 7.0625H12.9375" stroke="#97A3BA" stroke-width="1.5" stroke-miterlimit="10" stroke-linecap="round" stroke-linejoin="round"/>
<path d="M7.0625 1.25V4.1875" stroke="#97A3BA" stroke-width="1.5" stroke-miterlimit="10" stroke-linecap="round" stroke-linejoin="round"/>
<path d="M15.8125 12.9375H18.75" stroke="#97A3BA" stroke-width="1.5" stroke-miterlimit="10" stroke-linecap="round" stroke-linejoin="round"/>
<path d="M2.3 16.6C3.01797 16.6 3.6 16.018 3.6 15.3C3.6 14.582 3.01797 14 2.3 14C1.58203 14 1 14.582 1 15.3C1 16.018 1.58203 16.6 2.3 16.6Z" stroke="#97A3BA" stroke-miterlimit="10" stroke-linecap="round" stroke-linejoin="round"/>
<path d="M7.99995 16.6C8.71792 16.6 9.29995 16.018 9.29995 15.3C9.29995 14.582 8.71792 14 7.99995 14C7.28198 14 6.69995 14.582 6.69995 15.3C6.69995 16.018 7.28198 16.6 7.99995 16.6Z" stroke="#97A3BA" stroke-miterlimit="10" stroke-linecap="round" stroke-linejoin="round"/>
<path d="M3.6001 15.3H6.7001" stroke="#97A3BA" stroke-miterlimit="10" stroke-linecap="round" stroke-linejoin="round"/>
</svg>
