<svg width="20" height="20" viewBox="0 0 20 20" fill="none" xmlns="http://www.w3.org/2000/svg">
<path d="M18.75 1.25H7.0625L1.25 7.0625V10.5M18.75 1.25L12.9375 7.0625V18.75M18.75 1.25V12.9375L12.9375 18.75M12.9375 18.75H11.5" stroke="#97A3BA" stroke-width="1.5" stroke-miterlimit="10" stroke-linecap="round" stroke-linejoin="round"/>
<path d="M1.25 7.0625H12.9375" stroke="#97A3BA" stroke-width="1.5" stroke-miterlimit="10" stroke-linecap="round" stroke-linejoin="round"/>
<path d="M7.0625 1.25V4.1875" stroke="#97A3BA" stroke-width="1.5" stroke-miterlimit="10" stroke-linecap="round" stroke-linejoin="round"/>
<path d="M15.8125 12.9375H18.75" stroke="#97A3BA" stroke-width="1.5" stroke-miterlimit="10" stroke-linecap="round" stroke-linejoin="round"/>
<path d="M6.0625 15.4999C6.0625 16.6924 5.09875 17.6561 3.90625 17.6561C2.71375 17.6561 1.75 16.6924 1.75 15.4999C1.75 14.3074 2.71375 13.3436 3.90625 13.3436" stroke="#97A3BA" stroke-linecap="round" stroke-linejoin="round"/>
<path d="M4.75 15.5C4.75 14.2588 5.75875 13.25 7 13.25C8.24125 13.25 9.25 14.2588 9.25 15.5C9.25 16.7412 8.24125 17.75 7 17.75" stroke="#97A3BA" stroke-linecap="round" stroke-linejoin="round"/>
</svg>
