<svg width="18" height="18" viewBox="0 0 18 18" fill="none" xmlns="http://www.w3.org/2000/svg">
<path d="M3.9375 15.1875C3.9375 15.4982 3.68566 15.75 3.375 15.75C3.06434 15.75 2.8125 15.4982 2.8125 15.1875L2.8125 5.2955L1.52275 6.58525C1.30308 6.80492 0.946922 6.80492 0.727253 6.58525C0.507582 6.36558 0.507582 6.00942 0.727253 5.78975L2.97632 3.54069L2.98466 3.53248C3.03684 3.48215 3.09636 3.44388 3.15968 3.41768C3.22601 3.39018 3.29873 3.375 3.375 3.375C3.45127 3.375 3.52399 3.39018 3.59031 3.41768C3.65666 3.44513 3.71882 3.48582 3.77275 3.53975L6.02275 5.78975C6.24242 6.00942 6.24242 6.36558 6.02275 6.58525C5.80308 6.80492 5.44692 6.80492 5.22725 6.58525L3.9375 5.29549L3.9375 15.1875Z" fill="#727689"/>
<path d="M8.4375 4.5C8.12684 4.5 7.875 4.24816 7.875 3.9375C7.875 3.62684 8.12684 3.375 8.4375 3.375H9.5625C9.87316 3.375 10.125 3.62684 10.125 3.9375C10.125 4.24816 9.87316 4.5 9.5625 4.5H8.4375Z" fill="#727689"/>
<path d="M8.4375 7.875C8.12684 7.875 7.875 7.62316 7.875 7.3125C7.875 7.00184 8.12684 6.75 8.4375 6.75H11.8125C12.1232 6.75 12.375 7.00184 12.375 7.3125C12.375 7.62316 12.1232 7.875 11.8125 7.875H8.4375Z" fill="#727689"/>
<path d="M8.4375 11.25C8.12684 11.25 7.875 10.9982 7.875 10.6875C7.875 10.3768 8.12684 10.125 8.4375 10.125H14.0625C14.3732 10.125 14.625 10.3768 14.625 10.6875C14.625 10.9982 14.3732 11.25 14.0625 11.25H8.4375Z" fill="#727689"/>
<path d="M7.875 14.0625C7.875 14.3732 8.12684 14.625 8.4375 14.625H16.3125C16.6232 14.625 16.875 14.3732 16.875 14.0625C16.875 13.7518 16.6232 13.5 16.3125 13.5H8.4375C8.12684 13.5 7.875 13.7518 7.875 14.0625Z" fill="#727689"/>
</svg>
