<svg width="18" height="18" viewBox="0 0 18 18" fill="none" xmlns="http://www.w3.org/2000/svg">
<path d="M3.9375 14.0625C3.9375 14.3732 3.68566 14.625 3.375 14.625C3.06434 14.625 2.8125 14.3732 2.8125 14.0625L2.8125 4.1705L1.52275 5.46025C1.30308 5.67992 0.946922 5.67992 0.727253 5.46025C0.507582 5.24058 0.507582 4.88442 0.727253 4.66475L2.97632 2.41569L2.98466 2.40748C3.03684 2.35715 3.09636 2.31888 3.15968 2.29268C3.22601 2.26518 3.29873 2.25 3.375 2.25C3.45127 2.25 3.52399 2.26518 3.59031 2.29268C3.65666 2.32013 3.71882 2.36082 3.77275 2.41475L6.02275 4.66475C6.24242 4.88442 6.24242 5.24058 6.02275 5.46025C5.80308 5.67992 5.44692 5.67992 5.22725 5.46025L3.9375 4.17049L3.9375 14.0625Z" fill="#727689"/>
<path d="M7.875 3.9375C7.875 3.62684 8.12684 3.375 8.4375 3.375H16.3125C16.6232 3.375 16.875 3.62684 16.875 3.9375C16.875 4.24816 16.6232 4.5 16.3125 4.5H8.4375C8.12684 4.5 7.875 4.24816 7.875 3.9375Z" fill="#727689"/>
<path d="M8.4375 6.75C8.12684 6.75 7.875 7.00184 7.875 7.3125C7.875 7.62316 8.12684 7.875 8.4375 7.875H14.0625C14.3732 7.875 14.625 7.62316 14.625 7.3125C14.625 7.00184 14.3732 6.75 14.0625 6.75H8.4375Z" fill="#727689"/>
<path d="M8.4375 10.125C8.12684 10.125 7.875 10.3768 7.875 10.6875C7.875 10.9982 8.12684 11.25 8.4375 11.25H11.8125C12.1232 11.25 12.375 10.9982 12.375 10.6875C12.375 10.3768 12.1232 10.125 11.8125 10.125H8.4375Z" fill="#727689"/>
<path d="M8.4375 13.5C8.12684 13.5 7.875 13.7518 7.875 14.0625C7.875 14.3732 8.12684 14.625 8.4375 14.625H9.5625C9.87316 14.625 10.125 14.3732 10.125 14.0625C10.125 13.7518 9.87316 13.5 9.5625 13.5H8.4375Z" fill="#727689"/>
</svg>
