<svg width="16" height="16" viewBox="0 0 16 16" fill="none" xmlns="http://www.w3.org/2000/svg">
<path d="M5.6 1H1V5.6H5.6V1Z" stroke="#97A3BA" stroke-miterlimit="10" stroke-linecap="round" stroke-linejoin="round"/>
<path d="M12.4958 10.0347L10.021 12.5095L12.4958 14.9844L14.9707 12.5095L12.4958 10.0347Z" stroke="#97A3BA" stroke-miterlimit="10" stroke-linecap="round" stroke-linejoin="round"/>
<path d="M12.5 5.6C13.7702 5.6 14.8 4.57025 14.8 3.3C14.8 2.02974 13.7702 1 12.5 1C11.2297 1 10.2 2.02974 10.2 3.3C10.2 4.57025 11.2297 5.6 12.5 5.6Z" stroke="#97A3BA" stroke-miterlimit="10" stroke-linecap="round" stroke-linejoin="round"/>
<path d="M3 7L3 6" stroke="#97A3BA" stroke-miterlimit="10" stroke-linecap="round" stroke-linejoin="round"/>
<path d="M5.69995 3.44995H10.1" stroke="#97A3BA" stroke-miterlimit="10" stroke-linecap="round" stroke-linejoin="round"/>
<path d="M12.5 5.59998V10.05" stroke="#97A3BA" stroke-miterlimit="10" stroke-linecap="round" stroke-linejoin="round"/>
<path d="M5.62629 12.4113L5.93312 12.1045C6.5468 11.4908 6.6046 10.5407 6.0573 9.99342C5.51182 9.44793 4.56195 9.50189 3.94624 10.1176L3.6394 10.4244" stroke="#97A3BA" stroke-width="0.8" stroke-linecap="round" stroke-linejoin="round"/>
<path d="M2.42243 11.6415L2.11762 11.9463C1.50191 12.5621 1.44615 13.5101 1.99344 14.0574C2.53893 14.6029 3.4888 14.5489 4.1045 13.9332L4.40931 13.6284" stroke="#97A3BA" stroke-width="0.8" stroke-linecap="round" stroke-linejoin="round"/>
<path d="M3.2124 12.8383L4.83803 11.2126" stroke="#97A3BA" stroke-width="0.8" stroke-linecap="round" stroke-linejoin="round"/>
</svg>
