<svg width="16" height="17" viewBox="0 0 16 17" fill="none" xmlns="http://www.w3.org/2000/svg">
<path d="M5.6 1.5H1V6.1H5.6V1.5Z" stroke="#606580" stroke-miterlimit="10" stroke-linecap="round" stroke-linejoin="round"/>
<path d="M12.4958 10.5347L10.021 13.0096L12.4958 15.4844L14.9707 13.0096L12.4958 10.5347Z" stroke="#606580" stroke-miterlimit="10" stroke-linecap="round" stroke-linejoin="round"/>
<path d="M12.5 6.1C13.7702 6.1 14.8 5.07025 14.8 3.8C14.8 2.52974 13.7702 1.5 12.5 1.5C11.2297 1.5 10.2 2.52974 10.2 3.8C10.2 5.07025 11.2297 6.1 12.5 6.1Z" stroke="#606580" stroke-miterlimit="10" stroke-linecap="round" stroke-linejoin="round"/>
<path d="M3.3 15.3C4.57025 15.3 5.6 14.2703 5.6 13C5.6 11.7297 4.57025 10.7 3.3 10.7C2.02974 10.7 1 11.7297 1 13C1 14.2703 2.02974 15.3 3.3 15.3Z" stroke="#606580" stroke-miterlimit="10" stroke-linecap="round" stroke-linejoin="round"/>
<path d="M3.30005 10.7V6.10001" stroke="#606580" stroke-miterlimit="10" stroke-linecap="round" stroke-linejoin="round"/>
<path d="M5.69995 3.95001H10.1" stroke="#606580" stroke-miterlimit="10" stroke-linecap="round" stroke-linejoin="round"/>
<path d="M12.5 6.10001V10.55" stroke="#606580" stroke-miterlimit="10" stroke-linecap="round" stroke-linejoin="round"/>
</svg>
