<svg width="16" height="17" viewBox="0 0 16 17" fill="none" xmlns="http://www.w3.org/2000/svg">
<path d="M3.95 7.4C5.57924 7.4 6.9 6.07924 6.9 4.45C6.9 2.82076 5.57924 1.5 3.95 1.5C2.32076 1.5 1 2.82076 1 4.45C1 6.07924 2.32076 7.4 3.95 7.4Z" stroke="#606580" stroke-miterlimit="10" stroke-linecap="round" stroke-linejoin="round"/>
<path d="M11.8 6.29999C12.8769 6.29999 13.75 5.42695 13.75 4.34999C13.75 3.27304 12.8769 2.39999 11.8 2.39999C10.723 2.39999 9.84998 3.27304 9.84998 4.34999C9.84998 5.42695 10.723 6.29999 11.8 6.29999Z" stroke="#606580" stroke-miterlimit="10" stroke-linecap="round" stroke-linejoin="round"/>
<path d="M13.7 11.35C14.418 11.35 15 10.768 15 10.05C15 9.33203 14.418 8.75 13.7 8.75C12.9821 8.75 12.4 9.33203 12.4 10.05C12.4 10.768 12.9821 11.35 13.7 11.35Z" stroke="#606580" stroke-miterlimit="10" stroke-linecap="round" stroke-linejoin="round"/>
<path d="M9.55 15.5C10.268 15.5 10.85 14.918 10.85 14.2C10.85 13.482 10.268 12.9 9.55 12.9C8.83203 12.9 8.25 13.482 8.25 14.2C8.25 14.918 8.83203 15.5 9.55 15.5Z" stroke="#606580" stroke-miterlimit="10" stroke-linecap="round" stroke-linejoin="round"/>
<path d="M3.85002 14.25C4.92698 14.25 5.80002 13.377 5.80002 12.3C5.80002 11.2231 4.92698 10.35 3.85002 10.35C2.77307 10.35 1.90002 11.2231 1.90002 12.3C1.90002 13.377 2.77307 14.25 3.85002 14.25Z" stroke="#606580" stroke-miterlimit="10" stroke-linecap="round" stroke-linejoin="round"/>
<path d="M6.84998 4.29999H9.84998" stroke="#606580" stroke-miterlimit="10" stroke-linecap="round" stroke-linejoin="round"/>
<path d="M3.69995 7.55V10.15" stroke="#606580" stroke-miterlimit="10" stroke-linecap="round" stroke-linejoin="round"/>
<path d="M5.69995 12.9L8.34995 13.75" stroke="#606580" stroke-miterlimit="10" stroke-linecap="round" stroke-linejoin="round"/>
<path d="M12.7 6.2L13.3 8.6" stroke="#606580" stroke-miterlimit="10" stroke-linecap="round" stroke-linejoin="round"/>
<path d="M12.7 11.05L10.55 13.2" stroke="#606580" stroke-miterlimit="10" stroke-linecap="round" stroke-linejoin="round"/>
</svg>
