<svg width="16" height="16" viewBox="0 0 16 16" fill="none" xmlns="http://www.w3.org/2000/svg">
<path d="M5.6 1H1V5.6H5.6V1Z" stroke="#97A3BA" stroke-miterlimit="10" stroke-linecap="round" stroke-linejoin="round"/>
<path d="M12.4958 10.0347L10.021 12.5095L12.4958 14.9844L14.9707 12.5095L12.4958 10.0347Z" stroke="#97A3BA" stroke-miterlimit="10" stroke-linecap="round" stroke-linejoin="round"/>
<path d="M12.5 5.6C13.7702 5.6 14.8 4.57025 14.8 3.3C14.8 2.02974 13.7702 1 12.5 1C11.2297 1 10.2 2.02974 10.2 3.3C10.2 4.57025 11.2297 5.6 12.5 5.6Z" stroke="#97A3BA" stroke-miterlimit="10" stroke-linecap="round" stroke-linejoin="round"/>
<path d="M3 7L3 6" stroke="#97A3BA" stroke-miterlimit="10" stroke-linecap="round" stroke-linejoin="round"/>
<path d="M5.69995 3.44995H10.1" stroke="#97A3BA" stroke-miterlimit="10" stroke-linecap="round" stroke-linejoin="round"/>
<path d="M12.5 5.59998V10.05" stroke="#97A3BA" stroke-miterlimit="10" stroke-linecap="round" stroke-linejoin="round"/>
<path d="M4.27182 11.7245C4.82857 12.2813 4.77233 13.2374 4.14598 13.8638C3.51963 14.4901 2.56347 14.5464 2.00671 13.9896C1.44996 13.4329 1.5062 12.4767 2.13255 11.8504" stroke="#97A3BA" stroke-width="0.8" stroke-linecap="round" stroke-linejoin="round"/>
<path d="M3.58271 12.414C3.00319 11.8345 3.06206 10.8337 3.71402 10.1817C4.36597 9.52978 5.36678 9.47091 5.94629 10.0504C6.52581 10.6299 6.46694 11.6307 5.81498 12.2827" stroke="#97A3BA" stroke-width="0.8" stroke-linecap="round" stroke-linejoin="round"/>
</svg>
