<svg width="16" height="16" viewBox="0 0 16 16" fill="none" xmlns="http://www.w3.org/2000/svg">
<path d="M5.6 1H1V5.6H5.6V1Z" stroke="#97A3BA" stroke-miterlimit="10" stroke-linecap="round" stroke-linejoin="round"/>
<path d="M12.4958 10.0347L10.021 12.5095L12.4958 14.9844L14.9707 12.5095L12.4958 10.0347Z" stroke="#97A3BA" stroke-miterlimit="10" stroke-linecap="round" stroke-linejoin="round"/>
<path d="M12.5 5.6C13.7702 5.6 14.8 4.57025 14.8 3.3C14.8 2.02974 13.7702 1 12.5 1C11.2297 1 10.2 2.02974 10.2 3.3C10.2 4.57025 11.2297 5.6 12.5 5.6Z" stroke="#97A3BA" stroke-miterlimit="10" stroke-linecap="round" stroke-linejoin="round"/>
<path d="M3 7L3 6" stroke="#97A3BA" stroke-miterlimit="10" stroke-linecap="round" stroke-linejoin="round"/>
<path d="M5.69995 3.44995H10.1" stroke="#97A3BA" stroke-miterlimit="10" stroke-linecap="round" stroke-linejoin="round"/>
<path d="M12.5 5.59998V10.05" stroke="#97A3BA" stroke-miterlimit="10" stroke-linecap="round" stroke-linejoin="round"/>
<path d="M2.02665 14.8353C1.853 15.0136 1.60591 14.9778 1.42673 14.8033C1.24754 14.6288 1.23303 14.3528 1.40668 14.1745L4.98668 10.4429L3.52184 10.4587C3.27235 10.4614 3.06693 10.2613 3.06302 10.0119C3.05911 9.76239 3.25819 9.55797 3.50768 9.55528L6.06207 9.52779L6.07147 9.52776C6.1297 9.52819 6.18542 9.53965 6.23659 9.56019C6.29021 9.58166 6.34064 9.6138 6.38463 9.65664C6.42862 9.69948 6.46209 9.74904 6.48497 9.80209C6.50789 9.85511 6.52099 9.91338 6.52195 9.97463L6.562 12.5299C6.56591 12.7794 6.36683 12.9838 6.11734 12.9865C5.86784 12.9892 5.66242 12.7891 5.65851 12.5396L5.63556 11.0749L2.02665 14.8353Z" fill="#97A3BA"/>
</svg>
