<svg width="18" height="20" viewBox="0 0 18 20" fill="none" xmlns="http://www.w3.org/2000/svg">
<path fill-rule="evenodd" clip-rule="evenodd" d="M12.9375 1.6875C12.0055 1.6875 11.25 2.44302 11.25 3.375C11.25 4.30698 12.0055 5.0625 12.9375 5.0625C13.8695 5.0625 14.625 4.30698 14.625 3.375C14.625 2.44302 13.8695 1.6875 12.9375 1.6875ZM10.1813 2.8125C10.4418 1.52874 11.5768 0.5625 12.9375 0.5625C14.2982 0.5625 15.4332 1.52874 15.6937 2.8125H18V3.9375H15.6937C15.4332 5.22126 14.2982 6.1875 12.9375 6.1875C11.5768 6.1875 10.4418 5.22126 10.1813 3.9375H0V2.8125H10.1813ZM2.30626 9.4375C2.56685 8.15374 3.70184 7.1875 5.0625 7.1875C6.42316 7.1875 7.55815 8.15374 7.81874 9.4375V10.5625C7.55815 11.8463 6.42316 12.8125 5.0625 12.8125C3.70184 12.8125 2.56685 11.8463 2.30626 10.5625H0V9.4375H2.30626ZM12.9375 14.9375C12.0055 14.9375 11.25 15.693 11.25 16.625C11.25 17.557 12.0055 18.3125 12.9375 18.3125C13.8695 18.3125 14.625 17.557 14.625 16.625C14.625 15.693 13.8695 14.9375 12.9375 14.9375ZM10.1813 16.0625C10.4418 14.7787 11.5768 13.8125 12.9375 13.8125C14.2982 13.8125 15.4332 14.7787 15.6937 16.0625H18V17.1875H15.6937C15.4332 18.4713 14.2982 19.4375 12.9375 19.4375C11.5768 19.4375 10.4418 18.4713 10.1813 17.1875H0V16.0625H10.1813Z" fill="#727689"/>
<path d="M17.5 9.5625C17.7761 9.5625 18 9.78636 18 10.0625C18 10.3386 17.7761 10.5625 17.5 10.5625L11.7071 10.5625L12.8536 11.7089C13.0488 11.9042 13.0488 12.2208 12.8536 12.4161C12.6583 12.6113 12.3417 12.6113 12.1464 12.4161L10.1473 10.4169L10.14 10.4095C10.0952 10.3631 10.0612 10.3102 10.0379 10.2539C10.0135 10.1949 10 10.1303 10 10.0625C10 9.99471 10.0135 9.93006 10.0379 9.87111C10.0623 9.81214 10.0985 9.75689 10.1464 9.70895L12.1464 7.70895C12.3417 7.51369 12.6583 7.51369 12.8536 7.70895C13.0488 7.90421 13.0488 8.22079 12.8536 8.41605L11.7071 9.5625L17.5 9.5625Z" fill="#727689"/>
</svg>
