<svg width="16" height="17" viewBox="0 0 16 17" fill="none" xmlns="http://www.w3.org/2000/svg">
<path d="M15 15.5H1V1.5" stroke="#606580" stroke-miterlimit="10" stroke-linecap="round" stroke-linejoin="round"/>
<path d="M1.30005 8.20001H2.50005" stroke="#606580" stroke-miterlimit="10" stroke-linecap="round" stroke-linejoin="round"/>
<path d="M1.30005 4.25H2.50005" stroke="#606580" stroke-miterlimit="10" stroke-linecap="round" stroke-linejoin="round"/>
<path d="M1.30005 12.15H2.50005" stroke="#606580" stroke-miterlimit="10" stroke-linecap="round" stroke-linejoin="round"/>
<path d="M14.1 4.04999C14.4 4.04999 14.7 4.29999 14.7 4.64999C14.7 4.99999 14.45 5.24999 14.1 5.24999C13.75 5.24999 13.5 4.94999 13.5 4.64999C13.5 4.34999 13.8 4.04999 14.1 4.04999ZM14.1 3.04999C13.2 3.04999 12.5 3.74999 12.5 4.64999C12.5 5.54999 13.2 6.24999 14.1 6.24999C15 6.24999 15.7 5.54999 15.7 4.64999C15.7 3.74999 15 3.04999 14.1 3.04999Z" fill="#606580"/>
<path d="M11.4999 8.10001C11.7999 8.10001 12.0999 8.35001 12.0999 8.70001C12.0999 9.05001 11.8499 9.30001 11.4999 9.30001C11.1499 9.30001 10.8999 9.05001 10.8999 8.70001C10.8999 8.35001 11.1999 8.10001 11.4999 8.10001ZM11.4999 7.10001C10.5999 7.10001 9.8999 7.80001 9.8999 8.70001C9.8999 9.60001 10.5999 10.3 11.4999 10.3C12.3999 10.3 13.0999 9.60001 13.0999 8.70001C13.0999 7.80001 12.3999 7.10001 11.4999 7.10001Z" fill="#606580"/>
<path d="M8.85 5.35001C9.15 5.35001 9.45 5.60001 9.45 5.95001C9.45 6.30001 9.15 6.50001 8.85 6.50001C8.55 6.50001 8.25 6.25001 8.25 5.90001C8.25 5.55001 8.5 5.35001 8.85 5.35001ZM8.85 4.35001C7.95 4.35001 7.25 5.05001 7.25 5.95001C7.25 6.85001 7.95 7.55001 8.85 7.55001C9.75 7.55001 10.45 6.85001 10.45 5.95001C10.45 5.05001 9.7 4.35001 8.85 4.35001Z" fill="#606580"/>
<path d="M5.90005 9.15002C6.20005 9.15002 6.50005 9.40002 6.50005 9.75002C6.50005 10.1 6.25005 10.35 5.90005 10.35C5.55005 10.35 5.30005 10.1 5.30005 9.75002C5.30005 9.40002 5.55005 9.15002 5.90005 9.15002ZM5.90005 8.15002C5.00005 8.15002 4.30005 8.85002 4.30005 9.75002C4.30005 10.65 5.00005 11.35 5.90005 11.35C6.80005 11.35 7.50005 10.65 7.50005 9.75002C7.45005 8.85002 6.75005 8.15002 5.90005 8.15002Z" fill="#606580"/>
<path d="M13.65 5.60001L11.95 8.00001" stroke="#606580" stroke-miterlimit="10" stroke-linejoin="round"/>
<path d="M9.59998 6.75L10.9 8" stroke="#606580" stroke-miterlimit="10" stroke-linejoin="round"/>
<path d="M8.19995 6.75L6.44995 8.8" stroke="#606580" stroke-miterlimit="10" stroke-linejoin="round"/>
</svg>
