<svg width="16" height="17" viewBox="0 0 16 17" fill="none" xmlns="http://www.w3.org/2000/svg">
<path d="M7.84995 11.45C8.89929 11.45 9.74995 10.5993 9.74995 9.54999C9.74995 8.50065 8.89929 7.64999 7.84995 7.64999C6.80061 7.64999 5.94995 8.50065 5.94995 9.54999C5.94995 10.5993 6.80061 11.45 7.84995 11.45Z" stroke="#606580" stroke-miterlimit="10" stroke-linecap="round" stroke-linejoin="round"/>
<path d="M3.39995 7.29999C4.06269 7.29999 4.59995 6.76274 4.59995 6.09999C4.59995 5.43725 4.06269 4.89999 3.39995 4.89999C2.73721 4.89999 2.19995 5.43725 2.19995 6.09999C2.19995 6.76274 2.73721 7.29999 3.39995 7.29999Z" stroke="#606580" stroke-miterlimit="10" stroke-linecap="round" stroke-linejoin="round"/>
<path d="M2.7 15.5C3.36274 15.5 3.9 14.9627 3.9 14.3C3.9 13.6373 3.36274 13.1 2.7 13.1C2.03726 13.1 1.5 13.6373 1.5 14.3C1.5 14.9627 2.03726 15.5 2.7 15.5Z" stroke="#606580" stroke-miterlimit="10" stroke-linecap="round" stroke-linejoin="round"/>
<path d="M11.6 14.15C12.2628 14.15 12.8 13.6127 12.8 12.95C12.8 12.2873 12.2628 11.75 11.6 11.75C10.9373 11.75 10.4 12.2873 10.4 12.95C10.4 13.6127 10.9373 14.15 11.6 14.15Z" stroke="#606580" stroke-miterlimit="10" stroke-linecap="round" stroke-linejoin="round"/>
<path d="M13.3 8.35001C13.9627 8.35001 14.5 7.81275 14.5 7.15001C14.5 6.48727 13.9627 5.95001 13.3 5.95001C12.6372 5.95001 12.1 6.48727 12.1 7.15001C12.1 7.81275 12.6372 8.35001 13.3 8.35001Z" stroke="#606580" stroke-miterlimit="10" stroke-linecap="round" stroke-linejoin="round"/>
<path d="M9.35003 3.9C10.0128 3.9 10.55 3.36274 10.55 2.7C10.55 2.03726 10.0128 1.5 9.35003 1.5C8.68728 1.5 8.15002 2.03726 8.15002 2.7C8.15002 3.36274 8.68728 3.9 9.35003 3.9Z" stroke="#606580" stroke-miterlimit="10" stroke-linecap="round" stroke-linejoin="round"/>
<path d="M9.14997 3.85001L8.34998 7.25001" stroke="#606580" stroke-miterlimit="10" stroke-linecap="round" stroke-linejoin="round"/>
<path d="M9.55005 8.74999L12.1 7.64999" stroke="#606580" stroke-miterlimit="10" stroke-linecap="round" stroke-linejoin="round"/>
<path d="M9.34998 10.75L10.75 12.1" stroke="#606580" stroke-miterlimit="10" stroke-linecap="round" stroke-linejoin="round"/>
<path d="M3.59998 13.5L6.29998 11.05" stroke="#606580" stroke-miterlimit="10" stroke-linecap="round" stroke-linejoin="round"/>
<path d="M4.34998 6.85001L6.29998 8.35001" stroke="#606580" stroke-miterlimit="10" stroke-linecap="round" stroke-linejoin="round"/>
</svg>
