<svg width="16" height="17" viewBox="0 0 16 17" fill="none" xmlns="http://www.w3.org/2000/svg">
<path d="M7.99998 10.4C6.94998 10.4 6.09998 9.55001 6.09998 8.50001C6.09998 7.45001 6.94998 6.60001 7.99998 6.60001C9.04998 6.60001 9.89998 7.45001 9.89998 8.50001" stroke="#606580" stroke-miterlimit="10" stroke-linecap="round" stroke-linejoin="round"/>
<path d="M8.00005 12.95C5.55005 12.95 3.55005 10.95 3.55005 8.49999C3.55005 6.04999 5.55005 4.04999 8.00005 4.04999" stroke="#606580" stroke-miterlimit="10" stroke-linecap="round" stroke-linejoin="round"/>
<path d="M8 15.5C4.15 15.5 1 12.35 1 8.5C1 4.65 4.15 1.5 8 1.5C10.55 1.5 12.75 2.85 14 4.85C14.65 5.9 15 7.15 15 8.5" stroke="#606580" stroke-miterlimit="10" stroke-linecap="round" stroke-linejoin="round"/>
</svg>
