<svg width="16" height="17" viewBox="0 0 16 17" fill="none" xmlns="http://www.w3.org/2000/svg">
<path d="M15 15.5H1V1.5" stroke="#606580" stroke-miterlimit="10" stroke-linecap="round" stroke-linejoin="round"/>
<path d="M1.30005 8.20001H2.50005" stroke="#606580" stroke-miterlimit="10" stroke-linecap="round" stroke-linejoin="round"/>
<path d="M1.30005 4.25H2.50005" stroke="#606580" stroke-miterlimit="10" stroke-linecap="round" stroke-linejoin="round"/>
<path d="M1.30005 12.15H2.50005" stroke="#606580" stroke-miterlimit="10" stroke-linecap="round" stroke-linejoin="round"/>
<path d="M13.5999 10.5H13.6499C13.9499 10.55 14.1999 10.8 14.1499 11.1C14.0999 11.4 13.8999 11.6 13.5999 11.6H13.5499C13.2499 11.55 12.9999 11.3 13.0499 11C13.0999 10.7 13.3499 10.5 13.5999 10.5ZM13.5999 9.5C12.7999 9.5 12.1499 10.1 12.0499 10.9C11.9499 11.75 12.5499 12.55 13.3999 12.6C13.4499 12.6 13.4999 12.6 13.5999 12.6C14.3999 12.6 15.0499 12 15.1499 11.2C15.2499 10.35 14.6499 9.55 13.7999 9.5C13.7499 9.5 13.6499 9.5 13.5999 9.5Z" fill="#606580"/>
<path d="M9.4 7.75H9.45C9.75 7.8 10 8.05 9.95 8.35C9.9 8.65 9.7 8.85 9.4 8.85H9.35C9.05 8.8 8.8 8.55 8.85 8.25C8.9 7.95 9.15 7.75 9.4 7.75ZM9.4 6.75C8.6 6.75 7.95 7.35 7.85 8.15C7.75 9 8.35 9.8 9.2 9.85C9.25 9.85 9.3 9.85 9.4 9.85C10.2 9.85 10.85 9.25 10.95 8.45C11.05 7.6 10.45 6.8 9.6 6.75C9.55 6.75 9.45 6.75 9.4 6.75Z" fill="#606580"/>
<path d="M6.09995 3.5H6.14995C6.44995 3.55 6.69995 3.8 6.64995 4.1C6.59995 4.4 6.39995 4.6 6.09995 4.6H6.04995C5.74995 4.55 5.49995 4.3 5.54995 4C5.54995 3.7 5.79995 3.5 6.09995 3.5ZM6.09995 2.5C5.29995 2.5 4.64995 3.1 4.54995 3.9C4.44995 4.75 5.04995 5.55 5.89995 5.6C5.94995 5.6 5.99995 5.6 6.09995 5.6C6.89995 5.6 7.54995 5 7.64995 4.2C7.74995 3.35 7.14995 2.55 6.29995 2.5C6.19995 2.5 6.14995 2.5 6.09995 2.5Z" fill="#606580"/>
<path d="M6.90002 4.85001L8.80002 7.70001" stroke="#606580" stroke-miterlimit="10" stroke-linejoin="round"/>
<path d="M10.2 9.14999L13.05 10.55" stroke="#606580" stroke-miterlimit="10" stroke-linejoin="round"/>
</svg>
