<svg width="16" height="17" viewBox="0 0 16 17" fill="none" xmlns="http://www.w3.org/2000/svg">
<path d="M6.85 14.4C6.3 14.65 5.7 14.8 5.05 14.8C2.8 14.8 1 13 1 10.75C1 8.50001 2.8 6.70001 5.05 6.70001C7.3 6.70001 9.1 8.50001 9.1 10.75C9.1 11.2 9 11.65 8.9 12.05" stroke="#606580" stroke-miterlimit="10" stroke-linecap="round" stroke-linejoin="round"/>
<path d="M13.35 7.50001C14.35 8.25001 15 9.45001 15 10.75C15 13 13.2 14.8 10.95 14.8C8.70002 14.8 6.90002 13 6.90002 10.75C6.90002 8.65001 8.50002 6.90001 10.55 6.70001" stroke="#606580" stroke-miterlimit="10" stroke-linecap="round" stroke-linejoin="round"/>
<path d="M4.09998 4.99999C4.59998 3.34999 6.14998 2.14999 7.99998 2.14999C10.25 2.14999 12.05 3.94999 12.05 6.19999C12.05 8.44999 10.25 10.25 7.99998 10.25C6.49998 10.25 5.19998 9.44999 4.49998 8.24999" stroke="#606580" stroke-miterlimit="10" stroke-linecap="round" stroke-linejoin="round"/>
</svg>
