<svg width="24" height="24" viewBox="0 0 24 24" fill="none" xmlns="http://www.w3.org/2000/svg">
<path d="M6.86235 8.21267L1.72485 5.85017L11.9999 1.05017L22.2749 5.85017L17.1374 8.21267" stroke="#727689" stroke-miterlimit="10" stroke-linecap="round" stroke-linejoin="round"/>
<path d="M22.2749 12.0001C20.7335 12.7089 18.8602 13.5704 17.1374 14.3626M1.72485 12.0001L6.86235 14.3626" stroke="#727689" stroke-miterlimit="10" stroke-linecap="round" stroke-linejoin="round"/>
<path d="M14.88 18.6909C14.88 18.9721 14.6651 19.2 14.4 19.2C14.1349 19.2 13.92 18.9721 13.92 18.6909L13.92 9.73815L12.8194 10.9054C12.632 11.1042 12.328 11.1042 12.1406 10.9054C11.9531 10.7066 11.9531 10.3843 12.1406 10.1855L14.0598 8.14995L14.0669 8.14253C14.1114 8.09698 14.1622 8.06234 14.2163 8.03863C14.2729 8.01374 14.3349 8 14.4 8C14.4651 8 14.5271 8.01374 14.5837 8.03863C14.6403 8.06347 14.6934 8.1003 14.7394 8.14911L16.6594 10.1855C16.8469 10.3843 16.8469 10.7066 16.6594 10.9054C16.472 11.1042 16.168 11.1042 15.9806 10.9054L14.88 9.73814L14.88 18.6909Z" fill="#727689"/>
<path d="M9.12 8.50904C9.12 8.22788 9.3349 7.99995 9.6 7.99995C9.8651 7.99995 10.08 8.22788 10.08 8.50904L10.08 17.4618L11.1806 16.2945C11.368 16.0957 11.672 16.0957 11.8594 16.2945C12.0469 16.4933 12.0469 16.8157 11.8594 17.0145L9.94021 19.05L9.93309 19.0574C9.88856 19.103 9.83777 19.1376 9.78374 19.1613C9.72714 19.1862 9.66508 19.2 9.6 19.2C9.53492 19.2 9.47286 19.1862 9.41626 19.1613C9.35965 19.1365 9.30661 19.0997 9.26059 19.0508L7.34059 17.0145C7.15314 16.8157 7.15314 16.4933 7.34059 16.2945C7.52804 16.0957 7.83196 16.0957 8.01941 16.2945L9.12 17.4618L9.12 8.50904Z" fill="#727689"/>
<path d="M22.1501 18.4L11.8751 23.125L1.6001 18.4" stroke="#727689" stroke-miterlimit="10" stroke-linecap="round" stroke-linejoin="round"/>
</svg>
