<svg width="16" height="17" viewBox="0 0 16 17" fill="none" xmlns="http://www.w3.org/2000/svg">
<path d="M8 15.5C4.15 15.5 1 12.35 1 8.5C1 4.65 4.15 1.5 8 1.5C11.85 1.5 15 4.65 15 8.5C15 12.35 11.85 15.5 8 15.5Z" stroke="#606580" stroke-miterlimit="10" stroke-linecap="round" stroke-linejoin="round"/>
<path d="M8.00005 9.7C7.35005 9.7 6.80005 9.15 6.80005 8.5C6.80005 7.85 7.35005 7.3 8.00005 7.3C8.65005 7.3 9.20005 7.85 9.20005 8.5C9.20005 9.15 8.65005 9.7 8.00005 9.7Z" stroke="#606580" stroke-miterlimit="10" stroke-linecap="round" stroke-linejoin="round"/>
<path d="M8 13.75V15.5" stroke="#606580" stroke-miterlimit="10" stroke-linecap="round" stroke-linejoin="round"/>
<path d="M8 1.79999V3.44999" stroke="#606580" stroke-miterlimit="10" stroke-linecap="round" stroke-linejoin="round"/>
<path d="M2.90002 8.64999H1.15002" stroke="#606580" stroke-miterlimit="10" stroke-linecap="round" stroke-linejoin="round"/>
<path d="M14.85 8.64999H13.2" stroke="#606580" stroke-miterlimit="10" stroke-linecap="round" stroke-linejoin="round"/>
<path d="M9.19995 7.30001L11.05 5.45001" stroke="#606580" stroke-miterlimit="10" stroke-linecap="round" stroke-linejoin="round"/>
</svg>
