<svg width="16" height="17" viewBox="0 0 16 17" fill="none" xmlns="http://www.w3.org/2000/svg">
<path d="M3.35 6.2C4.64787 6.2 5.7 5.14787 5.7 3.85C5.7 2.55213 4.64787 1.5 3.35 1.5C2.05213 1.5 1 2.55213 1 3.85C1 5.14787 2.05213 6.2 3.35 6.2Z" stroke="#606580" stroke-miterlimit="10" stroke-linecap="round" stroke-linejoin="round"/>
<path d="M12.65 6.2C13.9479 6.2 15 5.14787 15 3.85C15 2.55213 13.9479 1.5 12.65 1.5C11.3522 1.5 10.3 2.55213 10.3 3.85C10.3 5.14787 11.3522 6.2 12.65 6.2Z" stroke="#606580" stroke-miterlimit="10" stroke-linecap="round" stroke-linejoin="round"/>
<path d="M3.35 15.5C4.64787 15.5 5.7 14.4479 5.7 13.15C5.7 11.8521 4.64787 10.8 3.35 10.8C2.05213 10.8 1 11.8521 1 13.15C1 14.4479 2.05213 15.5 3.35 15.5Z" stroke="#606580" stroke-miterlimit="10" stroke-linecap="round" stroke-linejoin="round"/>
<path d="M12.65 15.5C13.9479 15.5 15 14.4479 15 13.15C15 11.8521 13.9479 10.8 12.65 10.8C11.3522 10.8 10.3 11.8521 10.3 13.15C10.3 14.4479 11.3522 15.5 12.65 15.5Z" stroke="#606580" stroke-miterlimit="10" stroke-linecap="round" stroke-linejoin="round"/>
<path d="M5.09998 5.60001L11.05 11.55" stroke="#606580" stroke-miterlimit="10" stroke-linecap="round" stroke-linejoin="round"/>
<path d="M9.59998 6.90001L10.9 5.60001" stroke="#606580" stroke-miterlimit="10" stroke-linecap="round" stroke-linejoin="round"/>
<path d="M4.94995 11.55L6.54995 9.95" stroke="#606580" stroke-miterlimit="10" stroke-linecap="round" stroke-linejoin="round"/>
<path d="M3.34998 6.14999V8.49999" stroke="#606580" stroke-miterlimit="10" stroke-linecap="round" stroke-linejoin="round"/>
<path d="M5.65002 3.85001H8.00002" stroke="#606580" stroke-miterlimit="10" stroke-linecap="round" stroke-linejoin="round"/>
<path d="M12.65 6.14999V8.49999" stroke="#606580" stroke-miterlimit="10" stroke-linecap="round" stroke-linejoin="round"/>
<path d="M10.35 13.15H8" stroke="#606580" stroke-miterlimit="10" stroke-linecap="round" stroke-linejoin="round"/>
</svg>
