<svg width="16" height="17" viewBox="0 0 16 17" fill="none" xmlns="http://www.w3.org/2000/svg">
<path d="M4.69995 11.25H2.94995V15.5H4.69995V11.25Z" stroke="#606580" stroke-miterlimit="10" stroke-linecap="round" stroke-linejoin="round"/>
<path d="M9.75 9.05H8V15.5H9.75V9.05Z" stroke="#606580" stroke-miterlimit="10" stroke-linecap="round" stroke-linejoin="round"/>
<path d="M14.8 6.84999H13.05V15.5H14.8V6.84999Z" stroke="#606580" stroke-miterlimit="10" stroke-linecap="round" stroke-linejoin="round"/>
<path d="M4.94995 13H7.49995" stroke="#606580" stroke-miterlimit="10" stroke-linecap="round" stroke-linejoin="round"/>
<path d="M9.94995 13H12.5" stroke="#606580" stroke-miterlimit="10" stroke-linecap="round" stroke-linejoin="round"/>
<path d="M4.8501 8.84998V4.59998C4.8501 4.59998 4.8501 4.59998 5.9501 4.59998C7.0501 4.59998 7.0501 5.69998 7.0501 5.69998C7.0501 5.69998 7.0501 6.79998 5.9501 6.79998C5.2001 6.79998 4.4001 6.79998 4.1001 6.79998" stroke="#606580" stroke-miterlimit="10" stroke-linecap="round" stroke-linejoin="round"/>
<path d="M5.90005 7.84999H4.05005" stroke="#606580" stroke-miterlimit="10" stroke-linecap="round" stroke-linejoin="round"/>
<path d="M1.85002 9.20001C1.40002 8.50001 1.15002 7.70001 1.15002 6.85001C1.15002 4.40001 3.10002 2.45001 5.55002 2.45001C8.00002 2.45001 10 4.45001 10 6.85001" stroke="#606580" stroke-miterlimit="10" stroke-linecap="round" stroke-linejoin="round"/>
</svg>
