<svg width="18" height="18" viewBox="0 0 18 18" fill="none" xmlns="http://www.w3.org/2000/svg">
<path d="M2 3H8" stroke="#727689" stroke-miterlimit="10" stroke-linecap="round" stroke-linejoin="round"/>
<path d="M2 9H8" stroke="#727689" stroke-miterlimit="10" stroke-linecap="round" stroke-linejoin="round"/>
<path d="M2.25 15H7.875" stroke="#727689" stroke-miterlimit="10" stroke-linecap="round" stroke-linejoin="round"/>
<path d="M12.1534 3.52144L12.1534 3.12644C12.1534 2.67877 12.5221 2.3101 12.9697 2.3101H14.9184C15.3661 2.3101 15.7348 2.67877 15.7348 3.12644L15.7348 3.38977C15.7348 3.83744 15.3661 4.20611 14.9184 4.20611H13.6281" stroke="#727689" stroke-width="0.6" stroke-miterlimit="10" stroke-linecap="round" stroke-linejoin="round"/>
<path d="M12.1534 9.52144L12.1534 9.12644C12.1534 8.67877 12.5221 8.3101 12.9697 8.3101H14.9184C15.3661 8.3101 15.7348 8.67877 15.7348 9.12644L15.7348 9.38977C15.7348 9.83744 15.3661 10.2061 14.9184 10.2061H13.6281" stroke="#727689" stroke-width="0.6" stroke-miterlimit="10" stroke-linecap="round" stroke-linejoin="round"/>
<path d="M12.1534 15.5214L12.1534 15.1264C12.1534 14.6788 12.5221 14.3101 12.9697 14.3101H14.9184C15.3661 14.3101 15.7348 14.6788 15.7348 15.1264L15.7348 15.3898C15.7348 15.8374 15.3661 16.2061 14.9184 16.2061H13.6281" stroke="#727689" stroke-width="0.6" stroke-miterlimit="10" stroke-linecap="round" stroke-linejoin="round"/>
<path d="M13.0487 2.99478L13.0487 3.38978C13.0487 3.83745 12.6801 4.20612 12.2324 4.20612L10.2837 4.20612C9.83604 4.20612 9.46737 3.83745 9.46737 3.38978L9.46737 3.12644C9.46737 2.67877 9.83604 2.3101 10.2837 2.3101L11.5741 2.3101" stroke="#727689" stroke-width="0.6" stroke-miterlimit="10" stroke-linecap="round" stroke-linejoin="round"/>
<path d="M13.0487 8.99478L13.0487 9.38978C13.0487 9.83745 12.6801 10.2061 12.2324 10.2061L10.2837 10.2061C9.83604 10.2061 9.46737 9.83745 9.46737 9.38978L9.46737 9.12644C9.46737 8.67877 9.83604 8.3101 10.2837 8.3101L11.5741 8.3101" stroke="#727689" stroke-width="0.6" stroke-miterlimit="10" stroke-linecap="round" stroke-linejoin="round"/>
<path d="M13.0487 14.9948L13.0487 15.3898C13.0487 15.8375 12.6801 16.2061 12.2324 16.2061L10.2837 16.2061C9.83604 16.2061 9.46737 15.8375 9.46737 15.3898L9.46737 15.1264C9.46737 14.6788 9.83604 14.3101 10.2837 14.3101L11.5741 14.3101" stroke="#727689" stroke-width="0.6" stroke-miterlimit="10" stroke-linecap="round" stroke-linejoin="round"/>
</svg>
