<svg width="16" height="17" viewBox="0 0 16 17" fill="none" xmlns="http://www.w3.org/2000/svg">
<path d="M4.90002 8.5H10.9" stroke="#606580" stroke-miterlimit="10" stroke-linecap="round" stroke-linejoin="round"/>
<path d="M7.90002 8.5V3.5H10.9" stroke="#606580" stroke-miterlimit="10" stroke-linecap="round" stroke-linejoin="round"/>
<path d="M12.75 5.2C13.6337 5.2 14.35 4.48366 14.35 3.6C14.35 2.71634 13.6337 2 12.75 2C11.8664 2 11.15 2.71634 11.15 3.6C11.15 4.48366 11.8664 5.2 12.75 5.2Z" stroke="#606580" stroke-miterlimit="10" stroke-linecap="round" stroke-linejoin="round"/>
<path d="M7.90002 8.5V13.5H10.9" stroke="#606580" stroke-miterlimit="10" stroke-linecap="round" stroke-linejoin="round"/>
<path d="M12.75 15C13.6337 15 14.35 14.2837 14.35 13.4C14.35 12.5163 13.6337 11.8 12.75 11.8C11.8664 11.8 11.15 12.5163 11.15 13.4C11.15 14.2837 11.8664 15 12.75 15Z" stroke="#606580" stroke-miterlimit="10" stroke-linecap="round" stroke-linejoin="round"/>
<path d="M12.75 10.1C13.6337 10.1 14.35 9.38365 14.35 8.49999C14.35 7.61634 13.6337 6.89999 12.75 6.89999C11.8664 6.89999 11.15 7.61634 11.15 8.49999C11.15 9.38365 11.8664 10.1 12.75 10.1Z" stroke="#606580" stroke-miterlimit="10" stroke-linecap="round" stroke-linejoin="round"/>
<path d="M3.25002 10.1C4.13368 10.1 4.85002 9.38365 4.85002 8.49999C4.85002 7.61634 4.13368 6.89999 3.25002 6.89999C2.36637 6.89999 1.65002 7.61634 1.65002 8.49999C1.65002 9.38365 2.36637 10.1 3.25002 10.1Z" stroke="#606580" stroke-miterlimit="10" stroke-linecap="round" stroke-linejoin="round"/>
</svg>
