<svg width="16" height="16" viewBox="0 0 16 16" fill="none" xmlns="http://www.w3.org/2000/svg">
<path d="M4.90002 8H10.9" stroke="#606580" stroke-miterlimit="10" stroke-linecap="round" stroke-linejoin="round"/>
<path d="M7.90002 8V3H10.9" stroke="#606580" stroke-miterlimit="10" stroke-linecap="round" stroke-linejoin="round"/>
<path d="M12.75 4.7C13.6337 4.7 14.35 3.98366 14.35 3.1C14.35 2.21634 13.6337 1.5 12.75 1.5C11.8664 1.5 11.15 2.21634 11.15 3.1C11.15 3.98366 11.8664 4.7 12.75 4.7Z" stroke="#606580" stroke-miterlimit="10" stroke-linecap="round" stroke-linejoin="round"/>
<path d="M7.90002 8V13H10.9" stroke="#606580" stroke-miterlimit="10" stroke-linecap="round" stroke-linejoin="round"/>
<path d="M12.75 14.4998C13.6337 14.4998 14.35 13.7835 14.35 12.8998C14.35 12.0161 13.6337 11.2998 12.75 11.2998C11.8664 11.2998 11.15 12.0161 11.15 12.8998C11.15 13.7835 11.8664 14.4998 12.75 14.4998Z" stroke="#606580" stroke-miterlimit="10" stroke-linecap="round" stroke-linejoin="round"/>
<path d="M3.25002 9.5999C4.13368 9.5999 4.85002 8.88356 4.85002 7.9999C4.85002 7.11625 4.13368 6.3999 3.25002 6.3999C2.36637 6.3999 1.65002 7.11625 1.65002 7.9999C1.65002 8.88356 2.36637 9.5999 3.25002 9.5999Z" stroke="#606580" stroke-miterlimit="10" stroke-linecap="round" stroke-linejoin="round"/>
</svg>
