<svg width="16" height="17" viewBox="0 0 16 17" fill="none" xmlns="http://www.w3.org/2000/svg">
<path d="M10.2 5.2C11.2217 5.2 12.05 4.37173 12.05 3.35C12.05 2.32827 11.2217 1.5 10.2 1.5C9.17825 1.5 8.34998 2.32827 8.34998 3.35C8.34998 4.37173 9.17825 5.2 10.2 5.2Z" stroke="#606580" stroke-miterlimit="10" stroke-linecap="round" stroke-linejoin="round"/>
<path d="M12.05 3.35001H15" stroke="#606580" stroke-miterlimit="10" stroke-linecap="round" stroke-linejoin="round"/>
<path d="M1 3.35001H7.65" stroke="#606580" stroke-miterlimit="10" stroke-linecap="round" stroke-linejoin="round"/>
<path d="M5.79995 10.35C6.82168 10.35 7.64995 9.52172 7.64995 8.49999C7.64995 7.47827 6.82168 6.64999 5.79995 6.64999C4.77822 6.64999 3.94995 7.47827 3.94995 8.49999C3.94995 9.52172 4.77822 10.35 5.79995 10.35Z" stroke="#606580" stroke-miterlimit="10" stroke-linecap="round" stroke-linejoin="round"/>
<path d="M3.95 8.5H1" stroke="#606580" stroke-miterlimit="10" stroke-linecap="round" stroke-linejoin="round"/>
<path d="M15 8.5H8.34998" stroke="#606580" stroke-miterlimit="10" stroke-linecap="round" stroke-linejoin="round"/>
<path d="M10.2 15.5C11.2217 15.5 12.05 14.6717 12.05 13.65C12.05 12.6283 11.2217 11.8 10.2 11.8C9.17825 11.8 8.34998 12.6283 8.34998 13.65C8.34998 14.6717 9.17825 15.5 10.2 15.5Z" stroke="#606580" stroke-miterlimit="10" stroke-linecap="round" stroke-linejoin="round"/>
<path d="M12.05 13.65H15" stroke="#606580" stroke-miterlimit="10" stroke-linecap="round" stroke-linejoin="round"/>
<path d="M1 13.65H7.65" stroke="#606580" stroke-miterlimit="10" stroke-linecap="round" stroke-linejoin="round"/>
</svg>
