<svg width="16" height="17" viewBox="0 0 16 17" fill="none" xmlns="http://www.w3.org/2000/svg">
<path d="M7.5 11.05L11.15 7.5L8.25 11.65L7.5 11.05Z" stroke="#606580" stroke-miterlimit="10" stroke-linecap="round" stroke-linejoin="round"/>
<path d="M8 4.20001C4.15 4.20001 1 7.35001 1 11.2C1 11.75 1.05 12.3 1.2 12.85H5.7C5.7 11.6 6.75 10.55 8.05 10.55C9.35 10.55 10.35 11.6 10.4 12.85H14.9C15.05 12.35 15.1 11.8 15.1 11.2C15 7.30001 11.85 4.20001 8 4.20001Z" stroke="#606580" stroke-miterlimit="10" stroke-linecap="round" stroke-linejoin="round"/>
<path d="M7.94995 4.20001V5.80001" stroke="#606580" stroke-miterlimit="10" stroke-linecap="round" stroke-linejoin="round"/>
<path d="M14.8 9.75L13.05 10.3" stroke="#606580" stroke-miterlimit="10" stroke-linecap="round" stroke-linejoin="round"/>
<path d="M1.09998 9.75L2.89998 10.3" stroke="#606580" stroke-miterlimit="10" stroke-linecap="round" stroke-linejoin="round"/>
<path d="M3.5 5.95001L4.6 7.20001" stroke="#606580" stroke-miterlimit="10" stroke-linecap="round" stroke-linejoin="round"/>
</svg>
