<svg width="18" height="18" viewBox="0 0 18 18" fill="none" xmlns="http://www.w3.org/2000/svg">
<path d="M2.25 3.375H16.875" stroke="#727689" stroke-miterlimit="10" stroke-linecap="round" stroke-linejoin="round"/>
<path d="M2 9H8" stroke="#727689" stroke-miterlimit="10" stroke-linecap="round" stroke-linejoin="round"/>
<path d="M2.25 14.6233H7.875" stroke="#727689" stroke-miterlimit="10" stroke-linecap="round" stroke-linejoin="round"/>
<path d="M11 9H14" stroke="#727689" stroke-miterlimit="10" stroke-linecap="round" stroke-linejoin="round"/>
<path d="M12.5 9.5L12.5 12.5" stroke="#727689" stroke-miterlimit="10" stroke-linecap="round" stroke-linejoin="round"/>
<path d="M12.5 11L12.5 14" stroke="#727689" stroke-miterlimit="10" stroke-linecap="round" stroke-linejoin="round"/>
<path d="M16.0855 9.54215L16.0855 13.3496C16.0855 13.5019 16.0428 13.651 15.9623 13.7802L15.5428 14.4533L15.1232 13.7802C15.0427 13.651 15 13.5019 15 13.3496L15 9.54215M16.0855 9.54215V9.07844C16.0855 8.85363 15.9032 8.67139 15.6784 8.67139H15.407C15.1822 8.67139 15 8.85363 15 9.07844V9.54215M16.0855 9.54215H15" stroke="#727689" stroke-width="0.6" stroke-linecap="round" stroke-linejoin="round"/>
</svg>
