<svg width="16" height="17" viewBox="0 0 16 17" fill="none" xmlns="http://www.w3.org/2000/svg">
<path d="M11.9 1.5H4.1C2.4 1.5 1 2.9 1 4.6V12.4C1 14.1 2.4 15.5 4.1 15.5H11.9C13.6 15.5 15 14.1 15 12.4V4.6C15 2.9 13.6 1.5 11.9 1.5Z" stroke="#606580" stroke-miterlimit="10" stroke-linecap="round" stroke-linejoin="round"/>
<path d="M6.1 11.05C6.4 11.8 7.1 12.35 7.95 12.35C9.05 12.35 9.9 11.45 9.9 10.4C9.9 9.15 7.95 8.7 7.95 8.7C7.95 8.7 6 8.3 6 6.95C6 5.85 6.9 5 7.95 5C8.8 5 9.55 5.55 9.8 6.3" stroke="#606580" stroke-miterlimit="10" stroke-linecap="round" stroke-linejoin="round"/>
</svg>
