<svg width="16" height="17" viewBox="0 0 16 17" fill="none" xmlns="http://www.w3.org/2000/svg">
<path d="M4.90005 6.70001H2.55005V10.3" stroke="#606580" stroke-miterlimit="10" stroke-linecap="round" stroke-linejoin="round"/>
<path d="M2.55029 8.5H4.90029" stroke="#606580" stroke-miterlimit="10" stroke-linecap="round" stroke-linejoin="round"/>
<path d="M13.4503 6.70001H11.1003V10.3" stroke="#606580" stroke-miterlimit="10" stroke-linecap="round" stroke-linejoin="round"/>
<path d="M11.1003 8.5H13.4503" stroke="#606580" stroke-miterlimit="10" stroke-linecap="round" stroke-linejoin="round"/>
<path d="M9.10024 6.70001H8.55024C7.55024 6.70001 6.75024 7.50001 6.75024 8.50001C6.75024 9.50001 7.55024 10.3 8.55024 10.3H9.10024" stroke="#606580" stroke-miterlimit="10" stroke-linecap="round" stroke-linejoin="round"/>
<path d="M15 4.4V3.3C15 2.3 14.2 1.5 13.2 1.5H2.8C1.8 1.5 1 2.3 1 3.3V4.4" stroke="#606580" stroke-miterlimit="10" stroke-linecap="round" stroke-linejoin="round"/>
<path d="M1 12.6V13.7C1 14.7 1.8 15.5 2.8 15.5H13.2C14.2 15.5 15 14.7 15 13.7V12.6" stroke="#606580" stroke-miterlimit="10" stroke-linecap="round" stroke-linejoin="round"/>
</svg>
