<svg width="16" height="17" viewBox="0 0 16 17" fill="none" xmlns="http://www.w3.org/2000/svg">
<path d="M15 4.4V3.3C15 2.3 14.2 1.5 13.2 1.5H2.8C1.8 1.5 1 2.3 1 3.3V4.4" stroke="#606580" stroke-miterlimit="10" stroke-linecap="round" stroke-linejoin="round"/>
<path d="M1 12.6V13.7C1 14.7 1.8 15.5 2.8 15.5H13.15C14.15 15.5 14.95 14.7 14.95 13.7V12.6" stroke="#606580" stroke-miterlimit="10" stroke-linecap="round" stroke-linejoin="round"/>
<path d="M14.0319 9.92063V8.49206L14.7858 7.5L15.5001 8.49206V9.92063" stroke="#606580" stroke-miterlimit="10" stroke-linecap="round" stroke-linejoin="round"/>
<path d="M14.0317 9.48413H15.5" stroke="#606580" stroke-miterlimit="10" stroke-linecap="round" stroke-linejoin="round"/>
<path d="M11.4917 9.92063H10.8171V7.5H11.5314C12.206 7.5 12.7219 8.05556 12.7219 8.69048V8.73016C12.6822 9.40476 12.1663 9.92063 11.4917 9.92063Z" stroke="#606580" stroke-miterlimit="10" stroke-linecap="round" stroke-linejoin="round"/>
<path d="M8.59497 7.5V9.92063" stroke="#606580" stroke-miterlimit="10" stroke-linecap="round" stroke-linejoin="round"/>
<path d="M9.4682 7.5H7.72217" stroke="#606580" stroke-miterlimit="10" stroke-linecap="round" stroke-linejoin="round"/>
<path d="M1.96825 7.5H0.5V9.92063H1.96825" stroke="#606580" stroke-miterlimit="10" stroke-linecap="round" stroke-linejoin="round"/>
<path d="M0.5 8.69049H1.96825" stroke="#606580" stroke-miterlimit="10" stroke-linecap="round" stroke-linejoin="round"/>
<path d="M4.23022 8.69049C4.54768 8.69049 4.82546 8.96827 4.82546 9.28573C4.82546 9.60319 4.58737 9.92065 4.23022 9.92065" stroke="#606580" stroke-miterlimit="10" stroke-linecap="round" stroke-linejoin="round"/>
<path d="M4.22997 9.92063C3.91251 9.92063 3.27759 9.92063 3.27759 9.92063V7.5H4.22997C4.54743 7.5 4.82521 7.77778 4.82521 8.09524C4.82521 8.4127 4.54743 8.69048 4.22997 8.69048H3.27759" stroke="#606580" stroke-miterlimit="10" stroke-linecap="round" stroke-linejoin="round"/>
<path d="M6.21411 7.5V9.92063" stroke="#606580" stroke-miterlimit="10" stroke-linecap="round" stroke-linejoin="round"/>
</svg>
