<svg width="16" height="17" viewBox="0 0 16 17" fill="none" xmlns="http://www.w3.org/2000/svg">
<path d="M15 4.4V3.3C15 2.3 14.2 1.5 13.2 1.5H2.8C1.8 1.5 1 2.3 1 3.3V4.4" stroke="#606580" stroke-miterlimit="10" stroke-linecap="round" stroke-linejoin="round"/>
<path d="M1 12.6V13.7C1 14.7 1.8 15.5 2.8 15.5H13.15C14.15 15.5 14.95 14.7 14.95 13.7V12.6" stroke="#606580" stroke-miterlimit="10" stroke-linecap="round" stroke-linejoin="round"/>
<path d="M7.09998 9.95V7H8.24998C8.59998 7 8.89998 7.3 8.89998 7.7C8.89998 8.1 8.59998 8.4 8.24998 8.4H7.49998" stroke="#606580" stroke-miterlimit="10" stroke-linecap="round" stroke-linejoin="round"/>
<path d="M11.95 7.04999H10.2V9.94999H11.95" stroke="#606580" stroke-miterlimit="10" stroke-linecap="round" stroke-linejoin="round"/>
<path d="M10.2 8.5H11.95" stroke="#606580" stroke-miterlimit="10" stroke-linecap="round" stroke-linejoin="round"/>
<path d="M13.25 7.04999L15 9.94999" stroke="#606580" stroke-miterlimit="10" stroke-linecap="round" stroke-linejoin="round"/>
<path d="M13.25 9.94999L15 7.04999" stroke="#606580" stroke-miterlimit="10" stroke-linecap="round" stroke-linejoin="round"/>
<path d="M2.75 7.04999H2.35C1.6 7.04999 1 7.69999 1 8.49999C1 9.29999 1.6 9.94999 2.35 9.94999H2.75" stroke="#606580" stroke-miterlimit="10" stroke-linecap="round" stroke-linejoin="round"/>
<path d="M4.05005 9.94999V8.19999L4.95005 7.04999L5.80005 8.19999V9.94999" stroke="#606580" stroke-miterlimit="10" stroke-linecap="round" stroke-linejoin="round"/>
<path d="M4.05005 9.39999H5.80005" stroke="#606580" stroke-miterlimit="10" stroke-linecap="round" stroke-linejoin="round"/>
</svg>
