<svg width="16" height="17" viewBox="0 0 16 17" fill="none" xmlns="http://www.w3.org/2000/svg">
<path d="M14.8501 4.4V3.3C14.8501 2.3 14.0501 1.5 13.0501 1.5H2.70015C1.70015 1.5 0.900146 2.3 0.900146 3.3V4.4" stroke="#606580" stroke-miterlimit="10" stroke-linecap="round" stroke-linejoin="round"/>
<path d="M0.850098 12.6V13.7C0.850098 14.7 1.6501 15.5 2.6501 15.5H13.0501C14.0501 15.5 14.8501 14.7 14.8501 13.7V12.6" stroke="#606580" stroke-miterlimit="10" stroke-linecap="round" stroke-linejoin="round"/>
<path d="M2.15015 8.30002C2.50015 8.30002 2.85015 8.60002 2.85015 9.00002C2.85015 9.35002 2.55015 9.70002 2.15015 9.70002" stroke="#606580" stroke-miterlimit="10" stroke-linecap="round" stroke-linejoin="round"/>
<path d="M2.1501 9.65001C1.8001 9.65001 1.1001 9.65001 1.1001 9.65001V6.95001H2.1501C2.5001 6.95001 2.8501 7.25001 2.8501 7.65001C2.8501 8.00001 2.5501 8.35001 2.1501 8.35001H1.1501" stroke="#606580" stroke-miterlimit="10" stroke-linecap="round" stroke-linejoin="round"/>
<path d="M4.1001 9.65001V6.95001H5.2501C5.6001 6.95001 5.9001 7.25001 5.9001 7.60001C5.9001 7.95001 5.6001 8.25001 5.2501 8.25001H4.5001L5.9001 9.70001" stroke="#606580" stroke-miterlimit="10" stroke-linecap="round" stroke-linejoin="round"/>
<path d="M10.05 9.65001V6.95001L11.9 9.65001V6.95001" stroke="#606580" stroke-miterlimit="10" stroke-linecap="round" stroke-linejoin="round"/>
<path d="M8.80015 6.95001H7.15015V9.65001H8.80015" stroke="#606580" stroke-miterlimit="10" stroke-linecap="round" stroke-linejoin="round"/>
<path d="M7.1499 8.25H8.7999" stroke="#606580" stroke-miterlimit="10" stroke-linecap="round" stroke-linejoin="round"/>
<path d="M14.1501 6.95001V9.65001" stroke="#606580" stroke-miterlimit="10" stroke-linecap="round" stroke-linejoin="round"/>
<path d="M15.1502 6.95001H13.2002" stroke="#606580" stroke-miterlimit="10" stroke-linecap="round" stroke-linejoin="round"/>
</svg>
