<svg width="16" height="17" viewBox="0 0 16 17" fill="none" xmlns="http://www.w3.org/2000/svg">
<path d="M5.05029 10.3V6.70001H6.45029C6.90029 6.70001 7.20029 7.10001 7.20029 7.55001C7.20029 8.00001 6.85029 8.40001 6.45029 8.40001H5.50029" stroke="#606580" stroke-miterlimit="10" stroke-linecap="round" stroke-linejoin="round"/>
<path d="M2.35029 10.3C1.75029 10.3 1.30029 9.8 1.30029 9.25V7.8C1.30029 7.2 1.80029 6.75 2.35029 6.75C2.95029 6.75 3.40029 7.25 3.40029 7.8V9.25C3.45029 9.8 2.95029 10.3 2.35029 10.3Z" stroke="#606580" stroke-miterlimit="10" stroke-linecap="round" stroke-linejoin="round"/>
<path d="M10.9503 6.70001H8.80029V10.3H10.9503" stroke="#606580" stroke-miterlimit="10" stroke-linecap="round" stroke-linejoin="round"/>
<path d="M8.80054 8.5H10.9505" stroke="#606580" stroke-miterlimit="10" stroke-linecap="round" stroke-linejoin="round"/>
<path d="M12.5503 6.70001L14.7003 10.3" stroke="#606580" stroke-miterlimit="10" stroke-linecap="round" stroke-linejoin="round"/>
<path d="M12.5503 10.3L14.7003 6.70001" stroke="#606580" stroke-miterlimit="10" stroke-linecap="round" stroke-linejoin="round"/>
<path d="M15 4.4V3.3C15 2.3 14.2 1.5 13.2 1.5H2.8C1.8 1.5 1 2.3 1 3.3V4.4" stroke="#606580" stroke-miterlimit="10" stroke-linecap="round" stroke-linejoin="round"/>
<path d="M1 12.6V13.7C1 14.7 1.8 15.5 2.8 15.5H13.2C14.2 15.5 15 14.7 15 13.7V12.6" stroke="#606580" stroke-miterlimit="10" stroke-linecap="round" stroke-linejoin="round"/>
</svg>
