<svg width="16" height="17" viewBox="0 0 16 17" fill="none" xmlns="http://www.w3.org/2000/svg">
<path d="M3.6499 11.1V5.89999L6.8499 11.1V5.89999" stroke="#606580" stroke-miterlimit="10" stroke-linecap="round" stroke-linejoin="round"/>
<path d="M11.1001 8.49994C11.8001 8.49994 12.4001 9.09994 12.4001 9.79994C12.4001 10.4999 11.8001 11.0999 11.1001 11.0999" stroke="#606580" stroke-miterlimit="10" stroke-linecap="round" stroke-linejoin="round"/>
<path d="M11.0999 11.1C10.4499 11.1 9.09985 11.1 9.09985 11.1V5.89996H11.0999C11.7999 5.89996 12.3999 6.49996 12.3999 7.19996C12.3999 7.89996 11.7999 8.49996 11.0999 8.49996H9.09985" stroke="#606580" stroke-miterlimit="10" stroke-linecap="round" stroke-linejoin="round"/>
<path d="M15 4.4V3.3C15 2.3 14.2 1.5 13.2 1.5H2.8C1.8 1.5 1 2.3 1 3.3V4.4" stroke="#606580" stroke-miterlimit="10" stroke-linecap="round" stroke-linejoin="round"/>
<path d="M1 12.6V13.7C1 14.7 1.8 15.5 2.8 15.5H13.2C14.2 15.5 15 14.7 15 13.7V12.6" stroke="#606580" stroke-miterlimit="10" stroke-linecap="round" stroke-linejoin="round"/>
</svg>
