<svg width="16" height="17" viewBox="0 0 16 17" fill="none" xmlns="http://www.w3.org/2000/svg">
<path d="M15 4.4V3.3C15 2.3 14.2 1.5 13.2 1.5H2.8C1.8 1.5 1 2.3 1 3.3V4.4" stroke="#606580" stroke-miterlimit="10" stroke-linecap="round" stroke-linejoin="round"/>
<path d="M1 12.6V13.7C1 14.7 1.8 15.5 2.8 15.5H13.2C14.2 15.5 15 14.7 15 13.7V12.6" stroke="#606580" stroke-miterlimit="10" stroke-linecap="round" stroke-linejoin="round"/>
<path d="M2.55005 10.3V6.70001L5.00005 10.3V6.70001" stroke="#606580" stroke-miterlimit="10" stroke-linecap="round" stroke-linejoin="round"/>
<path d="M11.05 6.70001L12.25 10.3L13.45 6.70001" stroke="#606580" stroke-miterlimit="10" stroke-linecap="round" stroke-linejoin="round"/>
<path d="M7.15002 10.3V6.75H8.65002C9.10002 6.75 9.50002 7.1 9.50002 7.6C9.50002 8.05 9.15002 8.45 8.65002 8.45H7.65002" stroke="#606580" stroke-miterlimit="10" stroke-linecap="round" stroke-linejoin="round"/>
</svg>
