<svg width="16" height="17" viewBox="0 0 16 17" fill="none" xmlns="http://www.w3.org/2000/svg">
<path d="M15 4.4V3.3C15 2.3 14.2 1.5 13.2 1.5H2.8C1.8 1.5 1 2.3 1 3.3V4.4" stroke="#606580" stroke-miterlimit="10" stroke-linecap="round" stroke-linejoin="round"/>
<path d="M1 12.6V13.7C1 14.7 1.8 15.5 2.8 15.5H13.2C14.2 15.5 15 14.7 15 13.7V12.6" stroke="#606580" stroke-miterlimit="10" stroke-linecap="round" stroke-linejoin="round"/>
<path d="M8.7002 10.05V6.95001H10.0002C10.4002 6.95001 10.7502 7.30001 10.7502 7.70001C10.7502 8.10001 10.4002 8.45001 10.0002 8.45001H9.1502L10.7502 10.1" stroke="#606580" stroke-miterlimit="10" stroke-linecap="round" stroke-linejoin="round"/>
<path d="M12.4502 10.05V6.95001H13.7502C14.1502 6.95001 14.5002 7.30001 14.5002 7.70001C14.5002 8.10001 14.1502 8.45001 13.7502 8.45001H12.9002L14.5002 10.1" stroke="#606580" stroke-miterlimit="10" stroke-linecap="round" stroke-linejoin="round"/>
<path d="M1.55005 10.05V6.95001L3.15005 10.05L4.75005 6.95001V10.05" stroke="#606580" stroke-miterlimit="10" stroke-linecap="round" stroke-linejoin="round"/>
<path d="M6.85034 6.95001V10.05" stroke="#606580" stroke-miterlimit="10" stroke-linecap="round" stroke-linejoin="round"/>
</svg>
