<svg width="16" height="17" viewBox="0 0 16 17" fill="none" xmlns="http://www.w3.org/2000/svg">
<path d="M9 4.69992H2.45C1.5 4.69992 0.75 5.44992 0.75 6.39992V10.6499C0.75 11.5999 1.5 12.3499 2.45 12.3499H4.25" stroke="#606580" stroke-miterlimit="10" stroke-linecap="round" stroke-linejoin="round"/>
<path d="M7.5 12.2999H13.55C14.5 12.2999 15.25 11.5499 15.25 10.5999V6.34993C15.25 5.39993 14.5 4.64993 13.55 4.64993H11.85" stroke="#606580" stroke-miterlimit="10" stroke-linecap="round" stroke-linejoin="round"/>
<path d="M10.1 2.14996L6.25 14.85" stroke="#606580" stroke-miterlimit="10" stroke-linecap="round" stroke-linejoin="round"/>
<path d="M3.05128 9.79252C3.20513 10.2007 3.5641 10.5 4 10.5C4.5641 10.5 5 10.0102 5 9.43878C5 8.7585 4 8.51361 4 8.51361C4 8.51361 3 8.29592 3 7.56122C3 6.96258 3.46154 6.5 4 6.5C4.4359 6.5 4.82051 6.79932 4.94872 7.20748" stroke="#606580" stroke-miterlimit="10" stroke-linecap="round" stroke-linejoin="round"/>
<path d="M11 10.5V6.5H11.9737C12.5263 6.5 13 6.96259 13 7.56122C13 8.13265 12.5526 8.62245 11.9737 8.62245H11.0526" stroke="#606580" stroke-miterlimit="10" stroke-linecap="round" stroke-linejoin="round"/>
</svg>
