<svg id="Layer_2" xmlns="http://www.w3.org/2000/svg" viewBox="0 0 58 58"><defs><style>.cls-1{fill:currentColor;}</style></defs><path class="cls-1" d="M40.83,29.33v-2.5h2.83v2.5h-2.83ZM37.86,29.33v-2.5h-2.87v2.5h2.87ZM55.69,19.26h-7.15v2.5h7.15v-2.5ZM43.65,22.92h-20.32v2.5h20.32v-2.5ZM32.05,29.33v-2.5h-2.87v2.5h2.87ZM48.54,26.83v2.5h3.05v-2.5h-3.05ZM13.28,29.33v-2.5h-2.87v2.5h2.87ZM8.42,29.33v-2.5h-2.87v2.5h2.87ZM52.86,46.03v-12.79h2.93v-10.32h-7.24v2.5h4.74v5.32h-4.74v6.2l1.82-2.16v11.26h-2.95v-29.86c0-2.51-2.03-4.54-4.53-4.54h-4.03c-2.5,0-4.53,2.04-4.53,4.54v3.1h-10.99v2.5h20.32v-2.5h-6.83v-3.1c0-1.13.91-2.04,2.03-2.04h4.03c1.12,0,2.03.92,2.03,2.04v29.86h-16.1v-12.5l2.88,3.66h11.96v-2.5h-10.75l-1.15-1.46h11.9v-2.5h-20.32v2.5h.21l-.21.34v3.61h.14l2.83-3.36v12.19h-4.31v-29.86c0-2.51-2.03-4.54-4.53-4.54h-4.03c-2.5,0-4.53,2.04-4.53,4.54v3.1H1.26v2.5h17.02v-2.5h-6.87v-3.1c0-1.13.91-2.04,2.03-2.04h4.03c1.12,0,2.03.92,2.03,2.04v29.86H5.6v-10.43l1.26,1.6h11.43v-2.5h-10.21l-1.15-1.46h11.36v-.28h0v-2.22H3.64v-5.32h14.64v-2.5H1.14v10.32h1.95v12.79H0v2.5h58v-2.5h-5.14ZM18.28,29.33v-2.5h-3.02v2.5h3.02ZM26.23,29.33v-2.5h-2.89v2.5h2.89Z"/></svg>