<svg width="17" height="17" viewBox="0 0 17 17" fill="none" xmlns="http://www.w3.org/2000/svg">
<path d="M7.39999 2.7L4.04999 4.65" stroke="#606580" stroke-miterlimit="10" stroke-linecap="round" stroke-linejoin="round"/>
<path d="M12.8 4.55L9.79999 2.8" stroke="#606580" stroke-miterlimit="10" stroke-linecap="round" stroke-linejoin="round"/>
<path d="M14.1 10.3V6.6" stroke="#606580" stroke-miterlimit="10" stroke-linecap="round" stroke-linejoin="round"/>
<path d="M9.75 14.25L12.95 12.35" stroke="#606580" stroke-miterlimit="10" stroke-linecap="round" stroke-linejoin="round"/>
<path d="M4.15002 12.45L7.15002 14.15" stroke="#606580" stroke-miterlimit="10" stroke-linecap="round" stroke-linejoin="round"/>
<path d="M2.90002 6.5V10.55" stroke="#606580" stroke-miterlimit="10" stroke-linecap="round" stroke-linejoin="round"/>
<path d="M14.1 6.25C14.7075 6.25 15.2 5.75752 15.2 5.15C15.2 4.54249 14.7075 4.05 14.1 4.05C13.4925 4.05 13 4.54249 13 5.15C13 5.75752 13.4925 6.25 14.1 6.25Z" stroke="#606580" stroke-miterlimit="10" stroke-linecap="round" stroke-linejoin="round"/>
<path d="M2.89999 6.25C3.5075 6.25 3.99999 5.75752 3.99999 5.15C3.99999 4.54249 3.5075 4.05 2.89999 4.05C2.29247 4.05 1.79999 4.54249 1.79999 5.15C1.79999 5.75752 2.29247 6.25 2.89999 6.25Z" stroke="#606580" stroke-miterlimit="10" stroke-linecap="round" stroke-linejoin="round"/>
<path d="M14.1 12.95C14.7075 12.95 15.2 12.4575 15.2 11.85C15.2 11.2425 14.7075 10.75 14.1 10.75C13.4925 10.75 13 11.2425 13 11.85C13 12.4575 13.4925 12.95 14.1 12.95Z" stroke="#606580" stroke-miterlimit="10" stroke-linecap="round" stroke-linejoin="round"/>
<path d="M8.50002 15.75C9.10754 15.75 9.60002 15.2575 9.60002 14.65C9.60002 14.0425 9.10754 13.55 8.50002 13.55C7.89251 13.55 7.40002 14.0425 7.40002 14.65C7.40002 15.2575 7.89251 15.75 8.50002 15.75Z" stroke="#606580" stroke-miterlimit="10" stroke-linecap="round" stroke-linejoin="round"/>
<path d="M8.50002 3.45C9.10754 3.45 9.60002 2.95751 9.60002 2.35C9.60002 1.74249 9.10754 1.25 8.50002 1.25C7.89251 1.25 7.40002 1.74249 7.40002 2.35C7.40002 2.95751 7.89251 3.45 8.50002 3.45Z" stroke="#606580" stroke-miterlimit="10" stroke-linecap="round" stroke-linejoin="round"/>
<path d="M2.89999 12.95C3.5075 12.95 3.99999 12.4575 3.99999 11.85C3.99999 11.2425 3.5075 10.75 2.89999 10.75C2.29247 10.75 1.79999 11.2425 1.79999 11.85C1.79999 12.4575 2.29247 12.95 2.89999 12.95Z" stroke="#606580" stroke-miterlimit="10" stroke-linecap="round" stroke-linejoin="round"/>
</svg>
