<svg width="17" height="17" viewBox="0 0 17 17" fill="none" xmlns="http://www.w3.org/2000/svg">
<path fill-rule="evenodd" clip-rule="evenodd" d="M13.45 3.54999C12.05 2.14999 10.35 1.49999 9.69999 2.14999L2.14999 9.69999C1.49999 10.35 2.09999 12.05 3.54999 13.45C4.99999 14.85 6.64999 15.5 7.29999 14.85L14.85 7.29999C15.5 6.64999 14.85 4.94999 13.45 3.54999Z" stroke="#606580" stroke-miterlimit="10" stroke-linecap="round" stroke-linejoin="round"/>
<path d="M14.852 7.33975C15.4964 6.69539 14.8632 5.01752 13.4378 3.59212C12.0124 2.16672 10.3346 1.53356 9.69021 2.17792C9.04585 2.82228 9.67901 4.50015 11.1044 5.92555C12.5298 7.35095 14.2077 7.98411 14.852 7.33975Z" stroke="#606580" stroke-miterlimit="10" stroke-linecap="round" stroke-linejoin="round"/>
<path d="M9.04996 13.05C8.39996 13.7 6.69996 13.1 5.29996 11.65C3.89996 10.2 3.24996 8.54999 3.89996 7.89999" stroke="#606580" stroke-miterlimit="10" stroke-linecap="round" stroke-linejoin="round"/>
<path d="M13.6971 5.20158C13.9314 4.96727 13.694 4.34994 13.1668 3.82274C12.6396 3.29554 12.0222 3.0581 11.7879 3.29241C11.5536 3.52673 11.791 4.14406 12.3182 4.67126C12.8454 5.19846 13.4628 5.4359 13.6971 5.20158Z" stroke="#606580" stroke-miterlimit="10" stroke-linecap="round" stroke-linejoin="round"/>
<path fill-rule="evenodd" clip-rule="evenodd" d="M10.55 7.79999L7.49998 8.24999L8.04998 8.74999L6.09998 9.44999L9.39998 9.29999L8.74998 8.69999L10.55 7.79999Z" fill="#606580" stroke="#606580" stroke-miterlimit="10" stroke-linecap="round" stroke-linejoin="round"/>
</svg>
