<svg width="17" height="16" viewBox="0 0 17 16" fill="none" xmlns="http://www.w3.org/2000/svg">
<path d="M6.44998 2.35C5.79998 2.95 5.34998 3.8 5.34998 4.75C5.34998 6.5 6.74998 7.9 8.49998 7.9C10.25 7.9 11.65 6.5 11.65 4.75C11.65 3.8 11.2 2.95 10.55 2.35" stroke="#606580" stroke-miterlimit="10" stroke-linecap="round" stroke-linejoin="round"/>
<path d="M14.9 9.9C14.75 9.05 14.2 8.25 13.4 7.75C11.9 6.9 9.95005 7.4 9.10005 8.9C8.25005 10.4 8.75005 12.35 10.25 13.2C11.1 13.7 12.05 13.75 12.85 13.45" stroke="#606580" stroke-miterlimit="10" stroke-linecap="round" stroke-linejoin="round"/>
<path d="M4.14998 13.45C4.99998 13.75 5.94998 13.7 6.74998 13.2C8.24998 12.35 8.79998 10.4 7.89998 8.9C6.99998 7.4 5.09998 6.85 3.59998 7.75C2.74998 8.25 2.24998 9.05 2.09998 9.9" stroke="#606580" stroke-miterlimit="10" stroke-linecap="round" stroke-linejoin="round"/>
</svg>
