<svg width="17" height="16" viewBox="0 0 17 16" fill="none" xmlns="http://www.w3.org/2000/svg">
<path d="M7.45002 6.75C7.10002 7.05 6.90002 7.5 6.90002 8C6.90002 8.9 7.65002 9.6 8.50002 9.6C9.35002 9.6 10.1 8.85 10.1 8C10.1 7.5 9.90002 7.05 9.55002 6.75" stroke="#606580" stroke-miterlimit="10" stroke-linecap="round" stroke-linejoin="round"/>
<path d="M11.8 10.6C11.7 10.15 11.45 9.75 11 9.5C10.2 9.05 9.24998 9.3 8.79998 10.1C8.34998 10.9 8.59998 11.85 9.39998 12.3C9.84998 12.55 10.3 12.6 10.75 12.4" stroke="#606580" stroke-miterlimit="10" stroke-linecap="round" stroke-linejoin="round"/>
<path d="M6.25001 12.45C6.70001 12.6 7.15001 12.55 7.60001 12.35C8.40001 11.9 8.65001 10.9 8.20001 10.15C7.75001 9.35 6.75001 9.1 6.00001 9.55C5.55001 9.8 5.30001 10.2 5.20001 10.65" stroke="#606580" stroke-miterlimit="10" stroke-linecap="round" stroke-linejoin="round"/>
<path d="M8.05 2.15L1.55 13.4C1.35 13.75 1.6 14.2 2 14.2H15C15.4 14.2 15.65 13.75 15.45 13.4L8.95 2.15C8.75 1.8 8.25 1.8 8.05 2.15Z" stroke="#606580" stroke-miterlimit="10" stroke-linecap="round" stroke-linejoin="round"/>
</svg>
