<svg width="16" height="17" viewBox="0 0 16 17" fill="none" xmlns="http://www.w3.org/2000/svg">
<path d="M2.09998 16L13.9 1.5" stroke="#606580" stroke-miterlimit="10" stroke-linecap="round" stroke-linejoin="round"/>
<path d="M5.03841 1.64218C5.10906 1.40399 4.99411 1.15007 4.76852 1.04599C4.54294 0.941913 4.27515 1.01925 4.13979 1.22757L0.801208 6.36563C0.701313 6.51937 0.693571 6.71545 0.781033 6.87658C0.868495 7.03772 1.03713 7.13806 1.22047 7.13806H1.85681L0.538341 10.308C0.442416 10.5386 0.531407 10.8047 0.746792 10.9311C0.962176 11.0576 1.23787 11.0058 1.39257 10.8097L5.39257 5.73877C5.51122 5.58835 5.53349 5.38336 5.44991 5.21097C5.36632 5.03858 5.19158 4.9291 5 4.9291H4.06353L5.03841 1.64218Z" stroke="#606580" stroke-miterlimit="10" stroke-linecap="round" stroke-linejoin="round"/>
<path d="M15.0384 6.64218C15.1091 6.40399 14.9941 6.15007 14.7685 6.04599C14.5429 5.94191 14.2752 6.01925 14.1398 6.22757L10.8012 11.3656C10.7013 11.5194 10.6936 11.7154 10.781 11.8766C10.8685 12.0377 11.0371 12.1381 11.2205 12.1381H11.8568L10.5383 15.308C10.4424 15.5386 10.5314 15.8047 10.7468 15.9311C10.9622 16.0576 11.2379 16.0058 11.3926 15.8097L15.3926 10.7388C15.5112 10.5883 15.5335 10.3834 15.4499 10.211C15.3663 10.0386 15.1916 9.9291 15 9.9291H14.0635L15.0384 6.64218Z" stroke="#606580" stroke-miterlimit="10" stroke-linecap="round" stroke-linejoin="round"/>
</svg>
