<svg width="16" height="16" viewBox="0 0 16 16" fill="none" xmlns="http://www.w3.org/2000/svg">
<path d="M11.6 8.05V3.85L8.00002 1.75L4.40002 3.85V8.05L8.00002 10.15L11.6 8.05Z" stroke="#606580" stroke-miterlimit="10" stroke-linecap="round" stroke-linejoin="round"/>
<path d="M4.40002 3.84998L8.00002 5.94998L11.6 3.84998" stroke="#606580" stroke-miterlimit="10" stroke-linecap="round" stroke-linejoin="round"/>
<path d="M6.20001 4.75L9.65001 2.75" stroke="#606580" stroke-miterlimit="10" stroke-linecap="round" stroke-linejoin="round"/>
<path d="M8 6.09998V9.84998" stroke="#606580" stroke-miterlimit="10" stroke-linecap="round" stroke-linejoin="round"/>
<path d="M15.25 12.1499V10.0999C15.25 9.24993 14.55 8.54993 13.7 8.54993" stroke="#606580" stroke-miterlimit="10" stroke-linecap="round" stroke-linejoin="round"/>
<path d="M0.75 12.15V10.1C0.75 9.24999 1.45 8.54999 2.3 8.54999H2.6" stroke="#606580" stroke-miterlimit="10" stroke-linecap="round" stroke-linejoin="round"/>
<path d="M4.9 11.1499H2.3C1.45 11.1499 0.75 11.8499 0.75 12.6999C0.75 13.5499 1.45 14.2499 2.3 14.2499H13.7C14.55 14.2499 15.25 13.5499 15.25 12.6999C15.25 11.8499 14.55 11.1499 13.7 11.1499H11.1" stroke="#606580" stroke-miterlimit="10" stroke-linecap="round" stroke-linejoin="round"/>
</svg>
