<svg width="17" height="16" viewBox="0 0 17 16" fill="none" xmlns="http://www.w3.org/2000/svg">
<path d="M8.49999 5.6C10.8196 5.6 12.7 4.72695 12.7 3.65C12.7 2.57304 10.8196 1.7 8.49999 1.7C6.18039 1.7 4.29999 2.57304 4.29999 3.65C4.29999 4.72695 6.18039 5.6 8.49999 5.6Z" stroke="#606580" stroke-miterlimit="10" stroke-linecap="round" stroke-linejoin="round"/>
<path d="M12.7 3.65V6.75C12.7 7.85 10.8 8.7 8.49999 8.7C6.19999 8.7 4.29999 7.8 4.29999 6.75V3.65" stroke="#606580" stroke-miterlimit="10" stroke-linecap="round" stroke-linejoin="round"/>
<path d="M8.5 5.65V8.7" stroke="#606580" stroke-miterlimit="10" stroke-linecap="round" stroke-linejoin="round"/>
<path d="M11.25 5.15V8.2" stroke="#606580" stroke-miterlimit="10" stroke-linecap="round" stroke-linejoin="round"/>
<path d="M5.75 5.15V8.2" stroke="#606580" stroke-miterlimit="10" stroke-linecap="round" stroke-linejoin="round"/>
<path d="M1 14.3V13.45C1 12.9 1.3 12.35 1.85 12.1L4.25 10.9C4.9 10.55 5.3 9.9 5.3 9.15V8.2" stroke="#606580" stroke-miterlimit="10" stroke-linecap="round" stroke-linejoin="round"/>
<path d="M11.7 8.2V9.15C11.7 9.9 12.1 10.55 12.75 10.9L15.15 12.1C15.65 12.35 16 12.9 16 13.45V14.3" stroke="#606580" stroke-miterlimit="10" stroke-linecap="round" stroke-linejoin="round"/>
</svg>
