<svg width="16" height="16" viewBox="0 0 16 16" fill="none" xmlns="http://www.w3.org/2000/svg">
<path d="M15.2502 12.1499V10.0999C15.2502 9.24993 14.5502 8.54993 13.7002 8.54993" stroke="#606580" stroke-miterlimit="10" stroke-linecap="round" stroke-linejoin="round"/>
<path d="M0.75 12.15V10.1C0.75 9.25005 1.45 8.55005 2.3 8.55005H2.6" stroke="#606580" stroke-miterlimit="10" stroke-linecap="round" stroke-linejoin="round"/>
<path d="M11.6 11.1499H2.3C1.45 11.1499 0.75 11.8499 0.75 12.6999C0.75 13.5499 1.45 14.2499 2.3 14.2499H13.7C14.55 14.2499 15.25 13.5499 15.25 12.6999C15.25 11.8499 14.55 11.1499 13.7 11.1499H11.6Z" stroke="#606580" stroke-miterlimit="10" stroke-linecap="round" stroke-linejoin="round"/>
<path d="M8.00063 5.74985C9.93354 5.74985 11.5005 5.02235 11.5005 4.12493C11.5005 3.2275 9.93354 2.5 8.00063 2.5C6.06772 2.5 4.50079 3.2275 4.50079 4.12493C4.50079 5.02235 6.06772 5.74985 8.00063 5.74985Z" stroke="#606580" stroke-miterlimit="10" stroke-linecap="round" stroke-linejoin="round"/>
<path d="M11.4997 4.12485V6.70806C11.4997 7.62469 9.91642 8.33299 7.99984 8.33299C6.08326 8.33299 4.5 7.58302 4.5 6.70806V4.12485" stroke="#606580" stroke-miterlimit="10" stroke-linecap="round" stroke-linejoin="round"/>
<path d="M7.99976 5.79155V8.3331" stroke="#606580" stroke-miterlimit="10" stroke-linecap="round" stroke-linejoin="round"/>
<path d="M10.2914 5.37491V7.91646" stroke="#606580" stroke-miterlimit="10" stroke-linecap="round" stroke-linejoin="round"/>
<path d="M5.70801 5.37492V7.91647" stroke="#606580" stroke-miterlimit="10" stroke-linecap="round" stroke-linejoin="round"/>
</svg>
