<svg width="16" height="17" viewBox="0 0 16 17" fill="none" xmlns="http://www.w3.org/2000/svg">
<path d="M10.35 1.5L8.44998 7.55H11.05L4.49998 15.35L7.14998 9.4H4.84998L10.35 1.5ZM10.35 0.5C10.3 0.5 10.3 0.5 10.25 0.5C10.1 0.5 9.94998 0.55 9.79998 0.65C9.69998 0.7 9.64998 0.8 9.54998 0.85L9.49998 0.9L4.04998 8.85C3.84998 9.15 3.79998 9.55 3.99998 9.9C4.19998 10.25 4.49998 10.45 4.89998 10.45H5.59998L3.59998 15C3.39998 15.45 3.54998 16 3.99998 16.25C4.14998 16.35 4.34998 16.4 4.54998 16.4C4.84998 16.4 5.09998 16.3 5.29998 16.05L11.85 8.25C12.1 7.95 12.15 7.55 12 7.2C11.85 6.85 11.5 6.6 11.1 6.6H9.84998L11.3 1.9C11.35 1.8 11.35 1.7 11.35 1.55C11.35 0.95 10.9 0.5 10.35 0.5Z" fill="#606580"/>
<path d="M6.25 1.89999C4.2 2.44999 2.4 3.89999 1.55 6.04999C0.7 8.24999 1.05 10.65 2.25 12.5" stroke="#606580" stroke-miterlimit="10" stroke-linecap="round" stroke-linejoin="round"/>
<path d="M8.40002 15.5C11 15.35 13.45 13.75 14.45 11.15C15.45 8.54999 14.8 5.69999 13 3.79999" stroke="#606580" stroke-miterlimit="10" stroke-linecap="round" stroke-linejoin="round"/>
</svg>
