<svg width="16" height="16" viewBox="0 0 16 16" fill="none" xmlns="http://www.w3.org/2000/svg">
<path d="M8 15C11.866 15 15 11.866 15 8C15 4.13401 11.866 1 8 1C4.13401 1 1 4.13401 1 8C1 11.866 4.13401 15 8 15Z" stroke="#606580" stroke-miterlimit="10" stroke-linecap="round" stroke-linejoin="round"/>
<path d="M11.1 8.94998C10.85 5.94998 8.00002 3.59998 8.00002 3.59998C8.00002 3.59998 5.15002 5.94998 4.90002 8.94998C4.90002 9.04998 4.90002 9.19998 4.90002 9.29998C4.90002 11 6.30002 12.4 8.00002 12.4C9.70002 12.4 11.1 11 11.1 9.29998C11.1 9.19998 11.1 9.04998 11.1 8.94998Z" stroke="#606580" stroke-miterlimit="10" stroke-linecap="round" stroke-linejoin="round"/>
<path d="M6.20001 9.44995C6.20001 10.3 6.90001 11 7.75001 11" stroke="#606580" stroke-miterlimit="10" stroke-linecap="round" stroke-linejoin="round"/>
</svg>
