<svg id="Layer_3" xmlns="http://www.w3.org/2000/svg" viewBox="0 0 58 58"><defs><style>.cls-1{fill:currentColor;}</style></defs><path class="cls-1" d="M56.11,46.03v-27.33h-2.5v2.12h-7.56v-2.56h.99v-2.5h-4.48v2.5h.99v2.56h-10.46v-2.56h.99v-2.5h-4.48v2.5h.99v2.56h-7.77v-2.12h-2.5v2.12h-2.23V5.73h-6.29v15.08h-.52l-1.66-1.25h-1.5L.26,25.45l.75,2.25h1.8l-2.5,1.69.7,2.29h1.99l-2.4,1.71h-.03v.02l-.29.21.29.41v5.34h2.42v6.66H0v2.5h58v-2.5h-1.89ZM53.61,23.31v22.72h-25.39v-4.26c0-.69-.56-1.25-1.25-1.25s-1.25.56-1.25,1.25v4.26h-1.03v-6.16c0-.69-.56-1.25-1.25-1.25s-1.25.56-1.25,1.25v6.16h-1.03v-4.26c0-.69-.56-1.25-1.25-1.25s-1.25.56-1.25,1.25v4.26h-4.04v-6.66h2.15v-1.74h6.06v-14.32h30.79ZM3.08,36.87v-.99h11.18v.99H3.08ZM20.32,35.13h-3.56v-.58l.65-.94-2.8-1.94h2.09l.68-2.3-2.57-1.67h1.89l.75-2.25-2.85-2.14h5.72v11.82ZM14.29,8.23h1.29v12.58h-1.29v-12.58ZM6.9,29.17h-1.8l2.5-1.69-.7-2.29h-2.14l4.1-3.08,4.1,3.08h-2.35l-.68,2.3,2.57,1.67h-1.89l-.71,2.28,2.8,1.94h-7.78l2.72-1.95-.73-2.27ZM5.5,39.37h6.61v6.66h-6.61v-6.66Z"/><rect class="cls-1" x="25.13" y="33.37" width="26.42" height="2.5"/><rect class="cls-1" x="11.76" y="2.53" width="6.35" height="2.5"/></svg>