<svg width="16" height="17" viewBox="0 0 16 17" fill="none" xmlns="http://www.w3.org/2000/svg">
<path d="M14.4 14.9C15.75 13.55 15.75 11.35 14.4 9.95001L8.49998 4.05001C7.14998 2.70001 4.94998 2.70001 3.54998 4.05001C2.19998 5.40001 2.19998 7.60001 3.54998 9.00001L9.44998 14.9C10.85 16.25 13.05 16.25 14.4 14.9Z" stroke="#606580" stroke-miterlimit="10" stroke-linecap="round" stroke-linejoin="round"/>
<path d="M6.44998 6.25L3.59998 9.05" stroke="#606580" stroke-miterlimit="10" stroke-linecap="round" stroke-linejoin="round"/>
<path d="M8.55 4.10001L7.75 4.95001" stroke="#606580" stroke-miterlimit="10" stroke-linecap="round" stroke-linejoin="round"/>
<path d="M12.45 12.2L9.59998 15.05" stroke="#606580" stroke-miterlimit="10" stroke-linecap="round" stroke-linejoin="round"/>
<path d="M14.55 10.1L13.7 10.95" stroke="#606580" stroke-miterlimit="10" stroke-linecap="round" stroke-linejoin="round"/>
<path d="M2.04999 2.55L3.44999 3.95" stroke="#606580" stroke-miterlimit="10" stroke-linecap="round" stroke-linejoin="round"/>
<path d="M2.95 1.10001C2.85 1.00001 2.25 1.40001 1.55 2.05001C0.849997 2.70001 0.499997 3.35001 0.599997 3.45001C0.699997 3.55001 1.35 3.10001 2 2.45001C2.65 1.80001 3.05 1.20001 2.95 1.10001Z" stroke="#606580" stroke-miterlimit="10" stroke-linecap="round" stroke-linejoin="round"/>
</svg>
