<svg width="16" height="16" viewBox="0 0 16 16" fill="none" xmlns="http://www.w3.org/2000/svg">
<path d="M4.10004 15.15L1.15004 13.6C0.650035 13.35 0.450035 12.7 0.700035 12.2L4.30004 5.35C4.55004 4.85 5.20004 4.65 5.70004 4.9L8.65003 6.45C9.15003 6.7 9.35004 7.35 9.10004 7.85L5.50004 14.7C5.25004 15.2 4.65004 15.4 4.10004 15.15Z" stroke="#606580" stroke-miterlimit="10" stroke-linecap="round" stroke-linejoin="round"/>
<path d="M8.95812 8.16388L4.13269 5.63072L0.87909 11.8285L5.70452 14.3617L8.95812 8.16388Z" stroke="#606580" stroke-miterlimit="10" stroke-linecap="round" stroke-linejoin="round"/>
<path d="M6.5 3.2V1.85C6.5 1.35 6.85 1 7.35 1H8.9" stroke="#606580" stroke-miterlimit="10" stroke-linecap="round" stroke-linejoin="round"/>
<path d="M12.8 1H14.15C14.65 1 15 1.35 15 1.85V3.2" stroke="#606580" stroke-miterlimit="10" stroke-linecap="round" stroke-linejoin="round"/>
<path d="M15 7.3V8.65C15 9.1 14.65 9.5 14.15 9.5H12.95" stroke="#606580" stroke-miterlimit="10" stroke-linecap="round" stroke-linejoin="round"/>
<path d="M8.29999 3V5.9" stroke="#606580" stroke-miterlimit="10" stroke-linecap="round" stroke-linejoin="round"/>
<path d="M9.94995 3V7.5" stroke="#606580" stroke-miterlimit="10" stroke-linecap="round" stroke-linejoin="round"/>
<path d="M13.2 3V7.5" stroke="#606580" stroke-miterlimit="10" stroke-linecap="round" stroke-linejoin="round"/>
<path d="M11.5 3V7.5" stroke="#606580" stroke-miterlimit="10" stroke-linecap="round" stroke-linejoin="round"/>
</svg>
