<svg width="16" height="16" viewBox="0 0 16 16" fill="none" xmlns="http://www.w3.org/2000/svg">
<path d="M4.10004 15.15L1.15004 13.6C0.650035 13.35 0.450035 12.7 0.700035 12.2L4.30004 5.35C4.55004 4.85 5.20004 4.65 5.70004 4.9L8.65003 6.45C9.15003 6.7 9.35004 7.35 9.10004 7.85L5.50004 14.7C5.25004 15.2 4.65004 15.4 4.10004 15.15Z" stroke="#606580" stroke-miterlimit="10" stroke-linecap="round" stroke-linejoin="round"/>
<path d="M8.95812 8.16388L4.13269 5.63072L0.87909 11.8285L5.70452 14.3617L8.95812 8.16388Z" stroke="#606580" stroke-miterlimit="10" stroke-linecap="round" stroke-linejoin="round"/>
<path d="M7.75 3.15001C8.25 2.95001 8.75 2.85001 9.3 2.85001C11.5 2.85001 13.3 4.65001 13.3 6.85001C13.3 8.75001 11.95 10.35 10.15 10.75" stroke="#606580" stroke-miterlimit="10" stroke-linecap="round" stroke-linejoin="round"/>
<path d="M4.90002 2.65C6.00002 1.45 7.60002 0.75 9.35002 0.75C12.7 0.75 15.45 3.45 15.45 6.85C15.45 10.25 12.75 12.95 9.35002 12.95" stroke="#606580" stroke-miterlimit="10" stroke-linecap="round" stroke-linejoin="round"/>
<path d="M9.75 5.05C10.05 5.15 10.3 5.3 10.55 5.5C11.15 6.1 11.3 7 11 7.75" stroke="#606580" stroke-miterlimit="10" stroke-linecap="round" stroke-linejoin="round"/>
</svg>
