<svg id="Layer_2" xmlns="http://www.w3.org/2000/svg" viewBox="0 0 58 58"><defs><style>.cls-1{fill:currentColor;}</style></defs><path class="cls-1" d="M54.01,46.03v-2.45h.87v-2.72h-.41v-1.17c.46-.52.74-1.2.74-1.94s-.28-1.42-.74-1.94v-1.19h.41v-2.12h-.87v-12.12c0-2.55-2.08-4.63-4.63-4.63h-3.41v-1.12c0-2.84-2.35-5.16-5.24-5.16h-1.93c-2.89,0-5.24,2.31-5.24,5.16v31.4h-.5V14.63c0-2.84-2.35-5.16-5.24-5.16h-1.93c-2.89,0-5.24,2.31-5.24,5.16v31.4h-.54V14.63c0-2.84-2.35-5.16-5.24-5.16h-1.93c-2.89,0-5.24,2.31-5.24,5.16v24c-.8,0-1.74,0-2.33.02-2,.12-3.77,1.7-4.21,3.71-.12.52-.15,2.39-.16,3.67H0v2.5h58v-2.5h-3.99ZM7.71,46.03H3.52c0-1.21.04-2.78.1-3.12.2-.94,1.05-1.71,1.89-1.77.43-.01,1.18-.02,2.21-.01v4.9ZM12.95,11.97h1.93c.76,0,1.45.3,1.94.79h-5.82c.5-.48,1.18-.79,1.94-.79ZM17.62,46.03h-7.41v-8.59h7.41v8.59ZM17.62,34.93h-7.41V15.26h7.41v19.68ZM25.9,11.97h1.93c.76,0,1.45.3,1.94.79h-5.82c.5-.48,1.18-.79,1.94-.79ZM30.57,46.03h-7.41v-8.59h7.41v8.59ZM30.57,34.93h-7.41V15.26h7.41v19.68ZM38.81,11.97h1.93c.76,0,1.45.3,1.94.79h-5.82c.5-.48,1.18-.79,1.94-.79ZM43.48,46.03h-7.41v-8.59h7.41v8.59ZM43.48,34.93h-7.41V15.26h7.41v19.68ZM45.98,46.03v-27.78h3.41c1.17,0,2.13.95,2.13,2.13v12.12h-.87v2.12h.41v1.19c-.46.52-.74,1.2-.74,1.94s.28,1.42.74,1.94v1.17h-.41v2.72h.87v2.45h-5.53Z"/></svg>