<svg width="17" height="17" viewBox="0 0 17 17" fill="none" xmlns="http://www.w3.org/2000/svg">
<path d="M7.00001 15.9C3.80001 15.05 1.45001 12.1 1.45001 8.60001C1.45001 4.45001 4.80001 1.10001 8.95001 1.10001C11.85 1.10001 14.35 2.75001 15.6 5.10001" stroke="#606580" stroke-miterlimit="10" stroke-linecap="round" stroke-linejoin="round"/>
<path d="M4.05005 8.45001C4.25005 6.05001 6.50005 4.20001 6.50005 4.20001C6.50005 4.20001 8.80005 6.10001 8.95005 8.45001C8.95005 8.55001 8.95005 8.65001 8.95005 8.75001C8.95005 10.1 7.85005 11.2 6.50005 11.2C5.15005 11.2 4.05005 10.1 4.05005 8.75001C4.05005 8.65001 4.05005 8.55001 4.05005 8.45001Z" stroke="#606580" stroke-miterlimit="10" stroke-linecap="round" stroke-linejoin="round"/>
<path d="M15.0885 8.65826C15.1665 8.42451 15.0625 8.16879 14.8436 8.05573C14.6246 7.94267 14.3559 8.006 14.2105 8.20493L11.2893 12.2012C11.1782 12.3532 11.1618 12.5547 11.2471 12.7226C11.3323 12.8905 11.5046 12.9963 11.6929 12.9963H12.1195L11.0471 15.2881C10.9418 15.5131 11.0177 15.7813 11.2253 15.9178C11.4328 16.0543 11.7091 16.0177 11.874 15.8319L15.374 11.8878C15.5046 11.7406 15.5367 11.5305 15.456 11.351C15.3753 11.1714 15.1968 11.056 15 11.056H14.2884L15.0885 8.65826Z" stroke="#606580" stroke-miterlimit="10" stroke-linecap="round" stroke-linejoin="round"/>
</svg>
