<svg width="17" height="17" viewBox="0 0 17 17" fill="none" xmlns="http://www.w3.org/2000/svg">
<path d="M11.2611 1.64798C11.3344 1.4114 11.2234 1.1568 11.0002 1.04943C10.777 0.942055 10.5089 1.01426 10.3698 1.21919L4.94457 9.21173C4.84059 9.36492 4.82977 9.56302 4.91645 9.72663C5.00313 9.89023 5.17312 9.99254 5.35827 9.99254H6.84783L4.54142 15.3007C4.44209 15.5293 4.5263 15.7962 4.73885 15.9264C4.95139 16.0566 5.22736 16.0103 5.38587 15.818L11.8859 7.92991C12.0089 7.78057 12.0348 7.57363 11.9522 7.39862C11.8696 7.2236 11.6935 7.11194 11.5 7.11194H9.56813L11.2611 1.64798Z" stroke="#606580" stroke-miterlimit="10" stroke-linecap="round" stroke-linejoin="round"/>
</svg>
