<svg width="16" height="17" viewBox="0 0 16 17" fill="none" xmlns="http://www.w3.org/2000/svg">
<path d="M8 12.6C9.24264 12.6 10.25 11.5926 10.25 10.35C10.25 9.10737 9.24264 8.10001 8 8.10001C6.75736 8.10001 5.75 9.10737 5.75 10.35C5.75 11.5926 6.75736 12.6 8 12.6Z" stroke="#606580" stroke-miterlimit="10" stroke-linecap="round" stroke-linejoin="round"/>
<path d="M8.00002 3.80001C8.60754 3.80001 9.10002 3.30752 9.10002 2.70001C9.10002 2.09249 8.60754 1.60001 8.00002 1.60001C7.39251 1.60001 6.90002 2.09249 6.90002 2.70001C6.90002 3.30752 7.39251 3.80001 8.00002 3.80001Z" stroke="#606580" stroke-miterlimit="10" stroke-linecap="round" stroke-linejoin="round"/>
<path d="M13.15 9.70001H15.25V11.45H14.7" stroke="#606580" stroke-miterlimit="10" stroke-linecap="round" stroke-linejoin="round"/>
<path d="M9.09998 2.89999L10.2 9.89999" stroke="#606580" stroke-miterlimit="10" stroke-linecap="round" stroke-linejoin="round"/>
<path d="M5.75 9.99999L6.85 2.89999" stroke="#606580" stroke-miterlimit="10" stroke-linecap="round" stroke-linejoin="round"/>
<path d="M2.5 6.80001L5 4.25001L4.95 4.10001L3.2 2.35001L0.75 4.80001L3.45 8.10001V8.20001C3.15 8.85001 2.95 9.60001 2.95 10.35C2.95 13.15 5.2 15.4 8 15.4C10.8 15.4 13.05 13.15 13.05 10.35C13.05 9.40001 12.8 8.55001 12.35 7.80001V7.70001L15.25 4.80001L12.8 2.35001L11 4.15001V4.30001L13.35 6.65001" stroke="#606580" stroke-miterlimit="10" stroke-linecap="round" stroke-linejoin="round"/>
</svg>
