<svg width="17" height="16" viewBox="0 0 17 16" fill="none" xmlns="http://www.w3.org/2000/svg">
<path d="M7.35 4.35C4.7 4.7 2.55 6.1 1.5 8C2.7 10.2 5.35 11.7 8.5 11.7C11.65 11.7 14.3 10.2 15.5 8C14.45 6.1 12.25 4.7 9.65 4.35" stroke="#606580" stroke-miterlimit="10" stroke-linecap="round" stroke-linejoin="round"/>
<path fill-rule="evenodd" clip-rule="evenodd" d="M9.54999 5.74999V2.89999H7.39999V5.79999C6.44999 6.19999 5.79999 7.14999 5.79999 8.24999C5.79999 9.69999 6.99999 10.9 8.44999 10.9C9.89999 10.9 11.1 9.69999 11.1 8.24999C11.15 7.09999 10.5 6.19999 9.54999 5.74999Z" stroke="#606580" stroke-miterlimit="10" stroke-linecap="round" stroke-linejoin="round"/>
<path d="M6.54999 2.89999H10.45" stroke="#606580" stroke-miterlimit="10" stroke-linecap="round" stroke-linejoin="round"/>
<path d="M2.34998 1.85L4.04998 3.55" stroke="#606580" stroke-miterlimit="10" stroke-linecap="round" stroke-linejoin="round"/>
<path d="M2.34998 14.15L4.04998 12.45" stroke="#606580" stroke-miterlimit="10" stroke-linecap="round" stroke-linejoin="round"/>
<path d="M14.65 14.15L12.95 12.45" stroke="#606580" stroke-miterlimit="10" stroke-linecap="round" stroke-linejoin="round"/>
<path d="M14.65 1.85L12.95 3.55" stroke="#606580" stroke-miterlimit="10" stroke-linecap="round" stroke-linejoin="round"/>
<path d="M8.50001 9.24999C9.07991 9.24999 9.55001 8.77989 9.55001 8.19999C9.55001 7.62009 9.07991 7.14999 8.50001 7.14999C7.92011 7.14999 7.45001 7.62009 7.45001 8.19999C7.45001 8.77989 7.92011 9.24999 8.50001 9.24999Z" fill="#606580"/>
</svg>
