<svg width="16" height="16" viewBox="0 0 16 16" fill="none" xmlns="http://www.w3.org/2000/svg">
<path d="M6.62203 15.4L5.47775 14.9C5.26969 14.8 5.06164 14.7 4.95762 14.6C2.77307 13.4 2.04489 11.4 2.77307 8.9C3.08515 7.9 3.60528 7 4.12541 6.2V6.1C4.95761 4.7 5.6858 3.4 6.20593 2C6.30995 1.8 6.30995 1.6 6.41398 1.4L6.62203 0.5L7.14216 0.799999C7.24619 0.899999 7.24619 0.9 7.35021 1L7.76632 1.4C9.01463 2.6 10.367 3.8 11.4072 5.3C12.4475 6.7 13.0716 8.2 13.1757 9.6C13.3837 11.9 12.7596 13.5 11.0952 14.6C10.7831 14.8 10.471 14.9 10.1589 15.1C10.0549 15.2 9.84684 15.2 9.74281 15.3L9.32671 15.5L8.91061 14.5L9.11866 14.3C9.22268 14.2 9.32671 14.1 9.43074 14C9.63879 13.8 9.74281 13.6 9.95087 13.4C10.9911 11.7 10.9911 10 9.95087 8.2C9.74281 7.8 9.43074 7.4 9.01463 7C8.91061 8.3 8.59853 9.5 7.87034 10.8L7.24619 11.9L6.93411 10.7C6.83008 10.2 6.62203 9.7 6.41398 9.4C6.1019 10 5.89385 10.6 5.6858 11.2C5.26969 12.3 5.47774 13.2 6.20593 14C6.30995 14.1 6.41398 14.2 6.51801 14.5L6.62203 15.4Z" stroke="#606580" stroke-miterlimit="10" stroke-linecap="round" stroke-linejoin="round"/>
</svg>
