<svg width="17" height="17" viewBox="0 0 17 17" fill="none" xmlns="http://www.w3.org/2000/svg">
<path d="M9.85001 5.75V3.75H11.4C11.8 3.75 12.1 3.45 12.1 3.05V2.2C12.1 1.8 11.8 1.5 11.4 1.5H5.60001C5.20001 1.5 4.90001 1.8 4.90001 2.2V3.05C4.90001 3.45 5.20001 3.75 5.60001 3.75H7.15001V5.75C4.90001 6.4 3.30001 8.55 3.55001 11.05C3.80001 13.35 5.65001 15.2 7.90001 15.45C10.9 15.8 13.45 13.45 13.45 10.5C13.45 8.25 11.95 6.35 9.85001 5.75Z" stroke="#606580" stroke-miterlimit="10" stroke-linecap="round" stroke-linejoin="round"/>
<path d="M8.49998 13.7C6.74998 13.7 5.34998 12.3 5.34998 10.55H11.65" stroke="#606580" stroke-miterlimit="10" stroke-linecap="round" stroke-linejoin="round"/>
</svg>
