<svg width="17" height="17" viewBox="0 0 17 17" fill="none" xmlns="http://www.w3.org/2000/svg">
<path d="M11.85 4.14999V7.74999" stroke="#606580" stroke-miterlimit="10" stroke-linecap="round" stroke-linejoin="round"/>
<path d="M13.15 4.14999H10.55" stroke="#606580" stroke-miterlimit="10" stroke-linecap="round" stroke-linejoin="round"/>
<path d="M11.85 9.65C13.8935 9.65 15.55 7.99345 15.55 5.95C15.55 3.90655 13.8935 2.25 11.85 2.25C9.80657 2.25 8.15002 3.90655 8.15002 5.95C8.15002 7.99345 9.80657 9.65 11.85 9.65Z" stroke="#606580" stroke-miterlimit="10" stroke-linecap="round" stroke-linejoin="round"/>
<path d="M0.549988 13.6V6.05001C0.549988 4.70001 1.64999 3.60001 2.99999 3.60001C4.34999 3.60001 5.44999 4.70001 5.44999 6.05001V13.6" stroke="#606580" stroke-miterlimit="10" stroke-linecap="round" stroke-linejoin="round"/>
<path d="M0.549988 11.35C0.549988 12 1.59999 12.5 2.94999 12.5C4.29999 12.5 5.39999 12 5.39999 11.4H12.05" stroke="#606580" stroke-miterlimit="10" stroke-linecap="round" stroke-linejoin="round"/>
<path d="M0.549988 8.95001C0.549988 9.55001 1.64999 10.05 2.99999 10.05C4.34999 10.05 5.44999 9.55001 5.44999 8.95001H9.49999" stroke="#606580" stroke-miterlimit="10" stroke-linecap="round" stroke-linejoin="round"/>
<path d="M0.549988 6.5C0.549988 7.1 1.64999 7.6 2.99999 7.6C4.34999 7.6 5.44999 7.1 5.44999 6.5H8.09999" stroke="#606580" stroke-miterlimit="10" stroke-linecap="round" stroke-linejoin="round"/>
<path d="M2.95001 3.59999C2.95001 3.04999 3.40001 2.64999 3.90001 2.64999H9.85001" stroke="#606580" stroke-miterlimit="10" stroke-linecap="round" stroke-linejoin="round"/>
<path d="M0.5 13.6C0.5 14.2 1.6 14.7 2.95 14.7C4.3 14.7 5.4 14.2 5.4 13.6H12.05" stroke="#606580" stroke-miterlimit="10" stroke-linecap="round" stroke-linejoin="round"/>
</svg>
