<svg width="16" height="17" viewBox="0 0 16 17" fill="none" xmlns="http://www.w3.org/2000/svg">
<path d="M1.04999 14.45V5.30001C1.04999 3.65001 2.34999 2.35001 3.99999 2.35001C5.64999 2.35001 6.94999 3.65001 6.94999 5.30001V14.45" stroke="#606580" stroke-miterlimit="10" stroke-linecap="round" stroke-linejoin="round"/>
<path d="M1.04999 11.75C1.04999 12.5 2.34999 13.1 3.99999 13.1C5.64999 13.1 6.94999 12.5 6.94999 11.75H15" stroke="#606580" stroke-miterlimit="10" stroke-linecap="round" stroke-linejoin="round"/>
<path d="M1.04999 8.80002C1.04999 9.55002 2.34999 10.15 3.99999 10.15C5.64999 10.15 6.94999 9.55002 6.94999 8.80002H15" stroke="#606580" stroke-miterlimit="10" stroke-linecap="round" stroke-linejoin="round"/>
<path d="M1.04999 5.90002C1.04999 6.65002 2.34999 7.25002 3.99999 7.25002C5.64999 7.25002 6.94999 6.65002 6.94999 5.90002H15" stroke="#606580" stroke-miterlimit="10" stroke-linecap="round" stroke-linejoin="round"/>
<path d="M4 2.35001C4 1.70001 4.5 1.20001 5.15 1.20001H15" stroke="#606580" stroke-miterlimit="10" stroke-linecap="round" stroke-linejoin="round"/>
<path d="M1 14.45C1 15.2 2.3 15.8 3.95 15.8C5.6 15.8 6.9 15.2 6.9 14.45H15" stroke="#606580" stroke-miterlimit="10" stroke-linecap="round" stroke-linejoin="round"/>
</svg>
