<svg width="17" height="17" viewBox="0 0 17 17" fill="none" xmlns="http://www.w3.org/2000/svg">
<path d="M8.19999 14C4.69999 14 1.79999 11.15 1.79999 7.6C1.79999 4.05 4.69999 1.25 8.19999 1.25C11.7 1.25 14.6 4.1 14.6 7.65" stroke="#606580" stroke-miterlimit="10" stroke-linecap="round" stroke-linejoin="round"/>
<path d="M12.5165 15.5L11.9948 15.2391C11.9078 15.1956 11.8209 15.1522 11.7339 15.1087C10.7774 14.5435 10.4296 13.5869 10.7339 12.4565C10.8643 11.9782 11.0817 11.5869 11.3426 11.1956L11.3861 11.1522C11.7774 10.5 12.0817 9.89129 12.2991 9.23912C12.3426 9.15216 12.3426 9.0652 12.3861 8.93477L12.5165 8.49998L12.7774 8.6739C12.8209 8.71738 12.8643 8.71738 12.8643 8.76085L13.0383 8.93477C13.6035 9.49998 14.1687 10.0652 14.647 10.7609C15.1252 11.4565 15.3861 12.1087 15.473 12.7609C15.6035 13.8043 15.2557 14.5869 14.5165 15.1087C14.3861 15.1956 14.2557 15.2826 14.0817 15.3261C14.0383 15.3696 13.9513 15.3695 13.9078 15.413L13.6904 15.5L13.5165 15.1522L13.6035 15.0652C13.647 15.0217 13.6904 14.9782 13.7339 14.9348C13.8209 14.8478 13.9078 14.7609 13.9513 14.6304C14.4296 13.8478 14.4296 13.0652 13.9513 12.1956C13.8209 12.0217 13.6904 11.8043 13.5165 11.6304C13.473 12.2391 13.2991 12.8043 12.9948 13.413L12.7339 13.9348L12.6035 13.3696C12.56 13.1087 12.473 12.9348 12.3861 12.7609C12.2557 13.0652 12.1687 13.3261 12.0383 13.6304C11.8643 14.1087 11.9078 14.5435 12.2991 14.9348C12.3426 14.9782 12.3861 15.0652 12.4296 15.1522L12.5165 15.5Z" stroke="#606580" stroke-miterlimit="10" stroke-linecap="round" stroke-linejoin="round"/>
<path d="M2.44995 4.9C4.24995 3.7 6.79995 4 7.29995 6.1C7.89995 8.55 4.84995 6.7 4.84995 9.15C4.84995 11.05 6.59995 10.3 4.24995 12.65" stroke="#606580" stroke-miterlimit="10" stroke-linecap="round" stroke-linejoin="round"/>
<path d="M10.95 1.85001C9.75 3.05001 9.75 6.10001 13.4 4.90001" stroke="#606580" stroke-miterlimit="10" stroke-linecap="round" stroke-linejoin="round"/>
</svg>
