<svg width="16" height="16" viewBox="0 0 16 16" fill="none" xmlns="http://www.w3.org/2000/svg">
<path d="M11.95 15H4.05C2.35 15 1 13.65 1 11.95V4.05C1 2.35 2.35 1 4.05 1H11.95C13.65 1 15 2.35 15 4.05V11.95C15 13.65 13.65 15 11.95 15Z" stroke="#606580" stroke-miterlimit="10" stroke-linecap="round" stroke-linejoin="round"/>
<path d="M4.79993 10.6002V8.45017H6.59993L7.54993 7.55017H8.74993V10.6002" stroke="#606580" stroke-miterlimit="10" stroke-linecap="round" stroke-linejoin="round"/>
<path d="M11.8 10.6001H4.14996V11.8501H11.8V10.6001Z" stroke="#606580" stroke-miterlimit="10" stroke-linecap="round" stroke-linejoin="round"/>
<path d="M6.29996 4.15015H5.39996V8.45015H6.29996V4.15015Z" stroke="#606580" stroke-miterlimit="10" stroke-linecap="round" stroke-linejoin="round"/>
<path d="M8.14996 7.5501V5.1001H10.6V6.0001" stroke="#606580" stroke-miterlimit="10" stroke-linecap="round" stroke-linejoin="round"/>
<path d="M10.6 9.40017C10.1 9.40017 9.69995 9.00017 9.69995 8.50017V6.95017C9.69995 6.45017 10.1 6.05017 10.6 6.05017C11.1 6.05017 11.5 6.45017 11.5 6.95017V8.50017C11.55 8.95017 11.1 9.40017 10.6 9.40017Z" stroke="#606580" stroke-miterlimit="10" stroke-linecap="round" stroke-linejoin="round"/>
<path d="M10 10.6001V9.40015" stroke="#606580" stroke-miterlimit="10" stroke-linecap="round" stroke-linejoin="round"/>
<path d="M11.2 9.40015V10.6001" stroke="#606580" stroke-miterlimit="10" stroke-linecap="round" stroke-linejoin="round"/>
</svg>
