<svg width="17" height="17" viewBox="0 0 17 17" fill="none" xmlns="http://www.w3.org/2000/svg">
<path d="M12.5179 15.4533L12.0046 15.22C11.9113 15.1733 11.8179 15.1267 11.7713 15.08C10.7913 14.52 10.4646 13.5867 10.7913 12.42C10.9313 11.9533 11.1646 11.5333 11.3979 11.16V11.1133C11.7713 10.46 12.0979 9.85333 12.3313 9.2C12.3779 9.10667 12.3779 9.01333 12.4246 8.92L12.5179 8.5L12.7513 8.64C12.7979 8.68667 12.7979 8.68667 12.8446 8.73333L13.0313 8.92C13.5913 9.48 14.1979 10.04 14.6646 10.74C15.1313 11.3933 15.4113 12.0933 15.4579 12.7467C15.5513 13.82 15.2713 14.5667 14.5246 15.08C14.3846 15.1733 14.2446 15.22 14.1046 15.3133C14.0579 15.36 13.9646 15.36 13.9179 15.4067L13.7313 15.5L13.5446 15.0333L13.6379 14.94C13.6846 14.8933 13.7313 14.8467 13.7779 14.8C13.8713 14.7067 13.9179 14.6133 14.0113 14.52C14.4779 13.7267 14.4779 12.9333 14.0113 12.0933C13.9179 11.9067 13.7779 11.72 13.5913 11.5333C13.5446 12.14 13.4046 12.7 13.0779 13.3067L12.7979 13.82L12.6579 13.26C12.6113 13.0267 12.5179 12.7933 12.4246 12.6533C12.2846 12.9333 12.1913 13.2133 12.0979 13.4933C11.9113 14.0067 12.0046 14.4267 12.3313 14.8C12.3779 14.8467 12.4246 14.8933 12.4713 15.0333L12.5179 15.4533Z" stroke="#606580" stroke-miterlimit="10" stroke-linecap="round" stroke-linejoin="round"/>
<path d="M7.15001 14.5H4.25001C3.10001 14.5 2.20001 13.55 2.20001 12.45V7.80001L4.05001 2.60001H7.45001L8.55001 4.50001L12 3.50001C12.75 3.30001 13.45 3.85001 13.45 4.60001V7.15001" stroke="#606580" stroke-miterlimit="10" stroke-linecap="round" stroke-linejoin="round"/>
<path d="M10.25 6.45L10 5.75L11.8 5.1C12 5 12.2 5.15 12.2 5.4V6.35" stroke="#606580" stroke-miterlimit="10" stroke-linecap="round" stroke-linejoin="round"/>
<path d="M4.05005 1.05H7.50005" stroke="#606580" stroke-miterlimit="10" stroke-linecap="round" stroke-linejoin="round"/>
<path d="M2.65002 12.5H7.15002" stroke="#606580" stroke-miterlimit="10" stroke-linecap="round" stroke-linejoin="round"/>
<path d="M2.65002 7.8H7.15002" stroke="#606580" stroke-miterlimit="10" stroke-linecap="round" stroke-linejoin="round"/>
</svg>
