<svg width="16" height="17" viewBox="0 0 16 17" fill="none" xmlns="http://www.w3.org/2000/svg">
<path d="M2.95001 10.7L5.55001 11.6C7.20001 12.15 8.85001 12.15 10.45 11.6L13.05 10.7" stroke="#606580" stroke-miterlimit="10" stroke-linecap="round" stroke-linejoin="round"/>
<path d="M11.1 4.95L9.84998 8.85" stroke="#606580" stroke-miterlimit="10" stroke-linecap="round" stroke-linejoin="round"/>
<path d="M6.15002 8.85L4.90002 4.95" stroke="#606580" stroke-miterlimit="10" stroke-linecap="round" stroke-linejoin="round"/>
<path d="M14.55 10C14.25 7.45 12.5 5.35 10.2 4.55C9.84998 3.65 8.99998 3 7.99998 3C6.99998 3 6.14998 3.65 5.79998 4.55C3.44998 5.35 1.74998 7.45 1.44998 10H0.599976V12.35L4.39998 13.75C6.79998 14.15 9.19998 14.15 11.6 13.75L15.4 12.35V10H14.55Z" stroke="#606580" stroke-miterlimit="10" stroke-linecap="round" stroke-linejoin="round"/>
</svg>
