<svg width="17" height="16" viewBox="0 0 17 16" fill="none" xmlns="http://www.w3.org/2000/svg">
<path d="M5.79998 2.20001C5.79998 2.20001 4.29998 3.95001 5.64998 6.00001C6.09998 6.65001 6.64998 7.85001 5.34998 9.60001" stroke="#606580" stroke-miterlimit="10" stroke-linecap="round" stroke-linejoin="round"/>
<path d="M11.55 2.20001C11.55 2.20001 10.05 3.95001 11.4 6.00001C11.85 6.65001 12.4 7.85001 11.1 9.60001" stroke="#606580" stroke-miterlimit="10" stroke-linecap="round" stroke-linejoin="round"/>
<path d="M14.45 2.20001C14.45 2.20001 12.95 3.95001 14.3 6.00001C14.75 6.65001 15.3 7.85001 14 9.60001" stroke="#606580" stroke-miterlimit="10" stroke-linecap="round" stroke-linejoin="round"/>
<path d="M2.89996 2.20001C2.89996 2.20001 1.39996 3.95001 2.74996 6.00001C3.19996 6.65001 3.74996 7.85001 2.44996 9.60001" stroke="#606580" stroke-miterlimit="10" stroke-linecap="round" stroke-linejoin="round"/>
<path d="M8.64996 2.20001C8.64996 2.20001 7.14996 3.95001 8.49996 6.00001C8.94996 6.65001 9.49996 7.85001 8.19996 9.60001" stroke="#606580" stroke-miterlimit="10" stroke-linecap="round" stroke-linejoin="round"/>
<path d="M1.25 13.8V11.95H15.75V13.8" stroke="#606580" stroke-miterlimit="10" stroke-linecap="round" stroke-linejoin="round"/>
</svg>
