<svg width="16" height="16" viewBox="0 0 16 16" fill="none" xmlns="http://www.w3.org/2000/svg">
<path d="M14.5 11.8C14.35 9.59998 12.25 7.84998 12.25 7.84998C12.25 7.84998 10.15 9.59998 10 11.8C10 11.9 10 11.95 10 12.05C10 13.3 11 14.35 12.3 14.35C13.6 14.35 14.6 13.35 14.6 12.05C14.55 12 14.5 11.9 14.5 11.8Z" stroke="#606580" stroke-miterlimit="10" stroke-linecap="round" stroke-linejoin="round"/>
<path d="M8.95001 7.40002H1.45001V6.10002C1.45001 5.40002 2.00001 4.90002 2.65001 4.90002H7.70001C8.40001 4.90002 8.90001 5.45002 8.90001 6.10002V7.40002H8.95001Z" stroke="#606580" stroke-miterlimit="10" stroke-linecap="round" stroke-linejoin="round"/>
<path d="M6.45001 0.5H3.95001V4.9H6.45001V0.5Z" stroke="#606580" stroke-miterlimit="10" stroke-linecap="round" stroke-linejoin="round"/>
<path d="M7.70001 12.4H3.00001C2.15001 12.4 1.45001 11.7 1.45001 10.85V9.90002H8.35001" stroke="#606580" stroke-miterlimit="10" stroke-linecap="round" stroke-linejoin="round"/>
<path d="M3.992 15.475H6.492V12.375H3.992L3.992 15.475Z" stroke="#606580" stroke-miterlimit="10" stroke-linecap="round" stroke-linejoin="round"/>
</svg>
