<svg width="16" height="16" viewBox="0 0 16 16" fill="none" xmlns="http://www.w3.org/2000/svg">
<path d="M9 1.45001H2.05C1.7 1.45001 1.35 1.65001 1.3 2.00001L0.5 4.70001V11.7C0.5 12 0.75 12.2 1 12.2H15C15.3 12.2 15.5 11.95 15.5 11.7V8.80001" stroke="#606580" stroke-miterlimit="10" stroke-linecap="round" stroke-linejoin="round"/>
<path d="M0.5 4.70007H8.5" stroke="#606580" stroke-miterlimit="10" stroke-linecap="round" stroke-linejoin="round"/>
<path d="M4.55001 12.2001V14.5501H1.45001V12.2001" stroke="#606580" stroke-miterlimit="10" stroke-linecap="round" stroke-linejoin="round"/>
<path d="M14.55 12.2001V14.5501H11.45V12.2001" stroke="#606580" stroke-miterlimit="10" stroke-linecap="round" stroke-linejoin="round"/>
<path d="M2.40002 8.00006H3.80002" stroke="#606580" stroke-miterlimit="10" stroke-linecap="round" stroke-linejoin="round"/>
<path d="M10.35 9.00006V10.3501" stroke="#606580" stroke-miterlimit="10" stroke-linecap="round" stroke-linejoin="round"/>
<path d="M5.65002 10.3501V6.6001H8.35002" stroke="#606580" stroke-miterlimit="10" stroke-linecap="round" stroke-linejoin="round"/>
<path d="M0.950012 10.3501H15.5" stroke="#606580" stroke-miterlimit="10" stroke-linecap="round" stroke-linejoin="round"/>
<path d="M15.3 4.9C15.1 2.7 13.05 1 13.05 1C13.05 1 10.95 2.7 10.8 4.9C10.8 5 10.8 5.05 10.8 5.15C10.8 6.4 11.8 7.4 13.05 7.4C14.3 7.4 15.3 6.4 15.3 5.15C15.3 5.05 15.3 4.95 15.3 4.9Z" stroke="#606580" stroke-miterlimit="10" stroke-linecap="round" stroke-linejoin="round"/>
</svg>
