<svg width="17" height="16" viewBox="0 0 17 16" fill="none" xmlns="http://www.w3.org/2000/svg">
<path d="M3.45 13.8C4.52696 13.8 5.4 12.927 5.4 11.85C5.4 10.773 4.52696 9.9 3.45 9.9C2.37304 9.9 1.5 10.773 1.5 11.85C1.5 12.927 2.37304 13.8 3.45 13.8Z" stroke="#606580" stroke-miterlimit="10" stroke-linecap="round" stroke-linejoin="round"/>
<path d="M13.55 13.8C14.6269 13.8 15.5 12.927 15.5 11.85C15.5 10.773 14.6269 9.9 13.55 9.9C12.473 9.9 11.6 10.773 11.6 11.85C11.6 12.927 12.473 13.8 13.55 13.8Z" stroke="#606580" stroke-miterlimit="10" stroke-linecap="round" stroke-linejoin="round"/>
<path d="M8.49999 6.1C9.57694 6.1 10.45 5.22695 10.45 4.15C10.45 3.07304 9.57694 2.2 8.49999 2.2C7.42303 2.2 6.54999 3.07304 6.54999 4.15C6.54999 5.22695 7.42303 6.1 8.49999 6.1Z" stroke="#606580" stroke-miterlimit="10" stroke-linecap="round" stroke-linejoin="round"/>
<path d="M4.65002 10.25L7.50002 5.85" stroke="#606580" stroke-miterlimit="10" stroke-linecap="round" stroke-linejoin="round"/>
<path d="M11.35 8.69999L10.45 7.39999" stroke="#606580" stroke-miterlimit="10" stroke-linecap="round" stroke-linejoin="round"/>
</svg>
