<svg width="16" height="16" viewBox="0 0 16 16" fill="none" xmlns="http://www.w3.org/2000/svg">
<path d="M5.95001 3.3L8.00001 1.25L10.05 3.3" stroke="#606580" stroke-miterlimit="10" stroke-linecap="round" stroke-linejoin="round"/>
<path d="M8.00002 1.6V8.1L3.15002 12.35" stroke="#606580" stroke-miterlimit="10" stroke-linecap="round" stroke-linejoin="round"/>
<path d="M9.25 9.4L12.85 12.35" stroke="#606580" stroke-miterlimit="10" stroke-linecap="round" stroke-linejoin="round"/>
<path d="M1.95 14.75C2.61274 14.75 3.15 14.2127 3.15 13.55C3.15 12.8873 2.61274 12.35 1.95 12.35C1.28726 12.35 0.75 12.8873 0.75 13.55C0.75 14.2127 1.28726 14.75 1.95 14.75Z" stroke="#606580" stroke-miterlimit="10" stroke-linecap="round" stroke-linejoin="round"/>
<path d="M14.05 14.75C14.7127 14.75 15.25 14.2127 15.25 13.55C15.25 12.8873 14.7127 12.35 14.05 12.35C13.3872 12.35 12.85 12.8873 12.85 13.55C12.85 14.2127 13.3872 14.75 14.05 14.75Z" stroke="#606580" stroke-miterlimit="10" stroke-linecap="round" stroke-linejoin="round"/>
</svg>
