<svg width="16" height="16" viewBox="0 0 16 16" fill="none" xmlns="http://www.w3.org/2000/svg">
<path d="M8.55005 6.19999L10.95 8.59999L8.55005 11" stroke="#606580" stroke-miterlimit="10" stroke-linecap="round" stroke-linejoin="round"/>
<path d="M10.5 8.5H7.15001L3.70001 5.35" stroke="#606580" stroke-miterlimit="10" stroke-linecap="round" stroke-linejoin="round"/>
<path d="M6.15001 9.74999L3.70001 12" stroke="#606580" stroke-miterlimit="10" stroke-linecap="round" stroke-linejoin="round"/>
<path d="M9.5 12.95C10.1 13.3 10.75 13.5 11.5 13.5C13.65 13.5 15.35 11.75 15.35 9.65C15.35 9.5 15.35 9.35 15.3 9.2C15.1 5.45 11.5 2.5 11.5 2.5C11.5 2.5 10.65 3.2 9.8 4.3" stroke="#606580" stroke-miterlimit="10" stroke-linecap="round" stroke-linejoin="round"/>
<path d="M3.40001 4.65C3.30001 3.45 2.15001 2.5 2.15001 2.5C2.15001 2.5 1.00001 3.45 0.950012 4.65C0.950012 4.7 0.950012 4.75 0.950012 4.8C0.950012 5.5 1.50001 6.05 2.20001 6.05C2.90001 6.05 3.45001 5.5 3.45001 4.8C3.40001 4.75 3.40001 4.7 3.40001 4.65Z" stroke="#606580" stroke-miterlimit="10" stroke-linecap="round" stroke-linejoin="round"/>
<path d="M3.40001 12.65C3.30001 11.45 2.15001 10.5 2.15001 10.5C2.15001 10.5 1.00001 11.45 0.950012 12.65C0.950012 12.7 0.950012 12.75 0.950012 12.8C0.950012 13.5 1.50001 14.05 2.20001 14.05C2.90001 14.05 3.45001 13.5 3.45001 12.8C3.40001 12.75 3.40001 12.7 3.40001 12.65Z" stroke="#606580" stroke-miterlimit="10" stroke-linecap="round" stroke-linejoin="round"/>
</svg>
