<svg width="16" height="16" viewBox="0 0 16 16" fill="none" xmlns="http://www.w3.org/2000/svg">
<path d="M8 7.9C9.55 7.4 10.7 5.95 10.7 4.2C10.7 2.45 9.55 1 8 0.5" stroke="#606580" stroke-miterlimit="10" stroke-linecap="round" stroke-linejoin="round"/>
<path d="M7.99999 8.1C6.44999 8.6 5.29999 10.05 5.29999 11.8C5.29999 13.55 6.44999 15 7.99999 15.5" stroke="#606580" stroke-miterlimit="10" stroke-linecap="round" stroke-linejoin="round"/>
<path d="M7.9 7.95C8.25 6.35 7.55 4.6 6.05 3.75C4.55 2.9 2.7 3.15 1.5 4.25" stroke="#606580" stroke-miterlimit="10" stroke-linecap="round" stroke-linejoin="round"/>
<path d="M8.09998 8.05C7.74998 9.65 8.44998 11.4 9.94998 12.25C11.45 13.1 13.3 12.85 14.5 11.75" stroke="#606580" stroke-miterlimit="10" stroke-linecap="round" stroke-linejoin="round"/>
<path d="M7.90001 8.05C6.70001 6.95 4.85001 6.7 3.35001 7.55C1.85001 8.4 1.15001 10.15 1.50001 11.75" stroke="#606580" stroke-miterlimit="10" stroke-linecap="round" stroke-linejoin="round"/>
<path d="M8.09998 7.95C9.29998 9.05 11.15 9.3 12.65 8.45C14.15 7.6 14.85 5.85 14.5 4.25" stroke="#606580" stroke-miterlimit="10" stroke-linecap="round" stroke-linejoin="round"/>
</svg>
