<svg width="17" height="17" viewBox="0 0 17 17" fill="none" xmlns="http://www.w3.org/2000/svg">
<path d="M12.5 8.5L13.1 7.7C13.5 6 12.5 2.5 7.74998 2.2L6.24998 3.55H5.29998H3.09998V14.4C3.09998 15.2 3.39998 15.75 4.64998 15.75H13.55C14.1 15.75 14.6 15.35 14.75 14.8C15.25 12.7 14.6 10.55 13.1 9.05L12.5 8.5Z" stroke="#606580" stroke-miterlimit="10" stroke-linecap="round" stroke-linejoin="round"/>
<path d="M3.09998 1.7V1.5C3.09998 1.35 3.19998 1.2 3.39998 1.2H5.54998C5.69998 1.2 5.84998 1.3 5.84998 1.5V1.7" stroke="#606580" stroke-miterlimit="10" stroke-linecap="round" stroke-linejoin="round"/>
<path d="M9.00001 10.5C8.90001 8.89999 7.35001 7.59999 7.35001 7.59999C7.35001 7.59999 5.80001 8.84999 5.70001 10.5C5.70001 10.55 5.70001 10.6 5.70001 10.7C5.70001 11.6 6.45001 12.35 7.35001 12.35C8.25001 12.35 9.00001 11.6 9.00001 10.7C9.00001 10.65 9.00001 10.6 9.00001 10.5Z" stroke="#606580" stroke-miterlimit="10" stroke-linecap="round" stroke-linejoin="round"/>
<path d="M8.5 4C10 4.5 11 5 11.5 7" stroke="#606580" stroke-miterlimit="10" stroke-linecap="round" stroke-linejoin="round"/>
</svg>
