<svg width="16" height="17" viewBox="0 0 16 17" fill="none" xmlns="http://www.w3.org/2000/svg">
<path d="M10.25 15.4C10.75 15.8 11.35 16 12 16C13.6 16 14.9 14.7 14.9 13.1V6.2C14.9 4.6 13.6 3.3 12 3.3C10.4 3.3 9.09998 4.6 9.09998 6.2V10" stroke="#606580" stroke-miterlimit="10" stroke-linecap="round" stroke-linejoin="round"/>
<path d="M14.5 6.3H9.09998" stroke="#606580" stroke-miterlimit="10" stroke-linecap="round" stroke-linejoin="round"/>
<path d="M14.5 13.3H11" stroke="#606580" stroke-miterlimit="10" stroke-linecap="round" stroke-linejoin="round"/>
<path d="M12 1.5C12.7732 1.5 13.4 1.38807 13.4 1.25C13.4 1.11193 12.7732 1 12 1C11.2268 1 10.6 1.11193 10.6 1.25C10.6 1.38807 11.2268 1.5 12 1.5Z" stroke="#606580" stroke-miterlimit="10" stroke-linecap="round" stroke-linejoin="round"/>
<path d="M12 1.60001V3.20001" stroke="#606580" stroke-miterlimit="10" stroke-linecap="round" stroke-linejoin="round"/>
<path d="M4.7 13.45C4.4 13.7 4 13.85 3.55 13.85H2.9C1.85 13.85 1 13 1 12V8.35C1 7.3 1.85 6.5 2.9 6.5H3.55C4.6 6.5 5.45 7.35 5.45 8.4V10.3" stroke="#606580" stroke-miterlimit="10" stroke-linecap="round" stroke-linejoin="round"/>
<path d="M6.15002 12.3L6.60002 11.85C7.00002 11.45 7.65002 11.45 8.10002 11.85C8.50002 12.25 8.50002 12.9 8.10002 13.35L6.20002 15.25H8.50002" stroke="#606580" stroke-miterlimit="10" stroke-linecap="round" stroke-linejoin="round"/>
</svg>
