<svg width="17" height="16" viewBox="0 0 17 16" fill="none" xmlns="http://www.w3.org/2000/svg">
<path d="M11.3 8.14999C12.3 8.34999 12.9 8.59999 12.9 8.94999C12.9 9.49999 10.9 9.94999 8.49998 9.94999C6.09998 9.94999 4.09998 9.49999 4.09998 8.94999C4.09998 8.64999 4.64998 8.34999 5.59998 8.19999" stroke="#606580" stroke-miterlimit="10" stroke-linecap="round" stroke-linejoin="round"/>
<path d="M6.55005 14.1C5.95005 14.2 5.55005 14.4 5.55005 14.6C5.55005 14.95 6.85005 15.25 8.45005 15.25C10.05 15.25 11.35 14.95 11.35 14.6C11.35 14.4 10.95 14.2 10.3 14.1V11.25C10.95 11.35 11.35 11.55 11.35 11.75C11.35 12.1 10.05 12.4 8.45005 12.4C6.85005 12.4 5.55005 12.1 5.55005 11.75C5.55005 11.55 5.95005 11.35 6.55005 11.25V14.1V14.1Z" stroke="#606580" stroke-miterlimit="10" stroke-linecap="round" stroke-linejoin="round"/>
<path d="M8.06093 7.5L7.61654 7.29167C7.53575 7.25 7.45495 7.20833 7.41455 7.16667C6.60657 6.66667 6.32377 5.875 6.60657 4.875C6.72776 4.45833 6.92976 4.125 7.09136 3.79167V3.75C7.41455 3.20833 7.69734 2.66667 7.85894 2.125C7.89934 2.04167 7.89934 1.95833 7.93974 1.875L8.02054 1.5L8.22253 1.625C8.26293 1.625 8.26293 1.66667 8.30333 1.66667L8.46493 1.83333C8.94972 2.29167 9.43451 2.79167 9.7981 3.375C10.2021 3.95833 10.4041 4.5 10.4849 5.08333C10.5657 6 10.3233 6.625 9.6769 7.08333C9.5557 7.16667 9.43451 7.20833 9.31331 7.25C9.27291 7.29167 9.23251 7.29167 9.15171 7.33333L8.99011 7.41667L8.90932 7.16667L8.99011 7.08333C9.03051 7.04167 9.07091 7 9.11131 6.95833C9.19211 6.875 9.23251 6.79167 9.31331 6.70833C9.7173 6.04167 9.7173 5.375 9.31331 4.625C9.23251 4.45833 9.11131 4.29167 8.94972 4.125C8.90932 4.625 8.78812 5.125 8.50532 5.66667L8.26293 6.08333L8.18213 5.58333C8.14173 5.375 8.06093 5.20833 7.98014 5.08333C7.89934 5.33333 7.77814 5.58333 7.69734 5.83333C7.53575 6.25 7.61654 6.625 7.89934 6.95833C7.93974 7 7.98014 7.04167 8.02054 7.16667L8.06093 7.5Z" stroke="#606580" stroke-miterlimit="10" stroke-linecap="round" stroke-linejoin="round"/>
</svg>
