<svg width="17" height="16" viewBox="0 0 17 16" fill="none" xmlns="http://www.w3.org/2000/svg">
<path d="M13.75 7.25C14.8 7.45 15.5 7.75 15.5 8.1C15.5 8.7 13.35 9.2 10.65 9.2C7.94999 9.2 5.79999 8.7 5.79999 8.1C5.79999 7.75 6.44999 7.45 7.44999 7.25" stroke="#606580" stroke-miterlimit="10" stroke-linecap="round" stroke-linejoin="round"/>
<path d="M8.55 13.7C7.9 13.85 7.5 14.05 7.5 14.25C7.5 14.65 8.9 15 10.65 15C12.4 15 13.8 14.65 13.8 14.25C13.8 14 13.35 13.8 12.65 13.7V10.6C13.35 10.75 13.8 10.95 13.8 11.15C13.8 11.55 12.4 11.9 10.65 11.9C8.9 11.9 7.5 11.55 7.5 11.15C7.5 10.95 7.9 10.75 8.55 10.6V13.7Z" stroke="#606580" stroke-miterlimit="10" stroke-linecap="round" stroke-linejoin="round"/>
<path d="M10.85 2.35001C11.8 2.35001 12.55 3.10001 12.55 4.05001C12.55 5.00001 11.8 5.75001 10.85 5.75001C9.90003 5.75001 9.15002 5.00001 9.15002 4.05001" stroke="#606580" stroke-miterlimit="10" stroke-linecap="round" stroke-linejoin="round"/>
<path d="M7.80005 1.75C8.10005 1.3 8.60005 1 9.20005 1C9.95005 1 10.6 1.5 10.8 2.2" stroke="#606580" stroke-miterlimit="10" stroke-linecap="round" stroke-linejoin="round"/>
<path d="M9.20002 4.34999C8.50002 4.34999 7.95002 3.94999 7.65002 3.39999" stroke="#606580" stroke-miterlimit="10" stroke-linecap="round" stroke-linejoin="round"/>
<path d="M4.34998 1.75C4.74998 1.3 5.34998 1 5.99998 1C6.64998 1 7.29998 1.3 7.69998 1.8" stroke="#606580" stroke-miterlimit="10" stroke-linecap="round" stroke-linejoin="round"/>
<path d="M7.99998 3.99999C7.64998 4.79999 6.89998 5.34999 5.99998 5.34999C4.94998 5.34999 4.09998 4.59999 3.84998 3.64999" stroke="#606580" stroke-miterlimit="10" stroke-linecap="round" stroke-linejoin="round"/>
<path d="M3.8 4.05001C3.1 4.50001 2.15 4.25001 1.7 3.55001C1.25 2.85001 1.5 1.90001 2.25 1.45001C2.75 1.15001 3.35 1.15001 3.85 1.45001L4.25 1.70001" stroke="#606580" stroke-miterlimit="10" stroke-linecap="round" stroke-linejoin="round"/>
</svg>
