<svg width="16" height="17" viewBox="0 0 16 17" fill="none" xmlns="http://www.w3.org/2000/svg">
<path d="M11.35 3.89999H4.59998V5.79999H11.35V3.89999Z" stroke="#606580" stroke-miterlimit="10" stroke-linecap="round" stroke-linejoin="round"/>
<path d="M3.14998 7.19998H1.09998V13.1H3.14998V7.19998Z" stroke="#606580" stroke-miterlimit="10" stroke-linecap="round" stroke-linejoin="round"/>
<path d="M14.9 7.19998H12.85V13.1H14.9V7.19998Z" stroke="#606580" stroke-miterlimit="10" stroke-linecap="round" stroke-linejoin="round"/>
<path d="M12.85 8.40001H9.95002C9.65002 8.10001 9.30002 7.85001 8.90002 7.70001V5.85001H7.00002V7.70001C6.60002 7.85001 6.30002 8.10001 6.00002 8.40001H3.15002" stroke="#606580" stroke-miterlimit="10" stroke-linecap="round" stroke-linejoin="round"/>
<path d="M3.15002 11.9H6.05002C6.55002 12.45 7.25002 12.75 8.00002 12.75C8.75002 12.75 9.45002 12.4 9.95002 11.9H12.85" stroke="#606580" stroke-miterlimit="10" stroke-linecap="round" stroke-linejoin="round"/>
<path d="M7.94998 11C8.41942 11 8.79998 10.6194 8.79998 10.15C8.79998 9.68055 8.41942 9.29999 7.94998 9.29999C7.48053 9.29999 7.09998 9.68055 7.09998 10.15C7.09998 10.6194 7.48053 11 7.94998 11Z" stroke="#606580" stroke-miterlimit="10" stroke-linecap="round" stroke-linejoin="round"/>
</svg>
