<svg width="16" height="17" viewBox="0 0 16 17" fill="none" xmlns="http://www.w3.org/2000/svg">
<path d="M3.05 7.39999H1V13.4H3.05V7.39999Z" stroke="#606580" stroke-miterlimit="10" stroke-linecap="round" stroke-linejoin="round"/>
<path d="M15 7.39999H12.95V13.4H15V7.39999Z" stroke="#606580" stroke-miterlimit="10" stroke-linecap="round" stroke-linejoin="round"/>
<path d="M12.95 8.6H9.99999C9.69999 8.3 9.34999 8.05 8.94999 7.9V6.25H6.99999V7.9C6.59999 8.05 6.29999 8.3 5.99999 8.6H3.04999" stroke="#606580" stroke-miterlimit="10" stroke-linecap="round" stroke-linejoin="round"/>
<path d="M13.8 5.25H13.55C13.5 5.25 13.45 5.2 13.45 5.15V3.85C13.45 3.8 13.5 3.75 13.55 3.75H13.8C13.85 3.75 13.9 3.8 13.9 3.85V5.15C13.9 5.2 13.85 5.25 13.8 5.25Z" fill="#606580" stroke="#606580" stroke-miterlimit="10" stroke-linecap="round" stroke-linejoin="round"/>
<path d="M6.70001 6.25001V3.75001C6.70001 3.65001 6.75001 3.60001 6.85001 3.60001H9.10001C9.20001 3.60001 9.25001 3.65001 9.25001 3.75001V6.20001H6.70001V6.25001Z" stroke="#606580" stroke-miterlimit="10" stroke-linecap="round" stroke-linejoin="round"/>
<path d="M3.45001 12.2H6.00001C6.50001 12.75 7.20001 13.1 8.00001 13.1C8.80001 13.1 9.50001 12.75 10 12.2H12.75" stroke="#606580" stroke-miterlimit="10" stroke-linecap="round" stroke-linejoin="round"/>
<path d="M7.94998 9.35001C7.49998 9.35001 7.09998 9.75001 7.09998 10.2H8.79998C8.84998 9.70001 8.44998 9.35001 7.94998 9.35001Z" fill="#606580" stroke="#606580" stroke-miterlimit="10" stroke-linecap="round" stroke-linejoin="round"/>
<path d="M13.7 4.60001H9.40002" stroke="#606580" stroke-miterlimit="10" stroke-linecap="round" stroke-linejoin="round"/>
</svg>
