<svg width="16" height="17" viewBox="0 0 16 17" fill="none" xmlns="http://www.w3.org/2000/svg">
<path d="M14.6 5.29999C13.85 6.04999 12.6 6.04999 11.85 5.29999C11.1 4.54999 11.1 3.29999 11.85 2.54999C12.6 1.79999 13.85 1.79999 14.6 2.54999" stroke="#606580" stroke-miterlimit="10" stroke-linecap="round" stroke-linejoin="round"/>
<path d="M14.55 1.29999L14.7 2.64999L13.6 3.24999" stroke="#606580" stroke-miterlimit="10" stroke-linecap="round" stroke-linejoin="round"/>
<path d="M7.55 13.25C9.64868 13.25 11.35 11.5487 11.35 9.44999C11.35 7.35131 9.64868 5.64999 7.55 5.64999C5.45132 5.64999 3.75 7.35131 3.75 9.44999C3.75 11.5487 5.45132 13.25 7.55 13.25Z" stroke="#606580" stroke-miterlimit="10" stroke-linecap="round" stroke-linejoin="round"/>
<path d="M5.04999 7L10.15 12.1" stroke="#606580" stroke-miterlimit="10" stroke-linecap="round" stroke-linejoin="round"/>
<path d="M13.8 8.09998V12.65C13.8 14.35 12.45 15.7 10.75 15.7H4.3C2.6 15.7 1.25 14.35 1.25 12.65V6.24998C1.25 4.54998 2.6 3.19998 4.3 3.19998H8.85" stroke="#606580" stroke-miterlimit="10" stroke-linecap="round" stroke-linejoin="round"/>
</svg>
