<svg width="16" height="17" viewBox="0 0 16 17" fill="none" xmlns="http://www.w3.org/2000/svg">
<path d="M14.25 8.00001V12.55C14.25 14.25 12.9 15.6 11.2 15.6H4.8C3.1 15.6 1.75 14.25 1.75 12.55V6.15001C1.75 4.45001 3.1 3.10001 4.8 3.10001H10.35" stroke="#606580" stroke-miterlimit="10" stroke-linecap="round" stroke-linejoin="round"/>
<path d="M8.00001 13.15C10.0987 13.15 11.8 11.4487 11.8 9.34999C11.8 7.25131 10.0987 5.54999 8.00001 5.54999C5.90133 5.54999 4.20001 7.25131 4.20001 9.34999C4.20001 11.4487 5.90133 13.15 8.00001 13.15Z" stroke="#606580" stroke-miterlimit="10" stroke-linecap="round" stroke-linejoin="round"/>
<path d="M8 7.89999V9.64999L8.9 10.1" stroke="#606580" stroke-miterlimit="10" stroke-linecap="round" stroke-linejoin="round"/>
<path d="M13.15 1.39999V3.94999" stroke="#606580" stroke-miterlimit="10" stroke-linecap="round" stroke-linejoin="round"/>
<path d="M13.15 5.54999V5.74999" stroke="#606580" stroke-miterlimit="10" stroke-linecap="round" stroke-linejoin="round"/>
</svg>
