<svg width="16" height="17" viewBox="0 0 16 17" fill="none" xmlns="http://www.w3.org/2000/svg">
<path d="M8.15003 4.64999C8.15003 4.64999 9.25003 5.99999 7.70003 7.99999C5.60003 10.75 8.15003 12.35 8.15003 12.35C8.15003 12.35 6.65003 10.8 8.35003 8.49999C9.85003 6.44999 8.85003 5.19999 8.15003 4.64999Z" fill="#606580" stroke="#606580" stroke-miterlimit="10" stroke-linecap="round" stroke-linejoin="round"/>
<path d="M5.29999 6.19998C5.29999 6.19998 5.94999 6.99998 5.04999 8.19998C3.79999 9.79998 5.34999 10.8 5.34999 10.8C5.34999 10.8 4.44999 9.84998 5.44999 8.49998C6.34999 7.29998 5.74999 6.54998 5.29999 6.19998Z" fill="#606580" stroke="#606580" stroke-miterlimit="10" stroke-linecap="round" stroke-linejoin="round"/>
<path d="M10.85 6.19998C10.85 6.19998 11.5 6.99998 10.6 8.19998C9.34998 9.79998 10.9 10.8 10.9 10.8C10.9 10.8 9.99998 9.84998 11 8.49998C11.85 7.29998 11.25 6.54998 10.85 6.19998Z" fill="#606580" stroke="#606580" stroke-miterlimit="10" stroke-linecap="round" stroke-linejoin="round"/>
<path d="M12.05 1.55C11.85 1.5 11.65 1.5 11.45 1.5H4.55C2.6 1.5 1 3.1 1 5.05V11.95C1 12.15 1 12.35 1.05 12.55" stroke="#606580" stroke-miterlimit="10" stroke-linecap="round" stroke-linejoin="round"/>
<path d="M3.95001 15.45C4.15001 15.5 4.35001 15.5 4.55001 15.5H11.45C13.4 15.5 15 13.9 15 11.95V5.05001C15 4.85001 15 4.65001 14.95 4.45001" stroke="#606580" stroke-miterlimit="10" stroke-linecap="round" stroke-linejoin="round"/>
</svg>
