<svg width="16" height="16" viewBox="0 0 16 16" fill="none" xmlns="http://www.w3.org/2000/svg">
<path d="M11.95 15H4.05C2.35 15 1 13.65 1 11.95V4.05C1 2.35 2.35 1 4.05 1H11.95C13.65 1 15 2.35 15 4.05V11.95C15 13.65 13.65 15 11.95 15Z" stroke="#606580" stroke-miterlimit="10" stroke-linecap="round" stroke-linejoin="round"/>
<path d="M7.95 10.0501C8.88888 10.0501 9.65 9.28903 9.65 8.35015C9.65 7.41126 8.88888 6.65015 7.95 6.65015C7.01112 6.65015 6.25 7.41126 6.25 8.35015C6.25 9.28903 7.01112 10.0501 7.95 10.0501Z" stroke="#606580" stroke-miterlimit="10" stroke-linecap="round" stroke-linejoin="round"/>
<path d="M6.29998 5.70009C5.89998 4.85009 5.34998 4.80009 6.54998 4.30009C9.39998 3.20009 11.4 5.25009 9.24998 7.15009" stroke="#606580" stroke-miterlimit="10" stroke-linecap="round" stroke-linejoin="round"/>
<path d="M6.59997 10.9501C5.89997 11.8001 6.24997 12.4501 5.14997 11.6001C2.79997 9.70015 3.49997 6.85015 6.24997 7.80015" stroke="#606580" stroke-miterlimit="10" stroke-linecap="round" stroke-linejoin="round"/>
<path d="M11.25 8.20008C12.05 8.20008 12.35 7.90008 12.15 9.10008C11.7 12.1001 8.8 12.9001 8.25 10.1001" stroke="#606580" stroke-miterlimit="10" stroke-linecap="round" stroke-linejoin="round"/>
</svg>
