<svg width="16" height="16" viewBox="0 0 16 16" fill="none" xmlns="http://www.w3.org/2000/svg">
<path d="M8.00001 11.05C5.20001 11.05 2.95001 8.80001 2.95001 6.00001C2.95001 3.20001 5.20001 0.950012 8.00001 0.950012C10.8 0.950012 13.05 3.20001 13.05 6.00001C13.05 8.80001 10.8 11.05 8.00001 11.05Z" stroke="#606580" stroke-miterlimit="10" stroke-linecap="round" stroke-linejoin="round"/>
<path d="M7.99998 6.9001C7.49998 6.9001 7.09998 6.5001 7.09998 6.0001C7.09998 5.5001 7.49998 5.1001 7.99998 5.1001C8.49998 5.1001 8.89998 5.5001 8.89998 6.0001C8.89998 6.5001 8.49998 6.9001 7.99998 6.9001Z" stroke="#606580" stroke-miterlimit="10" stroke-linecap="round" stroke-linejoin="round"/>
<path d="M8 9.80011V11.0501" stroke="#606580" stroke-miterlimit="10" stroke-linecap="round" stroke-linejoin="round"/>
<path d="M8 1.15009V2.35009" stroke="#606580" stroke-miterlimit="10" stroke-linecap="round" stroke-linejoin="round"/>
<path d="M4.30005 6.1001H3.05005" stroke="#606580" stroke-miterlimit="10" stroke-linecap="round" stroke-linejoin="round"/>
<path d="M12.95 6.10004H11.75" stroke="#606580" stroke-miterlimit="10" stroke-linecap="round" stroke-linejoin="round"/>
<path d="M8.90002 5.10005L10.2 3.80005" stroke="#606580" stroke-miterlimit="10" stroke-linecap="round" stroke-linejoin="round"/>
<path d="M10 12.5V15H6V12.5" stroke="#606580" stroke-miterlimit="10" stroke-linecap="round" stroke-linejoin="round"/>
<path d="M3.54999 15H12.45" stroke="#606580" stroke-miterlimit="10" stroke-linecap="round" stroke-linejoin="round"/>
</svg>
