<svg width="16" height="16" viewBox="0 0 16 16" fill="none" xmlns="http://www.w3.org/2000/svg">
<path d="M14.75 12.3999C14.6 10.2499 12.5 8.49988 12.5 8.49988C12.5 8.49988 10.4 10.1999 10.25 12.3999C10.25 12.4999 10.25 12.5499 10.25 12.6499C10.25 13.8999 11.25 14.8999 12.5 14.8999C13.75 14.8999 14.75 13.8999 14.75 12.6499C14.8 12.5499 14.8 12.4999 14.75 12.3999Z" stroke="#606580" stroke-miterlimit="10" stroke-linecap="round" stroke-linejoin="round"/>
<path d="M2.95001 13.2998C3.91651 13.2998 4.70001 12.5163 4.70001 11.5498C4.70001 10.5833 3.91651 9.7998 2.95001 9.7998C1.98351 9.7998 1.20001 10.5833 1.20001 11.5498C1.20001 12.5163 1.98351 13.2998 2.95001 13.2998Z" stroke="#606580" stroke-miterlimit="10" stroke-linecap="round" stroke-linejoin="round"/>
<path d="M10.25 7.29985C11.9621 7.29985 13.35 5.91194 13.35 4.19985C13.35 2.48777 11.9621 1.09985 10.25 1.09985C8.53794 1.09985 7.15002 2.48777 7.15002 4.19985C7.15002 5.91194 8.53794 7.29985 10.25 7.29985Z" stroke="#606580" stroke-miterlimit="10" stroke-linecap="round" stroke-linejoin="round"/>
<path d="M1.70001 10.2999L8.10001 1.99988" stroke="#606580" stroke-miterlimit="10" stroke-linecap="round" stroke-linejoin="round"/>
<path d="M4.15002 12.7499L12.45 6.3999" stroke="#606580" stroke-miterlimit="10" stroke-linecap="round" stroke-linejoin="round"/>
<path d="M10.25 4.9999C10.6918 4.9999 11.05 4.64173 11.05 4.1999C11.05 3.75807 10.6918 3.3999 10.25 3.3999C9.80818 3.3999 9.45001 3.75807 9.45001 4.1999C9.45001 4.64173 9.80818 4.9999 10.25 4.9999Z" stroke="#606580" stroke-miterlimit="10" stroke-linecap="round" stroke-linejoin="round"/>
</svg>
