<svg width="17" height="17" viewBox="0 0 17 17" fill="none" xmlns="http://www.w3.org/2000/svg">
<path d="M14.7 8.09999C14.55 5.89999 13.25 3.84999 11.1 2.84999C9.49999 2.09999 7.79999 2.09999 6.29999 2.64999" stroke="#606580" stroke-miterlimit="10" stroke-linecap="round" stroke-linejoin="round"/>
<path d="M15.75 8L14.65 9.1L13.6 8" stroke="#606580" stroke-miterlimit="10" stroke-linecap="round" stroke-linejoin="round"/>
<path d="M2.29999 8.89999C2.44999 11.1 3.74999 13.15 5.89999 14.15C7.44999 14.85 9.14999 14.9 10.6 14.35" stroke="#606580" stroke-miterlimit="10" stroke-linecap="round" stroke-linejoin="round"/>
<path d="M1.25 8.99999L2.35 7.89999L3.4 8.99999" stroke="#606580" stroke-miterlimit="10" stroke-linecap="round" stroke-linejoin="round"/>
<path d="M6.94997 6.94999C5.59997 8.24999 6.14997 9.59999 7.04997 10.25C7.94997 10.9 9.44997 10.95 10.25 9.44999C10.85 8.29999 10.7 5.34999 10.7 5.34999C10.7 5.34999 7.94997 5.99999 6.94997 6.94999Z" stroke="#606580" stroke-miterlimit="10" stroke-linecap="round" stroke-linejoin="round"/>
<path d="M8.25001 8.59999C7.60001 9.44999 6.90001 10.55 6.70001 11.6" stroke="#606580" stroke-miterlimit="10" stroke-linecap="round" stroke-linejoin="round"/>
</svg>
