<svg width="16" height="17" viewBox="0 0 16 17" fill="none" xmlns="http://www.w3.org/2000/svg">
<path d="M8.54998 15.2C12.25 15.2 15.25 12.2 15.25 8.49999C15.25 4.79999 12.25 1.79999 8.54998 1.79999C4.84998 1.79999 1.84998 4.79999 1.84998 8.49999" stroke="#606580" stroke-miterlimit="10" stroke-linecap="round" stroke-linejoin="round"/>
<path d="M0.75 7.89999L1.85 9.04999L3 7.99999" stroke="#606580" stroke-miterlimit="10" stroke-linecap="round" stroke-linejoin="round"/>
<path d="M11 9.25C10.8 6.9 8.54998 5 8.54998 5C8.54998 5 6.29998 6.85 6.09998 9.25C6.09998 9.35 6.09998 9.45 6.09998 9.5C6.09998 10.85 7.19998 11.95 8.54998 11.95C9.89998 11.95 11 10.85 11 9.5C11 9.45 11 9.35 11 9.25Z" stroke="#606580" stroke-miterlimit="10" stroke-linecap="round" stroke-linejoin="round"/>
</svg>
