<svg width="16" height="16" viewBox="0 0 16 16" fill="none" xmlns="http://www.w3.org/2000/svg">
<path d="M7.95001 11.6C9.60687 11.6 10.95 10.2569 10.95 8.60004C10.95 6.94318 9.60687 5.60004 7.95001 5.60004C6.29316 5.60004 4.95001 6.94318 4.95001 8.60004C4.95001 10.2569 6.29316 11.6 7.95001 11.6Z" stroke="#606580" stroke-miterlimit="10" stroke-linecap="round" stroke-linejoin="round"/>
<path d="M5.00002 3.95001C4.35002 2.50001 3.30002 2.35001 5.40002 1.55001C10.35 -0.349986 13.9 3.20001 10.1 6.50001" stroke="#606580" stroke-miterlimit="10" stroke-linecap="round" stroke-linejoin="round"/>
<path d="M5.60003 13.15C4.40003 14.6 4.95003 15.8 3.10003 14.3C-1.04997 10.95 0.250034 6.00002 5.00003 7.60002" stroke="#606580" stroke-miterlimit="10" stroke-linecap="round" stroke-linejoin="round"/>
<path d="M13.7 8.40002C15.1 8.45002 15.65 7.85002 15.3 9.95002C14.5 15.15 9.40001 16.6 8.45001 11.65" stroke="#606580" stroke-miterlimit="10" stroke-linecap="round" stroke-linejoin="round"/>
<path d="M7.95002 9.64999C8.52992 9.64999 9.00002 9.17989 9.00002 8.59999C9.00002 8.02009 8.52992 7.54999 7.95002 7.54999C7.37013 7.54999 6.90002 8.02009 6.90002 8.59999C6.90002 9.17989 7.37013 9.64999 7.95002 9.64999Z" stroke="#606580" stroke-miterlimit="10" stroke-linecap="round" stroke-linejoin="round"/>
</svg>
