<svg width="17" height="17" viewBox="0 0 17 17" fill="none" xmlns="http://www.w3.org/2000/svg">
<path d="M11.3 1.5H13.6C14.65 1.5 15.5 2.35 15.5 3.4V5.7" stroke="#606580" stroke-miterlimit="10" stroke-linecap="round" stroke-linejoin="round"/>
<path d="M5.7 15.5H3.4C2.35 15.5 1.5 14.65 1.5 13.6V11.3" stroke="#606580" stroke-miterlimit="10" stroke-linecap="round" stroke-linejoin="round"/>
<path d="M1.5 5.7V3.4C1.5 2.35 2.35 1.5 3.4 1.5H5.7" stroke="#606580" stroke-miterlimit="10" stroke-linecap="round" stroke-linejoin="round"/>
<path d="M15.5 11.3V13.6C15.5 14.65 14.65 15.5 13.6 15.5H11.3" stroke="#606580" stroke-miterlimit="10" stroke-linecap="round" stroke-linejoin="round"/>
<path d="M10.5384 4.14218C10.6091 3.90399 10.4941 3.65007 10.2685 3.54599C10.0429 3.44191 9.77515 3.51925 9.63979 3.72757L6.30121 8.86563C6.20131 9.01937 6.19357 9.21545 6.28103 9.37658C6.36849 9.53772 6.53713 9.63806 6.72047 9.63806H7.35681L6.03834 12.808C5.94242 13.0386 6.03141 13.3047 6.24679 13.4311C6.46218 13.5576 6.73787 13.5058 6.89257 13.3097L10.8926 8.23877C11.0112 8.08835 11.0335 7.88336 10.9499 7.71097C10.8663 7.53858 10.6916 7.4291 10.5 7.4291H9.56353L10.5384 4.14218Z" stroke="#606580" stroke-miterlimit="10" stroke-linecap="round" stroke-linejoin="round"/>
</svg>
