<svg width="17" height="17" viewBox="0 0 17 17" fill="none" xmlns="http://www.w3.org/2000/svg">
<path d="M12.85 13.1L8.34998 15.5L4.09998 13.1C3.14998 12.55 2.59998 11.6 2.59998 10.5V1.55L8.49998 1.5L14.45 1.55V10.45C14.45 11.55 13.85 12.55 12.85 13.1Z" stroke="#606580" stroke-miterlimit="10" stroke-linecap="round" stroke-linejoin="round"/>
<path d="M7.15 6.24999C5.75 7.54999 6.35 8.94999 7.3 9.59999C8.25 10.25 9.75 10.3 10.5 8.79999C11.1 7.64999 10.95 4.64999 10.95 4.64999C10.95 4.64999 8.15 5.29999 7.15 6.24999Z" stroke="#606580" stroke-miterlimit="10" stroke-linecap="round" stroke-linejoin="round"/>
<path d="M8.44998 7.95C7.79998 8.8 7.09998 9.95 6.84998 11" stroke="#606580" stroke-miterlimit="10" stroke-linecap="round" stroke-linejoin="round"/>
</svg>
