<svg width="17" height="17" viewBox="0 0 17 17" fill="none" xmlns="http://www.w3.org/2000/svg">
<path d="M12.85 13.1L8.34998 15.5L4.09998 13.1C3.14998 12.55 2.59998 11.6 2.59998 10.5V1.55L8.49998 1.5L14.45 1.55V10.45C14.45 11.55 13.85 12.55 12.85 13.1Z" stroke="#606580" stroke-miterlimit="10" stroke-linecap="round" stroke-linejoin="round"/>
<path d="M8.50001 5.85L8.95001 6C9.05001 6.05 9.10001 6.05 9.20001 6.1L9.60001 6.3L9.80001 6.7C9.85001 6.8 9.90001 6.85 9.90001 6.95L10.05 7.35L9.90001 7.8C9.90001 7.9 9.85001 7.95 9.80001 8.05L9.60001 8.45L9.20001 8.65C9.10001 8.7 9.05001 8.75 8.95001 8.75L8.50001 8.85L8.05001 8.7C7.95001 8.65 7.90001 8.65 7.80001 8.6L7.40001 8.4L7.20001 8C7.15001 7.9 7.10001 7.85 7.10001 7.75L7.00001 7.35L7.15001 6.95C7.20001 6.85 7.20001 6.8 7.25001 6.7L7.45001 6.3L7.85001 6.1C7.95001 6.05 8.00001 6 8.10001 6L8.50001 5.85ZM8.75001 4.3H8.20001C8.00001 4.3 7.85001 4.45 7.80001 4.6L7.70001 5.05C7.55001 5.1 7.40001 5.15 7.30001 5.25L7.00001 4.95C6.95001 4.9 6.85001 4.9 6.80001 4.9C6.70001 4.9 6.60001 4.95 6.55001 5L6.15001 5.4C6.00001 5.55 6.00001 5.75 6.10001 5.9L6.35001 6.25C6.30001 6.4 6.20001 6.5 6.20001 6.65L5.75001 6.7C5.55001 6.75 5.45001 6.9 5.45001 7.05V7.6C5.45001 7.8 5.60001 7.95 5.75001 7.95L6.20001 8C6.25001 8.15 6.30001 8.3 6.40001 8.4L6.15001 8.75C6.05001 8.9 6.05001 9.1 6.20001 9.25L6.60001 9.65C6.65001 9.7 6.75001 9.75 6.85001 9.75C6.95001 9.75 7.00001 9.75 7.05001 9.7L7.40001 9.45C7.55001 9.5 7.65001 9.55 7.80001 9.6L7.85001 10.05C7.90001 10.25 8.05001 10.35 8.25001 10.35H8.80001C9.00001 10.35 9.15001 10.2 9.20001 10.05L9.25001 9.6C9.40001 9.55 9.55001 9.5 9.65001 9.45L10 9.7C10.05 9.75 10.15 9.75 10.2 9.75C10.3 9.75 10.4 9.7 10.45 9.65L10.85 9.25C11 9.1 11 8.9 10.9 8.75L10.65 8.5C10.7 8.35 10.8 8.25 10.8 8.1L11.25 8.05C11.45 8 11.55 7.85 11.55 7.7V7.15C11.55 6.95 11.4 6.8 11.25 6.8L10.8 6.75C10.75 6.6 10.7 6.45 10.6 6.35L10.85 6C10.95 5.85 10.95 5.65 10.8 5.5L10.5 5C10.45 4.95 10.35 4.9 10.25 4.9C10.15 4.9 10.1 4.9 10.05 4.95L9.70001 5.2C9.55001 5.15 9.40001 5.05 9.25001 5L9.20001 4.55C9.10001 4.45 8.95001 4.3 8.75001 4.3Z" fill="#606580"/>
</svg>
