<svg width="17" height="17" viewBox="0 0 17 17" fill="none" xmlns="http://www.w3.org/2000/svg">
<path d="M12.85 13.1L8.34998 15.5L4.09998 13.1C3.14998 12.55 2.59998 11.6 2.59998 10.5V1.55L8.49998 1.5L14.45 1.55V10.45C14.45 11.55 13.85 12.55 12.85 13.1Z" stroke="#606580" stroke-miterlimit="10" stroke-linecap="round" stroke-linejoin="round"/>
<path d="M10.1471 4.64718C10.2201 4.41038 10.1086 4.15587 9.88506 4.04895C9.66153 3.94203 9.39342 4.01494 9.25482 4.22033L6.75089 7.93115C6.64746 8.08442 6.63707 8.28225 6.72386 8.44552C6.81065 8.60878 6.98046 8.71082 7.16535 8.71082H7.44411L6.54099 10.8017C6.44213 11.0306 6.52699 11.2974 6.73993 11.427C6.95287 11.5567 7.2288 11.5097 7.38679 11.3168L10.3868 7.65453C10.5093 7.50504 10.5346 7.29836 10.4519 7.1237C10.3692 6.94905 10.1932 6.83769 10 6.83769H9.47246L10.1471 4.64718Z" stroke="#606580" stroke-miterlimit="10" stroke-linecap="round" stroke-linejoin="round"/>
</svg>
