<svg width="16" height="17" viewBox="0 0 16 17" fill="none" xmlns="http://www.w3.org/2000/svg">
<path d="M12.35 13.1L7.84998 15.5L3.59998 13.1C2.64998 12.55 2.09998 11.6 2.09998 10.5V1.55L7.99998 1.5L13.95 1.55V10.45C13.95 11.55 13.35 12.55 12.35 13.1Z" stroke="#606580" stroke-miterlimit="10" stroke-linecap="round" stroke-linejoin="round"/>
<path d="M5.10002 10.65C4.35002 9.90001 3.90002 8.85001 3.90002 7.75001C3.90002 6.65001 4.35002 5.60001 5.10002 4.85001" stroke="#606580" stroke-miterlimit="10" stroke-linecap="round" stroke-linejoin="round"/>
<path d="M10.9 4.85001C11.65 5.60001 12.1 6.65001 12.1 7.75001C12.1 8.85001 11.65 9.90001 10.9 10.65" stroke="#606580" stroke-miterlimit="10" stroke-linecap="round" stroke-linejoin="round"/>
<path d="M6.4 9.35001C5.95 8.90001 5.75 8.35001 5.75 7.75001C5.75 7.15001 6 6.55001 6.4 6.15001" stroke="#606580" stroke-miterlimit="10" stroke-linecap="round" stroke-linejoin="round"/>
<path d="M9.59998 6.15001C10.05 6.60001 10.25 7.15001 10.25 7.75001C10.25 8.35001 9.99998 8.95001 9.59998 9.35001" stroke="#606580" stroke-miterlimit="10" stroke-linecap="round" stroke-linejoin="round"/>
<path d="M7.99995 8.80001C8.57985 8.80001 9.04995 8.32991 9.04995 7.75001C9.04995 7.17011 8.57985 6.70001 7.99995 6.70001C7.42005 6.70001 6.94995 7.17011 6.94995 7.75001C6.94995 8.32991 7.42005 8.80001 7.99995 8.80001Z" fill="#606580"/>
</svg>
