<svg width="16" height="16" viewBox="0 0 16 16" fill="none" xmlns="http://www.w3.org/2000/svg">
<path d="M9.90002 2.7L12.1 0.5L14.25 2.7" stroke="#606580" stroke-miterlimit="10" stroke-linecap="round" stroke-linejoin="round"/>
<path d="M6.2 11.65L4.25 13.5" stroke="#606580" stroke-miterlimit="10" stroke-linecap="round" stroke-linejoin="round"/>
<path d="M12.1 0.75V6.15L9.84998 8.2" stroke="#606580" stroke-miterlimit="10" stroke-linecap="round" stroke-linejoin="round"/>
<path d="M3.25 15.5C3.80228 15.5 4.25 15.0523 4.25 14.5C4.25 13.9477 3.80228 13.5 3.25 13.5C2.69772 13.5 2.25 13.9477 2.25 14.5C2.25 15.0523 2.69772 15.5 3.25 15.5Z" stroke="#606580" stroke-miterlimit="10" stroke-linecap="round" stroke-linejoin="round"/>
<path d="M6.1 2.7L3.9 0.5L1.75 2.7" stroke="#606580" stroke-miterlimit="10" stroke-linecap="round" stroke-linejoin="round"/>
<path d="M3.90002 0.75V6.15L11.75 13.5" stroke="#606580" stroke-miterlimit="10" stroke-linecap="round" stroke-linejoin="round"/>
<path d="M12.75 15.5C13.3023 15.5 13.75 15.0523 13.75 14.5C13.75 13.9477 13.3023 13.5 12.75 13.5C12.1977 13.5 11.75 13.9477 11.75 14.5C11.75 15.0523 12.1977 15.5 12.75 15.5Z" stroke="#606580" stroke-miterlimit="10" stroke-linecap="round" stroke-linejoin="round"/>
</svg>
