<svg width="17" height="17" viewBox="0 0 17 17" fill="none" xmlns="http://www.w3.org/2000/svg">
<path d="M5.59998 9.04999L5.14998 8.84999C5.09998 8.79999 4.99998 8.79999 4.94998 8.74999C4.14998 8.29999 3.84998 7.49999 4.09998 6.49999C4.19998 6.09999 4.39998 5.74999 4.59998 5.44999V5.39999C4.99998 4.84999 5.24998 4.34999 5.44998 3.79999C5.44998 3.69999 5.44998 3.59999 5.49998 3.49999L5.59998 3.14999L5.79998 3.29999C5.84998 3.29999 5.84998 3.34999 5.89998 3.34999L6.04998 3.49999C6.49998 3.99999 6.99998 4.49999 7.39998 5.04999C7.79998 5.59999 7.99998 6.19999 8.09998 6.74999C8.19998 7.64999 7.94998 8.29999 7.29998 8.69999C7.19998 8.79999 7.04998 8.84999 6.94998 8.89999C6.89998 8.89999 6.84998 8.94999 6.79998 8.94999L6.64998 9.04999L6.49998 8.74999L6.54998 8.64999C6.59998 8.59999 6.59998 8.54999 6.64998 8.54999C6.69998 8.44999 6.79998 8.39999 6.84998 8.29999C7.24998 7.64999 7.24998 6.94999 6.84998 6.24999C6.74998 6.09999 6.64998 5.94999 6.49998 5.79999C6.49998 6.29999 6.34998 6.79999 6.04998 7.29999L5.79998 7.74999L5.69998 7.24999C5.64998 7.04999 5.59998 6.84999 5.49998 6.74999C5.39998 6.99999 5.29998 7.24999 5.19998 7.49999C5.04998 7.89999 5.09998 8.24999 5.39998 8.59999C5.44998 8.64999 5.49998 8.69999 5.49998 8.79999L5.59998 9.04999Z" fill="#606580"/>
<path d="M6.14998 11.6C8.93901 11.6 11.2 9.33904 11.2 6.55C11.2 3.76096 8.93901 1.5 6.14998 1.5C3.36094 1.5 1.09998 3.76096 1.09998 6.55C1.09998 9.33904 3.36094 11.6 6.14998 11.6Z" stroke="#606580" stroke-miterlimit="10" stroke-linecap="round" stroke-linejoin="round"/>
<path d="M9.15005 15.5H2.80005C1.95005 15.5 1.30005 14.85 1.30005 14V13.1C1.30005 12.25 1.95005 11.6 2.80005 11.6H9.15005C10 11.6 10.65 12.25 10.65 13.1V14C10.65 14.85 9.95005 15.5 9.15005 15.5Z" stroke="#606580" stroke-miterlimit="10" stroke-linecap="round" stroke-linejoin="round"/>
<path d="M11.2 13.95H12C13.25 13.95 14.3 12.9 14.3 11.65V7.7" stroke="#606580" stroke-miterlimit="10" stroke-linecap="round" stroke-linejoin="round"/>
<path d="M14.35 9.24999C15.2061 9.24999 15.9 8.55604 15.9 7.69999C15.9 6.84395 15.2061 6.14999 14.35 6.14999C13.494 6.14999 12.8 6.84395 12.8 7.69999C12.8 8.55604 13.494 9.24999 14.35 9.24999Z" fill="#606580"/>
</svg>
