<svg width="16" height="16" viewBox="0 0 16 16" fill="none" xmlns="http://www.w3.org/2000/svg">
<path d="M8.7 3.15002H4.3C3.75 3.15002 3.25 3.55002 3.1 4.10002L2.4 7.35002L1.25 8.25002C0.75 8.55002 0.5 9.10002 0.5 9.65002V12C0.5 12.3 0.75 12.5 1 12.5H15C15.3 12.5 15.5 12.25 15.5 12V9.65002" stroke="#606580" stroke-miterlimit="10" stroke-linecap="round" stroke-linejoin="round"/>
<path d="M2.40002 7.35004H8.80002" stroke="#606580" stroke-miterlimit="10" stroke-linecap="round" stroke-linejoin="round"/>
<path d="M4.05002 12.5V14.85H1.90002V12.5" stroke="#606580" stroke-miterlimit="10" stroke-linecap="round" stroke-linejoin="round"/>
<path d="M14.1 12.5V14.85H11.95V12.5" stroke="#606580" stroke-miterlimit="10" stroke-linecap="round" stroke-linejoin="round"/>
<path d="M2.40002 10.15H4.70002" stroke="#606580" stroke-miterlimit="10" stroke-linecap="round" stroke-linejoin="round"/>
<path d="M11.3 10.15H13.6" stroke="#606580" stroke-miterlimit="10" stroke-linecap="round" stroke-linejoin="round"/>
<path d="M15.3 4.9C15.1 2.7 13.05 1 13.05 1C13.05 1 10.95 2.7 10.8 4.9C10.8 5 10.8 5.05 10.8 5.15C10.8 6.4 11.8 7.4 13.05 7.4C14.3 7.4 15.3 6.4 15.3 5.15C15.3 5.05 15.3 4.95 15.3 4.9Z" stroke="#606580" stroke-miterlimit="10" stroke-linecap="round" stroke-linejoin="round"/>
</svg>
