<svg width="17" height="17" viewBox="0 0 17 17" fill="none" xmlns="http://www.w3.org/2000/svg">
<path d="M8.89994 1.85001C8.94994 1.90001 10.1999 3.60001 8.24994 6.15001C7.24994 7.45001 6.84994 8.75001 7.04994 10C7.34994 11.8 8.94994 12.8 8.99994 12.85" stroke="#606580" stroke-miterlimit="10" stroke-linecap="round" stroke-linejoin="round"/>
<path d="M5.2177 4.00003C5.24974 4.02958 6.0509 5.03412 4.8011 6.54094C4.16017 7.30912 3.9038 8.0773 4.03199 8.81594C4.22426 9.87958 5.24974 10.4705 5.28179 10.5" stroke="#606580" stroke-miterlimit="10" stroke-linecap="round" stroke-linejoin="round"/>
<path d="M11.7177 4.00003C11.7497 4.02958 12.5509 5.03412 11.3011 6.54094C10.6602 7.30912 10.4038 8.0773 10.532 8.81594C10.7243 9.87958 11.7497 10.4705 11.7818 10.5" stroke="#606580" stroke-miterlimit="10" stroke-linecap="round" stroke-linejoin="round"/>
<path d="M13.8 12.15C13.95 12.25 14.05 12.3 14.2 12.4C14.55 12.7 14.75 13.05 14.75 13.4C14.75 14.7 11.95 15.75 8.5 15.75C5.05 15.75 2.25 14.7 2.25 13.4C2.25 13.15 2.35 12.9 2.55 12.65" stroke="#606580" stroke-miterlimit="10" stroke-linecap="round" stroke-linejoin="round"/>
</svg>
