<svg width="16" height="16" viewBox="0 0 16 16" fill="none" xmlns="http://www.w3.org/2000/svg">
<path d="M11.95 15H4.05C2.35 15 1 13.65 1 11.95V4.05C1 2.35 2.35 1 4.05 1H11.95C13.65 1 15 2.35 15 4.05V11.95C15 13.65 13.65 15 11.95 15Z" stroke="#606580" stroke-miterlimit="10" stroke-linecap="round" stroke-linejoin="round"/>
<path d="M10 3.79999H7.55C6.45 3.79999 5.5 4.69999 5.5 5.84999V6.14999C5.5 7.24999 6.4 8.19999 7.55 8.19999H8.5C9.6 8.19999 10.55 9.09999 10.55 10.25C10.55 11.35 9.65 12.3 8.5 12.3H5.5" stroke="#606580" stroke-miterlimit="10" stroke-linecap="round" stroke-linejoin="round"/>
</svg>
