<svg width="17" height="16" viewBox="0 0 17 16" fill="none" xmlns="http://www.w3.org/2000/svg">
<path d="M15.5 2.80001V6.55001C15.5 6.90001 15.2 7.20001 14.85 7.20001H12.65C12.65 7.15001 12.65 7.15001 12.65 7.10001C12.65 4.40001 10.45 2.20001 7.75 2.20001H14.85C15.2 2.20001 15.5 2.50001 15.5 2.80001Z" stroke="#606580" stroke-miterlimit="10" stroke-linecap="round" stroke-linejoin="round"/>
<path d="M12.65 7.10001C12.65 7.15001 12.65 7.15001 12.65 7.20001C12.6 8.45001 12.1 9.65001 11.3 10.5C10.4 11.45 9.14998 12.05 7.74998 12.05C6.34998 12.05 5.09998 11.45 4.19998 10.5C3.34998 9.60001 2.84998 8.45001 2.84998 7.10001C2.84998 4.40001 5.04998 2.20001 7.74998 2.20001H7.79998C10.45 2.20001 12.65 4.40001 12.65 7.10001Z" stroke="#606580" stroke-miterlimit="10" stroke-linecap="round" stroke-linejoin="round"/>
<path d="M10.2 7.10001V7.15001C10.2 7.80001 9.94995 8.40001 9.49995 8.80001C9.04995 9.30001 8.39995 9.60001 7.69995 9.60001C6.99995 9.60001 6.34995 9.30001 5.89995 8.80001C5.49995 8.35001 5.19995 7.75001 5.19995 7.10001C5.19995 5.75001 6.29995 4.60001 7.69995 4.60001C9.09995 4.65001 10.2 5.75001 10.2 7.10001Z" stroke="#606580" stroke-miterlimit="10" stroke-linecap="round" stroke-linejoin="round"/>
<path d="M13.95 13.35C13.95 13.7 13.65 13.8 13.3 13.8H10.3C9.79999 13.4 8.79999 12.8 7.74999 12.8C6.64999 12.8 5.69999 13.4 5.19999 13.8H2.19999C1.84999 13.8 1.54999 13.65 1.54999 13.35C1.54999 13.35 1.49999 13 1.54999 12.9C1.79999 12.15 3.69999 10.55 4.04999 10.55H4.14999C5.04999 11.5 6.29999 12.1 7.69999 12.1C9.09999 12.1 10.35 11.5 11.25 10.55H11.35C11.7 10.55 13.6 12.15 13.85 12.9C14 12.95 13.95 13.35 13.95 13.35Z" stroke="#606580" stroke-miterlimit="10" stroke-linecap="round" stroke-linejoin="round"/>
</svg>
