<svg width="16" height="16" viewBox="0 0 16 16" fill="none" xmlns="http://www.w3.org/2000/svg">
<path d="M4.75002 7.49994C3.50002 7.69994 2.65002 7.99994 2.65002 8.34994" stroke="#606580" stroke-miterlimit="10" stroke-linecap="round" stroke-linejoin="round"/>
<path d="M13.35 6.89994V5.14994C13.35 3.94994 10.95 2.99994 8.00002 2.99994C7.65002 2.99994 7.30002 2.99994 6.95002 3.04994C6.15002 3.09994 5.40002 3.24994 4.75002 3.44994C3.45002 3.84994 2.65002 4.44994 2.65002 5.14994V11.5499" stroke="#606580" stroke-miterlimit="10" stroke-linecap="round" stroke-linejoin="round"/>
<path d="M6.90002 7.29993C7.25002 7.29993 7.60002 7.29993 8.00002 7.29993C9.00002 7.29993 9.90002 7.34993 10.7 7.44993" stroke="#606580" stroke-miterlimit="10" stroke-linecap="round" stroke-linejoin="round"/>
<path d="M4.84998 11.4499V2.74994" stroke="#606580" stroke-miterlimit="10" stroke-linecap="round" stroke-linejoin="round"/>
<path d="M6.90002 2.29993V11.4499" stroke="#606580" stroke-miterlimit="10" stroke-linecap="round" stroke-linejoin="round"/>
<path d="M0.75 11.5499H8" stroke="#606580" stroke-miterlimit="10" stroke-linecap="round" stroke-linejoin="round"/>
<path d="M11.35 9.75V12.3C11.35 12.65 11.6 12.9 11.95 12.9H14.65" stroke="#606580" stroke-miterlimit="10" stroke-linecap="round" stroke-linejoin="round"/>
<path d="M14.65 9.75V15.25" stroke="#606580" stroke-miterlimit="10" stroke-linecap="round" stroke-linejoin="round"/>
</svg>
