<svg width="16" height="16" viewBox="0 0 16 16" fill="none" xmlns="http://www.w3.org/2000/svg">
<path d="M4.75002 7C3.50002 7.2 2.65002 7.5 2.65002 7.85" stroke="#606580" stroke-miterlimit="10" stroke-linecap="round" stroke-linejoin="round"/>
<path d="M13.35 6.4V4.65C13.35 3.45 10.95 2.5 8.00002 2.5C7.65002 2.5 7.30002 2.5 6.95002 2.55C6.15002 2.6 5.40002 2.75 4.75002 2.95C3.50002 3.35 2.65002 3.95 2.65002 4.65V11.05" stroke="#606580" stroke-miterlimit="10" stroke-linecap="round" stroke-linejoin="round"/>
<path d="M6.90002 6.80005C7.25002 6.80005 7.60002 6.80005 8.00002 6.80005C9.00002 6.80005 9.90002 6.85005 10.7 6.95005" stroke="#606580" stroke-miterlimit="10" stroke-linecap="round" stroke-linejoin="round"/>
<path d="M4.84998 10.95V2.25" stroke="#606580" stroke-miterlimit="10" stroke-linecap="round" stroke-linejoin="round"/>
<path d="M6.90002 1.80005V10.95" stroke="#606580" stroke-miterlimit="10" stroke-linecap="round" stroke-linejoin="round"/>
<path d="M0.75 11.05H6.9" stroke="#606580" stroke-miterlimit="10" stroke-linecap="round" stroke-linejoin="round"/>
<path d="M14.9 11.8C14.85 10.75 14.2 9.75001 13.2 9.30001C12.45 8.95001 11.6 8.95001 10.9 9.20001" stroke="#606580" stroke-miterlimit="10" stroke-linecap="round" stroke-linejoin="round"/>
<path d="M15.4 11.75L14.9 12.25L14.35 11.75" stroke="#606580" stroke-miterlimit="10" stroke-linecap="round" stroke-linejoin="round"/>
<path d="M8.95001 12.1499C9.00001 13.1999 9.65001 14.1999 10.65 14.6499C11.4 14.9999 12.2 14.9999 12.9 14.7499" stroke="#606580" stroke-miterlimit="10" stroke-linecap="round" stroke-linejoin="round"/>
<path d="M8.45001 12.2L9.00001 11.7L9.50001 12.2" stroke="#606580" stroke-miterlimit="10" stroke-linecap="round" stroke-linejoin="round"/>
</svg>
