<svg width="16" height="17" viewBox="0 0 16 17" fill="none" xmlns="http://www.w3.org/2000/svg">
<path d="M11.35 7.89999V4.04999L8.00002 2.14999L4.65002 4.04999V7.89999L8.00002 9.84999L11.35 7.89999Z" stroke="#606580" stroke-miterlimit="10" stroke-linecap="round" stroke-linejoin="round"/>
<path d="M4.65002 4.04999L8.00002 5.99999L11.35 4.04999" stroke="#606580" stroke-miterlimit="10" stroke-linecap="round" stroke-linejoin="round"/>
<path d="M2.3 14.9C3.01797 14.9 3.6 14.318 3.6 13.6C3.6 12.882 3.01797 12.3 2.3 12.3C1.58203 12.3 1 12.882 1 13.6C1 14.318 1.58203 14.9 2.3 14.9Z" stroke="#606580" stroke-miterlimit="10" stroke-linecap="round" stroke-linejoin="round"/>
<path d="M8.00001 14.9C8.71798 14.9 9.30001 14.318 9.30001 13.6C9.30001 12.882 8.71798 12.3 8.00001 12.3C7.28204 12.3 6.70001 12.882 6.70001 13.6C6.70001 14.318 7.28204 14.9 8.00001 14.9Z" stroke="#606580" stroke-miterlimit="10" stroke-linecap="round" stroke-linejoin="round"/>
<path d="M13.7 14.9C14.418 14.9 15 14.318 15 13.6C15 12.882 14.418 12.3 13.7 12.3C12.9821 12.3 12.4 12.882 12.4 13.6C12.4 14.318 12.9821 14.9 13.7 14.9Z" stroke="#606580" stroke-miterlimit="10" stroke-linecap="round" stroke-linejoin="round"/>
<path d="M3.59998 13.6H6.69998" stroke="#606580" stroke-miterlimit="10" stroke-linecap="round" stroke-linejoin="round"/>
<path d="M9.29999 13.6H12.4" stroke="#606580" stroke-miterlimit="10" stroke-linecap="round" stroke-linejoin="round"/>
</svg>
