<svg width="17" height="16" viewBox="0 0 17 16" fill="none" xmlns="http://www.w3.org/2000/svg">
<path d="M4.35 1C5.05 1 5.7 1.3 6.25 1.8C7.35 2.9 7.35 4.65 6.25 5.75C5.15 6.85 3.4 6.85 2.3 5.75C1.75 5.2 1.5 4.5 1.5 3.8" stroke="#606580" stroke-miterlimit="10" stroke-linecap="round" stroke-linejoin="round"/>
<path d="M11.2 9.39999L15.5 13.7L14.15 15L10.65 11.45" stroke="#606580" stroke-miterlimit="10" stroke-linecap="round" stroke-linejoin="round"/>
<path d="M7.15002 5.35001L7.90002 6.10001" stroke="#606580" stroke-miterlimit="10" stroke-linecap="round" stroke-linejoin="round"/>
<path d="M9.12035 9.89345L7.49402 8.26712L2.36754 13.3936L3.99387 15.0199L9.12035 9.89345Z" stroke="#606580" stroke-miterlimit="10" stroke-linecap="round" stroke-linejoin="round"/>
<path d="M8 8.80001L12.25 4.60001L13.05 2.65001L15 1.85001L15.5 2.40001L14.7 4.30001L12.75 5.10001L8.55 9.35001" stroke="#606580" stroke-miterlimit="10" stroke-linecap="round" stroke-linejoin="round"/>
</svg>
