<svg width="16" height="16" viewBox="0 0 16 16" fill="none" xmlns="http://www.w3.org/2000/svg">
<path d="M10.55 11.7C10.4 9.55005 8.29999 7.80005 8.29999 7.80005C8.29999 7.80005 6.19999 9.50005 6.04999 11.7C6.04999 11.8 6.04999 11.85 6.04999 11.95C6.04999 13.2 7.04999 14.2 8.29999 14.2C9.54999 14.2 10.55 13.2 10.55 11.95C10.55 11.85 10.55 11.75 10.55 11.7Z" stroke="#606580" stroke-miterlimit="10" stroke-linecap="round" stroke-linejoin="round"/>
<path d="M4.00001 11.7C3.30001 11.7 2.70001 11.1 2.70001 10.4V6.80002L6.85001 3.65002H13.45V8.20002C13.45 8.85002 12.9 9.40002 12.25 9.40002" stroke="#606580" stroke-miterlimit="10" stroke-linecap="round" stroke-linejoin="round"/>
<path d="M0.5 6.80005V10.15" stroke="#606580" stroke-miterlimit="10" stroke-linecap="round" stroke-linejoin="round"/>
<path d="M15.5 4V7.5" stroke="#606580" stroke-miterlimit="10" stroke-linecap="round" stroke-linejoin="round"/>
<path d="M8.29999 1.80005H13.3" stroke="#606580" stroke-miterlimit="10" stroke-linecap="round" stroke-linejoin="round"/>
</svg>
