<svg width="17" height="17" viewBox="0 0 17 17" fill="none" xmlns="http://www.w3.org/2000/svg">
<path d="M2.95 14.9C3.75081 14.9 4.4 14.2508 4.4 13.45C4.4 12.6492 3.75081 12 2.95 12C2.14919 12 1.5 12.6492 1.5 13.45C1.5 14.2508 2.14919 14.9 2.95 14.9Z" stroke="#606580" stroke-miterlimit="10" stroke-linecap="round" stroke-linejoin="round"/>
<path d="M14.05 14.9C14.8508 14.9 15.5 14.2508 15.5 13.45C15.5 12.6492 14.8508 12 14.05 12C13.2492 12 12.6 12.6492 12.6 13.45C12.6 14.2508 13.2492 14.9 14.05 14.9Z" stroke="#606580" stroke-miterlimit="10" stroke-linecap="round" stroke-linejoin="round"/>
<path d="M8.49999 5C9.3008 5 9.94999 4.35081 9.94999 3.55C9.94999 2.74919 9.3008 2.1 8.49999 2.1C7.69917 2.1 7.04999 2.74919 7.04999 3.55C7.04999 4.35081 7.69917 5 8.49999 5Z" stroke="#606580" stroke-miterlimit="10" stroke-linecap="round" stroke-linejoin="round"/>
<path d="M13.45 12L9.40002 4.7" stroke="#606580" stroke-miterlimit="10" stroke-linecap="round" stroke-linejoin="round"/>
<path d="M7.64999 5L3.54999 12" stroke="#606580" stroke-miterlimit="10" stroke-linecap="round" stroke-linejoin="round"/>
<path d="M4.40002 13.75H12.6" stroke="#606580" stroke-miterlimit="10" stroke-linecap="round" stroke-linejoin="round"/>
</svg>
