<svg width="17" height="17" viewBox="0 0 17 17" fill="none" xmlns="http://www.w3.org/2000/svg">
<path d="M3.35 12.7C2 11.35 1.25 9.5 1.25 7.6C1.25 5.7 2 3.8 3.35 2.45" stroke="#606580" stroke-miterlimit="10" stroke-linecap="round" stroke-linejoin="round"/>
<path d="M13.65 2.45C15 3.8 15.75 5.65 15.75 7.6C15.75 9.55 15 11.35 13.65 12.75" stroke="#606580" stroke-miterlimit="10" stroke-linecap="round" stroke-linejoin="round"/>
<path d="M5.19998 10.9C4.29998 10 3.84998 8.85 3.84998 7.6C3.84998 6.35 4.34998 5.15 5.19998 4.3" stroke="#606580" stroke-miterlimit="10" stroke-linecap="round" stroke-linejoin="round"/>
<path d="M11.8 4.3C12.7 5.2 13.15 6.35 13.15 7.6C13.15 8.85 12.65 10.05 11.8 10.9" stroke="#606580" stroke-miterlimit="10" stroke-linecap="round" stroke-linejoin="round"/>
<path d="M9.95002 4.95V9.35C9.95002 10.15 9.30002 10.75 8.55002 10.75C7.75002 10.75 7.15002 10.1 7.15002 9.35V4.95" stroke="#606580" stroke-miterlimit="10" stroke-linecap="round" stroke-linejoin="round"/>
<path d="M8.5 10.75V14.55" stroke="#606580" stroke-miterlimit="10" stroke-linecap="round" stroke-linejoin="round"/>
<path d="M9.40002 14.55H7.65002" stroke="#606580" stroke-miterlimit="10" stroke-linecap="round" stroke-linejoin="round"/>
</svg>
