<svg width="16" height="17" viewBox="0 0 16 17" fill="none" xmlns="http://www.w3.org/2000/svg">
<path d="M8.00001 11.4C7.30001 11.4 6.70001 10.8 6.70001 10.1C6.70001 9.39999 7.30001 8.79999 8.00001 8.79999C8.70001 8.79999 9.30001 9.39999 9.30001 10.1C9.30001 10.85 8.70001 11.4 8.00001 11.4Z" stroke="#606580" stroke-miterlimit="10" stroke-linecap="round" stroke-linejoin="round"/>
<path d="M9.29999 8.80001L11.75 6.35001" stroke="#606580" stroke-miterlimit="10" stroke-linecap="round" stroke-linejoin="round"/>
<path d="M5.29999 12.8L6.69999 11.4" stroke="#606580" stroke-miterlimit="10" stroke-linecap="round" stroke-linejoin="round"/>
<path d="M11.75 8.50001V6.35001H9.59998" stroke="#606580" stroke-miterlimit="10" stroke-linecap="round" stroke-linejoin="round"/>
<path d="M3 14.4H1.85C1 13.2 0.5 11.7 0.5 10.1C0.5 5.95001 3.85 2.60001 8 2.60001C12.15 2.60001 15.5 5.95001 15.5 10.1C15.5 11.7 15 13.15 14.15 14.4H13" stroke="#606580" stroke-miterlimit="10" stroke-linecap="round" stroke-linejoin="round"/>
<path d="M9.6 4.75C9.1 4.6 8.55 4.5 8 4.5C4.95 4.5 2.5 6.95 2.5 10C2.5 11.1 2.85 12.15 3.4 13" stroke="#606580" stroke-miterlimit="10" stroke-linecap="round" stroke-linejoin="round"/>
<path d="M12.6 13C13.15 12.15 13.5 11.1 13.5 10C13.5 9.5 13.45 9 13.3 8.5" stroke="#606580" stroke-miterlimit="10" stroke-linecap="round" stroke-linejoin="round"/>
</svg>
