<svg width="17" height="16" viewBox="0 0 17 16" fill="none" xmlns="http://www.w3.org/2000/svg">
<path d="M8.85 9.84999L3.65 15.05C3.35 15.35 2.85 15.35 2.55 15.05L2.35 14.85C2.05 14.55 2.05 14.05 2.35 13.75L7.55 8.54999" stroke="#606580" stroke-miterlimit="10" stroke-linecap="round" stroke-linejoin="round"/>
<path d="M6.80002 7.9L5.95002 8.65C5.95002 8.65 5.50002 9.05 5.10002 8.65C4.70002 8.25 5.10002 7.8 5.10002 7.8L5.90002 7" fill="#606580"/>
<path d="M6.80002 7.9L5.95002 8.65C5.95002 8.65 5.50002 9.05 5.10002 8.65C4.70002 8.25 5.10002 7.8 5.10002 7.8L5.90002 7" stroke="#606580" stroke-miterlimit="10" stroke-linecap="round" stroke-linejoin="round"/>
<path d="M7.79999 4.79998L10.55 1.94998C10.55 1.94998 11.8 0.499983 12.45 0.749983C12.45 0.749983 14.5 1.19998 14.85 5.44998L14.6 5.74998L11.85 2.99998L8.84999 5.89998" stroke="#606580" stroke-miterlimit="10" stroke-linecap="round" stroke-linejoin="round"/>
<path d="M7.04997 4.89999C7.19997 4.74999 7.39997 4.79999 7.54997 4.94999L9.59997 6.99999C9.59997 6.99999 9.99997 7.39999 9.49997 7.89999C9.49997 7.89999 9.19997 8.24999 9.59997 8.59999L10.1 9.09999C10.25 9.24999 10.25 9.49999 10.15 9.59999L9.69997 9.99999C9.54997 10.15 9.34997 10.1 9.19997 9.94999L5.89997 6.64999C5.74997 6.49999 5.69997 6.24999 5.84997 6.14999C6.09997 5.84999 6.54997 5.39999 7.04997 4.89999Z" stroke="#606580" stroke-miterlimit="10" stroke-linecap="round" stroke-linejoin="round"/>
<path d="M9.89998 5.24998L12.3 7.64998C12.4 7.74998 12.55 7.74998 12.7 7.64998L12.95 7.39998C13.05 7.29998 13.05 7.14998 12.95 6.99998L10.5 4.64998C10.4 4.54998 10.25 4.54998 10.1 4.64998L9.84998 4.89998C9.79998 4.94998 9.79998 5.14998 9.89998 5.24998Z" fill="#606580" stroke="#606580" stroke-miterlimit="10" stroke-linecap="round" stroke-linejoin="round"/>
</svg>
