<svg width="48" height="48" viewBox="0 0 48 48" fill="none" xmlns="http://www.w3.org/2000/svg">
<path d="M6.29997 31V23.55H16.5L21.45 18.45H28.2V31" stroke="#606580" stroke-width="2" stroke-miterlimit="10" stroke-linecap="round" stroke-linejoin="round"/>
<path d="M45 31H3V47H45V31Z" stroke="#606580" stroke-width="2" stroke-miterlimit="10" stroke-linecap="round" stroke-linejoin="round"/>
<path d="M14.85 2H9.75V23.55H14.85V2Z" stroke="#606580" stroke-width="2" stroke-miterlimit="10" stroke-linecap="round" stroke-linejoin="round"/>
<path d="M24.9001 18.4499V6.09995H38.2501V9.04994" stroke="#606580" stroke-width="2" stroke-miterlimit="10" stroke-linecap="round" stroke-linejoin="round"/>
<path d="M39.1194 27H36.8806C34.791 27 33 25.1433 33 22.9771V14.0229C33 11.8567 34.791 10 36.8806 10H39.1194C41.209 10 43 11.8567 43 14.0229V22.9771C43 25.298 41.209 27 39.1194 27Z" stroke="#606580" stroke-width="2" stroke-miterlimit="10" stroke-linecap="round" stroke-linejoin="round"/>
<path d="M35 31V27" stroke="#606580" stroke-width="2" stroke-miterlimit="10" stroke-linecap="round" stroke-linejoin="round"/>
<path d="M41 27V31" stroke="#606580" stroke-width="2" stroke-miterlimit="10" stroke-linecap="round" stroke-linejoin="round"/>
</svg>
