<svg width="17" height="16" viewBox="0 0 17 16" fill="none" xmlns="http://www.w3.org/2000/svg">
<path d="M4.19971 4.69999V3.89999C4.19971 2.09999 5.64971 0.649994 7.44971 0.649994H7.59971C9.39971 0.649994 10.8497 2.09999 10.8497 3.89999V4.69999" stroke="#606580" stroke-miterlimit="10" stroke-linecap="round" stroke-linejoin="round"/>
<path d="M8.64985 12.55H3.79985C3.24985 12.55 2.84985 12.1 2.84985 11.6V6.95C2.84985 6.4 3.29985 6 3.79985 6H11.0999C11.6499 6 12.0499 6.45 12.0499 6.95V8.25" stroke="#606580" stroke-miterlimit="10" stroke-linecap="round" stroke-linejoin="round"/>
<path d="M7.44971 9.7C8.00199 9.7 8.44971 9.25228 8.44971 8.7C8.44971 8.14771 8.00199 7.7 7.44971 7.7C6.89742 7.7 6.44971 8.14771 6.44971 8.7C6.44971 9.25228 6.89742 9.7 7.44971 9.7Z" stroke="#606580" stroke-miterlimit="10" stroke-linecap="round" stroke-linejoin="round"/>
<path d="M7.44971 9.79999V10.8" stroke="#606580" stroke-miterlimit="10" stroke-linecap="round" stroke-linejoin="round"/>
<path d="M10.5503 11.1C10.5503 10.3 11.2003 9.64999 12.0003 9.64999C12.8003 9.64999 13.4503 10.3 13.4503 11.1C13.4503 11.9 12.8003 13.1 12.0003 13.1C11.2003 13.1 10.5503 11.85 10.5503 11.1Z" stroke="#606580" stroke-miterlimit="10" stroke-linecap="round" stroke-linejoin="round"/>
<path d="M12.8501 12.65C13.9001 13 14.6501 13.9 14.8001 15C14.8501 15.2 14.6501 15.4 14.4501 15.4H9.50015C9.30015 15.4 9.15015 15.2 9.15015 15C9.30015 13.9 10.0501 13 11.0501 12.7" stroke="#606580" stroke-miterlimit="10" stroke-linecap="round" stroke-linejoin="round"/>
</svg>
