<svg width="17" height="16" viewBox="0 0 17 16" fill="none" xmlns="http://www.w3.org/2000/svg">
<path d="M12.8501 12.6L8.3501 15L4.1001 12.6C3.1501 12.05 2.6001 11.1 2.6001 10V1.05L8.5001 1L14.4501 1.05V9.95C14.4501 11.05 13.8501 12.05 12.8501 12.6Z" stroke="#606580" stroke-miterlimit="10" stroke-linecap="round" stroke-linejoin="round"/>
<path d="M6.75 4.89999C6.75 3.94999 7.55 3.14999 8.5 3.14999C9.45 3.14999 10.25 3.94999 10.25 4.89999C10.25 5.84999 9.45 7.34999 8.5 7.34999C7.55 7.34999 6.75 5.89999 6.75 4.89999Z" stroke="#606580" stroke-miterlimit="10" stroke-linecap="round" stroke-linejoin="round"/>
<path d="M9.60014 6.84999C10.9001 7.24999 11.8501 8.39999 12.0001 9.74999C12.0501 9.99999 11.8501 10.2 11.6001 10.2H5.40014C5.15014 10.2 4.95014 9.99999 5.00014 9.74999C5.20014 8.39999 6.10014 7.29999 7.35014 6.89999" stroke="#606580" stroke-miterlimit="10" stroke-linecap="round" stroke-linejoin="round"/>
</svg>
