<svg width="17" height="16" viewBox="0 0 17 16" fill="none" xmlns="http://www.w3.org/2000/svg">
<path d="M10 4.75H14.55C15.1 4.75 15.5 5.2 15.5 5.7V12.75C15.5 13.3 15.05 13.7 14.55 13.7H2.45C1.9 13.7 1.5 13.25 1.5 12.75V5.75C1.5 5.2 1.95 4.8 2.45 4.8H7.5" stroke="#606580" stroke-miterlimit="10" stroke-linecap="round" stroke-linejoin="round"/>
<path d="M4.1499 8.09998C4.1499 7.44998 4.6499 6.94998 5.2999 6.94998C5.9499 6.94998 6.4499 7.44998 6.4499 8.09998C6.4499 8.74998 5.9499 9.69998 5.2999 9.69998C4.6499 9.69998 4.1499 8.74998 4.1499 8.09998Z" stroke="#606580" stroke-miterlimit="10" stroke-linecap="round" stroke-linejoin="round"/>
<path d="M6.00004 9.39998C6.85004 9.64998 7.45004 10.4 7.60004 11.3C7.60004 11.45 7.50004 11.6 7.35004 11.6H3.25004C3.10004 11.6 2.95004 11.45 3.00004 11.3C3.10004 10.4 3.75004 9.69998 4.55004 9.39998" stroke="#606580" stroke-miterlimit="10" stroke-linecap="round" stroke-linejoin="round"/>
<path d="M10.1001 7.8H13.7001" stroke="#606580" stroke-miterlimit="10" stroke-linecap="round" stroke-linejoin="round"/>
<path d="M10.0999 9.25002H13.6999" stroke="#606580" stroke-miterlimit="10" stroke-linecap="round" stroke-linejoin="round"/>
<path d="M10.0999 10.7H13.6999" stroke="#606580" stroke-miterlimit="10" stroke-linecap="round" stroke-linejoin="round"/>
<path d="M9.7501 2.25H7.6001V5.85H9.7501V2.25Z" stroke="#606580" stroke-miterlimit="10" stroke-linecap="round" stroke-linejoin="round"/>
<path d="M9.7501 2.25H7.6001V5.85H9.7501V2.25Z" stroke="#606580" stroke-miterlimit="10" stroke-linecap="round" stroke-linejoin="round"/>
</svg>
