<svg width="16" height="16" viewBox="0 0 16 16" fill="none" xmlns="http://www.w3.org/2000/svg">
<path d="M5.35 7.4C4.85 6.5 4.5 5.4 4.5 4.5C4.5 3.85 5.45 1.25 5.45 1.25L8 1.5L10.5 1.2C10.5 1.2 11.5 3.85 11.5 4.5C11.5 6.45 9.95 9.4 8 9.4C7.8 9.4 7.6 9.35 7.4 9.3" stroke="#606580" stroke-miterlimit="10" stroke-linecap="round" stroke-linejoin="round"/>
<path d="M4.1001 9.2V7.5H7.0001V9.5L10.0001 14.5" stroke="#606580" stroke-miterlimit="10" stroke-linecap="round" stroke-linejoin="round"/>
<path d="M10.6002 7.5H12.0002L12.0502 9.3L12.2002 9.4C13.6502 10.5 14.7002 12.15 14.9502 14.1C15.0002 14.6 14.6502 15 14.1502 15H1.85016C1.35016 15 1.00016 14.55 1.05016 14.1C1.30016 12.15 2.40016 10.4 3.95016 9.3" stroke="#606580" stroke-miterlimit="10" stroke-linecap="round" stroke-linejoin="round"/>
<path d="M11.6 4.10001C12.75 4.20001 13.5 4.35001 13.5 4.50001C13.5 4.80001 11.05 5.00001 8 5.00001C4.95 5.00001 2.5 4.80001 2.5 4.50001C2.5 4.35001 3.2 4.20001 4.35 4.15001" stroke="#606580" stroke-miterlimit="10" stroke-linecap="round" stroke-linejoin="round"/>
</svg>
