<svg width="16" height="16" viewBox="0 0 16 16" fill="none" xmlns="http://www.w3.org/2000/svg">
<path d="M4.5 4.5C4.5 2.55 6.05 1 8 1C9.95 1 11.5 2.55 11.5 4.5C11.5 6.45 9.95 9.4 8 9.4C6.05 9.4 4.5 6.45 4.5 4.5Z" stroke="#606580" stroke-miterlimit="10" stroke-linecap="round" stroke-linejoin="round"/>
<path d="M10.1499 8.35001C12.6999 9.15001 14.5999 11.4 14.9499 14.1C14.9999 14.6 14.6499 15 14.1499 15H1.84992C1.34992 15 0.999916 14.55 1.04992 14.1C1.39992 11.45 3.24992 9.25001 5.69992 8.40001" stroke="#606580" stroke-miterlimit="10" stroke-linecap="round" stroke-linejoin="round"/>
<path d="M4.8501 4.25L10.5501 6.15" stroke="#606580" stroke-miterlimit="10" stroke-linecap="round" stroke-linejoin="round"/>
<path d="M6.1001 1.75L11.1501 4.9" stroke="#606580" stroke-miterlimit="10" stroke-linecap="round" stroke-linejoin="round"/>
</svg>
