<svg width="18" height="16" viewBox="0 0 18 16" fill="none" xmlns="http://www.w3.org/2000/svg">
<path d="M7.00049 7.35001C7.00049 6.25001 7.90049 5.35001 9.00049 5.35001C10.1005 5.35001 11.0005 6.25001 11.0005 7.35001C11.0005 8.45001 10.1005 10.2 9.00049 10.2C7.90049 10.2 7.00049 8.45001 7.00049 7.35001Z" stroke="#606580" stroke-miterlimit="10" stroke-linecap="round" stroke-linejoin="round"/>
<path d="M10.2503 9.55C11.7003 10 12.8003 11.3 13.0003 12.85C13.0503 13.15 12.8003 13.4 12.5503 13.4H5.45033C5.15033 13.4 4.95033 13.15 5.00033 12.85C5.20033 11.3 6.25033 10.05 7.70033 9.55" stroke="#606580" stroke-miterlimit="10" stroke-linecap="round" stroke-linejoin="round"/>
<path d="M11.5 4.30001C11.5 3.35001 12.25 2.60001 13.2 2.60001C14.15 2.60001 14.9 3.35001 14.9 4.30001C14.9 5.25001 14.15 6.65001 13.2 6.65001" stroke="#606580" stroke-miterlimit="10" stroke-linecap="round" stroke-linejoin="round"/>
<path d="M14.2 6.10001C15.4 6.50001 16.35 7.55001 16.5 8.85001C16.55 9.10001 16.35 9.30001 16.1 9.30001H13.55" stroke="#606580" stroke-miterlimit="10" stroke-linecap="round" stroke-linejoin="round"/>
<path d="M6.50015 4.30001C6.50015 3.35001 5.75015 2.60001 4.80015 2.60001C3.85015 2.60001 3.15015 3.35001 3.15015 4.30001C3.15015 5.25001 3.90015 6.65001 4.85015 6.65001" stroke="#606580" stroke-miterlimit="10" stroke-linecap="round" stroke-linejoin="round"/>
<path d="M3.80014 6.10001C2.60014 6.50001 1.65014 7.60001 1.50014 8.90001C1.45014 9.15001 1.65014 9.35001 1.90014 9.35001H4.45014" stroke="#606580" stroke-miterlimit="10" stroke-linecap="round" stroke-linejoin="round"/>
</svg>
