<svg width="16" height="16" viewBox="0 0 16 16" fill="none" xmlns="http://www.w3.org/2000/svg">
<path d="M3.8501 3.64999C3.8501 2.09999 5.1001 0.849991 6.6501 0.849991C8.2001 0.849991 9.4501 2.09999 9.4501 3.64999C9.4501 5.19999 8.2001 7.54999 6.6501 7.54999C5.1001 7.54999 3.8501 5.19999 3.8501 3.64999Z" stroke="#606580" stroke-miterlimit="10" stroke-linecap="round" stroke-linejoin="round"/>
<path d="M5.04993 12.05H1.74993C1.34993 12.05 1.04993 11.7 1.09993 11.3C1.39993 9.2 2.84993 7.45 4.79993 6.75" stroke="#606580" stroke-miterlimit="10" stroke-linecap="round" stroke-linejoin="round"/>
<path d="M11.2999 15.15C13.3157 15.15 14.9499 13.5158 14.9499 11.5C14.9499 9.48415 13.3157 7.84999 11.2999 7.84999C9.28406 7.84999 7.6499 9.48415 7.6499 11.5C7.6499 13.5158 9.28406 15.15 11.2999 15.15Z" stroke="#606580" stroke-miterlimit="10" stroke-linecap="round" stroke-linejoin="round"/>
<path d="M8.30005 10.45L9.70005 10.75L10.2 10.65C10.8 10.5 11.8 10.5 12.4 10.65L12.9 10.75L14.3 10.45" stroke="#606580" stroke-miterlimit="10" stroke-linecap="round" stroke-linejoin="round"/>
<path d="M10.1001 12.8H10.1501C10.8501 12.95 11.6001 12.95 12.3501 12.8H12.4001" stroke="#606580" stroke-miterlimit="10" stroke-linecap="round" stroke-linejoin="round"/>
<path d="M9.60005 11L9.90005 12.05C10.05 12.5 9.90005 13.05 9.55005 13.35" stroke="#606580" stroke-miterlimit="10" stroke-linecap="round" stroke-linejoin="round"/>
<path d="M12.9502 11L12.6502 12.05C12.5002 12.5 12.6502 13.05 13.0002 13.35" stroke="#606580" stroke-miterlimit="10" stroke-linecap="round" stroke-linejoin="round"/>
</svg>
