<svg width="16" height="16" viewBox="0 0 16 16" fill="none" xmlns="http://www.w3.org/2000/svg">
<path d="M4.3501 4C4.3501 2.35 5.7001 1 7.3501 1C9.0001 1 10.3501 2.35 10.3501 4C10.3501 5.65 9.0001 8.2 7.3501 8.2C5.7001 8.2 4.3501 5.7 4.3501 4Z" stroke="#606580" stroke-miterlimit="10" stroke-linecap="round" stroke-linejoin="round"/>
<path d="M4.05004 13.05H2.10004C1.70004 13.05 1.35004 12.65 1.40004 12.25C1.70004 9.95001 3.30004 8.10001 5.40004 7.35001" stroke="#606580" stroke-miterlimit="10" stroke-linecap="round" stroke-linejoin="round"/>
<path d="M9.84995 14.1C9.99995 14.1 10.1 14.15 10.25 14.15C11.5 14.15 12.55 13.15 12.55 11.85C12.55 10.55 11.55 9.54999 10.25 9.54999C8.94995 9.54999 7.94995 10.55 7.94995 11.85C7.94995 12 7.94995 12.1 7.99995 12.2" stroke="#606580" stroke-miterlimit="10" stroke-linecap="round" stroke-linejoin="round"/>
<path d="M10.45 9.59998H13.75" stroke="#606580" stroke-miterlimit="10" stroke-linecap="round" stroke-linejoin="round"/>
<path d="M10.85 9.59998H10.25" stroke="#606580" stroke-miterlimit="10" stroke-linecap="round" stroke-linejoin="round"/>
<path d="M10.0499 13.25L9.1499 14.1L9.9999 15" stroke="#606580" stroke-miterlimit="10" stroke-linecap="round" stroke-linejoin="round"/>
<path d="M13.7 10.5L14.6 9.59998L13.75 8.69998" stroke="#606580" stroke-miterlimit="10" stroke-linecap="round" stroke-linejoin="round"/>
</svg>
