<svg width="16" height="16" viewBox="0 0 16 16" fill="none" xmlns="http://www.w3.org/2000/svg">
<path d="M4.25 4.1C4.25 2.4 5.65 1 7.35 1C9.05 1 10.45 2.4 10.45 4.1C10.45 5.8 9.05 8.45 7.35 8.45C5.65 8.45 4.25 5.85 4.25 4.1Z" stroke="#606580" stroke-miterlimit="10" stroke-linecap="round" stroke-linejoin="round"/>
<path d="M5.60001 13.45H1.90001C1.45001 13.45 1.15001 13.05 1.20001 12.65C1.50001 10.3 3.15001 8.35001 5.35001 7.60001" stroke="#606580" stroke-miterlimit="10" stroke-linecap="round" stroke-linejoin="round"/>
<path d="M11.6 10.2L12.05 10.35C12.15 10.4 12.25 10.4 12.35 10.45L12.8 10.65L13 11.05C13.05 11.15 13.1 11.2 13.1 11.3L13.25 11.75L13.1 12.2C13.05 12.3 13.05 12.35 13 12.45L12.8 12.85L12.35 13.05C12.25 13.1 12.15 13.15 12.1 13.15L11.65 13.3L11.2 13.15C11.1 13.1 11 13.1 10.95 13.05L10.5 12.85L10.2 12.5C10.15 12.4 10.1 12.35 10.1 12.25L9.95 11.8L10.1 11.35C10.15 11.25 10.15 11.15 10.2 11.1L10.4 10.7L10.85 10.45C10.95 10.4 11 10.35 11.1 10.35L11.6 10.2ZM11.85 8.60001H11.3C11.1 8.60001 10.95 8.75001 10.9 8.95001L10.8 9.40001C10.65 9.45001 10.5 9.50001 10.35 9.60001L10 9.30001C9.95 9.25001 9.85 9.25001 9.75 9.25001C9.65 9.25001 9.55 9.30001 9.45 9.35001L9.05 9.75001C8.9 9.90001 8.9 10.1 9 10.25L9.25 10.65C9.2 10.8 9.1 10.95 9.05 11.1L8.6 11.15C8.4 11.2 8.25 11.35 8.25 11.55V12.1C8.25 12.3 8.4 12.45 8.6 12.5L9.05 12.6C9.1 12.75 9.15 12.9 9.25 13.05L9 13.4C8.9 13.55 8.9 13.75 9.05 13.9L9.45 14.3C9.55 14.4 9.65 14.4 9.75 14.4C9.85 14.4 9.9 14.35 10 14.35L10.4 14.1C10.55 14.15 10.7 14.25 10.85 14.25L10.95 14.7C11 14.9 11.15 15.05 11.35 15.05H11.9C12.1 15.05 12.25 14.9 12.3 14.7L12.4 14.25C12.55 14.2 12.7 14.15 12.85 14.05L13.25 14.3C13.3 14.35 13.4 14.35 13.5 14.35C13.6 14.35 13.7 14.3 13.8 14.25L14.2 13.85C14.35 13.7 14.35 13.5 14.25 13.35L13.85 13C13.9 12.85 14 12.7 14.05 12.55L14.5 12.5C14.7 12.45 14.85 12.3 14.85 12.1V11.5C14.85 11.3 14.7 11.15 14.5 11.1L14.05 11C14 10.85 13.95 10.7 13.85 10.55L14.1 10.2C14.2 10.05 14.2 9.85001 14.05 9.70001L13.65 9.30001C13.55 9.25001 13.45 9.20001 13.35 9.20001C13.25 9.20001 13.2 9.25001 13.1 9.25001L12.7 9.50001C12.55 9.40001 12.4 9.35001 12.25 9.30001L12.15 8.85001C12.2 8.75001 12.05 8.60001 11.85 8.60001Z" fill="#606580"/>
</svg>
