<svg width="16" height="17" viewBox="0 0 16 17" fill="none" xmlns="http://www.w3.org/2000/svg">
<path d="M3.9502 5.05002C3.9502 3.40002 5.3002 2.05002 6.9502 2.05002C8.6002 2.05002 9.9502 3.40002 9.9502 5.05002C9.9502 6.70002 8.6002 9.25002 6.9502 9.25002C5.3002 9.25002 3.9502 6.70002 3.9502 5.05002Z" stroke="#606580" stroke-miterlimit="10" stroke-linecap="round" stroke-linejoin="round"/>
<path d="M4.45014 14.05H1.70014C1.30014 14.05 0.950138 13.7 1.00014 13.25C1.30014 10.95 2.90014 9.10004 5.00014 8.35004" stroke="#606580" stroke-miterlimit="10" stroke-linecap="round" stroke-linejoin="round"/>
<path d="M10.9002 8.4L7.35019 14.55C7.25019 14.75 7.40019 15 7.60019 15H14.7002C14.9002 15 15.0502 14.75 14.9502 14.55L11.4002 8.4C11.3002 8.2 11.0002 8.2 10.9002 8.4Z" stroke="#606580" stroke-miterlimit="10" stroke-linecap="round" stroke-linejoin="round"/>
<path d="M11.1499 10.9V12.3" stroke="#606580" stroke-miterlimit="10" stroke-linecap="round" stroke-linejoin="round"/>
<path d="M11.1499 13.45V13.65" stroke="#606580" stroke-miterlimit="10" stroke-linecap="round" stroke-linejoin="round"/>
</svg>
