<svg width="17" height="16" viewBox="0 0 17 16" fill="none" xmlns="http://www.w3.org/2000/svg">
<path d="M3.2998 3.35C3.2998 2.2 4.2498 1.25 5.3998 1.25C6.5498 1.25 7.4998 2.2 7.4998 3.35C7.4998 4.5 6.5498 6.3 5.3998 6.3C4.2498 6.3 3.2998 4.55 3.2998 3.35Z" stroke="#606580" stroke-miterlimit="10" stroke-linecap="round" stroke-linejoin="round"/>
<path d="M3.19995 9.7H1.69995C1.39995 9.7 1.19995 9.45 1.19995 9.15C1.39995 7.55 2.49995 6.25 3.99995 5.7" stroke="#606580" stroke-miterlimit="10" stroke-linecap="round" stroke-linejoin="round"/>
<path d="M11.7498 13.85C12.2998 14.15 12.7998 14.4 13.3498 14.7C13.3998 14.75 13.4998 14.75 13.5498 14.75C13.6498 14.75 13.6998 14.75 13.7998 14.65C13.9498 14.55 13.9998 14.4 13.9498 14.25C13.7998 13.25 13.5998 12.25 13.4498 11.25C13.4498 11.15 13.4498 11.1 13.4998 11.05C14.2498 10.35 14.9498 9.65 15.6498 8.95C15.7498 8.85 15.8498 8.7 15.7998 8.5C15.7498 8.35 15.5998 8.25 15.4498 8.2C14.4498 8.05 13.4498 7.9 12.4498 7.75C12.3998 7.75 12.3498 7.7 12.2998 7.65C12.0498 7.15 11.7998 6.65 11.5498 6.2C11.3498 5.8 11.1498 5.35 10.8998 4.95C10.8498 4.8 10.6998 4.7 10.5498 4.7C10.3998 4.7 10.2498 4.8 10.1998 4.95C10.1998 5 10.1498 5 10.1498 5.05C9.6998 5.95 9.2498 6.8 8.8498 7.7C8.8498 7.75 8.7998 7.8 8.7498 7.8C8.3498 7.85 7.9498 7.9 7.5498 8C6.8998 8.1 6.2998 8.2 5.6498 8.25C5.4498 8.3 5.2998 8.45 5.2998 8.7C5.2998 8.8 5.3998 8.9 5.4498 9C6.1498 9.7 6.8998 10.4 7.5998 11.1C7.6498 11.15 7.6998 11.2 7.6498 11.3C7.4998 12.1 7.3498 12.9 7.2498 13.7C7.1998 13.95 7.1498 14.15 7.1498 14.4C7.1498 14.45 7.1498 14.5 7.1498 14.5C7.1998 14.7 7.3498 14.8 7.5498 14.8C7.5998 14.8 7.6998 14.8 7.7498 14.75C8.1498 14.55 8.4998 14.35 8.8998 14.15" stroke="#606580" stroke-miterlimit="10" stroke-linecap="round" stroke-linejoin="round"/>
<path d="M9.60005 12.5L9.05005 11.95L10.7 10.3" stroke="#606580" stroke-miterlimit="10" stroke-linecap="round" stroke-linejoin="round"/>
<path d="M11.2502 10.55C11.692 10.55 12.0502 10.1918 12.0502 9.74998C12.0502 9.30815 11.692 8.94998 11.2502 8.94998C10.8084 8.94998 10.4502 9.30815 10.4502 9.74998C10.4502 10.1918 10.8084 10.55 11.2502 10.55Z" stroke="#606580" stroke-miterlimit="10" stroke-linecap="round" stroke-linejoin="round"/>
<path d="M10.4499 11.7L9.8999 11.15" stroke="#606580" stroke-miterlimit="10" stroke-linecap="round" stroke-linejoin="round"/>
</svg>
