<svg width="16" height="17" viewBox="0 0 16 17" fill="none" xmlns="http://www.w3.org/2000/svg">
<path d="M5.1499 4.55C5.1499 2.85 6.4999 1.5 8.1999 1.5C9.8999 1.5 11.2499 2.85 11.2499 4.55C11.2499 6.25 9.8999 8.85 8.1999 8.85C6.4999 8.85 5.1499 6.25 5.1499 4.55Z" stroke="#606580" stroke-miterlimit="10" stroke-linecap="round" stroke-linejoin="round"/>
<path d="M6.44991 13.75H2.79991C2.34991 13.75 2.04991 13.35 2.09991 12.95C2.39991 10.6 3.99991 8.70001 6.19991 7.95001" stroke="#606580" stroke-miterlimit="10" stroke-linecap="round" stroke-linejoin="round"/>
<path d="M10.1001 7.95001C10.6501 8.15001 11.2001 8.40001 11.6501 8.70001" stroke="#606580" stroke-miterlimit="10" stroke-linecap="round" stroke-linejoin="round"/>
<path d="M12.2499 11V12.65H13.8999V13.85H12.2499V15.5H11.0499V13.85H9.3999V12.65H11.0499V11H12.2499ZM12.2499 10H11.0499C10.4999 10 10.0499 10.45 10.0499 11V11.65H9.3999C8.8499 11.65 8.3999 12.1 8.3999 12.65V13.85C8.3999 14.4 8.8499 14.85 9.3999 14.85H10.0499V15.5C10.0499 16.05 10.4999 16.5 11.0499 16.5H12.2499C12.7999 16.5 13.2499 16.05 13.2499 15.5V14.85H13.8999C14.4499 14.85 14.8999 14.4 14.8999 13.85V12.65C14.8999 12.1 14.4499 11.65 13.8999 11.65H13.2499V11C13.2499 10.45 12.7999 10 12.2499 10Z" fill="#606580"/>
</svg>
