<svg width="16" height="16" viewBox="0 0 16 16" fill="none" xmlns="http://www.w3.org/2000/svg">
<path d="M4.5498 4.5C4.5498 2.55 6.0998 1 8.0498 1C9.9998 1 11.5498 2.55 11.5498 4.5C11.5498 6.45 9.9998 9.4 8.0498 9.4C6.0998 9.4 4.5498 6.45 4.5498 4.5Z" stroke="#606580" stroke-miterlimit="10" stroke-linecap="round" stroke-linejoin="round"/>
<path d="M6.04997 15H1.89997C1.39997 15 1.04997 14.55 1.09997 14.1C1.44997 11.45 3.29997 9.24999 5.74997 8.39999" stroke="#606580" stroke-miterlimit="10" stroke-linecap="round" stroke-linejoin="round"/>
<path d="M10.2 8.35001C10.85 8.55001 11.45 8.85001 12 9.20001" stroke="#606580" stroke-miterlimit="10" stroke-linecap="round" stroke-linejoin="round"/>
<path d="M8.6001 12.8L10.6001 14.8C10.7001 14.9 10.9001 14.9 11.0501 14.8L14.9501 10.9" stroke="#606580" stroke-miterlimit="10" stroke-linecap="round" stroke-linejoin="round"/>
</svg>
