<svg width="16" height="16" viewBox="0 0 16 16" fill="none" xmlns="http://www.w3.org/2000/svg">
<path d="M8.30005 7.99997H11.7" stroke="#606580" stroke-miterlimit="10" stroke-linecap="round" stroke-linejoin="round"/>
<path d="M9.75 7.99995V3.14995H11.7" stroke="#606580" stroke-miterlimit="10" stroke-linecap="round" stroke-linejoin="round"/>
<path d="M13.4499 4.79995C14.3059 4.79995 14.9999 4.10599 14.9999 3.24995C14.9999 2.39391 14.3059 1.69995 13.4499 1.69995C12.5939 1.69995 11.8999 2.39391 11.8999 3.24995C11.8999 4.10599 12.5939 4.79995 13.4499 4.79995Z" stroke="#606580" stroke-miterlimit="10" stroke-linecap="round" stroke-linejoin="round"/>
<path d="M9.75 7.99997V12.85H11.7" stroke="#606580" stroke-miterlimit="10" stroke-linecap="round" stroke-linejoin="round"/>
<path d="M13.4499 14.3C14.3059 14.3 14.9999 13.606 14.9999 12.75C14.9999 11.8939 14.3059 11.2 13.4499 11.2C12.5939 11.2 11.8999 11.8939 11.8999 12.75C11.8999 13.606 12.5939 14.3 13.4499 14.3Z" stroke="#606580" stroke-miterlimit="10" stroke-linecap="round" stroke-linejoin="round"/>
<path d="M13.4499 9.54997C14.3059 9.54997 14.9999 8.85601 14.9999 7.99997C14.9999 7.14393 14.3059 6.44997 13.4499 6.44997C12.5939 6.44997 11.8999 7.14393 11.8999 7.99997C11.8999 8.85601 12.5939 9.54997 13.4499 9.54997Z" stroke="#606580" stroke-miterlimit="10" stroke-linecap="round" stroke-linejoin="round"/>
<path d="M2.55005 5.99997C2.55005 5.14997 3.25005 4.44997 4.10005 4.44997C4.95005 4.44997 5.65005 5.14997 5.65005 5.99997C5.65005 6.84997 4.95005 8.19997 4.10005 8.19997C3.25005 8.19997 2.55005 6.89997 2.55005 5.99997Z" stroke="#606580" stroke-miterlimit="10" stroke-linecap="round" stroke-linejoin="round"/>
<path d="M5.10001 7.74997C6.25001 8.09997 7.10001 9.09997 7.25001 10.35C7.30001 10.55 7.10001 10.75 6.90001 10.75H1.40001C1.20001 10.75 1.00001 10.55 1.05001 10.35C1.20001 9.14997 2.05001 8.14997 3.15001 7.79997" stroke="#606580" stroke-miterlimit="10" stroke-linecap="round" stroke-linejoin="round"/>
</svg>
