<svg width="16" height="16" viewBox="0 0 16 16" fill="none" xmlns="http://www.w3.org/2000/svg">
<path d="M4.09985 4.2C4.09985 2.4 5.49985 1 7.24985 1C8.99985 1 10.4499 2.4 10.4499 4.2C10.4499 6 9.04985 8.65 7.24985 8.65C5.44985 8.65 4.09985 5.95 4.09985 4.2Z" stroke="#606580" stroke-miterlimit="10" stroke-linecap="round" stroke-linejoin="round"/>
<path d="M5.44983 13.7H1.69983C1.24983 13.7 0.899832 13.3 0.949832 12.85C1.24983 10.45 2.94983 8.45001 5.19983 7.70001" stroke="#606580" stroke-miterlimit="10" stroke-linecap="round" stroke-linejoin="round"/>
<path d="M10.4997 15L9.44971 13.95L12.5497 10.85" stroke="#606580" stroke-miterlimit="10" stroke-linecap="round" stroke-linejoin="round"/>
<path d="M13.5997 11.3C14.4005 11.3 15.0497 10.6508 15.0497 9.84999C15.0497 9.04918 14.4005 8.39999 13.5997 8.39999C12.7988 8.39999 12.1497 9.04918 12.1497 9.84999C12.1497 10.6508 12.7988 11.3 13.5997 11.3Z" stroke="#606580" stroke-miterlimit="10" stroke-linecap="round" stroke-linejoin="round"/>
<path d="M12.0498 13.45L10.9998 12.4" stroke="#606580" stroke-miterlimit="10" stroke-linecap="round" stroke-linejoin="round"/>
</svg>
