<svg width="16" height="16" viewBox="0 0 16 16" fill="none" xmlns="http://www.w3.org/2000/svg">
<path d="M5.4502 5.65001C5.4502 4.15001 6.6502 2.90001 8.2002 2.90001C9.7502 2.90001 10.9502 4.10001 10.9502 5.65001C10.9502 7.20001 9.7002 9.50001 8.2002 9.50001C6.7002 9.50001 5.4502 7.15001 5.4502 5.65001Z" stroke="#606580" stroke-miterlimit="10" stroke-linecap="round" stroke-linejoin="round"/>
<path d="M5.90004 13.85H3.40004C3.00004 13.85 2.75004 13.5 2.80004 13.15C3.05004 11.1 4.50004 9.35001 6.45004 8.70001" stroke="#606580" stroke-miterlimit="10" stroke-linecap="round" stroke-linejoin="round"/>
<path d="M11.7499 8.75001L8.5499 14.25C8.4499 14.45 8.5999 14.7 8.7999 14.7H15.1999C15.3999 14.7 15.5499 14.45 15.4499 14.25L12.2499 8.75001C12.1499 8.55001 11.8999 8.55001 11.7499 8.75001Z" stroke="#606580" stroke-miterlimit="10" stroke-linecap="round" stroke-linejoin="round"/>
<path d="M12 11V12.25" stroke="#606580" stroke-miterlimit="10" stroke-linecap="round" stroke-linejoin="round"/>
<path d="M12 13.35V13.5" stroke="#606580" stroke-miterlimit="10" stroke-linecap="round" stroke-linejoin="round"/>
<path d="M0.5 5.05001L1.85 3.70001L3.25 5.05001" stroke="#606580" stroke-miterlimit="10" stroke-linecap="round" stroke-linejoin="round"/>
<path d="M0.5 2.65L1.85 1.3L3.25 2.65" stroke="#606580" stroke-miterlimit="10" stroke-linecap="round" stroke-linejoin="round"/>
</svg>
