<svg width="16" height="16" viewBox="0 0 16 16" fill="none" xmlns="http://www.w3.org/2000/svg">
<path d="M6.82495 10.1798L9.57495 10.1798L9.57495 5.50001L6.82495 5.50001L6.82495 10.1798Z" stroke="#606580" stroke-miterlimit="10" stroke-linecap="round" stroke-linejoin="round"/>
<path d="M11.35 9.38424V7.27833C11.35 6.29557 10.5 5.5468 9.5 5.5468" stroke="#606580" stroke-miterlimit="10" stroke-linecap="round" stroke-linejoin="round"/>
<path d="M5 9.38424V7.27833C5 6.29557 5.85 5.5 6.85 5.5" stroke="#606580" stroke-miterlimit="10" stroke-linecap="round" stroke-linejoin="round"/>
<path d="M6.80005 10.1798V15" stroke="#606580" stroke-miterlimit="10" stroke-linecap="round" stroke-linejoin="round"/>
<path d="M9.55005 15V10.1798" stroke="#606580" stroke-miterlimit="10" stroke-linecap="round" stroke-linejoin="round"/>
<path d="M8.19995 4C9.02838 4 9.69995 3.32843 9.69995 2.5C9.69995 1.67157 9.02838 1 8.19995 1C7.37152 1 6.69995 1.67157 6.69995 2.5C6.69995 3.32843 7.37152 4 8.19995 4Z" stroke="#606580" stroke-miterlimit="10" stroke-linecap="round" stroke-linejoin="round"/>
</svg>
