<svg width="16" height="16" viewBox="0 0 16 16" fill="none" xmlns="http://www.w3.org/2000/svg">
<path d="M3.79956 6.44999C3.79956 4.84999 5.09956 3.54999 6.69956 3.54999C8.29956 3.54999 9.59956 4.84999 9.59956 6.44999C9.59956 8.04999 8.29956 10.5 6.69956 10.5C5.09956 10.5 3.79956 7.99999 3.79956 6.44999Z" stroke="#606580" stroke-miterlimit="10" stroke-linecap="round" stroke-linejoin="round"/>
<path d="M8.44959 9.59999C10.5496 10.25 12.0996 12.1 12.3996 14.35C12.4496 14.75 12.1496 15.1 11.7496 15.1H1.64959C1.24959 15.1 0.949593 14.75 0.999593 14.35C1.29959 12.15 2.79959 10.35 4.84959 9.64999" stroke="#606580" stroke-miterlimit="10" stroke-linecap="round" stroke-linejoin="round"/>
<path d="M11.7495 4.95L15.0495 4" stroke="#606580" stroke-miterlimit="10" stroke-linecap="round" stroke-linejoin="round"/>
<path d="M10.5996 2.64999L12.2496 0.899994" stroke="#606580" stroke-miterlimit="10" stroke-linecap="round" stroke-linejoin="round"/>
<path d="M11.9495 7.5L14.6495 8.1" stroke="#606580" stroke-miterlimit="10" stroke-linecap="round" stroke-linejoin="round"/>
</svg>
