<svg width="16" height="16" viewBox="0 0 16 16" fill="none" xmlns="http://www.w3.org/2000/svg">
<path d="M4.6001 4.1C4.6001 2.4 6.0001 1 7.7001 1C9.4001 1 10.8001 2.4 10.8001 4.1C10.8001 5.8 9.4001 8.4 7.7001 8.4C6.0001 8.4 4.6001 5.8 4.6001 4.1Z" stroke="#606580" stroke-miterlimit="10" stroke-linecap="round" stroke-linejoin="round"/>
<path d="M5.94991 13.35H2.29991C1.84991 13.35 1.54991 12.95 1.59991 12.55C1.89991 10.2 3.54991 8.29999 5.69991 7.54999" stroke="#606580" stroke-miterlimit="10" stroke-linecap="round" stroke-linejoin="round"/>
<path d="M14.4001 13.45V10.4L11.7501 8.89999L9.1001 10.4V13.45L11.7501 15L14.4001 13.45Z" stroke="#606580" stroke-miterlimit="10" stroke-linecap="round" stroke-linejoin="round"/>
<path d="M9.1001 10.4L11.7501 11.95L14.4001 10.4" stroke="#606580" stroke-miterlimit="10" stroke-linecap="round" stroke-linejoin="round"/>
</svg>
