<svg width="17" height="16" viewBox="0 0 17 16" fill="none" xmlns="http://www.w3.org/2000/svg">
<path d="M6.19995 6.55C6.19995 5.3 7.24995 4.25 8.49995 4.25C9.74995 4.25 10.8 5.3 10.8 6.55C10.8 7.8 9.74995 9.75 8.49995 9.75C7.24995 9.75 6.19995 7.85 6.19995 6.55Z" stroke="#606580" stroke-miterlimit="10" stroke-linecap="round" stroke-linejoin="round"/>
<path d="M3.94995 12.85C4.19995 11.1 5.39995 9.65001 6.99995 9.10001" stroke="#606580" stroke-miterlimit="10" stroke-linecap="round" stroke-linejoin="round"/>
<path d="M9.8999 9.10001C11.5499 9.65001 12.7999 11.1 13.0499 12.85" stroke="#606580" stroke-miterlimit="10" stroke-linecap="round" stroke-linejoin="round"/>
<path d="M8.5 15C12.366 15 15.5 11.866 15.5 8C15.5 4.13401 12.366 1 8.5 1C4.63401 1 1.5 4.13401 1.5 8C1.5 11.866 4.63401 15 8.5 15Z" stroke="#606580" stroke-miterlimit="10" stroke-linecap="round" stroke-linejoin="round"/>
</svg>
