<svg width="16" height="16" viewBox="0 0 16 16" fill="none" xmlns="http://www.w3.org/2000/svg">
<path d="M15 4.1C10.9 1.55 5.10003 1.55 1.00003 4.1C0.75003 4.3 2.50003 6.55 2.50003 6.85V9.45C5.50003 11.35 10.45 11.35 13.45 9.45V6.85C13.5 6.55 15.25 4.25 15 4.1Z" stroke="#606580" stroke-miterlimit="10" stroke-linecap="round" stroke-linejoin="round"/>
<path d="M9.5999 6.60001C9.5999 7.50001 8.8999 8.20001 7.9999 8.20001C7.0999 8.20001 6.3999 7.50001 6.3999 6.60001" stroke="#606580" stroke-miterlimit="10" stroke-linecap="round" stroke-linejoin="round"/>
<path d="M8 8.2V4.2" stroke="#606580" stroke-miterlimit="10" stroke-linecap="round" stroke-linejoin="round"/>
<path d="M14 11.2C14 12.65 11.3 13.8 8 13.8C4.7 13.8 2 12.65 2 11.2" stroke="#606580" stroke-miterlimit="10" stroke-linecap="round" stroke-linejoin="round"/>
</svg>
