<svg width="16" height="16" viewBox="0 0 16 16" fill="none" xmlns="http://www.w3.org/2000/svg">
<path d="M3.44995 4.89999C3.44995 3.44999 4.64995 2.29999 6.09995 2.29999C7.54995 2.29999 8.74995 3.49999 8.74995 4.89999C8.74995 6.29999 7.54995 8.59999 6.09995 8.59999C4.64995 8.59999 3.44995 6.34999 3.44995 4.89999Z" stroke="#606580" stroke-miterlimit="10" stroke-linecap="round" stroke-linejoin="round"/>
<path d="M8.6 12.8H1.5C1.15 12.8 0.850003 12.45 0.900003 12.1C1.15 10.1 2.55 8.45001 4.4 7.85001" stroke="#606580" stroke-miterlimit="10" stroke-linecap="round" stroke-linejoin="round"/>
<path d="M13.05 0.75C13 0.75 12.95 0.8 12.9 0.85C12.9 0.85 12.9 0.85 12.9 0.9C12.75 1.25 12.55 1.6 12.4 1.95L12.35 2C12.15 2 12 2.05 11.85 2.05C11.6 2.1 11.35 2.1 11.1 2.15C11 2.15 10.95 2.25 10.95 2.3C10.95 2.35 11 2.4 11 2.4C11.3 2.7 11.55 2.95 11.85 3.25L11.9 3.3C11.85 3.6 11.8 3.95 11.75 4.25C11.75 4.35 11.7 4.45 11.7 4.5V4.55C11.7 4.6 11.8 4.65 11.85 4.65C11.9 4.65 11.9 4.65 11.95 4.65C12.3 4.5 12.65 4.35 13 4.15H13.05H13.1C13.45 4.35 13.8 4.5 14.15 4.7C14.2 4.7 14.2 4.7 14.25 4.7C14.3 4.7 14.3 4.7 14.35 4.65C14.4 4.6 14.4 4.55 14.4 4.5C14.35 4.1 14.25 3.7 14.2 3.3C14.2 3.25 14.2 3.25 14.2 3.2C14.5 3 14.75 2.7 15.05 2.45C15.1 2.4 15.1 2.35 15.1 2.3C15.1 2.25 15.05 2.2 14.95 2.2C14.55 2.15 14.15 2.1 13.75 2.05C13.7 2.05 13.7 2.05 13.7 2C13.6 1.8 13.5 1.6 13.4 1.4C13.3 1.25 13.25 1.05 13.15 0.9C13.15 0.8 13.1 0.75 13.05 0.75Z" stroke="#606580" stroke-miterlimit="10" stroke-linecap="round" stroke-linejoin="round"/>
<path d="M13.05 6C13 6 12.95 6.05 12.9 6.1C12.9 6.1 12.9 6.1 12.9 6.15C12.75 6.5 12.55 6.85 12.4 7.2L12.35 7.25C12.2 7.3 12.05 7.3 11.9 7.3C11.65 7.35 11.4 7.35 11.15 7.4C11.05 7.4 11 7.5 11 7.55C11 7.6 11.05 7.65 11.05 7.65C11.35 7.95 11.6 8.2 11.9 8.5L11.95 8.55C11.9 8.85 11.85 9.2 11.8 9.5C11.8 9.6 11.75 9.7 11.75 9.75V9.8C11.75 9.85 11.85 9.9 11.9 9.9C11.95 9.9 11.95 9.9 12 9.9C12.35 9.7 12.7 9.55 13.05 9.35H13.1H13.15C13.5 9.55 13.85 9.7 14.2 9.9C14.25 9.9 14.25 9.9 14.3 9.9C14.35 9.9 14.35 9.9 14.4 9.85C14.45 9.8 14.45 9.75 14.45 9.7C14.4 9.3 14.3 8.9 14.25 8.5C14.25 8.45 14.25 8.45 14.25 8.4C14.55 8.1 14.8 7.85 15.1 7.55C15.15 7.5 15.15 7.45 15.15 7.4C15.15 7.35 15.1 7.3 15 7.3C14.6 7.25 14.2 7.2 13.8 7.15C13.75 7.15 13.75 7.15 13.75 7.1C13.65 6.9 13.55 6.7 13.45 6.5C13.35 6.35 13.3 6.15 13.2 6C13.15 6.05 13.1 6 13.05 6Z" stroke="#606580" stroke-miterlimit="10" stroke-linecap="round" stroke-linejoin="round"/>
<path d="M13.05 11.25C13 11.25 12.95 11.3 12.9 11.35C12.9 11.35 12.9 11.35 12.9 11.4C12.75 11.75 12.55 12.1 12.4 12.45L12.35 12.5C12.2 12.55 12.05 12.55 11.9 12.55C11.65 12.6 11.4 12.6 11.15 12.65C11.05 12.65 11 12.75 11 12.8C11 12.85 11.05 12.9 11.05 12.9C11.35 13.2 11.6 13.45 11.9 13.75L11.95 13.8C11.9 14.1 11.85 14.45 11.8 14.75C11.8 14.85 11.75 14.95 11.75 15V15.05C11.75 15.1 11.85 15.15 11.9 15.15C11.95 15.15 11.95 15.15 12 15.15C12.35 14.95 12.7 14.8 13.05 14.6H13.1H13.15C13.5 14.8 13.85 14.95 14.2 15.15C14.25 15.15 14.25 15.15 14.3 15.15C14.35 15.15 14.35 15.15 14.4 15.1C14.45 15.05 14.45 15 14.45 14.95C14.4 14.55 14.3 14.15 14.25 13.75C14.25 13.7 14.25 13.7 14.25 13.65C14.55 13.35 14.8 13.1 15.1 12.8C15.15 12.75 15.15 12.7 15.15 12.65C15.15 12.6 15.1 12.55 15 12.55C14.6 12.5 14.2 12.45 13.8 12.4C13.75 12.4 13.75 12.4 13.75 12.35C13.65 12.15 13.55 11.95 13.45 11.75C13.35 11.6 13.3 11.4 13.2 11.25C13.15 11.3 13.1 11.25 13.05 11.25Z" stroke="#606580" stroke-miterlimit="10" stroke-linecap="round" stroke-linejoin="round"/>
</svg>
