<svg width="19" height="23" viewBox="0 0 19 23" fill="none" xmlns="http://www.w3.org/2000/svg">
<path d="M3.5127 7.075V5.875C3.5127 3.175 5.68769 1 8.38769 1H8.6127" stroke="#97A3BA" stroke-miterlimit="10" stroke-linecap="round" stroke-linejoin="round"/>
<path d="M9.7 16.9148H2.425C1.6 16.9148 1 16.2398 1 15.4898V8.51484C1 7.68984 1.675 7.08984 2.425 7.08984H13.375C14.2 7.08984 14.8 7.76484 14.8 8.51484V10.4648" stroke="#97A3BA" stroke-miterlimit="10" stroke-linecap="round" stroke-linejoin="round"/>
<path d="M7.90039 12.6387C8.72882 12.6387 9.40039 11.9671 9.40039 11.1387C9.40039 10.3102 8.72882 9.63867 7.90039 9.63867C7.07196 9.63867 6.40039 10.3102 6.40039 11.1387C6.40039 11.9671 7.07196 12.6387 7.90039 12.6387Z" stroke="#97A3BA" stroke-miterlimit="10" stroke-linecap="round" stroke-linejoin="round"/>
<path d="M7.90039 12.7891V14.2891" stroke="#97A3BA" stroke-miterlimit="10" stroke-linecap="round" stroke-linejoin="round"/>
<path d="M12.0996 15.175C12.0996 13.975 13.0746 13 14.2746 13C15.4746 13 16.4496 13.975 16.4496 15.175C16.4496 16.375 15.4746 18.175 14.2746 18.175C13.0746 18.175 12.0996 16.3 12.0996 15.175Z" stroke="#97A3BA" stroke-miterlimit="10" stroke-linecap="round" stroke-linejoin="round"/>
<path d="M15.55 17.5C17.125 18.025 18.25 19.375 18.475 21.025C18.55 21.325 18.25 21.625 17.95 21.625H10.525C10.225 21.625 10 21.325 10 21.025C10.225 19.375 11.35 18.025 12.85 17.575" stroke="#97A3BA" stroke-miterlimit="10" stroke-linecap="round" stroke-linejoin="round"/>
</svg>
