<svg width="16" height="16" viewBox="0 0 16 16" fill="none" xmlns="http://www.w3.org/2000/svg">
<path d="M4.75 4.1C4.75 2.4 6.15 1 7.85 1C9.55 1 10.95 2.4 10.95 4.1C10.95 5.8 9.55 8.45 7.85 8.45C6.15 8.45 4.75 5.85 4.75 4.1Z" stroke="#606580" stroke-miterlimit="10" stroke-linecap="round" stroke-linejoin="round"/>
<path d="M6.10001 13.45H2.40001C1.95001 13.45 1.65001 13.05 1.70001 12.65C2.00001 10.3 3.65001 8.35001 5.85001 7.60001" stroke="#606580" stroke-miterlimit="10" stroke-linecap="round" stroke-linejoin="round"/>
<path d="M11.2001 15V8.95001C11.2001 8.95001 11.2001 8.95001 12.7501 8.95001C14.3001 8.95001 14.3001 10.5 14.3001 10.5C14.3001 10.5 14.3001 12.05 12.7501 12.05C11.6501 12.05 10.5501 12.05 10.1001 12.05" stroke="#606580" stroke-miterlimit="10" stroke-linecap="round" stroke-linejoin="round"/>
<path d="M12.7499 13.55H10.0999" stroke="#606580" stroke-miterlimit="10" stroke-linecap="round" stroke-linejoin="round"/>
</svg>
