<svg width="16" height="16" viewBox="0 0 16 16" fill="none" xmlns="http://www.w3.org/2000/svg">
<path d="M12.3 15C13.874 15 15.15 13.724 15.15 12.15C15.15 10.576 13.874 9.29999 12.3 9.29999C10.7259 9.29999 9.44995 10.576 9.44995 12.15C9.44995 13.724 10.7259 15 12.3 15Z" stroke="#606580" stroke-miterlimit="10" stroke-linecap="round" stroke-linejoin="round"/>
<path d="M12.2998 11.1V12.35L12.9498 12.7" stroke="#606580" stroke-miterlimit="10" stroke-linecap="round" stroke-linejoin="round"/>
<path d="M4.5498 4.5C4.5498 2.55 6.0998 1 8.0498 1C9.9998 1 11.5498 2.55 11.5498 4.5C11.5498 6.45 9.9998 9.4 8.0498 9.4C6.0998 9.4 4.5498 6.45 4.5498 4.5Z" stroke="#606580" stroke-miterlimit="10" stroke-linecap="round" stroke-linejoin="round"/>
<path d="M5.54997 15H1.89997C1.39997 15 1.04997 14.55 1.09997 14.1C1.44997 11.45 3.29997 9.24999 5.74997 8.39999" stroke="#606580" stroke-miterlimit="10" stroke-linecap="round" stroke-linejoin="round"/>
</svg>
