<svg width="17" height="16" viewBox="0 0 17 16" fill="none" xmlns="http://www.w3.org/2000/svg">
<path d="M2.75049 8.15001C2.75049 6.90001 3.75049 5.85001 5.05049 5.85001C6.35049 5.85001 7.35049 6.85001 7.35049 8.15001C7.35049 9.45001 6.35049 11.35 5.05049 11.35C3.75049 11.35 2.75049 9.40001 2.75049 8.15001Z" stroke="#606580" stroke-miterlimit="10" stroke-linecap="round" stroke-linejoin="round"/>
<path d="M6.45035 10.65C8.10035 11.2 9.35035 12.65 9.60035 14.4C9.65035 14.7 9.40035 15 9.10035 15H1.05035C0.750348 15 0.500348 14.7 0.550348 14.4C0.800348 12.65 2.00035 11.25 3.60035 10.65" stroke="#606580" stroke-miterlimit="10" stroke-linecap="round" stroke-linejoin="round"/>
<path d="M8.00024 3.3C8.00024 2 9.00024 1 10.2502 1C11.5002 1 12.5502 2 12.5502 3.3C12.5502 4.6 11.5502 6.5 10.2502 6.5C8.95024 6.5 8.00024 4.55 8.00024 3.3Z" stroke="#606580" stroke-miterlimit="10" stroke-linecap="round" stroke-linejoin="round"/>
<path d="M11.7001 5.8C13.3501 6.35 14.6001 7.8 14.8501 9.55C14.9001 9.85 14.6501 10.15 14.3501 10.15H10.8501" stroke="#606580" stroke-miterlimit="10" stroke-linecap="round" stroke-linejoin="round"/>
</svg>
