<svg width="16" height="16" viewBox="0 0 16 16" fill="none" xmlns="http://www.w3.org/2000/svg">
<path d="M4.30005 4.15C4.30005 2.4 5.70005 1 7.45005 1C9.20005 1 10.6 2.4 10.6 4.15C10.6 5.9 9.20005 8.6 7.45005 8.6C5.70005 8.6 4.30005 5.9 4.30005 4.15Z" stroke="#606580" stroke-miterlimit="10" stroke-linecap="round" stroke-linejoin="round"/>
<path d="M5.70004 13.65H1.90004C1.45004 13.65 1.10004 13.25 1.20004 12.8C1.50004 10.4 3.20004 8.39999 5.40004 7.64999" stroke="#606580" stroke-miterlimit="10" stroke-linecap="round" stroke-linejoin="round"/>
<path d="M11.2501 13.55C12.4375 13.55 13.4001 12.5874 13.4001 11.4C13.4001 10.2126 12.4375 9.25 11.2501 9.25C10.0627 9.25 9.1001 10.2126 9.1001 11.4C9.1001 12.5874 10.0627 13.55 11.2501 13.55Z" stroke="#606580" stroke-miterlimit="10" stroke-linecap="round" stroke-linejoin="round"/>
<path d="M12.75 12.95L14.8 15" stroke="#606580" stroke-miterlimit="10" stroke-linecap="round" stroke-linejoin="round"/>
</svg>
