<svg width="16" height="16" viewBox="0 0 16 16" fill="none" xmlns="http://www.w3.org/2000/svg">
<path d="M3.94995 3.95002C3.94995 2.20002 5.34995 0.800018 7.09995 0.800018C8.84995 0.800018 10.25 2.20002 10.25 3.95002C10.25 5.70002 8.84995 8.40002 7.09995 8.40002C5.34995 8.40002 3.94995 5.70002 3.94995 3.95002Z" stroke="#606580" stroke-miterlimit="10" stroke-linecap="round" stroke-linejoin="round"/>
<path d="M3.84994 13.45H1.54994C1.09994 13.45 0.749945 13.05 0.849945 12.6C1.14994 10.2 2.84994 8.20001 5.04994 7.45001" stroke="#606580" stroke-miterlimit="10" stroke-linecap="round" stroke-linejoin="round"/>
<path d="M6.1499 12.45C6.9999 14.05 8.6999 15.2 10.6499 15.2C12.5999 15.2 14.2999 14.1 15.1499 12.45" stroke="#606580" stroke-miterlimit="10" stroke-linecap="round" stroke-linejoin="round"/>
<path d="M10.6499 14C11.5059 14 12.1999 13.306 12.1999 12.45C12.1999 11.594 11.5059 10.9 10.6499 10.9C9.79381 10.9 9.09985 11.594 9.09985 12.45C9.09985 13.306 9.79381 14 10.6499 14Z" stroke="#606580" stroke-miterlimit="10" stroke-linecap="round" stroke-linejoin="round"/>
<path d="M15.1499 12.45C14.2999 10.85 12.5999 9.70001 10.6499 9.70001C8.6999 9.70001 6.9999 10.8 6.1499 12.45" stroke="#606580" stroke-miterlimit="10" stroke-linecap="round" stroke-linejoin="round"/>
</svg>
