<svg width="15" height="18" viewBox="0 0 15 18" fill="none" xmlns="http://www.w3.org/2000/svg">
<path d="M4.1543 4.2C4.1543 2.45 5.6043 1 7.3543 1C9.1043 1 10.5543 2.45 10.5543 4.2C10.5543 5.95 9.1043 8.7 7.3543 8.7C5.6043 8.7 4.1543 6 4.1543 4.2Z" stroke="#727689" stroke-miterlimit="10" stroke-linecap="round" stroke-linejoin="round"/>
<path d="M5.55476 13.8H1.75476C1.30476 13.8 0.954763 13.4 1.00476 12.95C1.30476 10.5 3.00476 8.5 5.25476 7.75" stroke="#727689" stroke-miterlimit="10" stroke-linecap="round" stroke-linejoin="round"/>
<path d="M13.175 13.35V10.95C13.175 10.75 13.025 10.6 12.825 10.6H11.675H11.65V10.1C11.65 10.05 11.6 10 11.55 10H9.6C9.55 10 9.5 10.05 9.5 10.1V11.125C9.5 11.175 9.55 11.225 9.6 11.225H11" stroke="#727689" stroke-width="0.8" stroke-miterlimit="10" stroke-linecap="round" stroke-linejoin="round"/>
<path d="M8.55 10.6001H8.35C8.15 10.6001 8 10.7501 8 10.9501V16.6501C8 16.8501 8.15 17.0001 8.35 17.0001H10.4" stroke="#727689" stroke-width="0.8" stroke-miterlimit="10" stroke-linecap="round" stroke-linejoin="round"/>
<path d="M10.8242 15.3L11.6992 16.175C11.7492 16.225 11.8492 16.225 11.8992 16.175L13.6242 14.45" stroke="#727689" stroke-width="0.8" stroke-miterlimit="10" stroke-linecap="round" stroke-linejoin="round"/>
</svg>
