<svg width="17" height="17" viewBox="0 0 17 17" fill="none" xmlns="http://www.w3.org/2000/svg">
<path d="M5.59999 8.90004L8.49999 11.8L11.4 8.90004C13 7.30004 13 4.70004 11.4 3.05004C9.79999 1.45004 7.19999 1.45004 5.54999 3.05004C3.89999 4.65004 3.99999 7.25004 5.59999 8.90004Z" stroke="#606580" stroke-miterlimit="10" stroke-linecap="round" stroke-linejoin="round"/>
<path d="M8.50007 8.00005C9.63226 8.00005 10.5501 7.08224 10.5501 5.95005C10.5501 4.81787 9.63226 3.90005 8.50007 3.90005C7.36789 3.90005 6.45007 4.81787 6.45007 5.95005C6.45007 7.08224 7.36789 8.00005 8.50007 8.00005Z" stroke="#606580" stroke-miterlimit="10" stroke-linecap="round" stroke-linejoin="round"/>
<path d="M11.6 11H12.65L15.75 15.15H1.25L4.35 11H5.4" stroke="#606580" stroke-miterlimit="10" stroke-linecap="round" stroke-linejoin="round"/>
</svg>
