<svg width="17" height="17" viewBox="0 0 17 17" fill="none" xmlns="http://www.w3.org/2000/svg">
<path d="M9.74996 11.9L11.7 13.85L13.65 11.9C14.75 10.8 14.75 9.05003 13.65 7.95003C12.55 6.85003 10.8 6.85003 9.69996 7.95003C8.59996 9.05003 8.64996 10.85 9.74996 11.9Z" stroke="#606580" stroke-miterlimit="10" stroke-linecap="round" stroke-linejoin="round"/>
<path d="M11.7 10.85C12.1971 10.85 12.6 10.4471 12.6 9.95002C12.6 9.45296 12.1971 9.05002 11.7 9.05002C11.203 9.05002 10.8 9.45296 10.8 9.95002C10.8 10.4471 11.203 10.85 11.7 10.85Z" stroke="#606580" stroke-miterlimit="10" stroke-linecap="round" stroke-linejoin="round"/>
<path d="M4.10006 6.25004L6.05006 8.20004L8.00006 6.25004C9.10006 5.15004 9.10006 3.40004 8.00006 2.30004C6.90006 1.20004 5.15006 1.20004 4.05006 2.30004C2.95006 3.40004 3.00006 5.15004 4.10006 6.25004Z" stroke="#606580" stroke-miterlimit="10" stroke-linecap="round" stroke-linejoin="round"/>
<path d="M6.05015 5.20005C6.5472 5.20005 6.95015 4.79711 6.95015 4.30005C6.95015 3.803 6.5472 3.40005 6.05015 3.40005C5.55309 3.40005 5.15015 3.803 5.15015 4.30005C5.15015 4.79711 5.55309 5.20005 6.05015 5.20005Z" stroke="#606580" stroke-miterlimit="10" stroke-linecap="round" stroke-linejoin="round"/>
<path d="M5.7 10.1H2.5L8.15 15.5H11.35" stroke="#606580" stroke-miterlimit="10" stroke-linecap="round" stroke-linejoin="round"/>
</svg>
