<svg width="17" height="17" viewBox="0 0 17 17" fill="none" xmlns="http://www.w3.org/2000/svg">
<path d="M11.7284 5.16279L8.03458 11.5659C7.92594 11.7829 8.0889 12 8.30618 12H15.6938C15.9111 12 16.0741 11.7287 15.9654 11.5659L12.2716 5.16279C12.1086 4.94574 11.837 4.94574 11.7284 5.16279Z" stroke="#606580" stroke-miterlimit="10" stroke-linecap="round" stroke-linejoin="round"/>
<path d="M12 7.5V8.8" stroke="#606580" stroke-miterlimit="10" stroke-linecap="round" stroke-linejoin="round"/>
<path d="M9.85 3.9C9 2.75 7.65 2 6.1 2C3.55 2 1.5 4.05 1.5 6.55C1.5 6.7 1.5 6.9 1.55 7.05C1.85 11.5 6.1 15 6.1 15C7 14.05 7.55 13.55 7.55 13.55" stroke="#606580" stroke-miterlimit="10" stroke-linecap="round" stroke-linejoin="round"/>
<path d="M6.10002 8.60001C7.17698 8.60001 8.05002 7.72697 8.05002 6.65001C8.05002 5.57306 7.17698 4.70001 6.10002 4.70001C5.02307 4.70001 4.15002 5.57306 4.15002 6.65001C4.15002 7.72697 5.02307 8.60001 6.10002 8.60001Z" stroke="#606580" stroke-miterlimit="10" stroke-linecap="round" stroke-linejoin="round"/>
<path d="M12 10.5V10.7" stroke="#606580" stroke-miterlimit="10" stroke-linecap="round" stroke-linejoin="round"/>
</svg>
