<svg width="17" height="17" viewBox="0 0 17 17" fill="none" xmlns="http://www.w3.org/2000/svg">
<path d="M9.25 10.45L12 13.2L14.75 10.45C16.25 8.95001 16.25 6.45001 14.75 4.95001C13.25 3.45001 10.75 3.45001 9.25 4.95001C7.75 6.45001 7.75 8.95001 9.25 10.45Z" stroke="#606580" stroke-miterlimit="10" stroke-linecap="round" stroke-linejoin="round"/>
<path d="M12 9.65C13.077 9.65 13.95 8.77696 13.95 7.7C13.95 6.62304 13.077 5.75 12 5.75C10.9231 5.75 10.05 6.62304 10.05 7.7C10.05 8.77696 10.9231 9.65 12 9.65Z" stroke="#606580" stroke-miterlimit="10" stroke-linecap="round" stroke-linejoin="round"/>
<path d="M7.6 3.90002C6.9 4.05002 6.3 4.40002 5.75 4.95002C4.25 6.45002 4.25 8.95002 5.75 10.45L8.5 13.2L9 12.7" stroke="#606580" stroke-miterlimit="10" stroke-linecap="round" stroke-linejoin="round"/>
<path d="M4.1 3.90002C3.4 4.05002 2.8 4.40002 2.25 4.95002C0.75 6.45002 0.75 8.95002 2.25 10.45L5 13.2L5.5 12.7" stroke="#606580" stroke-miterlimit="10" stroke-linecap="round" stroke-linejoin="round"/>
</svg>
