<svg width="17" height="17" viewBox="0 0 17 17" fill="none" xmlns="http://www.w3.org/2000/svg">
<path d="M9.8 3.95C9 2.75 7.6 2 6.1 2C3.55 2 1.5 4.05 1.5 6.55C1.5 6.7 1.5 6.9 1.55 7.05C1.85 11.5 6.1 15 6.1 15C7 14.05 7.55 13.55 7.55 13.55" stroke="#606580" stroke-miterlimit="10" stroke-linecap="round" stroke-linejoin="round"/>
<path d="M6.10002 8.60001C7.17698 8.60001 8.05002 7.72697 8.05002 6.65001C8.05002 5.57306 7.17698 4.70001 6.10002 4.70001C5.02307 4.70001 4.15002 5.57306 4.15002 6.65001C4.15002 7.72697 5.02307 8.60001 6.10002 8.60001Z" stroke="#606580" stroke-miterlimit="10" stroke-linecap="round" stroke-linejoin="round"/>
<path d="M12.5 8.5L12.5 10" stroke="#606580" stroke-miterlimit="10" stroke-linecap="round" stroke-linejoin="round"/>
<path d="M12.5 13.5C14.433 13.5 16 11.933 16 10C16 8.067 14.433 6.5 12.5 6.5C10.567 6.5 9 8.067 9 10C9 11.933 10.567 13.5 12.5 13.5Z" stroke="#606580" stroke-miterlimit="10" stroke-linecap="round" stroke-linejoin="round"/>
<path d="M12.5 11.5V11.7" stroke="#606580" stroke-miterlimit="10" stroke-linecap="round" stroke-linejoin="round"/>
</svg>
