<svg width="17" height="16" viewBox="0 0 17 16" fill="none" xmlns="http://www.w3.org/2000/svg">
<path d="M8.4999 11.35C10.3501 11.35 11.8499 9.85015 11.8499 7.99999C11.8499 6.14984 10.3501 4.64999 8.4999 4.64999C6.64975 4.64999 5.1499 6.14984 5.1499 7.99999C5.1499 9.85015 6.64975 11.35 8.4999 11.35Z" stroke="#606580" stroke-miterlimit="10" stroke-linecap="round" stroke-linejoin="round"/>
<path d="M8.5 14C11.8137 14 14.5 11.3137 14.5 8C14.5 4.68629 11.8137 2 8.5 2C5.18629 2 2.5 4.68629 2.5 8C2.5 11.3137 5.18629 14 8.5 14Z" stroke="#606580" stroke-miterlimit="10" stroke-linecap="round" stroke-linejoin="round"/>
<path d="M8.5001 8.90001C8.99715 8.90001 9.4001 8.49706 9.4001 8.00001C9.4001 7.50295 8.99715 7.10001 8.5001 7.10001C8.00304 7.10001 7.6001 7.50295 7.6001 8.00001C7.6001 8.49706 8.00304 8.90001 8.5001 8.90001Z" stroke="#606580" stroke-miterlimit="10" stroke-linecap="round" stroke-linejoin="round"/>
<path d="M12.5 8H15.5" stroke="#606580" stroke-miterlimit="10" stroke-linecap="round" stroke-linejoin="round"/>
<path d="M1.5 8H4.5" stroke="#606580" stroke-miterlimit="10" stroke-linecap="round" stroke-linejoin="round"/>
<path d="M8.5 4V1" stroke="#606580" stroke-miterlimit="10" stroke-linecap="round" stroke-linejoin="round"/>
<path d="M8.5 15V12" stroke="#606580" stroke-miterlimit="10" stroke-linecap="round" stroke-linejoin="round"/>
</svg>
