<svg width="17" height="17" viewBox="0 0 17 17" fill="none" xmlns="http://www.w3.org/2000/svg">
<path d="M7.54995 9.95001L5.19995 14H12L9.64995 9.95001C9.19995 9.15001 7.99995 9.15001 7.54995 9.95001Z" stroke="#606580" stroke-miterlimit="10" stroke-linecap="round" stroke-linejoin="round"/>
<path d="M1.75 9.25L15.25 5.75" stroke="#606580" stroke-miterlimit="10" stroke-linecap="round" stroke-linejoin="round"/>
<path d="M4.00005 8.04999C5.21508 8.04999 6.20005 7.06502 6.20005 5.84999C6.20005 4.63497 5.21508 3.64999 4.00005 3.64999C2.78502 3.64999 1.80005 4.63497 1.80005 5.84999C1.80005 7.06502 2.78502 8.04999 4.00005 8.04999Z" stroke="#606580" stroke-miterlimit="10" stroke-linecap="round" stroke-linejoin="round"/>
<path d="M12.9 5.8C13.6732 5.8 14.3 5.1732 14.3 4.4C14.3 3.6268 13.6732 3 12.9 3C12.1268 3 11.5 3.6268 11.5 4.4C11.5 5.1732 12.1268 5.8 12.9 5.8Z" stroke="#606580" stroke-miterlimit="10" stroke-linecap="round" stroke-linejoin="round"/>
</svg>
