<svg width="17" height="17" viewBox="0 0 17 17" fill="none" xmlns="http://www.w3.org/2000/svg">
<path d="M9.95005 9.79999L9.15005 10.55C8.80005 10.85 8.30005 10.85 8.00005 10.55L7.10005 9.79999C6.90005 9.64999 6.80005 9.39999 6.80005 9.14999V6.99999C6.80005 6.49999 7.20005 6.14999 7.65005 6.14999H9.35005C9.85005 6.14999 10.2 6.54999 10.2 6.99999V9.19999C10.2 9.39999 10.1 9.64999 9.95005 9.79999Z" stroke="#606580" stroke-miterlimit="10" stroke-linecap="round" stroke-linejoin="round"/>
<path d="M5.7 6.2V5.55L1 4V5.75C1 8.25 3 10.25 5.5 10.25" stroke="#606580" stroke-miterlimit="10" stroke-linecap="round" stroke-linejoin="round"/>
<path d="M6.30005 2.25L7.05005 4.5" stroke="#606580" stroke-miterlimit="10" stroke-linecap="round" stroke-linejoin="round"/>
<path d="M8.5 4.29999L7.35 2.29999C7.1 1.84999 6.5 1.54999 5.85 1.54999H5.8L5 2.64999" stroke="#606580" stroke-miterlimit="10" stroke-linecap="round" stroke-linejoin="round"/>
<path d="M11.3 6.2V5.55L16 4V5.75C16 8.25 14 10.25 11.5 10.25" stroke="#606580" stroke-miterlimit="10" stroke-linecap="round" stroke-linejoin="round"/>
<path d="M7.24995 10.6L5.89995 11.6L6.49995 12.2L5.34995 12.55L5.14995 12.35C4.89995 12.1 4.44995 12.25 4.44995 12.65" stroke="#606580" stroke-miterlimit="10" stroke-linecap="round" stroke-linejoin="round"/>
<path d="M9.75 10.6L11.1 11.6L10.5 12.2L11.65 12.55L11.85 12.35C12.1 12.1 12.55 12.25 12.55 12.65" stroke="#606580" stroke-miterlimit="10" stroke-linecap="round" stroke-linejoin="round"/>
<path d="M10.7 2.25L9.94995 4.5" stroke="#606580" stroke-miterlimit="10" stroke-linecap="round" stroke-linejoin="round"/>
<path d="M8.5 4.29999L9.65 2.29999C9.9 1.84999 10.5 1.54999 11.15 1.54999H11.2L12 2.64999" stroke="#606580" stroke-miterlimit="10" stroke-linecap="round" stroke-linejoin="round"/>
<path d="M7.6999 13L6.1499 14.2L8.4999 15.4L10.8499 14.2L9.2999 13" stroke="#606580" stroke-miterlimit="10" stroke-linecap="round" stroke-linejoin="round"/>
</svg>
