<svg width="16" height="22" viewBox="0 0 16 22" fill="none" xmlns="http://www.w3.org/2000/svg">
<path d="M6.18175 0.581819C6.18175 0.46132 6.27944 0.363636 6.39993 0.363636H9.59993C9.72043 0.363636 9.81812 0.46132 9.81812 0.581818V20.7273H6.18175V0.581819Z" stroke="#606580" stroke-width="0.727273"/>
<path d="M0.363636 0.581819C0.363636 0.46132 0.46132 0.363636 0.581818 0.363636H3.78182C3.90232 0.363636 4 0.46132 4 0.581818V20.7273H0.363636V0.581819Z" stroke="#606580" stroke-width="0.727273"/>
<path d="M12.0001 0.581819C12.0001 0.46132 12.0978 0.363636 12.2183 0.363636H15.4183C15.5388 0.363636 15.6365 0.46132 15.6365 0.581818V20.7273H12.0001V0.581819Z" stroke="#606580" stroke-width="0.727273"/>
<path d="M0 3.63635H4.36364" stroke="#606580" stroke-width="0.363636"/>
<path d="M11.6365 3.63635H16.0001" stroke="#606580" stroke-width="0.363636"/>
<path d="M0 5.09094H4.36364" stroke="#606580" stroke-width="0.363636"/>
<path d="M11.6365 5.09094H16.0001" stroke="#606580" stroke-width="0.363636"/>
<path d="M0 18.9091H4.36364" stroke="#606580" stroke-width="0.363636"/>
<path d="M11.6365 18.9091H16.0001" stroke="#606580" stroke-width="0.363636"/>
<path d="M5.81812 2.18176H10.1818" stroke="#606580" stroke-width="0.363636"/>
<path d="M5.81812 3.63635H10.1818" stroke="#606580" stroke-width="0.363636"/>
</svg>
