<svg width="17" height="16" viewBox="0 0 17 16" fill="none" xmlns="http://www.w3.org/2000/svg">
<path d="M6.69995 3.19999C5.79995 1.89999 4.64995 1.14999 3.39995 1.14999H1.19995V8.69999H3.39995C4.64995 8.69999 5.84995 9.44999 6.69995 10.75" stroke="#606580" stroke-miterlimit="10" stroke-linecap="round" stroke-linejoin="round"/>
<path d="M12.2 5.94996V1.14996H9.99995C8.74995 1.14996 7.54995 1.89996 6.69995 3.19996V10.65" stroke="#606580" stroke-miterlimit="10" stroke-linecap="round" stroke-linejoin="round"/>
<path d="M12.25 9.44997L12.8 9.59997C12.9 9.64997 13 9.69997 13.15 9.74997L13.65 9.99997L13.9 10.5C13.95 10.6 14 10.7 14.05 10.8L14.2 11.3L14 11.85C13.95 11.95 13.95 12.05 13.85 12.15L13.6 12.65L13.1 12.9C13 12.95 12.9 13 12.8 13.05L12.25 13.2L11.7 13.05C11.6 13 11.5 12.95 11.4 12.95L10.9 12.7L10.65 12.2C10.6 12.1 10.55 12 10.5 11.9L10.35 11.35L10.5 10.8C10.55 10.7 10.55 10.6 10.65 10.5L10.9 9.99997L11.4 9.74997C11.5 9.69997 11.6 9.64997 11.7 9.59997L12.25 9.44997ZM12.55 7.74997H11.9C11.7 7.74997 11.5 7.89997 11.45 8.09997L11.35 8.59997C11.2 8.64997 11 8.69997 10.85 8.79997L10.5 8.54997C10.45 8.49997 10.35 8.44997 10.25 8.44997C10.15 8.44997 9.99995 8.49997 9.94995 8.59997L9.49995 9.04997C9.34995 9.19997 9.34995 9.44997 9.44995 9.59997L9.74995 9.99997C9.64995 10.15 9.59995 10.3 9.54995 10.5L9.04995 10.6C8.84995 10.65 8.69995 10.8 8.69995 11.05V11.65C8.69995 11.85 8.84995 12.05 9.04995 12.1L9.54995 12.2C9.59995 12.35 9.64995 12.55 9.74995 12.7L9.44995 13.1C9.29995 13.25 9.34995 13.5 9.49995 13.65L9.94995 14.1C10.05 14.2 10.15 14.25 10.25 14.25C10.35 14.25 10.45 14.2 10.5 14.15L10.9 13.85C11.05 13.95 11.2 14 11.35 14.05L11.45 14.55C11.5 14.75 11.65 14.9 11.9 14.9H12.55C12.75 14.9 12.95 14.75 13 14.55L13.1 14.05C13.25 14 13.45 13.95 13.6 13.85L14 14.15C14.05 14.2 14.15 14.25 14.25 14.25C14.35 14.25 14.5 14.2 14.55 14.1L15 13.65C15.15 13.5 15.15 13.25 15.05 13.1L14.75 12.7C14.85 12.55 14.9 12.4 14.95 12.2L15.45 12.1C15.65 12.05 15.8 11.9 15.8 11.65V11C15.8 10.8 15.65 10.6 15.45 10.55L14.95 10.45C14.9 10.3 14.85 10.1 14.75 9.94997L15.05 9.54997C15.2 9.39997 15.15 9.14997 15 8.99997L14.55 8.54997C14.45 8.44997 14.35 8.39997 14.25 8.39997C14.15 8.39997 14.05 8.44997 14 8.49997L13.6 8.79997C13.45 8.69997 13.25 8.64997 13.1 8.59997L13 8.09997C12.95 7.94997 12.75 7.74997 12.55 7.74997Z" fill="#606580"/>
</svg>
