<svg width="17" height="17" viewBox="0 0 17 17" fill="none" xmlns="http://www.w3.org/2000/svg">
<path fill-rule="evenodd" clip-rule="evenodd" d="M8.1001 2.7V14C8.1001 15.05 7.3001 15.8 6.6001 15.4L4.7501 14.4C4.2001 14.1 3.8001 13.5 3.5501 12.8L2.6001 9.5C2.3501 8.6 2.3501 7.65 2.6001 6.75L3.5501 3.5C3.7501 2.8 4.2001 2.25 4.8001 2.1L7.0501 1.5C7.6001 1.4 8.1001 1.95 8.1001 2.7Z" stroke="#606580" stroke-miterlimit="10" stroke-linecap="round"/>
<path d="M7.99988 13.05C6.69988 13.75 5.74988 12.05 6.64988 11.05" stroke="#606580" stroke-miterlimit="10" stroke-linecap="round"/>
<path d="M4.85 9.5C5.75 10.5 4.45 11.5 3.5 11.5" stroke="#606580" stroke-miterlimit="10" stroke-linecap="round"/>
<path d="M4.0498 2.90002C3.5998 5.40002 6.3998 5.10002 6.7498 3.40002" stroke="#606580" stroke-miterlimit="10" stroke-linecap="round"/>
<path d="M8.1 7.50001C6.8 9.00001 4.6 8.15001 4.5 6.35001" stroke="#606580" stroke-miterlimit="10" stroke-linecap="round"/>
<path d="M14.5499 4V5.6H11.8999V6.5" stroke="#606580" stroke-miterlimit="10" stroke-linecap="round" stroke-linejoin="round"/>
<path d="M11.05 2V3L10 4.5V6.5" stroke="#606580" stroke-miterlimit="10" stroke-linecap="round" stroke-linejoin="round"/>
<path d="M10 8.5H14.5V7.5" stroke="#606580" stroke-miterlimit="10" stroke-linecap="round" stroke-linejoin="round"/>
<path d="M14.5499 13V11.4H11.8999V10.5" stroke="#606580" stroke-miterlimit="10" stroke-linecap="round" stroke-linejoin="round"/>
<path d="M11.05 15V14L10 12.5V10.5" stroke="#606580" stroke-miterlimit="10" stroke-linecap="round" stroke-linejoin="round"/>
<path d="M14.5 8.5V9.5" stroke="#606580" stroke-miterlimit="10" stroke-linecap="round" stroke-linejoin="round"/>
<path d="M13 3V4" stroke="#606580" stroke-miterlimit="10" stroke-linecap="round" stroke-linejoin="round"/>
<path d="M13 13V14" stroke="#606580" stroke-miterlimit="10" stroke-linecap="round" stroke-linejoin="round"/>
</svg>
