<svg width="17" height="17" viewBox="0 0 17 17" fill="none" xmlns="http://www.w3.org/2000/svg">
<path fill-rule="evenodd" clip-rule="evenodd" d="M7.50005 2.7V14C7.50005 15.05 6.70005 15.8 6.00005 15.4L4.15005 14.4C3.65005 14.1 3.20005 13.5 3.00005 12.75L2.05005 9.5C1.80005 8.6 1.80005 7.65 2.05005 6.75L3.00005 3.55C3.20005 2.85 3.65005 2.3 4.25005 2.15L6.50005 1.5C7.05005 1.4 7.50005 1.95 7.50005 2.7Z" stroke="#606580" stroke-miterlimit="10" stroke-linecap="round"/>
<path d="M7.45008 13.05C6.15008 13.75 5.20008 12.05 6.10008 11.05" stroke="#606580" stroke-miterlimit="10" stroke-linecap="round"/>
<path d="M4.2499 9.5C5.1499 10.5 3.8499 11.5 2.8999 11.5" stroke="#606580" stroke-miterlimit="10" stroke-linecap="round"/>
<path d="M3.45019 2.90002C3.00019 5.40002 5.80019 5.10002 6.15019 3.40002" stroke="#606580" stroke-miterlimit="10" stroke-linecap="round"/>
<path d="M7.5502 7.50001C6.2502 9.00001 4.0502 8.15001 3.9502 6.35001" stroke="#606580" stroke-miterlimit="10" stroke-linecap="round"/>
<path fill-rule="evenodd" clip-rule="evenodd" d="M9.5 2.7V14C9.5 15.05 10.3 15.8 11 15.4L12.85 14.4C13.4 14.1 13.8 13.5 14.05 12.8L15 9.55C15.25 8.65 15.25 7.7 15 6.8L14 3.55C13.8 2.85 13.35 2.3 12.75 2.15L10.5 1.5C9.95 1.4 9.5 1.95 9.5 2.7Z" stroke="#606580" stroke-miterlimit="10" stroke-linecap="round"/>
<path d="M9.5498 13.05C10.8498 13.75 11.7998 12.05 10.8998 11.05" stroke="#606580" stroke-miterlimit="10" stroke-linecap="round"/>
<path d="M12.7499 9.5C11.8499 10.5 13.1499 11.5 14.0999 11.5" stroke="#606580" stroke-miterlimit="10" stroke-linecap="round"/>
<path d="M13.5501 2.90002C14.0001 5.40002 11.2001 5.10002 10.8501 3.40002" stroke="#606580" stroke-miterlimit="10" stroke-linecap="round"/>
<path d="M9.44995 7.50001C10.75 9.00001 12.95 8.15001 13.05 6.35001" stroke="#606580" stroke-miterlimit="10" stroke-linecap="round"/>
</svg>
