<svg width="16" height="17" viewBox="0 0 16 17" fill="none" xmlns="http://www.w3.org/2000/svg">
<path fill-rule="evenodd" clip-rule="evenodd" d="M14.35 14.5H6.9C6.55 14.5 6.25 14.2 6.25 13.85V8.05002C6.25 7.70002 6.55 7.40002 6.9 7.40002H14.35C14.7 7.40002 15 7.70002 15 8.05002V13.85C15 14.2 14.7 14.5 14.35 14.5Z" stroke="#606580" stroke-miterlimit="10" stroke-linecap="round" stroke-linejoin="round"/>
<path d="M6.25 9.5H14.9" stroke="#606580" stroke-miterlimit="10" stroke-linecap="round" stroke-linejoin="round"/>
<path d="M4.5001 12.05C4.1501 12.05 3.8501 11.75 3.8501 11.4V5.65C3.8501 5.3 4.1501 5 4.5001 5H11.9501C12.3001 5 12.6001 5.3 12.6001 5.65" stroke="#606580" stroke-miterlimit="10" stroke-linecap="round" stroke-linejoin="round"/>
<path d="M1.65 9.6C1.3 9.6 1 9.3 1 8.95V3.15C1 2.8 1.3 2.5 1.65 2.5H9.1C9.45 2.5 9.75 2.8 9.75 3.15" stroke="#606580" stroke-miterlimit="10" stroke-linecap="round" stroke-linejoin="round"/>
</svg>
