<svg width="20" height="20" viewBox="0 0 20 20" fill="none" xmlns="http://www.w3.org/2000/svg">
<path d="M10 18.75C5.1875 18.75 1.25 14.8125 1.25 10C1.25 5.1875 5.1875 1.25 10 1.25C13.1875 1.25 15.9375 2.9375 17.5 5.4375C18.3125 6.75 18.75 8.3125 18.75 10" stroke="#97A3BA" stroke-miterlimit="10" stroke-linecap="round" stroke-linejoin="round"/>
<path d="M3.81281 3.81282C7.21576 0.409865 12.7842 0.409865 16.1872 3.81282C19.5901 7.21577 19.5901 12.7842 16.1872 16.1872C13.9333 18.4411 10.7955 19.1924 7.92287 18.5295C6.42026 18.1759 5.00605 17.3804 3.81281 16.1872" stroke="#97A3BA" stroke-miterlimit="10" stroke-linecap="round" stroke-linejoin="round"/>
<path fill-rule="evenodd" clip-rule="evenodd" d="M10 4.375V7.37402C9.58928 6.4979 8 5.93945 8 5.93945L8.66474 8.11902C8.60742 8.04583 8.544 7.97967 8.47383 7.92232C7.71791 7.30445 6 7.56152 6 7.56152L8.50225 10.0785C8.048 9.74162 7.50101 9.45403 7 9.50586C6.02887 9.60632 5 11.0059 5 11.0059H6.63335C5.99502 11.8612 6.13563 13.6033 6.13563 13.6033L8.74833 11.0059H8.80908C8.77071 10.8858 8.75 10.7578 8.75 10.625C8.75 10.0177 9.18315 9.51148 9.75739 9.39853C9.84696 9.19457 9.93381 8.96769 10 8.73429V9.375C10.1895 9.375 10.3691 9.41715 10.53 9.49259C11.1178 8.8793 11.972 7.81272 11.875 6.875C11.7494 5.66109 10 4.375 10 4.375ZM11.2466 10.5319C11.2231 10.2121 11.0791 9.92568 10.86 9.71785L14.0265 6.56982C14.0265 6.56982 14.3478 8.71721 13.5755 9.66211C13.0812 10.2668 12.064 10.4709 11.2466 10.5319ZM11.25 10.625C11.25 11.1124 10.9711 11.5346 10.5642 11.7407C11.143 12.1801 11.8523 12.567 12.5 12.5C13.7139 12.3744 15 10.625 15 10.625H11.25ZM10.4172 11.8037C10.2868 11.8499 10.1463 11.875 10 11.875C9.47365 11.875 9.02328 11.5497 8.839 11.0891C8.46316 11.4727 8.05843 11.9942 8.0061 12.5C7.88895 13.6325 9.5061 15 9.5061 15V13.3412C9.63332 13.6317 9.80254 13.8871 10.0269 14.0705C10.9718 14.8428 13.1192 14.5215 13.1192 14.5215L10.4172 11.8037Z" fill="#97A3BA"/>
<path d="M10 7.37402L9.77364 7.48014L10.25 7.37402H10ZM10 4.375L10.1481 4.17357L9.75 3.88093V4.375H10ZM8 5.93945L8.08288 5.70359L7.61674 5.5398L7.76087 6.01238L8 5.93945ZM8.66474 8.11902L8.4679 8.27315L8.90386 8.04609L8.66474 8.11902ZM8.47383 7.92232L8.63204 7.72875L8.63204 7.72875L8.47383 7.92232ZM6 7.56152L5.963 7.31428L5.47437 7.3874L5.82271 7.73778L6 7.56152ZM8.50225 10.0785L8.35334 10.2793L8.67954 9.9022L8.50225 10.0785ZM7 9.50586L6.97428 9.25719H6.97428L7 9.50586ZM5 11.0059L4.79857 10.8578L4.50593 11.2559H5V11.0059ZM6.63335 11.0059L6.8337 11.1554L7.13186 10.7559H6.63335V11.0059ZM6.13563 13.6033L5.88644 13.6234L5.92978 14.1605L6.31189 13.7806L6.13563 13.6033ZM8.74833 11.0059V10.7559H8.64521L8.57207 10.8286L8.74833 11.0059ZM8.80908 11.0059V11.2559H9.15142L9.04722 10.9298L8.80908 11.0059ZM9.75739 9.39853L9.80563 9.64383L9.93377 9.61863L9.98628 9.49906L9.75739 9.39853ZM10 8.73429H10.25L9.75949 8.66608L10 8.73429ZM10 9.375H9.75V9.625H10V9.375ZM10.53 9.49259L10.4239 9.71895L10.5863 9.79511L10.7105 9.66558L10.53 9.49259ZM11.875 6.875L12.1237 6.84928L11.875 6.875ZM10.86 9.71785L10.6837 9.54056L10.5011 9.72208L10.688 9.89925L10.86 9.71785ZM11.2466 10.5319L10.9973 10.5503L11.0156 10.7999L11.2652 10.7813L11.2466 10.5319ZM14.0265 6.56982L14.2737 6.53282L14.2006 6.04419L13.8502 6.39253L14.0265 6.56982ZM13.5755 9.66211L13.7691 9.82033L13.5755 9.66211ZM11.25 10.625V10.375H11V10.625H11.25ZM10.5642 11.7407L10.4512 11.5177L10.0948 11.6983L10.413 11.9399L10.5642 11.7407ZM12.5 12.5L12.5257 12.7487L12.5257 12.7487L12.5 12.5ZM15 10.625L15.2014 10.7731L15.4941 10.375H15V10.625ZM10.4172 11.8037L10.5945 11.6274L10.483 11.5152L10.3338 11.568L10.4172 11.8037ZM8.839 11.0891L9.07111 10.9963L8.92871 10.6404L8.66043 10.9142L8.839 11.0891ZM8.0061 12.5L7.75743 12.4743L8.0061 12.5ZM9.5061 15L9.34468 15.1909L9.7561 15.5388V15H9.5061ZM9.5061 13.3412L9.7351 13.2409L9.2561 13.3412H9.5061ZM10.0269 14.0705L9.8687 14.2641L10.0269 14.0705ZM13.1192 14.5215L13.1562 14.7687L13.6448 14.6956L13.2965 14.3452L13.1192 14.5215ZM10.25 7.37402V4.375H9.75V7.37402H10.25ZM8 5.93945C7.91712 6.17532 7.91708 6.1753 7.91705 6.17529C7.91704 6.17529 7.91701 6.17528 7.91701 6.17527C7.91699 6.17527 7.917 6.17527 7.91703 6.17528C7.9171 6.17531 7.91726 6.17536 7.91751 6.17545C7.91802 6.17563 7.9189 6.17595 7.92015 6.1764C7.92264 6.17729 7.92658 6.17871 7.9319 6.18066C7.94253 6.18456 7.95863 6.19055 7.97954 6.19857C8.02137 6.21462 8.08229 6.23875 8.15697 6.27049C8.30668 6.33411 8.50989 6.42753 8.72462 6.54676C9.16901 6.79351 9.60468 7.11972 9.77364 7.48014L10.2264 7.2679C9.98461 6.7522 9.42028 6.36113 8.96734 6.10963C8.73341 5.97973 8.51364 5.87878 8.35252 5.81031C8.27179 5.77601 8.20534 5.74966 8.15865 5.73175C8.13529 5.72279 8.11685 5.71592 8.104 5.71121C8.09757 5.70886 8.09254 5.70704 8.089 5.70577C8.08722 5.70513 8.08582 5.70463 8.0848 5.70427C8.08428 5.70409 8.08387 5.70394 8.08355 5.70383C8.08339 5.70377 8.08325 5.70372 8.08314 5.70368C8.08308 5.70366 8.08302 5.70364 8.08299 5.70363C8.08293 5.70361 8.08288 5.70359 8 5.93945ZM8.90386 8.04609L8.23913 5.86652L7.76087 6.01238L8.42561 8.19195L8.90386 8.04609ZM8.31561 8.11588C8.36997 8.16031 8.42069 8.21285 8.4679 8.27315L8.86157 7.9649C8.79416 7.8788 8.71802 7.79903 8.63204 7.72875L8.31561 8.11588ZM6 7.56152C6.037 7.80877 6.03696 7.80878 6.03692 7.80878C6.03691 7.80878 6.03688 7.80879 6.03688 7.80879C6.03686 7.80879 6.03687 7.80879 6.03691 7.80878C6.03698 7.80877 6.03716 7.80875 6.03743 7.80871C6.03799 7.80863 6.03895 7.80849 6.0403 7.80829C6.04301 7.80791 6.0473 7.8073 6.05309 7.80652C6.06466 7.80495 6.08223 7.80265 6.10512 7.7999C6.15094 7.79439 6.21797 7.78708 6.30105 7.78014C6.46762 7.76622 6.69663 7.75394 6.94726 7.76014C7.19876 7.76637 7.46605 7.79108 7.71123 7.84866C7.95848 7.90672 8.16711 7.9945 8.31561 8.11588L8.63204 7.72875C8.40259 7.5412 8.113 7.42941 7.82554 7.3619C7.53602 7.29391 7.2321 7.26704 6.95963 7.2603C6.68629 7.25353 6.43858 7.26691 6.25941 7.28188C6.16963 7.28938 6.09655 7.29733 6.04546 7.30347C6.01991 7.30654 5.99982 7.30916 5.98587 7.31106C5.97889 7.312 5.97344 7.31277 5.9696 7.31332C5.96768 7.31359 5.96617 7.31381 5.96506 7.31397C5.96451 7.31405 5.96406 7.31412 5.96372 7.31417C5.96355 7.3142 5.9634 7.31422 5.96328 7.31423C5.96322 7.31424 5.96315 7.31425 5.96312 7.31426C5.96306 7.31427 5.963 7.31428 6 7.56152ZM8.67954 9.9022L6.17729 7.38526L5.82271 7.73778L8.32495 10.2547L8.67954 9.9022ZM7.02572 9.75453C7.42622 9.7131 7.90583 9.94743 8.35334 10.2793L8.65116 9.87764C8.19018 9.53581 7.5758 9.19496 6.97428 9.25719L7.02572 9.75453ZM5 11.0059C5.20143 11.1539 5.2014 11.154 5.20138 11.154C5.20138 11.154 5.20136 11.154 5.20135 11.154C5.20134 11.1541 5.20135 11.154 5.20137 11.154C5.20142 11.154 5.20152 11.1538 5.20169 11.1536C5.20202 11.1531 5.2026 11.1524 5.20342 11.1513C5.20505 11.1491 5.20765 11.1456 5.21117 11.1409C5.21822 11.1316 5.22897 11.1175 5.24316 11.0994C5.27156 11.063 5.31364 11.0103 5.36729 10.9465C5.47486 10.8186 5.6276 10.6475 5.80871 10.4741C5.99043 10.3002 6.19641 10.128 6.41011 9.99474C6.62561 9.86033 6.83494 9.77427 7.02572 9.75453L6.97428 9.25719C6.67949 9.28768 6.39605 9.41423 6.1455 9.57049C5.89316 9.72788 5.65983 9.92447 5.46295 10.1129C5.26544 10.302 5.10028 10.4871 4.98458 10.6247C4.9266 10.6937 4.88071 10.7511 4.84905 10.7917C4.83321 10.812 4.82091 10.8281 4.81241 10.8393C4.80816 10.8449 4.80486 10.8493 4.80255 10.8524C4.80139 10.854 4.80048 10.8552 4.79981 10.8561C4.79948 10.8566 4.79921 10.8569 4.799 10.8572C4.7989 10.8573 4.79881 10.8575 4.79874 10.8576C4.79871 10.8576 4.79866 10.8577 4.79865 10.8577C4.79861 10.8577 4.79857 10.8578 5 11.0059ZM6.63335 10.7559H5V11.2559H6.63335V10.7559ZM6.13563 13.6033C6.38482 13.5832 6.38482 13.5833 6.38482 13.5833C6.38482 13.5833 6.38483 13.5833 6.38483 13.5833C6.38483 13.5833 6.38483 13.5833 6.38482 13.5833C6.38482 13.5832 6.3848 13.583 6.38478 13.5827C6.38474 13.5822 6.38466 13.5812 6.38456 13.5798C6.38435 13.577 6.38404 13.5726 6.38364 13.5667C6.38284 13.5549 6.38172 13.537 6.38049 13.5136C6.37802 13.4669 6.37514 13.3984 6.37359 13.3132C6.37049 13.1426 6.37281 12.9067 6.39427 12.6458C6.43832 12.1106 6.55939 11.5229 6.8337 11.1554L6.43299 10.8563C6.06897 11.3441 5.94119 12.0552 5.89596 12.6048C5.87279 12.8864 5.87036 13.1396 5.87367 13.3223C5.87533 13.4138 5.87845 13.4881 5.88118 13.5399C5.88255 13.5659 5.88382 13.5862 5.88477 13.6004C5.88525 13.6074 5.88564 13.6129 5.88593 13.6168C5.88607 13.6187 5.88619 13.6203 5.88628 13.6214C5.88632 13.6219 5.88635 13.6224 5.88638 13.6227C5.88639 13.6229 5.88641 13.623 5.88642 13.6232C5.88642 13.6232 5.88643 13.6233 5.88643 13.6233C5.88643 13.6234 5.88644 13.6234 6.13563 13.6033ZM8.57207 10.8286L5.95937 13.426L6.31189 13.7806L8.92459 11.1832L8.57207 10.8286ZM8.80908 10.7559H8.74833V11.2559H8.80908V10.7559ZM9.04722 10.9298C9.01662 10.834 9 10.7317 9 10.625H8.5C8.5 10.7839 8.52481 10.9376 8.57094 11.082L9.04722 10.9298ZM9 10.625C9 10.1394 9.34637 9.73416 9.80563 9.64383L9.70914 9.15323C9.01993 9.28879 8.5 9.8959 8.5 10.625H9ZM9.75949 8.66608C9.69719 8.88574 9.61475 9.10159 9.52849 9.29799L9.98628 9.49906C10.0792 9.28755 10.1704 9.04964 10.2405 8.8025L9.75949 8.66608ZM10.25 9.375V8.73429H9.75V9.375H10.25ZM10 9.625C10.152 9.625 10.2955 9.65876 10.4239 9.71895L10.6361 9.26624C10.4427 9.17555 10.2269 9.125 10 9.125V9.625ZM11.6263 6.90072C11.6666 7.28985 11.5094 7.73382 11.2446 8.17732C10.9833 8.61521 10.6368 9.01981 10.3495 9.3196L10.7105 9.66558C11.011 9.35208 11.3856 8.91675 11.674 8.4336C11.959 7.95605 12.1804 7.39787 12.1237 6.84928L11.6263 6.90072ZM10 4.375C9.85192 4.57643 9.85189 4.5764 9.85186 4.57638C9.85186 4.57638 9.85184 4.57637 9.85184 4.57636C9.85184 4.57636 9.85186 4.57638 9.85191 4.57642C9.85201 4.57649 9.85222 4.57665 9.85253 4.57687C9.85315 4.57733 9.85417 4.5781 9.8556 4.57916C9.85846 4.58129 9.86291 4.58462 9.86885 4.58912C9.88074 4.59811 9.89858 4.61174 9.92157 4.62969C9.96756 4.6656 10.034 4.71867 10.1144 4.78628C10.2756 4.92175 10.4911 5.11423 10.7098 5.34266C10.9291 5.57172 11.1473 5.8326 11.3169 6.10456C11.4877 6.37831 11.6003 6.64925 11.6263 6.90072L12.1237 6.84928C12.0869 6.4938 11.9338 6.14875 11.7412 5.83996C11.5475 5.52936 11.3048 5.24111 11.071 4.9969C10.8366 4.75207 10.607 4.54717 10.4362 4.40356C10.3506 4.33163 10.2794 4.27474 10.2293 4.23558C10.2042 4.21598 10.1843 4.2008 10.1705 4.19036C10.1636 4.18514 10.1582 4.1811 10.1544 4.17829C10.1526 4.17689 10.1511 4.17579 10.15 4.175C10.1495 4.1746 10.149 4.17429 10.1487 4.17405C10.1486 4.17393 10.1484 4.17383 10.1483 4.17375C10.1483 4.17371 10.1482 4.17367 10.1482 4.17365C10.1481 4.17361 10.1481 4.17357 10 4.375ZM10.688 9.89925C10.8637 10.0659 10.9785 10.2948 10.9973 10.5503L11.4959 10.5136C11.4676 10.1294 11.2946 9.7855 11.032 9.53645L10.688 9.89925ZM13.8502 6.39253L10.6837 9.54056L11.0362 9.89514L14.2027 6.74712L13.8502 6.39253ZM13.7691 9.82033C13.9952 9.54362 14.132 9.19176 14.2152 8.83747C14.2989 8.4811 14.3322 8.10578 14.3405 7.76781C14.3489 7.42898 14.3323 7.12167 14.3138 6.8993C14.3045 6.7879 14.2946 6.69731 14.287 6.63411C14.2832 6.6025 14.28 6.57771 14.2776 6.56056C14.2765 6.55199 14.2755 6.54532 14.2749 6.54066C14.2745 6.53834 14.2743 6.53651 14.2741 6.5352C14.274 6.53454 14.2739 6.53402 14.2739 6.53362C14.2738 6.53342 14.2738 6.53326 14.2738 6.53312C14.2738 6.53306 14.2738 6.53298 14.2738 6.53295C14.2737 6.53288 14.2737 6.53282 14.0265 6.56982C13.7792 6.60682 13.7792 6.60678 13.7792 6.60675C13.7792 6.60675 13.7792 6.60672 13.7792 6.60672C13.7792 6.60672 13.7792 6.60675 13.7792 6.60681C13.7793 6.60694 13.7793 6.60719 13.7794 6.60757C13.7795 6.60833 13.7796 6.6096 13.7799 6.61136C13.7804 6.61489 13.7812 6.6204 13.7822 6.62778C13.7842 6.64255 13.7871 6.66482 13.7906 6.69377C13.7975 6.7517 13.8068 6.83625 13.8155 6.94094C13.833 7.15072 13.8485 7.43932 13.8407 7.75544C13.8329 8.07244 13.8017 8.41113 13.7284 8.72315C13.6547 9.03724 13.5419 9.30815 13.3819 9.5039L13.7691 9.82033ZM11.2652 10.7813C11.6848 10.7499 12.1648 10.6814 12.6086 10.5389C13.0495 10.3974 13.4789 10.1753 13.7691 9.82033L13.3819 9.5039C13.1778 9.75359 12.8515 9.93586 12.4558 10.0629C12.0631 10.1889 11.6258 10.2529 11.228 10.2826L11.2652 10.7813ZM11 10.625C11 11.0145 10.7773 11.3525 10.4512 11.5177L10.6772 11.9637C11.1649 11.7167 11.5 11.2102 11.5 10.625H11ZM12.4743 12.2513C11.9296 12.3077 11.2889 11.977 10.7154 11.5416L10.413 11.9399C10.9971 12.3833 11.7749 12.8263 12.5257 12.7487L12.4743 12.2513ZM15 10.625C14.7986 10.4769 14.7986 10.4769 14.7986 10.4769C14.7986 10.4769 14.7986 10.4768 14.7986 10.4768C14.7986 10.4768 14.7986 10.4769 14.7986 10.4769C14.7985 10.477 14.7984 10.4772 14.7981 10.4775C14.7977 10.4781 14.7969 10.4792 14.7958 10.4806C14.7937 10.4835 14.7904 10.4879 14.7859 10.4939C14.7769 10.5057 14.7633 10.5236 14.7453 10.5466C14.7094 10.5926 14.6563 10.659 14.5887 10.7394C14.4533 10.9006 14.2608 11.1161 14.0323 11.3348C13.8033 11.5541 13.5424 11.7723 13.2704 11.9419C12.9967 12.1127 12.7258 12.2253 12.4743 12.2513L12.5257 12.7487C12.8812 12.7119 13.2262 12.5588 13.535 12.3662C13.8456 12.1725 14.1339 11.9298 14.3781 11.696C14.6229 11.4616 14.8278 11.232 14.9714 11.0612C15.0434 10.9756 15.1003 10.9044 15.1394 10.8543C15.159 10.8292 15.1742 10.8093 15.1846 10.7955C15.1899 10.7886 15.1939 10.7832 15.1967 10.7794C15.1981 10.7776 15.1992 10.7761 15.2 10.775C15.2004 10.7745 15.2007 10.774 15.2009 10.7737C15.2011 10.7736 15.2012 10.7734 15.2012 10.7733C15.2013 10.7733 15.2013 10.7732 15.2014 10.7732C15.2014 10.7731 15.2014 10.7731 15 10.625ZM11.25 10.875H15V10.375H11.25V10.875ZM10.3338 11.568C10.2297 11.6048 10.1175 11.625 10 11.625V12.125C10.1751 12.125 10.3438 12.0949 10.5007 12.0393L10.3338 11.568ZM10 11.625C9.57931 11.625 9.21871 11.3651 9.07111 10.9963L8.60689 11.182C8.82785 11.7342 9.36798 12.125 10 12.125V11.625ZM8.25478 12.5257C8.27536 12.3268 8.36804 12.108 8.51175 11.8836C8.65413 11.6613 8.83685 11.4485 9.01758 11.2641L8.66043 10.9142C8.46531 11.1133 8.25774 11.3531 8.09071 11.6139C7.92501 11.8726 7.78917 12.1674 7.75743 12.4743L8.25478 12.5257ZM9.5061 15C9.66753 14.8091 9.66756 14.8091 9.66759 14.8092C9.66759 14.8092 9.66762 14.8092 9.66762 14.8092C9.66763 14.8092 9.66761 14.8092 9.66757 14.8091C9.66748 14.8091 9.6673 14.8089 9.66703 14.8087C9.66648 14.8082 9.66555 14.8074 9.66425 14.8063C9.66166 14.8041 9.6576 14.8006 9.65217 14.7959C9.64133 14.7864 9.62504 14.7721 9.60412 14.7532C9.56225 14.7155 9.50196 14.6599 9.42969 14.5896C9.28481 14.4484 9.09363 14.2496 8.90682 14.0178C8.71927 13.7851 8.54102 13.5252 8.4173 13.262C8.29272 12.997 8.23192 12.7467 8.25478 12.5257L7.75743 12.4743C7.72171 12.8196 7.81912 13.1649 7.9648 13.4748C8.11135 13.7865 8.31542 14.0808 8.51752 14.3316C8.72036 14.5832 8.92614 14.7971 9.08081 14.9477C9.15833 15.0232 9.22346 15.0833 9.26957 15.1248C9.29264 15.1456 9.31098 15.1617 9.32377 15.1729C9.33016 15.1784 9.33517 15.1828 9.33869 15.1858C9.34045 15.1873 9.34183 15.1885 9.34284 15.1893C9.34334 15.1898 9.34374 15.1901 9.34405 15.1904C9.3442 15.1905 9.34433 15.1906 9.34444 15.1907C9.34449 15.1907 9.34455 15.1908 9.34458 15.1908C9.34463 15.1909 9.34468 15.1909 9.5061 15ZM9.2561 13.3412V15H9.7561V13.3412H9.2561ZM10.1851 13.8769C10.0007 13.7262 9.85207 13.508 9.7351 13.2409L9.2771 13.4415C9.41458 13.7554 9.60441 14.048 9.8687 14.2641L10.1851 13.8769ZM13.1192 14.5215C13.0822 14.2742 13.0822 14.2742 13.0823 14.2742C13.0823 14.2742 13.0823 14.2742 13.0823 14.2742C13.0823 14.2742 13.0823 14.2742 13.0822 14.2742C13.0821 14.2743 13.0818 14.2743 13.0815 14.2743C13.0807 14.2745 13.0794 14.2746 13.0777 14.2749C13.0741 14.2754 13.0686 14.2762 13.0612 14.2772C13.0465 14.2792 13.0242 14.2821 12.9953 14.2856C12.9373 14.2925 12.8528 14.3017 12.7481 14.3105C12.5383 14.328 12.2497 14.3435 11.9336 14.3357C11.6166 14.3278 11.2779 14.2967 10.9659 14.2234C10.6518 14.1496 10.3809 14.0369 10.1851 13.8769L9.8687 14.2641C10.1454 14.4902 10.4973 14.627 10.8516 14.7102C11.2079 14.7939 11.5832 14.8272 11.9212 14.8355C12.26 14.8439 12.5674 14.8273 12.7897 14.8088C12.9011 14.7994 12.9917 14.7896 13.0549 14.782C13.0865 14.7782 13.1113 14.775 13.1285 14.7726C13.137 14.7715 13.1437 14.7705 13.1484 14.7699C13.1507 14.7695 13.1525 14.7693 13.1538 14.7691C13.1545 14.769 13.155 14.7689 13.1554 14.7688C13.1556 14.7688 13.1558 14.7688 13.1559 14.7688C13.156 14.7688 13.156 14.7688 13.1561 14.7688C13.1561 14.7687 13.1562 14.7687 13.1192 14.5215ZM10.24 11.9799L12.9419 14.6977L13.2965 14.3452L10.5945 11.6274L10.24 11.9799Z" fill="#97A3BA"/>
</svg>
