<svg width="20" height="20" viewBox="0 0 20 20" fill="none" xmlns="http://www.w3.org/2000/svg">
<path fill-rule="evenodd" clip-rule="evenodd" d="M10 20C15.5228 20 20 15.5228 20 10C20 4.47715 15.5228 0 10 0C4.47715 0 0 4.47715 0 10C0 15.5228 4.47715 20 10 20ZM13.4856 3.93232C13.6322 3.45916 13.4103 2.94997 12.9639 2.73522C12.5175 2.52047 11.9812 2.66489 11.703 3.07474L6.77101 10.3407C6.56304 10.6471 6.54141 11.0433 6.71477 11.3705C6.88813 11.6977 7.22811 11.9023 7.5984 11.9023H8.12083L6.35554 15.9651C6.15689 16.4223 6.3253 16.956 6.7504 17.2164C7.17549 17.4768 7.72743 17.3843 8.04445 16.9996L13.9535 9.82861C14.1997 9.52993 14.2513 9.11605 14.0862 8.76602C13.9211 8.41599 13.5688 8.19267 13.1818 8.19267H12.1656L13.4856 3.93232ZM9.64565 10.9023H8.80702H8.55533H7.5984L8.27719 9.90231L10.6043 6.4739L12.5304 3.63636L11.5154 6.91221L11.1187 8.19267L10.8089 9.19267H11.8558H11.886H13.1818L12.3578 10.1927L9.5792 13.5646L7.27271 16.3636L8.71806 13.0371L9.21115 11.9023L9.64565 10.9023Z" fill="#97A3BA"/>
</svg>
