<svg width="17" height="16" viewBox="0 0 17 16" fill="none" xmlns="http://www.w3.org/2000/svg">
<path d="M8.5 15C4.65 15 1.5 11.85 1.5 8C1.5 4.15 4.65 1 8.5 1C12.35 1 15.5 4.15 15.5 8C15.5 11.85 12.35 15 8.5 15Z" stroke="#606580" stroke-miterlimit="10" stroke-linecap="round" stroke-linejoin="round"/>
<path d="M9.45 4.5V7.05H12V8.9H9.45V11.5H7.6V8.95H5V7.1H7.55V4.5H9.45ZM9.45 3.5H7.6C7.05 3.5 6.6 3.95 6.6 4.5V6.05H5C4.45 6.05 4 6.5 4 7.05V8.9C4 9.45 4.45 9.9 5 9.9H6.55V11.5C6.55 12.05 7 12.5 7.55 12.5H9.4C9.95 12.5 10.4 12.05 10.4 11.5V9.95H12C12.55 9.95 13 9.5 13 8.95V7.1C13 6.55 12.55 6.1 12 6.1H10.45V4.5C10.45 3.95 10 3.5 9.45 3.5Z" fill="#606580"/>
</svg>
