<svg width="16" height="16" viewBox="0 0 16 16" fill="none" xmlns="http://www.w3.org/2000/svg">
<path d="M7.89014 5.44H10.5601V8.11" stroke="#606580" stroke-miterlimit="10" stroke-linecap="round" stroke-linejoin="round"/>
<path d="M10.5599 5.44L5.68994 10.31" stroke="#606580" stroke-miterlimit="10" stroke-linecap="round" stroke-linejoin="round"/>
<path d="M8.10994 10.56H5.43994V7.89001" stroke="#606580" stroke-miterlimit="10" stroke-linecap="round" stroke-linejoin="round"/>
<path d="M9.5 12.75V14.085C9.5 14.59 9.09 15 8.585 15H1.915C1.41 15 1 14.59 1 14.085V6.415C1 5.91 1.41 5.5 1.915 5.5H4" stroke="#606580" stroke-miterlimit="10" stroke-linecap="round" stroke-linejoin="round"/>
<path d="M6.5 3.085V1.915C6.5 1.41 6.91 1 7.415 1H14.08C14.59 1 15 1.41 15 1.915V9.58C15 10.085 14.59 10.495 14.085 10.495H12.055" stroke="#606580" stroke-miterlimit="10" stroke-linecap="round" stroke-linejoin="round"/>
</svg>
