<svg width="17" height="14" viewBox="0 0 17 14" fill="none" xmlns="http://www.w3.org/2000/svg">
<path fill-rule="evenodd" clip-rule="evenodd" d="M8.5 3.75V5.69925C8.25533 5.12977 7.30859 4.76678 7.30859 4.76678L7.70444 6.18302C7.67027 6.13538 7.63246 6.09233 7.59061 6.05501C7.1403 5.65339 6.11694 5.82049 6.11694 5.82049L7.60745 7.4564C7.33693 7.23757 7.01122 7.05081 6.71289 7.08448C6.13439 7.14978 5.52148 8.05948 5.52148 8.05948H6.49428C6.11407 8.61547 6.19782 9.74777 6.19782 9.74777L7.75417 8.05948H7.7904C7.76765 7.9816 7.75537 7.89861 7.75537 7.8125C7.75537 7.41774 8.01337 7.08874 8.35542 7.0153C8.4088 6.8827 8.46056 6.73518 8.5 6.58342V7C8.61287 7 8.71987 7.0274 8.81572 7.07644C9.16588 6.6778 9.67473 5.98452 9.61694 5.375C9.54214 4.58596 8.5 3.75 8.5 3.75ZM9.24259 7.75188C9.22854 7.54401 9.14281 7.35789 9.01228 7.22283L10.8987 5.17649C10.8987 5.17649 11.0901 6.57229 10.63 7.18648C10.3356 7.57956 9.72954 7.7122 9.24259 7.75188ZM9.24463 7.8125C9.24463 8.12928 9.07848 8.40372 8.83609 8.53773C9.18091 8.82335 9.6034 9.0748 9.98926 9.03125C10.7124 8.94963 11.4785 7.8125 11.4785 7.8125H9.24463ZM8.74879 8.57854C8.67099 8.60863 8.58725 8.625 8.5 8.625C8.18657 8.625 7.91837 8.4137 7.80852 8.11453C7.5846 8.36389 7.34343 8.70289 7.31226 9.03171C7.24246 9.76785 8.20581 10.6567 8.20581 10.6567V9.57805C8.28157 9.76662 8.3823 9.93241 8.51583 10.0515C9.07871 10.5535 10.3579 10.3446 10.3579 10.3446L8.74879 8.57854Z" fill="#97A3BA"/>
<path d="M8.5 5.69925L8.2703 5.79793L8.75 5.69925H8.5ZM8.5 3.75L8.65643 3.55499L8.25 3.22897V3.75H8.5ZM7.30859 4.76678L7.39809 4.53335L6.93403 4.35542L7.06782 4.83408L7.30859 4.76678ZM7.70444 6.18302L7.5013 6.32873L7.94522 6.11572L7.70444 6.18302ZM7.59061 6.05501L7.75701 5.86843L7.75701 5.86843L7.59061 6.05501ZM6.11694 5.82049L6.07666 5.57376L5.62163 5.64806L5.93214 5.98886L6.11694 5.82049ZM7.60745 7.4564L7.45023 7.65077L7.79225 7.28803L7.60745 7.4564ZM6.71289 7.08448L6.68485 6.83606L6.71289 7.08448ZM5.52148 8.05948L5.31415 7.91979L5.0516 8.30948H5.52148V8.05948ZM6.49428 8.05948L6.70064 8.2006L6.9681 7.80948H6.49428V8.05948ZM6.19782 9.74777L5.9485 9.76621L5.99102 10.341L6.38164 9.91722L6.19782 9.74777ZM7.75417 8.05948V7.80948H7.64461L7.57035 7.89003L7.75417 8.05948ZM7.7904 8.05948V8.30948H8.12386L8.03037 7.98939L7.7904 8.05948ZM8.35542 7.0153L8.4079 7.25973L8.53774 7.23186L8.58734 7.10866L8.35542 7.0153ZM8.5 6.58342H8.75L8.25804 6.52053L8.5 6.58342ZM8.5 7H8.25V7.25H8.5V7ZM8.81572 7.07644L8.70186 7.299L8.87512 7.38763L9.00355 7.24142L8.81572 7.07644ZM9.61694 5.375L9.86583 5.3514L9.61694 5.375ZM9.01228 7.22283L8.82846 7.05338L8.66852 7.22689L8.83251 7.39657L9.01228 7.22283ZM9.24259 7.75188L8.99316 7.76874L9.01025 8.02164L9.26289 8.00105L9.24259 7.75188ZM10.8987 5.17649L11.1464 5.14252L11.0743 4.61713L10.7149 5.00704L10.8987 5.17649ZM10.63 7.18648L10.8301 7.33636L10.63 7.18648ZM9.24463 7.8125V7.5625H8.99463V7.8125H9.24463ZM8.83609 8.53773L8.71513 8.31894L8.39423 8.49635L8.67661 8.73026L8.83609 8.53773ZM9.98926 9.03125L10.0173 9.27967H10.0173L9.98926 9.03125ZM11.4785 7.8125L11.6858 7.95219L11.9484 7.5625H11.4785V7.8125ZM8.74879 8.57854L8.93359 8.41017L8.81829 8.28363L8.65862 8.34537L8.74879 8.57854ZM7.80852 8.11453L8.0432 8.02836L7.90003 7.63846L7.62251 7.9475L7.80852 8.11453ZM7.31226 9.03171L7.56114 9.05531L7.31226 9.03171ZM8.20581 10.6567L8.03628 10.8404L8.45581 11.2275V10.6567H8.20581ZM8.20581 9.57805L8.43779 9.48485L7.95581 9.57805H8.20581ZM8.51583 10.0515L8.34942 10.2381H8.34942L8.51583 10.0515ZM10.3579 10.3446L10.3982 10.5914L10.8532 10.5171L10.5427 10.1763L10.3579 10.3446ZM8.75 5.69925V3.75H8.25V5.69925H8.75ZM7.30859 4.76678C7.21909 5.00021 7.21905 5.00019 7.219 5.00018C7.219 5.00017 7.21896 5.00016 7.21894 5.00015C7.2189 5.00013 7.21887 5.00013 7.21886 5.00012C7.21885 5.00011 7.21888 5.00013 7.21897 5.00016C7.21916 5.00023 7.21956 5.00039 7.22018 5.00063C7.22142 5.00112 7.22352 5.00195 7.22644 5.00311C7.23226 5.00544 7.24132 5.00912 7.25321 5.0141C7.27701 5.02406 7.31205 5.0392 7.35518 5.0592C7.44177 5.09935 7.55921 5.15827 7.683 5.23328C7.94325 5.39096 8.18088 5.5898 8.2703 5.79793L8.7297 5.60056C8.57445 5.23921 8.21638 4.97183 7.94209 4.80564C7.79862 4.71871 7.66408 4.6513 7.56551 4.60559C7.51606 4.58266 7.47522 4.56499 7.44629 4.55288C7.43182 4.54682 7.4203 4.54214 7.41214 4.53888C7.40805 4.53724 7.40481 4.53596 7.40245 4.53504C7.40127 4.53458 7.40032 4.53421 7.39959 4.53393C7.39922 4.53378 7.39892 4.53367 7.39867 4.53357C7.39854 4.53352 7.39843 4.53348 7.39834 4.53344C7.39829 4.53342 7.39823 4.5334 7.3982 4.53339C7.39815 4.53337 7.39809 4.53335 7.30859 4.76678ZM7.94522 6.11572L7.54937 4.69948L7.06782 4.83408L7.46367 6.25031L7.94522 6.11572ZM7.42421 6.24158C7.45063 6.26515 7.47642 6.29404 7.5013 6.32873L7.90759 6.0373C7.86413 5.97672 7.81428 5.9195 7.75701 5.86843L7.42421 6.24158ZM6.11694 5.82049C6.15723 6.06722 6.15718 6.06723 6.15713 6.06724C6.15712 6.06724 6.15708 6.06725 6.15706 6.06725C6.15702 6.06726 6.15699 6.06726 6.15698 6.06726C6.15696 6.06727 6.15699 6.06726 6.15709 6.06725C6.15729 6.06721 6.15772 6.06715 6.15839 6.06704C6.15973 6.06683 6.162 6.06648 6.16516 6.06602C6.17147 6.06508 6.18131 6.06368 6.1943 6.06197C6.2203 6.05856 6.25875 6.05399 6.30658 6.04962C6.4027 6.04086 6.53449 6.03317 6.67817 6.03705C6.98392 6.04531 7.27081 6.10477 7.42421 6.24158L7.75701 5.86843C7.46011 5.60363 7.01016 5.54583 6.69166 5.53723C6.52321 5.53269 6.37101 5.54167 6.26118 5.55169C6.20604 5.55672 6.16101 5.56206 6.12929 5.56622C6.11342 5.5683 6.10083 5.57009 6.09194 5.57141C6.08749 5.57207 6.08396 5.57261 6.0814 5.573C6.08011 5.5732 6.07907 5.57337 6.07828 5.5735C6.07789 5.57356 6.07755 5.57361 6.07728 5.57366C6.07715 5.57368 6.07703 5.5737 6.07692 5.57371C6.07687 5.57372 6.0768 5.57373 6.07678 5.57374C6.07671 5.57375 6.07666 5.57376 6.11694 5.82049ZM7.79225 7.28803L6.30174 5.65212L5.93214 5.98886L7.42266 7.62478L7.79225 7.28803ZM6.74093 7.3329C6.82945 7.32291 6.93833 7.34437 7.06653 7.40306C7.19363 7.46125 7.32466 7.5492 7.45023 7.65077L7.76468 7.26203C7.61972 7.14478 7.45263 7.02992 7.27467 6.94844C7.0978 6.86747 6.89466 6.81238 6.68485 6.83606L6.74093 7.3329ZM5.52148 8.05948C5.72882 8.19917 5.72879 8.19921 5.72877 8.19924C5.72876 8.19925 5.72874 8.19928 5.72873 8.19929C5.72872 8.19932 5.72871 8.19933 5.72871 8.19933C5.72871 8.19933 5.72874 8.19928 5.72882 8.19917C5.72896 8.19896 5.72925 8.19853 5.72968 8.1979C5.73055 8.19663 5.73198 8.19455 5.73396 8.19169C5.73793 8.18597 5.74408 8.17718 5.75227 8.16574C5.76865 8.14284 5.79309 8.10945 5.82432 8.06891C5.88706 7.98749 5.97589 7.87897 6.08083 7.76935C6.18647 7.65901 6.30389 7.55234 6.42333 7.47105C6.545 7.38825 6.65266 7.34287 6.74093 7.3329L6.68485 6.83606C6.48387 6.85875 6.29797 6.95156 6.14202 7.05769C5.98384 7.16534 5.83957 7.29834 5.71966 7.42359C5.59907 7.54956 5.49852 7.67254 5.42826 7.76373C5.39299 7.8095 5.36503 7.84769 5.34563 7.87479C5.33593 7.88836 5.32835 7.89917 5.32305 7.90681C5.32041 7.91063 5.31833 7.91366 5.31684 7.91584C5.31609 7.91693 5.31549 7.91781 5.31505 7.91847C5.31482 7.9188 5.31463 7.91908 5.31449 7.9193C5.31441 7.91941 5.31435 7.9195 5.31429 7.91959C5.31426 7.91963 5.31423 7.91968 5.31421 7.9197C5.31418 7.91975 5.31415 7.91979 5.52148 8.05948ZM6.49428 7.80948H5.52148V8.30948H6.49428V7.80948ZM6.19782 9.74777C6.44714 9.72933 6.44715 9.72937 6.44715 9.72941C6.44715 9.72942 6.44715 9.72945 6.44715 9.72946C6.44715 9.72949 6.44715 9.7295 6.44715 9.72949C6.44715 9.72947 6.44715 9.72939 6.44714 9.72924C6.44711 9.72894 6.44707 9.72837 6.44702 9.72754C6.44691 9.72589 6.44673 9.72319 6.4465 9.71951C6.44604 9.71214 6.44539 9.70082 6.44468 9.68598C6.44324 9.65626 6.44155 9.61251 6.44064 9.558C6.43882 9.44869 6.44019 9.29771 6.45276 9.13092C6.47894 8.78378 6.55055 8.42007 6.70064 8.2006L6.28791 7.91836C6.05779 8.25487 5.98118 8.73532 5.95418 9.09332C5.94017 9.27911 5.93871 9.44595 5.94071 9.56632C5.94172 9.62666 5.9436 9.67571 5.94526 9.71009C5.94609 9.72729 5.94686 9.74084 5.94745 9.75033C5.94774 9.75508 5.94799 9.75881 5.94817 9.76147C5.94826 9.7628 5.94834 9.76387 5.94839 9.76466C5.94842 9.76506 5.94844 9.76539 5.94846 9.76565C5.94847 9.76578 5.94848 9.76589 5.94849 9.76598C5.94849 9.76603 5.94849 9.76609 5.9485 9.76611C5.9485 9.76617 5.9485 9.76621 6.19782 9.74777ZM7.57035 7.89003L6.01401 9.57833L6.38164 9.91722L7.93798 8.22893L7.57035 7.89003ZM7.7904 7.80948H7.75417V8.30948H7.7904V7.80948ZM8.03037 7.98939C8.01424 7.93418 8.00537 7.87479 8.00537 7.8125H7.50537C7.50537 7.92244 7.52105 8.02902 7.55042 8.12957L8.03037 7.98939ZM8.00537 7.8125C8.00537 7.52313 8.19284 7.30591 8.4079 7.25973L8.30294 6.77087C7.83391 6.87157 7.50537 7.31236 7.50537 7.8125H8.00537ZM8.25804 6.52053C8.22193 6.65945 8.17398 6.79657 8.12351 6.92195L8.58734 7.10866C8.64363 6.96883 8.69918 6.81091 8.74196 6.64631L8.25804 6.52053ZM8.75 7V6.58342H8.25V7H8.75ZM8.5 7.25C8.57177 7.25 8.63989 7.2673 8.70186 7.299L8.92958 6.85387C8.79985 6.7875 8.65396 6.75 8.5 6.75V7.25ZM9.36806 5.3986C9.39004 5.6304 9.30415 5.90301 9.14999 6.18481C8.99842 6.46186 8.79661 6.71938 8.62789 6.91145L9.00355 7.24142C9.185 7.03486 9.41269 6.74641 9.58864 6.42478C9.76199 6.10791 9.90164 5.72912 9.86583 5.3514L9.36806 5.3986ZM8.5 3.75C8.34357 3.94501 8.34353 3.94498 8.3435 3.94496C8.34349 3.94495 8.34347 3.94493 8.34345 3.94492C8.34343 3.9449 8.34343 3.9449 8.34343 3.9449C8.34345 3.94492 8.34353 3.94498 8.34367 3.94509C8.34395 3.94532 8.34447 3.94574 8.34524 3.94636C8.34676 3.9476 8.34923 3.94962 8.35258 3.95238C8.35928 3.95792 8.36952 3.96645 8.38281 3.97777C8.40939 4.00042 8.44807 4.03412 8.495 4.07717C8.58913 4.16353 8.715 4.28617 8.84249 4.43148C9.10799 4.7341 9.33867 5.08861 9.36806 5.3986L9.86583 5.3514C9.82041 4.87234 9.49262 4.41436 9.21835 4.10173C9.07595 3.93943 8.93661 3.80377 8.833 3.70872C8.78106 3.66107 8.73774 3.6233 8.70704 3.59715C8.69169 3.58407 8.67946 3.57387 8.67087 3.56678C8.66657 3.56323 8.66317 3.56046 8.66075 3.55848C8.65954 3.5575 8.65856 3.55671 8.65784 3.55613C8.65748 3.55583 8.65718 3.55559 8.65695 3.5554C8.65683 3.55531 8.65673 3.55523 8.65664 3.55516C8.6566 3.55512 8.65654 3.55508 8.65652 3.55506C8.65647 3.55502 8.65643 3.55499 8.5 3.75ZM8.83251 7.39657C8.92159 7.48873 8.98304 7.6191 8.99316 7.76874L9.49202 7.73502C9.47403 7.46892 9.36403 7.22705 9.19204 7.04909L8.83251 7.39657ZM10.7149 5.00704L8.82846 7.05338L9.19609 7.39228L11.0825 5.34594L10.7149 5.00704ZM10.8301 7.33636C10.9753 7.14255 11.0599 6.90111 11.1105 6.66591C11.1617 6.42817 11.1818 6.17926 11.1868 5.95683C11.1919 5.73357 11.1819 5.53132 11.1707 5.38509C11.1651 5.31179 11.1591 5.25209 11.1545 5.2103C11.1522 5.18939 11.1502 5.17294 11.1488 5.16147C11.1481 5.15574 11.1475 5.15125 11.1471 5.14807C11.1469 5.14648 11.1467 5.14521 11.1466 5.14429C11.1465 5.14382 11.1465 5.14345 11.1464 5.14315C11.1464 5.143 11.1464 5.14288 11.1464 5.14277C11.1464 5.14272 11.1464 5.14266 11.1464 5.14263C11.1464 5.14258 11.1464 5.14252 10.8987 5.17649C10.651 5.21046 10.651 5.21042 10.651 5.21038C10.651 5.21038 10.651 5.21035 10.651 5.21034C10.651 5.21032 10.651 5.21032 10.651 5.21034C10.651 5.21039 10.651 5.21051 10.651 5.21072C10.6511 5.21114 10.6512 5.21189 10.6513 5.21296C10.6516 5.2151 10.6521 5.21852 10.6526 5.22316C10.6538 5.23244 10.6555 5.24657 10.6575 5.26504C10.6616 5.30198 10.667 5.35612 10.6721 5.42327C10.6824 5.55794 10.6915 5.74304 10.6869 5.9455C10.6823 6.14879 10.664 6.36399 10.6217 6.5607C10.5788 6.75996 10.5148 6.92331 10.4299 7.03659L10.8301 7.33636ZM9.26289 8.00105C9.51835 7.98024 9.8146 7.93448 10.0911 7.83766C10.3658 7.74145 10.642 7.58747 10.8301 7.33636L10.4299 7.03659C10.3236 7.17857 10.1495 7.28744 9.92587 7.36575C9.70402 7.44344 9.45377 7.48384 9.22228 7.50271L9.26289 8.00105ZM8.99463 7.8125C8.99463 8.04266 8.87417 8.23101 8.71513 8.31894L8.95705 8.75652C9.2828 8.57642 9.49463 8.2159 9.49463 7.8125H8.99463ZM9.96122 8.78283C9.8309 8.79754 9.6771 8.76369 9.50414 8.68192C9.33253 8.60078 9.15856 8.48021 8.99557 8.3452L8.67661 8.73026C8.85843 8.88086 9.06812 9.02883 9.29042 9.13394C9.51138 9.23841 9.76175 9.30852 10.0173 9.27967L9.96122 8.78283ZM11.4785 7.8125C11.2712 7.67281 11.2712 7.67277 11.2712 7.67274C11.2712 7.67274 11.2713 7.67271 11.2713 7.6727C11.2713 7.67268 11.2713 7.67268 11.2713 7.67269C11.2712 7.67272 11.2712 7.67281 11.2711 7.67297C11.2709 7.6733 11.2705 7.67389 11.2699 7.67473C11.2687 7.67643 11.2668 7.67916 11.2643 7.68285C11.2592 7.69024 11.2513 7.70148 11.2409 7.71605C11.22 7.7452 11.189 7.78754 11.1495 7.83886C11.0701 7.94186 10.9576 8.07932 10.8245 8.21838C10.6907 8.35817 10.5405 8.4948 10.3864 8.59971C10.23 8.70613 10.0856 8.76878 9.96122 8.78283L10.0173 9.27967C10.2544 9.2529 10.477 9.14281 10.6677 9.01306C10.8606 8.8818 11.0375 8.71885 11.1856 8.56415C11.3344 8.40873 11.4587 8.2568 11.5455 8.14404C11.5891 8.08748 11.6236 8.04035 11.6475 8.00699C11.6594 7.9903 11.6687 7.97704 11.6752 7.96773C11.6784 7.96307 11.6809 7.95941 11.6827 7.95679C11.6836 7.95549 11.6843 7.95445 11.6848 7.95368C11.6851 7.95329 11.6853 7.95297 11.6855 7.95273C11.6856 7.9526 11.6856 7.95249 11.6857 7.9524C11.6857 7.95236 11.6858 7.95231 11.6858 7.95228C11.6858 7.95223 11.6858 7.95219 11.4785 7.8125ZM9.24463 8.0625H11.4785V7.5625H9.24463V8.0625ZM8.65862 8.34537C8.60887 8.36461 8.55565 8.375 8.5 8.375V8.875C8.61884 8.875 8.73311 8.85265 8.83895 8.81172L8.65862 8.34537ZM8.5 8.375C8.30543 8.375 8.122 8.24296 8.0432 8.02836L7.57384 8.20071C7.71475 8.58444 8.06771 8.875 8.5 8.875V8.375ZM7.56114 9.05531C7.58406 8.81351 7.77392 8.52723 7.99453 8.28157L7.62251 7.9475C7.39527 8.20054 7.1028 8.59227 7.06337 9.00812L7.56114 9.05531ZM8.20581 10.6567C8.37534 10.473 8.37538 10.473 8.37541 10.473C8.37542 10.473 8.37545 10.4731 8.37546 10.4731C8.37548 10.4731 8.37549 10.4731 8.37549 10.4731C8.37548 10.4731 8.37542 10.473 8.3753 10.4729C8.37505 10.4727 8.37458 10.4723 8.3739 10.4716C8.37253 10.4703 8.37029 10.4682 8.36724 10.4653C8.36114 10.4595 8.35182 10.4506 8.33975 10.4387C8.31559 10.415 8.28056 10.3798 8.23846 10.335C8.15394 10.2452 8.04256 10.1188 7.93395 9.97173C7.82475 9.82389 7.72245 9.66071 7.65203 9.49726C7.58093 9.33222 7.54908 9.18251 7.56114 9.05531L7.06337 9.00812C7.04054 9.24898 7.10294 9.48643 7.19283 9.69509C7.28341 9.90534 7.40886 10.1024 7.53177 10.2688C7.65527 10.436 7.78037 10.5778 7.8743 10.6776C7.92142 10.7277 7.9611 10.7677 7.98936 10.7954C8.00349 10.8093 8.0148 10.8202 8.02278 10.8278C8.02677 10.8316 8.02993 10.8345 8.0322 10.8367C8.03333 10.8377 8.03425 10.8386 8.03493 10.8392C8.03527 10.8395 8.03556 10.8398 8.03578 10.84C8.03589 10.8401 8.03599 10.8402 8.03607 10.8403C8.03612 10.8403 8.03617 10.8403 8.03619 10.8404C8.03624 10.8404 8.03628 10.8404 8.20581 10.6567ZM7.95581 9.57805V10.6567H8.45581V9.57805H7.95581ZM8.68223 9.86492C8.58705 9.78004 8.50489 9.65186 8.43779 9.48485L7.97383 9.67125C8.05825 9.88137 8.17755 10.0848 8.34942 10.2381L8.68223 9.86492ZM10.3579 10.3446C10.3176 10.0979 10.3177 10.0979 10.3177 10.0979C10.3177 10.0979 10.3178 10.0979 10.3178 10.0979C10.3178 10.0979 10.3178 10.0979 10.3178 10.0979C10.3178 10.0979 10.3177 10.0979 10.3176 10.0979C10.3173 10.098 10.3166 10.0981 10.3157 10.0982C10.3139 10.0985 10.3109 10.0989 10.3068 10.0996C10.2986 10.1008 10.2859 10.1026 10.2693 10.1048C10.2361 10.1091 10.1872 10.1149 10.1265 10.1205C10.0047 10.1316 9.83739 10.1413 9.6547 10.1364C9.27091 10.1261 8.89192 10.0519 8.68223 9.86492L8.34942 10.2381C8.70262 10.5531 9.24467 10.6255 9.6412 10.6362C9.84867 10.6418 10.0364 10.6308 10.1719 10.6184C10.24 10.6122 10.2954 10.6056 10.3343 10.6005C10.3538 10.598 10.3692 10.5958 10.38 10.5942C10.3854 10.5934 10.3897 10.5927 10.3927 10.5922C10.3942 10.592 10.3955 10.5918 10.3964 10.5917C10.3968 10.5916 10.3972 10.5915 10.3975 10.5915C10.3977 10.5915 10.3978 10.5914 10.3979 10.5914C10.398 10.5914 10.398 10.5914 10.3981 10.5914C10.3981 10.5914 10.3982 10.5914 10.3579 10.3446ZM8.56399 8.74692L10.1731 10.513L10.5427 10.1763L8.93359 8.41017L8.56399 8.74692Z" fill="#97A3BA"/>
<path d="M1.05371 0.729417C1.05371 0.729417 9.32737 0.213112 10.9821 0.729301C12.6368 1.24549 15.9463 2.89729 15.9463 5.375" stroke="#97A3BA" stroke-linecap="round"/>
<path d="M15.9463 13.2706C15.9463 13.2706 7.67263 13.7869 6.0179 13.2707C4.36317 12.7545 1.05371 11.1027 1.05371 8.625" stroke="#97A3BA" stroke-linecap="round"/>
</svg>
