<svg width="17" height="17" viewBox="0 0 17 17" fill="none" xmlns="http://www.w3.org/2000/svg">
<path fill-rule="evenodd" clip-rule="evenodd" d="M5.8999 8.4501V2.8001C5.8999 1.8501 6.6499 1.1001 7.5999 1.1001H13.1999C14.1499 1.1001 14.8999 1.8501 14.8999 2.8001V8.4001C14.8999 9.3501 14.1499 10.1001 13.1999 10.1001H7.5499C6.6499 10.1501 5.8999 9.3501 5.8999 8.4501Z" stroke="#606580" stroke-miterlimit="10" stroke-linecap="round" stroke-linejoin="round"/>
<path d="M10.1499 12.6501V13.2001C10.1499 14.1501 9.39985 14.9001 8.44985 14.9001H2.79985C1.84985 14.9001 1.09985 14.1501 1.09985 13.2001V7.5501C1.09985 6.6001 1.84985 5.8501 2.79985 5.8501H3.54985" stroke="#606580" stroke-miterlimit="10" stroke-linecap="round" stroke-linejoin="round"/>
<path d="M12.3498 16H11.5035V12.0081H12.3498V16ZM14.5624 15.3023C15.3773 15.3023 15.7848 14.8645 15.7848 13.9889C15.7848 13.1314 15.4067 12.7027 14.6503 12.7027H14.2014V15.3023H14.5624ZM14.6079 12.0081C15.257 12.0081 15.7616 12.18 16.1215 12.5238C16.4835 12.8655 16.6645 13.3559 16.6645 13.9949C16.6645 14.632 16.4774 15.1254 16.1033 15.4752C15.7292 15.8251 15.1893 16 14.4835 16H13.3551V12.0081H14.6079Z" fill="#606580"/>
<path d="M4.41557 11.9656V12.3822H3.9363V14H3.38018V12.3822H3.07482V12.1153L3.38018 11.9656V11.816C3.38018 11.5841 3.43748 11.4149 3.55207 11.3084C3.66667 11.2019 3.84934 11.1486 4.1001 11.1486C4.29154 11.1486 4.46141 11.1769 4.60971 11.2336L4.46815 11.6421C4.3549 11.607 4.25581 11.5895 4.17088 11.5895C4.08729 11.5895 4.0273 11.6117 3.9909 11.6562C3.9545 11.7007 3.9363 11.7614 3.9363 11.8382V11.9656H4.41557ZM5.29061 11.9656V14H4.73652V11.9656H5.29061ZM5.01559 11.7128C4.81336 11.7128 4.71225 11.6225 4.71225 11.4419C4.71225 11.2599 4.81269 11.1689 5.01356 11.1689C5.21579 11.1689 5.3169 11.2592 5.3169 11.4398C5.3169 11.5275 5.29128 11.5949 5.24005 11.6421C5.18882 11.6892 5.114 11.7128 5.01559 11.7128ZM6.42733 11.1689V14H5.87323V11.1689H6.42733ZM8.23948 12.7523C8.23813 12.6161 8.20308 12.5103 8.13432 12.4348C8.06556 12.3593 7.97187 12.3215 7.85323 12.3215C7.73594 12.3215 7.64359 12.3593 7.57618 12.4348C7.50877 12.5089 7.47035 12.6148 7.46091 12.7523H8.23948ZM8.64595 13.8928C8.45451 13.9885 8.21589 14.0364 7.93007 14.0364C7.60247 14.0364 7.34632 13.9467 7.16162 13.7674C6.97827 13.5868 6.8866 13.3279 6.8866 12.9909C6.8866 12.6539 6.97153 12.3923 7.1414 12.2063C7.31396 12.0202 7.54652 11.9272 7.83907 11.9272C8.13297 11.9272 8.36014 12.0094 8.52057 12.1739C8.681 12.3384 8.76122 12.5642 8.76122 12.8514V13.1203H7.44878C7.45417 13.2794 7.50068 13.4034 7.58832 13.4924C7.67729 13.58 7.79998 13.6239 7.95636 13.6239C8.1896 13.6239 8.41946 13.5706 8.64595 13.4641V13.8928Z" fill="#606580"/>
</svg>
