<svg width="29" height="33" viewBox="0 0 29 33" fill="none" xmlns="http://www.w3.org/2000/svg">
<path d="M14.5 32.3199L1 24.7599L14.5 16.6599L28 24.7599L14.5 32.3199Z" stroke="#606580" stroke-width="0.896552" stroke-linecap="round" stroke-linejoin="round"/>
<path d="M1 24.76C1 23.896 1 13.96 1 9.1L14.5 1L28 9.1V24.76" stroke="#606580" stroke-width="0.896552" stroke-linecap="round" stroke-linejoin="round"/>
<path d="M14.5002 1V16.66" stroke="#606580" stroke-width="0.896552" stroke-linecap="round" stroke-linejoin="round"/>
<path d="M8.2278 13.0461L14.5377 9.43225L20.8476 12.6948L21.4786 13.9998V20.8761L14.5377 24.6008L7.62549 20.8761V17.2623L8.2278 13.0461Z" fill="white"/>
<path d="M21.1719 20.7361V12.9519L14.4077 9.03296L7.64355 12.9519V20.7361L14.4077 24.6013L21.1719 20.7361Z" stroke="#606580" stroke-width="0.891304" stroke-miterlimit="10" stroke-linecap="round" stroke-linejoin="round"/>
<path d="M7.64355 12.9518L14.4077 16.817L21.1719 12.9518" stroke="#606580" stroke-width="0.891304" stroke-miterlimit="10" stroke-linecap="round" stroke-linejoin="round"/>
<path d="M14.4077 17.0856V24.0645" stroke="#606580" stroke-width="0.891304" stroke-miterlimit="10" stroke-linecap="round" stroke-linejoin="round"/>
</svg>
