<svg width="16" height="16" viewBox="0 0 30 30" fill="none" xmlns="http://www.w3.org/2000/svg">
  <path d="M1.08105 1.02295V29.1139H28.9189V1.02295H1.08105ZM27.8311 28.0161H2.16889V2.12068H27.8311V28.0161Z" fill="#727689" />
  <path d="M0.554054 0H2.62162C2.92568 0 3.17568 0.252273 3.17568 0.559091V2.64545C3.17568 2.95227 2.92568 3.20455 2.62162 3.20455H0.554054C0.25 3.20455 0 2.95227 0 2.64545V0.559091C0 0.252273 0.25 0 0.554054 0Z" fill="#727689" />
  <path d="M0.905326 0.75H2.26343C2.35127 0.75 2.4256 0.825 2.4256 0.913636V2.28409C2.4256 2.37273 2.35127 2.44773 2.26343 2.44773H0.905326C0.817488 2.44773 0.743164 2.37273 0.743164 2.28409V0.913636C0.743164 0.825 0.817488 0.75 0.905326 0.75Z" fill="#727689" />
  <path d="M27.3783 0H29.4458C29.7499 0 29.9999 0.252273 29.9999 0.559091V2.64545C29.9999 2.95227 29.7499 3.20455 29.4458 3.20455H27.3783C27.0742 3.20455 26.8242 2.95227 26.8242 2.64545V0.559091C26.8242 0.252273 27.0742 0 27.3783 0Z" fill="#727689" />
  <path d="M27.7295 0.75H29.0877C29.1755 0.75 29.2498 0.825 29.2498 0.913636V2.28409C29.2498 2.37273 29.1755 2.44773 29.0877 2.44773H27.7295C27.6417 2.44773 27.5674 2.37273 27.5674 2.28409V0.913636C27.5674 0.825 27.6417 0.75 27.7295 0.75Z" fill="#727689" />
  <path d="M0.554054 13.3638H2.62162C2.92568 13.3638 3.17568 13.616 3.17568 13.9229V16.0092C3.17568 16.316 2.92568 16.5683 2.62162 16.5683H0.554054C0.25 16.5683 0 16.316 0 16.0092V13.9229C0 13.616 0.25 13.3638 0.554054 13.3638Z" fill="#727689" />
  <path d="M0.905326 14.1138H2.26343C2.35127 14.1138 2.4256 14.1888 2.4256 14.2774V15.6479C2.4256 15.7365 2.35127 15.8115 2.26343 15.8115H0.905326C0.817488 15.8115 0.743164 15.7365 0.743164 15.6479V14.2774C0.743164 14.1888 0.817488 14.1138 0.905326 14.1138Z" fill="#727689" />
  <path d="M27.3783 13.3638H29.4458C29.7499 13.3638 29.9999 13.616 29.9999 13.9229V16.0092C29.9999 16.316 29.7499 16.5683 29.4458 16.5683H27.3783C27.0742 16.5683 26.8242 16.316 26.8242 16.0092V13.9229C26.8242 13.616 27.0742 13.3638 27.3783 13.3638Z" fill="#727689" />
  <path d="M27.7295 14.1138H29.0877C29.1755 14.1138 29.2498 14.1888 29.2498 14.2774V15.6479C29.2498 15.7365 29.1755 15.8115 29.0877 15.8115H27.7295C27.6417 15.8115 27.5674 15.7365 27.5674 15.6479V14.2774C27.5674 14.1888 27.6417 14.1138 27.7295 14.1138Z" fill="#727689" />
  <path d="M0.554054 26.7954H2.62162C2.92568 26.7954 3.17568 27.0477 3.17568 27.3545V29.4409C3.17568 29.7477 2.92568 30 2.62162 30H0.554054C0.25 30 0 29.7477 0 29.4409V27.3545C0 27.0477 0.25 26.7954 0.554054 26.7954Z" fill="#727689" />
  <path d="M0.905326 27.5454H2.26343C2.35127 27.5454 2.4256 27.6204 2.4256 27.709V29.0795C2.4256 29.1681 2.35127 29.2431 2.26343 29.2431H0.905326C0.817488 29.2431 0.743164 29.1681 0.743164 29.0795V27.709C0.743164 27.6204 0.817488 27.5454 0.905326 27.5454Z" fill="#727689" />
  <path d="M13.9999 0H16.0674C16.3715 0 16.6215 0.252273 16.6215 0.559091V2.64545C16.6215 2.95227 16.3715 3.20455 16.0674 3.20455H13.9999C13.6958 3.20455 13.4458 2.95227 13.4458 2.64545V0.559091C13.4458 0.252273 13.6958 0 13.9999 0Z" fill="#727689" />
  <path d="M14.3511 0.75H15.7092C15.7971 0.75 15.8714 0.825 15.8714 0.913636V2.28409C15.8714 2.37273 15.7971 2.44773 15.7092 2.44773H14.3511C14.2633 2.44773 14.189 2.37273 14.189 2.28409V0.913636C14.189 0.825 14.2633 0.75 14.3511 0.75Z" fill="#727689" />
  <path d="M13.9999 26.7954H16.0674C16.3715 26.7954 16.6215 27.0477 16.6215 27.3545V29.4409C16.6215 29.7477 16.3715 30 16.0674 30H13.9999C13.6958 30 13.4458 29.7477 13.4458 29.4409V27.3545C13.4458 27.0477 13.6958 26.7954 13.9999 26.7954Z" fill="#727689" />
  <path d="M14.3511 27.5454H15.7092C15.7971 27.5454 15.8714 27.6204 15.8714 27.709V29.0795C15.8714 29.1681 15.7971 29.2431 15.7092 29.2431H14.3511C14.2633 29.2431 14.189 29.1681 14.189 29.0795V27.709C14.189 27.6204 14.2633 27.5454 14.3511 27.5454Z" fill="#727689" />
  <path d="M27.3783 26.7954H29.4458C29.7499 26.7954 29.9999 27.0477 29.9999 27.3545V29.4409C29.9999 29.7477 29.7499 30 29.4458 30H27.3783C27.0742 30 26.8242 29.7477 26.8242 29.4409V27.3545C26.8242 27.0477 27.0742 26.7954 27.3783 26.7954Z" fill="#727689" />
  <path d="M27.7295 27.5454H29.0877C29.1755 27.5454 29.2498 27.6204 29.2498 27.709V29.0795C29.2498 29.1681 29.1755 29.2431 29.0877 29.2431H27.7295C27.6417 29.2431 27.5674 29.1681 27.5674 29.0795V27.709C27.5674 27.6204 27.6417 27.5454 27.7295 27.5454Z" fill="#727689" />
  <path d="M16.4249 22.27V10.7077H21.5V7.5H7.5V10.7077H12.7008V22.27H16.4249Z" fill="#727689" />
</svg>