<svg width="26" height="26" viewBox="0 0 26 26" fill="none" xmlns="http://www.w3.org/2000/svg">
<path d="M19.9446 14.294C20.0687 13.644 20.1005 12.9798 20.0393 12.3209C20.0262 12.1854 20.0101 12.0469 19.9897 11.9099L18.8881 12.0775C18.7899 11.4146 18.5779 10.7737 18.2614 10.1831L19.2422 9.65702C18.9312 9.0734 18.5387 8.53709 18.0764 8.06424L17.2822 8.84387C16.8141 8.36698 16.2687 7.97281 15.669 7.67807L16.1615 6.67985C15.567 6.3874 14.9341 6.18037 14.2817 6.06489L14.0893 7.1622C13.5723 7.07122 13.0455 7.04966 12.5228 7.09808C12.377 7.1112 12.2313 7.1316 12.0973 7.15491L11.9151 6.05469C11.2619 6.16296 10.6275 6.36364 10.0309 6.65071L10.5147 7.65329C9.91208 7.94328 9.36315 8.33355 8.8913 8.80744L8.10292 8.02344C7.63581 8.49196 7.23742 9.02428 6.91963 9.60456L7.89162 10.1394C7.57107 10.7259 7.3523 11.3625 7.2446 12.0221L6.14292 11.8458C6.04797 12.4296 6.02789 13.0231 6.08317 13.612C6.08317 13.682 6.09628 13.7577 6.10503 13.8204L7.21108 13.6849C7.29105 14.3487 7.48426 14.9939 7.78233 15.5924L6.78557 16.0879C7.08033 16.6807 7.45762 17.2287 7.90619 17.7156L8.72517 16.9608C9.17818 17.4522 9.71134 17.8632 10.3019 18.1761L9.78605 19.1598C10.3713 19.471 10.9979 19.6972 11.647 19.8316L11.8714 18.7415C12.4429 18.8595 13.0288 18.8919 13.6099 18.8377C13.6944 18.829 13.7789 18.8188 13.862 18.8071L14.0077 19.9102C14.6614 19.8211 15.2991 19.6401 15.9021 19.3725L15.4489 18.3524C16.0603 18.0811 16.6208 17.707 17.1058 17.2464L17.8723 18.0552C18.3563 17.6006 18.7738 17.0801 19.1125 16.509L18.1507 15.9436C18.49 15.3676 18.7281 14.7377 18.8545 14.0812L19.9446 14.294ZM13.3592 16.1797C12.7242 16.2383 12.086 16.1074 11.5253 15.8034C10.9647 15.4993 10.5068 15.0359 10.2095 14.4716C9.9122 13.9074 9.78891 13.2677 9.85518 12.6333C9.92145 11.999 10.1743 11.3986 10.5818 10.908C10.9893 10.4174 11.5331 10.0586 12.1445 9.87701C12.7559 9.69543 13.4074 9.69922 14.0166 9.88788C14.6258 10.0765 15.1654 10.4416 15.5672 10.9369C15.969 11.4322 16.2148 12.0356 16.2737 12.6706C16.3524 13.5224 16.0895 14.3705 15.543 15.0285C14.9964 15.6866 14.211 16.1006 13.3592 16.1797Z" fill="#ED1A3A"/>
<g style="mix-blend-mode:multiply" opacity="0.2">
<path d="M18.8822 12.037C18.7945 11.4762 18.6267 10.9309 18.3838 10.418C17.6744 10.9695 16.8833 11.4071 16.0391 11.7149C16.3017 12.3384 16.3614 13.0288 16.2096 13.688C17.1933 13.3045 18.0989 12.745 18.8822 12.037Z" fill="#ED1A3A"/>
</g>
<g style="mix-blend-mode:multiply" opacity="0.2">
<path d="M9.85008 13.264C9.80035 12.7358 9.88247 12.2035 10.0891 11.7149C9.24544 11.4068 8.45489 10.9692 7.74581 10.418C7.5024 10.9256 7.33263 11.4654 7.2416 12.0209H7.22266C8.01088 12.7384 8.92486 13.3041 9.91857 13.6895C9.88583 13.5494 9.86295 13.4072 9.85008 13.264Z" fill="#ED1A3A"/>
</g>
<path d="M14.9445 12.7976C14.9799 13.171 14.9037 13.5465 14.7255 13.8765C14.5473 14.2065 14.2752 14.4762 13.9435 14.6514C13.6119 14.8267 13.2358 14.8995 12.8627 14.8608C12.4897 14.822 12.1366 14.6734 11.848 14.4338C11.5595 14.1941 11.3487 13.8742 11.2421 13.5146C11.1356 13.155 11.1382 12.7719 11.2496 12.4138C11.361 12.0556 11.5762 11.7386 11.8679 11.5029C12.1596 11.2672 12.5147 11.1234 12.8883 11.0897C13.3872 11.0447 13.8836 11.1991 14.2689 11.5192C14.6543 11.8392 14.8972 12.2989 14.9445 12.7976Z" fill="#ED1A3A"/>
<path d="M13 1L15.2105 3.21053L19 2.60769M23.3923 7L22.7895 10.4737L25 13M23.3923 19L20.2632 20.5789L19 23.3923M13 25L10.4737 22.7895L7 23.3923M2.60769 19L3.21053 15.8421L1 13M2.60769 7L5.73684 5.10526L7 2.60769" stroke="#ED1A3A" stroke-width="1.89474"/>
</svg>
