<svg width="17" height="17" viewBox="0 0 17 17" fill="none" xmlns="http://www.w3.org/2000/svg">
<path d="M8.5 15.75C12.5041 15.75 15.75 12.5041 15.75 8.5C15.75 4.49594 12.5041 1.25 8.5 1.25C4.49594 1.25 1.25 4.49594 1.25 8.5C1.25 12.5041 4.49594 15.75 8.5 15.75Z" stroke="#606580" stroke-miterlimit="10" stroke-linecap="round" stroke-linejoin="round"/>
<path d="M10.9 1.95001L7.1 5.75001L7.05 5.80001L5.25 11.75L11.2 9.95001L11.25 9.90001L15.05 6.10001" stroke="#606580" stroke-miterlimit="10" stroke-linecap="round" stroke-linejoin="round"/>
<path d="M11.2 9.95002C10.95 8.95002 10.45 8.05002 9.7 7.30002C8.95 6.55002 8.05 6.05002 7.05 5.80002L7 5.85002" stroke="#606580" stroke-miterlimit="10" stroke-linecap="round" stroke-linejoin="round"/>
<path d="M6.1499 8.90002C6.5999 9.00002 7.0499 9.25003 7.3999 9.60003C7.7499 9.95003 7.9999 10.4 8.0999 10.85" stroke="#606580" stroke-miterlimit="10" stroke-linecap="round" stroke-linejoin="round"/>
</svg>
