<svg width="16" height="17" viewBox="0 0 16 17" fill="none" xmlns="http://www.w3.org/2000/svg">
<path d="M5.5 8.5C5.5 7.1 6.6 6 8 6" stroke="#606580" stroke-miterlimit="10" stroke-linecap="round" stroke-linejoin="round"/>
<path d="M10.5 8.5C10.5 9.9 9.4 11 8 11" stroke="#606580" stroke-miterlimit="10" stroke-linecap="round" stroke-linejoin="round"/>
<path d="M12.95 3.54999L3.05005 13.45" stroke="#606580" stroke-miterlimit="10" stroke-linecap="round" stroke-linejoin="round"/>
<path d="M9.75 4.24999C9.2 4.14999 8.6 4.04999 8 4.04999C4.85 4.09999 2.1 5.89999 0.75 8.49999C1.3 9.49999 2 10.4 2.9 11.1" stroke="#606580" stroke-miterlimit="10" stroke-linecap="round" stroke-linejoin="round"/>
<path d="M6.25 12.75C6.8 12.85 7.4 12.95 8 12.95C11.15 12.95 13.9 11.15 15.25 8.54995C14.7 7.54995 14 6.64995 13.1 5.94995" stroke="#606580" stroke-miterlimit="10" stroke-linecap="round" stroke-linejoin="round"/>
</svg>
