<svg width="16" height="16" viewBox="0 0 16 16" fill="none" xmlns="http://www.w3.org/2000/svg">
<path d="M14.9499 13.45C14.8499 11.85 13.2999 10.6 13.2999 10.6C13.2999 10.6 11.7999 11.85 11.6499 13.45C11.6499 13.5 11.6499 13.55 11.6499 13.65C11.6499 14.55 12.3999 15.3 13.2999 15.3C14.1999 15.3 14.9499 14.55 14.9499 13.65C14.9499 13.55 14.9499 13.5 14.9499 13.45Z" stroke="#606580" stroke-miterlimit="10" stroke-linecap="round" stroke-linejoin="round"/>
<path d="M10.2499 6L12.7499 8.5L11.6999 8.65L6.4999 13.8C5.9999 14.3 5.1999 14.3 4.6999 13.8L1.3999 10.5C0.899902 10 0.899902 9.2 1.3999 8.7L5.5999 4.5L5.7999 4V1.75C5.7999 1.2 6.2499 0.75 6.7999 0.75C7.3499 0.75 7.7999 1.2 7.7999 1.75V6.65" stroke="#606580" stroke-miterlimit="10" stroke-linecap="round" stroke-linejoin="round"/>
</svg>
