<svg width="22" height="25" viewBox="0 0 22 25" fill="none" xmlns="http://www.w3.org/2000/svg">
<path d="M21 6V5C21 2.79086 19.2091 1 17 1H5C2.79086 1 1 2.79086 1 5V17C1 19.2091 2.79086 21 5 21H17C19.2091 21 21 19.2091 21 17V16" stroke="#97A3BA" stroke-linecap="round"/>
<path d="M21.4744 8.1582L19.4744 14.1582" stroke="#97A3BA" stroke-linecap="round"/>
<path d="M6.83166 11.2145V10.376H9.56625C9.59205 10.4104 9.61785 10.4663 9.64364 10.5437C9.66944 10.6125 9.68234 10.6942 9.68234 10.7888C9.68234 10.9264 9.64794 11.0339 9.57915 11.1113C9.51035 11.1801 9.41146 11.2145 9.28247 11.2145H6.83166ZM7.01225 9.56339V11.0726H5.99322V9.5118C5.99322 9.00444 6.08352 8.59597 6.2641 8.28639C6.45329 7.96822 6.71987 7.73604 7.06384 7.58985C7.41641 7.43506 7.83348 7.35766 8.31504 7.35766C8.80521 7.35766 9.18788 7.42216 9.46306 7.55115C9.74684 7.68014 9.88872 7.83923 9.88872 8.02841C9.88872 8.12301 9.86723 8.209 9.82423 8.28639C9.78983 8.36379 9.73824 8.43688 9.66944 8.50568C9.51465 8.41968 9.32117 8.35089 9.08899 8.29929C8.8568 8.2391 8.63322 8.209 8.41824 8.209C7.89368 8.209 7.52821 8.31649 7.32182 8.53147C7.11544 8.74646 7.01225 9.09043 7.01225 9.56339ZM5.99322 10.505H7.02514V15.9742C6.98215 15.9914 6.91765 16.0086 6.83166 16.0258C6.74567 16.0516 6.65107 16.0645 6.54788 16.0645C6.36729 16.0645 6.22971 16.0301 6.13511 15.9613C6.04052 15.8839 5.99322 15.7635 5.99322 15.6001V10.505ZM12.6983 12.6334L12.8918 12.5431C13.2443 12.0873 13.5754 11.6616 13.885 11.2661C14.1946 10.8705 14.5127 10.4362 14.8395 9.96326C14.8739 9.95466 14.8997 9.95037 14.9169 9.95037C14.9341 9.95037 14.9556 9.95037 14.9814 9.95037C15.162 9.95037 15.3039 9.99336 15.4071 10.0794C15.5103 10.1567 15.5619 10.2642 15.5619 10.4018C15.5619 10.4964 15.5404 10.5867 15.4974 10.6727C15.463 10.7587 15.4028 10.8576 15.3168 10.9694C15.0244 11.3306 14.7234 11.696 14.4139 12.0658C14.1129 12.4356 13.8162 12.7967 13.5238 13.1493L13.1885 13.4331C12.8703 13.8545 12.5435 14.293 12.2081 14.7488C11.8728 15.196 11.5503 15.6345 11.2407 16.0645C11.2321 16.0645 11.202 16.0645 11.1504 16.0645C11.1074 16.0645 11.0773 16.0645 11.0601 16.0645C10.8623 16.0645 10.7118 16.0215 10.6086 15.9355C10.5141 15.8495 10.4668 15.742 10.4668 15.613C10.4668 15.5442 10.4797 15.4711 10.5055 15.3937C10.5399 15.3164 10.6129 15.2089 10.7247 15.0713C11.0343 14.6585 11.3611 14.2543 11.7051 13.8588C12.049 13.4546 12.3801 13.0461 12.6983 12.6334ZM13.3303 12.6592L13.5625 12.8139C13.9151 13.2783 14.2677 13.7384 14.6202 14.1941C14.9814 14.6413 15.3383 15.0928 15.6909 15.5485C15.6737 15.7119 15.6178 15.8409 15.5232 15.9355C15.4286 16.0301 15.3039 16.0774 15.1491 16.0774C15.0115 16.0774 14.8954 16.043 14.8008 15.9742C14.7062 15.8968 14.5987 15.7807 14.4784 15.6259C14.2204 15.2648 13.9452 14.8821 13.6528 14.4779C13.369 14.0737 13.0982 13.6954 12.8402 13.3428L12.5435 13.0719C12.1651 12.6162 11.8126 12.1819 11.4858 11.7691C11.159 11.3564 10.8236 10.9307 10.4797 10.4921C10.5141 10.3201 10.5786 10.1868 10.6731 10.0923C10.7677 9.99766 10.8838 9.95037 11.0214 9.95037C11.1676 9.95037 11.2837 9.98906 11.3697 10.0665C11.4557 10.1353 11.5417 10.2298 11.6277 10.3502C11.8857 10.6942 12.1565 11.0726 12.4403 11.4853C12.7241 11.8895 13.0208 12.2808 13.3303 12.6592Z" fill="#97A3BA"/>
</svg>
