<svg width="22" height="22" viewBox="0 0 22 22" fill="none" xmlns="http://www.w3.org/2000/svg">
<path d="M21 6V5C21 2.79086 19.2091 1 17 1H5C2.79086 1 1 2.79086 1 5V17C1 19.2091 2.79086 21 5 21H17C19.2091 21 21 19.2091 21 17V16" stroke="#97A3BA" stroke-linecap="round"/>
<path d="M21.4744 8.1582L19.4744 14.1582" stroke="#97A3BA" stroke-linecap="round"/>
<path d="M7.58658 15.3673C7.53498 15.4017 7.47479 15.3931 7.40599 15.3415C7.3458 15.2899 7.2555 15.1953 7.13511 15.0577C7.07492 14.9889 7.03622 14.9158 7.01902 14.8384C7.00182 14.761 7.00612 14.6149 7.03192 14.3999C7.06632 14.3053 7.08352 14.215 7.08352 14.129C7.09212 14.043 7.09642 13.9828 7.09642 13.9484C7.09642 13.8968 7.10931 13.7764 7.13511 13.5872C7.16951 13.398 7.20391 13.2003 7.2383 12.9939C7.2727 12.7789 7.3028 12.6155 7.3286 12.5037C7.3286 12.4951 7.3329 12.4736 7.3415 12.4392C7.3501 12.4048 7.3587 12.3747 7.36729 12.3489C7.38449 12.2715 7.40599 12.1683 7.43179 12.0394C7.46619 11.9104 7.49628 11.7513 7.52208 11.5621C7.59088 11.3471 7.64677 11.1364 7.68977 10.93C7.74137 10.7151 7.76716 10.5689 7.76716 10.4915C7.76716 10.3367 7.82736 10.2249 7.94775 10.1561C7.95635 10.1131 7.98215 10.0486 8.02514 9.96261C8.06814 9.86802 8.10684 9.79062 8.14124 9.73043C8.31322 9.24027 8.45511 8.8533 8.5669 8.56952C8.67869 8.27714 8.79479 8.02346 8.91518 7.80848C8.96677 7.66229 9.02267 7.5118 9.08286 7.35701C9.15166 7.20222 9.22045 7.08183 9.28925 6.99584C9.33224 6.88405 9.43114 6.74216 9.58592 6.57017C9.74071 6.38959 9.9041 6.2176 10.0761 6.05421C10.2481 5.88222 10.3857 5.75323 10.4889 5.66724C10.678 5.57265 10.8285 5.50815 10.9403 5.47376C11.0521 5.43936 11.1983 5.42216 11.3789 5.42216C11.5423 5.42216 11.6498 5.44366 11.7014 5.48665C11.7616 5.52105 11.8476 5.58985 11.9593 5.69304C12.0797 5.82203 12.1485 5.90802 12.1657 5.95102C12.1829 5.99402 12.1915 6.07571 12.1915 6.1961C12.1743 6.30789 12.127 6.45408 12.0496 6.63467C11.9808 6.80665 11.9034 6.96574 11.8175 7.11193C11.7401 7.24952 11.6756 7.32261 11.624 7.33121C11.5208 7.36561 11.4434 7.35701 11.3918 7.30541C11.3488 7.24522 11.3273 7.15063 11.3273 7.02164C11.3273 6.96144 11.3101 6.90555 11.2757 6.85395C11.2499 6.79375 11.237 6.76366 11.237 6.76366C11.237 6.73786 11.2413 6.69486 11.2499 6.63467C11.2671 6.56587 11.2929 6.50138 11.3273 6.44118C11.3703 6.35519 11.3789 6.29069 11.3531 6.2477C11.3359 6.2047 11.28 6.1961 11.1854 6.2219C11.1596 6.2391 11.0908 6.29069 10.979 6.37669C10.8672 6.46268 10.7468 6.56157 10.6178 6.67336C10.4975 6.77656 10.39 6.87545 10.2954 6.97004C10.2008 7.06463 10.1535 7.12483 10.1535 7.15063C10.1535 7.15063 10.1363 7.18932 10.1019 7.26672C10.0675 7.33551 10.003 7.42581 9.9084 7.5376C9.8482 7.62359 9.79231 7.70958 9.74071 7.79558C9.69772 7.87297 9.67622 7.92027 9.67622 7.93747C9.67622 7.97186 9.67192 8.01056 9.66332 8.05356C9.66332 8.08795 9.64182 8.10515 9.59882 8.10515C9.59882 8.10515 9.58592 8.14385 9.56013 8.22124C9.53433 8.29864 9.48703 8.39753 9.41824 8.51792C9.38384 8.60391 9.34084 8.69421 9.28925 8.7888C9.23765 8.87479 9.19465 8.93499 9.16026 8.96939H9.17316C9.17316 8.96939 9.15166 9.02528 9.10866 9.13707C9.07426 9.24027 9.03557 9.35206 8.99257 9.47245C8.94957 9.58424 8.92807 9.64873 8.92807 9.66593C8.92807 9.70033 8.98827 9.71753 9.10866 9.71753C9.23765 9.71753 9.38814 9.70463 9.56013 9.67883C9.73211 9.64443 9.8869 9.61004 10.0245 9.57564C10.1449 9.54124 10.2266 9.52404 10.2696 9.52404C10.3126 9.52404 10.3986 9.54124 10.5276 9.57564C10.5963 9.61864 10.6522 9.68313 10.6952 9.76913C10.7468 9.84652 10.7812 9.92391 10.7984 10.0013C10.8242 10.0701 10.8242 10.1217 10.7984 10.1561C10.7898 10.1905 10.6952 10.2378 10.5147 10.298C10.3341 10.3582 10.1535 10.4055 9.97289 10.4399C9.81811 10.4743 9.62892 10.513 9.40534 10.556C9.18176 10.599 8.98397 10.6377 8.81198 10.6721C8.6486 10.7065 8.5669 10.7366 8.5669 10.7623C8.53251 10.7623 8.50241 10.7838 8.47661 10.8268C8.45081 10.8612 8.43791 10.8913 8.43791 10.9171C8.43791 11.0375 8.42071 11.1278 8.38632 11.188C8.36912 11.2396 8.33902 11.3428 8.29602 11.4976C8.25303 11.6524 8.20573 11.8244 8.15413 12.0136C8.11114 12.2027 8.07244 12.3747 8.03804 12.5295C8.01225 12.6843 7.99935 12.7875 7.99935 12.8391C7.94775 12.8993 7.91765 12.9767 7.90905 13.0713C7.90045 13.1573 7.89615 13.2347 7.89615 13.3035C7.86176 13.3722 7.84026 13.4367 7.83166 13.4969C7.82306 13.5485 7.81876 13.5915 7.81876 13.6259C7.81876 13.6345 7.81876 13.6517 7.81876 13.6775C7.81876 13.7033 7.81446 13.7291 7.80586 13.7549C7.79726 13.8409 7.78436 13.9527 7.76716 14.0903C7.75856 14.2365 7.75427 14.3784 7.75427 14.516L7.71557 14.89C7.70697 15.0018 7.69407 15.0964 7.67687 15.1738C7.65967 15.2598 7.62957 15.3243 7.58658 15.3673ZM10.8502 13.9097C10.7126 13.9183 10.6137 13.8538 10.5536 13.7162C10.502 13.5786 10.5665 13.4066 10.747 13.2003C10.79 13.1573 10.8631 13.0799 10.9663 12.9681C11.0781 12.8477 11.1985 12.7101 11.3275 12.5553C11.4651 12.4005 11.5984 12.2457 11.7274 12.0909L12.3723 11.3299L12.9528 10.7623L13.7009 9.93681C13.9589 9.66163 14.161 9.46815 14.3072 9.35636C14.4534 9.23597 14.5737 9.17577 14.6683 9.17577C14.7629 9.16717 14.8532 9.20587 14.9392 9.29186C14.9822 9.31766 15.0037 9.35636 15.0037 9.40795C15.0123 9.45955 15.0166 9.50255 15.0166 9.53694C15.0338 9.59714 14.9607 9.73043 14.7973 9.93681C14.6425 10.1432 14.3674 10.4442 13.9718 10.8397C13.7482 10.9945 13.5633 11.1493 13.4171 11.3041C13.2795 11.4589 13.215 11.5535 13.2236 11.5879C13.0861 11.7427 12.97 11.8674 12.8754 11.962C12.7894 12.0565 12.6991 12.1511 12.6045 12.2457C12.5185 12.3317 12.4153 12.4392 12.2949 12.5682C12.1831 12.6886 12.0326 12.8606 11.8435 13.0842C11.6285 13.3422 11.4307 13.5399 11.2501 13.6775C11.0781 13.8151 10.9448 13.8925 10.8502 13.9097ZM14.1008 14.3225C14.0406 14.3225 13.9589 14.2838 13.8557 14.2064C13.7525 14.1376 13.6493 14.0473 13.5461 13.9355C13.4515 13.8237 13.3698 13.7162 13.301 13.613L13.1076 13.239V13.2519C13.0474 13.1315 12.9829 13.0068 12.9141 12.8778C12.8539 12.7402 12.8152 12.6327 12.798 12.5553C12.798 12.5381 12.7894 12.5123 12.7722 12.4779C12.7636 12.4435 12.7335 12.3532 12.6819 12.207C12.6303 12.0608 12.5314 11.8158 12.3852 11.4718L12.1917 10.7752C12.1401 10.5947 12.0842 10.4227 12.024 10.2593C11.9638 10.0873 11.9122 9.97121 11.8693 9.91101C11.8091 9.79922 11.779 9.73043 11.779 9.70463C11.779 9.67023 11.8005 9.61004 11.8435 9.52404L11.8693 9.51115C11.938 9.42515 12.0068 9.36496 12.0756 9.33056C12.1444 9.29616 12.2261 9.29186 12.3207 9.31766C12.3895 9.36066 12.4583 9.45095 12.5271 9.58854C12.6045 9.71753 12.6733 9.85942 12.7335 10.0142C12.8023 10.1604 12.8582 10.298 12.9012 10.427V10.4141L13.056 10.8784L13.2494 11.5879C13.2322 11.6309 13.2408 11.7169 13.2752 11.8459C13.3182 11.9749 13.3698 12.1296 13.43 12.3102L13.5074 12.6198C13.5418 12.6972 13.5848 12.7832 13.6364 12.8778C13.688 12.9638 13.7267 13.0412 13.7525 13.11V13.0971C13.7955 13.2089 13.8385 13.3121 13.8815 13.4066C13.9245 13.5012 13.9589 13.5786 13.9847 13.6388C14.0191 13.699 14.0406 13.7291 14.0492 13.7291C14.1008 13.7635 14.1266 13.785 14.1266 13.7936C14.1352 13.8022 14.1438 13.8151 14.1524 13.8323C14.161 13.8581 14.1739 13.8839 14.1911 13.9097C14.2169 13.9355 14.2341 13.9613 14.2427 13.9871C14.2685 14.0473 14.2814 14.0989 14.2814 14.1419C14.29 14.1935 14.2771 14.2322 14.2427 14.258C14.2169 14.2924 14.1696 14.3139 14.1008 14.3225Z" fill="#97A3BA"/>
</svg>
