<svg width="22" height="22" viewBox="0 0 22 22" fill="none" xmlns="http://www.w3.org/2000/svg">
<path d="M21 6V5C21 2.79086 19.2091 1 17 1H5C2.79086 1 1 2.79086 1 5V17C1 19.2091 2.79086 21 5 21H17C19.2091 21 21 19.2091 21 17V16" stroke="#97A3BA" stroke-linecap="round"/>
<path d="M21.4744 8.1582L19.4744 14.1582" stroke="#97A3BA" stroke-linecap="round"/>
<path d="M6.3415 15.129C6.2383 15.129 6.13081 15.1118 6.01902 15.0774C5.91583 15.043 5.82554 14.9613 5.74814 14.8323C5.67935 14.7033 5.64495 14.5055 5.64495 14.239C5.64495 14.067 5.66215 13.8434 5.69655 13.5682C5.73094 13.2844 5.77824 12.919 5.83844 12.4718C5.88143 12.188 5.92873 11.8096 5.98032 11.3367C6.04052 10.8551 6.07062 10.3521 6.07062 9.8275C6.07062 9.59532 6.06202 9.35023 6.04482 9.09225C6.02762 8.82567 5.99322 8.58489 5.94163 8.36991C5.83844 8.39571 5.76104 8.40861 5.70945 8.40861C5.65785 8.40861 5.61915 8.39571 5.59335 8.36991C5.56756 8.33551 5.55466 8.27532 5.55466 8.18932C5.55466 8.01734 5.57186 7.84535 5.60625 7.67336C5.64925 7.49278 5.71375 7.34229 5.79974 7.2219C5.88573 7.10151 5.98462 7.01551 6.09642 6.96392C6.21681 6.91232 6.3415 6.87792 6.47049 6.86073C6.68547 6.83493 6.95635 6.81343 7.28312 6.79623C7.6185 6.77043 7.96677 6.74893 8.32794 6.73174C8.69772 6.71454 9.03309 6.70594 9.33407 6.70594C9.73824 6.70594 10.0349 6.71024 10.2241 6.71884C10.4219 6.72744 10.5724 6.74033 10.6756 6.75753C10.8991 6.79193 11.0109 6.91232 11.0109 7.11871C11.0109 7.26489 10.9808 7.39818 10.9206 7.51857C10.869 7.63037 10.8046 7.73356 10.7272 7.82815C10.6326 7.96574 10.5294 8.06463 10.4176 8.12483C10.3144 8.17642 10.1768 8.19362 10.0048 8.17642C9.85863 8.15923 9.65654 8.14633 9.39856 8.13773C9.14918 8.12053 8.8611 8.11193 8.53433 8.11193C8.39674 8.11193 8.21615 8.11623 7.99257 8.12483C7.76899 8.13343 7.53251 8.14633 7.28312 8.16353C7.27453 8.4559 7.24873 8.79128 7.20573 9.16965C7.16273 9.53942 7.11544 9.91779 7.06384 10.3048C7.29602 10.2876 7.5755 10.2747 7.90228 10.2661C8.22905 10.2489 8.56443 10.236 8.9084 10.2274C9.25237 10.2188 9.55765 10.2145 9.82423 10.2145C9.97902 10.2145 10.0908 10.236 10.1596 10.279C10.2284 10.3134 10.2628 10.3951 10.2628 10.524C10.2628 10.6702 10.2241 10.8293 10.1467 11.0013C10.0779 11.1647 9.98332 11.3066 9.86293 11.427C9.75113 11.5474 9.63074 11.6033 9.50175 11.5947C9.28677 11.5775 8.98149 11.5646 8.58592 11.556C8.19895 11.5474 7.79049 11.5431 7.36052 11.5431H6.94775C6.93055 11.7323 6.91335 11.9214 6.89615 12.1106C6.88755 12.2912 6.88326 12.4589 6.88326 12.6137C6.88326 12.9147 6.91335 13.1812 6.97355 13.4134C7.03374 13.637 7.14983 13.8305 7.32182 13.9939C7.43361 14.1057 7.48951 14.2347 7.48951 14.3808C7.48951 14.57 7.38202 14.742 7.16703 14.8968C6.95205 15.0516 6.67687 15.129 6.3415 15.129ZM11.4473 15.129C11.1635 15.129 10.927 15.0559 10.7378 14.9097C10.5573 14.7635 10.467 14.5571 10.467 14.2906C10.467 14.0154 10.5487 13.7918 10.712 13.6198C10.884 13.4392 11.0388 13.3489 11.1764 13.3489C11.271 13.3489 11.3398 13.4005 11.3828 13.5037C11.4344 13.5983 11.4989 13.6628 11.5763 13.6972C11.6537 13.7316 11.7311 13.7488 11.8085 13.7488C12.032 13.7488 12.2298 13.6413 12.4018 13.4263C12.5738 13.2113 12.7329 12.919 12.8791 12.5492C12.7415 12.1708 12.548 11.8483 12.2986 11.5818C12.0492 11.3066 11.744 11.169 11.3828 11.169C11.3312 11.169 11.2882 11.1733 11.2538 11.1819C11.2194 11.1819 11.1893 11.1819 11.1635 11.1819C11.1033 11.1819 11.0388 11.1432 10.97 11.0658C10.9012 10.9798 10.8668 10.8422 10.8668 10.653C10.8668 10.3521 10.9657 10.1285 11.1635 9.98229C11.3613 9.8361 11.5806 9.763 11.8214 9.763C12.1825 9.763 12.5136 9.92209 12.8146 10.2403C13.1156 10.5498 13.3606 10.9454 13.5498 11.427C13.7132 11.126 13.9067 10.8508 14.1303 10.6014C14.3625 10.3435 14.6075 10.1414 14.8655 9.99518C15.1321 9.8404 15.3901 9.763 15.6395 9.763C15.8716 9.763 16.035 9.8232 16.1296 9.94359C16.2242 10.0554 16.2715 10.1844 16.2715 10.3306C16.2715 10.4681 16.2414 10.61 16.1812 10.7562C16.121 10.9024 16.0479 11.0271 15.9619 11.1303C15.8759 11.2335 15.7857 11.2851 15.6911 11.2851C15.6395 11.2851 15.5793 11.2722 15.5105 11.2464C15.4503 11.2292 15.3772 11.212 15.2912 11.1948C15.2052 11.169 15.1149 11.1561 15.0203 11.1561C14.8053 11.1561 14.6161 11.2378 14.4528 11.4012C14.298 11.5646 14.1088 11.8612 13.8852 12.2912C13.9798 12.5234 14.1045 12.7513 14.2593 12.9749C14.4141 13.1898 14.5989 13.3704 14.8139 13.5166C15.0375 13.6628 15.2912 13.7359 15.575 13.7359C15.6266 13.7359 15.6739 13.7359 15.7169 13.7359C15.7599 13.7273 15.7986 13.723 15.8329 13.723C15.8845 13.723 15.9232 13.7445 15.949 13.7875C15.9834 13.8219 16.0006 13.9036 16.0006 14.0326C16.0006 14.1874 15.9705 14.3507 15.9103 14.5227C15.8501 14.6861 15.7427 14.828 15.5879 14.9484C15.4331 15.0688 15.2095 15.129 14.9171 15.129C14.5989 15.129 14.3324 15.0473 14.1174 14.8839C13.9024 14.7205 13.7261 14.5055 13.5885 14.239C13.4595 13.9724 13.3477 13.6929 13.2531 13.4005C13.021 13.8993 12.7716 14.3121 12.505 14.6388C12.247 14.9656 11.8945 15.129 11.4473 15.129Z" fill="#97A3BA"/>
</svg>
