<svg width="22" height="22" viewBox="0 0 22 22" fill="none" xmlns="http://www.w3.org/2000/svg">
<path d="M21 6V5C21 2.79086 19.2091 1 17 1H5C2.79086 1 1 2.79086 1 5V17C1 19.2091 2.79086 21 5 21H17C19.2091 21 21 19.2091 21 17V16" stroke="#97A3BA" stroke-linecap="round"/>
<path d="M21.4744 8.1582L19.4744 14.1582" stroke="#97A3BA" stroke-linecap="round"/>
<path d="M11.6811 6.55392H8.99801L8.08475 10.1755H10.4277C10.5075 10.1755 10.5621 10.207 10.5915 10.2699C10.6209 10.3287 10.6272 10.3959 10.6104 10.4715L10.5222 10.7927C10.4802 10.9733 10.3501 11.0635 10.1317 11.0635H7.85171L6.91956 14.7166C6.86917 14.9055 6.74111 15 6.53536 15H6.16376C6.05878 15 5.9832 14.9622 5.93702 14.8866C5.88663 14.8069 5.87613 14.7124 5.90552 14.6032L7.95249 6.55392H7.44862C7.32265 6.55392 7.24287 6.53503 7.20928 6.49724C7.17989 6.45525 7.18409 6.36077 7.22188 6.21381L7.29746 5.91779C7.33105 5.80862 7.36674 5.73934 7.40453 5.70994C7.44232 5.67635 7.5221 5.65956 7.64387 5.65956H11.8512C11.9687 5.65956 12.0464 5.68265 12.0842 5.72884C12.1262 5.77083 12.1304 5.85481 12.0968 5.98077L12.0023 6.30829C11.9603 6.47204 11.8533 6.55392 11.6811 6.55392ZM10.1191 14.6788C11.1604 13.4149 11.9393 12.4261 12.4558 11.7123C12.2417 10.8095 11.9918 9.87945 11.7063 8.9221C11.5971 8.60718 11.6664 8.44972 11.9141 8.44972H12.2732C12.4621 8.44972 12.5881 8.5484 12.6511 8.74574C12.882 9.54353 13.0751 10.2657 13.2305 10.9124C13.6084 10.3623 14.085 9.59602 14.6602 8.61348C14.719 8.50431 14.8345 8.44972 15.0066 8.44972H15.4475C15.6785 8.44972 15.6994 8.60298 15.5105 8.9095C15.0486 9.71149 14.3705 10.7234 13.4761 11.9453C13.6735 12.8229 13.8498 13.7508 14.0052 14.7292C14.0304 14.9013 13.9611 14.9916 13.7973 15L13.4069 15.0378C13.2893 15.0546 13.2074 15.0378 13.1612 14.9874C13.1192 14.937 13.0772 14.8215 13.0353 14.641C12.9513 14.0531 12.84 13.4422 12.7014 12.8082C12.1094 13.564 11.7168 14.0573 11.5236 14.2883C11.3347 14.515 11.2234 14.6494 11.1898 14.6914C11.1562 14.7334 11.1352 14.7607 11.1269 14.7733C11.1185 14.7859 11.0996 14.811 11.0702 14.8488C11.0408 14.8824 11.0135 14.9034 10.9883 14.9118C10.9673 14.9202 10.94 14.9328 10.9064 14.9496C10.856 14.9832 10.7867 15 10.6986 15H10.327C10.2052 15 10.1254 14.9643 10.0876 14.8929C10.0498 14.8173 10.0603 14.746 10.1191 14.6788Z" fill="#97A3BA"/>
</svg>
