<svg width="17" height="16" viewBox="0 0 17 16" fill="none" xmlns="http://www.w3.org/2000/svg">
<path d="M8.6001 15.3C10.257 15.3 11.6001 14.4941 11.6001 13.5C11.6001 12.5059 10.257 11.7 8.6001 11.7C6.94324 11.7 5.6001 12.5059 5.6001 13.5C5.6001 14.4941 6.94324 15.3 8.6001 15.3Z" stroke="#606580" stroke-miterlimit="10" stroke-linecap="round" stroke-linejoin="round"/>
<path d="M5.2999 10.85C5.2999 9.75 6.7499 9.4 8.5499 9.4C10.3499 9.4 11.7999 9.75 11.7999 10.85L12.3499 11.15C13.0499 10.45 13.4499 9.5 13.4499 8.4V5.55C13.4999 2.75 11.0999 0.500003 8.2499 0.650003C5.6499 0.800003 3.6499 3.1 3.6499 5.7V8.35C3.6499 9.4 4.0999 10.4 4.7499 11.1L5.2999 10.85Z" stroke="#606580" stroke-miterlimit="10" stroke-linecap="round" stroke-linejoin="round"/>
<path d="M6.3 7.44998C7.01797 7.44998 7.6 6.86795 7.6 6.14998C7.6 5.43201 7.01797 4.84998 6.3 4.84998C5.58203 4.84998 5 5.43201 5 6.14998C5 6.86795 5.58203 7.44998 6.3 7.44998Z" stroke="#606580" stroke-miterlimit="10" stroke-linecap="round" stroke-linejoin="round"/>
<path d="M10.85 7.45001C11.568 7.45001 12.15 6.86798 12.15 6.15001C12.15 5.43204 11.568 4.85001 10.85 4.85001C10.1321 4.85001 9.55005 5.43204 9.55005 6.15001C9.55005 6.86798 10.1321 7.45001 10.85 7.45001Z" stroke="#606580" stroke-miterlimit="10" stroke-linecap="round" stroke-linejoin="round"/>
</svg>
