<svg width="24" height="24" viewBox="0 0 24 24" fill="none" xmlns="http://www.w3.org/2000/svg">
<path d="M7.68493 9.76588L7.35616 9.38916V9.38917L7.68493 9.76588ZM11.3425 6.57385L11.6712 6.95056L11.3425 6.57385ZM12.6575 6.57385L12.3288 6.95056L12.6575 6.57385ZM16.3151 9.76588L16.6438 9.38917L16.6438 9.38917L16.3151 9.76588ZM3.73005 22.455L3.95704 22.0095L3.73005 22.455ZM1.54497 20.27L1.99047 20.043L1.54497 20.27ZM22.455 20.27L22.0095 20.043L22.455 20.27ZM20.27 22.455L20.043 22.0095L20.27 22.455ZM20.27 1.54497L20.043 1.99047L20.27 1.54497ZM22.455 3.73005L22.0095 3.95704L22.455 3.73005ZM3.73005 1.54497L3.95704 1.99047L3.73005 1.54497ZM1.54497 3.73005L1.99047 3.95704L1.54497 3.73005ZM7.5 16V11.2727H6.5V16H7.5ZM8.0137 10.1426L11.6712 6.95056L11.0137 6.19714L7.35616 9.38916L8.0137 10.1426ZM12.3288 6.95056L15.9863 10.1426L16.6438 9.38917L12.9863 6.19714L12.3288 6.95056ZM16.5 11.2727V16H17.5V11.2727H16.5ZM15 17.5H9V18.5H15V17.5ZM16.5 16C16.5 16.8284 15.8284 17.5 15 17.5V18.5C16.3807 18.5 17.5 17.3807 17.5 16H16.5ZM15.9863 10.1426C16.3127 10.4274 16.5 10.8395 16.5 11.2727H17.5C17.5 10.5507 17.1878 9.86393 16.6438 9.38917L15.9863 10.1426ZM11.6712 6.95056C11.8596 6.78618 12.1404 6.78618 12.3288 6.95056L12.9863 6.19714C12.4212 5.70399 11.5788 5.70398 11.0137 6.19714L11.6712 6.95056ZM7.5 11.2727C7.5 10.8395 7.6873 10.4274 8.0137 10.1426L7.35616 9.38917C6.81217 9.86393 6.5 10.5507 6.5 11.2727H7.5ZM6.5 16C6.5 17.3807 7.61929 18.5 9 18.5V17.5C8.17157 17.5 7.5 16.8284 7.5 16H6.5ZM9 1.5H15V0.5H9V1.5ZM22.5 9V15H23.5V9H22.5ZM15 22.5H9V23.5H15V22.5ZM1.5 15V9H0.5V15H1.5ZM9 22.5C7.59162 22.5 6.5654 22.4996 5.75673 22.4335C4.95389 22.3679 4.40959 22.2401 3.95704 22.0095L3.50305 22.9005C4.12007 23.2149 4.81061 23.3596 5.67529 23.4302C6.53414 23.5004 7.60812 23.5 9 23.5V22.5ZM0.5 15C0.5 16.3919 0.499611 17.4659 0.569781 18.3247C0.640429 19.1894 0.78508 19.8799 1.09946 20.4969L1.99047 20.043C1.75989 19.5904 1.63205 19.0461 1.56646 18.2433C1.50039 17.4346 1.5 16.4084 1.5 15H0.5ZM3.95704 22.0095C3.11031 21.5781 2.4219 20.8897 1.99047 20.043L1.09946 20.4969C1.62677 21.5318 2.46816 22.3732 3.50305 22.9005L3.95704 22.0095ZM22.5 15C22.5 16.4084 22.4996 17.4346 22.4335 18.2433C22.3679 19.0461 22.2401 19.5904 22.0095 20.043L22.9005 20.4969C23.2149 19.8799 23.3596 19.1894 23.4302 18.3247C23.5004 17.4659 23.5 16.3919 23.5 15H22.5ZM15 23.5C16.3919 23.5 17.4659 23.5004 18.3247 23.4302C19.1894 23.3596 19.8799 23.2149 20.4969 22.9005L20.043 22.0095C19.5904 22.2401 19.0461 22.3679 18.2433 22.4335C17.4346 22.4996 16.4084 22.5 15 22.5V23.5ZM22.0095 20.043C21.5781 20.8897 20.8897 21.5781 20.043 22.0095L20.4969 22.9005C21.5318 22.3732 22.3732 21.5318 22.9005 20.4969L22.0095 20.043ZM15 1.5C16.4084 1.5 17.4346 1.50039 18.2433 1.56646C19.0461 1.63205 19.5904 1.75989 20.043 1.99047L20.4969 1.09946C19.8799 0.78508 19.1894 0.640429 18.3247 0.569781C17.4659 0.499611 16.3919 0.5 15 0.5V1.5ZM23.5 9C23.5 7.60812 23.5004 6.53414 23.4302 5.67529C23.3596 4.81061 23.2149 4.12007 22.9005 3.50305L22.0095 3.95704C22.2401 4.40959 22.3679 4.95389 22.4335 5.75673C22.4996 6.5654 22.5 7.59162 22.5 9H23.5ZM20.043 1.99047C20.8897 2.4219 21.5781 3.11031 22.0095 3.95704L22.9005 3.50305C22.3732 2.46816 21.5318 1.62677 20.4969 1.09946L20.043 1.99047ZM9 0.5C7.60812 0.5 6.53414 0.499611 5.67529 0.569781C4.81061 0.640429 4.12007 0.78508 3.50305 1.09946L3.95704 1.99047C4.40959 1.75989 4.95389 1.63205 5.75673 1.56646C6.5654 1.50039 7.59162 1.5 9 1.5V0.5ZM1.5 9C1.5 7.59162 1.50039 6.5654 1.56646 5.75673C1.63205 4.95389 1.75989 4.40959 1.99047 3.95704L1.09946 3.50305C0.78508 4.12007 0.640429 4.81061 0.569781 5.67529C0.499611 6.53414 0.5 7.60812 0.5 9H1.5ZM3.50305 1.09946C2.46816 1.62677 1.62677 2.46816 1.09946 3.50305L1.99047 3.95704C2.4219 3.11031 3.11031 2.4219 3.95704 1.99047L3.50305 1.09946Z" fill="#727689"/>
</svg>
