<svg width="16" height="17" viewBox="0 0 16 17" fill="none" xmlns="http://www.w3.org/2000/svg">
<path d="M12 5.84998C12.5523 5.84998 13 5.40226 13 4.84998C13 4.29769 12.5523 3.84998 12 3.84998C11.4477 3.84998 11 4.29769 11 4.84998C11 5.40226 11.4477 5.84998 12 5.84998Z" stroke="#606580" stroke-miterlimit="10" stroke-linecap="round" stroke-linejoin="round"/>
<path d="M8.4999 2.75002C7.3499 3.80002 6.9499 5.35002 7.2999 6.70002L1.3499 12.7C0.749902 13.3 0.749902 14.2 1.3499 14.8C1.9499 15.4 2.8499 15.4 3.4499 14.8L3.7999 14.45H5.1999V13.05H6.5999V11.65H7.9999V10.25L9.1499 9.10002C10.6499 10 12.6499 9.80002 13.9499 8.50002C15.5499 6.90002 15.4999 4.25002 13.7499 2.75002C12.1999 1.45002 9.9999 1.45002 8.4999 2.75002Z" stroke="#606580" stroke-miterlimit="10" stroke-linecap="round" stroke-linejoin="round"/>
</svg>
