<svg width="17" height="17" viewBox="0 0 17 17" fill="none" xmlns="http://www.w3.org/2000/svg">
<path d="M4.1001 5.6C4.1001 6.55 4.4001 7.5 5.0001 8.25L6.1501 9.75C6.3501 10 6.4001 10.25 6.4001 10.55V11.85H10.6501V10.55C10.6501 10.25 10.7501 10 10.9001 9.75L12.0501 8.25C12.6501 7.5 12.9501 6.55 12.9501 5.6C12.9501 3.2 11.0001 1.25 8.6001 1.25H8.5001C6.0501 1.25 4.1001 3.2 4.1001 5.6Z" stroke="#606580" stroke-miterlimit="10" stroke-linecap="round" stroke-linejoin="round"/>
<path d="M10.6499 11.85H6.3999V13.8H10.6499V11.85Z" stroke="#606580" stroke-miterlimit="10" stroke-linecap="round" stroke-linejoin="round"/>
<path d="M10.5999 13.8H6.3999L7.5999 15.75H9.3999L10.5999 13.8Z" stroke="#606580" stroke-miterlimit="10" stroke-linecap="round" stroke-linejoin="round"/>
<path d="M8.5 3.20001C9.95 3.20001 11.15 4.40001 11.15 5.85001" stroke="#606580" stroke-miterlimit="10" stroke-linecap="round" stroke-linejoin="round"/>
</svg>
