<svg width="16" height="17" viewBox="0 0 16 17" fill="none" xmlns="http://www.w3.org/2000/svg">
<path d="M4.1001 7.7V5.3C4.1001 3.2 5.8001 1.5 7.9001 1.5H8.0501C10.1501 1.5 11.8501 3.2 11.8501 5.3V7.7" stroke="#606580" stroke-miterlimit="10" stroke-linecap="round" stroke-linejoin="round"/>
<path d="M12.3 15.5H3.70005C3.05005 15.5 2.55005 15 2.55005 14.35V8.85001C2.55005 8.20001 3.05005 7.70001 3.70005 7.70001H12.3C12.95 7.70001 13.45 8.20001 13.45 8.85001V14.35C13.45 15 12.95 15.5 12.3 15.5Z" stroke="#606580" stroke-miterlimit="10" stroke-linecap="round" stroke-linejoin="round"/>
<path fill-rule="evenodd" clip-rule="evenodd" d="M3.70005 15.5H12.3C12.95 15.5 13.45 15 13.45 14.35V8.85001C13.45 8.20001 12.95 7.70001 12.3 7.70001H3.70005C3.05005 7.70001 2.55005 8.20001 2.55005 8.85001V14.35C2.55005 15 3.05005 15.5 3.70005 15.5ZM9.1501 10.55C9.1501 11.006 8.88473 11.4 8.5 11.5859V13.05C8.5 13.3261 8.27614 13.55 8 13.55C7.72386 13.55 7.5 13.3261 7.5 13.05V11.5859C7.11538 11.3998 6.8501 11.0059 6.8501 10.55C6.8501 9.91487 7.36497 9.39999 8.0001 9.39999C8.63523 9.39999 9.1501 9.91487 9.1501 10.55Z" fill="#606580"/>
</svg>
