<svg width="16" height="16" viewBox="0 0 16 16" fill="none" xmlns="http://www.w3.org/2000/svg">
<path d="M11.05 12.65C10.63 13.43 10.1 13.89 9.52502 13.89C8.14002 13.89 7.02002 11.195 7.02002 7.87499C7.02002 4.55499 8.14002 1.85999 9.52502 1.85999C10.075 1.85999 10.585 2.28999 11 3.01499" stroke="#606580" stroke-miterlimit="10" stroke-linecap="round" stroke-linejoin="round"/>
<path d="M9.525 1.85999C9.06 1.85999 8.61 1.99999 8.225 2.26499L4.31 5.71999L1 6.26999V9.47998L4.31 10.03L8.095 13.47C8.48 13.74 8.94 13.89 9.415 13.89H9.525" stroke="#606580" stroke-miterlimit="10" stroke-linecap="round" stroke-linejoin="round"/>
<path d="M3.20508 10.28V14.14" stroke="#606580" stroke-miterlimit="10" stroke-linecap="round" stroke-linejoin="round"/>
<path d="M12.095 5.67999C13.305 6.88999 13.305 8.85499 12.095 10.07" stroke="#606580" stroke-miterlimit="10" stroke-linecap="round" stroke-linejoin="round"/>
<path d="M13.4448 4.33002C15.4048 6.29002 15.4048 9.46502 13.4448 11.42" stroke="#606580" stroke-miterlimit="10" stroke-linecap="round" stroke-linejoin="round"/>
</svg>
