<svg width="27" height="19" viewBox="0 0 27 19" fill="none" xmlns="http://www.w3.org/2000/svg">
<path d="M16.3547 1.46982V10.8708L17.1773 10.4009L17.9999 10.871V1" stroke="#606580" stroke-width="0.548387"/>
<path d="M2.09668 2.64514V17.19C2.09668 17.578 2.48943 17.8454 2.8572 17.7219C5.54329 16.8195 10.4835 15.9138 13.6128 18" stroke="#606580" stroke-width="0.548387" stroke-linecap="round" stroke-linejoin="round"/>
<path d="M25.1289 18C22.8897 17.1723 17.4515 16.0136 13.6128 18" stroke="#606580" stroke-width="0.548387" stroke-linecap="round" stroke-linejoin="round"/>
<path d="M25.1292 2.64514V18" stroke="#606580" stroke-width="0.548387" stroke-linecap="round" stroke-linejoin="round"/>
<path d="M13.6128 2.64515C15.5321 1.24963 20.5225 -0.22548 25.1289 2.6453" stroke="#606580" stroke-width="0.548387" stroke-linecap="round" stroke-linejoin="round"/>
<path d="M13.6128 2.64515C11.5335 1.24963 6.31926 -0.22548 2.09668 2.6453" stroke="#606580" stroke-width="0.548387" stroke-linecap="round" stroke-linejoin="round"/>
<path d="M1.90092 2.64514H1L1 18H26.2258V2.64514H25.3249" stroke="#606580" stroke-width="0.548387" stroke-linecap="round" stroke-linejoin="round"/>
<path d="M13.6128 18V2.64514" stroke="#606580" stroke-width="0.548387"/>
</svg>
