<svg width="17" height="16" viewBox="0 0 17 16" fill="none" xmlns="http://www.w3.org/2000/svg">
<path d="M8.5 10.5V11.45" stroke="#606580" stroke-miterlimit="10" stroke-linecap="round" stroke-linejoin="round"/>
<path d="M8.5 13V13.95" stroke="#606580" stroke-miterlimit="10" stroke-linecap="round" stroke-linejoin="round"/>
<path d="M8.5 5.5V6.45" stroke="#606580" stroke-miterlimit="10" stroke-linecap="round" stroke-linejoin="round"/>
<path d="M8.5 8V8.95" stroke="#606580" stroke-miterlimit="10" stroke-linecap="round" stroke-linejoin="round"/>
<path d="M16.0001 14.4L13.1001 5.5" stroke="#606580" stroke-miterlimit="10" stroke-linecap="round" stroke-linejoin="round"/>
<path d="M2.05 11.15L1 14.4" stroke="#606580" stroke-miterlimit="10" stroke-linecap="round" stroke-linejoin="round"/>
<path d="M13.5001 14.4L11.6001 5.5" stroke="#606580" stroke-miterlimit="10" stroke-linecap="round" stroke-linejoin="round"/>
<path d="M4.15 11.45L3.5 14.4" stroke="#606580" stroke-miterlimit="10" stroke-linecap="round" stroke-linejoin="round"/>
<path d="M6.8499 6.45C6.6499 3.7 3.9999 1.5 3.9999 1.5C3.9999 1.5 1.3499 3.7 1.1499 6.45C1.1499 6.55 1.1499 6.65 1.1499 6.75C1.1499 8.35 2.4499 9.6 3.9999 9.6C5.5499 9.6 6.8499 8.3 6.8499 6.75C6.8499 6.7 6.8499 6.6 6.8499 6.45Z" stroke="#606580" stroke-width="0.90695" stroke-miterlimit="10" stroke-linecap="round" stroke-linejoin="round"/>
<path d="M2.30005 6.95001C2.30005 7.75001 2.95005 8.40001 3.75005 8.40001" stroke="#606580" stroke-width="0.90695" stroke-miterlimit="10" stroke-linecap="round" stroke-linejoin="round"/>
</svg>
