<svg width="17" height="19" viewBox="0 0 17 19" fill="none" xmlns="http://www.w3.org/2000/svg">
<path d="M13.5 9.5C13.5 11.4759 12.912 13.2448 11.9859 14.5076C11.0596 15.7708 9.82123 16.5 8.5 16.5C7.17877 16.5 5.94043 15.7708 5.01412 14.5076C4.08802 13.2448 3.5 11.4759 3.5 9.5C3.5 7.52407 4.08802 5.75524 5.01412 4.49238C5.94043 3.22923 7.17877 2.5 8.5 2.5C9.82123 2.5 11.0596 3.22923 11.9859 4.49238C12.912 5.75524 13.5 7.52407 13.5 9.5Z" stroke="#667799"/>
<line y1="9.5" x2="17" y2="9.5" stroke="#667799"/>
<rect x="7" width="3" height="3" fill="#667799"/>
<rect x="7" y="16" width="3" height="3" fill="#667799"/>
</svg>
