<svg width="17" height="17" viewBox="0 0 17 17" fill="none" xmlns="http://www.w3.org/2000/svg">
<path d="M5.85 15.5H4.35C3.85 15.5 3.5 15.15 3.5 14.7V2.3C3.5 1.85 3.85 1.5 4.3 1.5H5.8C6.25 1.5 6.6 1.85 6.6 2.3V14.65C6.65 15.15 6.3 15.5 5.85 15.5Z" stroke="#606580" stroke-miterlimit="10" stroke-linecap="round" stroke-linejoin="round"/>
<path d="M12.6999 15.5H11.1999C10.7499 15.5 10.3999 15.15 10.3999 14.7V2.3C10.3999 1.85 10.7499 1.5 11.1999 1.5H12.6999C13.1499 1.5 13.4999 1.85 13.4999 2.3V14.65C13.4999 15.15 13.1499 15.5 12.6999 15.5Z" stroke="#606580" stroke-miterlimit="10" stroke-linecap="round" stroke-linejoin="round"/>
</svg>
