<svg width="16" height="16" viewBox="0 0 16 16" fill="none" xmlns="http://www.w3.org/2000/svg">
<path d="M11 1L8.75 3.25C8.5 3.5 8.5 3.95 8.75 4.2L11.8 7.25C12.05 7.5 12.5 7.5 12.75 7.25L15 5" stroke="#606580" stroke-width="1.00065" stroke-miterlimit="10" stroke-linecap="round" stroke-linejoin="round"/>
<path d="M11.35 6.84999L10.7 11.3L1.44995 14.55L4.69995 5.29999L9.14995 4.64999" stroke="#606580" stroke-miterlimit="10"/>
<path d="M1.44995 14.55L6.09995 9.89999" stroke="#606580" stroke-miterlimit="10"/>
<path d="M6.99995 10.3C7.71792 10.3 8.29995 9.71798 8.29995 9.00001C8.29995 8.28204 7.71792 7.70001 6.99995 7.70001C6.28198 7.70001 5.69995 8.28204 5.69995 9.00001C5.69995 9.71798 6.28198 10.3 6.99995 10.3Z" stroke="#606580" stroke-miterlimit="10"/>
</svg>
