<svg width="17" height="17" viewBox="0 0 17 17" fill="none" xmlns="http://www.w3.org/2000/svg">
<path d="M9.9 9.60001H2.1C1.75 9.60001 1.5 9.85001 1.5 10.2V14.4C1.5 14.75 1.75 15 2.1 15H9.9C10.25 15 10.5 14.75 10.5 14.4V10.2C10.5 9.85001 10.25 9.60001 9.9 9.60001Z" stroke="#606580" stroke-miterlimit="10" stroke-linecap="round" stroke-linejoin="round"/>
<path d="M3.30005 9.09999V8.39999C3.30005 8.04999 3.55005 7.79999 3.90005 7.79999H8.10005C8.45005 7.79999 8.70005 8.04999 8.70005 8.39999V9.09999" stroke="#606580" stroke-miterlimit="10" stroke-linecap="round" stroke-linejoin="round"/>
<path d="M10 6.79998L10.45 4.59998H12.25L12.8 5.59998L14.6 5.09998C15 4.99998 15.35 5.29998 15.35 5.69998V11.2C15.4 11.85 14.9 12.35 14.25 12.35H12" stroke="#606580" stroke-miterlimit="10" stroke-linecap="round" stroke-linejoin="round"/>
<path d="M10.45 3.39999H12.25" stroke="#606580" stroke-miterlimit="10" stroke-linecap="round" stroke-linejoin="round"/>
<path d="M2.09985 4.35001V5.30001C2.09985 5.55001 2.29985 5.80001 2.59985 5.80001H3.64985C3.79985 5.80001 3.94985 5.65001 3.94985 5.50001C3.94985 5.35001 4.09985 5.20001 4.24985 5.20001H4.84985C4.99985 5.20001 5.14985 5.35001 5.14985 5.50001C5.14985 5.65001 5.29985 5.80001 5.44985 5.80001H6.49985C6.74985 5.80001 6.99985 5.60001 6.99985 5.30001V4.35001C6.99985 3.85001 6.59985 3.45001 6.09985 3.45001H2.99985C2.49985 3.45001 2.09985 3.85001 2.09985 4.35001Z" stroke="#606580" stroke-miterlimit="10" stroke-linecap="round" stroke-linejoin="round"/>
<path d="M2.84985 3.45002L4.44985 1.80002" stroke="#606580" stroke-miterlimit="10" stroke-linecap="round" stroke-linejoin="round"/>
<path d="M6.8999 3.45002L8.4999 1.80002V3.00002" stroke="#606580" stroke-miterlimit="10" stroke-linecap="round" stroke-linejoin="round"/>
</svg>
