<svg width="20" height="20" viewBox="0 0 20 20" fill="none" xmlns="http://www.w3.org/2000/svg">
<path d="M19.8064 11.9581C20.173 10.1221 20.0168 8.22008 19.3557 6.46848C18.6945 4.71687 17.5548 3.18606 16.0665 2.05027C14.5781 0.914487 12.8007 0.219346 10.9367 0.0439691C9.07271 -0.131408 7.19691 0.220023 5.5228 1.05826C3.84869 1.8965 2.44352 3.18789 1.46723 4.78543C0.490932 6.38297 -0.0172747 8.2225 0.00044804 10.0947C0.0181708 11.9668 0.561111 13.7964 1.56747 15.3752C2.57384 16.9539 4.0032 18.2185 5.69288 19.0249L6.24794 17.8618C4.77601 17.1594 3.53085 16.0578 2.65418 14.6825C1.77751 13.3072 1.30454 11.7134 1.2891 10.0825C1.27366 8.45157 1.71637 6.8491 2.56685 5.45743C3.41733 4.06577 4.64141 2.94081 6.09978 2.21059C7.55814 1.48038 9.19221 1.17424 10.816 1.32701C12.4398 1.47979 13.9881 2.08535 15.2847 3.07476C16.5812 4.06418 17.574 5.39771 18.15 6.92359C18.726 8.44946 18.862 10.1064 18.5427 11.7058L19.8064 11.9581Z" fill="#97A3BA"/>
<path d="M7.26654 19.6192C9.67206 20.3027 12.2464 20.0602 14.4819 18.9394C16.7174 17.8186 18.4519 15.9008 19.3432 13.5643L18.1392 13.105C17.3627 15.1404 15.8518 16.811 13.9043 17.7873C11.9569 18.7637 9.71432 18.975 7.6188 18.3795L7.26654 19.6192Z" fill="#97A3BA"/>
<path d="M8.77564 3.10781C7.74754 3.29041 6.77332 3.70071 5.92435 4.30864C5.07538 4.91657 4.37317 5.70673 3.86917 6.62123C3.36517 7.53573 3.07215 8.5514 3.01157 9.59383C2.95099 10.6363 3.12439 11.679 3.51907 12.6458C3.91374 13.6125 4.5197 14.4787 5.29253 15.1808C6.06537 15.883 6.9855 16.4034 7.98553 16.7039C8.98555 17.0043 10.0401 17.0773 11.072 16.9173C12.1039 16.7574 13.0869 16.3686 13.949 15.7795L13.251 14.758C12.5412 15.243 11.732 15.563 10.8825 15.6947C10.033 15.8264 9.16481 15.7663 8.34154 15.519C7.51827 15.2716 6.76077 14.8432 6.12453 14.2651C5.48829 13.6871 4.98944 12.974 4.66452 12.1781C4.33961 11.3823 4.19685 10.5238 4.24673 9.66561C4.2966 8.80743 4.53783 7.97128 4.95275 7.21841C5.36767 6.46555 5.94576 5.81505 6.64468 5.31457C7.34359 4.81409 8.14562 4.47631 8.99201 4.32598L8.77564 3.10781Z" fill="#97A3BA"/>
<path d="M15.3328 14.5344C16.187 13.5297 16.7401 12.3042 16.9283 10.999C17.1165 9.69373 16.9321 8.36188 16.3965 7.15682C15.8609 5.95177 14.9957 4.92253 13.9007 4.18766C12.8057 3.45278 11.5254 3.04217 10.2072 3.00312L10.1706 4.23982C11.2558 4.27197 12.3098 4.61 13.2113 5.21499C14.1127 5.81997 14.825 6.66729 15.2659 7.65936C15.7069 8.65142 15.8586 9.74787 15.7037 10.8224C15.5488 11.897 15.0935 12.9059 14.3902 13.733L15.3328 14.5344Z" fill="#97A3BA"/>
</svg>
