<svg width="17" height="17" viewBox="0 0 17 17" fill="none" xmlns="http://www.w3.org/2000/svg">
<path d="M14.7 8.10004C14.55 5.90004 13.25 3.85004 11.1 2.85004C9.50005 2.10004 7.80005 2.10004 6.30005 2.65004" stroke="#606580" stroke-miterlimit="10" stroke-linecap="round" stroke-linejoin="round"/>
<path d="M15.7501 8L14.6501 9.1L13.6001 8" stroke="#606580" stroke-miterlimit="10" stroke-linecap="round" stroke-linejoin="round"/>
<path d="M2.30005 8.90002C2.45005 11.1 3.75005 13.15 5.90005 14.15C7.45005 14.85 9.15005 14.9 10.6 14.35" stroke="#606580" stroke-miterlimit="10" stroke-linecap="round" stroke-linejoin="round"/>
<path d="M1.25 9.00002L2.35 7.90002L3.4 9.00002" stroke="#606580" stroke-miterlimit="10" stroke-linecap="round" stroke-linejoin="round"/>
<path d="M6.8999 10.8V6.25002C6.8999 5.90002 7.2499 5.75002 7.5499 5.90002L10.8999 8.20002C11.1499 8.35002 11.1499 8.70002 10.8999 8.85002L7.5499 11.15C7.2999 11.3 6.8999 11.1 6.8999 10.8Z" stroke="#606580" stroke-miterlimit="10" stroke-linecap="round" stroke-linejoin="round"/>
</svg>
