<svg width="17" height="17" viewBox="0 0 17 17" fill="none" xmlns="http://www.w3.org/2000/svg">
<path d="M14.7 8.09998C14.55 5.89998 13.25 3.84998 11.1 2.84998C9.50005 2.09998 7.80005 2.09998 6.30005 2.64998" stroke="#606580" stroke-miterlimit="10" stroke-linecap="round" stroke-linejoin="round"/>
<path d="M15.7501 8L14.6501 9.1L13.6001 8" stroke="#606580" stroke-miterlimit="10" stroke-linecap="round" stroke-linejoin="round"/>
<path d="M2.30005 8.89999C2.45005 11.1 3.75005 13.15 5.90005 14.15C7.45005 14.85 9.15005 14.9 10.6 14.35" stroke="#606580" stroke-miterlimit="10" stroke-linecap="round" stroke-linejoin="round"/>
<path d="M1.25 8.99999L2.35 7.89999L3.4 8.99999" stroke="#606580" stroke-miterlimit="10" stroke-linecap="round" stroke-linejoin="round"/>
<path d="M14.0001 13.9C14.7733 13.9 15.4001 13.2732 15.4001 12.5C15.4001 11.7268 14.7733 11.1 14.0001 11.1C13.2269 11.1 12.6001 11.7268 12.6001 12.5C12.6001 13.2732 13.2269 13.9 14.0001 13.9Z" stroke="#606580" stroke-miterlimit="10" stroke-linecap="round" stroke-linejoin="round"/>
<path d="M3.0001 5.89998C3.7733 5.89998 4.4001 5.27317 4.4001 4.49998C4.4001 3.72678 3.7733 3.09998 3.0001 3.09998C2.2269 3.09998 1.6001 3.72678 1.6001 4.49998C1.6001 5.27317 2.2269 5.89998 3.0001 5.89998Z" stroke="#606580" stroke-miterlimit="10" stroke-linecap="round" stroke-linejoin="round"/>
</svg>
