<svg width="27" height="27" viewBox="0 0 27 27" fill="none" xmlns="http://www.w3.org/2000/svg">
<path d="M10.6313 19.575C15.5707 19.575 19.575 15.5707 19.575 10.6313C19.575 5.69175 15.5707 1.6875 10.6313 1.6875C5.69175 1.6875 1.6875 5.69175 1.6875 10.6313C1.6875 15.5707 5.69175 19.575 10.6313 19.575Z" stroke="#606580" stroke-width="1.6875" stroke-miterlimit="10" stroke-linecap="round" stroke-linejoin="round"/>
<path d="M17.7188 17.7188L25.3125 25.3125" stroke="#606580" stroke-width="1.6875" stroke-miterlimit="10" stroke-linecap="round" stroke-linejoin="round"/>
<path d="M10.55 8.7L11.1 8.85C11.2 8.9 11.3 8.95 11.45 9L11.95 9.25L12.2 9.75C12.25 9.85 12.3 9.95 12.35 10.05L12.5 10.55L12.3 11.1C12.25 11.2 12.25 11.3 12.15 11.4L11.9 11.9L11.4 12.15C11.3 12.2 11.2 12.25 11.1 12.3L10.55 12.45L10 12.3C9.9 12.25 9.8 12.2 9.7 12.2L9.2 11.95L8.95 11.45C8.9 11.35 8.85 11.25 8.8 11.15L8.65 10.6L8.8 10.05C8.85 9.95 8.85 9.85 8.95 9.75L9.2 9.25L9.7 9C9.8 8.95 9.9 8.9 10 8.85L10.55 8.7ZM10.85 7H10.2C10 7 9.8 7.15 9.75 7.35L9.65 7.85C9.5 7.9 9.3 7.95 9.15 8.05L8.8 7.8C8.75 7.75 8.65 7.7 8.55 7.7C8.45 7.7 8.3 7.75 8.25 7.85L7.8 8.3C7.65 8.45 7.65 8.7 7.75 8.85L8.05 9.25C7.95 9.4 7.9 9.55 7.85 9.75L7.35 9.85C7.15 9.9 7 10.05 7 10.3V10.9C7 11.1 7.15 11.3 7.35 11.35L7.85 11.45C7.9 11.6 7.95 11.8 8.05 11.95L7.75 12.35C7.6 12.5 7.65 12.75 7.8 12.9L8.25 13.35C8.35 13.45 8.45 13.5 8.55 13.5C8.65 13.5 8.75 13.45 8.8 13.4L9.2 13.1C9.35 13.2 9.5 13.25 9.65 13.3L9.75 13.8C9.8 14 9.95 14.15 10.2 14.15H10.85C11.05 14.15 11.25 14 11.3 13.8L11.4 13.3C11.55 13.25 11.75 13.2 11.9 13.1L12.3 13.4C12.35 13.45 12.45 13.5 12.55 13.5C12.65 13.5 12.8 13.45 12.85 13.35L13.3 12.9C13.45 12.75 13.45 12.5 13.35 12.35L13.05 11.95C13.15 11.8 13.2 11.65 13.25 11.45L13.75 11.35C13.95 11.3 14.1 11.15 14.1 10.9V10.25C14.1 10.05 13.95 9.85 13.75 9.8L13.25 9.7C13.2 9.55 13.15 9.35 13.05 9.2L13.35 8.8C13.5 8.65 13.45 8.4 13.3 8.25L12.85 7.8C12.75 7.7 12.65 7.65 12.55 7.65C12.45 7.65 12.35 7.7 12.3 7.75L11.9 8.05C11.75 7.95 11.55 7.9 11.4 7.85L11.3 7.35C11.25 7.2 11.05 7 10.85 7Z" fill="#606580"/>
</svg>
