<svg width="27" height="27" viewBox="0 0 27 27" fill="none" xmlns="http://www.w3.org/2000/svg">
<path d="M10.6313 19.575C15.5707 19.575 19.575 15.5707 19.575 10.6313C19.575 5.69175 15.5707 1.6875 10.6313 1.6875C5.69175 1.6875 1.6875 5.69175 1.6875 10.6313C1.6875 15.5707 5.69175 19.575 10.6313 19.575Z" stroke="#606580" stroke-width="1.6875" stroke-miterlimit="10" stroke-linecap="round" stroke-linejoin="round"/>
<path d="M17.7188 17.7188L25.3125 25.3125" stroke="#606580" stroke-width="1.6875" stroke-miterlimit="10" stroke-linecap="round" stroke-linejoin="round"/>
<path d="M10.5 8.15493L11.1972 8.34507C11.3239 8.40845 11.4507 8.47183 11.6408 8.53521L12.2746 8.85211L12.5915 9.48592C12.6549 9.61268 12.7183 9.73944 12.7817 9.8662L12.9718 10.5L12.7183 11.1972C12.6549 11.3239 12.6549 11.4507 12.5282 11.5775L12.2113 12.2113L11.5775 12.5282C11.4507 12.5915 11.3239 12.6549 11.1972 12.7183L10.5 12.9085L9.80282 12.7183C9.67606 12.6549 9.5493 12.5915 9.42253 12.5915L8.78873 12.2746L8.47183 11.6408C8.40845 11.5141 8.34507 11.3873 8.28169 11.2606L8.09155 10.5634L8.28169 9.8662C8.34507 9.73944 8.34507 9.61268 8.47183 9.48592L8.78873 8.85211L9.42253 8.53521C9.5493 8.47183 9.67606 8.40845 9.80282 8.34507L10.5 8.15493ZM10.8803 6H10.0563C9.80282 6 9.5493 6.19014 9.48592 6.44366L9.35916 7.07747C9.16901 7.14085 8.91549 7.20423 8.72535 7.33099L8.28169 7.01408C8.21831 6.9507 8.09155 6.88732 7.96479 6.88732C7.83803 6.88732 7.64789 6.9507 7.58451 7.07747L7.01408 7.64789C6.82394 7.83803 6.82394 8.15493 6.9507 8.34507L7.33099 8.85211C7.20423 9.04225 7.14085 9.23239 7.07747 9.48592L6.44366 9.61268C6.19014 9.67606 6 9.8662 6 10.1831V10.9437C6 11.1972 6.19014 11.4507 6.44366 11.5141L7.07747 11.6408C7.14085 11.831 7.20423 12.0845 7.33099 12.2746L6.9507 12.7817C6.76056 12.9718 6.82394 13.2887 7.01408 13.4789L7.58451 14.0493C7.71127 14.1761 7.83803 14.2394 7.96479 14.2394C8.09155 14.2394 8.21831 14.1761 8.28169 14.1127L8.78873 13.7324C8.97887 13.8592 9.16901 13.9225 9.35916 13.9859L9.48592 14.6197C9.5493 14.8732 9.73944 15.0634 10.0563 15.0634H10.8803C11.1338 15.0634 11.3873 14.8732 11.4507 14.6197L11.5775 13.9859C11.7676 13.9225 12.0211 13.8592 12.2113 13.7324L12.7183 14.1127C12.7817 14.1761 12.9085 14.2394 13.0352 14.2394C13.162 14.2394 13.3521 14.1761 13.4155 14.0493L13.9859 13.4789C14.1761 13.2887 14.1761 12.9718 14.0493 12.7817L13.669 12.2746C13.7958 12.0845 13.8592 11.8944 13.9225 11.6408L14.5563 11.5141C14.8099 11.4507 15 11.2606 15 10.9437V10.1197C15 9.8662 14.8099 9.61268 14.5563 9.5493L13.9225 9.42253C13.8592 9.23239 13.7958 8.97887 13.669 8.78873L14.0493 8.28169C14.2394 8.09155 14.1761 7.77465 13.9859 7.58451L13.4155 7.01408C13.2887 6.88732 13.162 6.82394 13.0352 6.82394C12.9085 6.82394 12.7817 6.88732 12.7183 6.9507L12.2113 7.33099C12.0211 7.20423 11.7676 7.14085 11.5775 7.07747L11.4507 6.44366C11.3873 6.25352 11.1338 6 10.8803 6Z" fill="#606580"/>
</svg>
