<svg width="27" height="27" viewBox="0 0 27 27" fill="none" xmlns="http://www.w3.org/2000/svg">
<path d="M13.8836 8.74849L14.2496 8.18157C14.3844 7.92563 14.3417 7.60503 14.1326 7.4179L13.5051 6.85654C13.2959 6.66942 12.9726 6.66255 12.7593 6.84832L12.2365 7.2749C12.0328 7.18685 11.8058 7.12494 11.5787 7.06304L11.4177 6.4012C11.3861 6.27874 11.331 6.18242 11.2264 6.08886C11.1219 5.9953 10.9444 5.93064 10.7957 5.9389L9.9798 6.00912C9.70598 5.99951 9.46932 6.21142 9.43631 6.51138L9.34966 7.18699C9.13089 7.27369 8.91211 7.36039 8.74562 7.49387L8.1787 7.12789C7.92276 6.99306 7.60216 7.03573 7.41504 7.24489L6.85367 7.87236C6.66655 8.08152 6.65969 8.40487 6.84546 8.61814L7.27204 9.14099C7.18399 9.34464 7.12208 9.57168 7.06017 9.79872L6.39834 9.95974C6.10388 10.0258 5.91951 10.2845 5.95943 10.5556L6.00626 11.3977C6.01452 11.5463 6.07232 11.6921 6.20305 11.8091C6.28148 11.8792 6.40945 11.9467 6.53466 11.9645L7.21027 12.0512C7.29697 12.27 7.40706 12.4626 7.51715 12.6552L7.15117 13.2221C6.99019 13.4547 7.03286 13.7753 7.24202 13.9624L7.8695 14.5238C8.07866 14.7109 8.40201 14.7178 8.61528 14.532L9.13813 14.1054C9.34178 14.1935 9.59496 14.2788 9.79585 14.3173L9.95688 14.9791C9.98853 15.1016 10.0436 15.1979 10.1482 15.2915C10.2527 15.385 10.4302 15.4497 10.5788 15.4414L11.4209 15.3946C11.7182 15.3781 11.9548 15.1661 11.9644 14.8923L12.0511 14.2167C12.2699 14.13 12.4886 14.0433 12.6813 13.9332L13.2482 14.2992C13.4807 14.4602 13.8013 14.4175 13.9885 14.2084" stroke="#606580" stroke-miterlimit="10" stroke-linecap="square"/>
<path d="M8.75054 7.54203L8.18387 7.17564C7.92803 7.04063 7.6074 7.08307 7.42013 7.2921L6.85832 7.91918C6.67105 8.1282 6.66396 8.45155 6.84957 8.66495L7.27578 9.1881C7.18758 9.39169 7.12552 9.61868 7.06345 9.84568L6.4015 10.0062C6.27901 10.0378 6.18266 10.0928 6.08902 10.1973C5.99539 10.3018 5.9306 10.4793 5.93876 10.6279L6.0084 11.4439C5.99858 11.7177 6.21033 11.9545 6.51027 11.9877L7.18582 12.0748C7.27236 12.2937 7.3589 12.5125 7.49226 12.6791L7.12588 13.2458C6.99086 13.5016 7.03331 13.8222 7.24233 14.0095L7.86941 14.5713C8.07843 14.7586 8.40179 14.7657 8.61518 14.5801L9.13834 14.1539C9.34192 14.2421 9.56892 14.3041 9.79591 14.3662L9.95647 15.0281C10.0223 15.3226 10.2809 15.5072 10.552 15.4675L11.3941 15.4212C11.5427 15.4131 11.6886 15.3554 11.8057 15.2247C11.8759 15.1464 11.9434 15.0184 11.9614 14.8932L12.0485 14.2177C12.2673 14.1311 12.46 14.0212 12.6527 13.9112L13.2194 14.2776C13.4518 14.4388 13.7725 14.3963 13.9597 14.1873L14.5216 13.5602C14.7088 13.3512 14.7159 13.0279 14.5303 12.8145L14.1041 12.2913C14.1923 12.0877 14.2778 11.8346 14.3164 11.6337L14.9784 11.4732C15.1009 11.4416 15.1972 11.3866 15.2908 11.2821C15.3845 11.1776 15.4493 11.0001 15.4411 10.8515L15.3949 10.0094C15.3786 9.71218 15.1668 9.47537 14.893 9.46556L14.2175 9.37843C14.1309 9.15959 14.0444 8.94076 13.9344 8.74805L14.3008 8.18138C14.462 7.94895 14.4195 7.62832 14.2105 7.44105" stroke="#606580" stroke-miterlimit="10" stroke-linecap="square"/>
<path d="M9.77453 11.7099C10.3232 12.2007 11.1765 12.1422 11.6803 11.579C12.1841 11.0159 12.1477 10.1615 11.599 9.67057C11.0503 9.17968 10.1971 9.23825 9.69325 9.80139C9.18944 10.3645 9.22584 11.219 9.77453 11.7099Z" stroke="#606580" stroke-width="0.701614" stroke-miterlimit="10" stroke-linecap="square"/>
<path d="M10.6313 19.575C15.5707 19.575 19.575 15.5707 19.575 10.6313C19.575 5.69175 15.5707 1.6875 10.6313 1.6875C5.69175 1.6875 1.6875 5.69175 1.6875 10.6313C1.6875 15.5707 5.69175 19.575 10.6313 19.575Z" stroke="#606580" stroke-width="1.6875" stroke-miterlimit="10" stroke-linecap="round" stroke-linejoin="round"/>
<path d="M17.7188 17.7188L25.3125 25.3125" stroke="#606580" stroke-width="1.6875" stroke-miterlimit="10" stroke-linecap="round" stroke-linejoin="round"/>
</svg>
