<svg width="16" height="17" viewBox="0 0 16 17" fill="none" xmlns="http://www.w3.org/2000/svg">
<path d="M8.5 2.5L8.65 3.35L8.75 3.95L9.35 4.15C9.6 4.25 9.9 4.35 10.15 4.5L10.7 4.8L11.2 4.45L11.9 3.95L12.6 4.65L12.1 5.35L11.75 5.85L12.05 6.4C12.2 6.65 12.3 6.9 12.35 7.2L12.55 7.8L13.15 7.9L14 8V9L13.15 9.15L12.5 9.25L12.3 9.85C12.2 10.1 12.1 10.35 12 10.65L11.7 11.2L12.05 11.7L12.55 12.4L11.85 13.1L11.15 12.6L10.65 12.25L10.1 12.5C9.85 12.65 9.6 12.75 9.3 12.8L8.75 13L8.65 13.6L8.5 14.5H7.5L7.35 13.65L7.25 13L6.65 12.8C6.4 12.7 6.15 12.6 5.9 12.5L5.35 12.2L4.85 12.55L4.1 13.05L3.4 12.35L3.9 11.65L4.25 11.15L4 10.65C3.85 10.4 3.75 10.15 3.65 9.85L3.5 9.3L2.9 9.2L2 9.05V8.05L2.85 7.9L3.45 7.8L3.65 7.2C3.75 6.95 3.85 6.65 3.95 6.4L4.25 5.85L3.9 5.35L3.4 4.6L4.1 3.9L4.8 4.4L5.3 4.75L5.85 4.5C6.1 4.35 6.35 4.25 6.6 4.15L7.2 4L7.3 3.4L7.45 2.5H8.5ZM8.6 1.5H7.35C6.95 1.5 6.55 1.8 6.5 2.2L6.35 3.2C6 3.3 5.7 3.45 5.4 3.6L4.6 3.05C4.45 2.95 4.3 2.9 4.1 2.9C3.85 2.9 3.65 3 3.5 3.15L2.6 4C2.3 4.3 2.25 4.75 2.5 5.1L3.1 5.9C2.95 6.2 2.8 6.55 2.7 6.85L1.75 7C1.3 7.15 1 7.5 1 7.9V9.15C1 9.55 1.3 9.95 1.7 10L2.7 10.15C2.8 10.5 2.95 10.8 3.1 11.1L2.5 11.9C2.25 12.25 2.3 12.7 2.6 13L3.5 13.9C3.65 14.05 3.9 14.15 4.1 14.15C4.3 14.15 4.45 14.1 4.6 14L5.4 13.4C5.7 13.55 6 13.7 6.3 13.8L6.45 14.8C6.5 15.2 6.9 15.5 7.3 15.5H8.55C8.95 15.5 9.35 15.2 9.4 14.8L9.55 13.8C9.9 13.7 10.2 13.55 10.5 13.4L11.3 14C11.45 14.1 11.6 14.15 11.8 14.15C12.05 14.15 12.25 14.05 12.4 13.9L13.25 13.05C13.55 12.75 13.6 12.3 13.35 11.95L12.75 11.15C12.9 10.85 13.05 10.5 13.15 10.2L14.15 10.05C14.55 10 14.85 9.6 14.85 9.2V7.95C14.85 7.55 14.55 7.15 14.15 7.1L13.15 6.95C13.05 6.6 12.9 6.3 12.75 6L13.5 5.1C13.75 4.75 13.7 4.3 13.4 4L12.5 3.1C12.35 2.95 12.1 2.85 11.9 2.85C11.7 2.85 11.55 2.9 11.4 3L10.6 3.6C10.3 3.45 9.95 3.3 9.6 3.2L9.45 2.25C9.35 1.8 9 1.5 8.6 1.5Z" fill="#606580"/>
<path d="M5.25 8.70002L6.7 10.15C6.9 10.35 7.25 10.35 7.45 10.15L10.45 7.15002" stroke="#606580" stroke-miterlimit="10" stroke-linecap="round" stroke-linejoin="round"/>
</svg>
