<svg width="17" height="16" viewBox="0 0 17 16" fill="none" xmlns="http://www.w3.org/2000/svg">
<path d="M9.8 3.15L9.65 2.2C9.55 1.8 9.2 1.5 8.8 1.5H7.6C7.2 1.5 6.85 1.8 6.8 2.2L6.65 3.15C6.35 3.25 6.05 3.4 5.75 3.55L4.95 3C4.8 2.9 4.65 2.85 4.45 2.85C4.25 2.85 4 2.95 3.85 3.1L3.05 3.95C2.75 4.2 2.7 4.65 2.95 5L3.5 5.8C3.35 6.1 3.2 6.4 3.15 6.7L2.2 6.85C1.8 6.95 1.5 7.3 1.5 7.7V8.9C1.5 9.3 1.8 9.65 2.2 9.7L3.15 9.85C3.25 10.15 3.4 10.45 3.55 10.75L3 11.55C2.75 11.9 2.8 12.35 3.1 12.6L3.95 13.45C4.1 13.6 4.3 13.7 4.55 13.7C4.7 13.7 4.9 13.65 5.05 13.55L5.85 13C6.15 13.15 6.45 13.25 6.75 13.35L6.9 14.3C6.95 14.7 7.3 15 7.7 15H8.9C9.3 15 9.65 14.7 9.7 14.3L9.85 13.35C10.15 13.25 10.5 13.1 10.75 12.95L11.55 13.5C11.7 13.6 11.85 13.65 12.05 13.65C12.25 13.65 12.5 13.55 12.65 13.4L13.5 12.55C13.8 12.25 13.85 11.8 13.6 11.5L13.05 10.7C13.2 10.4 13.35 10.1 13.45 9.8L14.4 9.65C14.8 9.6 15.1 9.25 15.1 8.85" stroke="#606580" stroke-miterlimit="10" stroke-linecap="square"/>
<path d="M8.2501 10.2C9.29944 10.2 10.1501 9.32694 10.1501 8.24999C10.1501 7.17303 9.29944 6.29999 8.2501 6.29999C7.20076 6.29999 6.3501 7.17303 6.3501 8.24999C6.3501 9.32694 7.20076 10.2 8.2501 10.2Z" stroke="#606580" stroke-miterlimit="10" stroke-linecap="square"/>
<path d="M15.55 4.64999C15.4 2.64999 13.5 1.04999 13.5 1.04999C13.5 1.04999 11.6 2.64999 11.45 4.64999C11.45 4.74999 11.45 4.79999 11.45 4.89999C11.45 6.04999 12.4 6.94999 13.5 6.94999C14.6 6.94999 15.55 5.99999 15.55 4.89999C15.55 4.79999 15.55 4.69999 15.55 4.64999Z" stroke="#606580" stroke-miterlimit="10" stroke-linecap="round" stroke-linejoin="round"/>
</svg>
