<svg width="16" height="17" viewBox="0 0 16 17" fill="none" xmlns="http://www.w3.org/2000/svg">
<path d="M3.05029 1.5V9.1" stroke="#606580" stroke-miterlimit="10" stroke-linecap="round" stroke-linejoin="round"/>
<path d="M3.05029 12.6V15.5" stroke="#606580" stroke-miterlimit="10" stroke-linecap="round" stroke-linejoin="round"/>
<path d="M3.05015 12.3C3.82335 12.3 4.45015 11.6732 4.45015 10.9C4.45015 10.1268 3.82335 9.5 3.05015 9.5C2.27695 9.5 1.65015 10.1268 1.65015 10.9C1.65015 11.6732 2.27695 12.3 3.05015 12.3Z" stroke="#606580" stroke-miterlimit="10" stroke-linecap="round" stroke-linejoin="round"/>
<path d="M8 1.5V4.4" stroke="#606580" stroke-miterlimit="10" stroke-linecap="round" stroke-linejoin="round"/>
<path d="M8 7.90002V15.5" stroke="#606580" stroke-miterlimit="10" stroke-linecap="round" stroke-linejoin="round"/>
<path d="M8.0001 7.64998C8.7733 7.64998 9.4001 7.02317 9.4001 6.24998C9.4001 5.47678 8.7733 4.84998 8.0001 4.84998C7.2269 4.84998 6.6001 5.47678 6.6001 6.24998C6.6001 7.02317 7.2269 7.64998 8.0001 7.64998Z" stroke="#606580" stroke-miterlimit="10" stroke-linecap="round" stroke-linejoin="round"/>
<path d="M12.9502 1.5V6.75" stroke="#606580" stroke-miterlimit="10" stroke-linecap="round" stroke-linejoin="round"/>
<path d="M12.9502 10.25V15.5" stroke="#606580" stroke-miterlimit="10" stroke-linecap="round" stroke-linejoin="round"/>
<path d="M12.9503 10C13.7235 10 14.3503 9.37321 14.3503 8.60001C14.3503 7.82681 13.7235 7.20001 12.9503 7.20001C12.1771 7.20001 11.5503 7.82681 11.5503 8.60001C11.5503 9.37321 12.1771 10 12.9503 10Z" stroke="#606580" stroke-miterlimit="10" stroke-linecap="round" stroke-linejoin="round"/>
</svg>
