<svg width="17" height="16" viewBox="0 0 17 16" fill="none" xmlns="http://www.w3.org/2000/svg">
<path fill-rule="evenodd" clip-rule="evenodd" d="M11.15 15.5H10.25C10 15.5 9.80005 15.3 9.80005 15.05V9.49999C9.80005 9.24999 10 9.04999 10.25 9.04999H11.15C11.4 9.04999 11.6 9.24999 11.6 9.49999V15.05C11.65 15.3 11.4 15.5 11.15 15.5Z" stroke="#606580" stroke-miterlimit="10" stroke-linecap="square"/>
<path fill-rule="evenodd" clip-rule="evenodd" d="M14.8 15.5H13.9C13.65 15.5 13.45 15.3 13.45 15.05V9.49999C13.45 9.24999 13.65 9.04999 13.9 9.04999H14.8C15.05 9.04999 15.25 9.24999 15.25 9.49999V15.05C15.3 15.3 15.1 15.5 14.8 15.5Z" stroke="#606580" stroke-miterlimit="10" stroke-linecap="square"/>
<path d="M13.2 6.25V5.75C13.2 5.4 12.95 5.1 12.6 5.05L11.8 4.9C11.7 4.65 11.6 4.35 11.5 4.1L12 3.45C12.2 3.15 12.15 2.8 11.9 2.55L11.2 1.85C11.05 1.7 10.9 1.65 10.7 1.65C10.55 1.65 10.4 1.7 10.3 1.8L9.65 2.3C9.4 2.15 9.1 2.05 8.85 1.95L8.7 1.15C8.6 0.75 8.3 0.5 7.95 0.5H6.95C6.6 0.5 6.3 0.75 6.25 1.1L6.1 1.9C5.8 2 5.55 2.1 5.3 2.25L4.65 1.75C4.55 1.7 4.4 1.65 4.25 1.65C4.05 1.65 3.9 1.7 3.75 1.85L3 2.55C2.75 2.8 2.75 3.2 2.95 3.45L3.45 4.15C3.3 4.4 3.2 4.65 3.15 4.95L2.35 5.1C2 5.15 1.75 5.45 1.75 5.8V6.8C1.75 7.15 2 7.45 2.35 7.5L3.15 7.65C3.25 7.9 3.35 8.2 3.5 8.45L3.05 9.1C2.85 9.4 2.9 9.75 3.15 10L3.85 10.7C4 10.85 4.15 10.9 4.35 10.9C4.5 10.9 4.65 10.85 4.75 10.75L5.45 10.25C5.7 10.4 5.95 10.5 6.2 10.55L6.35 11.35C6.4 11.7 6.7 11.95 7.05 11.95H7.55" stroke="#606580" stroke-miterlimit="10" stroke-linecap="round"/>
<path d="M7.44995 8.30001C6.34995 8.30001 5.44995 7.40001 5.44995 6.25001C5.44995 5.10001 6.34995 4.20001 7.44995 4.20001C8.54995 4.20001 9.44995 5.10001 9.44995 6.25001" stroke="#606580" stroke-miterlimit="10" stroke-linecap="round"/>
</svg>
