<svg width="16" height="14" viewBox="0 0 16 14" fill="none" xmlns="http://www.w3.org/2000/svg">
<path d="M7.22985 2.5111C6.89489 2.5351 6.55881 2.48394 6.24616 2.36136C5.93352 2.23878 5.65223 2.04787 5.42285 1.8026L5.36825 1.80195C5.1388 2.04731 4.8574 2.23827 4.54464 2.36085C4.23187 2.48344 3.89566 2.53455 3.5606 2.51045C3.50961 2.84977 3.38203 3.17302 3.18754 3.4557C2.99304 3.73838 2.73673 3.97306 2.43805 4.14195C2.56388 4.42814 2.62885 4.73737 2.62885 5.05C2.62885 5.36263 2.56388 5.67186 2.43805 5.95805C2.73673 6.12694 2.99304 6.36162 3.18754 6.6443C3.38203 6.92698 3.50961 7.25023 3.5606 7.58955C3.89555 7.56555 4.23164 7.61671 4.54428 7.73929C4.85693 7.86187 5.13822 8.05278 5.3676 8.29805H5.4222C5.65158 8.05278 5.93287 7.86187 6.24551 7.73929C6.55816 7.61671 6.89424 7.56555 7.2292 7.58955C7.28018 7.25023 7.40776 6.92698 7.60226 6.6443C7.79676 6.36162 8.05306 6.12694 8.35175 5.95805C8.22592 5.67186 8.16094 5.36263 8.16094 5.05C8.16094 4.73737 8.22592 4.42814 8.35175 4.14195C8.05318 3.97299 7.797 3.73827 7.60262 3.4556C7.40824 3.17292 7.28076 2.84971 7.22985 2.51045V2.5111ZM9.9501 4.2141C9.80152 4.29732 9.67781 4.41864 9.59171 4.56556C9.5056 4.71249 9.46021 4.8797 9.46021 5.05C9.46021 5.22029 9.5056 5.38751 9.59171 5.53444C9.67781 5.68136 9.80152 5.80268 9.9501 5.8859L9.6238 6.9805C9.44746 6.95003 9.26612 6.96959 9.10034 7.03695C8.93455 7.10431 8.79097 7.21679 8.68586 7.36162C8.58076 7.50645 8.51835 7.67783 8.50571 7.85633C8.49307 8.03483 8.5307 8.2133 8.61435 8.3715L7.6764 9.1008C7.55217 8.99901 7.40433 8.9301 7.24649 8.90043C7.08866 8.87075 6.92589 8.88125 6.77317 8.93097C6.62046 8.98069 6.4827 9.06802 6.37259 9.18494C6.26247 9.30185 6.18354 9.44458 6.14305 9.6L4.64545 9.5961C4.60437 9.44163 4.52528 9.29991 4.41539 9.18385C4.30549 9.06779 4.16829 8.98109 4.0163 8.93165C3.8643 8.88221 3.70235 8.87161 3.54521 8.90082C3.38806 8.93002 3.24073 8.9981 3.11665 9.09885L2.17935 8.3637C2.26075 8.20612 2.29679 8.02903 2.28344 7.85218C2.27009 7.67532 2.20788 7.50565 2.10374 7.36208C1.9996 7.21851 1.85763 7.10669 1.69366 7.03908C1.52969 6.97148 1.35016 6.95075 1.1751 6.9792L0.850098 5.8807C0.996046 5.79669 1.11728 5.67571 1.20157 5.52993C1.28587 5.38415 1.33025 5.21872 1.33025 5.05032C1.33025 4.88193 1.28587 4.7165 1.20157 4.57072C1.11728 4.42494 0.996046 4.30395 0.850098 4.21995L1.1751 3.12145C1.35016 3.1499 1.52969 3.12917 1.69366 3.06157C1.85763 2.99396 1.9996 2.88214 2.10374 2.73857C2.20788 2.595 2.27009 2.42533 2.28344 2.24847C2.29679 2.07162 2.26075 1.89453 2.17935 1.73695L3.11665 1.0005C3.24073 1.1014 3.38812 1.1696 3.54534 1.19889C3.70257 1.22818 3.86462 1.21762 4.01672 1.16817C4.16881 1.11872 4.3061 1.03197 4.41604 0.915816C4.52598 0.799667 4.60507 0.657828 4.6461 0.50325L6.14305 0.5C6.18359 0.655303 6.26252 0.797923 6.37259 0.914746C6.48266 1.03157 6.62033 1.11885 6.77294 1.16855C6.92556 1.21826 7.08823 1.2288 7.24598 1.19921C7.40374 1.16962 7.55152 1.10084 7.67575 0.9992L8.61435 1.7285C8.5307 1.8867 8.49307 2.06517 8.50571 2.24367C8.51835 2.42217 8.58076 2.59355 8.68586 2.73838C8.79097 2.88321 8.93455 2.99569 9.10034 3.06305C9.26612 3.13041 9.44746 3.14997 9.6238 3.1195L9.9501 4.2141ZM6.1723 10.1928C6.70124 10.1144 7.2148 9.95434 7.6946 9.7183C7.67731 9.7655 7.65845 9.81211 7.63805 9.85805C7.93673 10.0269 8.19304 10.2616 8.38754 10.5443C8.58203 10.827 8.70961 11.1502 8.7606 11.4895C9.09555 11.4655 9.43164 11.5167 9.74428 11.6393C10.0569 11.7619 10.3382 11.9528 10.5676 12.198H10.6222C10.8516 11.9528 11.1329 11.7619 11.4455 11.6393C11.7582 11.5167 12.0942 11.4655 12.4292 11.4895C12.4802 11.1502 12.6078 10.827 12.8023 10.5443C12.9968 10.2616 13.2531 10.0269 13.5517 9.85805C13.4259 9.57186 13.3609 9.26263 13.3609 8.95C13.3609 8.63737 13.4259 8.32814 13.5517 8.04195C13.2532 7.87299 12.997 7.63827 12.8026 7.3556C12.6082 7.07292 12.4808 6.74971 12.4298 6.41045C12.0949 6.43445 11.7588 6.38329 11.4462 6.26071C11.1335 6.13812 10.8522 5.94722 10.6228 5.70195H10.5682L10.5585 5.71235C10.6137 5.27732 10.6141 4.83709 10.5598 4.40195L11.3437 4.4C11.3842 4.5553 11.4632 4.69792 11.5732 4.81475C11.6833 4.93157 11.821 5.01885 11.9736 5.06855C12.1262 5.11826 12.2889 5.1288 12.4466 5.09921C12.6044 5.06962 12.7522 5.00084 12.8764 4.8992L13.815 5.6285C13.7314 5.7867 13.6937 5.96517 13.7064 6.14367C13.719 6.32217 13.7814 6.49355 13.8865 6.63838C13.9916 6.78321 14.1352 6.89569 14.301 6.96305C14.4668 7.03041 14.6481 7.04997 14.8244 7.0195L15.1501 8.1141C15.0015 8.19732 14.8778 8.31864 14.7917 8.46556C14.7056 8.61249 14.6602 8.7797 14.6602 8.95C14.6602 9.12029 14.7056 9.28751 14.7917 9.43444C14.8778 9.58136 15.0015 9.70268 15.1501 9.7859L14.8238 10.8805C14.6475 10.85 14.4661 10.8696 14.3003 10.9369C14.1346 11.0043 13.991 11.1168 13.8859 11.2616C13.7808 11.4064 13.7183 11.5778 13.7057 11.7563C13.6931 11.9348 13.7307 12.1133 13.8143 12.2715L12.8764 13.0008C12.7522 12.899 12.6043 12.8301 12.4465 12.8004C12.2887 12.7707 12.1259 12.7813 11.9732 12.831C11.8205 12.8807 11.6827 12.968 11.5726 13.0849C11.4625 13.2018 11.3835 13.3446 11.343 13.5L9.84545 13.4961C9.80437 13.3416 9.72528 13.1999 9.61539 13.0838C9.50549 12.9678 9.36829 12.8811 9.2163 12.8316C9.0643 12.7822 8.90235 12.7716 8.74521 12.8008C8.58806 12.83 8.44073 12.8981 8.31665 12.9988L7.37935 12.2637C7.46075 12.1061 7.49679 11.929 7.48344 11.7522C7.47009 11.5753 7.40788 11.4056 7.30374 11.2621C7.1996 11.1185 7.05763 11.0067 6.89366 10.9391C6.72969 10.8715 6.55016 10.8507 6.3751 10.8792L6.1723 10.1928ZM5.4001 7C5.14402 7 4.89045 6.94956 4.65387 6.85156C4.41728 6.75357 4.20231 6.60993 4.02124 6.42886C3.84017 6.24778 3.69653 6.03282 3.59853 5.79623C3.50054 5.55965 3.4501 5.30608 3.4501 5.05C3.4501 4.79392 3.50054 4.54035 3.59853 4.30377C3.69653 4.06718 3.84017 3.85222 4.02124 3.67114C4.20231 3.49007 4.41728 3.34643 4.65387 3.24844C4.89045 3.15044 5.14402 3.1 5.4001 3.1C5.91727 3.1 6.41326 3.30545 6.77896 3.67114C7.14465 4.03684 7.3501 4.53283 7.3501 5.05C7.3501 5.56717 7.14465 6.06316 6.77896 6.42886C6.41326 6.79455 5.91727 7 5.4001 7ZM5.4001 5.7C5.57249 5.7 5.73782 5.63152 5.85972 5.50962C5.98162 5.38772 6.0501 5.22239 6.0501 5.05C6.0501 4.87761 5.98162 4.71228 5.85972 4.59038C5.73782 4.46848 5.57249 4.4 5.4001 4.4C5.22771 4.4 5.06238 4.46848 4.94048 4.59038C4.81858 4.71228 4.7501 4.87761 4.7501 5.05C4.7501 5.22239 4.81858 5.38772 4.94048 5.50962C5.06238 5.63152 5.22771 5.7 5.4001 5.7ZM10.6001 10.9C10.0829 10.9 9.58694 10.6946 9.22124 10.3289C8.85554 9.96316 8.6501 9.46717 8.6501 8.95C8.6501 8.43283 8.85554 7.93684 9.22124 7.57114C9.58694 7.20545 10.0829 7 10.6001 7C11.1173 7 11.6133 7.20545 11.979 7.57114C12.3447 7.93684 12.5501 8.43283 12.5501 8.95C12.5501 9.46717 12.3447 9.96316 11.979 10.3289C11.6133 10.6946 11.1173 10.9 10.6001 10.9ZM10.6001 9.6C10.7725 9.6 10.9378 9.53152 11.0597 9.40962C11.1816 9.28772 11.2501 9.12239 11.2501 8.95C11.2501 8.77761 11.1816 8.61228 11.0597 8.49038C10.9378 8.36848 10.7725 8.3 10.6001 8.3C10.4277 8.3 10.2624 8.36848 10.1405 8.49038C10.0186 8.61228 9.9501 8.77761 9.9501 8.95C9.9501 9.12239 10.0186 9.28772 10.1405 9.40962C10.2624 9.53152 10.4277 9.6 10.6001 9.6Z" fill="#727689"/>
</svg>
