<svg width="16" height="17" viewBox="0 0 16 17" fill="none" xmlns="http://www.w3.org/2000/svg">
<path d="M8.54995 2.25L8.69995 3.15L8.79995 3.75L9.39995 3.95C9.69995 4.05 9.99995 4.15 10.25 4.3L10.8 4.6L11.3 4.25L12.1 3.7L12.9 4.5L12.35 5.25L12 5.75L12.3 6.3C12.45 6.55 12.55 6.85 12.65 7.1L12.85 7.7L13.45 7.8L14.4 7.95V9.05L13.45 9.2L12.85 9.3L12.65 9.9C12.55 10.15 12.45 10.45 12.3 10.7L12 11.25L12.35 11.75L12.9 12.5L12.1 13.3L11.3 12.75L10.8 12.4L10.25 12.7C9.99995 12.85 9.69995 12.95 9.39995 13.05L8.79995 13.25L8.69995 13.85L8.54995 14.8H7.39995L7.24995 13.85L7.14995 13.25L6.54995 13.05C6.24995 12.95 5.99995 12.85 5.74995 12.7L5.19995 12.4L4.69995 12.75L3.89995 13.3L3.09995 12.5L3.64995 11.75L3.99995 11.25L3.69995 10.7C3.59995 10.5 3.49995 10.2 3.39995 9.95L3.19995 9.35L2.59995 9.25L1.64995 9.1V8L2.59995 7.85L3.19995 7.75L3.39995 7.15C3.49995 6.85 3.59995 6.6 3.74995 6.35L3.99995 5.75L3.64995 5.25L3.09995 4.5L3.89995 3.7L4.69995 4.25L5.19995 4.6L5.74995 4.3C5.99995 4.2 6.24995 4.05 6.54995 4L7.14995 3.8L7.24995 3.2L7.39995 2.25H8.54995ZM8.59995 1.25H7.29995C6.84995 1.25 6.49995 1.55 6.39995 2L6.19995 3.05C5.84995 3.15 5.49995 3.3 5.19995 3.45L4.39995 2.85C4.24995 2.75 4.09995 2.7 3.89995 2.7C3.64995 2.7 3.44995 2.8 3.24995 2.95L2.34995 3.85C1.99995 4.15 1.99995 4.65 2.24995 5L2.84995 5.85C2.69995 6.15 2.54995 6.5 2.44995 6.85L1.44995 7C0.999951 7.05 0.699951 7.45 0.699951 7.9V9.2C0.699951 9.65 0.999951 10 1.44995 10.1L2.49995 10.3C2.59995 10.65 2.74995 10.95 2.89995 11.3L2.29995 12.15C2.04995 12.5 2.09995 13 2.39995 13.3L3.29995 14.2C3.44995 14.35 3.69995 14.45 3.94995 14.45C4.14995 14.45 4.29995 14.4 4.44995 14.3L5.29995 13.7C5.59995 13.85 5.94995 14 6.24995 14.1L6.39995 15.1C6.44995 15.55 6.84995 15.85 7.29995 15.85H8.59995C9.04995 15.85 9.39995 15.55 9.49995 15.1L9.64995 14.1C9.99995 14 10.35 13.85 10.65 13.7L11.5 14.3C11.65 14.4 11.85 14.45 12.05 14.45C12.3 14.45 12.5 14.35 12.7 14.2L13.6 13.3C13.9 13 13.95 12.5 13.7 12.15L13.1 11.3C13.25 11 13.4 10.65 13.5 10.3L14.55 10.15C15 10.1 15.3 9.7 15.3 9.25V7.95C15.3 7.5 15 7.15 14.55 7.05L13.5 6.9C13.4 6.55 13.25 6.25 13.1 5.9L13.75 5C14 4.65 13.95 4.15 13.65 3.85L12.75 2.95C12.6 2.8 12.35 2.7 12.1 2.7C11.9 2.7 11.75 2.75 11.6 2.85L10.75 3.45C10.4 3.3 10.05 3.15 9.69995 3.05L9.49995 2C9.44995 1.55 9.04995 1.25 8.59995 1.25Z" fill="#606580"/>
<path d="M7.9999 10.6C9.1597 10.6 10.0999 9.65982 10.0999 8.50002C10.0999 7.34023 9.1597 6.40002 7.9999 6.40002C6.8401 6.40002 5.8999 7.34023 5.8999 8.50002C5.8999 9.65982 6.8401 10.6 7.9999 10.6Z" stroke="#606580" stroke-miterlimit="10" stroke-linecap="square"/>
</svg>
