<svg width="16" height="17" viewBox="0 0 16 17" fill="none" xmlns="http://www.w3.org/2000/svg">
<path d="M8 3.39998C8.05 3.49998 8.1 3.59998 8.15 3.69998L8.4 4.24998L8.65 4.74998C8.9 5.24998 9.15 5.69998 9.35 6.19998C9.45 6.39998 9.75 6.79998 10.3 6.89998C11.05 6.99998 11.85 7.09998 12.6 7.24998L13.4 7.34998L13.1 7.64998C12.45 8.24998 11.8 8.89998 11.15 9.49998C10.85 9.79998 10.7 10.2 10.8 10.65C11 11.65 11.15 12.7 11.35 13.7L10.75 13.4C10 13 9.3 12.65 8.55 12.25C8.35 12.15 8.15 12.1 7.95 12.1C7.75 12.1 7.55 12.15 7.35 12.25C6.45 12.75 5.5 13.2 4.55 13.7L4.6 13.55C4.75 12.6 4.95 11.6 5.1 10.65C5.15 10.2 5.05 9.79998 4.7 9.49998C4.2 8.99998 3.6 8.39998 3 7.84998L2.55 7.39998C2.9 7.34998 3.3 7.29998 3.65 7.24998L4.1 7.19998L4.55 7.14998C4.95 7.09998 5.3 7.04998 5.7 6.99998C6.15 6.94998 6.45 6.59998 6.6 6.34998C7.05 5.29998 7.55 4.34998 8 3.39998ZM8 1.84998C7.8 1.84998 7.6 1.94998 7.5 2.14998C7.5 2.19998 7.45 2.24998 7.45 2.24998C6.85 3.44998 6.3 4.59998 5.7 5.79998C5.65 5.84998 5.6 5.89998 5.55 5.94998C5 5.99998 4.5 6.09998 3.95 6.14998C3.1 6.24998 2.3 6.39998 1.45 6.49998C1.15 6.54998 1 6.79998 1 7.09998C1 7.24998 1.1 7.39998 1.2 7.49998C2.15 8.44998 3.1 9.34998 4.05 10.3C4.15 10.35 4.15 10.45 4.15 10.55C3.95 11.6 3.8 12.65 3.6 13.75C3.55 14 3.5 14.3 3.45 14.6C3.45 14.65 3.45 14.7 3.45 14.75C3.5 15 3.7 15.15 3.95 15.15C4.05 15.15 4.15 15.15 4.25 15.05C5.45 14.45 6.65 13.8 7.85 13.15C7.9 13.1 7.95 13.1 8 13.1C8.05 13.1 8.1 13.1 8.15 13.15C9.35 13.8 10.55 14.4 11.75 15.05C11.85 15.1 11.95 15.15 12.05 15.15C12.15 15.15 12.25 15.1 12.35 15.05C12.55 14.9 12.6 14.75 12.55 14.5C12.3 13.15 12.1 11.85 11.85 10.5C11.85 10.4 11.85 10.3 11.95 10.25C12.9 9.29998 13.9 8.39998 14.85 7.44998C15 7.29998 15.1 7.09998 15 6.89998C14.95 6.69998 14.75 6.54998 14.55 6.54998C13.2 6.34998 11.85 6.14998 10.55 5.94998C10.45 5.94998 10.4 5.89998 10.35 5.79998C10.05 5.14998 9.7 4.49998 9.4 3.84998C9.1 3.29998 8.85 2.69998 8.55 2.14998C8.4 1.94998 8.2 1.84998 8 1.84998Z" fill="#606580"/>
</svg>
