<svg width="23" height="23" viewBox="0 0 23 23" fill="none" xmlns="http://www.w3.org/2000/svg">
<rect x="0.5" y="0.5" width="22" height="22" rx="1.5" stroke="#97A3BA"/>
<line x1="4.5" y1="5.5" x2="17.5" y2="5.5" stroke="#97A3BA" stroke-linecap="round"/>
<line x1="4.5" y1="11.5" x2="9.5" y2="11.5" stroke="#97A3BA" stroke-linecap="round"/>
<line x1="4.5" y1="17.5" x2="9.5" y2="17.5" stroke="#97A3BA" stroke-linecap="round"/>
<path d="M18.8836 11.7485L19.2496 11.1816C19.3844 10.9256 19.3417 10.605 19.1326 10.4179L18.5051 9.85654C18.2959 9.66942 17.9726 9.66255 17.7593 9.84832L17.2365 10.2749C17.0328 10.1869 16.8058 10.1249 16.5787 10.063L16.4177 9.4012C16.3861 9.27874 16.331 9.18242 16.2264 9.08886C16.1219 8.9953 15.9444 8.93064 15.7957 8.9389L14.9798 9.00912C14.706 8.99951 14.4693 9.21142 14.4363 9.51138L14.3497 10.187C14.1309 10.2737 13.9121 10.3604 13.7456 10.4939L13.1787 10.1279C12.9228 9.99306 12.6022 10.0357 12.415 10.2449L11.8537 10.8724C11.6666 11.0815 11.6597 11.4049 11.8455 11.6181L12.272 12.141C12.184 12.3446 12.1221 12.5717 12.0602 12.7987L11.3983 12.9597C11.1039 13.0258 10.9195 13.2845 10.9594 13.5556L11.0063 14.3977C11.0145 14.5463 11.0723 14.6921 11.203 14.8091C11.2815 14.8792 11.4094 14.9467 11.5347 14.9645L12.2103 15.0512C12.297 15.27 12.4071 15.4626 12.5171 15.6552L12.1512 16.2221C11.9902 16.4547 12.0329 16.7753 12.242 16.9624L12.8695 17.5238C13.0787 17.7109 13.402 17.7178 13.6153 17.532L14.1381 17.1054C14.3418 17.1935 14.595 17.2788 14.7959 17.3173L14.9569 17.9791C14.9885 18.1016 15.0436 18.1979 15.1482 18.2915C15.2527 18.385 15.4302 18.4497 15.5788 18.4414L16.4209 18.3946C16.7182 18.3781 16.9548 18.1661 16.9644 17.8923L17.0511 17.2167C17.2699 17.13 17.4886 17.0433 17.6813 16.9332L18.2482 17.2992C18.4807 17.4602 18.8013 17.4175 18.9885 17.2084" stroke="#97A3BA" stroke-width="0.701614" stroke-miterlimit="10" stroke-linecap="square"/>
<path d="M13.7505 10.542L13.1839 10.1756C12.928 10.0406 12.6074 10.0831 12.4201 10.2921L11.8583 10.9192C11.671 11.1282 11.664 11.4516 11.8496 11.6649L12.2758 12.1881C12.1876 12.3917 12.1255 12.6187 12.0634 12.8457L11.4015 13.0062C11.279 13.0378 11.1827 13.0928 11.089 13.1973C10.9954 13.3018 10.9306 13.4793 10.9388 13.6279L11.0084 14.4439C10.9986 14.7177 11.2103 14.9545 11.5103 14.9877L12.1858 15.0748C12.2724 15.2937 12.3589 15.5125 12.4923 15.6791L12.1259 16.2458C11.9909 16.5016 12.0333 16.8222 12.2423 17.0095L12.8694 17.5713C13.0784 17.7586 13.4018 17.7657 13.6152 17.5801L14.1383 17.1539C14.3419 17.2421 14.5689 17.3041 14.7959 17.3662L14.9565 18.0281C15.0223 18.3226 15.2809 18.5072 15.552 18.4675L16.3941 18.4212C16.5427 18.4131 16.6886 18.3554 16.8057 18.2247C16.8759 18.1464 16.9434 18.0184 16.9614 17.8932L17.0485 17.2177C17.2673 17.1311 17.46 17.0212 17.6527 16.9112L18.2194 17.2776C18.4518 17.4388 18.7725 17.3963 18.9597 17.1873L19.5216 16.5602C19.7088 16.3512 19.7159 16.0279 19.5303 15.8145L19.1041 15.2913C19.1923 15.0877 19.2778 14.8346 19.3164 14.6337L19.9784 14.4732C20.1009 14.4416 20.1972 14.3866 20.2908 14.2821C20.3845 14.1776 20.4493 14.0001 20.4411 13.8515L20.3949 13.0094C20.3786 12.7122 20.1668 12.4754 19.893 12.4656L19.2175 12.3784C19.1309 12.1596 19.0444 11.9408 18.9344 11.748L19.3008 11.1814C19.462 10.9489 19.4195 10.6283 19.2105 10.441" stroke="#97A3BA" stroke-width="0.701614" stroke-miterlimit="10" stroke-linecap="square"/>
<path d="M14.7745 14.7099C15.3232 15.2007 16.1765 15.1422 16.6803 14.579C17.1841 14.0159 17.1477 13.1615 16.599 12.6706C16.0503 12.1797 15.1971 12.2382 14.6932 12.8014C14.1894 13.3645 14.2258 14.219 14.7745 14.7099Z" stroke="#97A3BA" stroke-width="0.701614" stroke-miterlimit="10" stroke-linecap="square"/>
</svg>
