<svg width="21" height="24" viewBox="0 0 21 24" fill="none" xmlns="http://www.w3.org/2000/svg">
<path d="M12.7456 16.6445V10.1826L7.13035 6.92932L1.51514 10.1826V16.6445L7.13035 19.8532L12.7456 16.6445Z" stroke="#606580" stroke-width="0.891304" stroke-miterlimit="10" stroke-linecap="round" stroke-linejoin="round"/>
<path d="M1.51514 10.1826L7.13035 13.3913L12.7456 10.1826" stroke="#606580" stroke-width="0.891304" stroke-miterlimit="10" stroke-linecap="round" stroke-linejoin="round"/>
<path d="M7.13037 13.6141V19.4076" stroke="#606580" stroke-width="0.891304" stroke-miterlimit="10" stroke-linecap="round" stroke-linejoin="round"/>
<path d="M19.0066 20.1228V13.6609L13.3913 10.4076L7.77612 13.6609V20.1228L13.3913 23.3315L19.0066 20.1228Z" stroke="#606580" stroke-width="0.891304" stroke-miterlimit="10" stroke-linecap="round" stroke-linejoin="round"/>
<path d="M7.77612 13.6609L13.3913 16.8696L19.0066 13.6609" stroke="#606580" stroke-width="0.891304" stroke-miterlimit="10" stroke-linecap="round" stroke-linejoin="round"/>
<path d="M13.3914 17.0924V22.8859" stroke="#606580" stroke-width="0.891304" stroke-miterlimit="10" stroke-linecap="round" stroke-linejoin="round"/>
<path d="M12.7456 10.3837V3.92172L7.13035 0.668457L1.51514 3.92172V10.3837L7.13035 13.5924L12.7456 10.3837Z" stroke="#606580" stroke-width="0.891304" stroke-miterlimit="10" stroke-linecap="round" stroke-linejoin="round"/>
<path d="M1.51514 3.92175L7.13035 7.13045L12.7456 3.92175" stroke="#606580" stroke-width="0.891304" stroke-miterlimit="10" stroke-linecap="round" stroke-linejoin="round"/>
<path d="M7.13037 7.35327V13.1467" stroke="#606580" stroke-width="0.891304" stroke-miterlimit="10" stroke-linecap="round" stroke-linejoin="round"/>
</svg>
