<svg width="23" height="25" viewBox="0 0 23 25" fill="none" xmlns="http://www.w3.org/2000/svg">
<path d="M14.0938 16.8666V9.72114L7.88467 6.12378L1.67554 9.72114V16.8666L7.88467 20.4146L14.0938 16.8666Z" stroke="#606580" stroke-width="0.985577" stroke-miterlimit="10" stroke-linecap="round" stroke-linejoin="round"/>
<path d="M1.67554 9.72119L7.88467 13.2693L14.0938 9.72119" stroke="#606580" stroke-width="0.985577" stroke-miterlimit="10" stroke-linecap="round" stroke-linejoin="round"/>
<path d="M7.88452 13.5156V19.9219" stroke="#606580" stroke-width="0.985577" stroke-miterlimit="10" stroke-linecap="round" stroke-linejoin="round"/>
<path d="M21.0169 20.7126V13.5672L14.8078 9.96985L8.59863 13.5672V20.7126L14.8078 24.2607L21.0169 20.7126Z" stroke="#606580" stroke-width="0.985577" stroke-miterlimit="10" stroke-linecap="round" stroke-linejoin="round"/>
<path d="M8.59863 13.5673L14.8078 17.1153L21.0169 13.5673" stroke="#606580" stroke-width="0.985577" stroke-miterlimit="10" stroke-linecap="round" stroke-linejoin="round"/>
<path d="M14.8076 17.3617V23.7679" stroke="#606580" stroke-width="0.985577" stroke-miterlimit="10" stroke-linecap="round" stroke-linejoin="round"/>
<path d="M17.94 11.4819V4.33649L11.7309 0.739136L5.52173 4.33649V11.4819L11.7309 15.03L17.94 11.4819Z" stroke="#606580" stroke-width="0.985577" stroke-miterlimit="10" stroke-linecap="round" stroke-linejoin="round"/>
<path d="M5.52173 4.33655L11.7309 7.88462L17.94 4.33655" stroke="#606580" stroke-width="0.985577" stroke-miterlimit="10" stroke-linecap="round" stroke-linejoin="round"/>
<path d="M11.7307 8.13098V14.5372" stroke="#606580" stroke-width="0.985577" stroke-miterlimit="10" stroke-linecap="round" stroke-linejoin="round"/>
</svg>
