<svg width="24" height="23" viewBox="0 0 24 23" fill="none" xmlns="http://www.w3.org/2000/svg">
<rect x="0.354839" y="13.4193" width="9.22581" height="9.22581" rx="0.354839" stroke="#606580" stroke-width="0.709677"/>
<rect x="9.58067" y="13.4193" width="9.22581" height="9.22581" rx="0.354839" stroke="#606580" stroke-width="0.709677"/>
<path d="M0.709717 13.4195L5.32262 9.51624" stroke="#606580" stroke-width="0.709677" stroke-linecap="round" stroke-linejoin="round"/>
<path d="M18.5657 13.5136C18.4217 13.6465 18.4127 13.871 18.5457 14.015C18.6786 14.159 18.9031 14.168 19.0471 14.035L18.5657 13.5136ZM19.0471 14.035L23.66 9.77697L23.1786 9.2555L18.5657 13.5136L19.0471 14.035Z" fill="#606580"/>
<rect x="5.40147" y="3.45762" width="9.38351" height="9.38351" rx="0.354839" stroke="#606580" stroke-width="0.709677"/>
<path d="M5.25414 3.23943C5.09736 3.35701 5.06559 3.57942 5.18317 3.7362C5.30075 3.89298 5.52317 3.92475 5.67994 3.80717L5.25414 3.23943ZM5.67994 3.80717L9.04434 1.28387L8.61853 0.716129L5.25414 3.23943L5.67994 3.80717Z" fill="#606580"/>
<path d="M14.5014 3.66375C14.3467 3.78407 14.3188 4.00701 14.4391 4.1617C14.5595 4.31639 14.7824 4.34425 14.9371 4.22394L14.5014 3.66375ZM14.9371 4.22394L18.722 1.28009L18.2863 0.719907L14.5014 3.66375L14.9371 4.22394Z" fill="#606580"/>
<path d="M18.5042 9.41099L18.7259 9.68807C18.81 9.62074 18.859 9.51879 18.859 9.41099H18.5042ZM18.5042 1H18.859C18.859 0.804028 18.7002 0.645161 18.5042 0.645161V1ZM8.83154 0.645161C8.63557 0.645161 8.4767 0.804028 8.4767 1C8.4767 1.19597 8.63557 1.35484 8.83154 1.35484V0.645161ZM14.5204 13.0525L18.7259 9.68807L18.2825 9.13391L14.077 12.4983L14.5204 13.0525ZM18.859 9.41099V1H18.1493V9.41099H18.859ZM18.5042 0.645161H8.83154V1.35484H18.5042V0.645161Z" fill="#606580"/>
<path d="M18.8064 22.6451L23.4193 18.8433V9.16125H18.8064" stroke="#606580" stroke-width="0.709677" stroke-linecap="round" stroke-linejoin="round"/>
</svg>
