<svg width="31" height="37" viewBox="0 0 31 37" fill="none" xmlns="http://www.w3.org/2000/svg">
<path d="M19.2536 25.1429V15.3816L10.7713 10.4673L2.28906 15.3816V25.1429L10.7713 29.99L19.2536 25.1429Z" stroke="#606580" stroke-width="0.891304" stroke-miterlimit="10" stroke-linecap="round" stroke-linejoin="round"/>
<path d="M2.28906 15.3817L10.7713 20.2287L19.2536 15.3817" stroke="#606580" stroke-width="0.891304" stroke-miterlimit="10" stroke-linecap="round" stroke-linejoin="round"/>
<path d="M10.7715 20.5652V29.3167" stroke="#606580" stroke-width="0.891304" stroke-miterlimit="10" stroke-linecap="round" stroke-linejoin="round"/>
<path d="M28.7113 30.3972V20.6359L20.2291 15.7216L11.7468 20.6359V30.3972L20.2291 35.2442L28.7113 30.3972Z" stroke="#606580" stroke-width="0.891304" stroke-miterlimit="10" stroke-linecap="round" stroke-linejoin="round"/>
<path d="M11.7468 20.636L20.2291 25.483L28.7113 20.636" stroke="#606580" stroke-width="0.891304" stroke-miterlimit="10" stroke-linecap="round" stroke-linejoin="round"/>
<path d="M20.2292 25.8195V34.571" stroke="#606580" stroke-width="0.891304" stroke-miterlimit="10" stroke-linecap="round" stroke-linejoin="round"/>
<path d="M19.2536 15.6854V5.92409L10.7713 1.00977L2.28906 5.92409V15.6854L10.7713 20.5324L19.2536 15.6854Z" stroke="#606580" stroke-width="0.891304" stroke-miterlimit="10" stroke-linecap="round" stroke-linejoin="round"/>
<path d="M2.28906 5.92419L10.7713 10.7712L19.2536 5.92419" stroke="#606580" stroke-width="0.891304" stroke-miterlimit="10" stroke-linecap="round" stroke-linejoin="round"/>
<path d="M10.7715 11.1077V19.8592" stroke="#606580" stroke-width="0.891304" stroke-miterlimit="10" stroke-linecap="round" stroke-linejoin="round"/>
</svg>
