<svg width="16" height="16" viewBox="0 0 16 16" fill="none" xmlns="http://www.w3.org/2000/svg">
<path d="M4.1001 7.2V4.8C4.1001 2.7 5.8001 1 7.9001 1H8.0501C9.22803 1 10.2801 1.53487 10.9769 2.37518" stroke="#606580" stroke-miterlimit="10" stroke-linecap="round" stroke-linejoin="round"/>
<path d="M12.3 15H3.70005C3.05005 15 2.55005 14.5 2.55005 13.85V8.35001C2.55005 7.70001 3.05005 7.20001 3.70005 7.20001H12.3C12.95 7.20001 13.45 7.70001 13.45 8.35001V13.85C13.45 14.5 12.95 15 12.3 15Z" stroke="#606580" stroke-miterlimit="10" stroke-linecap="round" stroke-linejoin="round"/>
<path d="M8.0001 11.2C8.63523 11.2 9.1501 10.6851 9.1501 10.05C9.1501 9.41487 8.63523 8.89999 8.0001 8.89999C7.36497 8.89999 6.8501 9.41487 6.8501 10.05C6.8501 10.6851 7.36497 11.2 8.0001 11.2Z" fill="#606580"/>
<path d="M8 11V12.55" stroke="#606580" stroke-miterlimit="10" stroke-linecap="round" stroke-linejoin="round"/>
</svg>
