<svg width="16" height="16" viewBox="0 0 16 16" fill="none" xmlns="http://www.w3.org/2000/svg">
<path d="M15 10.65V5.34999C15 4.49999 14.45 3.79999 13.6 3.59999C9.9 2.69999 6.05 2.69999 2.35 3.59999C1.55 3.79999 1 4.54999 1 5.34999V10.6C1 11.45 1.55 12.15 2.4 12.35C6.1 13.25 9.95 13.25 13.65 12.35C14.45 12.2 15 11.45 15 10.65Z" stroke="#606580" stroke-miterlimit="10" stroke-linecap="round" stroke-linejoin="round"/>
<path d="M6.19995 10.45V5.50001C6.19995 5.15001 6.59995 4.95001 6.89995 5.15001L10.5 7.60001C10.75 7.75001 10.75 8.15001 10.5 8.35001L6.89995 10.8C6.59995 11.05 6.19995 10.8 6.19995 10.45Z" stroke="#606580" stroke-miterlimit="10" stroke-linecap="round" stroke-linejoin="round"/>
</svg>
