<svg width="28" height="22" viewBox="0 0 28 22" fill="none" xmlns="http://www.w3.org/2000/svg">
<path fill-rule="evenodd" clip-rule="evenodd" d="M7.875 11C7.875 5.61704 12.242 1.25 17.625 1.25C23.008 1.25 27.375 5.61704 27.375 11C27.375 16.383 23.008 20.75 17.625 20.75C12.242 20.75 7.875 16.383 7.875 11ZM17.625 2.75C13.0705 2.75 9.375 6.44546 9.375 11C9.375 15.5545 13.0705 19.25 17.625 19.25C22.1795 19.25 25.875 15.5545 25.875 11C25.875 6.44546 22.1795 2.75 17.625 2.75Z" fill="#97A3BA"/>
<path fill-rule="evenodd" clip-rule="evenodd" d="M17.625 4.25C18.0392 4.25 18.375 4.58579 18.375 5V11H22.125C22.5392 11 22.875 11.3358 22.875 11.75C22.875 12.1642 22.5392 12.5 22.125 12.5H17.625C17.2108 12.5 16.875 12.1642 16.875 11.75V5C16.875 4.58579 17.2108 4.25 17.625 4.25Z" fill="#97A3BA"/>
<path d="M1.625 1L1.625 8" stroke="#97A3BA" stroke-width="2" stroke-linecap="round"/>
<path d="M2.625 11L7.625 11" stroke="#97A3BA" stroke-linecap="round"/>
<path d="M1.625 14L1.625 21" stroke="#97A3BA" stroke-width="2" stroke-linecap="round"/>
<circle cx="1.625" cy="11" r="0.5" fill="#D9D9D9" stroke="#97A3BA"/>
</svg>
