<svg width="16" height="16" viewBox="0 0 16 16" fill="none" xmlns="http://www.w3.org/2000/svg">
<path d="M12.35 0.950012H10.15C9.34995 0.950012 8.64995 1.25001 8.09995 1.80001C7.54995 2.35001 7.24995 3.10001 7.24995 3.85001V6.05001L1.59995 11.7C0.899951 12.4 0.899951 13.55 1.59995 14.25C2.29995 14.95 3.44995 14.95 4.14995 14.25L9.69995 8.70001H12C12.8 8.70001 13.5 8.40001 14.05 7.85001C14.6 7.30001 14.9 6.55001 14.9 5.80001V3.55001L12.9 5.55001C12.2 6.25001 11.05 6.25001 10.35 5.55001C9.64995 4.85001 9.64995 3.70001 10.35 3.00001L12.35 0.950012Z" stroke="#606580" stroke-miterlimit="10" stroke-linecap="round" stroke-linejoin="round"/>
</svg>
