<svg width="16" height="16" viewBox="0 0 16 16" fill="none" xmlns="http://www.w3.org/2000/svg">
<path d="M11.5 11.5V9.56905L15.5 12.5V3.5L11.5 6.13675V4.5C11.5 3.39543 10.6046 2.5 9.5 2.5H2.5C1.39543 2.5 0.5 3.39543 0.5 4.5V11.5C0.5 12.6046 1.39543 13.5 2.5 13.5H9.5C10.6046 13.5 11.5 12.6046 11.5 11.5Z" stroke="#606580" stroke-miterlimit="10" stroke-linecap="round" stroke-linejoin="round"/>
<path d="M6 11C7.65685 11 9 9.65685 9 8C9 6.34315 7.65685 5 6 5C4.34315 5 3 6.34315 3 8C3 9.65685 4.34315 11 6 11Z" stroke="#606580" stroke-miterlimit="10" stroke-linecap="round" stroke-linejoin="round"/>
</svg>
