<svg width="17" height="16" viewBox="0 0 17 16" fill="none" xmlns="http://www.w3.org/2000/svg">
<path d="M15.8 6.25C15.5 4.95 14.85 3.7 13.8 2.7C10.85 -0.249997 6.09995 -0.249997 3.19995 2.7C2.19995 3.7 1.54995 4.95 1.19995 6.25H15.8Z" fill="#606580"/>
<path d="M1.19995 9.75002C1.49995 11.05 2.14995 12.3 3.19995 13.3C6.14995 16.25 10.9 16.25 13.8 13.3C14.8 12.3 15.45 11.05 15.8 9.75002H1.19995Z" fill="#606580"/>
<path opacity="0.2" d="M8.5 15.5C12.6421 15.5 16 12.1421 16 8C16 3.85786 12.6421 0.5 8.5 0.5C4.35786 0.5 1 3.85786 1 8C1 12.1421 4.35786 15.5 8.5 15.5Z" fill="#606580" stroke="#606580" stroke-miterlimit="10" stroke-linecap="round" stroke-linejoin="round"/>
</svg>
