<svg width="16" height="17" viewBox="0 0 16 17" fill="none" xmlns="http://www.w3.org/2000/svg">
<path d="M3.9 11.4V7.30001C3.9 5.05001 5.75 3.20001 8 3.20001C10.25 3.20001 12.1 5.05001 12.1 7.30001V11.4L13.75 13.05H2.25L3.9 11.4Z" stroke="#606580" stroke-miterlimit="10" stroke-linecap="round" stroke-linejoin="round"/>
<path d="M3.90002 11.4H8.00002" stroke="#606580" stroke-miterlimit="10" stroke-linecap="round" stroke-linejoin="round"/>
<path d="M8 4.79999C9.35 4.79999 10.45 5.89999 10.45 7.24999" stroke="#606580" stroke-miterlimit="10" stroke-linecap="round" stroke-linejoin="round"/>
<path d="M6.04999 14.55C6.49999 15.15 7.19999 15.5 7.99999 15.5C8.79999 15.5 9.49999 15.15 9.94999 14.55" stroke="#606580" stroke-miterlimit="10" stroke-linecap="round" stroke-linejoin="round"/>
<path d="M8.00001 3.1C8.44184 3.1 8.80001 2.74183 8.80001 2.3C8.80001 1.85817 8.44184 1.5 8.00001 1.5C7.55818 1.5 7.20001 1.85817 7.20001 2.3C7.20001 2.74183 7.55818 3.1 8.00001 3.1Z" stroke="#606580" stroke-miterlimit="10" stroke-linecap="round" stroke-linejoin="round"/>
</svg>
