<svg width="18" height="18" viewBox="0 0 18 18" fill="none" xmlns="http://www.w3.org/2000/svg">
<rect x="0.5" y="0.5" width="17" height="17" rx="1.5" fill="#97A3BA" stroke="#97A3BA"/>
<path d="M9.58283 5.72727L9.4905 10.9084H8.50684L8.41451 5.72727H9.58283ZM9.00044 13.0675C8.80395 13.0675 8.63586 12.9988 8.49618 12.8615C8.3565 12.7218 8.28785 12.5537 8.29022 12.3572C8.28785 12.1631 8.3565 11.9974 8.49618 11.8601C8.63586 11.7204 8.80395 11.6506 9.00044 11.6506C9.19221 11.6506 9.35792 11.7204 9.4976 11.8601C9.63728 11.9974 9.7083 12.1631 9.71067 12.3572C9.7083 12.4875 9.67398 12.607 9.60769 12.7159C9.54377 12.8224 9.45854 12.9077 9.35201 12.9716C9.24547 13.0355 9.12828 13.0675 9.00044 13.0675Z" fill="'white'"/>
</svg>
