<svg width="17" height="17" viewBox="0 0 17 17" fill="none" xmlns="http://www.w3.org/2000/svg">
<path d="M8.5 15.5C4.65 15.5 1.5 12.35 1.5 8.5C1.5 4.65 4.65 1.5 8.5 1.5C12.35 1.5 15.5 4.65 15.5 8.5C15.5 12.35 12.35 15.5 8.5 15.5Z" stroke="#606580" stroke-miterlimit="10" stroke-linecap="round" stroke-linejoin="round"/>
<path d="M6.65002 6.74999C6.65002 5.69999 7.50002 4.89999 8.55002 4.89999C9.50002 4.94999 10.3 5.74999 10.3 6.74999C10.3 7.24999 10.1 7.74999 9.70002 8.09999L8.90002 8.89999C8.60002 9.19999 8.45002 9.54999 8.45002 9.94999V9.99999" stroke="#606580" stroke-miterlimit="10" stroke-linecap="round" stroke-linejoin="round"/>
<path d="M8.5 12V12.2" stroke="#606580" stroke-miterlimit="10" stroke-linecap="round" stroke-linejoin="round"/>
</svg>
