<svg width="16" height="17" viewBox="0 0 16 17" fill="none" xmlns="http://www.w3.org/2000/svg">
<path d="M3.19995 12.65V4.65H8.74995V5.4" stroke="#606580" stroke-miterlimit="10" stroke-linecap="round" stroke-linejoin="round"/>
<path d="M10.4 13.4C10.2 14.05 9.6 14.5 8.9 14.5H2.8C1.95 14.5 1.25 13.8 1.25 12.95V4.05C1.25 3.2 1.95 2.5 2.8 2.5H8.9C9.8 2.5 10.5 3.2 10.5 4.05V5" stroke="#606580" stroke-miterlimit="10" stroke-linecap="round" stroke-linejoin="round"/>
<path d="M13.4 11.5H12.4C11.65 11.5 11 10.9 11 10.1V8.15C11 7.4 11.6 6.75 12.4 6.75H13.4C14.15 6.75 14.8 7.35 14.8 8.15V10.1C14.75 10.9 14.15 11.5 13.4 11.5Z" stroke="#606580" stroke-miterlimit="10" stroke-linecap="round" stroke-linejoin="round"/>
</svg>
