<svg width="16" height="16" viewBox="0 0 16 16" fill="none" xmlns="http://www.w3.org/2000/svg">
<path d="M15 2.8C15 1.8 14.2 1 13.2 1H2.8C1.8 1 1 1.8 1 2.8V13.2C1 14.2 1.8 15 2.8 15H13.2C14.2 15 15 14.2 15 13.2V2.8Z" stroke="#606580" stroke-miterlimit="10" stroke-linecap="round" stroke-linejoin="round"/>
<path d="M8 4V12" stroke="#606580" stroke-miterlimit="10" stroke-linecap="round" stroke-linejoin="round"/>
<path d="M10.3 10.4H5.70005C4.80005 10.4 4.05005 9.65 4.05005 8.75V7.2C4.05005 6.3 4.80005 5.55 5.70005 5.55H10.3C11.2 5.55 11.95 6.3 11.95 7.2V8.75C11.95 9.65 11.2 10.4 10.3 10.4Z" stroke="#606580" stroke-miterlimit="10" stroke-linecap="round" stroke-linejoin="round"/>
</svg>
