<svg width="16" height="16" viewBox="0 0 16 16" fill="none" xmlns="http://www.w3.org/2000/svg">
<path d="M8.0999 12.65H13.3499C14.1999 12.65 14.9499 11.95 14.9499 11.05V3.2C14.9499 2.35 14.2499 1.6 13.3499 1.6H5.4999C4.6499 1.6 3.8999 2.3 3.8999 3.2V7.6" stroke="#606580" stroke-miterlimit="10" stroke-linecap="round" stroke-linejoin="round"/>
<path d="M6.94971 7.9C7.09971 5.5 9.39971 3.65 9.39971 3.65C9.39971 3.65 11.6997 5.55 11.8497 7.9C11.8497 8 11.8497 8.1 11.8497 8.2C11.8497 9.55 10.7497 10.65 9.39971 10.65C8.04971 10.65 6.94971 9.55 6.94971 8.2C6.94971 8.05 6.94971 8 6.94971 7.9Z" stroke="#606580" stroke-miterlimit="10" stroke-linecap="round" stroke-linejoin="round"/>
<path d="M5.39985 14.4V9.89999H1.09985V14.4" stroke="#606580" stroke-miterlimit="10" stroke-linecap="round" stroke-linejoin="round"/>
</svg>
