<svg width="16" height="16" viewBox="0 0 16 16" fill="none" xmlns="http://www.w3.org/2000/svg">
<path d="M10.4 12.9C10.2 13.55 9.6 14 8.9 14H2.8C1.95 14 1.25 13.3 1.25 12.45V3.55C1.25 2.7 1.95 2 2.8 2H8.9C9.8 2 10.5 2.7 10.5 3.55V4.5" stroke="#606580" stroke-miterlimit="10" stroke-linecap="round" stroke-linejoin="round"/>
<path d="M13.4 11H12.4C11.65 11 11 10.4 11 9.6V7.65C11 6.9 11.6 6.25 12.4 6.25H13.4C14.15 6.25 14.8 6.85 14.8 7.65V9.6C14.75 10.4 14.15 11 13.4 11Z" stroke="#606580" stroke-miterlimit="10" stroke-linecap="round" stroke-linejoin="round"/>
<path d="M3.19995 12.15V4.15L5.99995 8.15L8.74995 4.15V12.15" stroke="#606580" stroke-miterlimit="10" stroke-linecap="round" stroke-linejoin="round"/>
</svg>
