<svg width="16" height="17" viewBox="0 0 16 17" fill="none" xmlns="http://www.w3.org/2000/svg">
<path d="M10.0999 6.3V10.7" stroke="#606580" stroke-miterlimit="10" stroke-linecap="round" stroke-linejoin="round"/>
<path d="M11.1999 9.85001H8.9999C8.4999 9.85001 8.1499 9.45 8.1499 9V8.05C8.1499 7.55 8.5499 7.2 8.9999 7.2H11.1999C11.6999 7.2 12.0499 7.6 12.0499 8.05V9C12.0499 9.45 11.6499 9.85001 11.1999 9.85001Z" stroke="#606580" stroke-miterlimit="10" stroke-linecap="round" stroke-linejoin="round"/>
<path d="M7.05 6.3L4 10.7" stroke="#606580" stroke-miterlimit="10" stroke-linecap="round" stroke-linejoin="round"/>
<path d="M3.44995 6.3L5.34995 8.8" stroke="#606580" stroke-miterlimit="10" stroke-linecap="round" stroke-linejoin="round"/>
<path fill-rule="evenodd" clip-rule="evenodd" d="M12.9 13.4H0.5V6.2C1.5 5.2 2.1 4.6 3.1 3.6H15.5V10.75C14.5 11.8 13.9 12.35 12.9 13.4Z" stroke="#606580" stroke-miterlimit="10" stroke-linecap="round" stroke-linejoin="round"/>
</svg>
