<svg width="16" height="17" viewBox="0 0 16 17" fill="none" xmlns="http://www.w3.org/2000/svg">
<path fill-rule="evenodd" clip-rule="evenodd" d="M12.9 13.4H0.5V6.2C1.5 5.2 2.1 4.6 3.1 3.6H15.5V10.75C14.5 11.8 13.9 12.35 12.9 13.4Z" stroke="#606580" stroke-miterlimit="10" stroke-linecap="round" stroke-linejoin="round"/>
<path d="M5.54995 10.65H4.69995C3.99995 10.65 3.44995 10.1 3.44995 9.4V7.65C3.44995 6.95 3.99995 6.4 4.69995 6.4H5.54995C6.24995 6.4 6.79995 6.95 6.79995 7.65V9.4C6.79995 10.1 6.24995 10.65 5.54995 10.65Z" stroke="#606580" stroke-miterlimit="10" stroke-linecap="round" stroke-linejoin="round"/>
<path d="M8.0498 6.3L9.3498 8.5L8.0498 10.7" stroke="#606580" stroke-miterlimit="10" stroke-linecap="round" stroke-linejoin="round"/>
<path d="M10.2998 6.3V10.7" stroke="#606580" stroke-miterlimit="10" stroke-linecap="round" stroke-linejoin="round"/>
<path d="M12.5 6.3L11.2 8.5L12.5 10.7" stroke="#606580" stroke-miterlimit="10" stroke-linecap="round" stroke-linejoin="round"/>
<path d="M9.3501 8.5H11.2001" stroke="#606580" stroke-miterlimit="10" stroke-linecap="round" stroke-linejoin="round"/>
</svg>
