<svg width="16" height="16" viewBox="0 0 16 16" fill="none" xmlns="http://www.w3.org/2000/svg">
<path d="M12.8999 6.35001V11" stroke="#606580" stroke-miterlimit="10" stroke-linecap="round" stroke-linejoin="round"/>
<path d="M14.3999 10.05H11.3499C10.7999 10.05 10.3499 9.60001 10.3499 9.05001V8.25001C10.3499 7.70001 10.7999 7.25001 11.3499 7.25001H14.3999C14.9499 7.25001 15.3999 7.70001 15.3999 8.25001V9.05001C15.3999 9.65001 14.9499 10.05 14.3999 10.05Z" stroke="#606580" stroke-miterlimit="10" stroke-linecap="round" stroke-linejoin="round"/>
<path d="M9.7501 12.9C9.5501 13.55 8.9501 14 8.2501 14H2.1501C1.3001 14 0.600098 13.3 0.600098 12.45V3.55C0.600098 2.7 1.3001 2 2.1501 2H8.2501C9.1001 2 9.8001 2.7 9.8001 3.55V4.5" stroke="#606580" stroke-miterlimit="10" stroke-linecap="round" stroke-linejoin="round"/>
<path d="M2.5498 12.15V4.15L5.3498 8.15L8.1498 4.15V12.15" stroke="#606580" stroke-miterlimit="10" stroke-linecap="round" stroke-linejoin="round"/>
</svg>
