<svg width="16" height="17" viewBox="0 0 16 17" fill="none" xmlns="http://www.w3.org/2000/svg">
<path fill-rule="evenodd" clip-rule="evenodd" d="M14.5502 15H8.10017C7.80017 15 7.55017 14.75 7.55017 14.45V9.45002C7.55017 9.15002 7.80017 8.90002 8.10017 8.90002H14.5002C14.8002 8.90002 15.0502 9.15002 15.0502 9.45002V14.45C15.1002 14.75 14.8502 15 14.5502 15Z" stroke="#606580" stroke-miterlimit="10" stroke-linecap="round" stroke-linejoin="round"/>
<path d="M10.8002 10.7H9.55017V11.7" stroke="#606580" stroke-miterlimit="10" stroke-linecap="round" stroke-linejoin="round"/>
<path d="M11.8502 13.2H13.0502V12.15" stroke="#606580" stroke-miterlimit="10" stroke-linecap="round" stroke-linejoin="round"/>
<path d="M5.15012 15H2.75012" stroke="#606580" stroke-miterlimit="10" stroke-linecap="round" stroke-linejoin="round"/>
<path d="M4.6001 3.84998H13.9001V6.79998" stroke="#606580" stroke-miterlimit="10" stroke-linecap="round" stroke-linejoin="round"/>
<path d="M2.75002 15C1.70002 15 0.900024 14.15 0.900024 13.15C0.900024 12.15 1.75002 11.3 2.75002 11.3C3.75002 11.3 4.60002 12.15 4.60002 13.15V3.85C4.60002 2.85 3.80002 2 2.75002 2C1.70002 2 0.900024 2.85 0.900024 3.85V13.15" stroke="#606580" stroke-miterlimit="10" stroke-linecap="round" stroke-linejoin="round"/>
</svg>
