<svg width="16" height="17" viewBox="0 0 16 17" fill="none" xmlns="http://www.w3.org/2000/svg">
<path d="M9.8501 9.75L11.1001 8.5L12.3501 9.75" stroke="#606580" stroke-miterlimit="10" stroke-linecap="round" stroke-linejoin="round"/>
<path d="M11.1 15V8.5" stroke="#606580" stroke-miterlimit="10" stroke-linecap="round" stroke-linejoin="round"/>
<path d="M8.15015 13.8L6.90015 12.55L8.15015 11.3" stroke="#606580" stroke-miterlimit="10" stroke-linecap="round" stroke-linejoin="round"/>
<path d="M6.90027 12.55H8.55027C9.80027 12.55 11.0503 13.75 11.0503 15" stroke="#606580" stroke-miterlimit="10" stroke-linecap="round" stroke-linejoin="round"/>
<path d="M14 13.75L15.25 12.5L14 11.2" stroke="#606580" stroke-miterlimit="10" stroke-linecap="round" stroke-linejoin="round"/>
<path d="M15.25 12.5H13.6C12.75 12.5 11.85 13.05 11.4 13.8C11.25 14 11.2 14.25 11.1 14.45" stroke="#606580" stroke-miterlimit="10" stroke-linecap="round" stroke-linejoin="round"/>
<path d="M4.99998 15H2.59998" stroke="#606580" stroke-miterlimit="10" stroke-linecap="round" stroke-linejoin="round"/>
<path d="M4.5 3.84998H13.75V6.79998" stroke="#606580" stroke-miterlimit="10" stroke-linecap="round" stroke-linejoin="round"/>
<path d="M2.6 15C1.55 15 0.75 14.15 0.75 13.15C0.75 12.15 1.6 11.3 2.6 11.3C3.6 11.3 4.5 12.1 4.5 13.15V3.85C4.5 2.85 3.65 2 2.6 2C1.55 2 0.75 2.85 0.75 3.85V13.15" stroke="#606580" stroke-miterlimit="10" stroke-linecap="round" stroke-linejoin="round"/>
</svg>
