<svg width="16" height="17" viewBox="0 0 16 17" fill="none" xmlns="http://www.w3.org/2000/svg">
<path d="M5.35002 14.9H2.90002" stroke="#606580" stroke-miterlimit="10" stroke-linecap="round" stroke-linejoin="round"/>
<path d="M4.84998 3.40002H14.4V6.45002" stroke="#606580" stroke-miterlimit="10" stroke-linecap="round" stroke-linejoin="round"/>
<path d="M2.9 14.9C1.85 14.9 1 14.05 1 13C1 11.95 1.85 11.1 2.9 11.1C3.95 11.1 4.8 11.95 4.8 13V3.4C4.85 2.35 3.95 1.5 2.9 1.5C1.85 1.5 1 2.35 1 3.4V13" stroke="#606580" stroke-miterlimit="10" stroke-linecap="round" stroke-linejoin="round"/>
<path d="M11.35 15.5C13.3658 15.5 15 13.8659 15 11.85C15 9.83417 13.3658 8.20001 11.35 8.20001C9.33411 8.20001 7.69995 9.83417 7.69995 11.85C7.69995 13.8659 9.33411 15.5 11.35 15.5Z" stroke="#606580" stroke-miterlimit="10" stroke-linecap="round" stroke-linejoin="round"/>
<path d="M11.3499 13.85V11.85" stroke="#606580" stroke-miterlimit="10" stroke-linecap="round" stroke-linejoin="round"/>
<path d="M11.35 10.2V10" stroke="#606580" stroke-miterlimit="10" stroke-linecap="round" stroke-linejoin="round"/>
</svg>
