<svg width="16" height="16" viewBox="0 0 16 16" fill="none" xmlns="http://www.w3.org/2000/svg">
<path d="M4.99998 14H2.59998" stroke="#606580" stroke-miterlimit="10" stroke-linecap="round" stroke-linejoin="round"/>
<path d="M4.5 2.84998H13.75V5.79998" stroke="#606580" stroke-miterlimit="10" stroke-linecap="round" stroke-linejoin="round"/>
<path d="M2.6 14C1.55 14 0.75 13.15 0.75 12.15C0.75 11.15 1.6 10.3 2.6 10.3C3.6 10.3 4.5 11.1 4.5 12.15V2.85C4.5 1.85 3.65 1 2.6 1C1.55 1 0.75 1.85 0.75 2.85V12.15" stroke="#606580" stroke-miterlimit="10" stroke-linecap="round" stroke-linejoin="round"/>
<path d="M8.69957 9.55019L6.99988 11.2499L8.69957 12.9496L10.3993 11.2499L8.69957 9.55019Z" stroke="#606580" stroke-miterlimit="10" stroke-linecap="round" stroke-linejoin="round"/>
<path d="M11.25 7.00001L9.55029 8.69971L11.25 10.3994L12.9497 8.69971L11.25 7.00001Z" stroke="#606580" stroke-miterlimit="10" stroke-linecap="round" stroke-linejoin="round"/>
<path d="M11.2497 12.1006L9.55005 13.8003L11.2497 15.5L12.9494 13.8003L11.2497 12.1006Z" stroke="#606580" stroke-miterlimit="10" stroke-linecap="round" stroke-linejoin="round"/>
<path d="M13.8002 9.55031L12.1005 11.25L13.8002 12.9497L15.4998 11.25L13.8002 9.55031Z" stroke="#606580" stroke-miterlimit="10" stroke-linecap="round" stroke-linejoin="round"/>
</svg>
