<svg width="16" height="17" viewBox="0 0 16 17" fill="none" xmlns="http://www.w3.org/2000/svg">
<path d="M5.09988 15H2.74988" stroke="#606580" stroke-miterlimit="10" stroke-linecap="round" stroke-linejoin="round"/>
<path d="M4.59985 3.84998H13.8499V5.59998" stroke="#606580" stroke-miterlimit="10" stroke-linecap="round" stroke-linejoin="round"/>
<path d="M2.74998 15C1.59998 15 0.649976 13.9 0.949976 12.7C1.09998 12.05 1.64998 11.5 2.29998 11.35C3.19998 11.15 4.04998 11.6 4.39998 12.35C4.44998 12.45 4.59998 12.4 4.59998 12.3V3.95002C4.59998 2.95002 3.84998 2.05002 2.84998 2.00002C1.74998 1.95002 0.849976 2.80002 0.849976 3.85002V13.15" stroke="#606580" stroke-miterlimit="10" stroke-linecap="round" stroke-linejoin="round"/>
<path d="M10.1999 14.1L8.09985 14.8L8.79985 12.7L13.7499 7.75L15.1499 9.15L10.1999 14.1Z" stroke="#606580" stroke-miterlimit="10" stroke-linecap="round" stroke-linejoin="round"/>
<path d="M12.5997 8.90002L13.9997 10.3" stroke="#606580" stroke-miterlimit="10" stroke-linecap="round" stroke-linejoin="round"/>
</svg>
